<?xml version="1.0" encoding="utf-8"?>
<!-- Generator: Adobe Illustrator 26.1.0, SVG Export Plug-In . SVG Version: 6.00 Build 0)  -->
<svg version="1.1" id="Layer_1" xmlns="http://www.w3.org/2000/svg" xmlns:xlink="http://www.w3.org/1999/xlink" x="0px" y="0px"
	 viewBox="0 0 578.75 384" style="enable-background:new 0 0 578.75 384;" xml:space="preserve">
<style type="text/css">
	.st0{fill:#FFFFFF;}
	.st1{fill:#222433;}
	.st2{fill:#15C2C1;}
	.st3{fill:#C35515;}
	.st4{fill:#FF7F36;}
	.st5{fill:#222433;stroke:#FF7F36;stroke-width:1.4062;stroke-miterlimit:10;}
	.st6{fill:none;stroke:#222433;stroke-width:1.932;stroke-miterlimit:10;}
	.st7{fill:#2B292D;}
</style>
<g>
	<path class="st0" d="M88.61,162.89c-0.44,0.99-2.63,6.61-4.74,12.26l-5.46,21.28c-1,10.28-0.44,21.68,3.83,21.72
		c3.91,0.08,3.91-6.72,5.62-19.34c0.44,11.43,0.76,19.66,4.78,19.26c3.99-0.4,3.51-11.99,3.07-20.81
		c2.87,5.46,6.46,12.97,9.49,12.18c4.34-1.19,1.55-7.71,0.16-12.22c-3.11-10.05,1.28-12.66,5.02-18.2c2.47-3.68,1.87-8.86-0.12-14.4
		L88.61,162.89z"/>
	<path class="st1" d="M82.31,219.33H82.2c-1.03-0.02-2-0.49-2.67-1.27c-3.71-4.09-2.71-17.68-2.32-21.74
		c0.01-0.06,0.02-0.12,0.03-0.18l5.46-21.28c0.01-0.04,0.02-0.08,0.04-0.12c2.06-5.52,4.29-11.25,4.77-12.33
		c0.21-0.46,0.68-0.74,1.19-0.7l21.64,1.74c0.47,0.04,0.87,0.34,1.03,0.78c2.43,6.76,2.43,11.82-0.01,15.46
		c-0.7,1.03-1.4,1.94-2.08,2.82c-3,3.89-5.17,6.71-2.8,14.37c0.17,0.53,0.35,1.1,0.54,1.67c1.16,3.52,2.47,7.51,1.1,10.05
		c-0.55,1-1.5,1.73-2.62,1.99c-3.03,0.79-5.77-3.26-8.39-8.07c0.28,9.28-0.29,16.33-4.36,16.73c-0.98,0.11-1.96-0.2-2.7-0.85
		c-1.4-1.21-2.16-3.69-2.61-7.16C86.59,216.5,85.45,219.33,82.31,219.33L82.31,219.33z M79.59,196.63
		c-0.93,9.7-0.24,17.67,1.73,19.84c0.22,0.29,0.56,0.47,0.93,0.49h0.03c2.13,0,2.69-4.61,3.62-12.22c0.22-1.82,0.47-3.88,0.77-6.09
		c0.09-0.65,0.69-1.11,1.34-1.02c0.58,0.08,1.01,0.55,1.04,1.13c0.32,8.31,0.62,16.16,2.58,17.86c0.24,0.22,0.57,0.32,0.89,0.27
		c0.38-0.04,1.67-0.59,2.12-6.16c0.33-4.16,0.06-9.73-0.13-13.41c-0.03-0.65,0.48-1.21,1.14-1.24c0.47-0.02,0.9,0.23,1.12,0.64
		c0.25,0.47,0.5,0.95,0.75,1.45c1.32,2.54,2.82,5.42,4.27,7.47c1.92,2.72,2.86,2.73,3.1,2.67c0.48-0.1,0.9-0.4,1.14-0.83
		c0.89-1.64-0.31-5.27-1.26-8.19c-0.19-0.59-0.38-1.17-0.55-1.71c-2.73-8.83,0.14-12.56,3.18-16.51c0.66-0.85,1.34-1.74,1.99-2.7
		c1.88-2.8,1.88-7.05,0-12.62l-20-1.61c-0.77,1.91-2.58,6.56-4.37,11.36L79.59,196.63z"/>
	<path class="st2" d="M102.44,138.54c0,0-5.3,20.37-10.16,40.78c-0.24,0.99-0.48,2.02-0.72,3.01c-4.3,18.16-8.21,35.95-8.05,39.63
		l-0.36,80.53l0.12,15.62h60.15v-84.69l-0.08-1.98l11.96,17.29l17.38,71.75l58.31-15.39l-18.89-78.12
		c-0.99-4.17-2.82-8.1-5.38-11.55l-19.17-25.39l-21.68-28.68l-3.63-4.79L102.44,138.54z"/>
	<path class="st1" d="M172.67,321.68c-0.55,0-1.03-0.38-1.16-0.91l-17.33-71.54l-9.57-13.84v82.72c0,0.66-0.54,1.19-1.2,1.19H83.27
		c-0.66,0-1.19-0.53-1.2-1.18l-0.12-15.62l0.36-80.52c-0.16-4.17,4.31-24,8.08-39.93c0.12-0.5,0.24-1,0.36-1.5s0.24-1.01,0.36-1.51
		c4.81-20.18,10.12-40.6,10.17-40.8c0.17-0.63,0.82-1.02,1.46-0.85c0.02,0,0.03,0.01,0.05,0.01l59.79,18.04
		c0.24,0.07,0.46,0.22,0.61,0.42l3.63,4.79l21.68,28.68l19.17,25.39c2.66,3.58,4.56,7.66,5.59,11.99l18.89,78.12
		c0.15,0.63-0.23,1.26-0.86,1.42l-58.31,15.39C172.88,321.66,172.77,321.68,172.67,321.68z M143.34,230.27
		c0.39,0,0.76,0.19,0.99,0.51l11.96,17.29c0.08,0.12,0.14,0.25,0.18,0.4l17.09,70.57l56-14.78l-18.62-76.99
		c-0.95-4.02-2.71-7.8-5.18-11.12l-19.17-25.39l-21.68-28.68l-3.39-4.48l-58.22-17.56c-1.21,4.67-5.71,22.2-9.85,39.56
		c-0.12,0.5-0.24,1-0.36,1.5s-0.24,1.01-0.36,1.51c-5.3,22.36-8.15,36.32-8.02,39.31v0.06l-0.36,80.53l0.11,14.43h57.76v-83.48
		l-0.08-1.95c-0.03-0.65,0.49-1.21,1.15-1.23C143.3,230.27,143.32,230.27,143.34,230.27L143.34,230.27z"/>
	<path class="st3" d="M140.39,355.89l0.04-37.7H89.57c-3.51,9.53-12.16,14.56-22.52,16.85c-9.13,2.02-14.95,10.68-14.27,20.45v0.44
		l58.47-0.04l9.65-16.34l-0.2,16.34H140.39z"/>
	<path class="st1" d="M52.78,357.12c-0.66,0-1.2-0.53-1.2-1.19v-0.4c-0.71-10.44,5.68-19.54,15.21-21.65
		c11.37-2.52,18.65-7.93,21.66-16.1c0.17-0.47,0.62-0.78,1.12-0.78h50.86c0.66,0,1.2,0.53,1.2,1.19l-0.04,37.7
		c0,0.66-0.54,1.19-1.2,1.19H120.7c-0.66,0-1.2-0.53-1.2-1.19v-0.01l0.14-11.86l-7.36,12.47c-0.21,0.36-0.61,0.59-1.03,0.59
		L52.78,357.12L52.78,357.12z M90.39,319.39c-3.46,8.54-11.22,14.2-23.08,16.82c-8.17,1.81-13.71,9.54-13.37,18.54l56.63-0.04
		l9.3-15.75c0.33-0.57,1.07-0.76,1.64-0.42c0.37,0.22,0.6,0.61,0.59,1.04l-0.18,15.14h17.28l0.04-35.32L90.39,319.39z"/>
	<path class="st3" d="M224.85,306.69c1.51,8.46,6.86,13.53,16.38,11.71l17.82-2.77c9.17-1.7,17.86,3.24,21.09,12.42l0.16,0.44
		l-57.56,27.37l-27.98-16.34l0.2,16.34h-19.69l-0.04-36.11L224.85,306.69z"/>
	<path class="st1" d="M222.73,357.04c-0.21,0-0.42-0.06-0.61-0.16l-26.15-15.27l0.17,14.23c0.01,0.66-0.52,1.19-1.18,1.2h-0.01
		h-19.69c-0.66,0-1.2-0.53-1.2-1.19l-0.04-36.11c0-0.54,0.36-1.01,0.89-1.15l49.62-13.05c0.64-0.17,1.29,0.21,1.46,0.84
		c0.01,0.03,0.02,0.06,0.02,0.1c0.77,4.3,2.57,7.52,5.2,9.31c2.51,1.71,5.8,2.2,9.78,1.44l0.04-0.01l17.82-2.77
		c9.8-1.82,19.02,3.61,22.4,13.2l0.15,0.42c0.21,0.57-0.05,1.21-0.61,1.47l-57.56,27.37C223.09,357,222.91,357.04,222.73,357.04
		L222.73,357.04z M176.46,354.67h17.28l-0.18-15.13c-0.01-0.66,0.52-1.19,1.18-1.2c0.22,0,0.43,0.05,0.62,0.16l27.43,16.02l56-26.63
		c-3.14-8.12-11.08-12.65-19.53-11.08l-17.83,2.77c-4.62,0.88-8.51,0.27-11.57-1.82c-2.9-1.98-4.93-5.28-5.94-9.59l-47.51,12.5
		L176.46,354.67z"/>
	<path class="st1" d="M87.49,342.29c-1.12,0-2.19-0.46-2.95-1.29c-0.86-0.93-1.25-2.19-1.06-3.44l1.74-12.28l-14.28,1.68
		c-1.84,0.18-3.56-0.91-4.18-2.64l-0.09-0.26c-0.53-1.48-0.19-3.12,0.88-4.27c0.97-1.07,2.48-1.51,3.88-1.12l15.54,4.11
		c0.42,0.11,0.74,0.43,0.85,0.85l3.51,13.45c0.31,1.22,0.06,2.51-0.67,3.53c-0.67,0.95-1.73,1.56-2.89,1.67
		C87.67,342.29,87.58,342.29,87.49,342.29z M86.98,329.91l-1.13,8v0.01c-0.08,0.54,0.08,1.08,0.45,1.48
		c0.53,0.63,1.48,0.71,2.11,0.18c0.11-0.1,0.21-0.21,0.3-0.33c0.33-0.46,0.43-1.03,0.3-1.57L86.98,329.91z M70.4,320.91
		c-0.42,0.01-0.82,0.19-1.1,0.5c-0.47,0.51-0.61,1.24-0.37,1.89l0.09,0.26c0.25,0.69,0.93,1.12,1.66,1.05l9.62-1.13l-9.5-2.51
		C70.67,320.93,70.54,320.91,70.4,320.91L70.4,320.91z"/>
	<path class="st1" d="M162.91,258.83c-0.35,0-0.68-0.15-0.91-0.42l-7.65-8.9c-0.43-0.5-0.37-1.25,0.13-1.67
		c0.5-0.43,1.26-0.37,1.69,0.13l7.65,8.9c0.43,0.5,0.37,1.25-0.13,1.67C163.47,258.73,163.19,258.83,162.91,258.83L162.91,258.83z"
		/>
	<path class="st1" d="M239.86,337.03c-0.58,0-1.16-0.11-1.7-0.32c-1.38-0.55-2.44-1.67-2.92-3.06l-5.39-15.7
		c-0.11-0.33-0.08-0.69,0.1-0.98l6.33-10.7c0.78-1.34,2.18-2.21,3.74-2.31c1.6-0.08,3.14,0.63,4.11,1.89
		c0.92,1.16,1.27,2.66,0.96,4.1c-0.29,1.4-1.21,2.59-2.48,3.25l-8.3,4.24l9.56,11.14c1.01,1.18,1.43,2.74,1.13,4.26
		c-0.26,1.43-1.16,2.67-2.45,3.36l-0.52,0.28C241.35,336.85,240.62,337.03,239.86,337.03L239.86,337.03z M232.9,319.48l4.6,13.4
		c0.25,0.74,0.81,1.33,1.53,1.63c0.6,0.24,1.28,0.21,1.85-0.09l0.52-0.28c0.66-0.36,1.11-0.99,1.24-1.72
		c0.16-0.81-0.06-1.65-0.6-2.28L232.9,319.48z M240.31,306.32c-0.05,0-0.1,0-0.14,0c-0.77,0.05-1.45,0.48-1.83,1.15l-4.44,7.52
		l7.62-3.89c0.64-0.33,1.1-0.94,1.24-1.64c0.17-0.75-0.02-1.53-0.5-2.14C241.8,306.7,241.08,306.34,240.31,306.32L240.31,306.32z"/>
	<g>
		<g>
			<ellipse class="st4" cx="103.2" cy="278.72" rx="3.55" ry="3.52"/>
			<ellipse class="st4" cx="89.05" cy="261.12" rx="3.55" ry="3.52"/>
			<ellipse class="st4" cx="139.47" cy="272.59" rx="3.55" ry="3.52"/>
			<ellipse class="st4" cx="127.75" cy="254.52" rx="3.55" ry="3.52"/>
			<ellipse class="st4" cx="121.78" cy="274.37" rx="3.55" ry="3.52"/>
			<ellipse class="st4" cx="107.82" cy="258.59" rx="3.55" ry="3.52"/>
			<ellipse class="st4" cx="94.03" cy="241.07" rx="3.55" ry="3.52"/>
			<ellipse class="st4" cx="114.68" cy="237.98" rx="3.55" ry="3.52"/>
			<ellipse class="st4" cx="100.13" cy="220.42" rx="3.55" ry="3.52"/>
			<ellipse class="st4" cx="135.6" cy="235.21" rx="3.55" ry="3.52"/>
			<ellipse class="st4" cx="123.92" cy="216.9" rx="3.55" ry="3.52"/>
			<ellipse class="st4" cx="108.3" cy="198.9" rx="3.55" ry="3.52"/>
			<path class="st4" d="M89.05,195.03c0.45-0.21,0.94-0.31,1.43-0.32c1.96,0,3.55,1.58,3.54,3.52c0,1.94-1.59,3.51-3.54,3.52
				c-1.27,0-2.45-0.68-3.07-1.78L89.05,195.03z"/>
			<ellipse class="st4" cx="137.6" cy="292.09" rx="3.55" ry="3.52"/>
			<ellipse class="st4" cx="120.03" cy="294.27" rx="3.55" ry="3.52"/>
			<ellipse class="st4" cx="118.23" cy="311.56" rx="3.55" ry="3.52"/>
			<ellipse class="st4" cx="101.6" cy="297" rx="3.55" ry="3.52"/>
			<ellipse class="st4" cx="99.65" cy="315.27" rx="3.55" ry="3.52"/>
			<path class="st4" d="M83.59,299.29c1.96,0,3.55,1.58,3.54,3.52c0,1.94-1.59,3.51-3.54,3.52V299.29z"/>
			<path class="st4" d="M84.58,277.18c1.96,0,3.55,1.58,3.54,3.52c0,1.94-1.59,3.51-3.54,3.52V277.18z"/>
			<ellipse class="st4" cx="135.92" cy="311.59" rx="3.55" ry="3.52"/>
			<ellipse class="st4" cx="188.73" cy="271.21" rx="3.55" ry="3.52"/>
			<ellipse class="st4" cx="174.58" cy="253.61" rx="3.55" ry="3.52"/>
			<ellipse class="st4" cx="213.29" cy="247" rx="3.55" ry="3.52"/>
			<ellipse class="st4" cx="207.27" cy="266.9" rx="3.55" ry="3.52"/>
			<ellipse class="st4" cx="193.36" cy="251.07" rx="3.55" ry="3.52"/>
			<ellipse class="st4" cx="179.57" cy="233.55" rx="3.55" ry="3.52"/>
			<ellipse class="st4" cx="200.17" cy="230.47" rx="3.55" ry="3.52"/>
			<ellipse class="st4" cx="185.63" cy="212.9" rx="3.55" ry="3.52"/>
			<ellipse class="st4" cx="223.17" cy="284.58" rx="3.55" ry="3.52"/>
			<ellipse class="st4" cx="205.51" cy="286.79" rx="3.55" ry="3.52"/>
			<ellipse class="st4" cx="203.72" cy="304.08" rx="3.55" ry="3.52"/>
			<ellipse class="st4" cx="187.14" cy="289.48" rx="3.55" ry="3.52"/>
			<ellipse class="st4" cx="185.19" cy="307.76" rx="3.55" ry="3.52"/>
			<ellipse class="st4" cx="169.08" cy="295.34" rx="3.55" ry="3.52"/>
			<ellipse class="st4" cx="170.16" cy="273.22" rx="3.55" ry="3.52"/>
			<ellipse class="st4" cx="221.46" cy="304.08" rx="3.55" ry="3.52"/>
			<ellipse class="st4" cx="133.81" cy="185.89" rx="3.55" ry="3.52"/>
			<ellipse class="st4" cx="119.54" cy="168.39" rx="3.55" ry="3.52"/>
			<ellipse class="st4" cx="158.32" cy="161.68" rx="3.55" ry="3.52"/>
			<ellipse class="st4" cx="152.3" cy="181.58" rx="3.55" ry="3.52"/>
			<ellipse class="st4" cx="138.39" cy="165.76" rx="3.55" ry="3.52"/>
			<ellipse class="st4" cx="124.64" cy="148.23" rx="3.55" ry="3.52"/>
			<ellipse class="st4" cx="168.21" cy="199.26" rx="3.55" ry="3.52"/>
			<path class="st4" d="M190.73,192.26c0,1.94-1.59,3.52-3.55,3.52s-3.55-1.58-3.55-3.52s1.59-3.52,3.55-3.52l0,0L190.73,192.26z"/>
			<ellipse class="st4" cx="172.63" cy="175.33" rx="3.55" ry="3.52"/>
			<ellipse class="st4" cx="107.02" cy="149.89" rx="3.55" ry="3.52"/>
			<ellipse class="st4" cx="150.55" cy="201.47" rx="3.55" ry="3.52"/>
			<ellipse class="st4" cx="130.22" cy="201.39" rx="3.55" ry="3.52"/>
			<ellipse class="st4" cx="158.32" cy="236.44" rx="3.55" ry="3.52"/>
			<ellipse class="st4" cx="145.17" cy="220.42" rx="3.55" ry="3.52"/>
			<ellipse class="st4" cx="102.2" cy="177.94" rx="3.55" ry="3.52"/>
			<ellipse class="st4" cx="166.49" cy="218.76" rx="3.55" ry="3.52"/>
		</g>
	</g>
	<path class="st1" d="M172.71,321.64c-0.55,0-1.03-0.38-1.16-0.91l-17.33-71.54l-9.57-13.84v82.76c0,0.66-0.54,1.19-1.2,1.19H83.31
		c-0.66,0-1.19-0.53-1.2-1.18l-0.12-15.62l0.36-80.52c-0.32-8.26,17.95-80.23,18.73-83.3c0.16-0.64,0.81-1.02,1.45-0.86
		c0.02,0,0.03,0.01,0.05,0.01l60.03,17.56c0.25,0.07,0.46,0.22,0.62,0.42l3.63,4.79l21.68,28.68l19.17,25.39
		c2.66,3.58,4.56,7.66,5.59,11.99l18.89,78.12c0.15,0.63-0.23,1.26-0.86,1.42l-58.31,15.39
		C172.92,321.62,172.81,321.64,172.71,321.64L172.71,321.64z M143.38,230.23c0.39,0,0.76,0.19,0.99,0.51l11.96,17.29
		c0.08,0.12,0.14,0.25,0.18,0.4L173.6,319l56-14.78l-18.62-76.99c-0.95-4.02-2.71-7.8-5.18-11.12l-19.17-25.39l-21.68-28.68
		l-3.39-4.47l-58.45-17.1c-6.64,26.2-18.63,75.33-18.35,81.44v0.06L84.4,302.5l0.11,14.43h57.76v-83.51l-0.08-1.95
		c-0.03-0.65,0.49-1.21,1.15-1.23C143.34,230.23,143.36,230.23,143.38,230.23L143.38,230.23z"/>
	<path class="st0" d="M94.03,179.16c0.33,4.39-1.78,8.61-5.5,11c-1.78,1.06-3.36,2.42-4.66,4.03c-5.14,6.68-6.5,6.09-8.45,5.81
		c-4.54-0.67,7.02-20.01,11.04-30.73L94.03,179.16z"/>
	<path class="st1" d="M76.76,201.34c-0.42-0.01-0.83-0.04-1.24-0.11l-0.27-0.04c-0.73-0.09-1.37-0.53-1.71-1.18
		c-1.38-2.57,1.53-8.93,6.4-19.1c2.03-4.25,4.13-8.63,5.41-12.04c0.23-0.61,0.92-0.93,1.54-0.7s0.93,0.91,0.7,1.53
		c-1.32,3.5-3.44,7.94-5.49,12.23c-1.88,3.93-3.83,8-5.08,11.22c-1.67,4.29-1.48,5.45-1.38,5.7l0.26,0.04
		c1.44,0.22,2.58,0.39,7.03-5.4c1.38-1.72,3.06-3.18,4.96-4.31c3.35-2.16,5.25-5.96,4.96-9.92c-0.05-0.65,0.45-1.22,1.11-1.27
		s1.23,0.44,1.28,1.1c0.35,4.82-1.96,9.44-6.04,12.08c-1.67,0.99-3.15,2.26-4.36,3.76C80.71,200.26,78.73,201.34,76.76,201.34
		L76.76,201.34z"/>
	<path class="st4" d="M49.51,117.22c-1.14-12.04,6.59-23.16,18.33-26.38l48.07-13.13c7.03-1.67,14.38-1.42,21.28,0.71l12.56,3.92
		L192,100.57l-19.65,42.4l-10.2,13.57l-55.6-16.65l-2.35-0.67l3.22-19.38l-9.18,1.5l5.95,17.88l-10.14,39.61l-36.98-48.79
		C54.01,126.04,50.71,122.13,49.51,117.22L49.51,117.22z"/>
	<path class="st1" d="M94.06,180.01c-0.38,0-0.73-0.18-0.96-0.47l-36.98-48.78c-0.28-0.37-0.57-0.74-0.87-1.12
		c-2.84-3.66-5.77-7.44-6.92-12.13c-0.01-0.05-0.02-0.11-0.03-0.17c-1.21-12.62,6.89-24.27,19.2-27.64l48.07-13.13
		c0.01,0,0.03-0.01,0.04-0.01c7.24-1.71,14.81-1.46,21.92,0.73l12.56,3.92c0.04,0.01,0.08,0.03,0.12,0.04l42.25,18.23
		c0.61,0.26,0.88,0.96,0.62,1.56c0,0.01-0.01,0.01-0.01,0.02l-19.65,42.4c-0.04,0.08-0.08,0.15-0.13,0.21l-10.2,13.57
		c-0.3,0.4-0.82,0.57-1.3,0.43l-55.6-16.65l-1.15-0.33l-9.83,38.42c-0.11,0.44-0.47,0.78-0.92,0.87
		C94.22,180,94.14,180.01,94.06,180.01L94.06,180.01z M50.69,117.03c1.04,4.16,3.67,7.56,6.47,11.16c0.29,0.38,0.58,0.76,0.88,1.13
		l35.48,46.81l9.44-36.87l-5.84-17.55c-0.21-0.62,0.13-1.29,0.76-1.5c0.06-0.02,0.12-0.03,0.18-0.04l9.18-1.51
		c0.65-0.11,1.27,0.33,1.37,0.98c0.02,0.13,0.02,0.26,0,0.39l-3.05,18.34l1.32,0.38l54.81,16.42l9.63-12.8l19.09-41.19l-41.07-17.73
		l-12.49-3.9c-6.69-2.06-13.81-2.3-20.63-0.69L68.16,91.98C57,95.03,49.64,105.58,50.69,117.03L50.69,117.03z M99.82,122.28
		l3.99,11.99l2.16-12.99L99.82,122.28z"/>
	<path class="st0" d="M153.46,67.5l-7.57,13.05c-1.91,3.3-2,7.34-0.24,10.72l0.44,0.83c2.89,5.43,9.68,7.5,15.15,4.63
		c0.03-0.01,0.05-0.03,0.08-0.04c1.77-0.96,3.26-2.36,4.3-4.07l5.06-8.35c8.38,0.19,15.61-5.82,16.9-14.04
		c0.22-1.36,0.26-2.74,0.12-4.11c-0.31-3.45-1.71-6.71-3.99-9.33c0.53-1.23,0.89-2.52,1.08-3.84c0.2-1.92,0.2-3.86,0-5.77
		l-18.69-2.29l-4.82,5.97l-5.3-0.2c-6.98-0.24-10.76,7.95-6.06,13.05L153.46,67.5z"/>
	<path class="st1" d="M156,99.22c-1.23,0-2.45-0.18-3.63-0.54c-3.16-0.95-5.8-3.11-7.34-6.02l-0.44-0.84
		c-1.96-3.74-1.86-8.21,0.26-11.86l7.13-12.3l-2.95-3.16c-3.38-3.65-3.14-9.32,0.53-12.68c1.75-1.6,4.07-2.45,6.44-2.36l4.7,0.18
		l4.45-5.51c0.26-0.32,0.67-0.49,1.08-0.44l18.69,2.29c0.55,0.07,0.98,0.5,1.04,1.05c0.21,2.02,0.21,4.06-0.01,6.08
		c-0.17,1.18-0.47,2.33-0.88,3.44c2.17,2.71,3.49,5.99,3.8,9.44c0.15,1.47,0.1,2.96-0.13,4.42c-1.36,8.54-8.7,14.87-17.4,15.04
		l-4.71,7.77c-1.16,1.89-2.8,3.44-4.76,4.5C160.07,98.7,158.05,99.21,156,99.22L156,99.22z M155.68,51.83
		c-3.67,0-6.65,2.96-6.64,6.61c0,1.65,0.63,3.25,1.76,4.46l3.54,3.79c0.36,0.38,0.42,0.95,0.16,1.4l-7.57,13.05
		c-1.71,2.95-1.79,6.56-0.21,9.58l0.44,0.83c2.59,4.85,8.65,6.7,13.53,4.13c0.02-0.01,0.05-0.02,0.07-0.04
		c1.59-0.86,2.91-2.12,3.85-3.65l5.06-8.34c0.22-0.37,0.62-0.59,1.05-0.57c7.78,0.16,14.48-5.41,15.69-13.04
		c0.2-1.27,0.24-2.55,0.11-3.83c-0.29-3.2-1.58-6.23-3.7-8.66c-0.3-0.34-0.37-0.83-0.19-1.25c0.48-1.13,0.82-2.32,0.99-3.54
		c0.16-1.51,0.18-3.03,0.07-4.54l-17.07-2.1l-4.41,5.46c-0.24,0.29-0.6,0.46-0.98,0.44l-5.3-0.2
		C155.84,51.83,155.76,51.83,155.68,51.83L155.68,51.83z"/>
	<g>
		<g>
			<path class="st1" d="M186.34,48.12c-1.17-9.78-10.11-16.76-19.97-15.6c-5.71,0.67-10.75,4.02-13.56,8.99
				c-0.24,0.38-0.45,0.78-0.64,1.19c-0.69,1.5-1.18,3.08-1.43,4.71c-0.08,0.51-0.12,1.07-0.16,1.58h0.08
				c1.79,0.28,3.71,0.16,5.38,0.91c1.43,0.63,2.59,1.82,3.55,3.05c1.67,2.1,3.35,5.18,2.27,7.87c0.11-0.01,0.22-0.03,0.32-0.08
				c0.29-0.14,0.49-0.4,0.56-0.71l1.4-8.9c0.47-2.82,3.13-4.74,5.98-4.31l15.07,2.37c0.3,0.04,0.61-0.04,0.84-0.24
				C186.29,48.76,186.42,48.44,186.34,48.12L186.34,48.12z"/>
		</g>
		<g>
			<path class="st4" d="M160.37,61.9l0.58-1.46c0.98-2.45-0.91-5.36-2.13-6.88c-1.1-1.42-2.11-2.29-3.17-2.76
				c-1-0.45-2.15-0.54-3.36-0.65c-0.57-0.05-1.14-0.1-1.7-0.18h-1l0.01-1.17c0.04-0.51,0.08-1.05,0.16-1.56
				c0.27-1.72,0.78-3.39,1.51-4.97c0.2-0.44,0.44-0.88,0.69-1.29c2.93-5.2,8.28-8.75,14.28-9.46c10.38-1.21,19.8,6.14,21.06,16.42
				c0.14,0.69-0.14,1.4-0.73,1.81c-0.38,0.33-0.97,0.5-1.55,0.41l-15.07-2.37c-2.28-0.35-4.47,1.22-4.85,3.49l-1.39,8.89
				c-0.14,0.66-0.55,1.18-1.11,1.45c-0.24,0.11-0.46,0.16-0.69,0.18L160.37,61.9z M151.66,48.11c0.27,0.03,0.53,0.05,0.8,0.07
				c1.32,0.11,2.69,0.22,4,0.81c1.37,0.6,2.62,1.67,3.92,3.34c0.66,0.82,1.48,2,2.06,3.35l0.72-4.71c0.55-3.35,3.74-5.65,7.11-5.14
				l15.07,2.37l0.01-0.01c-1.12-9.2-9.57-15.79-18.86-14.69c-5.38,0.63-10.16,3.81-12.81,8.5c-0.23,0.38-0.43,0.75-0.6,1.12
				c-0.66,1.42-1.11,2.91-1.36,4.45C151.7,47.74,151.68,47.93,151.66,48.11z"/>
		</g>
	</g>
	<ellipse class="st1" cx="170.28" cy="56.59" rx="1.75" ry="1.74"/>
	<ellipse class="st1" cx="182.2" cy="57.14" rx="1.75" ry="1.74"/>
	<path class="st1" d="M171,85.5c-0.91-0.01-1.82-0.08-2.72-0.21c-3.72-0.57-7.17-2.3-9.85-4.92c-0.46-0.47-0.45-1.22,0.03-1.68
		c0.46-0.44,1.2-0.44,1.66,0c2.32,2.27,5.3,3.76,8.52,4.26c0.78,0.11,1.57,0.18,2.36,0.18c0.66,0,1.2,0.53,1.2,1.19
		C172.19,84.97,171.66,85.5,171,85.5L171,85.5z"/>
	<path class="st1" d="M179.53,64.26c-0.04,0-0.08,0-0.12-0.01l-4.66-0.47c-0.66-0.07-1.14-0.65-1.07-1.3
		c0.07-0.65,0.65-1.13,1.31-1.06l3.05,0.31l-1.39-6.8c-0.13-0.64,0.29-1.27,0.93-1.4c0.65-0.13,1.28,0.28,1.41,0.93l1.71,8.39
		c0.13,0.64-0.29,1.27-0.93,1.4C179.69,64.25,179.61,64.26,179.53,64.26L179.53,64.26z"/>
	<path class="st0" d="M153.46,67.5c-0.78,0.07-1.57,0.05-2.35-0.08c-5.01-0.78-8.43-5.43-7.65-10.4c0.78-4.97,5.47-8.37,10.48-7.59
		s8.43,5.43,7.65,10.4L153.46,67.5z"/>
	<path class="st1" d="M152.64,68.73c-0.57,0-1.15-0.05-1.71-0.13c-5.66-0.87-9.54-6.13-8.66-11.75c0.88-5.62,6.18-9.46,11.84-8.59
		s9.54,6.13,8.66,11.75l0,0c-0.09,0.65-0.69,1.11-1.34,1.02s-1.12-0.68-1.03-1.33c0-0.02,0-0.03,0.01-0.04
		c0.68-4.32-2.29-8.37-6.65-9.05s-8.44,2.28-9.12,6.6s2.29,8.37,6.65,9.05h0.01c0.67,0.11,1.36,0.13,2.04,0.07
		c0.66-0.07,1.25,0.4,1.31,1.06s-0.41,1.24-1.06,1.3l0,0C153.27,68.71,152.96,68.73,152.64,68.73L152.64,68.73z"/>
	<path class="st1" d="M151.07,62.08c-0.66,0-1.2-0.53-1.2-1.18c0-0.42,0.22-0.8,0.58-1.02l2.62-1.57l-4.45-2.03
		c-0.6-0.27-0.86-0.98-0.59-1.57c0.28-0.6,0.99-0.86,1.59-0.58l6.5,2.97c0.6,0.27,0.86,0.98,0.59,1.57c-0.1,0.22-0.26,0.4-0.47,0.52
		l-4.54,2.73C151.5,62.02,151.29,62.08,151.07,62.08L151.07,62.08z"/>
	<path class="st1" d="M180.01,68.73L180.01,68.73l-7.14-0.08c-0.66,0-1.19-0.54-1.19-1.19c0-0.66,0.54-1.18,1.2-1.18H173l7.02,0.08
		c0.66,0,1.19,0.54,1.19,1.19C181.2,68.2,180.67,68.73,180.01,68.73L180.01,68.73z"/>
	<path class="st0" d="M192.8,118.69c-11.52,1.23-18.89-11.59-11.56-20.29c0.12-0.12,0.2-0.24,0.32-0.36
		c3.39-3.72,6.1-8.07,4.15-14.99c-1.4-4.9-4.3-12.02,0.56-13.17c3.35-0.79,7.09,7.4,10.08,13.33c-0.16-9.53-0.36-22.03,4.11-22.35
		c4.46-0.36,5.5,8.7,5.54,21c2.35-13.57,1.63-21.04,5.98-20.88c7.13,0.28,4.07,28.28,0.28,37.73l-1.99,6.13
		C207.83,112.4,200.93,117.82,192.8,118.69L192.8,118.69z"/>
	<path class="st1" d="M191.33,119.95c-5.26,0.04-10.11-2.82-12.6-7.42c-2.65-4.81-2.01-10.75,1.59-14.9
		c0.02-0.03,0.05-0.05,0.07-0.08c0.03-0.03,0.06-0.07,0.09-0.1c0.07-0.08,0.13-0.16,0.21-0.23c3.56-3.92,5.58-7.77,3.86-13.86
		c-0.17-0.6-0.36-1.23-0.56-1.88c-1.15-3.77-2.46-8.05-0.92-10.71c0.63-1.07,1.69-1.82,2.92-2.06c3.37-0.8,6.31,3.91,9.11,9.35
		c-0.01-10.52,0.78-18.08,5.27-18.39c1.13-0.09,2.25,0.3,3.07,1.07c1.53,1.4,2.54,4.07,3.12,8.56c0.82-6.08,1.73-9.65,5.46-9.51
		c0.92,0.04,2.24,0.42,3.32,2.06c4.32,6.59,1.34,28.99-1.96,37.26l-1.98,6.09c-2.57,7.98-9.82,13.73-18.47,14.66
		C192.4,119.92,191.86,119.95,191.33,119.95L191.33,119.95z M182.13,99.19c-2.94,3.42-3.45,8.28-1.28,12.23
		c2.31,4.29,6.84,6.62,11.83,6.09c7.71-0.82,14.17-5.94,16.45-13.02l1.99-6.13c0.01-0.02,0.02-0.05,0.03-0.07
		c3.34-8.35,5.77-29.66,2.19-35.13c-0.56-0.85-1.07-0.97-1.4-0.98h-0.07c-1.91,0-2.39,3.11-3.26,10.04
		c-0.36,2.86-0.77,6.09-1.42,9.86c-0.11,0.65-0.73,1.08-1.38,0.97c-0.57-0.1-0.99-0.59-0.99-1.17c-0.02-7.17-0.36-16.98-2.98-19.37
		c-0.33-0.33-0.8-0.5-1.27-0.45c-1.25,0.09-2.23,2.52-2.69,6.67c-0.48,4.3-0.39,9.71-0.31,14.48c0.01,0.66-0.52,1.2-1.18,1.21
		c-0.46,0.01-0.88-0.25-1.09-0.66c-0.25-0.49-0.5-1-0.76-1.51c-2.04-4.09-5.83-11.7-7.98-11.19c-0.58,0.09-1.09,0.44-1.4,0.93
		c-1.02,1.77,0.18,5.69,1.14,8.84c0.2,0.67,0.4,1.31,0.57,1.93c2.14,7.58-1.03,12.4-4.41,16.11c-0.01,0.01-0.03,0.03-0.04,0.04
		c-0.03,0.03-0.06,0.07-0.09,0.1C182.26,99.05,182.2,99.12,182.13,99.19L182.13,99.19z"/>
	<path class="st4" d="M193.4,182.05c-12.72-0.01-23.03-10.24-23.04-22.86v-55.34h46.04v55.34c0.03,12.6-10.24,22.84-22.94,22.86
		C193.44,182.05,193.42,182.05,193.4,182.05z"/>
	<path class="st1" d="M193.4,183.24c-13.38-0.02-24.22-10.77-24.23-24.05v-55.34c0-0.66,0.54-1.19,1.2-1.19h46.04
		c0.66,0,1.2,0.53,1.2,1.19v55.34c0.03,13.26-10.78,24.02-24.14,24.05C193.44,183.24,193.42,183.24,193.4,183.24z M171.56,105.04
		v54.15c0,11.97,9.77,21.67,21.83,21.67c5.8,0,11.37-2.29,15.46-6.37c4.1-4.05,6.38-9.57,6.35-15.31v-54.15L171.56,105.04z"/>
</g>
<g>
	<path class="st0" d="M358.78,197.11c0-0.02,2.39,27.89,6.6,44.8l15.8-40.81L358.78,197.11z"/>
	<path class="st1" d="M372.33,237.22c0.27,0,0.55-0.03,0.82-0.1c0.87-0.22,3.65-1.38,2.76-7.3c-1.5-10.15-0.14-14.09,0.95-17.27
		c0.83-2.4,1.54-4.46,0.9-8.17c-0.09-0.53-0.59-0.89-1.13-0.8c-0.53,0.09-0.89,0.59-0.8,1.13c0,0,0,0,0,0.01
		c0.55,3.22-0.06,4.98-0.82,7.21c-1.16,3.37-2.61,7.57-1.04,18.19c0.51,3.41-0.34,4.88-1.3,5.12c-0.87,0.22-1.92-0.43-2.26-1.38
		c-1.01-2.84-4.26-15.21-5.19-19.38c-0.13-0.52-0.66-0.84-1.19-0.71c-0.5,0.13-0.82,0.62-0.72,1.13c0.94,4.2,4.22,16.72,5.25,19.6
		C369.14,236.09,370.63,237.18,372.33,237.22L372.33,237.22z"/>
	<path class="st0" d="M521.4,196.36c0-0.02-5.35,32.25-10.8,47.72l-13.67-42.99L521.4,196.36z"/>
	<path class="st5" d="M450.49,59.62c20.46,3.24,34.43,22.43,31.21,42.87c-1.5,9.54-6.64,18.14-14.33,23.98l-40.78-25.51
		L450.49,59.62z"/>
	<path class="st4" d="M467.96,127.25c7.89-6,13.16-14.81,14.71-24.6c3.3-20.97-11.03-40.67-32.02-43.99c-0.4-0.06-0.8,0.13-1,0.48
		l-23.9,41.33c-0.26,0.46-0.12,1.04,0.33,1.32l40.78,25.51c0.02,0.02,0.05,0.03,0.08,0.04
		C467.25,127.51,467.66,127.48,467.96,127.25z M451,60.7c3.54,0.63,6.97,1.78,10.17,3.4c17.99,9.14,25.17,31.12,16.04,49.09
		c-2.38,4.71-5.76,8.83-9.91,12.09l-39.4-24.65L451,60.7z"/>
	<path class="st1" d="M437.27,63.83c-2.61-1.92-6.02-4.38-7.6-9.21l-1.84-8.61l-6.23,1.24c2.63-2.94,5.58-5.21,9.48-5.74
		c9.36-1.28,17.99,5.26,19.29,14.61c0.48,3.49-0.13,7.05-1.75,10.18l-0.52,1.02l-0.57-1.05c-0.19-0.61-0.46-0.68-0.87-1.17
		c-1.48-1.79-3.69-2.56-6.07-2.56C439.37,62.56,438.19,63.02,437.27,63.83L437.27,63.83z"/>
	<path class="st4" d="M436.83,64.7c0.36,0.18,0.79,0.13,1.09-0.13c0.74-0.66,1.7-1.03,2.69-1.04c1.59,0,3.8,0.38,5.31,2.2
		c0.13,0.16,0.27,0.3,0.41,0.45c0.13,0.1,0.23,0.24,0.28,0.4c0.02,0.06,0.04,0.12,0.07,0.17l0.57,1.05
		c0.09,0.17,0.24,0.32,0.42,0.41c0.48,0.25,1.07,0.05,1.32-0.43l0.51-1.01c1.71-3.31,2.36-7.07,1.85-10.77
		c-1.37-9.89-10.5-16.81-20.39-15.45c-4.75,0.66-8.02,3.77-10.07,6.06c-0.21,0.23-0.29,0.54-0.23,0.84
		c0.11,0.53,0.62,0.87,1.15,0.77l5.28-1.05l1.63,7.67c0.01,0.03,0.02,0.07,0.03,0.1c1.65,5.08,5.25,7.72,7.88,9.64l0.07,0.05
		C436.74,64.65,436.78,64.68,436.83,64.7L436.83,64.7z M428.79,45.81c-0.11-0.52-0.62-0.86-1.15-0.76l-3.04,0.61
		c2.15-1.85,4.26-2.86,6.62-3.18c3.05-0.42,6.15,0.04,8.95,1.33c8.09,3.73,11.64,13.3,7.91,21.39c-0.11-0.15-0.24-0.29-0.37-0.41
		c-0.1-0.09-0.19-0.19-0.28-0.3c-1.55-1.88-3.98-2.92-6.82-2.91c-1.19,0.01-2.36,0.37-3.34,1.04c-2.43-1.8-5.27-4.09-6.64-8.24
		L428.79,45.81z"/>
	<path class="st1" d="M511.52,244.41c5.02-14.26,9.89-42.29,10.82-47.76l0.02-0.1c0.01-0.03,0.01-0.07,0.01-0.1
		c0.05-0.54-0.36-1.01-0.89-1.06c-0.09-0.01-0.18,0-0.27,0.01l-24.47,4.74c-0.04,0.01-0.07,0.02-0.11,0.03
		c-0.52,0.16-0.8,0.71-0.64,1.23l13.67,42.99c0.13,0.4,0.5,0.68,0.92,0.68h0.02C511.02,245.06,511.39,244.8,511.52,244.41z
		 M520.2,197.59c-1.22,7.08-5.26,29.58-9.58,43.33l-12.43-39.07L520.2,197.59z"/>
	<path class="st1" d="M498.12,182.35c0-4.15-0.68-8.27-2-12.21c-6.76-20.13-28.58-30.97-48.74-24.22c-0.19,0.07-0.36,0.19-0.48,0.36
		c-0.32,0.44-0.22,1.05,0.22,1.36l49.45,35.5c0.17,0.12,0.37,0.18,0.57,0.18C497.68,183.33,498.12,182.89,498.12,182.35z"/>
	<path class="st0" d="M503.63,312.64c0.21,10.58,2.46,21.68,11.05,24.05c8.74,2.41,14.58,10.33,13.9,19.46l-42.05-0.29l-17.06-26.79
		l0.13,26.79h-13.57l-0.07-43.44L503.63,312.64z"/>
	<path class="st1" d="M529.55,356.22c0.71-9.48-5.3-17.9-14.61-20.47c-6.59-1.82-10.07-9.6-10.33-23.13
		c-0.01-0.53-0.44-0.96-0.97-0.96l-47.67-0.23l0,0c-0.54,0-0.98,0.44-0.98,0.98l0.07,43.44c0,0.54,0.44,0.98,0.98,0.98h13.57l0,0
		c0.54,0,0.98-0.44,0.97-0.98l-0.11-23.4l15.24,23.93c0.18,0.28,0.49,0.45,0.82,0.45l42.05,0.29h0.01
		C529.09,357.12,529.52,356.73,529.55,356.22z M470.29,328.54c-0.18-0.28-0.49-0.45-0.83-0.45c-0.54,0-0.98,0.44-0.97,0.98
		l0.13,25.81H457l-0.06-41.48l45.73,0.22c0.43,13.91,4.38,21.99,11.74,24.02c8.1,2.23,13.43,9.37,13.23,17.53l-40.58-0.28
		L470.29,328.54z"/>
	<path class="st2" d="M476.73,163.27c1.33,3.6,19.66,32.18,22.43,39.04l23.97-4.38l-11.58-61.36c-1.01-5.29-4.15-9.93-8.68-12.84
		L449.7,89.28l-0.01,0.02c-1.94-1.06-4.02-1.85-6.18-2.33c0.71,3.86-1.4,8.31-4.73,10.38c-5.61,3.49-11.65-2.16-12.53-7.79
		c-3.55,1.93-6.85,4.66-9.87,8.02c-35.28,39.4-35.39,39.3-35.39,39.3s-19.11,42.94-7.34,44.68c1.58,0.23,3.17,0.35,4.76,0.36
		c3.54,0,7.06-0.58,10.41-1.73c0.04-2.06,17.49-43.43,20.18-44.81c2.72-1.4,40.22,0.15,48.7-0.28c2.66-0.14,5.24,0.31,6.78,2.71
		c1.8,2.82,1.63,6.35,2.62,9.47l7.51,4.81L476.73,163.27z"/>
	<path class="st2" d="M422.06,135.11c-2.66-0.14-5.24,0.31-6.78,2.71c-1.8,2.82-1.63,6.35-2.62,9.47l-7.51,4.81l-2.11,11.16
		c-1.33,3.6-19.66,32.18-22.43,39.04l-23.97-4.38l21.16-53.29c1.01-5.29,12.82-9.24,17.35-12.15"/>
	<line class="st6" x1="358.58" y1="198.77" x2="365.67" y2="243.79"/>
	<path class="st0" d="M369.33,216.46l-2.87,3.05l3.64,13.51c0,0,0.49,2.11,1.91,2.26c1.36,0.14,2.1-0.93,2.09-2.57
		c0-0.33,0.03-0.75,0-1.22c-0.12-1.88-0.47-4.67-0.71-6.8c-0.3-2.67-0.01-5.38-0.01-5.38L369.33,216.46z"/>
	<path class="st1" d="M444.51,126.43c0.01,0,0.01,0,0.02,0c0.54-0.01,0.97-0.45,0.96-0.99l-0.57-35.55
		c-0.01-0.53-0.44-0.96-0.98-0.96h-0.02l0,0c-0.54,0.01-0.97,0.45-0.96,0.99l0.55,34.56h-16.06l0.31-34.57
		c0-0.54-0.43-0.98-0.97-0.99h-0.01c-0.54,0-0.97,0.43-0.98,0.97l-0.32,35.55v0.01c0,0.54,0.44,0.98,0.98,0.98L444.51,126.43
		L444.51,126.43z M463.56,136.3c0.5,0,0.92-0.37,0.97-0.87c0.39-3.26-0.09-6.56-1.41-9.56c-1.14-2.63-1.56-5.51-1.2-8.35
		c0.06-0.54-0.32-1.02-0.86-1.09c-0.54-0.06-1.02,0.32-1.09,0.85c-0.4,3.19,0.06,6.42,1.35,9.37c1.18,2.69,1.61,5.65,1.26,8.56
		c0,0.04-0.01,0.07-0.01,0.11C462.58,135.86,463.02,136.3,463.56,136.3L463.56,136.3z M407.71,136.3c0.51,0,0.93-0.38,0.97-0.89
		c0.39-4.27,2.09-8.13,3.44-10.61c1.83-3.36,3.02-7.04,3.5-10.84c0.06-0.53-0.31-1.01-0.84-1.08c-0.54-0.07-1.03,0.3-1.1,0.84
		c-0.45,3.56-1.56,7-3.28,10.14c-1.44,2.64-3.25,6.75-3.67,11.36c-0.05,0.54,0.35,1.01,0.89,1.06
		C407.65,136.3,407.68,136.3,407.71,136.3L407.71,136.3z"/>
	<path class="st0" d="M342.34,303.22c0.91,12.29-2.12,31.06-22.38,34.12c-8.97,1.37-14.58,9.35-13.9,18.48l51.09,0.03l19.67-25.81
		l-0.13,25.48h13.57l0.07-33.32L342.34,303.22z"/>
	<path class="st1" d="M357.15,356.83c0.31,0,0.59-0.14,0.78-0.39l17.9-23.48l-0.12,22.56c0,0,0,0,0,0.01c0,0.54,0.44,0.98,0.98,0.98
		h13.57c0.54,0,0.98-0.44,0.98-0.98l0.07-33.32c0-0.4-0.24-0.76-0.62-0.91l-47.99-18.98c-0.14-0.05-0.29-0.08-0.43-0.07
		c-0.54,0.04-0.94,0.51-0.9,1.05c0.66,8.87-0.12,29.84-21.55,33.08c-9.28,1.42-15.47,9.62-14.72,19.52c0.04,0.51,0.46,0.9,0.98,0.9
		L357.15,356.83L357.15,356.83z M306.99,354.84c-0.24-8.44,5.16-15.32,13.11-16.54c9.35-1.41,16.03-6.17,19.86-14.14
		c3.31-6.9,3.64-14.66,3.43-19.47l45.94,18.17l-0.06,31.68h-11.61l0.13-24.5c0-0.31-0.14-0.6-0.39-0.78
		c-0.43-0.33-1.04-0.24-1.37,0.19l-19.38,25.42L306.99,354.84L306.99,354.84z"/>
	<path class="st4" d="M403.83,144.45l-63.61,157.56l51.74,20.86l46.12-114.27l16.71,29.12v74.69h55.82v-82.35
		c0-0.69-0.04-1.37-0.13-2.05l-9.35-21.95l-35.07-61.61H403.83z"/>
	<path class="st1" d="M391.96,323.85c0.4,0,0.76-0.24,0.91-0.61l45.37-112.4l15.57,27.15v74.43c0,0.54,0.44,0.98,0.98,0.98h55.82
		c0.54,0,0.98-0.44,0.98-0.98v-82.35c0-0.58-0.03-1.16-0.1-1.74l-0.04-0.4c-0.01-0.1-0.03-0.2-0.07-0.29l-9.35-21.95
		c-0.01-0.03-0.03-0.07-0.05-0.1l-35.08-61.61c-0.17-0.31-0.5-0.49-0.85-0.49h-62.21c-0.4,0-0.76,0.24-0.91,0.61l-63.61,157.56
		c-0.2,0.5,0.04,1.07,0.54,1.27l51.74,20.86C391.71,323.82,391.83,323.85,391.96,323.85L391.96,323.85z M404.49,145.43h60.98
		l34.77,61.07l9.27,21.76l0.03,0.26c0.06,0.51,0.09,1.03,0.09,1.54v81.37h-53.86v-73.71c0-0.17-0.05-0.34-0.13-0.49l-16.71-29.12
		c-0.11-0.19-0.28-0.34-0.48-0.42c-0.5-0.2-1.07,0.04-1.27,0.54L391.41,321.6l-49.92-20.12L404.49,145.43z"/>
	<path class="st0" d="M513.83,214.68c-0.95,4.24-4.21,16.65-5.22,19.49c-1.04,2.97-6.62,3.68-5.45-4.2
		c2.61-17.7-3.29-17.04-1.86-25.42"/>
	<path class="st1" d="M505.78,237.22c-0.27,0-0.55-0.03-0.82-0.1c-0.87-0.22-3.65-1.38-2.76-7.3c1.5-10.15,0.14-14.09-0.95-17.27
		c-0.83-2.4-1.54-4.46-0.9-8.17c0.09-0.53,0.59-0.89,1.13-0.8c0.53,0.09,0.89,0.59,0.8,1.13c0,0,0,0,0,0.01
		c-0.55,3.22,0.06,4.98,0.82,7.21c1.16,3.37,2.61,7.57,1.04,18.19c-0.51,3.41,0.34,4.88,1.3,5.12c0.87,0.22,1.92-0.43,2.26-1.38
		c1.01-2.84,4.26-15.21,5.19-19.38c0.13-0.52,0.66-0.84,1.19-0.71c0.5,0.13,0.82,0.62,0.72,1.13c-0.94,4.2-4.22,16.72-5.25,19.6
		C508.97,236.09,507.47,237.18,505.78,237.22L505.78,237.22z"/>
	<path class="st7" d="M467.6,148.21l0.85-0.48l8.78,15.41l-0.85,0.48L467.6,148.21z"/>
	<path class="st4" d="M407.74,135.32h55.82l2.48,9.12h-62.21L407.74,135.32z"/>
	<path class="st0" d="M440.36,73.84l3.35,13.98c1.09,4.54-1.72,9.11-6.26,10.19s-9.11-1.71-10.2-6.26l0,0l-1.66-6.93"/>
	<g>
		<path class="st1" d="M466.04,145.43c0.09,0,0.17-0.01,0.26-0.03c0.52-0.14,0.83-0.68,0.69-1.2l-2.48-9.12
			c-0.12-0.43-0.5-0.72-0.94-0.72h-55.82c-0.39,0-0.75,0.23-0.9,0.59l-3.91,9.12c-0.05,0.12-0.08,0.25-0.08,0.39
			c0,0.54,0.44,0.98,0.98,0.98L466.04,145.43L466.04,145.43z M408.39,136.3h54.42l1.95,7.17h-59.45L408.39,136.3z M436.39,125.45
			V98.4c0-0.54-0.44-0.98-0.98-0.98s-0.98,0.44-0.98,0.98v27.05c0,0.54,0.44,0.98,0.98,0.98S436.39,125.99,436.39,125.45z
			 M430.6,104.92l2.77-2.77l-2.77-2.77l-2.77,2.77L430.6,104.92z M430.6,114.08l2.77-2.77l-2.77-2.77l-2.77,2.77L430.6,114.08z
			 M430.6,123.24l2.77-2.77l-2.77-2.77l-2.77,2.77L430.6,123.24z M440.17,104.92l2.77-2.77l-2.77-2.77l-2.77,2.77L440.17,104.92z
			 M440.17,114.08l2.77-2.77l-2.77-2.77l-2.77,2.77L440.17,114.08z M440.17,123.24l2.77-2.77l-2.77-2.77l-2.77,2.77L440.17,123.24z
			 M355.74,334.69L355.74,334.69c0.02,0,0.04-0.01,0.05-0.01c5.46-1.52,8.65-7.17,7.13-12.62c-1.54-5.44-7.17-8.63-12.63-7.16
			c-5.13,1.39-14.03,12.67-15.03,13.95c-0.06,0.07-0.11,0.16-0.14,0.25c-0.2,0.5,0.05,1.07,0.56,1.27
			c0.54,0.21,11.81,4.57,17.99,4.57C354.35,334.94,355.05,334.86,355.74,334.69z M350.79,316.79c4.43-1.19,8.98,1.4,10.24,5.8
			c0,0.01,0.01,0.03,0.01,0.04c1.21,4.42-1.4,8.97-5.82,10.18c-3.47,0.93-12.94-2.09-17.6-3.8
			C340.75,325.15,347.33,317.72,350.79,316.79z"/>
		<path class="st1" d="M336.02,330.42c0.03,0,0.06,0,0.09,0c0.54-0.05,0.94-0.52,0.89-1.06c-0.14-1.62-1.51-15.93-5.04-19.87l0,0
			c-3.78-4.23-10.28-4.6-14.51-0.82s-4.6,10.27-0.82,14.5c3.53,3.95,17.6,6.91,19.2,7.23C335.89,330.42,335.95,330.42,336.02,330.42
			L336.02,330.42z M324.77,308.03c2.2,0.12,4.27,1.11,5.73,2.76c2.38,2.67,3.88,12.49,4.41,17.42c-4.85-1.09-14.44-3.67-16.82-6.34
			c-1.35-1.52-2.1-3.48-2.1-5.51c-0.01-4.59,3.72-8.33,8.32-8.33C324.46,308.02,324.61,308.02,324.77,308.03z M528.73,332.34
			L528.73,332.34c0.1-0.06,0.19-0.12,0.28-0.17c4.76-3.09,6.11-9.45,3.02-14.2c-3.09-4.75-9.46-6.11-14.21-3.02
			c-4.55,2.87-10.15,17.07-10.39,17.67c-0.03,0.09-0.06,0.18-0.06,0.28c-0.04,0.54,0.36,1.01,0.9,1.05c0.3,0.02,3.73,0.3,7.78,0.3
			C520.73,334.25,526.26,333.88,528.73,332.34z M509.75,332.1c1.9-4.59,6.08-13.59,9.11-15.49c0.08-0.05,0.15-0.1,0.23-0.15
			c3.93-2.37,9.05-1.11,11.42,2.82s1.11,9.04-2.82,11.41C524.64,332.59,514.7,332.41,509.75,332.1L509.75,332.1z"/>
		<path class="st1" d="M491.08,337.77c6.29,0,17.05-3.68,17.58-3.87c0.09-0.03,0.17-0.07,0.25-0.13c0.44-0.32,0.54-0.93,0.22-1.36
			c-0.95-1.32-9.44-12.96-14.49-14.55c-0.02-0.01-0.03-0.01-0.05-0.02c-5.42-1.7-11.19,1.31-12.9,6.72
			c-1.7,5.41,1.31,11.18,6.73,12.88C489.29,337.68,490.19,337.79,491.08,337.77L491.08,337.77z M491.57,319.34
			c0.85,0,1.69,0.13,2.49,0.38c3.41,1.07,9.72,8.77,12.7,12.75c-4.72,1.53-14.3,4.18-17.74,3.11c-3.47-1.1-5.83-4.32-5.81-7.96
			C483.23,323.03,486.97,319.32,491.57,319.34L491.57,319.34z M367.26,299.54c0.09,0,0.18,0,0.27,0c9.29-0.14,16.7-7.78,16.56-17.06
			c-0.14-9.05-7.6-16.5-16.63-16.61c-3.94-0.03-7.76,1.3-10.83,3.77c-1.08,0.87-2.5,1.2-3.86,0.89l0,0
			c-0.53-0.13-1.05,0.2-1.18,0.72s0.2,1.05,0.72,1.18c1.95,0.45,3.99-0.02,5.55-1.27c2.71-2.19,6.1-3.37,9.58-3.33
			c7.98,0.09,14.57,6.68,14.69,14.68c0.05,3.51-1.14,6.93-3.37,9.65c-5.21,6.34-14.58,7.27-20.93,2.06c-2.33-1.89-5.66-1.89-7.99,0
			c-2.35,1.94-5.24,3.09-8.28,3.32c-0.54,0.04-0.94,0.51-0.9,1.05c0.04,0.54,0.51,0.94,1.05,0.9c3.44-0.25,6.71-1.57,9.37-3.76
			c1.61-1.3,3.91-1.3,5.51,0C359.59,298.21,363.37,299.55,367.26,299.54L367.26,299.54z M416.84,186.29c0.09,0,0.18,0,0.28,0
			c9.29-0.14,16.7-7.78,16.56-17.06c-0.14-9.05-7.6-16.5-16.63-16.61c-3.94-0.03-7.77,1.3-10.83,3.77
			c-1.61,1.33-3.93,1.34-5.55,0.04c-0.36-0.29-0.73-0.57-1.11-0.83c-0.01-0.01-0.01-0.01-0.02-0.01c-0.45-0.3-1.06-0.18-1.36,0.27
			s-0.18,1.06,0.27,1.36c0.33,0.23,0.66,0.48,0.97,0.73c2.34,1.89,5.7,1.88,8.03-0.02c2.68-2.16,6.02-3.34,9.46-3.33h0.13
			c7.98,0.09,14.57,6.68,14.69,14.68c0.05,3.51-1.14,6.93-3.37,9.65c-5.21,6.34-14.58,7.27-20.93,2.06c-2.33-1.89-5.66-1.89-7.99,0
			c-2.65,2.19-5.99,3.38-9.43,3.36c-0.81,0.02-1.61-0.05-2.41-0.19c-0.52-0.09-1.01,0.25-1.12,0.77c-0.11,0.53,0.23,1.05,0.76,1.15
			c0.91,0.17,1.83,0.24,2.76,0.22c3.89,0.02,7.67-1.33,10.67-3.81c1.61-1.3,3.91-1.3,5.51,0
			C409.18,184.96,412.95,186.31,416.84,186.29L416.84,186.29z M423.31,245.93c0.54,0,0.98-0.44,0.98-0.98s-0.44-0.98-0.98-0.98
			c-3.52,0-6.58-1.18-9.37-3.61c-2.35-2.02-5.82-2.02-8.17,0c-2.76,2.38-6.29,3.66-9.94,3.6c-8.21-0.12-14.76-6.87-14.64-15.07
			c0.15-7.99,6.57-14.44,14.57-14.65c3.67-0.09,7.24,1.2,10.01,3.61c2.36,1.99,5.82,1.98,8.17-0.03c5.47-4.71,13.53-4.82,19.12-0.25
			c0.31,0.26,0.65,0.49,1.01,0.68c0.48,0.26,1.07,0.08,1.33-0.39s0.08-1.07-0.4-1.33c-0.25-0.13-0.48-0.29-0.69-0.47
			c-6.32-5.18-15.46-5.06-21.65,0.27c-1.61,1.38-3.98,1.4-5.6,0.04c-3.14-2.72-7.18-4.18-11.33-4.09
			c-8.99,0.17-16.38,7.61-16.49,16.57c-0.06,4.12,1.39,8.12,4.09,11.24c6.07,7.02,16.7,7.8,23.73,1.73c1.61-1.38,3.99-1.38,5.6,0
			C415.77,244.55,419.35,245.93,423.31,245.93L423.31,245.93z M494.52,198.77c0.65,0,1.3-0.04,1.94-0.11
			c0.53-0.07,0.91-0.54,0.85-1.07c-0.06-0.54-0.54-0.93-1.07-0.87c-0.57,0.06-1.14,0.1-1.72,0.1c-3.56,0.01-7.01-1.27-9.7-3.61
			c-2.35-2.02-5.82-2.02-8.17,0c-2.76,2.38-6.29,3.66-9.93,3.6c-8.21-0.12-14.76-6.87-14.64-15.07c0.15-7.99,6.57-14.44,14.56-14.64
			c3.67-0.08,7.24,1.2,10.01,3.61c1.3,1.12,3.01,1.64,4.71,1.46c0.01,0,0.02,0,0.02,0c0.54-0.06,0.92-0.55,0.85-1.09
			s-0.55-0.92-1.09-0.85c-1.16,0.13-2.33-0.23-3.22-0.99c-3.14-2.72-7.18-4.18-11.33-4.09c-8.99,0.17-16.38,7.61-16.49,16.57
			c-0.06,4.12,1.39,8.12,4.09,11.24c6.07,7.02,16.7,7.8,23.73,1.73c1.61-1.38,3.99-1.38,5.6,0
			C486.58,197.33,490.48,198.78,494.52,198.77L494.52,198.77z M510.88,299.62c0.01,0,0.01,0,0.02-0.01c0.52-0.16,0.81-0.7,0.66-1.22
			c-0.16-0.52-0.7-0.81-1.22-0.65c-1.35,0.39-2.76,0.59-4.16,0.59c-3.44,0.02-6.78-1.17-9.43-3.36c-2.33-1.89-5.66-1.89-7.99,0
			c-5.59,4.57-13.66,4.47-19.13-0.24c-2.35-2.02-5.82-2.02-8.17,0c-1.98,1.72-3.73,2.88-6.34,3.36c-0.02,0-0.03,0.01-0.05,0.01
			c-0.53,0.11-0.87,0.63-0.76,1.16s0.63,0.87,1.16,0.76c3.04-0.56,5.11-1.93,7.27-3.81c1.61-1.38,3.99-1.38,5.6,0
			c6.19,5.34,15.33,5.46,21.65,0.28c1.61-1.3,3.91-1.3,5.51,0c3,2.48,6.78,3.83,10.67,3.81
			C507.76,300.29,509.34,300.06,510.88,299.62z M465.49,273.7c1.51,0,2.98-0.54,4.13-1.52c5.47-4.71,13.53-4.82,19.12-0.25
			c2.34,1.89,5.7,1.88,8.03-0.03c2.71-2.19,6.1-3.37,9.58-3.34c1.35,0.01,2.68,0.21,3.98,0.59c0.01,0,0.02,0.01,0.03,0.01
			c0.52,0.14,1.06-0.16,1.2-0.68s-0.16-1.06-0.68-1.2c-1.47-0.43-2.98-0.66-4.51-0.67h-0.14c-3.89,0-7.66,1.33-10.69,3.77
			c-1.61,1.33-3.93,1.34-5.55,0.04c-6.32-5.18-15.46-5.06-21.65,0.27c-1.61,1.38-3.98,1.4-5.6,0.04c-2.21-1.92-4.89-3.22-7.76-3.78
			c-0.01,0-0.02,0-0.02,0c-0.53-0.1-1.04,0.26-1.14,0.79s0.26,1.04,0.79,1.14c2.54,0.49,4.9,1.64,6.85,3.33
			C462.57,273.18,464.01,273.71,465.49,273.7L465.49,273.7z"/>
	</g>
	<path class="st1" d="M424.31,83.65l0.5,2.17l1.48,6.17c1.02,4.24,4.82,7.23,9.18,7.24l0,0c0.74,0,1.47-0.09,2.19-0.26
		c5.08-1.21,8.21-6.3,6.99-11.37l-3.29-13.72c0.26-0.99,0.45-1.99,0.58-3.01 M439.4,74.07l3.35,13.98c0.93,3.99-1.52,7.98-5.5,8.96
		c-4.02,0.99-8.07-1.47-9.06-5.48l-1.66-6.94c-0.11-0.44-0.5-0.75-0.95-0.75h-0.04"/>
	<path class="st0" d="M437.27,63.83c3.13-2.27,7.52-1.57,9.79,1.56s1.58,7.52-1.56,9.79c-1.33,0.97-2.97,1.43-4.61,1.31l-0.13-0.01
		c-0.67,1.04-1.43,2.02-2.27,2.93l-1.19,4.96l-16.96-1.88c-8.22-3.78-11.82-13.5-8.05-21.71c0.4-0.87,0.87-1.7,1.42-2.49
		c1.13-1.62,2.54-3.03,4.18-4.14c0.18-0.71,0.41-1.41,0.68-2.09c0.47-1.13,1.05-2.2,1.74-3.21c0.4-0.58,0.84-1.12,1.31-1.64
		l6.21-1.21c0.99,4.53,1.73,6.8,5.17,12.14C434.54,60.53,435.8,62.49,437.27,63.83z"/>
	<path class="st1" d="M441.26,77.49c1.44,0.02,2.87-0.34,4.12-1.06c3.82-2.2,5.14-7.08,2.93-10.9c-2.2-3.82-6.67-6.02-10.49-3.82
		c-1.15-1.21-2.63-1.98-3.93-4l-0.05-0.08c-3.39-5.26-4.07-7.42-5.03-11.82c-0.11-0.52-0.62-0.85-1.14-0.75l-6.21,1.21
		c-0.2,0.04-0.39,0.14-0.53,0.29c-0.51,0.55-0.97,1.14-1.4,1.75c-0.73,1.06-1.35,2.2-1.84,3.4c-0.24,0.61-0.45,1.23-0.63,1.86
		c-1.6,1.15-3,2.56-4.13,4.18c-0.43,0.61-0.81,1.25-1.15,1.92c-4.4,8.51-1.06,18.97,7.45,23.37c0,0,1.28,0.87,4.11,1.33
		 M423.48,83.92l-2.18-1.19c0.11-0.44-0.1-0.89-0.51-1.1l-0.03-0.02c-2.52-1.16-4.68-2.98-6.26-5.26c-4.82-7-3.05-16.57,3.94-21.39
		c0.2-0.13,0.34-0.34,0.4-0.57c0.17-0.67,0.38-1.32,0.64-1.96c0.44-1.06,0.99-2.07,1.64-3.02c0.31-0.45,0.65-0.89,1.02-1.3
		l4.96-0.97c0.91,3.97,1.8,6.41,5.09,11.53l0.05,0.08c1.52,2.35,2.82,4.38,4.38,5.79c0.34,0.31,0.86,0.34,1.23,0.07
		c1.14-0.83,2.53-1.23,3.94-1.13c3.33,0.22,5.84,3.1,5.62,6.42s-3.09,5.84-6.42,5.61l-0.13-0.01c-0.36-0.03-0.71,0.14-0.91,0.44"/>
	<path class="st1" d="M420.01,83.44c2.81,1.26,5.91,1.75,8.97,1.43c0.54-0.06,0.92-0.54,0.86-1.08c-0.06-0.54-0.54-0.92-1.08-0.86
		c-2.72,0.29-5.47-0.15-7.96-1.27l0,0c-0.49-0.23-1.07-0.03-1.3,0.46c-0.23,0.49-0.02,1.07,0.46,1.3
		C419.98,83.43,419.99,83.44,420.01,83.44z M438.47,70.93l4.61,1.74c0.01,0,0.01,0.01,0.02,0.01c0.51,0.19,1.07-0.08,1.25-0.58
		c0.18-0.51-0.08-1.07-0.59-1.25l-2.36-0.89l3-1.31l0,0c0.49-0.22,0.72-0.79,0.5-1.29s-0.8-0.72-1.29-0.5l-5.2,2.28
		c-0.21,0.09-0.38,0.25-0.48,0.45c-0.25,0.48-0.05,1.07,0.43,1.32C438.4,70.91,438.44,70.92,438.47,70.93z M416.09,64.92
		c0.29,0.15,0.63,0.14,0.92-0.01c0.47-0.26,0.65-0.85,0.39-1.33l-1.52-2.77l5.45-3.2l0,0c0.47-0.27,0.62-0.87,0.35-1.34
		s-0.87-0.62-1.34-0.35l-6.27,3.68c-0.46,0.27-0.62,0.85-0.36,1.31l1.97,3.6C415.77,64.69,415.91,64.83,416.09,64.92L416.09,64.92z"
		/>
	
		<ellipse transform="matrix(0.4519 -0.8921 0.8921 0.4519 178.2007 402.7279)" class="st1" cx="416.83" cy="56.35" rx="1.21" ry="1.21"/>
	<path class="st1" d="M415.99,70.42c-1.01-0.52-1.79-1.39-2.19-2.45l-0.23-0.64c-0.19-0.51,0.08-1.07,0.58-1.25
		c0.51-0.18,1.07,0.08,1.25,0.59l0.23,0.63c0.26,0.68,0.79,1.22,1.46,1.48c0.65,0.26,1.39,0.23,2.01-0.08l0.15-0.07
		c0.49-0.24,1.07-0.04,1.31,0.45c0.24,0.48,0.04,1.07-0.45,1.31l-0.15,0.07c-1.12,0.55-2.43,0.6-3.6,0.14
		C416.25,70.54,416.12,70.48,415.99,70.42z"/>
	<path class="st0" d="M439.69,75.34c0.16,0.22,1.1,4.5,1.1,4.5s-8.76,5.62-9.05,5.21s-1.8-2.23-1.98-2.16
		c-0.14,0.05-3.25,0.26-4.64,0c-0.45-0.08-0.58-0.38-0.52-0.42C424.85,82.31,439.69,75.34,439.69,75.34z"/>
	
		<ellipse transform="matrix(0.4519 -0.8921 0.8921 0.4519 178.4975 412.1307)" class="st1" cx="424.63" cy="60.81" rx="1.21" ry="1.21"/>
</g>
</svg>
