<?xml version="1.0" encoding="utf-8"?>
<!-- Generator: Adobe Illustrator 26.1.0, SVG Export Plug-In . SVG Version: 6.00 Build 0)  -->
<svg version="1.1" id="Layer_1" xmlns="http://www.w3.org/2000/svg" xmlns:xlink="http://www.w3.org/1999/xlink" x="0px" y="0px"
	 viewBox="0 0 190.45 159.1" style="enable-background:new 0 0 190.45 159.1;" xml:space="preserve">
<style type="text/css">
	.st0{fill:#70D9D9;}
	.st1{fill:#FFFFFF;}
	.st2{fill:none;stroke:#70D9D9;stroke-width:8.5039;stroke-miterlimit:10;stroke-dasharray:11.5087,11.5098;}
	.st3{opacity:0.44;fill:#FDA979;}
	.st4{fill:#FF7F36;}
	.st5{opacity:0.75;fill:#007575;}
	.st6{fill:#FDA979;}
	.st7{fill:url(#SVGID_1_);}
	.st8{fill:#606060;}
	.st9{fill:#222433;}
	.st10{fill:#15C2C1;}
	.st11{fill:#C35515;}
	.st12{fill:#222433;stroke:#FF7F36;stroke-width:2.9089;stroke-miterlimit:10;}
	.st13{fill:#222433;stroke:#FF7F36;stroke-width:2.287;stroke-miterlimit:10;}
	.st14{fill:#007575;}
	.st15{fill:#2B292D;}
	.st16{fill:none;stroke:#FF7F36;stroke-width:6.974;stroke-miterlimit:10;}
	.st17{fill:none;stroke:#007575;stroke-width:3.0392;stroke-linecap:round;stroke-miterlimit:10;}
	.st18{fill:#FF7F36;stroke:#222433;stroke-miterlimit:10;}
	.st19{fill:#82B1FF;}
	.st20{fill:#222433;stroke:#FFFFFF;stroke-width:2.2146;stroke-miterlimit:10;}
	.st21{fill:none;stroke:#FF7F36;stroke-width:2.2146;stroke-linecap:round;stroke-miterlimit:10;}
	.st22{fill:none;stroke:#FFFFFF;stroke-miterlimit:10;}
	.st23{fill:#C35515;stroke:#222433;stroke-width:5.6693;stroke-miterlimit:10;}
	.st24{fill:none;stroke:#313341;stroke-width:1.2723;stroke-miterlimit:10;}
	.st25{fill:none;}
	.st26{fill-rule:evenodd;clip-rule:evenodd;fill:#FF7F36;}
	.st27{fill:#222433;stroke:#FF7F36;stroke-width:2.0175;stroke-miterlimit:10;}
	.st28{fill:#FF7F36;stroke:#FF7F36;stroke-width:2.0175;stroke-miterlimit:10;}
	.st29{fill:#222433;stroke:#222433;stroke-width:0.474;stroke-miterlimit:10;}
	.st30{fill:#15C2C1;stroke:#15C2C1;stroke-miterlimit:10;}
	.st31{fill:#222433;stroke:#FF7F36;stroke-width:2.006;stroke-miterlimit:10;}
	.st32{fill:none;stroke:#FF7F36;stroke-width:2.9439;stroke-miterlimit:10;}
	.st33{fill:#222433;stroke:#FF7F36;stroke-width:2.9305;stroke-miterlimit:10;}
	.st34{fill:none;stroke:#C35515;stroke-width:5.6693;stroke-linecap:round;stroke-miterlimit:10;}
	.st35{fill:#222433;stroke:#007575;stroke-width:2.6235;stroke-miterlimit:10;}
	.st36{fill:#222433;stroke:#FF7F36;stroke-width:2.4344;stroke-miterlimit:10;}
	.st37{fill:#222433;stroke:#222433;stroke-width:2.6235;stroke-miterlimit:10;}
	.st38{fill:none;stroke:#C35515;stroke-width:7.2469;stroke-linecap:round;stroke-miterlimit:10;}
	.st39{fill:#FF7F36;stroke:#FF7F36;stroke-width:1.0653;stroke-miterlimit:10;}
	.st40{fill:none;stroke:#FF7F36;stroke-width:8.5928;stroke-miterlimit:10;}
	.st41{fill:none;stroke:#FF7F36;stroke-width:7.5694;stroke-miterlimit:10;}
	.st42{fill:#752F06;}
	.st43{fill:none;stroke:#FFFFFF;stroke-width:2.6249;stroke-miterlimit:10;stroke-dasharray:5.2498,5.2498;}
	.st44{fill:none;stroke:#222433;stroke-width:2.6249;stroke-miterlimit:10;stroke-dasharray:5.2498,5.2498;}
	.st45{fill:none;stroke:#FFFFFF;stroke-width:2.8346;stroke-miterlimit:10;stroke-dasharray:5.6693,5.6693;}
	.st46{fill:none;stroke:#222433;stroke-width:2.8346;stroke-miterlimit:10;stroke-dasharray:5.6693,5.6693;}
	.st47{fill:url(#SVGID_00000068636905558930735180000006412370634405072561_);}
	.st48{fill:url(#SVGID_00000175299809114535167820000017895925845615241141_);}
	.st49{fill:url(#SVGID_00000020357899521518891730000005007764560678489251_);}
	.st50{fill:url(#SVGID_00000064341366904103141580000010767371397627427236_);}
	.st51{fill:url(#SVGID_00000028286152396420052310000002385372714871708581_);}
	.st52{fill:url(#SVGID_00000057846532217972688130000006114512941132335254_);}
	.st53{fill:url(#SVGID_00000103251436751474447370000001916681719630967231_);}
	.st54{fill:#222433;stroke:#FF7F36;stroke-width:1.4062;stroke-miterlimit:10;}
	.st55{fill:none;stroke:#222433;stroke-width:1.932;stroke-miterlimit:10;}
	.st56{fill:#222433;stroke:#22A966;stroke-miterlimit:10;}
	.st57{fill:none;stroke:#FF7F36;stroke-width:5.3681;stroke-miterlimit:10;}
	.st58{opacity:0.68;fill:#FF7F36;}
	.st59{opacity:0.68;fill:none;stroke:#FF7F36;stroke-width:17.0079;stroke-linecap:round;stroke-miterlimit:10;}
	.st60{fill:none;stroke:#FF7F36;stroke-width:5.6693;stroke-miterlimit:10;}
	.st61{fill:none;stroke:#FF7F36;stroke-width:7.3161;stroke-miterlimit:10;}
	.st62{fill:url(#SVGID_00000111875768352543916590000012817100171013084589_);}
	.st63{fill:url(#SVGID_00000137091986623824456640000001850650285361094064_);}
	.st64{fill:url(#SVGID_00000042015696097167015040000014472166794640098213_);}
	.st65{fill:none;stroke:#FF7F36;stroke-width:8.2187;stroke-linecap:round;stroke-miterlimit:10;}
	.st66{fill:#FF7F36;stroke:#FF7F36;stroke-width:3.5353;stroke-miterlimit:10;}
	.st67{fill:none;stroke:#FFFFFF;stroke-width:8.7427;stroke-miterlimit:10;}
	.st68{fill:none;stroke:#FFFFFF;stroke-width:7.8807;stroke-miterlimit:10;}
</style>
<g>
	<path class="st10" d="M94.15,28.7L47.84,74.12c-0.23,0.22-0.35,0.53-0.35,0.85v67.48c0,0.65,0.53,1.18,1.18,1.18h92.59
		c0.65,0,1.18-0.53,1.18-1.18v-69.3c0-0.33-0.13-0.64-0.37-0.86L95.79,28.68C95.33,28.25,94.61,28.26,94.15,28.7z M117.9,77.92
		v16.44c0,0.65-0.53,1.18-1.18,1.18H99.49c-0.65,0-1.18-0.53-1.18-1.18V77.13c0-0.65,0.53-1.18,1.18-1.18h16.44
		C117.02,75.95,117.9,76.83,117.9,77.92z M74.05,75.95h16.44c0.65,0,1.18,0.53,1.18,1.18v17.23c0,0.65-0.53,1.18-1.18,1.18H73.26
		c-0.65,0-1.18-0.53-1.18-1.18V77.92C72.07,76.83,72.96,75.95,74.05,75.95z M72.07,119.8v-16.44c0-0.65,0.53-1.18,1.18-1.18h17.23
		c0.65,0,1.18,0.53,1.18,1.18v17.23c0,0.65-0.53,1.18-1.18,1.18H74.05C72.96,121.77,72.07,120.89,72.07,119.8z M115.93,121.77H99.49
		c-0.65,0-1.18-0.53-1.18-1.18v-17.23c0-0.65,0.53-1.18,1.18-1.18h17.23c0.65,0,1.18,0.53,1.18,1.18v16.44
		C117.9,120.89,117.02,121.77,115.93,121.77z"/>
	<path class="st4" d="M154.67,74.97L143,63.26V40.31c0-3.41-2.78-6.19-6.19-6.19h-6.09c-3.41,0-6.19,2.78-6.19,6.19v4.41
		L99.86,19.94l-0.2-0.24c-1.02-1.2-2.52-1.88-4.09-1.88c0,0-0.01,0-0.01,0c-1.58,0-3.07,0.69-4.09,1.89l-0.19,0.23L36.63,74.81
		c-1.96,1.96-1.95,5.14,0.01,7.09c1.96,1.95,5.14,1.95,7.09-0.01l51.83-52.04l52,52.2c0.98,0.98,2.27,1.48,3.55,1.48
		c1.28,0,2.56-0.49,3.54-1.46C156.61,80.11,156.62,76.93,154.67,74.97z"/>
</g>
</svg>
