<?xml version="1.0" encoding="utf-8"?>
<!-- Generator: Adobe Illustrator 26.1.0, SVG Export Plug-In . SVG Version: 6.00 Build 0)  -->
<svg version="1.1" id="Layer_1" xmlns="http://www.w3.org/2000/svg" xmlns:xlink="http://www.w3.org/1999/xlink" x="0px" y="0px"
	 viewBox="0 0 2000 3200" style="enable-background:new 0 0 2000 3200;" xml:space="preserve">
<style type="text/css">
	.st0{fill:#70D9D9;}
	.st1{fill:#FFFFFF;}
	.st2{fill:#FF7F36;}
	.st3{fill:#007575;}
	.st4{fill:#222433;}
	.st5{fill:#FF7F36;stroke:#FF7F36;stroke-miterlimit:10;}
	.st6{fill:#15C2C1;}
	.st7{fill:#FDA979;}
	.st8{fill:#C35515;}
	.st9{fill:none;stroke:#5A38FD;stroke-width:111.9047;stroke-miterlimit:10;}
	.st10{fill:none;stroke:#FF7F36;stroke-width:111.9047;stroke-miterlimit:10;}
	.st11{fill:none;stroke:#FFFFFF;stroke-width:9.2351;stroke-miterlimit:10;stroke-dasharray:23.0877,36.9403;}
	.st12{fill:none;stroke:#313341;stroke-width:3.8308;stroke-miterlimit:10;}
	.st13{fill:none;}
	.st14{opacity:0.75;fill:#70D9D9;}
	.st15{fill:#5A38FD;}
	.st16{fill:none;stroke:#222433;stroke-width:8.5039;stroke-miterlimit:10;stroke-dasharray:14.1732,14.1732;}
	.st17{fill:#7057FD;}
	.st18{fill:none;stroke:#222433;stroke-width:5.4074;stroke-miterlimit:10;}
	.st19{fill:#222433;stroke:#222433;stroke-width:5.4303;stroke-miterlimit:10;}
	.st20{fill:#2B292D;}
	.st21{fill:none;stroke:#C35515;stroke-width:9.9101;stroke-miterlimit:10;}
	.st22{fill:none;stroke:#C35515;stroke-width:5.6693;stroke-miterlimit:10;}
	.st23{fill:#C35515;stroke:#000000;stroke-miterlimit:10;}
	.st24{fill:#C35515;stroke:#000000;stroke-width:0.6042;stroke-miterlimit:10;}
	.st25{fill:#15C2C1;stroke:#222433;stroke-width:6.1644;stroke-miterlimit:10;}
	.st26{fill:#FFFFFF;stroke:#000000;stroke-width:6.1644;stroke-miterlimit:10;}
	.st27{fill:none;stroke:#007575;stroke-width:6.1644;stroke-miterlimit:10;}
	.st28{fill:none;stroke:#FFFFFF;stroke-width:14.1732;stroke-miterlimit:10;stroke-dasharray:23.0877,36.9403;}
	.st29{fill-rule:evenodd;clip-rule:evenodd;fill:#FDA979;}
	.st30{fill-rule:evenodd;clip-rule:evenodd;fill:#FFFFFF;}
	.st31{fill-rule:evenodd;clip-rule:evenodd;fill:#007575;}
	.st32{fill:#606060;}
	.st33{clip-path:url(#SVGID_00000080169107236755404100000010143210915574404526_);}
	.st34{fill:#222433;stroke:#222433;stroke-width:1.0471;stroke-miterlimit:10;}
	.st35{fill:#222433;stroke:#222433;stroke-width:2.2688;stroke-miterlimit:10;}
	.st36{fill:#82B1FF;}
	.st37{fill:#15C2C1;stroke:#70D9D9;stroke-width:15.652;stroke-miterlimit:10;}
	.st38{stroke:#222433;stroke-width:0.8333;stroke-miterlimit:10;}
	.st39{clip-path:url(#SVGID_00000183931961041277315540000013767536683035372435_);}
	.st40{clip-path:url(#SVGID_00000183931961041277315540000013767536683035372435_);fill:#FF7F36;}
	.st41{clip-path:url(#SVGID_00000183931961041277315540000013767536683035372435_);fill:#C35515;}
	.st42{fill:#222433;stroke:#222433;stroke-width:0.791;stroke-miterlimit:10;}
	.st43{fill-rule:evenodd;clip-rule:evenodd;fill:#FF7F36;}
	.st44{fill-rule:evenodd;clip-rule:evenodd;fill:#15C2C1;}
	.st45{fill:none;stroke:#FF7F36;stroke-width:11.3386;stroke-miterlimit:10;}
	.st46{fill:none;stroke:#FF7F36;stroke-width:9.6934;stroke-miterlimit:10;}
	.st47{opacity:0.44;fill:#FDA979;}
	.st48{fill:none;stroke:#70D9D9;stroke-width:8.5039;stroke-miterlimit:10;stroke-dasharray:11.5087,11.5098;}
	.st49{opacity:0.75;fill:#007575;}
	.st50{clip-path:url(#SVGID_00000079468058031267911440000001819098274196521369_);}
	.st51{fill:none;stroke:#FF7F36;stroke-miterlimit:10;}
	.st52{clip-path:url(#SVGID_00000097458572147071835850000018044461403007151785_);}
	.st53{stroke:#70D9D9;stroke-width:8.5039;stroke-miterlimit:10;}
	.st54{fill:#FDA979;stroke:#222433;stroke-width:17.0079;stroke-miterlimit:10;}
	.st55{clip-path:url(#SVGID_00000107583220237216821390000000322197086966428069_);}
	.st56{fill:none;stroke:#222433;stroke-width:16.1222;stroke-linecap:round;stroke-miterlimit:10;}
	.st57{clip-path:url(#SVGID_00000057126835411872952740000001058396021294350481_);fill:#15C2C1;}
	.st58{clip-path:url(#SVGID_00000057126835411872952740000001058396021294350481_);fill:#C35515;}
	
		.st59{clip-path:url(#SVGID_00000057126835411872952740000001058396021294350481_);fill:#15C2C1;stroke:#000000;stroke-width:8.2755;stroke-miterlimit:10;}
	.st60{clip-path:url(#SVGID_00000057126835411872952740000001058396021294350481_);fill:#FF7F36;}
	
		.st61{clip-path:url(#SVGID_00000057126835411872952740000001058396021294350481_);fill:#15C2C1;stroke:#000000;stroke-width:8.5039;stroke-miterlimit:10;}
	
		.st62{clip-path:url(#SVGID_00000057126835411872952740000001058396021294350481_);fill:none;stroke:#000000;stroke-width:8.5039;stroke-miterlimit:10;}
	
		.st63{clip-path:url(#SVGID_00000057126835411872952740000001058396021294350481_);fill:#FFFFFF;stroke:#000000;stroke-width:8.5039;stroke-miterlimit:10;}
	.st64{clip-path:url(#SVGID_00000057126835411872952740000001058396021294350481_);}
	.st65{fill:none;stroke:#000000;stroke-width:8.2815;stroke-linecap:round;stroke-miterlimit:10;}
	
		.st66{clip-path:url(#SVGID_00000057126835411872952740000001058396021294350481_);fill:#FFFFFF;stroke:#000000;stroke-width:8.7446;stroke-miterlimit:10;}
	.st67{clip-path:url(#SVGID_00000057126835411872952740000001058396021294350481_);fill:none;}
	.st68{clip-path:url(#SVGID_00000062900702492323595150000011253358890181844627_);fill:#FF7F36;}
	.st69{clip-path:url(#SVGID_00000062900702492323595150000011253358890181844627_);}
	
		.st70{clip-path:url(#SVGID_00000062900702492323595150000011253358890181844627_);fill:none;stroke:#5A38FD;stroke-width:111.9047;stroke-miterlimit:10;}
	.st71{clip-path:url(#SVGID_00000097489739503212974850000010421127748475546768_);}
	
		.st72{opacity:0.57;clip-path:url(#SVGID_00000097489739503212974850000010421127748475546768_);fill:none;stroke:#FFFFFF;stroke-width:32.7065;stroke-linecap:round;stroke-miterlimit:10;}
	.st73{fill:#222433;stroke:#000000;stroke-width:7.0866;stroke-miterlimit:10;}
	
		.st74{clip-path:url(#SVGID_00000097489739503212974850000010421127748475546768_);fill:#222433;stroke:#222433;stroke-width:163.17;stroke-miterlimit:10;}
	.st75{fill:none;stroke:#000000;stroke-width:7.0866;stroke-miterlimit:10;}
	
		.st76{clip-path:url(#SVGID_00000097489739503212974850000010421127748475546768_);fill:#70D9D9;stroke:#000000;stroke-width:2.8346;stroke-linecap:round;stroke-miterlimit:10;}
	.st77{clip-path:url(#SVGID_00000055694188409273872590000018411882615636663711_);fill:#FFFFFF;}
	.st78{clip-path:url(#SVGID_00000055694188409273872590000018411882615636663711_);fill:#222433;}
	.st79{clip-path:url(#SVGID_00000055694188409273872590000018411882615636663711_);fill:#15C2C1;}
	.st80{clip-path:url(#SVGID_00000055694188409273872590000018411882615636663711_);fill:#FDA979;}
	.st81{clip-path:url(#SVGID_00000055694188409273872590000018411882615636663711_);}
	.st82{clip-path:url(#SVGID_00000055694188409273872590000018411882615636663711_);fill:#FF7F36;}
	.st83{clip-path:url(#SVGID_00000055694188409273872590000018411882615636663711_);fill:#C35515;}
	.st84{clip-path:url(#SVGID_00000028299504645515171740000015281293695652211624_);}
</style>
<g transform="translate(622.0 579.0) rotate(0.0 214.0 227.5) scale(0.9978178562769271 0.9986677114267339)">
	<path class="st8" d="M-317.34,2045.42h548.31v582.41h-548.31V2045.42z"/>
	<path class="st2" d="M-317.34,2256.7h548.31v264.37h-548.31V2256.7z"/>
	<ellipse class="st1" cx="-203.15" cy="2156.59" rx="39.08" ry="39.11"/>
	<path class="st4" d="M-203.15,2199.59c-23.75,0-43-19.25-43-43c0-23.75,19.25-43,43-43c23.75,0,43,19.25,43,43c0,0,0,0,0,0
		C-160.17,2180.32-179.41,2199.56-203.15,2199.59z M-203.15,2121.25c-19.51,0-35.33,15.82-35.33,35.33
		c0,19.51,15.82,35.33,35.33,35.33s35.33-15.82,35.33-35.33c0,0,0,0,0,0C-167.84,2137.08-183.64,2121.28-203.15,2121.25
		L-203.15,2121.25z"/>
	<path class="st4" d="M-203.15,2160.42c-2.12,0-3.83-1.72-3.83-3.84c0-1.09,0.46-2.12,1.27-2.85l29.16-26.14
		c1.58-1.41,4-1.28,5.42,0.29c1.41,1.58,1.28,4-0.29,5.42l0,0l-29.16,26.15C-201.29,2160.08-202.2,2160.42-203.15,2160.42z"/>
	<ellipse class="st1" cx="-41.19" cy="2156.59" rx="39.08" ry="39.11"/>
	<path class="st4" d="M-41.19,2199.59c-23.75,0-43-19.25-43-43s19.25-43,43-43s43,19.25,43,43l0,0
		C1.78,2180.32-17.45,2199.56-41.19,2199.59L-41.19,2199.59z M-41.19,2121.25c-19.51,0-35.33,15.82-35.33,35.33
		s15.82,35.33,35.33,35.33s35.33-15.82,35.33-35.33c0,0,0,0,0,0C-5.88,2137.08-21.69,2121.28-41.19,2121.25L-41.19,2121.25z"/>
	<path class="st4" d="M-41.19,2160.42c-2.12,0-3.83-1.72-3.83-3.84c0-1.09,0.46-2.12,1.27-2.85l29.15-26.14
		c1.56-1.43,3.98-1.33,5.42,0.23c1.43,1.56,1.33,3.98-0.23,5.42c-0.02,0.02-0.05,0.04-0.07,0.07l-29.16,26.15
		C-39.33,2160.08-40.25,2160.42-41.19,2160.42z"/>
	<ellipse class="st1" cx="122.05" cy="2156.59" rx="39.08" ry="39.11"/>
	<path class="st4" d="M122.04,2199.59c-23.75,0-43-19.25-43-43c0-23.75,19.25-43,43-43c23.75,0,43,19.25,43,43
		C165.02,2180.32,145.78,2199.56,122.04,2199.59z M122.04,2121.25c-19.51,0-35.33,15.82-35.33,35.33
		c0,19.51,15.82,35.33,35.33,35.33c19.51,0,35.33-15.82,35.33-35.33c0,0,0,0,0,0C157.35,2137.08,141.55,2121.28,122.04,2121.25
		L122.04,2121.25z"/>
	<path class="st4" d="M122.05,2160.42c-2.12,0-3.83-1.72-3.83-3.84c0-1.09,0.46-2.12,1.27-2.85l29.15-26.14
		c1.58-1.41,4-1.28,5.42,0.29s1.28,4-0.29,5.42l0,0l-29.16,26.15C123.9,2160.08,122.99,2160.42,122.05,2160.42L122.05,2160.42z"/>
	<path class="st1" d="M-148.64,2289.98H62.28c7.9,0,14.31,6.41,14.31,14.31l0,0c0,7.9-6.41,14.31-14.31,14.31h-210.92
		c-7.9,0-14.31-6.41-14.31-14.31l0,0C-162.95,2296.38-156.54,2289.98-148.64,2289.98z"/>
	<path class="st4" d="M62.28,2322.43h-210.92c-10.02,0.25-18.35-7.67-18.6-17.69c-0.25-10.02,7.67-18.35,17.69-18.6
		c0.3-0.01,0.61-0.01,0.91,0H62.28c10.02-0.25,18.35,7.67,18.6,17.69c0.25,10.02-7.67,18.35-17.69,18.6
		C62.89,2322.44,62.59,2322.44,62.28,2322.43z M-148.64,2293.81c-5.79-0.19-10.63,4.34-10.82,10.13
		c-0.19,5.79,4.34,10.63,10.13,10.82c0.23,0.01,0.46,0.01,0.69,0H62.28c5.79,0.19,10.63-4.34,10.82-10.13
		c0.19-5.79-4.34-10.63-10.13-10.82c-0.23-0.01-0.46-0.01-0.69,0H-148.64z"/>
</g>
<g transform="translate(858.0 46.0) rotate(0.0 475.5 497.0) translate(0.0 0.0) scale(1.0000956979058984 1.0009092767373178)">
	<path class="st8" d="M-164.78,2029.92l2.94,0.3c4.98,0.5,8.61,4.95,8.11,9.93l-32.94,325.63c-0.5,4.98-4.95,8.61-9.93,8.11
		l-2.94-0.3c-4.98-0.5-8.61-4.95-8.11-9.93l32.94-325.63C-174.21,2033.05-169.76,2029.42-164.78,2029.92z"/>
	<path class="st1" d="M24.7,3149.93c0,0,0.13-0.93,0.43-2.57c7.05-37.93,36.98-67.46,75.01-73.99l68.79-11.92
		c14.63-3.05,37.27-30.4,41.97-44.51l19.08-52.15h188.24l3.82,185.7L24.7,3149.93z"/>
	<path class="st4" d="M422.02,3154.31l-397.32-0.55c-2.12,0-3.83-1.72-3.83-3.84c0-0.17,0.01-0.35,0.04-0.52
		c0,0,0.13-0.99,0.46-2.74c7.44-39.46,38.57-70.18,78.13-77.08l68.71-11.91c13.13-2.81,34.83-29.27,39.06-41.96l19.11-52.25
		c0.55-1.51,1.99-2.52,3.6-2.52h188.23c2.09,0,3.79,1.67,3.83,3.76l3.82,185.69c0.04,2.12-1.64,3.87-3.75,3.91
		C422.08,3154.3,422.05,3154.3,422.02,3154.31L422.02,3154.31z M29.29,3146.1l388.82,0.54l-3.66-178.02h-181.8l-18.15,49.63
		c-5.04,15.14-28.63,43.58-44.79,46.95c-0.04,0.01-0.09,0.02-0.13,0.02l-68.79,11.92C65.12,3083.37,36.81,3110.67,29.29,3146.1
		L29.29,3146.1z"/>
	<path class="st1" d="M960.79,3148.65c0,0-0.13-0.93-0.43-2.57c-7.05-37.93-36.98-67.46-75.01-73.99l-59.84-11.23
		c-11.71-2.11-22.7-7.09-32.01-14.5c-8.86-6.92-15.52-16.27-19.17-26.9l-19.08-57.24H556.84v186.97L960.79,3148.65z"/>
	<path class="st4" d="M556.84,3153.03c-2.12,0-3.83-1.72-3.83-3.83v-186.97c0-2.12,1.72-3.83,3.83-3.83h198.41
		c1.65,0,3.12,1.06,3.64,2.62l19.08,57.23c3.41,9.92,9.62,18.64,17.9,25.09c8.82,7.02,19.23,11.74,30.32,13.75l59.87,11.23
		c39.53,6.92,70.64,37.62,78.07,77.06c0.32,1.76,0.46,2.75,0.46,2.75c0.29,2.1-1.18,4.03-3.28,4.32c-0.17,0.02-0.34,0.04-0.52,0.04
		L556.84,3153.03L556.84,3153.03z M560.67,2966.07v179.29l395.52-0.53c-7.52-35.43-35.82-62.72-71.5-68.95l-59.9-11.24
		c-12.32-2.23-23.89-7.48-33.69-15.27c-9.44-7.37-16.53-17.33-20.41-28.65l-18.22-54.64L560.67,2966.07z"/>
	<path class="st8" d="M219.8,2977.5h217.49l-124.48-324.38l56.34-122.68l99.29,138.07l88.4,309h214.94l-113.71-385.43
		c-3.64-12.12-9.51-23.47-17.3-33.45l-213.66-275.55c-1.37-1.58-2.57-3.31-3.57-5.15L202,2368.28l-84.58,256.41
		c-5.33,15.91-4.73,33.22,1.69,48.72L219.8,2977.5z"/>
	<path class="st4" d="M96.19,1967.86c-2.06,0-3.75-1.62-3.83-3.67c-0.05-1.11-0.07-2.22-0.07-3.35c-0.03-3.17,0.17-6.34,0.59-9.49
		c0.31-2.1,2.25-3.55,4.35-3.24c2.06,0.3,3.5,2.19,3.25,4.26c-0.38,2.79-0.55,5.61-0.53,8.43c0,1.05,0.02,2.06,0.06,3.06
		c0.09,2.12-1.55,3.9-3.67,3.99C96.3,1967.86,96.25,1967.86,96.19,1967.86L96.19,1967.86z M512.2,2707.7
		c-0.89,0-1.76-0.31-2.44-0.88l-42.35-35.1c-1.65-1.32-1.92-3.74-0.6-5.39c1.32-1.65,3.74-1.92,5.39-0.6
		c0.04,0.03,0.07,0.06,0.1,0.09l42.35,35.1c1.63,1.35,1.86,3.77,0.51,5.4C514.42,2707.19,513.34,2707.7,512.2,2707.7L512.2,2707.7z"
		/>
	<path class="st1" d="M583.55,2485.29l67.37-375.5c6.68-38.05-18.75-74.31-56.8-80.99c-6.58-1.16-13.3-1.36-19.94-0.61l-222.52,8.26
		c-77.16,6.25-115.31,24.06-115.31,24.06l-63.33,27l-42.65,40.91c-22.02,21.13-36.57,48.85-41.44,78.98l-6.49,40.06l-181.61-66.74
		l-59.4,108.6l228.79,96.99c0.88,0.33,1.74,0.71,2.59,1.12c33.72,16.08,74.09,1.78,90.17-31.94c1.14-2.39,2.14-4.84,2.99-7.35
		l6.79-61.24c7.63,11.45,19.46,54.96,28.79,80.74l222.52-88.18c-10.56-25.31-52.9-96.85-52.9-96.85l125.8-4.89l-28.21,160.71
		L583.55,2485.29z"/>
	<path class="st4" d="M583.55,2489.13c-1.18,0-2.29-0.54-3.02-1.47l-114.82-146.88c-0.67-0.86-0.94-1.95-0.76-3.02l27.39-156.03
		l-114.64,4.46c10.2,17.39,40.95,70.37,49.88,91.8c0.81,1.96-0.11,4.2-2.06,5.02c-0.02,0.01-0.04,0.02-0.06,0.03l-222.52,88.18
		c-1.97,0.78-4.2-0.18-4.98-2.15c-0.01-0.04-0.03-0.07-0.04-0.11c-3.24-8.94-6.82-20.16-10.29-31.01
		c-4.31-13.49-8.72-27.28-12.57-37.17l-5.3,47.81c-0.03,0.28-0.09,0.55-0.18,0.81c-12.69,37.37-53.28,57.38-90.65,44.69
		c-2.66-0.9-5.26-1.96-7.79-3.17c-0.86-0.41-1.6-0.73-2.29-0.99l-0.15-0.06l-228.78-96.99c-1.95-0.83-2.86-3.08-2.03-5.03
		c0.05-0.12,0.1-0.23,0.16-0.34l59.4-108.6c0.91-1.67,2.91-2.41,4.69-1.76l177.25,65.14l5.74-35.47c5.07-30.93,20-59.39,42.57-81.14
		l42.65-40.91c0.33-0.32,0.72-0.58,1.15-0.76l63.28-26.98c2.33-1.08,40.41-18.21,116.56-24.37c0.06,0,0.11-0.01,0.17-0.01
		l222.38-8.25c40.5-4.49,76.98,24.7,81.47,65.21c0.77,6.96,0.55,13.99-0.66,20.89l-67.37,375.51
		C587,2487.8,585.41,2489.14,583.55,2489.13L583.55,2489.13z M472.81,2337.39l108.48,138.78l65.85-367.06
		c6.31-35.97-17.74-70.23-53.7-76.54c-6.22-1.09-12.57-1.28-18.84-0.58c-0.1,0.01-0.19,0.02-0.29,0.02l-222.44,8.25
		c-75.36,6.12-113.54,23.53-113.92,23.7l-62.79,26.78l-42.14,40.42c-21.37,20.59-35.51,47.54-40.31,76.83l-6.49,40.06
		c-0.34,2.09-2.31,3.51-4.4,3.17c-0.24-0.04-0.48-0.1-0.72-0.19l-178.5-65.61l-55.79,101.98l224.81,95.3
		c0.87,0.33,1.79,0.73,2.81,1.22c31.8,15.17,69.88,1.69,85.05-30.11c1.02-2.14,1.92-4.33,2.69-6.56l6.74-60.82
		c0.23-2.11,2.13-3.62,4.23-3.39c1.13,0.13,2.14,0.74,2.77,1.68c5.3,7.96,11.96,28.78,19.01,50.83c2.98,9.31,6.04,18.9,8.88,27.01
		l215.13-85.25c-12.43-27.38-50.7-92.12-51.1-92.8c-1.08-1.82-0.48-4.17,1.35-5.25c0.55-0.32,1.17-0.51,1.81-0.53l125.8-4.89
		c1.16-0.04,2.27,0.44,3.04,1.31c0.76,0.87,1.09,2.04,0.89,3.19L472.81,2337.39z"/>
	<path class="st1" d="M-183.32,2273.81c11.29,8.34,33.13,21.72,44.3,24.64c28.7,7.47,59-13.52,67.69-46.88
		c7.8-29.95-4.49-59.68-27.85-70.85c-19.93-29.58-69.7-63.3-95.44-75.71c-5.04-2.51-11.08-1.82-15.42,1.76
		c-7.65,6.53-9.59,23.07,40.5,64.39"/>
	<path class="st4" d="M-127.16,2303.8c-4.33,0-8.63-0.55-12.82-1.65c-12.03-3.13-34.33-16.92-45.62-25.26
		c-1.69-1.28-2.01-3.69-0.73-5.37c1.26-1.65,3.6-2,5.28-0.79c10.95,8.09,32.56,21.29,42.99,24.01c12.78,3.32,26.35,0.64,38.2-7.57
		c12.37-8.83,21.18-21.81,24.81-36.57c7.25-27.87-3.59-55.8-25.79-66.42c-0.62-0.3-1.14-0.75-1.52-1.32
		c-12.18-18.07-51.6-53.98-93.93-74.4c-3.67-1.86-8.08-1.38-11.27,1.22c-1.84,1.53-2.86,3.83-2.75,6.21
		c0.05,6.26,5.74,21.4,43.21,52.3c1.63,1.35,1.87,3.77,0.52,5.4c-1.35,1.63-3.77,1.87-5.4,0.52
		c-30.83-25.44-45.87-44.46-45.99-58.16c-0.13-4.66,1.87-9.12,5.44-12.11c5.5-4.57,13.17-5.47,19.58-2.29
		c27.71,13.37,76.29,47.11,96.37,76.17c24.87,12.53,37.03,43.79,28.96,74.81c-4.1,16.54-13.99,31.06-27.87,40.94
		C-104.73,2300.08-115.79,2303.68-127.16,2303.8L-127.16,2303.8z"/>
	<path class="st1" d="M-203.19,2156.06c41.5,18.11,77.02,37.36,77.15,55.1c0.11,15.76-22.89,12.95-78.42-4.69
		c50.38,26.82,62.38,38.62,61.49,54.77c-0.89,16.15-32.44,11.62-71.2-9.38c29.8,19.1,35.31,23.03,36.32,33.83
		c1.16,12.95-22.18,9.62-43.53,0.51l-1.71-0.51c-23.51-8.21-25.84-24.15-23.13-36.12c1.7-7.23,1.81-14.74,0.33-22.01
		c-1.77-7.85-0.86-16.07,2.58-23.35c3.89-7.91,5.76-16.65,5.45-25.46c-0.64-12.54,1.69-26.26,13.94-33.32"/>
	<path class="st4" d="M-189.71,2298.08c-9.7,0-22.27-3.72-32.97-8.27l-1.51-0.46c-0.05-0.02-0.1-0.03-0.15-0.05
		c-11.59-4.05-19.52-10.3-23.58-18.58c-3.18-6.88-3.9-14.65-2.03-22c1.57-6.7,1.68-13.66,0.31-20.4
		c-1.93-8.67-0.92-17.73,2.87-25.76c3.62-7.36,5.36-15.49,5.09-23.68c-0.91-17.8,4.42-30.19,15.86-36.78
		c1.84-1.06,4.18-0.43,5.24,1.41c1.06,1.84,0.43,4.18-1.41,5.24c-8.86,5.1-12.79,14.85-12.03,29.8c0.33,9.46-1.67,18.85-5.84,27.35
		c-3.05,6.49-3.85,13.81-2.28,20.81c1.6,7.84,1.49,15.94-0.33,23.74c-4.23,18.64,8.84,27.47,20.58,31.59l1.63,0.49
		c0.13,0.04,0.26,0.09,0.39,0.14c18.74,8,33.12,9.2,37.15,6.29c0.92-0.67,1.33-1.84,1.05-2.94c-0.82-8.77-5.11-12.07-34.57-30.95
		c-1.79-1.13-2.32-3.5-1.18-5.29c1.08-1.71,3.31-2.28,5.08-1.31c32.56,17.64,55.38,21.21,62.81,17.06c1.7-0.86,2.76-2.61,2.74-4.52
		c0.89-16.22-17.63-28.9-59.46-51.17c-1.87-0.99-2.58-3.31-1.59-5.19c0.87-1.64,2.79-2.42,4.55-1.86c29.03,9.22,63.4,19.03,71.59,13
		c0.86-0.64,1.85-1.74,1.83-4.64c-0.15-19-56.37-43.54-74.85-51.6c-1.94-0.85-2.83-3.11-1.98-5.05c0.85-1.94,3.11-2.83,5.05-1.98
		c55.56,24.25,79.32,41.77,79.45,58.58c0.03,4.77-1.64,8.42-4.95,10.87c-6.79,5-19.85,4.57-46.08-2.32
		c26.97,16.58,34.9,27.34,34.11,41.77c-0.12,4.53-2.66,8.65-6.66,10.79c-7.83,4.37-21,2.77-35.4-1.82c4.22,3.86,6.79,9.2,7.16,14.91
		c0.51,3.8-1.1,7.57-4.18,9.84C-181.03,2297.22-185.04,2298.08-189.71,2298.08L-189.71,2298.08z M497.83,2183.43
		c-1.57,0-2.99-0.97-3.56-2.43l-14.25-35.98c-0.82-1.95,0.1-4.2,2.05-5.02c1.95-0.82,4.2,0.1,5.02,2.05
		c0.02,0.05,0.04,0.1,0.06,0.15l8.96,22.64l3.65-24.96c0.31-2.1,2.25-3.55,4.35-3.24c2.1,0.31,3.55,2.25,3.24,4.35l-5.72,39.17
		c-0.25,1.72-1.63,3.05-3.35,3.25C498.12,2183.43,497.98,2183.44,497.83,2183.43L497.83,2183.43z"/>
	<path class="st1" d="M190.55,1972.74c0-16.59,18.57-24.79,35.61-22.89c7.68,0.97,14.6,5.13,19.08,11.45
		c3.53,5.31,4.36,12.85,4.1,19.16c-0.64,16.02-14.27,24.2-14.27,24.2c-0.73,4.84-2.05,9.57-3.93,14.09
		c-0.56,1.35-1.16,2.67-1.8,3.98l11.61,30.65l3.79,10.37c1.78,4.11,2.69,8.55,2.67,13.04c-0.01,20.05-16.26,36.29-36.31,36.28
		c-14.95,0-28.37-9.18-33.8-23.11l-1.82-5.05c0,0-8.96-19.34-9.09-19.34c-35.61,0-55.23-21.77-65.51-47.79l-7.56-63.34
		c0.57-4.6,0.68-7.52,3.1-10.41l20.88-24.91l61.8,16.73L190.55,1972.74z"/>
	<path class="st4" d="M211.11,2116.9c-16.56,0.07-31.44-10.1-37.38-25.55l-1.8-4.99c-2.49-5.37-6.2-13.34-7.94-16.99
		c-31.01-0.84-54.03-18.15-66.68-50.19c-0.12-0.31-0.2-0.63-0.24-0.95l-7.56-63.33c-0.04-0.31-0.04-0.62,0-0.93l0.16-1.34
		c0.48-4.07,0.89-7.58,3.81-11.06l20.88-24.91c0.96-1.14,2.5-1.63,3.94-1.24l61.8,16.73c1.27,0.34,2.27,1.31,2.66,2.56l7.77,25.04
		c1.22-1.85,2.68-3.53,4.34-5.01c7.5-6.72,19.65-10.06,31.71-8.72c8.77,1.11,16.67,5.84,21.79,13.04
		c4.43,6.66,5.05,15.37,4.81,21.53c-0.58,14.68-10.64,23.42-14.59,26.29c-0.81,4.57-2.13,9.04-3.91,13.32
		c-0.37,0.9-0.76,1.79-1.17,2.68l11.04,29.12l3.76,10.32c1.97,4.57,2.97,9.5,2.94,14.48C251.23,2098.95,233.27,2116.9,211.11,2116.9
		L211.11,2116.9z M104.62,2016.83c11.92,29.8,32.69,44.91,61.76,44.91c2.47,0,3.04,1.21,4.94,5.21c0.86,1.82,2,4.24,3.13,6.67
		c2.26,4.84,4.5,9.68,4.5,9.68c0.05,0.1,0.09,0.2,0.13,0.31l1.82,5.05c4.83,12.46,16.85,20.64,30.21,20.58
		c17.92-0.02,32.44-14.54,32.46-32.46c0.03-3.96-0.78-7.88-2.36-11.52c-0.03-0.07-0.06-0.14-0.08-0.21l-3.79-10.38l-11.6-30.6
		c-0.37-0.99-0.32-2.08,0.14-3.03c0.61-1.24,1.18-2.5,1.7-3.77c1.77-4.23,3.01-8.67,3.69-13.2c0.17-1.13,0.84-2.13,1.82-2.72
		c0.47-0.29,11.87-7.39,12.41-21.06c0.16-4.11-0.07-11.77-3.47-16.88c-3.86-5.39-9.79-8.93-16.36-9.77
		c-9.9-1.1-19.76,1.51-25.69,6.81c-3.6,3.06-5.65,7.55-5.6,12.27c0,2.12-1.72,3.83-3.84,3.83c-1.68,0-3.16-1.09-3.66-2.7
		L176.06,1939l-57.4-15.54l-19.31,23.04c-1.39,1.65-1.62,3.25-2.07,7.03l-0.11,0.92L104.62,2016.83z"/>
	<path class="st1" d="M105.27,2014.79c-12.61,10.39-31.25,8.59-41.64-4.02c-10.39-12.61-8.59-31.25,4.02-41.64
		c12.61-10.39,31.25-8.59,41.64,4.02c3.07,3.72,5.17,8.13,6.15,12.85"/>
	<path class="st4" d="M86.52,2025.37c-1.09,0-2.18-0.05-3.27-0.16c-18.37-1.77-31.82-18.1-30.05-36.47
		c1.77-18.37,18.1-31.82,36.47-30.05c8.82,0.85,16.94,5.17,22.58,12.01c3.46,4.2,5.84,9.18,6.94,14.51c0.43,2.07-0.91,4.1-2.98,4.53
		s-4.1-0.91-4.53-2.98l0,0c-0.85-4.11-2.68-7.95-5.35-11.19c-9.04-10.97-25.27-12.54-36.24-3.5s-12.54,25.27-3.5,36.24
		c9.04,10.97,25.27,12.54,36.24,3.5c0,0,0,0,0,0c1.66-1.31,4.07-1.03,5.39,0.64c1.27,1.61,1.05,3.94-0.51,5.28
		C101.75,2022.68,94.26,2025.38,86.52,2025.37z"/>
	<ellipse class="st1" cx="147.72" cy="1991.96" rx="29.59" ry="29.61"/>
	<g>
		<path class="st4" d="M147.72,2025.38c-18.46,0-33.42-14.96-33.42-33.41c0-18.46,14.96-33.42,33.41-33.42
			c18.46,0,33.42,14.96,33.42,33.41c0,0,0,0,0,0.01C181.11,2010.4,166.16,2025.35,147.72,2025.38z M147.72,1966.21
			c-14.22,0-25.75,11.52-25.75,25.74c0,14.22,11.52,25.75,25.74,25.75c14.22,0,25.75-11.52,25.75-25.74c0,0,0,0,0,0
			C173.45,1977.75,161.93,1966.23,147.72,1966.21z M166.38,2069.42c-2.12,0.06-3.88-1.61-3.94-3.73c-0.06-2.12,1.61-3.88,3.73-3.94
			c10.53-0.6,20.81-3.46,30.14-8.38c1.88-0.97,4.2-0.23,5.16,1.66c0.96,1.86,0.25,4.14-1.59,5.13c-10.3,5.43-21.64,8.59-33.27,9.25
			C166.53,2069.41,166.46,2069.42,166.38,2069.42z M135.66,2044.44h-15.42c-2.12,0-3.83-1.72-3.83-3.83c0-2.12,1.72-3.83,3.83-3.83
			h15.42c2.12,0,3.83,1.72,3.83,3.83C139.5,2042.73,137.78,2044.44,135.66,2044.44z"/>
		<path class="st4" d="M120.8,2026.36c-0.1,0-0.2,0-0.3-0.01l-17.81-1.41c-2.11-0.17-3.69-2.01-3.52-4.12
			c0.03-0.34,0.1-0.67,0.21-0.99l15-42.06c0.75-1.98,2.96-2.98,4.94-2.23c1.93,0.73,2.93,2.85,2.28,4.81l-13.32,37.34l12.81,1.01
			c2.11,0.16,3.69,2.01,3.53,4.12C124.47,2024.81,122.81,2026.35,120.8,2026.36L120.8,2026.36z M210.24,1989.25
			c-2.12,0-3.83-1.72-3.83-3.84c0-0.78,0.24-1.54,0.68-2.19l13.2-19.01c1.23-1.73,3.62-2.13,5.35-0.9c1.7,1.21,2.12,3.55,0.95,5.28
			l-8.52,12.27l14.05-1.27c2.11-0.19,3.97,1.37,4.16,3.48s-1.37,3.97-3.48,4.16l-22.23,2
			C210.47,1989.25,210.35,1989.25,210.24,1989.25z"/>
		<ellipse class="st4" cx="147.72" cy="2007.66" rx="5.19" ry="5.19"/>
		<ellipse class="st4" cx="86.45" cy="2007.66" rx="5.19" ry="5.19"/>
	</g>
	<path class="st8" d="M190.85,1974.89c5.5-19.01,31.64-33.57,48.68-19.19c0.37,0.32,0.72,0.65,1.06,0.99
		c0.09-0.44,0.1-0.9,0.04-1.35l-0.53-3.99v-0.14c0-0.18-0.01-0.37-0.04-0.55c-5.42-41.42-43.39-70.61-84.81-65.19
		c-33.96,4.44-60.7,31.15-65.18,65.11c-0.19,1.5,45.23-1.11,70.7-4.84c9.27-1.33,17.87,5.1,19.21,14.37c0,0,0,0,0,0.01l0.04,0.26
		c1.05,7.83,3.76,15.42,10.58,15.72C190.65,1975.68,190.73,1975.28,190.85,1974.89L190.85,1974.89z"/>
	<path class="st1" d="M605.4,2511.71c3.31,0.45,6.79,0.91,10.46,1.38c38.92,4.96,147.66-9.67,142.45-35.87
		c-3.18-15.9-30.78-6.49-84.07-2.42c46.55-11.83,73-49.09,63.47-62.83c-9.54-13.74-40.95,19.33-76.83,28.62
		c19.84-16.41,32.94-50.88,23.66-59.9c-13.48-12.97-31.03,11.07-44.39,25.82c-29.38,32.69-50.37-10.3-76.19-20.48
		c-14.78-5.91-34.75-0.32-46.76,12.79L605.4,2511.71z"/>
	<path class="st4" d="M633.75,2517.84c-6.14,0.06-12.27-0.26-18.37-0.95c-3.68-0.47-7.18-0.94-10.49-1.39
		c-0.99-0.13-1.89-0.65-2.5-1.44l-88.19-112.88c-1.15-1.48-1.07-3.57,0.19-4.95c13.27-14.49,34.72-20.28,51-13.76
		c8.52,3.36,16.35,9.89,23.92,16.2c18.69,15.58,31,24.17,47.99,5.27c1.62-1.79,3.29-3.71,5.01-5.67
		c10.07-11.54,21.49-24.62,33.02-25.12c4.46-0.17,8.77,1.57,11.88,4.77c3.03,2.95,4.44,7.49,4.19,13.52
		c-0.43,10.83-6.73,27.12-16.89,40.37c9.4-4.24,18.54-9.05,27.37-14.38c17.64-10.23,31.58-18.29,38.98-7.64
		c3.25,4.68,3.49,11.11,0.7,18.6c-3.51,9.41-11.75,19.81-22.59,28.54c-5.37,4.31-11.14,8.11-17.22,11.34
		c3.46-0.4,6.78-0.8,9.97-1.18c14.32-1.71,25.63-3.06,33.66-2.47c3.59,0.26,14.53,1.07,16.69,11.85c0.63,3.15,0.38,7.97-4.36,13.05
		C740.72,2507.73,673.96,2517.84,633.75,2517.84L633.75,2517.84z M607.47,2508.11c2.84,0.38,5.8,0.77,8.89,1.17
		c16.69,2.13,46.47,0.54,74.1-3.95c31.01-5.04,54.06-12.91,61.65-21.05c3.05-3.27,2.59-5.56,2.44-6.31
		c-1.55-7.75-13.97-6.6-41.92-3.26c-11,1.32-23.47,2.8-38.09,3.92c-2.11,0.17-3.96-1.41-4.12-3.52c-0.15-1.86,1.07-3.56,2.89-4.02
		c32.01-8.13,54.95-28.99,61.08-45.38c1.85-4.95,1.92-9.05,0.18-11.54c-3.37-4.85-15.17,1.99-28.84,9.9
		c-12.36,7.16-27.74,16.06-43.87,20.24c-2.05,0.53-4.14-0.7-4.67-2.75c-0.37-1.44,0.12-2.97,1.27-3.92
		c14.49-11.98,24.78-33.72,25.29-46.5c0.15-3.65-0.51-6.39-1.86-7.7c-1.59-1.73-3.86-2.69-6.21-2.62
		c-8.24,0.36-18.96,12.63-27.57,22.5c-1.75,2-3.45,3.95-5.09,5.76c-22.78,25.35-41.81,9.48-58.6-4.52
		c-7.1-5.93-14.44-12.05-21.84-14.96c-12.37-4.95-29.12-0.84-40.25,9.52L607.47,2508.11z M471.01,2343.52
		c-1.21,0-2.34-0.57-3.07-1.53l-45.16-60.43c-1.27-1.7-0.92-4.1,0.78-5.37c1.7-1.27,4.1-0.92,5.37,0.78l45.16,60.43
		c1.27,1.69,0.93,4.1-0.77,5.37c-0.66,0.5-1.47,0.77-2.3,0.77L471.01,2343.52z"/>
	
		<ellipse transform="matrix(0.1004 -0.9949 0.9949 0.1004 -2545.5337 1939.9662)" class="st8" cx="-199.93" cy="2377.72" rx="51.1" ry="32.58"/>
	<path class="st4" d="M-189.41,2297.46c-9.7,0-22.27-3.72-32.97-8.27l-1.5-0.46l-0.15-0.05c-11.59-4.05-19.53-10.3-23.58-18.58
		c-3.18-6.88-3.9-14.65-2.03-22c1.57-6.7,1.68-13.66,0.31-20.4c-1.93-8.67-0.92-17.73,2.87-25.76c3.62-7.36,5.36-15.49,5.08-23.68
		c-0.91-17.79,4.42-30.19,15.86-36.78c0.05-0.03,0.1-0.05,0.15-0.08c1.49-0.77,14.81-7.52,23.1-6.21c2.09,0.33,3.52,2.29,3.19,4.39
		s-2.29,3.52-4.39,3.19l0,0c-4.38-0.7-13.51,2.93-18.3,5.4c-8.81,5.11-12.72,14.85-11.95,29.76c0.33,9.46-1.68,18.85-5.84,27.35
		c-3.05,6.49-3.85,13.81-2.28,20.81c1.6,7.84,1.49,15.94-0.34,23.74c-4.23,18.64,8.84,27.47,20.58,31.59l1.63,0.49
		c0.13,0.04,0.26,0.09,0.39,0.14c18.74,8,33.12,9.2,37.15,6.29c0.92-0.67,1.33-1.84,1.05-2.94c-0.82-8.77-5.11-12.06-34.57-30.95
		c-1.78-1.14-2.3-3.51-1.16-5.3c1.09-1.7,3.3-2.26,5.07-1.3c32.56,17.64,55.38,21.21,62.81,17.06c1.7-0.86,2.76-2.61,2.74-4.52
		c0.89-16.22-17.63-28.9-59.47-51.17c-1.87-1-2.58-3.32-1.58-5.19c0.87-1.63,2.78-2.41,4.54-1.85c29.03,9.22,63.4,19.03,71.59,13
		c0.86-0.64,1.85-1.74,1.83-4.64c-0.15-19-56.37-43.54-74.85-51.6c-1.94-0.85-2.83-3.11-1.98-5.05c0.85-1.94,3.11-2.83,5.05-1.98
		c55.56,24.25,79.32,41.77,79.45,58.58c0.03,4.77-1.63,8.42-4.95,10.87c-6.78,5-19.85,4.57-46.09-2.31
		c26.97,16.58,34.9,27.34,34.11,41.77c-0.12,4.53-2.66,8.66-6.66,10.79c-7.82,4.37-20.99,2.77-35.4-1.82
		c4.22,3.86,6.79,9.2,7.16,14.91c0.51,3.8-1.1,7.57-4.18,9.84C-180.72,2296.59-184.73,2297.46-189.41,2297.46z"/>
</g>
<g transform="translate(772.0 592.0) rotate(0.0 -326.0 222.5) scale(-0.8897343487949695 0.892959267010874)">
	<g>
		<path class="st4" d="M239.41,2700.99l-0.01,0.01L239.41,2700.99z"/>
	</g>
</g>
<g transform="translate(653.0 426.0) rotate(0.0 186.5 77.0) scale(0.9999463835719264 0.9976484001995297)">
	<path class="st1" d="M-289.62,2038.37h100.52c8.05,0,14.58,6.53,14.58,14.58l0,0c0,8.05-6.53,14.58-14.58,14.58h-100.52
		c-8.05,0-14.58-6.53-14.58-14.58l0,0C-304.2,2044.89-297.67,2038.37-289.62,2038.37z"/>
	<path class="st4" d="M-189.1,2071.36h-100.53c-10.17,0-18.41-8.24-18.41-18.41c0-10.17,8.24-18.41,18.41-18.41h100.53
		c10.17,0,18.41,8.24,18.41,18.41C-170.68,2063.11-178.93,2071.36-189.1,2071.36z M-289.62,2042.2c-5.93,0-10.74,4.81-10.74,10.74
		c0,5.93,4.81,10.74,10.74,10.74h100.53c5.93,0,10.74-4.81,10.74-10.74c0-5.93-4.81-10.74-10.74-10.74H-289.62z"/>
	<path class="st1" d="M49.87,2038.37h100.52c8.05,0,14.58,6.53,14.58,14.58l0,0c0,8.05-6.53,14.58-14.58,14.58H49.87
		c-8.05,0-14.58-6.53-14.58-14.58l0,0C35.29,2044.89,41.82,2038.37,49.87,2038.37z"/>
	<path class="st4" d="M150.39,2071.36H49.87c-10.17,0-18.41-8.24-18.41-18.41c0-10.17,8.24-18.41,18.41-18.41h100.52
		c10.17,0,18.41,8.24,18.41,18.41C168.8,2063.11,160.56,2071.36,150.39,2071.36L150.39,2071.36z M49.87,2042.2
		c-5.93,0-10.74,4.81-10.74,10.74c0,5.93,4.81,10.74,10.74,10.74h100.52c5.93,0,10.74-4.81,10.74-10.74
		c0-5.93-4.81-10.74-10.74-10.74H49.87z"/>
	<path class="st1" d="M112.92,2009.94v91.42c0,53.32-51.54,96.95-114.54,96.95h-136.19c-63,0-114.54-43.63-114.54-96.95v-91.42
		H112.92z"/>
	<path class="st4" d="M-1.62,2202.16h-136.19c-65.27,0-118.37-45.21-118.37-100.79v-91.42c0-2.12,1.72-3.83,3.83-3.83h365.27
		c2.12,0,3.83,1.72,3.83,3.83v91.42C116.75,2156.94,63.65,2202.16-1.62,2202.16L-1.62,2202.16z M-248.52,2013.78v87.59
		c0,51.34,49.66,93.12,110.7,93.12h136.2c61.04,0,110.7-41.77,110.7-93.12v-87.59H-248.52z"/>
</g>
<g>
	<path class="st46" d="M453.21,2211.12c0.65,16.11-16.44,16.8-15.79,32.91c0.65,16.11,17.73,15.42,18.38,31.53
		c0.65,16.11-16.44,16.8-15.79,32.91c0.65,16.11,17.73,15.42,18.38,31.54c0.65,16.11-16.44,16.8-15.79,32.91"/>
</g>
<g>
	<path class="st46" d="M528.79,2176.84c0.65,16.11-16.44,16.8-15.79,32.91c0.65,16.11,17.73,15.42,18.38,31.53
		c0.65,16.11-16.44,16.8-15.79,32.91c0.65,16.11,17.73,15.42,18.38,31.54c0.65,16.11-16.44,16.8-15.79,32.91"/>
</g>
</svg>
