<?xml version="1.0" encoding="utf-8"?>
<!-- Generator: Adobe Illustrator 26.1.0, SVG Export Plug-In . SVG Version: 6.00 Build 0)  -->
<svg version="1.1" id="Layer_1" xmlns="http://www.w3.org/2000/svg" xmlns:xlink="http://www.w3.org/1999/xlink" x="0px" y="0px"
	 viewBox="0 0 2000 3200" style="enable-background:new 0 0 2000 3200;" xml:space="preserve">
<style type="text/css">
	.st0{fill:#70D9D9;}
	.st1{fill:#FFFFFF;}
	.st2{fill:#FF7F36;}
	.st3{fill:#007575;}
	.st4{fill:#222433;}
	.st5{fill:#FF7F36;stroke:#FF7F36;stroke-miterlimit:10;}
	.st6{fill:#15C2C1;}
	.st7{fill:#FDA979;}
	.st8{fill:#C35515;}
	.st9{fill:none;stroke:#5A38FD;stroke-width:111.9047;stroke-miterlimit:10;}
	.st10{fill:none;stroke:#FF7F36;stroke-width:111.9047;stroke-miterlimit:10;}
	.st11{fill:none;stroke:#FFFFFF;stroke-width:9.2351;stroke-miterlimit:10;stroke-dasharray:23.0877,36.9403;}
	.st12{fill:none;stroke:#313341;stroke-width:3.8308;stroke-miterlimit:10;}
	.st13{fill:none;}
	.st14{opacity:0.75;fill:#70D9D9;}
	.st15{fill:#5A38FD;}
	.st16{fill:none;stroke:#222433;stroke-width:8.5039;stroke-miterlimit:10;stroke-dasharray:14.1732,14.1732;}
	.st17{fill:#7057FD;}
	.st18{fill:none;stroke:#222433;stroke-width:5.4074;stroke-miterlimit:10;}
	.st19{fill:#222433;stroke:#222433;stroke-width:5.4303;stroke-miterlimit:10;}
	.st20{fill:#2B292D;}
	.st21{fill:none;stroke:#C35515;stroke-width:9.9101;stroke-miterlimit:10;}
	.st22{fill:none;stroke:#C35515;stroke-width:5.6693;stroke-miterlimit:10;}
	.st23{fill:#C35515;stroke:#000000;stroke-miterlimit:10;}
	.st24{fill:#C35515;stroke:#000000;stroke-width:0.6042;stroke-miterlimit:10;}
	.st25{fill:#15C2C1;stroke:#222433;stroke-width:6.1644;stroke-miterlimit:10;}
	.st26{fill:#FFFFFF;stroke:#000000;stroke-width:6.1644;stroke-miterlimit:10;}
	.st27{fill:none;stroke:#007575;stroke-width:6.1644;stroke-miterlimit:10;}
	.st28{fill:none;stroke:#FFFFFF;stroke-width:14.1732;stroke-miterlimit:10;stroke-dasharray:23.0877,36.9403;}
	.st29{fill-rule:evenodd;clip-rule:evenodd;fill:#FDA979;}
	.st30{fill-rule:evenodd;clip-rule:evenodd;fill:#FFFFFF;}
	.st31{fill-rule:evenodd;clip-rule:evenodd;fill:#007575;}
	.st32{fill:#606060;}
	.st33{clip-path:url(#SVGID_00000151536385453079635610000012314603820071934866_);}
	.st34{fill:#222433;stroke:#222433;stroke-width:1.0471;stroke-miterlimit:10;}
	.st35{fill:#222433;stroke:#222433;stroke-width:2.2688;stroke-miterlimit:10;}
	.st36{fill:#82B1FF;}
	.st37{fill:#15C2C1;stroke:#70D9D9;stroke-width:15.652;stroke-miterlimit:10;}
	.st38{stroke:#222433;stroke-width:0.8333;stroke-miterlimit:10;}
	.st39{clip-path:url(#SVGID_00000093172217993792616640000010443680450646092966_);}
	.st40{clip-path:url(#SVGID_00000093172217993792616640000010443680450646092966_);fill:#FF7F36;}
	.st41{clip-path:url(#SVGID_00000093172217993792616640000010443680450646092966_);fill:#C35515;}
	.st42{fill:#222433;stroke:#222433;stroke-width:0.791;stroke-miterlimit:10;}
	.st43{fill-rule:evenodd;clip-rule:evenodd;fill:#FF7F36;}
	.st44{fill-rule:evenodd;clip-rule:evenodd;fill:#15C2C1;}
	.st45{fill:none;stroke:#FF7F36;stroke-width:11.3386;stroke-miterlimit:10;}
	.st46{fill:none;stroke:#FF7F36;stroke-width:9.6934;stroke-miterlimit:10;}
	.st47{opacity:0.44;fill:#FDA979;}
	.st48{fill:none;stroke:#70D9D9;stroke-width:8.5039;stroke-miterlimit:10;stroke-dasharray:11.5087,11.5098;}
	.st49{opacity:0.75;fill:#007575;}
	.st50{clip-path:url(#SVGID_00000089555793673281391240000017647593620299102620_);}
	.st51{fill:none;stroke:#FF7F36;stroke-miterlimit:10;}
	.st52{clip-path:url(#SVGID_00000119797126042398434270000011657754042180380561_);}
	.st53{stroke:#70D9D9;stroke-width:8.5039;stroke-miterlimit:10;}
	.st54{fill:#FDA979;stroke:#222433;stroke-width:17.0079;stroke-miterlimit:10;}
	.st55{clip-path:url(#SVGID_00000133529121303406790390000013972356587082593708_);}
	.st56{fill:none;stroke:#222433;stroke-width:16.1222;stroke-linecap:round;stroke-miterlimit:10;}
	.st57{clip-path:url(#SVGID_00000146475062557361028820000010363415511681338029_);fill:#15C2C1;}
	.st58{clip-path:url(#SVGID_00000146475062557361028820000010363415511681338029_);fill:#C35515;}
	
		.st59{clip-path:url(#SVGID_00000146475062557361028820000010363415511681338029_);fill:#15C2C1;stroke:#000000;stroke-width:8.2755;stroke-miterlimit:10;}
	.st60{clip-path:url(#SVGID_00000146475062557361028820000010363415511681338029_);fill:#FF7F36;}
	
		.st61{clip-path:url(#SVGID_00000146475062557361028820000010363415511681338029_);fill:#15C2C1;stroke:#000000;stroke-width:8.5039;stroke-miterlimit:10;}
	
		.st62{clip-path:url(#SVGID_00000146475062557361028820000010363415511681338029_);fill:none;stroke:#000000;stroke-width:8.5039;stroke-miterlimit:10;}
	
		.st63{clip-path:url(#SVGID_00000146475062557361028820000010363415511681338029_);fill:#FFFFFF;stroke:#000000;stroke-width:8.5039;stroke-miterlimit:10;}
	.st64{clip-path:url(#SVGID_00000146475062557361028820000010363415511681338029_);}
	.st65{fill:none;stroke:#000000;stroke-width:8.2815;stroke-linecap:round;stroke-miterlimit:10;}
	
		.st66{clip-path:url(#SVGID_00000146475062557361028820000010363415511681338029_);fill:#FFFFFF;stroke:#000000;stroke-width:8.7446;stroke-miterlimit:10;}
	.st67{clip-path:url(#SVGID_00000146475062557361028820000010363415511681338029_);fill:none;}
	.st68{clip-path:url(#SVGID_00000155125282887821664280000017894630212299851166_);fill:#FF7F36;}
	.st69{clip-path:url(#SVGID_00000155125282887821664280000017894630212299851166_);}
	
		.st70{clip-path:url(#SVGID_00000155125282887821664280000017894630212299851166_);fill:none;stroke:#5A38FD;stroke-width:111.9047;stroke-miterlimit:10;}
	.st71{clip-path:url(#SVGID_00000168803655316718379010000014530718553263030197_);}
	
		.st72{opacity:0.57;clip-path:url(#SVGID_00000168803655316718379010000014530718553263030197_);fill:none;stroke:#FFFFFF;stroke-width:32.7065;stroke-linecap:round;stroke-miterlimit:10;}
	.st73{fill:#222433;stroke:#000000;stroke-width:7.0866;stroke-miterlimit:10;}
	
		.st74{clip-path:url(#SVGID_00000168803655316718379010000014530718553263030197_);fill:#222433;stroke:#222433;stroke-width:163.17;stroke-miterlimit:10;}
	.st75{fill:none;stroke:#000000;stroke-width:7.0866;stroke-miterlimit:10;}
	
		.st76{clip-path:url(#SVGID_00000168803655316718379010000014530718553263030197_);fill:#70D9D9;stroke:#000000;stroke-width:2.8346;stroke-linecap:round;stroke-miterlimit:10;}
	.st77{clip-path:url(#SVGID_00000124843296346418128820000003789460792311982488_);fill:#FFFFFF;}
	.st78{clip-path:url(#SVGID_00000124843296346418128820000003789460792311982488_);fill:#222433;}
	.st79{clip-path:url(#SVGID_00000124843296346418128820000003789460792311982488_);fill:#15C2C1;}
	.st80{clip-path:url(#SVGID_00000124843296346418128820000003789460792311982488_);fill:#FDA979;}
	.st81{clip-path:url(#SVGID_00000124843296346418128820000003789460792311982488_);}
	.st82{clip-path:url(#SVGID_00000124843296346418128820000003789460792311982488_);fill:#FF7F36;}
	.st83{clip-path:url(#SVGID_00000124843296346418128820000003789460792311982488_);fill:#C35515;}
	.st84{clip-path:url(#SVGID_00000106859863307662431550000017124147795798643135_);}
</style>
<path class="st6" d="M1899.6,217.55h-19.63c-4.61-13.09-17.05-22.49-31.73-22.49h-7.52c-14.67,0-27.11,9.4-31.73,22.49h-19.51
	c-18.59,0-33.66,15.07-33.66,33.66s15.07,33.66,33.66,33.66h110.11c18.59,0,33.66-15.07,33.66-33.66S1918.19,217.55,1899.6,217.55z"
	/>
<path class="st1" d="M1313.18,2709.23h307.78c6.27,0,10.19-6.78,7.06-12.21l-7.9-13.73c-10.35-17.98-31.68-26.53-51.59-20.68
	l-8.41,2.47c-9.64,2.83-20.02-0.51-26.2-8.43l-5.54-7.11c-24.45-31.35-71.39-32.73-97.64-2.86l-16.28,18.52
	c-9.44,10.74-24.99,13.62-37.65,6.99l-2.2-1.15c-17.84-9.35-39.74-5.54-53.38,9.28l-14.03,15.23
	C1302.38,2700.78,1306.09,2709.23,1313.18,2709.23z"/>
<path class="st6" d="M1922.37,1917.1c-38.7-74.89-127.34-46.33-160.39-32.36c-6.7,2.83-14.29-0.3-17.25-6.94
	c-6.84-15.35-22.98-40.6-58.26-53.71c-65.9-24.49-113.72,17.63-136.98,45.99c-8.81-10.05-21.72-16.43-36.14-16.43
	c-18.85,0-35.12,10.87-43.01,26.67c-27.36-4.96-59.4-4.2-83.04,23.92c-0.33,0.39-0.82,0.6-1.22,0.9
	c-27.62,20.75-12.54,64.85,22,64.97l506.16,1.75C1914.25,1971.85,1943.43,1957.86,1922.37,1917.1z"/>
<path class="st1" d="M375,245.52c-20.3-39.28-66.78-24.3-84.12-16.97c-3.51,1.48-7.49-0.16-9.04-3.64
	c-3.59-8.05-12.05-21.29-30.56-28.17c-34.56-12.84-59.64,9.25-71.84,24.12c-4.62-5.27-11.39-8.62-18.95-8.62
	c-9.89,0-18.42,5.7-22.55,13.98c-14.35-2.6-31.15-2.2-43.55,12.54c-0.17,0.21-0.43,0.31-0.64,0.47
	c-14.49,10.88-6.58,34.01,11.54,34.08l265.46,0.92C370.74,274.24,386.05,266.9,375,245.52z"/>
<path class="st1" d="M756.09,1524.47c-28.76-55.66-94.63-34.43-119.2-24.05c-4.98,2.1-10.62-0.22-12.82-5.16
	c-5.08-11.41-17.08-30.17-43.3-39.92c-48.98-18.2-84.51,13.1-101.8,34.18c-6.55-7.47-16.14-12.21-26.86-12.21
	c-14.01,0-26.1,8.08-31.96,19.82c-20.34-3.68-44.14-3.12-61.71,17.77c-0.24,0.29-0.61,0.45-0.91,0.67
	c-20.53,15.42-9.32,48.2,16.35,48.29l376.17,1.3C750.05,1565.16,771.74,1554.76,756.09,1524.47z"/>
<path class="st6" d="M79.9,1228.05c11.1-21.48,36.53-13.29,46.01-9.28c1.92,0.81,4.1-0.09,4.95-1.99
	c1.96-4.4,6.59-11.65,16.71-15.41c18.9-7.03,32.62,5.06,39.29,13.19c2.53-2.88,6.23-4.71,10.37-4.71c5.41,0,10.07,3.12,12.34,7.65
	c7.85-1.42,17.04-1.21,23.82,6.86c0.09,0.11,0.24,0.17,0.35,0.26c7.92,5.95,3.6,18.6-6.31,18.64l-145.19,0.5
	C82.23,1243.76,73.86,1239.74,79.9,1228.05z"/>
<path class="st6" d="M1964.09,2536.69c-9.2-17.8-30.26-11.01-38.11-7.69c-1.59,0.67-3.4-0.07-4.1-1.65
	c-1.62-3.65-5.46-9.65-13.84-12.76c-15.66-5.82-27.02,4.19-32.55,10.93c-2.09-2.39-5.16-3.9-8.59-3.9c-4.48,0-8.35,2.58-10.22,6.34
	c-6.5-1.18-14.11-1-19.73,5.68c-0.08,0.09-0.2,0.14-0.29,0.21c-6.56,4.93-2.98,15.41,5.23,15.44l120.27,0.42
	C1962.16,2549.7,1969.09,2546.38,1964.09,2536.69z"/>
<path class="st6" d="M915.89,2900.64c16.95,16.04,39.62,21.65,64.76,19.3c34.5-3.23,62.96-8.22,62.96-8.22
	c26.11-7.92,54.12,4.18,66.22,28.59l-131.15,78.93l-94.21,0.85l24.29,41.27l-49.51,29.82l-55.05-90.91"/>
<path class="st4" d="M859.26,3094.44c-1.14,0-2.21-0.6-2.8-1.57l-55.05-90.91c-0.95-1.53-0.47-3.54,1.07-4.48s3.54-0.47,4.49,1.06
	c0.01,0.02,0.02,0.03,0.03,0.05l53.36,88.12l43.95-26.48l-22.66-38.49c-0.91-1.55-0.4-3.54,1.15-4.46c0.49-0.29,1.06-0.45,1.63-0.45
	l93.31-0.84l127.74-76.88c-12.08-21.3-37.22-31.47-60.94-24.28c-0.13,0.04-0.25,0.07-0.38,0.09c-0.29,0.05-28.99,5.06-63.22,8.26
	c-27.38,2.56-50.65-4.42-67.31-20.18c-1.32-1.23-1.39-3.29-0.16-4.6s3.29-1.39,4.61-0.16c0.01,0.01,0.03,0.02,0.04,0.04
	c15.47,14.64,36.4,20.84,62.21,18.42c32.52-3.04,59.98-7.72,62.51-8.15c27.7-8.3,57.07,4.43,69.89,30.33
	c0.75,1.52,0.21,3.36-1.24,4.23l-131.15,78.93c-0.5,0.3-1.07,0.46-1.66,0.47l-88.56,0.8l21.43,36.41c0.91,1.54,0.4,3.52-1.13,4.44
	l-49.51,29.82C860.43,3094.28,859.85,3094.44,859.26,3094.44L859.26,3094.44z"/>
<path class="st6" d="M294.51,2613.78l-23.09-26.42c-3.63-4.16-5.81-9.39-6.2-14.89l-14.63-138.13
	c-4.98-30.25-1.09-60.82,25.23-78.32l128.16-96.53c13.18-9.54,30.32-15.15,45.69-9.77l56.57,20.63c3.42,1.55,8.81,6.64,10.88,9.77
	l62.01,86.88l75.06-60.82c9.55-7,29.07-13.14,36.99-4.34l43.51,61.9c4.23,7.52,3.3,23.71-3.26,29.32L595.44,2507.1l-51.13-66.25
	l-172.97-3.26l10.88,128.15l-52.22-33.67c-27.84,3.02-41.83,20.1-45.69,47.78L294.51,2613.78z"/>
<polyline class="st7" points="549.24,2445.37 602.03,2504.95 648.01,2556.83 755.61,2678.26 782.34,2708.43 863.64,2800.18 
	909.6,2852.05 939.52,2885.81 801.63,3008.83 730.79,2928.92 697.66,2891.55 666.25,2856.1 389.84,2534.25 495.31,2444.69 "/>
<path class="st6" d="M372.44,2977.33c-16.43,16.97-15.79,30.35-11.4,39.28c3.3,6.72,9.31,11.66,16.34,14.25
	c22.09,8.13,36.33,30.14,34.22,53.98h-8.7l-144.68-0.74l-27.87-84.4l-29,32.43l-40.3-36.79l103.7-112.49L372.44,2977.33z"/>
<path class="st4" d="M411.6,3088.1h-8.7l-144.7-0.74c-1.4-0.01-2.64-0.91-3.08-2.24l-26.1-79.04l-25.24,28.22
	c-1.2,1.34-3.26,1.46-4.6,0.26c-0.01-0.01-0.02-0.02-0.03-0.03l-40.3-36.79c-1.33-1.22-1.42-3.28-0.2-4.61c0,0,0,0,0,0l103.7-112.49
	c1.2-1.3,3.22-1.41,4.56-0.24l107.7,94.48c1.35,1.19,1.49,3.25,0.3,4.6c-0.03,0.04-0.07,0.08-0.1,0.11
	c-12.46,12.87-16.1,24.84-10.81,35.58c2.82,5.73,7.98,10.21,14.54,12.63c23.62,8.69,38.56,32.27,36.34,57.33
	C414.7,3086.81,413.29,3088.1,411.6,3088.1L411.6,3088.1z M260.58,3080.86l142.33,0.73h5.61c0.59-21.01-12.34-40.33-32.27-47.67
	c-8.14-3-14.59-8.63-18.14-15.87c-4.35-8.85-6.02-22.9,9.65-40.48l-102.78-90.17l-99.33,107.74l35.45,32.36l26.8-29.97
	c1.2-1.34,3.26-1.46,4.61-0.26c0.43,0.38,0.75,0.87,0.93,1.41L260.58,3080.86z"/>
<path class="st7" d="M363.59,2725.36l-126.04,146.63l139.24,121.63l207.23-234.03c4.71-5.65,17.76-22.82,19.04-48.33
	c1-19.93-5.69-35.01-9.25-41.81l-81.59-224.8l-140.33-6.52l11.97,131.4l12.15,77.72c1.64,10.51-0.31,21.26-5.54,30.52
	L363.59,2725.36z"/>
<path class="st2" d="M463.85,2104.96c-12.13-4.86-24.97-7.33-38.16-7.33c-56.5,0-102.46,45.89-102.46,102.29
	c0,33.37,16.37,64.72,43.79,83.87c0.57,0.4,42.62-39.54,71.37-39.28c5.37-12.9,14.77-35.51,23.4-56.28
	c2.43-19.76-10.94-32.99-10.94-44.43c0-21.43,15.11-25.34,15.31-25.82C466.85,2116.32,465.53,2105.63,463.85,2104.96L463.85,2104.96
	z"/>
<path class="st1" d="M461.7,2166.62c-0.46,2.99-0.73,6-0.79,9.02l-0.01-0.01c-0.09,4.22,0.22,8.44,0.9,12.6l-17.56,42.25
	c-0.01,0-2.58,6.16-5.84,14.02c-7.54,18.14,1.08,38.95,19.25,46.48c18.17,7.53,39.02-1.08,46.55-19.22l11.43-27.52
	c4.1,0.85,8.28,1.33,12.47,1.42c37.93,0.81,69.34-29.23,70.15-67.09c0.18-8.26-1.14-16.49-3.9-24.28
	c3.09-7.68,4.76-15.86,4.93-24.13c0.07-2.92-0.06-5.85-0.38-8.75l-16.52-22.64"/>
<path class="st4" d="M471.3,2296.98c-5.05,0-10.1-0.99-14.9-2.98c-19.81-8.2-29.23-30.96-21.02-50.73l5.39-12.95
	c0.15-0.35,0.3-0.72,0.48-1.07l-0.02-0.01l17.21-41.41c-0.61-4.06-0.88-8.16-0.8-12.27c0-0.09,0.01-0.19,0.02-0.28
	c0.08-3.05,0.35-6.14,0.82-9.16c0.26-1.78,1.92-3.01,3.7-2.75c1.78,0.26,3.02,1.92,2.76,3.7c0,0.02-0.01,0.04-0.01,0.05
	c-0.44,2.84-0.69,5.71-0.75,8.59c0,0.09-0.01,0.18-0.02,0.27c-0.06,3.93,0.23,7.85,0.87,11.73c0.1,0.6,0.03,1.21-0.21,1.77
	l-17.56,42.25c-0.02,0.04-0.04,0.09-0.06,0.13c-0.18,0.41-1.35,3.22-5.79,13.89c-6.84,16.45,1.01,35.39,17.49,42.22
	c7.98,3.31,16.78,3.31,24.77,0.01c7.99-3.3,14.21-9.5,17.52-17.47l11.43-27.52c0.6-1.44,2.14-2.26,3.67-1.94
	c3.91,0.81,7.89,1.26,11.88,1.35c36.05,0.8,66.05-27.9,66.82-63.91c0.17-7.87-1.08-15.7-3.71-23.12c-0.26-0.75-0.25-1.56,0.05-2.3
	c2.95-7.31,4.54-15.1,4.7-22.98c0.05-2.5-0.04-4.99-0.27-7.48l-16.01-21.93c-1.08-1.44-0.78-3.48,0.66-4.56
	c1.44-1.08,3.49-0.78,4.57,0.66c0.02,0.02,0.03,0.04,0.05,0.06l16.52,22.64c0.34,0.46,0.54,1,0.61,1.56
	c0.33,3.04,0.47,6.13,0.4,9.18c-0.16,8.26-1.76,16.42-4.72,24.13c2.62,7.82,3.87,16.03,3.69,24.27
	c-0.85,39.6-33.82,71.12-73.49,70.28c-3.48-0.08-6.96-0.41-10.39-0.99l-10.42,25.08c-3.98,9.58-11.46,17.04-21.06,21
	C481.46,2295.97,476.41,2296.98,471.3,2296.98L471.3,2296.98z"/>
<g>
	<g>
		<path class="st2" d="M910,2851.73l-18.91,20.89c-3.45,3.8-9.33,4.1-13.14,0.66c-0.23-0.21-0.45-0.43-0.66-0.66l-32.63-36
			c-8.23-9.02-7.57-22.99,1.47-31.2c4.84-4.39,11.37-6.43,17.85-5.56L910,2851.73z M782.73,2708.1c-0.95,2.13-2.24,4.09-3.82,5.81
			l-32.63,36c-3.44,3.8-9.31,4.1-13.12,0.67c-0.24-0.21-0.46-0.44-0.67-0.67l-32.63-36c-8.23-9.02-7.58-22.99,1.46-31.21
			s23.03-7.56,31.26,1.46l6.76,7.45l6.74-7.45c2.65-2.91,6.03-5.06,9.79-6.22L782.73,2708.1z M648.41,2556.5l-18.9,20.87
			c-3.44,3.8-9.31,4.1-13.12,0.67c-0.23-0.21-0.46-0.44-0.67-0.67l-32.63-35.99c-8.23-9.02-7.56-22.99,1.47-31.2
			c4.83-4.39,11.35-6.42,17.83-5.56L648.41,2556.5z M484.77,2465.42l-32.57,36c-0.21,0.23-0.42,0.45-0.65,0.65
			c-3.81,3.44-9.69,3.15-13.14-0.65l-32.63-36l-0.27-0.3c-3.7-4.19-5.5-9.39-5.5-14.58c0-4.35,1.27-8.69,3.81-12.4l38.49,1.66
			l2.96,3.26l2.73-3.01l40.74,1.76C492.04,2449.52,490.79,2458.8,484.77,2465.42L484.77,2465.42z M567.12,2587.52l-32.04,35.41
			c-3.45,3.8-9.33,4.1-13.14,0.66c-0.23-0.21-0.45-0.43-0.66-0.66l-32.63-36c-8.23-9.02-7.58-22.99,1.46-31.21
			s23.03-7.56,31.26,1.46l6.76,7.44l6.74-7.44c4.61-5.06,11.32-7.7,18.16-7.12L567.12,2587.52z M494.84,2672.7
			c-9.06-7.97-22.84-7.22-30.98,1.68l-6.74,7.44l-6.76-7.44c-8.14-8.91-21.92-9.66-30.98-1.68c-9.18,8.06-10.09,22.02-2.01,31.19
			c0.09,0.1,0.18,0.2,0.27,0.3l32.58,35.99c3.44,3.8,9.31,4.1,13.12,0.67c0.24-0.21,0.46-0.44,0.67-0.67l32.57-35.99
			c8.24-9.01,7.61-22.98-1.42-31.21C495.06,2672.89,494.95,2672.8,494.84,2672.7L494.84,2672.7z M779.06,2821.88
			c-9.06-7.97-22.84-7.22-30.98,1.68l-6.74,7.44l-6.76-7.44c-8.14-8.91-21.92-9.66-30.98-1.68c-9.18,8.06-10.09,22.02-2.01,31.19
			c0.09,0.1,0.18,0.2,0.27,0.3l32.58,35.99c3.44,3.8,9.31,4.1,13.12,0.67c0.24-0.21,0.46-0.44,0.67-0.67l32.57-35.99
			c8.24-9.01,7.61-22.98-1.42-31.21C779.28,2822.07,779.17,2821.97,779.06,2821.88z M497.28,2856.07l-50.55,57.92l-20.48-22.62
			c-8.23-9.02-7.58-22.99,1.46-31.21c9.04-8.22,23.03-7.56,31.26,1.46l6.76,7.44l6.74-7.44
			C478.74,2854.73,488.66,2852.51,497.28,2856.07L497.28,2856.07z M321.17,2820.7l-32.63,35.99c-3.44,3.8-9.31,4.1-13.12,0.67
			c-0.24-0.21-0.46-0.44-0.67-0.67l-11.84-13.11l50.64-58.01c2.15,0.91,4.13,2.17,5.87,3.71c9.17,8.07,10.05,22.02,1.97,31.18
			C321.31,2820.54,321.24,2820.62,321.17,2820.7L321.17,2820.7z"/>
	</g>
</g>
<path class="st4" d="M802.02,3011.77c-0.93,0-1.82-0.4-2.44-1.1l-220.54-248.8c-1.16-1.38-0.99-3.43,0.39-4.59
	c1.33-1.12,3.31-1,4.5,0.27l218.37,246.35l133.03-118.68L547.19,2447.2c-1.16-1.38-0.99-3.43,0.39-4.59c1.33-1.12,3.31-1,4.5,0.27
	l390.28,440.45c1.19,1.34,1.07,3.39-0.27,4.59L804.2,3010.94C803.6,3011.47,802.82,3011.77,802.02,3011.77L802.02,3011.77z"/>
<path class="st13" d="M512.95,2442.82l40.13,107.16l14.03,37.47l30.12,80.43c11.26,29.92,6.21,63.53-13.35,88.83
	c-1.09,1.46-2.28,2.88-3.5,4.28l-25.73,29.39l-57.38,65.72l-50.55,57.92l-69.44,79.54l-139.42-121.31l25.02-28.67l50.64-58.01
	l50.05-60.18"/>
<path class="st2" d="M602.18,2121.13c-2.16-20.57-8.01-34.45-18.99-44.97c-14.51-13.9-33.54-21.33-53.67-20.92
	c-20.1,0.41-38.84,8.61-52.77,23.09c-10.79,11.23-17.74,25.29-20.1,40.68l-0.55,3.66c-0.27,1.78,17.71-8.61,24.08-8.33
	c30.91,1.34,27.64,27.81,29.31,27.81c0.1,0,0.2,0,0.3-0.01c12.86-1.18,25.27-6.27,34.96-14.32l36.05-25.4l15.51,20.98
	c1.07,1.45,3.11,1.75,4.56,0.68C601.8,2123.4,602.3,2122.28,602.18,2121.13z"/>
<path class="st1" d="M480.18,2173.27c-9.73-0.08-19.21-4.95-24.78-13.78c-8.68-13.77-4.53-31.96,9.27-40.63
	c13.8-8.66,32.02-4.52,40.7,9.25c2.07,3.28,3.48,6.94,4.13,10.77"/>
<path class="st4" d="M480.18,2176.53h-0.03c-11.25-0.09-21.53-5.81-27.51-15.3c-9.62-15.27-5.01-35.51,10.29-45.12
	c7.41-4.65,16.19-6.15,24.73-4.21c8.54,1.94,15.8,7.08,20.47,14.48c2.31,3.65,3.86,7.71,4.58,11.96c0.32,1.77-0.87,3.46-2.64,3.78
	c-1.77,0.32-3.47-0.86-3.79-2.64c0-0.02-0.01-0.04-0.01-0.06c-0.58-3.4-1.82-6.66-3.67-9.58c-3.73-5.93-9.55-10.04-16.39-11.6
	c-6.79-1.56-13.92-0.35-19.81,3.37c-12.25,7.69-15.95,23.9-8.24,36.13c4.79,7.6,13.03,12.18,22.04,12.26
	c1.8,0.01,3.26,1.47,3.25,3.27C483.45,2175.08,481.98,2176.54,480.18,2176.53L480.18,2176.53z M550.04,2447.95
	c-1.8,0-3.26-1.46-3.27-3.26c0-0.06,0-0.12,0.01-0.18c0.8-13.96-1.3-27.93-6.15-41.05c-6.56-18.24-8.32-37.86-5.11-56.97
	c0.3-1.77,1.98-2.97,3.76-2.67c1.78,0.3,2.98,1.98,2.68,3.75l0,0c-3.03,18-1.37,36.48,4.8,53.67c5.16,14.01,7.36,28.7,6.53,43.64
	C553.2,2446.6,551.77,2447.94,550.04,2447.95L550.04,2447.95z M579.9,2369.11c-1.09,0-2.1-0.54-2.71-1.44
	c-0.36-0.53-35.93-53.24-47.84-70.63c-6.93-10.11-15.86-20.02-25.13-27.89c-1.37-1.17-1.54-3.22-0.37-4.59s3.23-1.54,4.6-0.37
	c9.7,8.24,19.04,18.6,26.29,29.18c10.27,14.98,38.04,56.11,45.82,67.64l62.49-53.44c12.02-10.28,26.47-15.53,41.71-15.16
	c1.8,0.04,3.23,1.53,3.19,3.33s-1.55,3.2-3.34,3.18c-13.65-0.31-26.53,4.38-37.31,13.6l-65.27,55.82
	C581.43,2368.84,580.68,2369.11,579.9,2369.11L579.9,2369.11z M601.92,2507.14c-1.8,0-3.27-1.46-3.27-3.25
	c0-1.07,0.52-2.07,1.4-2.68c1.53-1.06,3.01-2.2,4.42-3.41l116.4-99.5c7.51-6.42,19.18-18.83,13-29.87
	c-0.88-1.57-0.32-3.56,1.26-4.43s3.56-0.32,4.44,1.25c6.26,11.18,1.13,24.68-14.45,38l-116.4,99.5c-1.58,1.35-3.23,2.62-4.94,3.81
	C603.23,2506.94,602.58,2507.15,601.92,2507.14z"/>
<path class="st4" d="M381.69,2576.37c-1.8,0-3.27-1.46-3.27-3.25c0-0.22,0.02-0.44,0.06-0.65c1.2-5.96,1.43-12.07,0.68-18.1
	l-13.4-118.44c-0.11-0.95,0.21-1.9,0.86-2.6c0.66-0.69,1.59-1.07,2.54-1.02l181.02,9.12c1.8,0.09,3.19,1.62,3.09,3.42
	c-0.09,1.8-1.62,3.19-3.42,3.09l-177.18-8.93l12.96,114.6c0.83,6.71,0.57,13.52-0.77,20.15
	C384.58,2575.27,383.25,2576.36,381.69,2576.37L381.69,2576.37z"/>
<path class="st4" d="M302.23,2620.54c-0.38,0-0.76-0.07-1.14-0.21c-22.71-8.42-38.35-28.59-40.83-52.63l-17.4-154.3
	c-2.44-21.7,6.79-43.48,24.09-56.84c1.09-0.83,107.93-82.67,118.66-90.75c10.04-7.57,30.18-20.85,52.16-24.77
	c1.77-0.32,3.47,0.86,3.79,2.63c0.32,1.77-0.86,3.46-2.64,3.78l0,0c-20.65,3.69-39.8,16.35-49.38,23.56
	c-10.71,8.07-117.54,89.88-118.61,90.71c-15.5,11.97-23.77,31.5-21.59,50.95l17.41,154.33c2.22,21.59,16.25,39.67,36.61,47.22
	c1.69,0.62,2.55,2.5,1.93,4.19C304.82,2619.7,303.6,2620.55,302.23,2620.54L302.23,2620.54z"/>
<path class="st1" d="M325.57,2532.21c-34.44,2.55-58.5,45.07-33.72,72.6c0.34,0.38,0.67,0.74,1.01,1.09
	c11.38,11.84,20.86,25.68,15.56,49.1c-3.74,16.51-11.9,40.66,3.86,43.65c10.88,2.06,21.62-25.78,30.23-46.02
	c0.99,31.62,2.34,73.03,16.68,73.42c14.34,0.39,18-20.82,16.42-61.81c9.64,44.64,6.7,60.54,20.52,59.29
	c22.84-2.07,8.46-94.64-5.07-125.3c0,0-3.05-7.37-12.63-34.47C368.67,2536.05,343.65,2530.82,325.57,2532.21L325.57,2532.21z"/>
<path class="st4" d="M359.58,2729.3c-0.16,0-0.32,0-0.48-0.01c-14.29-0.39-17.77-26.18-19.31-61.89
	c-7.86,18.19-16.15,34.61-26.31,34.61c-0.6,0-1.21-0.06-1.8-0.17c-4.08-0.77-7.18-2.77-9.21-5.93c-5.36-8.31-1.82-22.75,1.31-35.5
	c0.52-2.12,1.03-4.19,1.47-6.14c4.69-20.68-2.5-33.4-14.73-46.12c-0.36-0.37-0.73-0.76-1.1-1.18
	c-11.35-12.61-14.11-29.18-7.55-45.46c7.28-18.08,24.75-31.16,43.47-32.55c12.98-0.99,44.41,0.3,56.17,33.71
	c9.42,26.62,12.54,34.23,12.57,34.31c11.6,26.27,24.77,101.44,12.03,123.03c-3.03,5.13-6.94,6.5-9.68,6.75
	c-12.52,1.13-14.55-8.83-17.87-28.75c-1.18,13.81-3.98,22.35-8.6,27.01C367.13,2727.86,363.65,2729.3,359.58,2729.3L359.58,2729.3z
	 M342.51,2649.35c1.76,0,3.21,1.4,3.26,3.16c0.47,15.04,1.06,33.76,3.3,48.02c3.01,19.2,7.69,22.18,10.21,22.25
	c2.45,0.08,4.38-0.68,6.03-2.34c7.95-8.02,7.82-35.86,7.04-56.09c-0.07-1.8,1.32-3.31,3.12-3.39c1.59-0.07,3,1.02,3.33,2.58
	c2.76,12.78,4.49,23.19,5.88,31.55c3.64,21.9,4.8,25.76,11.15,25.18c0.66-0.06,2.68-0.24,4.65-3.57
	c10.93-18.52-0.2-89.52-12.41-117.17c-0.16-0.38-3.22-7.83-12.72-34.7c-10.26-29.16-38.05-30.26-49.52-29.37h-0.01
	c-16.29,1.21-31.53,12.65-37.9,28.48c-5.59,13.88-3.27,27.99,6.36,38.69c0.32,0.36,0.62,0.68,0.93,1
	c11.86,12.33,22.04,27.17,16.39,52.08c-0.48,2.09-0.98,4.17-1.5,6.25c-2.67,10.9-6,24.47-2.16,30.42c1.06,1.65,2.63,2.61,4.94,3.05
	c0.2,0.04,0.4,0.06,0.6,0.06c7.4,0,17.72-24.48,23.95-39.26c0.7-1.66,1.39-3.3,2.07-4.89
	C340.02,2650.13,341.2,2649.35,342.51,2649.35L342.51,2649.35z M325.57,2532.21h0.01H325.57z M369.02,2438.82
	c-1.8,0-3.26-1.46-3.27-3.26c0-0.92,0.39-1.79,1.06-2.41l76.23-69.52c1.31-1.23,3.38-1.16,4.61,0.15c1.23,1.31,1.17,3.37-0.15,4.6
	c-0.02,0.02-0.04,0.04-0.06,0.06l-76.23,69.52C370.62,2438.52,369.83,2438.82,369.02,2438.82L369.02,2438.82z"/>
<path class="st1" d="M726.59,2325.44c10.03-15.1,2.81-11.34,7.26-31.43l8.23-44.48c5.36-28.45-17.36-11.4-22.21-0.55l-17.64,34.93
	c-19.65,14.25-29.91,19.68-48.38,37.28c-22.58,21.5,3.99,60.9,26.24,67.91c16.99,5.3,35.51-0.03,47.05-13.56
	c4.83-5.8,8.49-11.52,12.66-16.61l0.12-0.14c3.19-4.1,7.06-7.62,11.45-10.4c2.33-1.43,4.81-2.6,7.39-3.51
	c5.87-2.07,13.18-3.22,22.81-3.14c16.06,0.15,40.09,2.85,39.72-12.32c-0.13-5.17-6.98-8.85-16.33-11.71l-32.68-5.01l40.14-13.19
	c15.16-5.32,26.29-11.56,24.9-18.96c-2.51-13.34-31.18-4.98-55.37,0.45c23.65-9.78,49.55-21.56,45.62-34.09
	c-3.85-12.26-11.18-13.54-40.98-2.55l-47.01,18.73"/>
<path class="st4" d="M693.37,2394.4c-4.75,0-9.55-0.71-14.25-2.18c-15.68-4.94-31.84-23.6-36.03-41.6
	c-2.95-12.68-0.01-23.66,8.51-31.77c13.82-13.17,23.15-19.65,34.96-27.85c4.07-2.83,8.27-5.75,13.11-9.25l17.25-34.16
	c3.35-7.38,15.15-19.11,23.32-16.56c5.42,1.69,7.12,8.12,5.05,19.11l-1.43,7.76l41.52-16.54c21.09-7.78,30.84-9.4,37.34-6.21
	c4.79,2.35,6.77,7.01,7.96,10.81c3,9.56-6.21,17.89-20.14,25.51c10.77-1.81,19.86-2.11,25.24,1.39c2.57,1.67,4.16,4.07,4.74,7.11
	c2.08,11.05-14.42,18.21-27.02,22.63l-27.27,8.96l19.22,2.95c0.16,0.02,0.31,0.06,0.46,0.11c7.91,2.41,18.44,6.57,18.64,14.74
	c0.1,3.97-1.15,7.28-3.71,9.83c-6.69,6.67-20.84,6.29-33.33,5.95c-2.07-0.06-4.08-0.11-5.97-0.13c-8.77-0.07-15.86,0.9-21.69,2.95
	c-2.37,0.83-4.64,1.91-6.78,3.22c-4.05,2.58-7.63,5.84-10.57,9.62l-0.08,0.1l-0.12,0.14c-1.86,2.27-3.65,4.72-5.54,7.31
	c-2.2,3.01-4.47,6.12-7.11,9.29C720.41,2388.46,707.09,2394.4,693.37,2394.4L693.37,2394.4z M737.69,2237.16
	c-3.53,0-12.05,6.92-14.84,13.15c-0.02,0.05-0.04,0.09-0.07,0.14l-17.64,34.93c-0.23,0.46-0.58,0.86-1,1.17
	c-5.17,3.75-9.59,6.82-13.86,9.79c-11.58,8.04-20.73,14.4-34.18,27.22c-8.53,8.13-8.33,18.4-6.66,25.59
	c3.66,15.73,18.14,32.61,31.62,36.86c15.74,4.93,32.9-0.02,43.59-12.56c2.48-2.98,4.69-6.01,6.83-8.93
	c1.95-2.66,3.78-5.18,5.79-7.62l0.11-0.13c3.41-4.37,7.55-8.13,12.23-11.1c2.54-1.56,5.25-2.85,8.07-3.84
	c6.54-2.31,14.36-3.41,23.91-3.32c1.94,0.02,3.99,0.07,6.09,0.13c10.62,0.29,23.83,0.64,28.54-4.05c1.28-1.27,1.85-2.88,1.8-5.06
	c-0.03-1.32-1.45-4.79-13.8-8.6l-32.45-4.97c-1.78-0.27-3-1.93-2.73-3.71c0.19-1.21,1.04-2.22,2.21-2.6l40.14-13.19
	c20.87-7.33,23.19-12.71,22.71-15.26c-0.24-1.29-0.82-2.17-1.89-2.86c-6.38-4.15-25.1,0.21-41.62,4.06
	c-2.67,0.62-5.33,1.24-7.94,1.83c-1.76,0.4-3.51-0.7-3.9-2.46c-0.35-1.55,0.47-3.12,1.94-3.73c15.29-6.32,47.09-19.47,43.76-30.11
	c-1.21-3.85-2.59-5.92-4.61-6.91c-4.47-2.19-13.78-0.33-32.12,6.44l-45.26,18.04l-5.39,29.14c-0.01,0.04-0.01,0.07-0.02,0.11
	c-1.74,7.85-1.61,11.72-1.5,14.83c0.18,5.36-0.01,8.35-6.22,17.7c-1,1.49-3.03,1.89-4.53,0.89c-1.49-0.99-1.89-3-0.91-4.49
	c5.33-8.03,5.28-9.74,5.14-13.88c-0.11-3.29-0.26-7.78,1.64-16.4l5.7-30.81l0.02-0.08l2.51-13.54c1.68-8.92,0.15-11.47-0.58-11.7
	C738.1,2237.19,737.89,2237.16,737.69,2237.16L737.69,2237.16z"/>
<path class="st4" d="M763.42,2291.4c-1.8,0-3.26-1.46-3.26-3.26c0-1.35,0.83-2.56,2.09-3.04l18.52-7.13
	c1.68-0.65,3.57,0.19,4.22,1.86c0,0,0,0,0,0c0.65,1.68-0.19,3.56-1.87,4.21c0,0,0,0,0,0l-18.52,7.13
	C764.2,2291.33,763.81,2291.4,763.42,2291.4z"/>
<path class="st2" d="M575.19,2764.3c-1.09,1.46-2.28,2.88-3.5,4.28l-25.73,29.39l-9.22-10.2c-8.23-9.02-7.58-22.99,1.46-31.21
	s23.03-7.56,31.26,1.46L575.19,2764.3z"/>
<path class="st4" d="M377.44,2996.83c-0.79,0-1.55-0.28-2.14-0.8l-139.42-121.31c-1.36-1.18-1.5-3.24-0.32-4.6l75.66-86.68l50-60.12
	c1.15-1.38,3.21-1.58,4.6-0.43c1.39,1.15,1.58,3.2,0.43,4.59l-50.05,60.18l-73.57,84.29l134.5,117.03l175.23-200.72l25.73-29.39
	c0.96-1.11,2.22-2.58,3.35-4.08c19.03-24.63,23.84-56.67,12.91-85.74l-84.29-225.05c-0.62-1.69,0.25-3.56,1.94-4.18
	c1.68-0.61,3.54,0.23,4.17,1.9l84.28,225.05c11.74,31.2,6.57,65.58-13.82,91.96c-1.22,1.63-2.58,3.22-3.62,4.42l-25.73,29.39
	L379.9,2995.71C379.28,2996.42,378.38,2996.83,377.44,2996.83z M574.59,2194.28c-1.8,0-3.27-1.45-3.27-3.25
	c0-1.26,0.73-2.41,1.87-2.95l12.76-6.01l-10.98-25.09c-0.74-1.64,0-3.57,1.65-4.3c1.65-0.73,3.58,0,4.31,1.65
	c0.01,0.02,0.01,0.03,0.02,0.05l12.25,27.99c0.71,1.62,0,3.5-1.6,4.25l-15.63,7.36C575.53,2194.18,575.06,2194.28,574.59,2194.28z"
	/>
<ellipse class="st4" cx="554.89" cy="2159.9" rx="5.05" ry="5.04"/>
<ellipse class="st4" cx="592.31" cy="2163.95" rx="5.05" ry="5.04"/>
<path class="st4" d="M563.83,2213.37c-1.19,0-2.39-0.12-3.58-0.36c-4.69-0.93-8.82-3.69-11.46-7.67c-0.35-0.52-0.67-1.06-0.96-1.62
	l-0.31-0.59c-0.82-1.6-0.18-3.56,1.42-4.38c1.58-0.8,3.5-0.21,4.35,1.34l0.32,0.6c0.19,0.36,0.4,0.71,0.62,1.04
	c1.68,2.54,4.32,4.3,7.31,4.89c3.01,0.6,6.08,0,8.64-1.7l2.27-1.52c1.49-1.01,3.52-0.62,4.53,0.87c1.01,1.49,0.62,3.52-0.87,4.52
	c-0.01,0-0.01,0.01-0.02,0.01l-2.28,1.53C570.85,2212.32,567.38,2213.37,563.83,2213.37L563.83,2213.37z M515.63,2247.53
	c-0.22,0-0.44-0.02-0.66-0.07c-12.53-2.59-24.14-8.48-33.62-17.07c-1.33-1.21-1.44-3.27-0.22-4.6c1.21-1.33,3.28-1.43,4.61-0.22
	c8.62,7.8,19.17,13.16,30.56,15.51c1.77,0.36,2.9,2.08,2.54,3.85C518.52,2246.44,517.18,2247.53,515.63,2247.53L515.63,2247.53z
	 M490.76,2152.95c-0.12,0-0.23-0.01-0.35-0.02l-23.93-2.6c-1.79-0.17-3.12-1.75-2.95-3.54c0.17-1.79,1.76-3.11,3.55-2.94
	c0.04,0,0.07,0.01,0.11,0.01l15.34,1.66l-11.33-12.37c-1.23-1.31-1.17-3.37,0.14-4.61c1.31-1.23,3.38-1.17,4.61,0.14
	c0.02,0.02,0.04,0.04,0.06,0.06l17.16,18.74c1.22,1.33,1.12,3.39-0.21,4.6C492.36,2152.65,491.58,2152.95,490.76,2152.95
	L490.76,2152.95z"/>
<g transform="translate(1102.0 359.0) rotate(90.0 17.5 17.5) scale(0.5383207468815848 0.5266484095218033)">
	<path class="st1" d="M4121.44,377.37l-0.4-19.22c-0.19-8.78,6.77-16.04,15.55-16.23c2.47-0.05,4.92,0.47,7.15,1.53l48.17,22.82
		l-47.15,24.83c-7.78,4.09-17.4,1.11-21.49-6.67C4122.12,382.25,4121.49,379.83,4121.44,377.37z"/>
	<path class="st4" d="M4137.37,397.78c-2.07,0-4.14-0.31-6.18-0.94c-5.26-1.62-9.66-5.27-12.21-10.16c-1.49-2.85-2.31-6-2.38-9.21v0
		l-0.4-19.22c-0.13-5.5,1.94-10.82,5.76-14.79c3.79-3.98,9.03-6.28,14.53-6.39c3.22-0.07,6.42,0.62,9.33,2l48.17,22.81
		c2.42,1.15,3.45,4.03,2.3,6.45c-0.45,0.95-1.19,1.72-2.12,2.21l-47.15,24.83C4144.04,396.96,4140.73,397.78,4137.37,397.78z
		 M4126.28,377.27c0.04,1.71,0.47,3.39,1.27,4.91c1.36,2.6,3.71,4.55,6.51,5.42c2.8,0.88,5.84,0.6,8.44-0.78l38.58-20.32
		l-39.42-18.67c-1.55-0.74-3.26-1.1-4.98-1.07c-2.93,0.05-5.72,1.28-7.74,3.4c-2.04,2.11-3.14,4.95-3.07,7.88L4126.28,377.27z"/>
	<path class="st1" d="M4180.85,295.78l19.22-0.4c8.79-0.15,16.04,6.84,16.19,15.63c0.04,2.44-0.48,4.87-1.52,7.08l-22.83,48.19
		l-24.83-47.2c-4.07-7.79-1.07-17.4,6.72-21.48C4175.97,296.45,4178.39,295.83,4180.85,295.78z"/>
	<path class="st4" d="M4191.91,371.11c-1.8,0-3.45-1-4.28-2.59l-24.83-47.2c-5.31-10.15-1.38-22.71,8.76-28.02
		c2.85-1.49,6-2.29,9.2-2.36l19.22-0.4c11.46-0.2,20.93,8.94,21.13,20.38c0.05,3.19-0.63,6.35-1.98,9.23l-22.84,48.19
		c-0.79,1.66-2.44,2.73-4.27,2.77L4191.91,371.11z M4200.36,300.22l-0.2,0l-19.2,0.4h0c-1.71,0.04-3.39,0.47-4.91,1.26
		c-5.41,2.84-7.5,9.52-4.67,14.94l20.32,38.62l18.69-39.43c0.72-1.52,1.09-3.23,1.06-4.92
		C4211.31,305.06,4206.39,300.23,4200.36,300.22z M4180.85,295.78h0.02H4180.85z"/>
</g>
<g transform="translate(849.0 542.0) rotate(0.0 36.5 66.5) scale(0.6673980618028891 0.6714458804523424)">
	<path class="st4" d="M-405.84,3786.99c-2.67,0-4.84-2.17-4.84-4.84v-183.36c0-2.67,2.17-4.84,4.84-4.84c2.67,0,4.84,2.17,4.84,4.84
		v183.36C-401,3784.82-403.16,3786.99-405.84,3786.99L-405.84,3786.99z"/>
	<path class="st2" d="M-335.24,3467.35c-9.75,0-17.65,7.9-17.65,17.65c0-9.75-7.9-17.65-17.65-17.65c-9.74,0-17.64,7.9-17.64,17.64
		v0.02c0-9.75-7.9-17.65-17.65-17.65c-9.75,0-17.65,7.9-17.65,17.65c0-9.75-7.9-17.65-17.65-17.65c-9.75,0-17.65,7.9-17.65,17.65
		c0.01-9.74-7.88-17.64-17.62-17.65h-0.02c-9.75,0-17.65,7.9-17.65,17.65v73.86c0,48.74,39.51,88.25,88.25,88.25
		c48.74-0.01,88.24-39.52,88.25-88.25V3485C-317.58,3475.25-325.49,3467.35-335.24,3467.35z"/>
	<g>
		<path class="st4" d="M-352.89,3557.81c-2.67,0-4.84-2.17-4.84-4.84v-69.37c0-2.67,2.17-4.84,4.84-4.84s4.84,2.17,4.84,4.84v69.37
			C-348.05,3555.65-350.22,3557.81-352.89,3557.81z M-388.2,3557.81c-2.67,0-4.84-2.17-4.84-4.84v-69.37c0-2.67,2.17-4.84,4.84-4.84
			c2.67,0,4.84,2.17,4.84,4.84v69.37C-383.36,3555.65-385.53,3557.81-388.2,3557.81z M-423.49,3557.81c-2.67,0-4.84-2.17-4.84-4.84
			v-69.37c0-2.67,2.17-4.84,4.84-4.84s4.84,2.17,4.84,4.84v69.37C-418.65,3555.65-420.82,3557.81-423.49,3557.81z M-458.8,3557.81
			c-2.67,0-4.84-2.17-4.84-4.84v-69.37c0-2.67,2.17-4.84,4.84-4.84c2.67,0,4.84,2.17,4.84,4.84v69.37
			C-453.96,3555.65-456.12,3557.81-458.8,3557.81z"/>
	</g>
</g>
<g transform="translate(976.0 126.0) rotate(0.0 38.0 64.0) scale(0.6255144032921811 0.6117143294081664)">
	<path class="st1" d="M-320.27,3393.75l58.55,7.29c23.63,2.94,40.4,24.49,37.46,48.12l-29,232.86
		c-2.94,23.63-24.49,40.4-48.12,37.46l-58.55-7.29c-23.63-2.94-40.4-24.49-37.46-48.12l29-232.86
		C-365.45,3407.58-343.9,3390.81-320.27,3393.75z"/>
	<path class="st4" d="M-295.97,3724.66c-2,0-4.01-0.12-6.03-0.37l-58.55-7.29c-12.71-1.58-24.05-8.02-31.92-18.13
		c-7.87-10.11-11.33-22.68-9.75-35.39l29.01-232.87c1.58-12.71,8.02-24.05,18.13-31.92c10.11-7.87,22.68-11.33,35.39-9.75
		l58.55,7.29c12.71,1.58,24.05,8.02,31.92,18.13c7.87,10.11,11.33,22.68,9.75,35.39l-29.01,232.87
		c-1.58,12.71-8.02,24.05-18.13,31.92C-275.11,3721.16-285.36,3724.66-295.97,3724.66z M-325.68,3398.26
		c-8.47,0-16.65,2.79-23.43,8.08c-8.03,6.22-13.24,15.39-14.47,25.47l-29.01,232.87c-1.26,10.15,1.5,20.18,7.78,28.24
		c6.28,8.07,15.33,13.21,25.47,14.47l58.55,7.29c10.14,1.26,20.18-1.5,28.24-7.78s13.21-15.33,14.47-25.47l29-232.87
		c1.28-10.08-1.52-20.25-7.78-28.24c-6.22-8.03-15.39-13.24-25.47-14.47l-58.55-7.29C-322.47,3398.36-324.07,3398.26-325.68,3398.26
		z"/>
	<path class="st4" d="M-206.88,3451.33l-29,232.87c-1.58,12.72-8.02,24.04-18.14,31.92c-8.5,6.62-18.75,10.12-29.35,10.12
		c-2,0-24.04-2.68-26.05-2.94c-2.66-0.32,15.48-0.19,15.81-2.84c0.03-0.26,0.08-0.5,0.15-0.73c20.35-1.21,37.57-16.77,40.18-37.71
		l29-232.86c2.82-22.61-12.39-43.3-34.39-47.6c-2.36-2.1-4.18-4.21-4.03-5.33c0,0,11.51,1.23,14.15,1.58
		C-222.31,3401.08-203.6,3425.09-206.88,3451.33z"/>
	<path class="st4" d="M-224,3446.42c-0.16,0-0.32-0.01-0.48-0.02l-143.73-14.15c-2.66-0.26-4.6-2.63-4.34-5.29c0,0,0,0,0,0
		c0.26-2.66,2.62-4.6,5.27-4.34c0.01,0,0.01,0,0.02,0l143.73,14.15c2.66,0.27,4.6,2.64,4.33,5.3
		C-219.44,3444.53-221.52,3446.41-224,3446.42z M-252.06,3677.21c-0.15,0-0.31-0.01-0.47-0.02l-144.64-13.81
		c-2.66-0.25-4.61-2.62-4.36-5.28c0.25-2.66,2.6-4.61,5.25-4.36c0.01,0,0.02,0,0.02,0l144.64,13.81c2.66,0.26,4.61,2.62,4.35,5.29
		C-247.49,3675.31-249.57,3677.2-252.06,3677.21z"/>
	<path class="st2" d="M-241.88,3551.76l-10.18,82.25c-2.68,0.51-10.61,1.65-13.33,1.65c-5.97,0.01-11.87-1.19-17.37-3.51
		c0,0,0.33,5.81,0.32-12.66c0-10.46,15.46-19.93,15.76-33.44c0.23-10.13-12.03-31.25-12.03-31.25c2.75-5.19,6.96-8.39,13.3-8.39
		C-258.97,3546.4-247.73,3549.06-241.88,3551.76z"/>
	<g>
		<path class="st4" d="M-322.43,3566.49c-0.99,0-1.96-0.31-2.77-0.88l-11.19-7.84c-2.19-1.53-2.72-4.55-1.19-6.74
			c0.04-0.06,0.09-0.12,0.14-0.19l12.93-16.7c1.67-2.09,4.72-2.43,6.8-0.76c2.04,1.63,2.42,4.59,0.85,6.68l-9.82,12.69l7.03,4.93
			c2.19,1.53,2.72,4.55,1.19,6.74C-319.36,3565.72-320.85,3566.49-322.43,3566.49z"/>
		<ellipse class="st4" cx="-341.51" cy="3533.52" rx="2.52" ry="2.47"/>
		<ellipse class="st4" cx="-299.65" cy="3533.52" rx="2.52" ry="2.47"/>
		<path class="st4" d="M-313.89,3576.08c-6.29,23.52-26.64,16.17-26.64-2.23L-313.89,3576.08z M-337.9,3665.91
			c-2.67,0-4.84-2.16-4.85-4.84c0-0.15,0.01-0.3,0.02-0.45l2.51-27.11c-19.83-8.89-32.91-28.85-32.91-50.79
			c0-11.44,3.41-22.32,9.88-31.64c-1.97-5.78-3.08-13.07-3.08-20.48c0-2.67,2.17-4.84,4.84-4.84s4.84,2.17,4.84,4.84
			c0,7.33,1.21,14.37,3.31,19.31c0.68,1.61,0.45,3.46-0.61,4.85c-6.21,8.09-9.5,17.76-9.5,27.96c0,19.16,12.08,36.5,30.05,43.13
			c2.06,0.76,3.35,2.8,3.15,4.99l-2.84,30.68C-333.31,3664-335.4,3665.91-337.9,3665.91z M-286.72,3670.64
			c-2.67,0-4.84-2.16-4.85-4.84c0-0.15,0.01-0.3,0.02-0.45l4.28-46.32c0.11-1.16,0.63-2.25,1.48-3.06
			c9.19-8.77,14.26-20.58,14.26-33.26c0-7.69-1.21-15.12-3.25-19.9c-1-2.48,0.21-5.3,2.69-6.3c2.41-0.97,5.15,0.14,6.22,2.5
			c3.63,8.52,4.02,19.4,4.02,23.69c0,14.74-5.65,28.5-15.94,38.97l-4.12,44.55C-282.14,3668.73-284.22,3670.63-286.72,3670.64z"/>
	</g>
	<path class="st2" d="M-259.95,3508.03c-7.98-19.47-25.94-31.14-50.56-32.85c-0.03,0-0.06,0.01-0.09,0.01
		c-0.07,0-0.15-0.02-0.22-0.02c-22.2,0-35.61,10.73-42.96,19.73c-9.36,11.48-14.29,27.51-12.06,39.15c0.25,1.33,0.96,2.58,2.13,3.27
		c0.73,0.44,1.53,0.64,2.31,0.64c1.22,0,2.4-0.5,3.25-1.41l46.17-49.18l37.34,75.68c0.59,1.19,1.58,2.19,2.86,2.56
		c1.66,0.49,3.46-0.03,4.61-1.33C-255.38,3550.96-252.27,3526.77-259.95,3508.03z"/>
</g>
<g transform="translate(828.0 659.0) rotate(0.0 12.0 8.0) scale(0.6629834254143646 0.6759611322348964)">
	<g>
		<path class="st4" d="M-500.94,3588.61c-1.87,0-3.58-1.08-4.38-2.77l-11.04-23.33c-1.14-2.42-0.11-5.3,2.31-6.45
			c2.42-1.14,5.3-0.11,6.45,2.31l11.04,23.33c1.14,2.42,0.11,5.3-2.3,6.45C-499.51,3588.45-500.22,3588.61-500.94,3588.61z
			 M-474.29,3588.61c-2.67,0-4.84-2.17-4.84-4.84c0-0.72,0.16-1.42,0.47-2.07l11.04-23.33c1.14-2.42,4.03-3.45,6.45-2.31
			c2.42,1.14,3.45,4.03,2.31,6.45l0,0l-11.04,23.33C-470.71,3587.53-472.41,3588.61-474.29,3588.61z M-487.61,3588.61
			c-2.67,0-4.84-2.17-4.84-4.84v-28.51c0-2.67,2.17-4.84,4.84-4.84c2.67,0,4.84,2.17,4.84,4.84v28.51
			C-482.77,3586.44-484.94,3588.61-487.61,3588.61z"/>
	</g>
</g>
<g transform="translate(828.0 659.0) rotate(0.0 12.0 8.0) scale(0.6629834254143646 0.6759611322348964)">
	<g>
		<path class="st4" d="M1469.82,3595c-1.68,0-3.21-0.97-3.93-2.49l-9.9-20.93c-1.03-2.17-0.1-4.76,2.07-5.78
			c2.17-1.03,4.76-0.1,5.78,2.07l9.9,20.93c1.03,2.17,0.1,4.76-2.07,5.78C1471.1,3594.85,1470.46,3595,1469.82,3595z M1493.73,3595
			c-2.4,0-4.34-1.95-4.34-4.34c0-0.64,0.14-1.28,0.42-1.86l9.9-20.93c1.03-2.17,3.61-3.09,5.78-2.07c2.17,1.03,3.09,3.61,2.07,5.78
			l0,0l-9.9,20.93C1496.94,3594.03,1495.41,3595,1493.73,3595z M1481.77,3594.99c-2.4,0-4.34-1.94-4.34-4.34v-25.58
			c0-2.4,1.94-4.34,4.34-4.34c2.4,0,4.34,1.94,4.34,4.34v25.58C1486.12,3593.05,1484.17,3594.99,1481.77,3594.99z"/>
	</g>
</g>
<g transform="translate(950.0 499.0) rotate(0.0 48.0 89.0) scale(0.6067040800849386 0.607199751662124)">
	<path class="st1" d="M-200.8,3853.97c-9.78-5.93-22.51-2.8-28.44,6.98l-0.01,0.02c5.93-9.8,2.78-22.55-7.02-28.48
		c-9.8-5.93-22.55-2.78-28.48,7.02l-54.58,89.67l14.25-104c1.4-11.36-6.67-21.7-18.03-23.1c-11.1-1.37-21.28,6.32-23,17.37
		c1.73-11.31-6.04-21.88-17.36-23.61c-11.31-1.73-21.88,6.04-23.61,17.36c-0.03,0.17-0.05,0.34-0.07,0.51l-1.92,13.67l-12.91,92.22
		c-4.57,32.61,10.48,64.86,38.41,82.3l-0.15,0.21c10.05,6,21.19,9.96,32.77,11.65v-0.26c32.66,4.1,64.67-11.41,81.7-39.57
		l48.2-79.67l7.15-11.81c5.96-9.76,2.88-22.5-6.87-28.46L-200.8,3853.97L-200.8,3853.97z"/>
	<g>
		<path class="st4" d="M-320.59,4018.99c-3.1,0-6.22-0.16-9.34-0.5c-0.56,0.12-1.14,0.14-1.72,0.06
			c-12.22-1.77-23.96-5.95-34.55-12.28c-0.49-0.29-0.93-0.68-1.29-1.12c-28.65-18.62-44.04-52.28-39.28-86.22l14.91-106.45
			c2.13-13.94,15.19-23.54,29.13-21.42c8.42,1.28,15.25,6.56,18.88,13.61c5.37-5.45,13.13-8.39,21.34-7.38
			c13.99,1.72,23.97,14.5,22.24,28.49l-11.1,81.03l42.49-69.81c7.29-12.06,23.05-15.94,35.12-8.65c7.29,4.41,11.6,11.9,12.25,19.81
			c1.26-0.53,2.56-0.96,3.89-1.29c6.58-1.64,13.54-0.57,19.33,2.96l0.05,0.03l0.02,0.01l0,0c12.03,7.45,15.78,23.13,8.46,35.1
			l-55.34,91.46C-261.19,4003.03-290.01,4018.99-320.59,4018.99z M-330.95,4008.66c0.2,0,0.4,0.01,0.6,0.04
			c30.72,3.85,60.93-10.78,76.96-37.27l55.35-91.48c4.57-7.48,2.21-17.26-5.26-21.82l2.49-4.15l-2.51,4.14
			c-3.59-2.19-7.92-2.85-12-1.84c-4.08,0.99-7.6,3.57-9.77,7.17l-0.02,0.04c-1.37,2.29-4.34,3.04-6.64,1.67
			c-2.3-1.37-3.04-4.34-1.67-6.64c0.01-0.01,0.02-0.03,0.03-0.04c4.54-7.5,2.12-17.3-5.38-21.83c-7.51-4.54-17.3-2.12-21.83,5.38
			l-54.58,89.69c-1.39,2.28-4.37,3-6.66,1.61c-1.64-1-2.53-2.88-2.27-4.78l14.25-104c0.51-4.14-0.64-8.3-3.25-11.65
			s-6.37-5.47-10.57-5.99c-8.52-1.09-16.34,4.82-17.63,13.31c-0.41,2.64-2.88,4.45-5.52,4.05s-4.45-2.88-4.05-5.52
			c1.32-8.66-4.65-16.77-13.3-18.09c-8.65-1.32-16.77,4.64-18.09,13.3l-1.98,14.12l-12.91,92.22c-4.3,30.68,9.9,61.11,36.18,77.52
			c0.41,0.26,0.78,0.57,1.09,0.93c8.71,4.99,18.24,8.39,28.15,10.01C-331.5,4008.68-331.23,4008.66-330.95,4008.66z"/>
		<path class="st4" d="M-270.57,3934.09c-2.67,0-4.84-2.17-4.84-4.84c0-0.88,0.24-1.75,0.7-2.5l42.17-69.7
			c1.44-2.26,4.43-2.92,6.69-1.48c2.18,1.39,2.89,4.25,1.6,6.5l-42.17,69.7C-267.3,3933.2-268.87,3934.09-270.57,3934.09z
			 M-436.51,4263.82c-2.67,0-4.84-2.17-4.84-4.84c0-0.55,0.09-1.1,0.28-1.62l100.92-283.93c0.87-2.53,3.63-3.87,6.15-3
			s3.87,3.63,3,6.15c-0.01,0.03-0.02,0.06-0.03,0.09l-100.92,283.93C-432.64,4262.53-434.46,4263.82-436.51,4263.82z
			 M-357.12,3903.32c-2.67,0-4.84-2.16-4.85-4.83c0-0.23,0.02-0.45,0.05-0.68l11.28-80.67c0.37-2.65,2.82-4.49,5.47-4.12
			c2.65,0.37,4.49,2.82,4.12,5.47l-11.28,80.67C-352.66,3901.53-354.7,3903.31-357.12,3903.32z"/>
		<path class="st4" d="M-347.84,4014.35c-2.68,0-4.84-2.17-4.84-4.85c0-0.55,0.09-1.1,0.28-1.62l28.56-80.33
			c0.9-2.52,3.66-3.84,6.18-2.94c2.52,0.9,3.84,3.66,2.94,6.18l-28.56,80.33C-343.97,4013.06-345.79,4014.35-347.84,4014.35z"/>
	</g>
</g>
<g transform="translate(64.0 671.0) rotate(0.0 583.5 4.5) scale(0.7175356615838662 0.7894736842105263)">
	<path class="st4" d="M1495.25,3067.73H-4.32c-1.41,0-2.49-2.1-2.49-4.84c0-2.74,1.08-4.84,2.49-4.84h1499.56
		c1.41,0,2.49,2.1,2.49,4.84C1497.74,3065.64,1496.66,3067.73,1495.25,3067.73z"/>
</g>
<g transform="translate(64.0 671.0) rotate(0.0 583.5 4.5) scale(0.7175356615838662 0.7894736842105263)">
	<path class="st4" d="M2698.12,3062.89L2698.12,3062.89c0,2.67-2.38,4.84-5.32,4.84H1573.24c-1.76,0-3.09-2.09-3.09-4.84
		c0-2.74,1.34-4.84,3.09-4.84h1119.55C2695.73,3058.05,2698.12,3060.22,2698.12,3062.89z"/>
</g>
<g transform="translate(849.0 542.0) rotate(0.0 36.5 66.5) scale(0.6673980618028891 0.6714458804523424)">
	<path class="st4" d="M1539.19,3793.42c-2.4,0-4.34-1.94-4.34-4.34v-164.48c0-2.4,1.94-4.34,4.34-4.34c2.4,0,4.34,1.94,4.34,4.34
		v164.48C1543.53,3791.48,1541.59,3793.42,1539.19,3793.42L1539.19,3793.42z"/>
	<path class="st2" d="M1602.52,3506.69c-8.75,0-15.84,7.09-15.84,15.84c0-8.75-7.09-15.84-15.84-15.84
		c-8.74,0-15.82,7.08-15.82,15.82v0.01c0-8.75-7.09-15.84-15.84-15.84c-8.75,0-15.84,7.09-15.84,15.84
		c0-8.75-7.09-15.84-15.84-15.84s-15.84,7.09-15.84,15.84c0.01-8.74-7.07-15.83-15.81-15.84h-0.01c-8.75,0-15.84,7.09-15.84,15.84
		v66.25c0,43.72,35.44,79.17,79.17,79.17c43.72-0.01,79.16-35.45,79.17-79.17v-66.25
		C1618.36,3513.78,1611.27,3506.69,1602.52,3506.69z"/>
	<g>
		<path class="st4" d="M1586.69,3587.84c-2.4,0-4.34-1.94-4.34-4.34v-62.23c0-2.4,1.94-4.34,4.34-4.34s4.34,1.94,4.34,4.34v62.23
			C1591.03,3585.9,1589.08,3587.84,1586.69,3587.84z M1555.01,3587.84c-2.4,0-4.34-1.94-4.34-4.34v-62.23c0-2.4,1.94-4.34,4.34-4.34
			c2.4,0,4.34,1.94,4.34,4.34v62.23C1559.36,3585.9,1557.41,3587.84,1555.01,3587.84z M1523.36,3587.84c-2.4,0-4.34-1.94-4.34-4.34
			v-62.23c0-2.4,1.94-4.34,4.34-4.34c2.4,0,4.34,1.94,4.34,4.34v62.23C1527.7,3585.9,1525.75,3587.84,1523.36,3587.84z
			 M1491.68,3587.84c-2.4,0-4.34-1.94-4.34-4.34v-62.23c0-2.4,1.94-4.34,4.34-4.34s4.34,1.94,4.34,4.34v62.23
			C1496.03,3585.9,1494.08,3587.84,1491.68,3587.84z"/>
	</g>
</g>
<g transform="translate(849.0 542.0) rotate(0.0 36.5 66.5) scale(0.6673980618028891 0.6714458804523424)">
	<path class="st4" d="M1315.63,3793.42c-3.46,0-6.26-2.8-6.26-6.26v-237.11c0-3.46,2.8-6.26,6.26-6.26c3.46,0,6.26,2.8,6.26,6.26
		v237.11C1321.89,3790.62,1319.09,3793.42,1315.63,3793.42L1315.63,3793.42z"/>
	<path class="st2" d="M1406.92,3380.09c-12.61,0-22.83,10.22-22.83,22.83c0-12.61-10.22-22.83-22.83-22.83
		c-12.6,0-22.81,10.21-22.81,22.81v0.02c0-12.61-10.22-22.83-22.83-22.83c-12.61,0-22.83,10.22-22.83,22.83
		c0-12.61-10.22-22.83-22.83-22.83s-22.83,10.22-22.83,22.83c0.01-12.6-10.19-22.82-22.79-22.83h-0.02
		c-12.61,0-22.83,10.22-22.83,22.83v95.51c0,63.03,51.09,114.12,114.12,114.12c63.02-0.01,114.11-51.1,114.12-114.12v-95.51
		C1429.75,3390.31,1419.53,3380.09,1406.92,3380.09z"/>
	<g>
		<path class="st4" d="M1384.1,3497.07c-3.46,0-6.26-2.8-6.26-6.26v-89.71c0-3.46,2.8-6.26,6.26-6.26c3.46,0,6.26,2.8,6.26,6.26
			v89.71C1390.36,3494.26,1387.55,3497.07,1384.1,3497.07z M1338.44,3497.07c-3.46,0-6.26-2.8-6.26-6.26v-89.71
			c0-3.46,2.8-6.26,6.26-6.26c3.46,0,6.26,2.8,6.26,6.26v89.71C1344.7,3494.26,1341.9,3497.07,1338.44,3497.07z M1292.8,3497.07
			c-3.46,0-6.26-2.8-6.26-6.26v-89.71c0-3.46,2.8-6.26,6.26-6.26c3.46,0,6.26,2.8,6.26,6.26v89.71
			C1299.06,3494.26,1296.26,3497.07,1292.8,3497.07z M1247.15,3497.07c-3.46,0-6.26-2.8-6.26-6.26v-89.71c0-3.46,2.8-6.26,6.26-6.26
			s6.26,2.8,6.26,6.26v89.71C1253.41,3494.26,1250.6,3497.07,1247.15,3497.07z"/>
	</g>
</g>
<g transform="translate(828.0 659.0) rotate(0.0 12.0 8.0) scale(0.6629834254143646 0.6759611322348964)">
	<g>
		<path class="st4" d="M1195.63,3595c-2.42,0-4.63-1.39-5.66-3.58l-14.27-30.17c-1.48-3.13-0.14-6.86,2.98-8.34
			c3.13-1.48,6.86-0.14,8.34,2.98l14.27,30.17c1.48,3.12,0.15,6.86-2.98,8.34C1197.47,3594.79,1196.55,3595,1195.63,3595z
			 M1230.09,3595c-3.46,0-6.26-2.81-6.26-6.26c0-0.93,0.21-1.84,0.6-2.68l14.27-30.17c1.48-3.13,5.21-4.46,8.34-2.98
			c3.13,1.48,4.46,5.21,2.98,8.34l0,0l-14.27,30.17C1234.72,3593.6,1232.51,3595,1230.09,3595z M1212.86,3594.99
			c-3.46,0-6.26-2.8-6.26-6.26v-36.87c0-3.46,2.8-6.26,6.26-6.26s6.26,2.8,6.26,6.26v36.87
			C1219.12,3592.19,1216.32,3594.99,1212.86,3594.99z"/>
	</g>
</g>
</svg>
