<?xml version="1.0" encoding="utf-8"?>
<!-- Generator: Adobe Illustrator 26.1.0, SVG Export Plug-In . SVG Version: 6.00 Build 0)  -->
<svg version="1.1" id="Layer_1" xmlns="http://www.w3.org/2000/svg" xmlns:xlink="http://www.w3.org/1999/xlink" x="0px" y="0px"
	 viewBox="0 0 2000 3200" style="enable-background:new 0 0 2000 3200;" xml:space="preserve">
<style type="text/css">
	.st0{fill:#70D9D9;}
	.st1{fill:#FFFFFF;}
	.st2{fill:#FF7F36;}
	.st3{fill:#007575;}
	.st4{fill:#222433;}
	.st5{fill:#FF7F36;stroke:#FF7F36;stroke-miterlimit:10;}
	.st6{fill:#15C2C1;}
	.st7{fill:#FDA979;}
	.st8{fill:#C35515;}
	.st9{fill:none;stroke:#5A38FD;stroke-width:111.9047;stroke-miterlimit:10;}
	.st10{fill:none;stroke:#FF7F36;stroke-width:111.9047;stroke-miterlimit:10;}
	.st11{fill:none;stroke:#FFFFFF;stroke-width:9.2351;stroke-miterlimit:10;stroke-dasharray:23.0877,36.9403;}
	.st12{fill:none;stroke:#313341;stroke-width:3.8308;stroke-miterlimit:10;}
	.st13{fill:none;}
	.st14{opacity:0.75;fill:#70D9D9;}
	.st15{fill:#5A38FD;}
	.st16{fill:none;stroke:#222433;stroke-width:8.5039;stroke-miterlimit:10;stroke-dasharray:14.1732,14.1732;}
	.st17{fill:#7057FD;}
	.st18{fill:none;stroke:#222433;stroke-width:5.4074;stroke-miterlimit:10;}
	.st19{fill:#222433;stroke:#222433;stroke-width:5.4303;stroke-miterlimit:10;}
	.st20{fill:#2B292D;}
	.st21{fill:none;stroke:#C35515;stroke-width:9.9101;stroke-miterlimit:10;}
	.st22{fill:none;stroke:#C35515;stroke-width:5.6693;stroke-miterlimit:10;}
	.st23{fill:#C35515;stroke:#000000;stroke-miterlimit:10;}
	.st24{fill:#C35515;stroke:#000000;stroke-width:0.6042;stroke-miterlimit:10;}
	.st25{fill:#15C2C1;stroke:#222433;stroke-width:6.1644;stroke-miterlimit:10;}
	.st26{fill:#FFFFFF;stroke:#000000;stroke-width:6.1644;stroke-miterlimit:10;}
	.st27{fill:none;stroke:#007575;stroke-width:6.1644;stroke-miterlimit:10;}
	.st28{fill:none;stroke:#FFFFFF;stroke-width:14.1732;stroke-miterlimit:10;stroke-dasharray:23.0877,36.9403;}
	.st29{fill-rule:evenodd;clip-rule:evenodd;fill:#FDA979;}
	.st30{fill-rule:evenodd;clip-rule:evenodd;fill:#FFFFFF;}
	.st31{fill-rule:evenodd;clip-rule:evenodd;fill:#007575;}
	.st32{fill:#606060;}
	.st33{clip-path:url(#SVGID_00000081636498346630269050000003356508475384023459_);}
	.st34{fill:#222433;stroke:#222433;stroke-width:1.0471;stroke-miterlimit:10;}
	.st35{fill:#222433;stroke:#222433;stroke-width:2.2688;stroke-miterlimit:10;}
	.st36{fill:#82B1FF;}
	.st37{fill:#15C2C1;stroke:#70D9D9;stroke-width:15.652;stroke-miterlimit:10;}
	.st38{stroke:#222433;stroke-width:0.8333;stroke-miterlimit:10;}
	.st39{clip-path:url(#SVGID_00000157304680876045826540000011210225718385914804_);}
	.st40{clip-path:url(#SVGID_00000157304680876045826540000011210225718385914804_);fill:#FF7F36;}
	.st41{clip-path:url(#SVGID_00000157304680876045826540000011210225718385914804_);fill:#C35515;}
	.st42{fill:#222433;stroke:#222433;stroke-width:0.791;stroke-miterlimit:10;}
	.st43{fill-rule:evenodd;clip-rule:evenodd;fill:#FF7F36;}
	.st44{fill-rule:evenodd;clip-rule:evenodd;fill:#15C2C1;}
	.st45{fill:none;stroke:#FF7F36;stroke-width:11.3386;stroke-miterlimit:10;}
	.st46{fill:none;stroke:#FF7F36;stroke-width:9.6934;stroke-miterlimit:10;}
	.st47{opacity:0.44;fill:#FDA979;}
	.st48{fill:none;stroke:#70D9D9;stroke-width:8.5039;stroke-miterlimit:10;stroke-dasharray:11.5087,11.5098;}
	.st49{opacity:0.75;fill:#007575;}
	.st50{clip-path:url(#SVGID_00000174600947149087554750000018229878218495611278_);}
	.st51{fill:none;stroke:#FF7F36;stroke-miterlimit:10;}
	.st52{clip-path:url(#SVGID_00000133524092122145194190000006206451667479127723_);}
	.st53{stroke:#70D9D9;stroke-width:8.5039;stroke-miterlimit:10;}
	.st54{fill:#FDA979;stroke:#222433;stroke-width:17.0079;stroke-miterlimit:10;}
	.st55{clip-path:url(#SVGID_00000129926910780486858460000012823655523813264001_);}
	.st56{fill:none;stroke:#222433;stroke-width:16.1222;stroke-linecap:round;stroke-miterlimit:10;}
	.st57{clip-path:url(#SVGID_00000020391054508730012780000004765562246163815592_);fill:#15C2C1;}
	.st58{clip-path:url(#SVGID_00000020391054508730012780000004765562246163815592_);fill:#C35515;}
	
		.st59{clip-path:url(#SVGID_00000020391054508730012780000004765562246163815592_);fill:#15C2C1;stroke:#000000;stroke-width:8.2755;stroke-miterlimit:10;}
	.st60{clip-path:url(#SVGID_00000020391054508730012780000004765562246163815592_);fill:#FF7F36;}
	
		.st61{clip-path:url(#SVGID_00000020391054508730012780000004765562246163815592_);fill:#15C2C1;stroke:#000000;stroke-width:8.5039;stroke-miterlimit:10;}
	
		.st62{clip-path:url(#SVGID_00000020391054508730012780000004765562246163815592_);fill:none;stroke:#000000;stroke-width:8.5039;stroke-miterlimit:10;}
	
		.st63{clip-path:url(#SVGID_00000020391054508730012780000004765562246163815592_);fill:#FFFFFF;stroke:#000000;stroke-width:8.5039;stroke-miterlimit:10;}
	.st64{clip-path:url(#SVGID_00000020391054508730012780000004765562246163815592_);}
	.st65{fill:none;stroke:#000000;stroke-width:8.2815;stroke-linecap:round;stroke-miterlimit:10;}
	
		.st66{clip-path:url(#SVGID_00000020391054508730012780000004765562246163815592_);fill:#FFFFFF;stroke:#000000;stroke-width:8.7446;stroke-miterlimit:10;}
	.st67{clip-path:url(#SVGID_00000020391054508730012780000004765562246163815592_);fill:none;}
	.st68{clip-path:url(#SVGID_00000037669905179289151220000013918201021899379623_);fill:#FF7F36;}
	.st69{clip-path:url(#SVGID_00000037669905179289151220000013918201021899379623_);}
	
		.st70{clip-path:url(#SVGID_00000037669905179289151220000013918201021899379623_);fill:none;stroke:#5A38FD;stroke-width:111.9047;stroke-miterlimit:10;}
	.st71{clip-path:url(#SVGID_00000176044117699991351540000010716165285393231520_);}
	
		.st72{opacity:0.57;clip-path:url(#SVGID_00000176044117699991351540000010716165285393231520_);fill:none;stroke:#FFFFFF;stroke-width:32.7065;stroke-linecap:round;stroke-miterlimit:10;}
	.st73{fill:#222433;stroke:#000000;stroke-width:7.0866;stroke-miterlimit:10;}
	
		.st74{clip-path:url(#SVGID_00000176044117699991351540000010716165285393231520_);fill:#222433;stroke:#222433;stroke-width:163.17;stroke-miterlimit:10;}
	.st75{fill:none;stroke:#000000;stroke-width:7.0866;stroke-miterlimit:10;}
	
		.st76{clip-path:url(#SVGID_00000176044117699991351540000010716165285393231520_);fill:#70D9D9;stroke:#000000;stroke-width:2.8346;stroke-linecap:round;stroke-miterlimit:10;}
	.st77{clip-path:url(#SVGID_00000076599902225293361210000012146693505420193694_);fill:#FFFFFF;}
	.st78{clip-path:url(#SVGID_00000076599902225293361210000012146693505420193694_);fill:#222433;}
	.st79{clip-path:url(#SVGID_00000076599902225293361210000012146693505420193694_);fill:#15C2C1;}
	.st80{clip-path:url(#SVGID_00000076599902225293361210000012146693505420193694_);fill:#FDA979;}
	.st81{clip-path:url(#SVGID_00000076599902225293361210000012146693505420193694_);}
	.st82{clip-path:url(#SVGID_00000076599902225293361210000012146693505420193694_);fill:#FF7F36;}
	.st83{clip-path:url(#SVGID_00000076599902225293361210000012146693505420193694_);fill:#C35515;}
	.st84{clip-path:url(#SVGID_00000123417707280230843550000007292784521218681739_);}
</style>
<g transform="translate(337.0 453.0) rotate(33.28778772819507 5.5 8.0) scale(0.9046052631578947 0.8951549737048227)">
	<path class="st2" d="M1918.49,309.77l0.49-33.52l22.54,0.33l-0.5,33.53L1918.49,309.77z"/>
</g>
<g transform="translate(337.0 453.0) rotate(33.28778772819507 5.5 8.0) scale(0.9046052631578947 0.8951549737048227)">
	<path class="st2" d="M1566.24-747.57l0.49-33.52l22.54,0.33l-0.5,33.53L1566.24-747.57z"/>
</g>
<g transform="translate(395.0 326.0) rotate(329.5283540110243 7.5 11.0) translate(7.0 0.0) scale(1.2335526315789473 1.2308380888441313)">
	<path class="st6" d="M231.49,1835.76l0.49-33.52l22.54,0.33l-0.5,33.53L231.49,1835.76z"/>
</g>
<g transform="translate(395.0 326.0) rotate(329.5283540110243 7.5 11.0) translate(7.0 0.0) scale(1.2335526315789473 1.2308380888441313)">
	<path class="st6" d="M152.04,1335.33l0.49-33.52l22.54,0.33l-0.5,33.53L152.04,1335.33z"/>
</g>
<g transform="translate(395.0 326.0) rotate(329.5283540110243 7.5 11.0) translate(7.0 0.0) scale(1.2335526315789473 1.2308380888441313)">
	<path class="st6" d="M-460.23,443.41l1.09-73.91l49.7,0.73l-1.09,73.91L-460.23,443.41z"/>
</g>
<g transform="translate(289.0 100.0) rotate(39.280023861043425 4.5 6.5) scale(0.7401315789473684 0.7273134161351684)">
	<path class="st6" d="M1958.62,1919.13l0.49-33.52l22.54,0.33l-0.5,33.53L1958.62,1919.13z"/>
</g>
<g transform="translate(289.0 100.0) rotate(39.280023861043425 4.5 6.5) scale(0.7401315789473684 0.7273134161351684)">
	<path class="st6" d="M2554.15-225.19l0.49-33.52l22.54,0.33l-0.5,33.53L2554.15-225.19z"/>
</g>
<g transform="translate(625.0 67.0) rotate(41.37376169899359 3.5 5.0) scale(0.5756578947368421 0.5594718585655142)">
	<path class="st6" d="M2960.56,1995.37l0.49-33.52l22.54,0.33l-0.5,33.53L2960.56,1995.37z"/>
</g>
<g transform="translate(625.0 67.0) rotate(41.37376169899359 3.5 5.0) scale(0.5756578947368421 0.5594718585655142)">
	<path class="st6" d="M1374.66-848.89l0.49-33.52l22.54,0.33l-0.5,33.53L1374.66-848.89z"/>
</g>
<g transform="translate(444.0 60.0) rotate(304.2014776629043 4.0 6.0) scale(0.6578947368421053 0.6713662302786171)">
	<path class="st2" d="M-2122.66,2140.54l0.49-33.52l22.54,0.33l-0.5,33.52L-2122.66,2140.54z"/>
</g>
<g transform="translate(444.0 60.0) rotate(304.2014776629043 4.0 6.0) scale(0.6578947368421053 0.6713662302786171)">
	<path class="st2" d="M-2047.31,1042.08l0.49-33.52l22.54,0.33l-0.5,33.53L-2047.31,1042.08z"/>
</g>
<g transform="translate(444.0 60.0) rotate(304.2014776629043 4.0 6.0) scale(0.6578947368421053 0.6713662302786171)">
	<path class="st2" d="M838.99,1179.19l0.49-33.52l22.54,0.33l-0.5,33.53L838.99,1179.19z"/>
</g>
<g transform="translate(320.0 268.0) rotate(53.086509853920475 4.5 7.0) scale(0.7401315789473684 0.7832606019917199)">
	<path class="st15" d="M2680.19,1185.74l0.49-33.52l22.54,0.33l-0.5,33.53L2680.19,1185.74z"/>
</g>
<g transform="translate(634.0 367.0) rotate(296.92497654006496 3.5 5.0) scale(0.5756578947368421 0.5594718585655142)">
	<path class="st2" d="M-2858.93,3014.48l0.49-33.52l22.54,0.33l-0.5,33.52L-2858.93,3014.48z"/>
</g>
<g transform="translate(636.0 284.0) rotate(297.74374479500517 3.5 5.5) scale(0.5756578947368421 0.6154190444220656)">
	<path class="st6" d="M-2702.27,2727.39l0.49-33.52l22.54,0.33l-0.5,33.52L-2702.27,2727.39z"/>
</g>
<g transform="translate(266.0 418.0) rotate(69.21744358443411 4.0 6.5) scale(0.6578947368421053 0.7273134161351684)">
	<path class="st6" d="M3444.4,594.34l0.49-33.52l22.54,0.33l-0.5,33.53L3444.4,594.34z"/>
</g>
<g transform="translate(441.0 558.0) rotate(29.23650736557496 4.5 6.5) scale(0.7401315789473684 0.7273134161351684)">
	<path class="st6" d="M2044.95,2629.64l0.49-33.52l22.54,0.33l-0.5,33.52L2044.95,2629.64z"/>
</g>
<g transform="translate(809.0 234.0) rotate(0.0 41.5 44.5) translate(0.0 0.0) scale(0.6036714863410235 0.6021650879566982)">
	<path class="st1" d="M-61.13,3401.97l82.44,93.05l100.84-80.25L-61.13,3401.97z"/>
	<g>
		<path class="st4" d="M122.61,3408.31l-44.99-3.14l-14.3-1l-124.01-8.67c-1.72-0.12-3.43,0.47-4.74,1.61
			c-2.67,2.38-2.92,6.46-0.55,9.13l80.64,91.02l1.79,2.03c1.23,1.4,3,2.19,4.85,2.19c1.46,0,2.88-0.5,4.02-1.41l2.22-1.76
			l98.63-78.5c1.41-1.13,2.29-2.79,2.42-4.6C128.85,3411.65,126.17,3408.56,122.61,3408.31z M39.73,3472.08h-0.02l-17.64,14.05
			l-3.16-3.57l-64.7-73.04l102.04,7.12l14.31,1l34.54,2.41L39.73,3472.08z"/>
		<path class="st4" d="M22.4,3496c-3.57,0-6.47-2.9-6.46-6.47c0-1.12,0.29-2.21,0.84-3.19l87.12-153.8c1.12-1.98,3.2-3.22,5.47-3.27
			l112.88-2.8c3.57-0.09,6.54,2.74,6.63,6.31c0.09,3.57-2.74,6.54-6.31,6.63l-109.21,2.7l-85.31,150.61
			C26.89,3494.74,24.74,3496,22.4,3496z"/>
		<path class="st4" d="M11.36,3645.17c-0.15,0-0.3,0-0.45-0.02c-3.56-0.25-6.25-3.34-6.01-6.9c0,0,0,0,0,0l9.95-143.68
			c0.25-3.56,3.34-6.25,6.9-6.01c3.56,0.25,6.25,3.34,6.01,6.9l-9.95,143.68C17.57,3642.53,14.76,3645.16,11.36,3645.17z"/>
	</g>
</g>
<g>
	<path class="st2" d="M158.16,3200H0v-808.89c24.32,8.25,46.85,20.41,66.83,35.72c11.8,9.04,22.71,19.19,32.58,30.27
		c1,1.12,1.98,2.25,2.95,3.38c0.2,0.23,0.4,0.47,0.6,0.7c0.86,1.02,1.72,2.05,2.56,3.08c28.52,34.75,47.15,77.86,51.6,125.02
		c0.19,1.95,0.35,3.91,0.49,5.88v0.01c0.12,1.77,0.22,3.55,0.3,5.33c0.17,3.56,0.25,7.15,0.25,10.76"/>
</g>
<g transform="translate(290.0 72.0) rotate(0.0 219.5 289.0) scale(0.9833634614393842 0.9796610169491525)">
	<g transform="matrix(.62018661 0 0 .6202587 338 87)">
		<ellipse class="st1" cx="-272.67" cy="3433.43" rx="28.15" ry="28.05"/>
		<path class="st4" d="M-268.99,3381.97c-1.21-0.08-2.44-0.13-3.69-0.13c-0.59,0-1.16,0.02-1.74,0.03
			c-1.84,0.05-3.66,0.21-5.44,0.46c-13.23,1.84-24.87,8.72-32.91,18.63c-3.26,4.03-5.95,8.56-7.9,13.46v0.02
			c-2.31,5.87-3.59,12.29-3.59,18.99c0,0.9,0.02,1.81,0.07,2.72c0.2,3.74,0.79,7.37,1.74,10.86c2.59,9.48,7.79,17.86,14.81,24.32
			c2.66,2.47,5.59,4.64,8.72,6.5c0.3,0.18,0.61,0.35,0.9,0.53c1.66,0.94,3.36,1.78,5.12,2.53c6.21,2.65,13.05,4.11,20.23,4.11
			c3.62,0,7.15-0.38,10.56-1.09c1.85-0.39,3.66-0.87,5.43-1.46c1.85-0.59,3.66-1.3,5.41-2.11c17.79-8.13,30.19-26.07,30.2-46.92
			C-221.08,3406.17-242.22,3383.87-268.99,3381.97z M-272.68,3474.15c-17.73,0-32.81-11.34-38.39-27.15
			c-1.51-4.25-2.33-8.8-2.33-13.56c0-6.44,1.49-12.51,4.15-17.92c1.9-3.9,4.43-7.44,7.43-10.52c3.67-3.77,8.05-6.83,12.95-8.94
			c2.74-1.2,5.64-2.11,8.67-2.65c1.8-0.35,3.66-0.58,5.53-0.66c0.66-0.03,1.33-0.05,1.98-0.05c1.16,0,2.31,0.05,3.44,0.15
			c20.89,1.76,37.27,19.25,37.29,40.58c0,15.04-8.15,28.17-20.28,35.2c-1.66,0.97-3.38,1.83-5.16,2.53
			c-1.69,0.71-3.44,1.28-5.25,1.73C-265.86,3473.72-269.22,3474.15-272.68,3474.15z"/>
		<path class="st2" d="M68.91,3868.96c-17.63,26.92-35.44,116.93-134.92,77.01c-65.95-48.54-21.01-107.61,9.08-143.65
			c-14.09,4.5-27,12.11-37.78,22.25l-58.23,52.95l-66.35-108.31l-0.12,0.04l-58.42-95.16c-17.03-27.79-46.6-45.46-79.14-47.3
			c-5.45,10.46-31.37,59.82-82.86,36.44c-48.91-22.23-38.29-60.49-32.98-77.36c-3.55,0.33-7.1,0.76-10.63,1.34
			c-2.82,0.43-5.63,0.98-8.42,1.63c-1.07,0.22-2.13,0.49-3.18,0.74l-281.71-150.55c-49-34.57-116.74-22.87-151.3,26.13
			c-17.19,24.37-23.6,54.74-17.73,83.98l45.05,236.24c4.31,22.74,15.79,43.51,32.76,59.24c6.09,2.42,20.57,9.66,27.69-5.47
			c-12.63-26.45-26.14-87.08,26.79-112.06c72.04-33.99,113.44,39.86,123.57,68.82c4.95-16.62,5.83-34.19,2.55-51.23l-2.48-12.92
			l58.99,31.51c-13.7,18.3-28.11,62.2-29.2,89.65l22.63,64.7c1.77,1.41,151.8-21.18,153.86-19.91l79.64-7.24l43.44-10.86
			l100.69,204.54c28.9,46.88,90.33,61.45,137.21,32.55c5.21-3.21,10.12-6.9,14.66-11.01l147.16-133.86
			c0.76-0.69,1.52-1.38,2.28-2.08C68.97,3944.03,79.56,3905.03,68.91,3868.96L68.91,3868.96z"/>
		<path class="st4" d="M-202.12,4810.3c13.33,31.6,41.47,56.35,76.56,68.06c22.12,7.38,64.6,26.84,86.09,35.88
			c9.61,4.04,26.26,10.4,36.56,20.06c6.3,5.89,11.63,12.74,15.8,20.29c8.05,14.55,11.64,31.14,10.32,47.71h-450.28l0.11-191.76
			L-202.12,4810.3z"/>
		<path class="st2" d="M23.21,5007.74h-450.28c-3,0-5.43-2.43-5.43-5.43l0.11-191.76c0-3,2.43-5.43,5.43-5.43
			c3,0,5.43,2.43,5.43,5.43l-0.11,186.33H18.03c0.24-13.86-3.18-27.54-9.9-39.66c-3.89-7.05-8.88-13.45-14.76-18.95
			c-8.63-8.1-22.76-13.95-32.1-17.83l-2.86-1.19c-6.11-2.57-14.02-6.02-22.39-9.68c-21.24-9.28-47.68-20.83-63.31-26.05
			c-36.88-12.31-65.98-38.23-79.84-71.1c-1.14-2.77,0.18-5.95,2.96-7.09c2.74-1.12,5.87,0.15,7.05,2.87
			c12.65,30,39.36,53.69,73.27,65.02c16.1,5.37,42.78,17.03,64.22,26.4c8.34,3.64,16.21,7.08,22.26,9.62l2.81,1.17
			c10.07,4.18,25.29,10.49,35.37,19.93c6.71,6.28,12.39,13.58,16.83,21.63c8.58,15.47,12.4,33.14,10.98,50.77
			C28.4,5005.56,26.04,5007.74,23.21,5007.74L23.21,5007.74z"/>
		<path class="st4" d="M-678.06,5002.35h-157.48l-184.97-197.83v-30.03l75.77-70.8l37.12-34.71l4,3.67l81.76,74.9l0.18,0.18
			l75.69,69.32l3.98,3.65c-0.48,0.84-0.92,1.66-1.36,2.5c-27.97,52.93,2.74,91.09,2.74,91.09c31.74,8.03,55.83,33.95,61.54,66.19
			C-677.82,4987.7-677.47,4995.04-678.06,5002.35z"/>
		<path class="st2" d="M-903.9,4672.94l-116.62,108.98v-14.88l109.19-102.03c0.72-0.67,1.59-1.12,2.49-1.32
			c1.82-0.43,3.8,0.11,5.18,1.58c1.23,1.32,1.69,3.08,1.36,4.72v0.02c-0.18,0.97-0.62,1.86-1.33,2.63
			C-903.7,4672.75-903.8,4672.85-903.9,4672.94z"/>
		<path class="st2" d="M-672.65,5002.78c-0.23,2.81-2.57,4.99-5.41,4.99h-157.48c-1.51,0-2.95-0.62-3.97-1.71l-181.01-193.58v-15.9
			l187.34,200.35h149.95c0.1-5.2-0.31-10.38-1.21-15.5c-5.38-30.12-27.87-54.32-57.54-61.88c-1.13-0.28-2.15-0.94-2.89-1.84
			c-0.34-0.43-2.54-3.23-5.2-8.06c-1.79-3.24-3.79-7.42-5.56-12.41c-5.02-14.09-8.26-34.66,0-59.28c1.46-4.39,3.3-8.9,5.56-13.54
			c0.82-1.68,1.71-3.39,2.64-5.1c0.21-0.41,0.44-0.82,0.67-1.23c0.21-0.38,0.46-0.72,0.75-1.02c1.64-1.81,4.39-2.32,6.64-1.07
			c2.61,1.46,3.54,4.77,2.08,7.39c-0.7,1.27-1.38,2.53-2.02,3.79c-22.2,43.43-2.97,75.41,1.89,82.37
			c32.91,9.17,57.67,36.39,63.65,70.01C-672.39,4987.19-672.03,4995.01-672.65,5002.78z"/>
		<path class="st3" d="M-435.82,4524.52v285.78h289.62v-433.52c-0.01-20.38-4.32-40.52-12.65-59.12l-51.43-114.88l-89.58-199.98
			l-55.17-130.42l-43.44,14.48c-1.2,0.34-6,1.66-7.24,1.81l-233.5,27.15l-38.01,90.51l71.46,277.22l-335.99,348.41l208.54,201.02
			l390.82-405.3c34.23-35.49,48.05-85.97,36.67-133.95l-56.55-240.35L-435.82,4524.52z"/>
		<path class="st4" d="M-727.79,4838.42c-3,0-5.43-2.43-5.43-5.43c0-1.41,0.55-2.76,1.52-3.77l390.82-405.3
			c33.05-34.11,46.36-82.74,35.3-128.92l-56.55-240.36c-0.69-2.92,1.12-5.84,4.04-6.53c2.92-0.69,5.84,1.12,6.53,4.04l56.55,240.35
			c11.92,49.78-2.43,102.2-38.05,138.96l-390.82,405.3C-724.9,4837.82-726.31,4838.42-727.79,4838.42z"/>
		<path class="st1" d="M-708.26,3760.96c4.86,8,8.93,16.55,13.12,24.88c15.6,30.98,33.49,61,45.43,93.69
			c12.33,33.75,19.57,71.29,22.9,106.99c1.1,11.42,1.52,22.9,1.25,34.37c-0.23,9.16-1.04,18.61-5.35,26.69
			c-2.91,5.47-8.05,10.41-14.25,10.5c-5.29,0.07-10.1-3.49-12.96-7.94c-2.61-4.62-4.42-9.64-5.36-14.86l-20.66-86.74
			c2.77,31.5,5.51,63.51-0.68,94.52c-1.99,9.96-7.44,21.8-17.59,21.78c-9.36-0.01-14.98-10.23-17.88-19.13
			c-10.43-31.92-12.7-65.84-14.9-99.34c-7.53,21.1-15.13,42.34-26.46,61.67c-5.02,8.57-13.53,17.83-23.09,15.14
			c-8.44-2.38-11.64-12.63-12.1-21.38c-1.81-34.02,16.78-69.24,4.47-101c-8.13-20.97-27.86-34.82-41.45-52.73
			c-12.89-17-20.27-38.44-18.95-59.73c1.32-21.3,11.79-42.18,29.03-54.74c16.87-12.3,39.17-16,59.69-12.15
			c15.34,2.9,29.54,10.08,40.98,20.71C-717.29,3747.71-712.31,3754.04-708.26,3760.96L-708.26,3760.96z"/>
		<path class="st4" d="M-621.4,3986.01c-2.23-23.88-6.05-47.05-11.28-68.63c-0.18-0.76-0.38-1.5-0.56-2.25
			c-3.28-13.17-7.08-25.74-11.36-37.47c-4.25-11.63-9.26-22.96-14.63-34.08v-0.03c-5.72-11.83-11.84-23.37-17.84-34.74
			c-3.59-6.78-7.26-13.74-10.82-20.7c-0.8-1.56-1.61-3.14-2.39-4.71c-0.77-1.51-1.52-3.04-2.3-4.58
			c-3.43-6.86-6.95-13.96-11.04-20.69c-4.31-7.34-9.61-14.04-15.72-19.95c-12.2-11.34-27.35-18.99-43.7-22.09
			c-23.2-4.36-46.5,0.43-63.9,13.1c-12.94,9.43-22.6,23.35-27.56,39.17c-0.66,2.01-1.21,4.06-1.69,6.14c-0.56,2.34-1,4.71-1.33,7.09
			c-0.31,2.11-0.53,4.25-0.66,6.39c-1.18,18.86,4.2,38.77,14.89,55.87c1.59,2.57,3.31,5.07,5.15,7.49
			c5.08,6.43,10.53,12.59,16.3,18.42c10.05,10.52,19.55,20.44,24.42,33c6.84,17.63,3.31,36.73-0.41,56.97
			c-2.54,13.81-5.18,28.11-4.43,42.34c0.74,13.86,6.74,23.7,16.05,26.33c8.49,2.39,17.2-1.51,24.61-10.81
			c1.62-2.02,3.16-4.3,4.64-6.81c0.16-0.3,0.35-0.61,0.51-0.9c1.69-2.98,3.33-5.99,4.89-9.05c4.82-9.33,9.08-18.96,12.76-28.82
			c2.07,25.31,5.35,50.85,13.36,75.39c4.82,14.75,12.99,22.86,23.04,22.88h0.02c11.07,0,19.63-9.78,22.89-26.15
			c2.05-10.66,3.28-21.46,3.67-32.29v-0.03c0.05-1.48,0.1-2.93,0.11-4.41l6.94,29.13c1.08,5.83,3.13,11.42,6.08,16.54
			c3.67,6.19,10.2,10.1,17.38,10.45h0.23c7.48-0.11,14.56-5.12,18.97-13.38c4.82-9.08,5.72-19.37,5.97-29.11
			C-619.86,4009.33-620.28,3997.65-621.4,3986.01z M-630.99,4020.75c-0.21,8.41-0.94,17.18-4.71,24.27
			c-1.85,3.49-5.46,7.57-9.54,7.62h-0.08c-3.46-0.38-6.53-2.4-8.23-5.45c-2.25-4.11-3.82-8.57-4.64-13.18l-11.1-46.59l-9.56-40.14
			c-0.62-2.63-3.08-4.39-5.76-4.16c-3,0.26-5.2,2.9-4.94,5.89c2.69,30.73,5.48,62.5-0.61,92.98c-1.59,8.03-5.77,17.41-12.23,17.41
			c-6.95-0.02-11.22-10.76-12.74-15.39c-10.26-31.45-12.49-65.28-14.63-98c-0.2-2.86-2.57-5.08-5.43-5.08
			c-2.31,0-4.36,1.45-5.13,3.62c-4.23,11.87-8.54,23.98-13.58,35.73c-1.39,3.24-2.84,6.47-4.36,9.64c-1.48,3.11-3.02,6.19-4.64,9.2
			c-1.1,2.09-2.25,4.15-3.44,6.17c-4.23,7.22-10.9,14.37-16.94,12.66c-5.44-1.53-7.79-9.5-8.15-16.44
			c-0.69-12.97,1.82-26.61,4.26-39.83c3.84-20.82,7.79-42.36-0.15-62.85c-5.66-14.58-16.35-25.77-26.69-36.58
			c-5.49-5.53-10.66-11.36-15.5-17.48c-11.51-15.19-17.96-33.69-18-51.4c0-1.58,0.05-3.14,0.15-4.71c0.08-1.23,0.18-2.47,0.33-3.69
			v-0.02c0.26-2.35,0.66-4.66,1.15-6.95c3.51-16.24,12.56-30.74,25.33-40.06c14.76-10.75,35.5-14.94,55.49-11.19
			c14.31,2.72,27.58,9.41,38.25,19.32c5.43,5.23,10.1,11.17,13.89,17.69c3.85,6.32,7.28,13.22,10.59,19.86
			c0.77,1.55,1.54,3.09,2.31,4.62c4.33,8.61,8.9,17.25,13.31,25.61c11.48,21.72,23.37,44.19,31.88,67.51
			c4.76,13.05,8.92,27.17,12.38,42.06v0.02c4.69,20.04,8.15,41.47,10.22,63.54C-631.15,3998.24-630.74,4009.5-630.99,4020.75z"/>
		<path class="st1" d="M-21.4,3956.16c10.01-0.55,19.99-1.62,29.88-3.21c43-6.29,85.98-13.82,127.32-27.2
			c23.26-7.39,45.75-16.99,67.18-28.66c10.76-5.92,21.15-12.5,31.11-19.69c8.66-6.28,18.64-12.52,21.66-23.42
			c1.73-6.26,1.01-13.72-4.56-17.83c-6.3-4.64-15.07-2.82-22.57-0.65c-28.57,8.22-56.53,18.4-83.69,30.47
			c27.54-16.46,55.55-33.3,76.84-57.28c6.33-7.14,12.16-17.78,6.66-25.57c-5.19-7.36-16.35-6.16-24.97-3.54
			c-32.44,9.84-61.56,28.12-90.25,46.19c13.26-17.81,24.65-36.94,33.96-57.1c4-8.66,7.19-20.05,0.41-26.76
			c-6.88-6.8-18.61-3.22-26.67,2.13c-27.65,18.35-44.92,52.7-76.85,61.72c-22.33,6.3-45.95-1.71-69.15-2.07
			c-19.71-0.52-39.06,5.33-55.19,16.68c-15.81,11.51-27.29,29.27-29.85,48.65c-1.73,14.76,1,29.7,7.83,42.9
			c9.86,19.64,27.31,34.4,48.31,40.87C-43.38,3955.67-32.37,3956.82-21.4,3956.16L-21.4,3956.16z"/>
		<g>
			<path class="st4" d="M-601.02,3703.5c-2.92-0.69-5.84,1.14-6.53,4.05c-6.9,29.59-26.56,51.2-26.76,51.41
				c-0.49,0.54-0.87,1.19-1.12,1.86c-0.21,0.58-0.31,1.19-0.31,1.81c-0.02,1.83,0.89,3.44,2.28,4.43c0.89,0.63,1.97,1,3.13,1
				c1.52,0,2.97-0.63,4-1.74c0.44-0.48,5.89-6.43,12.17-16.33c6.28-9.91,13.4-23.73,17.18-39.97
				C-596.28,3707.1-598.1,3704.17-601.02,3703.5z M-565.32,4245.49c-2.16-2.07-5.61-1.99-7.67,0.18l-33.78,34.03l-1.48,1.5
				c-1,1.02-1.57,2.39-1.57,3.82c0,0.79,0.16,1.55,0.48,2.24c0.85,1.89,2.75,3.19,4.95,3.21c1.44,0,2.84-0.59,3.85-1.61l35.25-35.53
				l0.07-0.05c0.03-0.03,0.07-0.08,0.1-0.12C-563.06,4250.99-563.14,4247.55-565.32,4245.49z M-148.97,3873.92l-0.02-0.02
				c-1.75-1.96-4.61-2.37-6.8-1.09c-0.31,0.16-0.59,0.38-0.87,0.62l-25.05,22.97c-1.12,1.02-1.75,2.47-1.75,4
				c0,2.99,2.43,5.43,5.43,5.43c1.36,0,2.67-0.51,3.67-1.43l25.05-22.97C-147.2,3879.44-147.05,3876.11-148.97,3873.92z
				 M-685.64,3736.43l-0.52-2.72l-22.48-117.91c-0.56-2.95-3.41-4.87-6.35-4.31c-2.95,0.56-4.89,3.41-4.33,6.35l23.02,120.61
				c0.48,2.57,2.72,4.41,5.31,4.41c0.34,0,0.69-0.03,1.03-0.08c0.77-0.15,1.48-0.46,2.08-0.87
				C-686.16,3740.72-685.21,3738.6-685.64,3736.43z M254.41,3831.78c-8.05-5.94-18.32-4.1-27.3-1.51
				c-11.07,3.19-22.04,6.66-32.91,10.43c11.49-8.36,22.09-17.89,31.61-28.44c10.41-11.72,13.1-23.75,7.03-32.3
				c-5.62-7.97-16.63-9.96-30.97-5.61c-24.92,7.55-47.73,19.86-69.59,33.13c7.38-11.75,13.99-23.96,19.82-36.55
				c8.44-18.27,4.28-27.96-0.7-32.9c-9.26-9.17-23.84-4.94-33.5,1.46c-11.51,7.64-21.2,17.82-30.56,27.68
				c-13.87,14.56-26.96,28.32-44.76,33.34c-13.45,3.8-27.58,1.96-42.55,0.02c-8.3-1.23-16.66-1.99-25.04-2.27
				c-11.07-0.28-22.04,1.32-32.43,4.69c-9.23,2.98-18.02,7.36-26.04,13.02c-17.35,12.36-28.92,31.25-32.02,52.33
				c-1.85,15.83,1.05,31.88,8.36,46.05c1.77,3.52,3.79,6.9,6.03,10.14c10.99,15.98,27.05,27.8,45.6,33.51
				c11.17,3.08,22.76,4.3,34.32,3.6c10.2-0.56,20.36-1.65,30.45-3.27c15.73-2.3,31.88-4.81,48.21-7.8
				c26.48-4.85,53.45-10.99,80-19.6c23.59-7.5,46.4-17.23,68.15-29.06c10.95-6.04,21.53-12.74,31.66-20.06
				c0.8-0.58,1.61-1.15,2.43-1.74c8.45-6.04,18.02-12.89,21.28-24.62C263.65,3845.8,261.14,3836.73,254.41,3831.78z M230.92,3872.99
				c-9.77,7.08-19.99,13.53-30.55,19.34c-21.12,11.5-43.3,20.97-66.23,28.26c-23.15,7.49-46.71,13.1-70.02,17.61
				c-16.45,3.19-32.73,5.84-48.67,8.23h-0.02c-2.59,0.39-5.16,0.77-7.74,1.15c-9.71,1.56-19.5,2.62-29.32,3.16
				c-10.38,0.64-20.79-0.43-30.83-3.18c-15.36-4.77-28.68-14.3-38.14-27.02c-0.02-0.02-0.02-0.03-0.03-0.05c0,0,0-0.02-0.02-0.02
				c-2.56-3.44-4.85-7.11-6.8-11.01c-6.33-12.23-8.87-26.07-7.3-39.74c2.26-17.2,12.61-34.02,27.65-44.98
				c1.59-1.12,3.21-2.17,4.87-3.18h0.02c14.13-8.56,30.43-12.92,47.03-12.46c7.97,0.3,15.92,1.02,23.81,2.19
				c15.4,2.01,31.3,4.06,46.9-0.33c20.68-5.83,35.42-21.33,49.68-36.32c8.95-9.4,18.22-19.14,28.71-26.1
				c6.53-4.34,15.53-7.06,19.84-2.8c0.29,0.3,0.57,0.63,0.82,0.97c3.49,5.05,0.11,14.35-2.33,19.63
				c-9.17,19.81-20.36,38.62-33.4,56.13c-1.34,1.79-1.43,4.23-0.25,6.12c1.61,2.53,4.95,3.31,7.49,1.71
				c28.01-17.64,56.96-35.89,88.92-45.59c4.44-1.35,15.17-3.9,18.95,1.48l0.03,0.03c3.36,4.84-1.3,13.15-6.31,18.81
				c-20.92,23.57-48.7,40.17-75.57,56.22c-2.33,1.42-3.25,4.33-2.16,6.83c1.21,2.75,4.41,4,7.17,2.8
				c26.94-11.96,54.67-22.05,82.99-30.21c6.46-1.84,13.61-3.32,17.86-0.18c3.61,2.65,3.69,7.95,2.56,12.01
				c-2.23,8.03-9.46,13.21-17.13,18.7C232.56,3871.8,231.74,3872.39,230.92,3872.99z"/>
		</g>
		<path class="st13" d="M-355.03,3879.62l-9.05-117.66"/>
		<path class="st4" d="M-355.04,3885.05c-2.83,0-5.19-2.19-5.41-5.01l-9.05-117.66c-0.26-2.99,1.95-5.62,4.94-5.88
			c2.99-0.26,5.62,1.95,5.88,4.94c0,0.03,0.01,0.07,0.01,0.1l9.05,117.66c0.23,2.99-2.01,5.6-5,5.83
			C-354.76,3885.04-354.9,3885.05-355.04,3885.05z"/>
		<path class="st1" d="M-462.21,3382.14c1.86-51.9,45.44-92.47,97.34-90.62c26.33,0.94,51.06,12.89,68.16,32.93
			c5.22,6.19,9.66,12.99,13.24,20.26l-115.86-8.19l-4.59,96.48L-462.21,3382.14z"/>
		<path class="st4" d="M-278.57,3342.36c-0.02-0.03-0.03-0.07-0.05-0.1c-3.77-7.65-8.46-14.81-13.95-21.34l-0.15-0.16
			c-35.63-41.69-98.33-46.61-140.01-10.98c-20.1,17.15-32.5,41.5-34.61,67.7c-0.13,1.48-0.23,2.96-0.28,4.46
			c-0.02,0.44,0.02,0.87,0.12,1.3c0.23,1.14,0.84,2.2,1.74,2.98l1.89,1.65l55.62,48.53l0.79,0.69c0.98,0.86,2.25,1.33,3.56,1.33
			c2.71,0,4.97-1.98,5.38-4.57c0.03-0.18,0.05-0.36,0.05-0.54v-0.05l4.33-90.94l110.32,7.8c0.89,0.08,1.75-0.08,2.56-0.46
			c0.08-0.02,0.16-0.07,0.25-0.1C-278.39,3348.24-277.31,3345.03-278.57,3342.36z M-408.81,3421.52l-2.67-2.34l-36.04-31.43
			l-6.84-5.96l-2.3-2.01c0.08-1.19,0.18-2.37,0.31-3.55c2.39-22.58,13.33-43.41,30.66-58.19c3.39-2.88,6.98-5.53,10.77-7.88
			c41.48-25.79,96.02-13.05,121.8,28.42l-105.83-7.49h-0.13c-2.98-0.15-5.54,2.17-5.67,5.17l-3.13,65.52l-0.49,10.42
			L-408.81,3421.52z"/>
		<path class="st1" d="M-280.85,3419.64c9.48-24.27,8.53-51.39-2.62-74.94l-115.01-8.12l-5.44,96.41
			c-0.07-28.36-23.11-51.29-51.47-51.22c-28.36,0.07-51.29,23.11-51.22,51.47c0.07,28.36,23.11,51.29,51.47,51.22
			c3.44-0.01,6.87-0.36,10.23-1.06l0.45-0.1l-32.04,108.88c-10.31,33.75,8.69,69.47,42.44,79.78c33.75,10.31,69.47-8.69,79.78-42.44
			l17.23-54.01c51.35-7.52,86.88-55.24,79.36-106.59C-260.38,3450.57-268.44,3433.43-280.85,3419.64L-280.85,3419.64z"/>
		<path class="st4" d="M-403.92,3438.42c-1.31,0-2.57-0.48-3.56-1.33l-0.79-0.69c0.95,1.28,2.46,2.14,4.2,2.19
			c2.82,0.08,5.18-1.99,5.53-4.74C-398.96,3436.45-401.22,3438.42-403.92,3438.42z M-403.92,3438.42c-1.31,0-2.57-0.48-3.56-1.33
			l-0.79-0.69c0.95,1.28,2.46,2.14,4.2,2.19c2.82,0.08,5.18-1.99,5.53-4.74C-398.96,3436.45-401.22,3438.42-403.92,3438.42z
			 M-403.92,3438.42c-1.31,0-2.57-0.48-3.56-1.33l-0.79-0.69c0.95,1.28,2.46,2.14,4.2,2.19c2.82,0.08,5.18-1.99,5.53-4.74
			C-398.96,3436.45-401.22,3438.42-403.92,3438.42z M-403.92,3438.42c-1.31,0-2.57-0.48-3.56-1.33l-0.79-0.69
			c0.95,1.28,2.46,2.14,4.2,2.19c2.82,0.08,5.18-1.99,5.53-4.74C-398.96,3436.45-401.22,3438.42-403.92,3438.42z M-403.92,3438.42
			c-1.31,0-2.57-0.48-3.56-1.33l-0.79-0.69c0.95,1.28,2.46,2.14,4.2,2.19c2.82,0.08,5.18-1.99,5.53-4.74
			C-398.96,3436.45-401.22,3438.42-403.92,3438.42z M-251.6,3474.48c-0.15-1.96-0.36-3.9-0.64-5.84
			c-2.51-17.89-9.92-35.32-22.4-50.14c2.94-8.34,4.74-16.97,5.39-25.64c0.15-1.81,0.23-3.6,0.28-5.41c0.03-1.81,0.03-3.64-0.03-5.46
			c-0.44-13.59-3.66-27.09-9.58-39.61c-0.02-0.03-0.03-0.07-0.05-0.1c-0.87-1.71-2.56-2.83-4.46-2.96l-3.39-0.25h-0.02l-6.62-0.48
			l-104.99-7.41h-0.07c-3-0.16-5.56,2.12-5.72,5.12l-3.72,65.84c-0.08-0.12-0.16-0.25-0.26-0.36c-2.12-3.23-4.56-6.22-7.31-8.95
			c-10.63-10.66-25.07-16.64-40.12-16.6h-0.07c-0.33,0-0.66,0-0.97,0.02c-1.87,0.02-3.71,0.15-5.51,0.36
			c-1.87,0.2-3.69,0.51-5.49,0.89c-25.63,5.51-44.85,28.32-44.83,55.61c0.02,31.38,25.48,56.83,56.86,56.81
			c1.08-0.02,2.2-0.03,3.3-0.1l-28.53,96.96l-1.15,3.9c-1.85,6.3-2.8,12.85-2.8,19.44c-0.02,38.2,30.94,69.17,69.13,69.18
			c30.17-0.02,56.91-19.44,66.26-48.12l1.1-3.46l15.13-47.4c17.04-3.09,32.99-10.6,46.24-21.76c23.92-20.16,35.96-49.19,35.35-78.2
			C-251.33,3478.4-251.43,3476.44-251.6,3474.48z M-342.22,3573.85l-17.23,54c-1.2,3.93-2.77,7.65-4.67,11.11c0,0.02,0,0.02,0,0.02
			c-5.72,10.42-14.38,18.61-24.56,23.85c-0.05,0.02-0.08,0.03-0.13,0.07c0,0-0.02,0-0.02,0.02c-0.05,0.02-0.08,0.05-0.13,0.07
			c-9.1,4.59-19.4,6.85-29.92,6.19c-0.07,0-0.15-0.02-0.21-0.02c-4.43-0.28-8.89-1.07-13.33-2.42c-6.53-1.99-12.46-5.04-17.66-8.87
			c-0.02-0.02-0.05-0.03-0.07-0.05c-19.33-14.32-28.56-39.76-21.14-64.07l32.06-108.9c0.15-0.49,0.21-1,0.21-1.53
			c0-3-2.43-5.43-5.43-5.43c-0.41,0-0.8,0.05-1.2,0.15l-0.36,0.08c-3.05,0.63-6.15,0.94-9.26,0.94h-0.07
			c-25.38,0.02-45.98-20.56-45.99-45.95c-0.02-22.5,16.12-41.23,37.45-45.22c2.39-0.44,4.85-0.71,7.36-0.76
			c0.38-0.03,0.75-0.03,1.13-0.03h0.07c2.66,0,5.26,0.23,7.81,0.68c17.05,2.9,30.91,15.22,36.04,31.43c0.9,2.83,1.52,5.78,1.85,8.82
			v0.02c0.18,1.65,0.28,3.29,0.28,4.99c-0.03,1.27,0.36,2.45,1.08,3.39c0.95,1.28,2.46,2.14,4.2,2.19c2.82,0.08,5.18-1.99,5.53-4.74
			c0.03-0.18,0.05-0.36,0.05-0.54v-0.05l5.12-90.86l106.32,7.5c4.44,10.37,6.85,21.36,7.2,32.44c0.06,1.84,0.06,3.65,0.02,5.48v0.02
			c-0.07,1.86-0.18,3.74-0.34,5.58c-0.34,3.82-0.95,7.6-1.79,11.35v0.05c-0.48,2.12-1.03,4.2-1.67,6.29
			c-0.66,2.22-1.43,4.41-2.26,6.58c-0.74,1.91-0.35,4.08,1.03,5.6c11.72,13,19.32,29.18,21.84,46.49c0.15,1.04,0.3,2.09,0.39,3.13
			c0.21,1.83,0.36,3.67,0.43,5.48c0.11,1.86,0.13,3.7,0.1,5.55c-0.59,42.69-32.11,79.83-75.72,86.2
			C-339.89,3570.44-341.6,3571.87-342.22,3573.85z M-403.92,3438.42c-1.31,0-2.57-0.48-3.56-1.33l-0.79-0.69
			c0.95,1.28,2.46,2.14,4.2,2.19c2.82,0.08,5.18-1.99,5.53-4.74C-398.96,3436.45-401.22,3438.42-403.92,3438.42z M-403.92,3438.42
			c-1.31,0-2.57-0.48-3.56-1.33l-0.79-0.69c0.95,1.28,2.46,2.14,4.2,2.19c2.82,0.08,5.18-1.99,5.53-4.74
			C-398.96,3436.45-401.22,3438.42-403.92,3438.42z M-403.92,3438.42c-1.31,0-2.57-0.48-3.56-1.33l-0.79-0.69
			c0.95,1.28,2.46,2.14,4.2,2.19c2.82,0.08,5.18-1.99,5.53-4.74C-398.96,3436.45-401.22,3438.42-403.92,3438.42z M-403.92,3438.42
			c-1.31,0-2.57-0.48-3.56-1.33l-0.79-0.69c0.95,1.28,2.46,2.14,4.2,2.19c2.82,0.08,5.18-1.99,5.53-4.74
			C-398.96,3436.45-401.22,3438.42-403.92,3438.42z"/>
		<path class="st4" d="M-335.12,3447.03c-3,0-5.43-2.43-5.43-5.43s2.43-5.43,5.43-5.43l19.71-0.02l-9.65-39.8
			c-0.7-2.92,1.09-5.85,4.01-6.55c2.91-0.7,5.84,1.08,6.55,3.99l11.28,46.51c0.71,2.92-1.09,5.85-4,6.56
			c-0.42,0.1-0.84,0.15-1.27,0.15l-26.61,0.03H-335.12z"/>
		<ellipse class="st4" cx="-361.6" cy="3398.74" rx="6.07" ry="6.05"/>
		<ellipse class="st4" cx="-291.9" cy="3405.53" rx="6.07" ry="6.05"/>
		<path class="st1" d="M-297.97,3477.94c-5.56,43.8-53.72,34.82-51.59-6.09L-297.97,3477.94z"/>
		<path class="st4" d="M-428.08,3427.03l-45.09-16.97c-2.82-1.05-5.94,0.38-7,3.18c-1.05,2.81,0.38,5.94,3.18,6.99l31.7,11.93
			l-19.38,7.42c-2.1,0.79-3.48,2.81-3.48,5.05c0,2.99,2.43,5.43,5.41,5.43c0.67,0,1.33-0.11,1.94-0.36l32.76-12.52
			c1.44-0.56,2.59-1.69,3.13-3.16C-423.85,3431.23-425.27,3428.09-428.08,3427.03z M-293.83,3474.45c-0.79-0.95-1.9-1.65-3.23-1.84
			h-0.02c-0.08-0.03-0.18-0.03-0.26-0.05l-10.31-1.22l-41.27-4.87c-0.11-0.02-0.25-0.03-0.36-0.03c-3-0.16-5.54,2.14-5.71,5.13
			c-1.3,24.88,13.72,39.28,29.2,40.68c0.8,0.07,1.62,0.1,2.43,0.1c13.12,0,26.86-9.48,30.45-31.45c0.12-0.74,0.23-1.5,0.33-2.27
			v-0.05C-292.41,3477.03-292.9,3475.55-293.83,3474.45z M-324.83,3501.42c-9.13-0.82-17.99-9.05-19.23-23.45l39.71,4.69
			C-307.92,3497.42-317.27,3502.11-324.83,3501.42z"/>
	</g>
</g>
<path class="st1" d="M865.54,2765.23c9.69-12.22,22.04-37.11,41.75-52.44c31.06-81.78,89.4-160.33,89.4-160.33l7.35-44.55
	l79.82,6.78l-13.58,88.33l-70.58,110.66c-2,3.11-2.89,6.78-2.67,10.44c4.01,54-17.48,87-17.48,87s-8.68,16.56-23.27,11.44
	c-3.34-1.22-8.91-5.22-8.91-5.22c-12.36,8.33-23.71,4.11-28.61-3.22c-5.34,3.56-13.58,5.11-19.93,4.11
	c-10.35-1.67-15.36-9.89-16.7-18.33l-0.45-13l0.89-2.67C864.87,2792.9,854.96,2778.68,865.54,2765.23L865.54,2765.23z"/>
<path class="st4" d="M978,2806.61c-0.55,0.97-1.08,1.85-1.58,2.63c-0.11,0.11-0.11,0.22-0.11,0.33c-0.22,0.37-3.5,6.45-9.1,9.16
	c-0.01,0.01-0.03,0.02-0.05,0.02c-1.72,0.84-3.66,1.34-5.79,1.27c0.17,0.03,0.34,0.04,0.51,0.04c0.2,0.01,0.39,0.02,0.59,0.02
	c0.26,0.01,0.51,0,0.76-0.02c0.12-0.01,0.25-0.02,0.37-0.03c0.22-0.01,0.43-0.04,0.65-0.08c0.23-0.02,0.45-0.06,0.67-0.11
	c0.25-0.05,0.5-0.11,0.74-0.17c0.01,0,0.02-0.01,0.02-0.01c0.2-0.05,0.4-0.11,0.6-0.18c0.4-0.13,0.79-0.28,1.18-0.46
	c0.15-0.07,0.3-0.14,0.45-0.21c0.14-0.07,0.26-0.14,0.39-0.21c0.62-0.33,1.23-0.72,1.83-1.16c0.22-0.15,0.43-0.32,0.64-0.49
	c0.26-0.21,0.51-0.43,0.77-0.66c0.24-0.22,0.48-0.44,0.71-0.67c0.24-0.23,0.47-0.47,0.7-0.72c0.06-0.06,0.12-0.12,0.18-0.19
	c0.25-0.27,0.5-0.55,0.74-0.84c0.24-0.29,0.48-0.59,0.72-0.9c0.24-0.31,0.48-0.62,0.7-0.94c0.15-0.22,0.32-0.43,0.47-0.66
	c0.31-0.44,0.61-0.9,0.9-1.38c0.24-0.38,0.47-0.76,0.7-1.15c0.2-0.33,0.39-0.66,0.57-1c0.21-0.37,0.42-0.75,0.62-1.14
	c0.15-0.28,0.3-0.57,0.44-0.86c0,0,0.01-0.01,0.01-0.02c0.22-0.43,0.43-0.87,0.64-1.31s0.42-0.89,0.62-1.34
	c0.19-0.43,0.38-0.85,0.56-1.28c0.11-0.25,0.22-0.51,0.32-0.76c0.11-0.25,0.21-0.5,0.31-0.76c0.21-0.51,0.41-1.03,0.61-1.56
	c0.27-0.69,0.52-1.39,0.78-2.1c0.25-0.71,0.49-1.43,0.74-2.15C981.67,2799.46,979.74,2803.52,978,2806.61z M951.09,2815.66
	c0.01,0.01,0.02,0.02,0.03,0.03c0.04,0.04,0.08,0.06,0.12,0.08c0.25,0.18,0.5,0.35,0.75,0.51c0.56,0.38,1.11,0.72,1.65,1.03
	c0.22,0.13,0.45,0.26,0.67,0.38C953.23,2817.05,952.09,2816.33,951.09,2815.66z M978,2806.61c-0.55,0.97-1.08,1.85-1.58,2.63
	c-0.11,0.11-0.11,0.22-0.11,0.33c-0.22,0.37-3.5,6.45-9.1,9.16c-0.01,0.01-0.03,0.02-0.05,0.02c-1.72,0.84-3.66,1.34-5.79,1.27
	c0.17,0.03,0.34,0.04,0.51,0.04c0.2,0.01,0.39,0.02,0.59,0.02c0.26,0.01,0.51,0,0.76-0.02c0.12-0.01,0.25-0.02,0.37-0.03
	c0.22-0.01,0.43-0.04,0.65-0.08c0.23-0.02,0.45-0.06,0.67-0.11c0.25-0.05,0.5-0.11,0.74-0.17c0.01,0,0.02-0.01,0.02-0.01
	c0.2-0.05,0.4-0.11,0.6-0.18c0.4-0.13,0.79-0.28,1.18-0.46c0.15-0.07,0.3-0.14,0.45-0.21c0.14-0.07,0.26-0.14,0.39-0.21
	c0.62-0.33,1.23-0.72,1.83-1.16c0.22-0.15,0.43-0.32,0.64-0.49c0.26-0.21,0.51-0.43,0.77-0.66c0.24-0.22,0.48-0.44,0.71-0.67
	c0.24-0.23,0.47-0.47,0.7-0.72c0.06-0.06,0.12-0.12,0.18-0.19c0.25-0.27,0.5-0.55,0.74-0.84c0.24-0.29,0.48-0.59,0.72-0.9
	c0.24-0.31,0.48-0.62,0.7-0.94c0.15-0.22,0.32-0.43,0.47-0.66c0.31-0.44,0.61-0.9,0.9-1.38c0.24-0.38,0.47-0.76,0.7-1.15
	c0.2-0.33,0.39-0.66,0.57-1c0.21-0.37,0.42-0.75,0.62-1.14c0.15-0.28,0.3-0.57,0.44-0.86c0,0,0.01-0.01,0.01-0.02
	c0.22-0.43,0.43-0.87,0.64-1.31s0.42-0.89,0.62-1.34c0.19-0.43,0.38-0.85,0.56-1.28c0.11-0.25,0.22-0.51,0.32-0.76
	c0.11-0.25,0.21-0.5,0.31-0.76c0.21-0.51,0.41-1.03,0.61-1.56c0.27-0.69,0.52-1.39,0.78-2.1c0.25-0.71,0.49-1.43,0.74-2.15
	C981.67,2799.46,979.74,2803.52,978,2806.61z M951.09,2815.66c0.01,0.01,0.02,0.02,0.03,0.03c0.04,0.04,0.08,0.06,0.12,0.08
	c0.25,0.18,0.5,0.35,0.75,0.51c0.56,0.38,1.11,0.72,1.65,1.03c0.22,0.13,0.45,0.26,0.67,0.38
	C953.23,2817.05,952.09,2816.33,951.09,2815.66z M978,2806.61c-0.55,0.97-1.08,1.85-1.58,2.63c-0.11,0.11-0.11,0.22-0.11,0.33
	c-0.22,0.37-3.5,6.45-9.1,9.16c-0.01,0.01-0.03,0.02-0.05,0.02c-1.72,0.84-3.66,1.34-5.79,1.27c0.17,0.03,0.34,0.04,0.51,0.04
	c0.2,0.01,0.39,0.02,0.59,0.02c0.26,0.01,0.51,0,0.76-0.02c0.12-0.01,0.25-0.02,0.37-0.03c0.22-0.01,0.43-0.04,0.65-0.08
	c0.23-0.02,0.45-0.06,0.67-0.11c0.25-0.05,0.5-0.11,0.74-0.17c0.01,0,0.02-0.01,0.02-0.01c0.2-0.05,0.4-0.11,0.6-0.18
	c0.4-0.13,0.79-0.28,1.18-0.46c0.15-0.07,0.3-0.14,0.45-0.21c0.14-0.07,0.26-0.14,0.39-0.21c0.62-0.33,1.23-0.72,1.83-1.16
	c0.22-0.15,0.43-0.32,0.64-0.49c0.26-0.21,0.51-0.43,0.77-0.66c0.24-0.22,0.48-0.44,0.71-0.67c0.24-0.23,0.47-0.47,0.7-0.72
	c0.06-0.06,0.12-0.12,0.18-0.19c0.25-0.27,0.5-0.55,0.74-0.84c0.24-0.29,0.48-0.59,0.72-0.9c0.24-0.31,0.48-0.62,0.7-0.94
	c0.15-0.22,0.32-0.43,0.47-0.66c0.31-0.44,0.61-0.9,0.9-1.38c0.24-0.38,0.47-0.76,0.7-1.15c0.2-0.33,0.39-0.66,0.57-1
	c0.21-0.37,0.42-0.75,0.62-1.14c0.15-0.28,0.3-0.57,0.44-0.86c0,0,0.01-0.01,0.01-0.02c0.22-0.43,0.43-0.87,0.64-1.31
	s0.42-0.89,0.62-1.34c0.19-0.43,0.38-0.85,0.56-1.28c0.11-0.25,0.22-0.51,0.32-0.76c0.11-0.25,0.21-0.5,0.31-0.76
	c0.21-0.51,0.41-1.03,0.61-1.56c0.27-0.69,0.52-1.39,0.78-2.1c0.25-0.71,0.49-1.43,0.74-2.15
	C981.67,2799.46,979.74,2803.52,978,2806.61z M950.98,2815.59c0.05,0.04,0.09,0.07,0.14,0.1c0.04,0.04,0.08,0.06,0.12,0.08
	c0.25,0.18,0.5,0.35,0.75,0.51c0.56,0.38,1.11,0.72,1.65,1.03c0.22,0.13,0.45,0.26,0.67,0.38c-1.08-0.64-2.22-1.36-3.22-2.03
	C951.05,2815.64,951.02,2815.61,950.98,2815.59z M1086.64,2512.58c-0.56-0.78-1.56-1.22-2.45-1.33l-38.79-3.3l-3.77-0.32l-3.74-0.32
	l-33.41-2.84c-1.79-0.11-3.57,1.11-3.79,3l-2.76,16.68l-0.56,3.38l-0.54,3.3l-3.38,20.42c-5.78,8-59.67,82.66-89.06,159.55
	c-13.91,11.11-24.04,26.55-32.28,39c-3.45,5.33-6.46,9.88-9.24,13.33c-6.01,7.55-6.9,16.22-2.12,22.11
	c3.12,3.89,9.13,6.66,17.48,4.44l0.45,10.45v0.33c1.67,11.67,9.01,19.67,19.59,21.33c6.17,0.97,13.38-0.15,19.1-2.77
	c0.15-0.07,0.31-0.14,0.46-0.21c0.01-0.01,0.02-0.02,0.03-0.02c2.39,2.56,5.5,4.57,8.9,5.73c0.31,0.1,0.62,0.19,0.92,0.28
	c0.58,0.18,1.17,0.32,1.76,0.44c4.12,0.77,10.47,0.77,17.81-3.45c0.15,0.1,0.31,0.21,0.48,0.32c2.11,1.41,5.06,3.19,7.43,4.02
	c0.67,0.17,1.34,0.32,2.01,0.45c0.09,0.02,0.18,0.04,0.26,0.06c1.46,0.29,2.9,0.49,4.3,0.49c1.59,0,3.12-0.19,4.57-0.57
	c0.04-0.01,0.09-0.02,0.13-0.03c7.9-2.04,13.59-8.84,16.11-13.51c0.67-1.03,3.86-6.22,7.41-15.07c0.02-0.04,0.03-0.08,0.04-0.13
	c1.58-3.9,3.22-8.52,4.72-13.8c0.01-0.03,0.02-0.05,0.02-0.07c4.28-14.98,7.6-35.31,5.74-60.04c-0.22-2.89,0.55-5.78,2.11-8.22
	l53.44-83.79l17.14-26.88c0.23-0.44,0.45-0.89,0.56-1.33l6.15-40.01l0.52-3.36l0.5-3.25l0.83-5.4l0.19-1.23l0.51-3.35l0.53-3.43
	l4.35-28.3C1087.41,2514.36,1087.19,2513.36,1086.64,2512.58z M1075.82,2543.67l-0.53,3.43l-0.52,3.35l-0.23,1.51l-0.38,2.44
	l-0.51,3.26l-0.52,3.35l-6.31,40.79l-10.31,16.15l-59.94,93.85c-2.34,3.77-3.56,8.22-3.23,12.55c0.7,9.35,0.6,18.21-0.07,26.46v0.01
	c0.01,0.01,0,0.02,0,0.03c0,0.09-0.01,0.18-0.02,0.26c-0.16,1.99-0.35,3.95-0.58,5.86v0.01c-0.02,0.18-0.04,0.36-0.06,0.53
	c-0.26,2.13-0.55,4.21-0.87,6.24c-0.04,0.23-0.08,0.46-0.11,0.69c-1.23,7.55-2.89,14.4-4.72,20.43c-0.02,0.04-0.02,0.07-0.03,0.11
	c-1.05,3.44-2.16,6.61-3.27,9.49c-0.01,0.03-0.02,0.06-0.03,0.09c-1.91,4.9-3.84,8.96-5.58,12.05c-0.55,0.97-1.08,1.85-1.58,2.63
	c-0.11,0.11-0.11,0.22-0.11,0.33c-0.22,0.37-3.5,6.45-9.1,9.16c-0.01,0.01-0.03,0.02-0.05,0.02c-1.72,0.84-3.66,1.34-5.79,1.27
	h-0.01c-0.02,0.01-0.03,0.01-0.05,0c-1.24-0.05-2.55-0.29-3.93-0.78c-0.79-0.29-1.83-0.84-2.94-1.48c-0.04-0.02-0.08-0.04-0.13-0.07
	c-1.08-0.64-2.22-1.36-3.22-2.03c-0.04-0.02-0.07-0.05-0.11-0.07c-0.11-0.07-0.22-0.15-0.33-0.23c-0.38-0.26-0.73-0.51-1.05-0.74
	c-0.08-0.05-0.16-0.11-0.23-0.16c-0.51-0.37-1.1-0.58-1.7-0.65h-0.01c-0.84-0.11-1.7,0.08-2.41,0.54c-4.9,3.33-9.91,4.55-14.47,3.67
	c-3.79-0.78-7.13-2.89-9.13-6c-0.42-0.62-0.99-1.08-1.62-1.34c-0.01,0-0.02-0.01-0.03-0.01c-1.05-0.44-2.28-0.34-3.25,0.35
	c-0.28,0.19-0.57,0.37-0.87,0.54c-0.15,0.09-0.3,0.18-0.46,0.27c-0.05,0.02-0.09,0.05-0.14,0.08h-0.01
	c-4.48,2.38-10.91,3.46-16,2.66c-10.35-1.67-13.02-11-13.69-15.11l-0.45-12.11l0.26-0.71l0.52-1.4c0.35-1.05,0.22-2.23-0.4-3.12
	c-0.11-0.17-0.25-0.33-0.4-0.48c-0.06-0.06-0.13-0.12-0.2-0.18c-0.98-0.88-2.31-1.07-3.46-0.72c-0.15,0.05-0.3,0.11-0.44,0.17
	c-6.45,3.11-12.02,3-14.8-0.34c-2.56-3.11-1.67-8.44,2.22-13.33c3.01-3.78,6.13-8.45,9.69-13.89c8.02-12.22,18.15-27.55,31.51-37.89
	c0.55-0.44,1-1,1.22-1.66c30.5-80.22,88.39-158.55,88.95-159.33c0.33-0.45,0.56-1,0.67-1.56l3.18-19.38l0.55-3.3v-0.01l0.55-3.36
	l2.51-15.28l33.63,2.83l3.72,0.31h0.01l3.77,0.32l31.45,2.65L1075.82,2543.67z M951.09,2815.66c0.01,0.01,0.02,0.02,0.03,0.03
	c0.04,0.04,0.08,0.06,0.12,0.08c0.25,0.18,0.5,0.35,0.75,0.51c0.56,0.38,1.11,0.72,1.65,1.03c0.22,0.13,0.45,0.26,0.67,0.38
	C953.23,2817.05,952.09,2816.33,951.09,2815.66z M978,2806.61c-0.55,0.97-1.08,1.85-1.58,2.63c-0.11,0.11-0.11,0.22-0.11,0.33
	c-0.22,0.37-3.5,6.45-9.1,9.16c-0.01,0.01-0.03,0.02-0.05,0.02c-1.72,0.84-3.66,1.34-5.79,1.27c0.17,0.03,0.34,0.04,0.51,0.04
	c0.2,0.01,0.39,0.02,0.59,0.02c0.26,0.01,0.51,0,0.76-0.02c0.12-0.01,0.25-0.02,0.37-0.03c0.22-0.01,0.43-0.04,0.65-0.08
	c0.23-0.02,0.45-0.06,0.67-0.11c0.25-0.05,0.5-0.11,0.74-0.17c0.01,0,0.02-0.01,0.02-0.01c0.2-0.05,0.4-0.11,0.6-0.18
	c0.4-0.13,0.79-0.28,1.18-0.46c0.15-0.07,0.3-0.14,0.45-0.21c0.14-0.07,0.26-0.14,0.39-0.21c0.62-0.33,1.23-0.72,1.83-1.16
	c0.22-0.15,0.43-0.32,0.64-0.49c0.26-0.21,0.51-0.43,0.77-0.66c0.24-0.22,0.48-0.44,0.71-0.67c0.24-0.23,0.47-0.47,0.7-0.72
	c0.06-0.06,0.12-0.12,0.18-0.19c0.25-0.27,0.5-0.55,0.74-0.84c0.24-0.29,0.48-0.59,0.72-0.9c0.24-0.31,0.48-0.62,0.7-0.94
	c0.15-0.22,0.32-0.43,0.47-0.66c0.31-0.44,0.61-0.9,0.9-1.38c0.24-0.38,0.47-0.76,0.7-1.15c0.2-0.33,0.39-0.66,0.57-1
	c0.21-0.37,0.42-0.75,0.62-1.14c0.15-0.28,0.3-0.57,0.44-0.86c0,0,0.01-0.01,0.01-0.02c0.22-0.43,0.43-0.87,0.64-1.31
	s0.42-0.89,0.62-1.34c0.19-0.43,0.38-0.85,0.56-1.28c0.11-0.25,0.22-0.51,0.32-0.76c0.11-0.25,0.21-0.5,0.31-0.76
	c0.21-0.51,0.41-1.03,0.61-1.56c0.27-0.69,0.52-1.39,0.78-2.1c0.25-0.71,0.49-1.43,0.74-2.15
	C981.67,2799.46,979.74,2803.52,978,2806.61z M951.09,2815.66c0.01,0.01,0.02,0.02,0.03,0.03c0.04,0.04,0.08,0.06,0.12,0.08
	c0.25,0.18,0.5,0.35,0.75,0.51c0.56,0.38,1.11,0.72,1.65,1.03c0.22,0.13,0.45,0.26,0.67,0.38
	C953.23,2817.05,952.09,2816.33,951.09,2815.66z M978,2806.61c-0.55,0.97-1.08,1.85-1.58,2.63c-0.11,0.11-0.11,0.22-0.11,0.33
	c-0.22,0.37-3.5,6.45-9.1,9.16c-0.01,0.01-0.03,0.02-0.05,0.02c-1.72,0.84-3.66,1.34-5.79,1.27c0.17,0.03,0.34,0.04,0.51,0.04
	c0.2,0.01,0.39,0.02,0.59,0.02c0.26,0.01,0.51,0,0.76-0.02c0.12-0.01,0.25-0.02,0.37-0.03c0.22-0.01,0.43-0.04,0.65-0.08
	c0.23-0.02,0.45-0.06,0.67-0.11c0.25-0.05,0.5-0.11,0.74-0.17c0.01,0,0.02-0.01,0.02-0.01c0.2-0.05,0.4-0.11,0.6-0.18
	c0.4-0.13,0.79-0.28,1.18-0.46c0.15-0.07,0.3-0.14,0.45-0.21c0.14-0.07,0.26-0.14,0.39-0.21c0.62-0.33,1.23-0.72,1.83-1.16
	c0.22-0.15,0.43-0.32,0.64-0.49c0.26-0.21,0.51-0.43,0.77-0.66c0.24-0.22,0.48-0.44,0.71-0.67c0.24-0.23,0.47-0.47,0.7-0.72
	c0.06-0.06,0.12-0.12,0.18-0.19c0.25-0.27,0.5-0.55,0.74-0.84c0.24-0.29,0.48-0.59,0.72-0.9c0.24-0.31,0.48-0.62,0.7-0.94
	c0.15-0.22,0.32-0.43,0.47-0.66c0.31-0.44,0.61-0.9,0.9-1.38c0.24-0.38,0.47-0.76,0.7-1.15c0.2-0.33,0.39-0.66,0.57-1
	c0.21-0.37,0.42-0.75,0.62-1.14c0.15-0.28,0.3-0.57,0.44-0.86c0,0,0.01-0.01,0.01-0.02c0.22-0.43,0.43-0.87,0.64-1.31
	s0.42-0.89,0.62-1.34c0.19-0.43,0.38-0.85,0.56-1.28c0.11-0.25,0.22-0.51,0.32-0.76c0.11-0.25,0.21-0.5,0.31-0.76
	c0.21-0.51,0.41-1.03,0.61-1.56c0.27-0.69,0.52-1.39,0.78-2.1c0.25-0.71,0.49-1.43,0.74-2.15
	C981.67,2799.46,979.74,2803.52,978,2806.61z"/>
<path class="st1" d="M994.67,2762.79c-5.57-23-26.27-14.67-29.39-4.89c-3.01-18-23.27-20.22-30.73-5.56
	c-4.01-16.89-26.27-19.44-30.17,9.33c-1.11,8.33-7.79,33-7.79,33L994.67,2762.79z"/>
<path class="st4" d="M896.6,2798.12c1.56,0,3.01-1,3.45-2.67c0.22-1,6.68-25,7.9-33.44c1.89-13.56,7.79-18.55,12.69-18.89
	c4.79-0.22,9.13,3.78,10.58,9.78c0.33,1.44,1.56,2.56,3.01,2.67c1.45,0.11,2.89-0.56,3.56-1.89c3.34-6.56,9.02-8.22,13.25-7.56
	c5.57,0.89,9.57,5.33,10.69,12.11c0.22,1.56,1.56,2.78,3.23,3c1.56,0.11,3.12-0.89,3.67-2.44c1.22-3.67,6.46-7.56,11.8-7.33
	c6.57,0.22,9.57,6.67,10.8,12c0.45,1.89,2.34,3.11,4.34,2.56c1.89-0.44,3.12-2.33,2.67-4.22c-3.67-15.33-13.47-17.33-17.48-17.44
	c-5.12-0.22-10.46,2-14.25,5.44c-2.89-5.78-8.02-9.67-14.36-10.67c-6.23-1-12.25,1.22-16.7,5.67c-3.45-5.67-9.02-9.11-15.25-8.89
	c-7.79,0.33-16.92,7.11-19.37,25c-1.11,8-7.57,32.33-7.68,32.55c-0.56,1.89,0.67,3.78,2.56,4.33
	C896.04,2798.12,896.26,2798.12,896.6,2798.12L896.6,2798.12z"/>
<path class="st1" d="M934.56,2752.23c0,0,0.56,14.78-10.35,45.22L934.56,2752.23z"/>
<path class="st4" d="M924.2,2801.01c1.45,0,2.78-0.89,3.34-2.33c11.02-30.67,10.58-45.89,10.58-46.44
	c-0.11-1.89-1.67-3.44-3.56-3.44h-0.11c-2,0.11-3.45,1.67-3.45,3.67c0,0.22,0.22,14.78-10.13,43.89c-0.67,1.89,0.33,3.89,2.12,4.56
	C923.43,2800.9,923.87,2801.01,924.2,2801.01z"/>
<path class="st1" d="M965.28,2757.9c0,0-2.78,26.78-10.91,42.89L965.28,2757.9z"/>
<path class="st4" d="M954.37,2804.34c1.34,0,2.56-0.67,3.23-2c8.35-16.56,11.13-43,11.24-44.11c0.22-2-1.22-3.67-3.12-3.89
	c-2-0.22-3.67,1.22-3.9,3.11c0,0.22-2.78,26.33-10.46,41.67c-0.89,1.78-0.11,3.89,1.56,4.78
	C953.26,2804.23,953.82,2804.34,954.37,2804.34L954.37,2804.34z"/>
<path class="st1" d="M904.17,2762.9c0,0-12.02,15.33-21.71,21.33L904.17,2762.9z"/>
<path class="st4" d="M882.57,2787.79c0.67,0,1.34-0.22,1.89-0.56c10.02-6.22,22.04-21.55,22.6-22.11c1.22-1.56,0.89-3.78-0.67-5
	s-3.79-0.89-5.01,0.67c-0.11,0.11-11.69,14.89-20.71,20.44c-1.67,1-2.23,3.22-1.11,4.89
	C880.12,2787.12,881.34,2787.79,882.57,2787.79z"/>
<ellipse class="st1" cx="1052.04" cy="2254.97" rx="21.96" ry="24.5"/>
<path class="st4" d="M1058.8,2223.81c-1.67,0-3.32,0.12-4.92,0.37c-1.13,0.16-2.23,0.39-3.32,0.67c-1.23,0.32-2.43,0.7-3.59,1.15
	c-12.29,4.74-21.01,16.65-21.01,30.59c0,9.49,4.04,18.04,10.5,24.02c1.03,0.96,2.12,1.85,3.27,2.67c1.09,0.77,2.24,1.49,3.43,2.14
	h0.01c4.65,2.51,9.97,3.94,15.63,3.94c1.38,0,2.73-0.08,4.06-0.25c2.31-0.28,4.54-0.8,6.68-1.54c4.75-1.64,9-4.33,12.48-7.79
	c2-2,3.75-4.26,5.18-6.72c2.83-4.84,4.44-10.46,4.44-16.47C1091.64,2238.48,1076.95,2223.81,1058.8,2223.81z M1070.11,2280.15
	c-0.94,0.45-1.9,0.84-2.89,1.17c-2.06,0.7-4.23,1.15-6.49,1.31c-0.64,0.05-1.28,0.07-1.93,0.07c-5.75,0-11.07-1.87-15.39-5.02
	c-0.22-0.16-0.45-0.32-0.66-0.5c-0.01-0.01-0.01-0.01-0.02-0.02c-0.84-0.64-1.64-1.35-2.4-2.1c-1.02-1.02-1.96-2.13-2.8-3.31
	c-3.08-4.28-4.89-9.53-4.89-15.16c0-10.31,6.01-19.2,14.66-23.44c1.11-0.55,2.26-1.02,3.45-1.4c1.05-0.34,2.12-0.62,3.22-0.81
	c0.4-0.09,0.79-0.16,1.21-0.21h0.02c1.17-0.17,2.38-0.25,3.6-0.25c4.87,0,9.43,1.32,13.33,3.63c2.06,1.21,3.93,2.69,5.56,4.4
	c4.52,4.69,7.28,11.06,7.28,18.08c0,6.37-2.27,12.2-6.07,16.73C1076.51,2276.18,1073.52,2278.52,1070.11,2280.15z"/>
<path class="st1" d="M1218.55,2802.68l0.45,255.21h-118.12l-43.19-223.88l-3.9-20.22L1218.55,2802.68z"/>
<path class="st4" d="M1222.44,3051.45l-0.25-144.43l-0.01-4.79l-0.01-5.4l-0.07-44.67v-0.17l-0.09-49.31c0-1.89-1.45-3.33-3.34-3.33
	h-0.22l-45.5,3.07l-3.41,0.23l-2.34,0.16h-0.03l-1.12,0.07l-112.37,7.58c-1.89,0.11-3.23,1.67-3.11,3.56v0.44l0.92,4.78l2.97,15.44
	l41.89,216.44l1.42,7.33c0.33,1.56,1.67,2.67,3.23,2.67l118.11,0.11c1.9,0,3.34-1.44,3.34-3.33L1222.44,3051.45z M1058.15,2819.24
	l-0.46-2.34l110.58-7.48l1.04-0.07h0.01l0.02-0.01l2.42-0.16l3.41-0.23l40.05-2.71l0.09,48.21v0.14l0.06,34.51l0.01,5.4v4.79
	l0.27,152.14l0.01,3.13h-111.99l-0.66-3.42l-42.09-217.68L1058.15,2819.24z"/>
<path class="st3" d="M1096.21,3051.11c2.89,33.78-19.82,62.22-51.99,73c-13.58,4.56-39.52,17-52.99,22
	c-24.49,9.22-40.63,29.11-38.52,54.11h269.86l-0.11-148.77L1096.21,3051.11z"/>
<path class="st1" d="M1190.17,2863.56c3.67,6.56,19.59,24.55,19.59,24.55l155.64,176.77l114.78-53l-131.37-205.88L1190.17,2863.56z"
	/>
<path class="st4" d="M1365.39,3068.22c0.45,0,1-0.11,1.45-0.33l114.78-53c1.67-0.78,2.45-2.78,1.67-4.44
	c-0.11-0.11-0.11-0.22-0.22-0.33l-131.25-205.88c-1-1.56-3.01-2-4.56-1c-1.56,1-2,3-1,4.56l129.25,202.66l-108.99,50.33
	l-153.97-174.88c-4.34-4.89-16.37-18.78-19.26-24c-0.89-1.56-2.89-2.22-4.56-1.33c-1.56,0.89-2.23,2.89-1.34,4.56
	c3.79,6.78,19.37,24.33,20.04,25.11L1363.06,3067C1363.5,3067.78,1364.39,3068.22,1365.39,3068.22z"/>
<path class="st2" d="M1135.06,2704.68l52.32,159.88l164.43-58.78l-70.02-159.55c0.56-3.22,0.89-6.56,1.11-9.89
	c2.56-37.78-15.47-71.78-43.86-89.66l-28.95-0.11l-151.29,6l-9.35,266.66h123.13L1135.06,2704.68z"/>
<path class="st3" d="M1358.83,3062.78c55.55,57.11,14.58,83.22,14.58,83.22c-24.38,6.22-40.75,29.11-38.52,54.11h97.86l126.02-95.66
	l-77.04-97.44L1358.83,3062.78z"/>
<path class="st4" d="M972.3,3156.67c0.56,0.44,1.22,0.67,1.89,0.67h248.26v-6.67H981.43C978.2,3152.44,975.19,3154.44,972.3,3156.67
	z"/>
<path class="st4" d="M1521.14,3056.67h-0.11l-0.02,0.02l-47.51,38.87l-13.59,11.11l-19.81,16.22v0.12l-41.97,34.33
	c-5.79,4.66-12.92,7.22-20.37,7.22h-32.4c-0.45,0.53-0.86,1.05-1.26,1.58c-0.16,0.23-0.32,0.45-0.48,0.67
	c-0.62,0.88-1.18,1.75-1.68,2.63c-0.05,0.07-0.09,0.14-0.12,0.21c-0.25,0.41-0.47,0.83-0.69,1.24c0.56,0.34,1.11,0.45,1.67,0.45
	h34.84c8.91,0,17.59-3.11,24.61-8.78l42.08-34.44l19.82-16.23l61.03-49.92l0.08-0.07L1521.14,3056.67z M1146.08,3092.11
	c-11.24,0-20.26,9.11-20.26,20.22c0,21.11-17.14,38.22-38.29,38.22h-48.54c-0.19,0.02-0.38,0.06-0.56,0.11
	c-1.58,0.41-2.56,1.74-2.56,3.33c0,1.89,1.45,3.34,3.34,3.34h48.09c8.61-0.03,16.67-2.47,23.51-6.67
	c12.89-7.91,21.51-22.08,21.58-38.33c0-7.56,6.12-13.56,13.69-13.56h76.49v-6.66H1146.08z"/>
<path class="st6" d="M1238.93,2546.8c5.01-17.89,15.25-62.22,11.91-92c-8.46-76.22-67.24-104.11-82.38-116.66l-84.61,5.56
	c0,0-12.25,5.56-26.72,20c-18.37,18.33-42.64,79.44-42.64,79.44l43.75,104L1238.93,2546.8z"/>
<path class="st4" d="M1254.18,2454.58c-7.46-66.44-52.66-97.44-74.48-112.33c-3.78-2.55-7.01-4.78-9.12-6.55
	c-0.44-0.37-0.92-0.59-1.46-0.69c-0.28-0.06-0.57-0.09-0.88-0.09l-2.48,0.16l-3.46,0.23l-70.9,4.65l-3.48,0.23l-4.29,0.28
	c-0.26,0-0.47,0.04-0.67,0.12c-0.15,0.05-0.3,0.12-0.44,0.22c-0.56,0.22-12.92,6-27.72,20.66c-17.08,17.04-38.32,68.04-42.66,78.68
	c-0.41,1.02-0.67,1.67-0.76,1.88c-0.16,0.36-0.24,0.75-0.25,1.16c-0.01,0.45,0.07,0.92,0.25,1.39l1.07,2.53l25.44,60.2l1.53,3.61
	l1.47,3.49l13.61,32.19l0.74,1.76c0.45,1.22,1.67,2.11,3.01,2.11l5.98-0.01l10.54-0.01h3.58l3.56-0.01l31.8-0.04h0.06l88.39-0.11
	h7.28l29.49-0.04c1.2,0,2.31-0.68,2.9-1.73c0.14-0.22,0.25-0.46,0.33-0.72C1243.83,2541.91,1258.08,2489.36,1254.18,2454.58z
	 M1212.31,2543.5h-3.56l-3.71,0.01l-122.09,0.15l-3.55,0.01h-3.58l-15.35,0.02l-12.08-28.65l-1.47-3.49l-1.52-3.6l-24.67-58.47
	l-1.7-4.03v-0.01l-0.97-2.3c0.13-0.33,0.29-0.72,0.48-1.17c4.7-11.48,25.29-60.33,40.93-75.94c12.25-12.22,22.82-17.89,25.27-19.11
	l1.78-0.12l3.47-0.23l3.47-0.22l70.73-4.66l3.27-0.22c0.08,0.06,0.16,0.13,0.24,0.19h0.01c1.24,0.99,2.69,2.02,4.31,3.14
	c1.25,0.88,2.6,1.8,4.01,2.79c22.6,15.44,64.57,44.22,71.58,107.55c3.34,30.77-8.01,76.44-11.24,88.33L1212.31,2543.5z"/>
<path class="st1" d="M795.07,2424.13c13.58,4.78,32.95,7.89,49.87,10.67c-20.04,5.56-47.31,12.11-46.76,22.55
	c0.89,15,24.38,10.33,40.3,8.89c35.18-3.22,40.97,13,56.67,29c12.13,12,30.06,15.89,46.09,10.11l199.72,78.89
	c24.05,9.56,51.21-1.89,61.34-25.55l1-2.33l21.15-50c10.8-25.44-1.11-54.78-26.61-65.55c-25.49-10.78-54.88,1.11-65.68,26.55h0.11
	l-3.9,9.33l-167.99-48c-2.45-0.67-5.12-1.22-7.68-1.44c-16.59-11.78-33.84-20.89-50.88-31.11c-26.94-16.33-111.77-41-116.45-20
	c-1.56,6.78,4.34,10.44,16.37,14.67l21.82,6.89c6.79,2.11,14.47,4.56,22.93,7.56c-9.57-1.67-17.48-2.89-25.49-3.78l-29.84-1.78
	c-11.13-0.67-15.25,14.33-5.23,19.44L795.07,2424.13z"/>
<path class="st4" d="M847.5,2402.25c-9.01-3.22-17.03-5.78-23.04-7.67l-2.52-0.79l-0.23,3.31l1.86,0.59
	c6.79,2.12,14.47,4.56,22.93,7.56c-0.6-0.1-1.19-0.21-1.78-0.31c-0.59-0.1-1.17-0.2-1.74-0.3c-0.69-0.11-1.37-0.22-2.04-0.34
	c-0.41-0.06-0.82-0.13-1.23-0.2c-0.03-0.01-0.06-0.01-0.1-0.02c-1.05-0.17-2.09-0.34-3.11-0.5c-1.13-0.18-2.24-0.35-3.33-0.51
	c-1.04-0.16-2.08-0.31-3.1-0.45c-1.03-0.15-2.04-0.28-3.05-0.42c-0.94-0.12-1.87-0.24-2.81-0.35c-0.46-0.06-0.93-0.12-1.4-0.17
	c-0.46-0.05-0.93-0.11-1.4-0.16l-0.25,3.58c6.94,0.77,14.06,1.87,24.56,3.59c1.78,0.34,3.57-0.88,3.9-2.77
	C849.84,2404.36,848.95,2402.81,847.5,2402.25z M847.5,2402.25c-9.01-3.22-17.03-5.78-23.04-7.67l-2.52-0.79l-0.23,3.31l1.86,0.59
	c6.79,2.12,14.47,4.56,22.93,7.56c-0.6-0.1-1.19-0.21-1.78-0.31c-0.59-0.1-1.17-0.2-1.74-0.3c-0.69-0.11-1.37-0.22-2.04-0.34
	c-0.41-0.06-0.82-0.13-1.23-0.2c-0.03-0.01-0.06-0.01-0.1-0.02c-1.05-0.17-2.09-0.34-3.11-0.5c-1.13-0.18-2.24-0.35-3.33-0.51
	c-1.04-0.16-2.08-0.31-3.1-0.45c-1.03-0.15-2.04-0.28-3.05-0.42c-0.94-0.12-1.87-0.24-2.81-0.35c-0.46-0.06-0.93-0.12-1.4-0.17
	c-0.46-0.05-0.93-0.11-1.4-0.16l-0.25,3.58c6.94,0.77,14.06,1.87,24.56,3.59c1.78,0.34,3.57-0.88,3.9-2.77
	C849.84,2404.36,848.95,2402.81,847.5,2402.25z M847.5,2402.25c-9.01-3.22-17.03-5.78-23.04-7.67l-2.52-0.79l-0.23,3.31l1.86,0.59
	c6.79,2.12,14.47,4.56,22.93,7.56c-0.6-0.1-1.19-0.21-1.78-0.31c-0.59-0.1-1.17-0.2-1.74-0.3c-0.69-0.11-1.37-0.22-2.04-0.34
	c-0.41-0.06-0.82-0.13-1.23-0.2c-0.03-0.01-0.06-0.01-0.1-0.02c-1.05-0.17-2.09-0.34-3.11-0.5c-1.13-0.18-2.24-0.35-3.33-0.51
	c-1.04-0.16-2.08-0.31-3.1-0.45c-1.03-0.15-2.04-0.28-3.05-0.42c-0.94-0.12-1.87-0.24-2.81-0.35c-0.46-0.06-0.93-0.12-1.4-0.17
	c-0.46-0.05-0.93-0.11-1.4-0.16l-0.25,3.58c6.94,0.77,14.06,1.87,24.56,3.59c1.78,0.34,3.57-0.88,3.9-2.77
	C849.84,2404.36,848.95,2402.81,847.5,2402.25z M1199.08,2437.8c-18.9-7.96-39.85-4.25-54.7,7.88h-0.01
	c-6.5,5.31-11.83,12.21-15.32,20.46c-0.11,0.22-0.11,0.33-0.22,0.55l-1.85,4.34l-0.02,0.04l-0.69,1.62l-69.14-19.72l-6.68-1.9
	l-31.91-9.1l-3.2-0.91l-3.2-0.91l-51.08-14.57c-2.45-0.66-4.9-1.22-7.35-1.44c-11.35-8-23.27-14.89-34.73-21.56
	c-5.12-3-10.47-6.11-15.59-9.22c-15.47-9.38-51.06-22-79.56-26.67c-2.66-0.43-5.25-0.8-7.76-1.09c-11.08-1.26-20.53-1.01-26.46,1.54
	c-5.23,2.22-7.01,5.78-7.57,8.33c-2.33,10.34,7.91,14.89,18.48,18.56l11.92,3.78L798.5,2397l-2.76-0.16l-4.57-0.26
	c-7.57-0.44-13.91,5.34-14.36,12.78c-0.03,0.43-0.03,0.87-0.01,1.3c0,0.43,0.04,0.87,0.1,1.29c0.58,4.34,3.26,8.26,7.26,10.3
	l0.36,0.19h0.01l2.6,1.33l6.38,3.26c0.11,0.11,0.22,0.11,0.45,0.22c9.9,3.44,22.82,6.11,35.51,8.33
	c-18.59,5.34-35.18,11.45-34.62,21.89c0.11,3.67,1.67,7.11,4.45,9.44c7.24,6.12,21.15,4.56,33.51,3.23c2-0.23,4.01-0.45,5.9-0.67
	c27.16-2.56,35.07,6.67,46.09,19.33c2.45,2.78,5.01,5.78,7.9,8.67c12.69,12.55,31.4,16.89,48.43,11.33l55.7,22.03l3.21,1.27
	l3.61,1.43l55.05,21.78l14.43,5.7l3.39,1.34l3.35,1.33l59.87,23.68c5.9,2.44,12.36,3.66,18.7,3.66c20.37,0,38.85-12.22,46.87-31
	l1-2.33l3.13-7.4l1.45-3.44l0.12-0.27l1.3-3.08l15.15-35.81C1238.93,2480.58,1226.24,2449.25,1199.08,2437.8z M1203.63,2546.84
	l-0.01,0.02l-1.46,3.43l-3.08,7.29c-9.24,22.11-34.74,32.78-57,23.78l-61.19-24.29l-3.35-1.32l-3.38-1.35l-5.57-2.21l-4.36-1.73
	l-9.73-3.86l-49.75-19.74l-3.61-1.44l-3.21-1.27l-55.46-22.01c-0.78-0.34-1.56-0.34-2.34,0c-14.81,5.33-31.4,1.66-42.64-9.34
	c-2.67-2.77-5.23-5.55-7.57-8.33c-11.36-13.11-21.15-24.33-51.77-21.55c-1.89,0.22-3.89,0.44-6.01,0.66
	c-10.46,1.11-23.49,2.56-28.5-1.66c-1.33-1.23-2.11-2.89-2.11-4.78c-0.11-1.22,0.89-4.45,11.46-9c7.91-3.34,18.59-6.22,27.95-8.78
	c1.67-0.44,3.34-0.89,4.89-1.33c1.79-0.45,2.79-2.34,2.34-4.11c-0.33-1.23-1.44-2.23-2.67-2.45l-1.34-0.22
	c-8.05-1.33-16.64-2.72-24.85-4.35c-2.49-0.5-4.95-1.02-7.35-1.57c-5.64-1.27-10.94-2.68-15.55-4.3l-3.26-1.65l-5.98-3.02
	c-3.46-1.78-4.79-5.89-3.01-9.33c1.22-2.45,3.9-3.89,6.57-3.78l12.87,0.77l9.77,0.58l7.19,0.43c0.2,0.02,0.4,0.04,0.6,0.07
	c6.94,0.77,14.06,1.87,24.56,3.59c1.78,0.34,3.57-0.88,3.9-2.77c0.22-1.56-0.67-3.11-2.12-3.67c-9.01-3.22-17.03-5.78-23.04-7.67
	l-2.52-0.79l-7.66-2.42l-11.64-3.67c-12.8-4.45-14.92-7.34-14.14-10.78c0.22-1,0.89-2.45,3.67-3.67c4.88-2.09,13.29-2.21,23.44-0.98
	c2.48,0.29,5.08,0.67,7.75,1.13c26.47,4.48,60.6,16,76.58,25.63c5.23,3.11,10.58,6.22,15.7,9.22c11.57,6.78,23.6,13.67,34.95,21.78
	c0.45,0.33,1.12,0.55,1.67,0.55c2.34,0.23,4.68,0.67,7.02,1.34l53.17,15.19l4.23,1.21l4.05,1.16l105.79,30.22l0.13,0.03
	c0.01,0.01,0.01,0.01,0.02,0.01c0.01,0.01,0.01,0.01,0.02,0l0.58,0.17c1.67,0.45,3.34-0.33,4.01-1.88l1.43-3.43l1.61-3.88l0.11-0.26
	l0.74-1.77c0.12-0.22,0.12-0.33,0.23-0.55c7.46-16.89,24.27-27.78,42.86-27.78c25.83,0,46.75,21,46.64,46.78
	c0,6.22-1.22,12.33-3.67,18.11l-16.19,38.26L1203.63,2546.84z M847.5,2402.25c-9.01-3.22-17.03-5.78-23.04-7.67l-2.52-0.79
	l-0.23,3.31l1.86,0.59c6.79,2.12,14.47,4.56,22.93,7.56c-0.6-0.1-1.19-0.21-1.78-0.31c-0.59-0.1-1.17-0.2-1.74-0.3
	c-0.69-0.11-1.37-0.22-2.04-0.34c-0.41-0.06-0.82-0.13-1.23-0.2c-0.03-0.01-0.06-0.01-0.1-0.02c-1.05-0.17-2.09-0.34-3.11-0.5
	c-1.13-0.18-2.24-0.35-3.33-0.51c-1.04-0.16-2.08-0.31-3.1-0.45c-1.03-0.15-2.04-0.28-3.05-0.42c-0.94-0.12-1.87-0.24-2.81-0.35
	c-0.46-0.06-0.93-0.12-1.4-0.17c-0.46-0.05-0.93-0.11-1.4-0.16l-0.25,3.58c6.94,0.77,14.06,1.87,24.56,3.59
	c1.78,0.34,3.57-0.88,3.9-2.77C849.84,2404.36,848.95,2402.81,847.5,2402.25z M847.5,2402.25c-9.01-3.22-17.03-5.78-23.04-7.67
	l-2.52-0.79l-0.23,3.31l1.86,0.59c6.79,2.12,14.47,4.56,22.93,7.56c-0.6-0.1-1.19-0.21-1.78-0.31c-0.59-0.1-1.17-0.2-1.74-0.3
	c-0.69-0.11-1.37-0.22-2.04-0.34c-0.41-0.06-0.82-0.13-1.23-0.2c-0.03-0.01-0.06-0.01-0.1-0.02c-1.05-0.17-2.09-0.34-3.11-0.5
	c-1.13-0.18-2.24-0.35-3.33-0.51c-1.04-0.16-2.08-0.31-3.1-0.45c-1.03-0.15-2.04-0.28-3.05-0.42c-0.94-0.12-1.87-0.24-2.81-0.35
	c-0.46-0.06-0.93-0.12-1.4-0.17c-0.46-0.05-0.93-0.11-1.4-0.16l-0.25,3.58c6.94,0.77,14.06,1.87,24.56,3.59
	c1.78,0.34,3.57-0.88,3.9-2.77C849.84,2404.36,848.95,2402.81,847.5,2402.25z"/>
<path class="st4" d="M1053.79,2412.14c-1.89,0-3.34,1.44-3.34,3.33v38.67c0,0.1,0,0.19,0.02,0.29c0.15,1.66,1.64,3.04,3.32,3.04
	c1.13,0,2.09-0.51,2.69-1.32c0.41-0.55,0.65-1.24,0.65-2.01v-38.67C1057.13,2413.58,1055.69,2412.14,1053.79,2412.14z
	 M1141.41,2477.03l-8.65-2.41l-0.05-0.02l-3.1-0.86l-0.56-0.16c-1.37-0.34-2.81,0.18-3.59,1.24l-0.01,0.01
	c-0.2,0.26-0.36,0.56-0.46,0.89c-0.02,0.06-0.04,0.12-0.06,0.19c-0.37,1.51,0.29,3.02,1.59,3.79c0.23,0.13,0.48,0.25,0.75,0.33
	l12.36,3.44c0.33,0.11,0.66,0.11,0.89,0.11c1.89,0,3.34-1.44,3.34-3.33C1143.86,2478.69,1142.86,2477.47,1141.41,2477.03z"/>
<path class="st4" d="M1128.27,2480.13c1.34,0,2.56-0.78,3.12-2.11l26.94-67.11c0.67-1.67-0.11-3.67-1.89-4.33
	c-1.78-0.67-3.67,0.11-4.34,1.89l-26.94,67.11c-0.67,1.67,0.11,3.67,1.89,4.33C1127.38,2480.02,1127.82,2480.13,1128.27,2480.13z"/>
<path class="st13" d="M1190.72,2864.9l-59-173.33"/>
<path class="st4" d="M1190.72,2868.23c1.89,0,3.34-1.44,3.34-3.33c0-0.33-0.11-0.78-0.22-1.11l-59-173.33
	c-0.56-1.78-2.45-2.67-4.23-2.11c-1.78,0.56-2.67,2.44-2.12,4.22l59,173.33C1188.05,2867.34,1189.27,2868.23,1190.72,2868.23z"/>
<path class="st1" d="M1129.05,2241.81c6.79-15.33,24.71-22.22,40.08-15.44s22.27,24.67,15.47,40
	c-5.79,13.11-20.04,20.33-34.07,17.33l18.93,63.89c5.9,19.89-5.57,40.78-25.49,46.67c-19.59,5.78-40.3-5.11-46.53-24.67
	l-10.24-31.67c-30.28-4.44-51.32-32.44-46.87-62.78c1.56-10.78,6.35-20.89,13.69-29l-0.33-1c-0.22-0.67-0.45-1.33-0.67-1.89
	c-3.34-10.78-3.34-22.33,0.11-33.11l1.78-6.33l25.61-22.22L1129.05,2241.81z"/>
<g>
	<path class="st4" d="M1133.28,2399.13c22.6,0,40.97-18.33,40.97-41c0-3.89-0.56-7.78-1.67-11.44l-17.48-59
		c9.91,0.44,19.48-3.33,26.27-10.56c12.69-13.56,12.02-34.78-1.45-47.55c-5.57-5.22-12.8-8.44-20.48-9
		c-14.25-1-27.61,6.89-33.4,19.89c-0.78,1.67,0,3.67,1.67,4.44c1.67,0.78,3.67,0,4.45-1.67v-0.11
		c6.01-13.67,22.04-19.78,35.62-13.78c9.24,4.11,15.36,12.89,16.03,22.89c1,14.89-10.35,27.67-25.16,28.67
		c-0.56,0-1.22,0.11-1.78,0.11c-1.89,0-3.79-0.22-5.68-0.56c-1.78-0.33-3.56,0.78-4.01,2.56c-0.11,0.56-0.11,1.11,0.11,1.67
		l18.93,63.89c5.34,18.11-5.12,37.22-23.27,42.55c-17.92,5.22-36.63-4.67-42.3-22.44l-10.24-31.78c-0.33-1.22-1.45-2.11-2.67-2.33
		c-28.5-4.11-48.2-30.55-44.09-58.89c1.45-10.11,5.9-19.67,12.8-27.33c0.89-0.89,1.11-2.22,0.67-3.44
		c-0.11-0.22-0.22-0.56-0.33-0.89c-0.22-0.56-0.45-1.22-0.67-1.78c-3.12-10.11-3.12-21,0.11-31.11l1.67-5.44l24.83-21.67
		c1.34-1.22,1.45-3.33,0.22-4.67s-3.23-1.44-4.68-0.33l-25.61,22.22c-0.45,0.44-0.78,1-1,1.56l-2,6.44
		c-3.56,11.44-3.67,23.67,0,35.11c0.11,0.44,0.22,0.78,0.45,1.22c-20.82,24.78-17.59,61.78,7.24,82.55
		c7.79,6.56,17.26,11,27.28,12.78l9.57,29.78C1099.66,2387.69,1115.46,2399.13,1133.28,2399.13z"/>
	<path class="st4" d="M1095.54,2272.81h-0.22l-8.12,0.25l-8.3,0.26l-12.72,0.4h-0.01l-2.8,0.09c-1.89,0-3.34,1.56-3.23,3.44
		c0.01,0.16,0.01,0.33,0.03,0.49c0.08,1.74,0.27,3.37,0.56,4.89c0.48,2.44,1.2,4.59,2.13,6.48c3.45,7.09,9.68,10.4,15.76,10.48
		c9.57,0,19.59-8,20.15-23.34C1098.88,2274.36,1097.43,2272.81,1095.54,2272.81z M1078.51,2292.81c-3.13,0-6.61-1.49-8.97-5.24
		c-1.02-1.63-1.84-3.69-2.32-6.25c-0.07-0.34-0.13-0.7-0.18-1.07l3.07-0.1l11.91-0.37l9.62-0.3
		C1090.09,2288.25,1084.19,2292.81,1078.51,2292.81z M1170.91,2243.59c-0.67-1.78-2.56-2.56-4.34-2l-27.72,10.44
		c-1.78,0.67-2.56,2.56-1.9,4.34c0.34,0.88,1.01,1.55,1.9,1.88l20.15,7.56c0.22,0.22,0.67,0.33,1.11,0.33
		c1.89,0,3.34-1.44,3.34-3.33c0-1.33-0.89-2.67-2.11-3.11l-11.92-4.45l19.49-7.33C1170.69,2247.26,1171.47,2245.36,1170.91,2243.59z
		 M1080.51,2259.25h-0.11c-2.34,0.08-4.93,0.2-6.77,0.27c-0.96,0.04-1.72,0.07-2.14,0.07c-0.44-0.22-0.77-0.67-0.66-1.22l2.78-8.04
		l4.08-11.82l0.93-2.7c0.56-1.78-0.33-3.67-2.12-4.22c-1.78-0.56-3.67,0.33-4.23,2.11l-0.14,0.41l-2.27,6.55l-5.49,15.82
		c0,0.11-0.11,0.22-0.11,0.33c-1,4.22,1.56,8.44,5.79,9.44c0.53,0,0.96,0.11,1.49,0.01c0.02,0,0.05,0,0.07-0.01
		c1.22,0,3.67-0.11,9.12-0.33c1.9,0,3.34-1.55,3.23-3.44C1083.96,2260.59,1082.4,2259.14,1080.51,2259.25z"/>
	<ellipse class="st19" cx="1098.88" cy="2240.14" rx="4.12" ry="4.11"/>
	<ellipse class="st19" cx="1058.69" cy="2239.03" rx="4.12" ry="4.11"/>
</g>
<path class="st4" d="M1126.15,2246.03c-22.71-10-50.77-59.66-50.77-59.66l-21.04,17.44c8.68-28.55,27.61-39.11,42.42-44.33
	c35.51-12.67,74.59,5.89,87.28,41.33c0.67,1.78,1.22,3.67,1.67,5.44c5.79-27.67,30.28-47.55,58.56-47.55h33.84
	c32.84,0,60.34,26.11,60.67,58.89c0.45,33-25.94,60.11-59,60.55h-35.51c-26.5,0-49.76-17.33-57.33-42.67
	c-0.33,2.11-0.89,4.22-1.45,6.33l-0.11,0.33c-12.47-28.33-49.21-25-58.11,3.89C1127.15,2246.36,1126.15,2246.03,1126.15,2246.03z"/>
<path class="st8" d="M1278.12,2155.36h-33.85c-25.93,0.11-49.2,15.89-58.78,40c-15.03-34.56-54.21-51.67-89.84-39.11
	c-22.82,8.11-37.4,23.33-44.42,46.55c-0.18,0.57-0.19,1.14-0.07,1.67v0.01c0.24,1.16,1.09,2.13,2.3,2.43
	c0.18,0.05,0.36,0.09,0.54,0.11h0.01c0.93,0.14,1.82-0.12,2.57-0.77l16.67-13.95l0.17-0.14l1.08-0.91
	c6.9,11.66,30.17,48.88,50.32,57.66c0.11,0,0.22,0.11,0.33,0.11c1.12,0.45,2.45,0.45,3.57-0.11c0.89-0.44,1.44-1.22,1.78-2.11
	c0.27-0.85,0.56-1.69,0.89-2.5c4.27-10.72,13.41-17.77,24.38-18.39c11.35-0.66,21.6,6.11,26.61,17.56c0.65,1.38,2.07,2.15,3.55,1.92
	c0.3-0.04,0.6-0.13,0.9-0.26c0.11,0,0.22-0.11,0.33-0.11c0.96,2.04,2.01,3.99,3.16,5.89c0.01,0,0.01,0.01,0.01,0.01v0.02
	c11.32,18.7,31.71,30.43,53.94,30.53h34.74c34.84,0,63.12-28.22,63.12-63v-0.89C1341.69,2183.26,1312.96,2155.36,1278.12,2155.36z
	 M1190.06,2234.48c-0.01-0.04-0.03-0.08-0.04-0.12c-0.6-1.71-2.34-2.65-4.08-2.1c-0.67,0.22-1.34,0.66-1.67,1.22
	c-0.26-0.37-0.52-0.73-0.8-1.09c-6.62-8.77-17.13-13.67-28.15-13.13c-12.28,0.71-22.95,8.18-28.75,19.48
	c-0.51,0.99-0.99,2.02-1.42,3.07c-18.39-10.2-40.27-45.86-45.63-54.97c-0.77-1.32-1.2-2.08-1.23-2.14c-0.15-0.26-0.34-0.5-0.54-0.71
	c-1.03-1.02-2.64-1.34-4.03-0.51c-0.22,0.11-0.33,0.22-0.56,0.33l-7.79,6.44h-0.01l-3.22,2.67c9.58-19,24.5-26.33,35.63-30.33
	c33.73-12,70.91,5.56,82.94,39.33c0.55,1.67,1.11,3.45,1.56,5.23c0.08,0.31,0.2,0.61,0.36,0.87c0.75,1.24,2.29,1.91,3.75,1.46
	c1.23-0.33,2.12-1.33,2.45-2.56c0.06-0.29,0.13-0.59,0.19-0.88c0.01-0.01,0.01-0.01,0-0.02c5.92-25.63,28.72-43.87,55.14-43.98
	h33.96c31.28,0,57,24.99,57.33,55.66c0.45,31.11-24.49,56.67-55.77,57.11h-35.52C1219.23,2274.7,1197.29,2258.36,1190.06,2234.48z"
	/>
<path class="st4" d="M1186.49,2238.47c1.67,0,3.01-1.22,3.34-2.78c0.56-4,0.89-8,0.89-11.89c0-7-0.78-14-2.34-20.78
	c-0.45-1.78-2.23-2.89-4.01-2.44c-1.78,0.44-2.89,2.22-2.45,4c1.45,6.33,2.12,12.78,2.12,19.22c0,3.56-0.33,7.22-0.89,10.78
	c-0.33,1.78,0.89,3.56,2.78,3.78C1186.16,2238.36,1186.38,2238.47,1186.49,2238.47z"/>
<path class="st1" d="M994.63,2762.71c-5.51-23.01-26.3-14.69-29.5-4.96c-3.02-18.06-23.28-20.18-30.75-5.49
	c-4.09-17-26.3-19.47-30.21,9.38c-1.07,8.32-7.82,32.93-7.82,32.93s63.62,29.56,83.53,10.45
	C995.17,2790.86,994.63,2762.71,994.63,2762.71z"/>
<path class="st1" d="M918.75,2814.05c11.73,16.29,29.68,3.36,29.68,3.36c38.03,27.97,46.21-54.7,46.21-54.7
	c-5.51-23.01-26.3-14.69-29.5-4.96c-3.02-18.06-23.28-20.18-30.75-5.49c-4.09-17-26.3-19.47-30.21,9.38
	c-1.07,8.32-7.82,32.93-7.82,32.93L918.75,2814.05z"/>
<path class="st4" d="M963.18,2826.8c2.67,0,5.33-0.53,7.82-1.59c9.42-4.07,16.88-15.93,22.21-35.23
	c3.73-13.81,5.15-26.38,5.15-26.91v-1.24c-3.73-15.23-13.51-17.35-17.42-17.53c-5.15-0.18-10.49,1.95-14.22,5.49
	c-3.02-5.84-8-9.74-14.4-10.62c-6.22-0.89-12.26,1.24-16.71,5.67c-3.38-5.67-9.06-9.21-15.28-8.85
	c-7.82,0.35-16.88,7.08-19.37,24.96c-1.07,7.97-7.64,32.4-7.64,32.57c-0.53,1.95,0.53,3.89,2.49,4.25c1.95,0.53,3.91-0.53,4.27-2.48
	c0.36-1.06,6.75-24.96,7.82-33.46c1.78-13.45,7.82-18.59,12.62-18.77c4.8-0.18,9.06,3.89,10.49,9.91c0.36,1.42,1.6,2.48,3.02,2.66
	c1.42,0.18,2.84-0.53,3.55-1.95c3.38-6.55,9.06-8.14,13.33-7.61c5.51,0.89,9.6,5.31,10.66,12.22c0.18,1.59,1.6,2.83,3.2,3.01
	c1.6,0.18,3.2-0.89,3.73-2.48c1.24-3.72,6.4-7.61,11.73-7.44c6.4,0.18,9.24,6.2,10.66,11.51c-1.42,13.81-8.18,49.22-23.1,55.59
	c-4.98,2.3-10.84,0.89-17.42-4.07c-1.24-0.89-2.84-0.89-4.27,0c-1.6,1.06-15.46,10.27-24.88-2.66c-1.07-1.59-3.38-1.95-4.98-0.89
	s-1.95,3.36-0.89,4.96c7.11,9.91,16.35,10.45,22.93,9.21c4.09-0.89,7.46-2.48,9.6-3.72C953.4,2825.21,958.38,2826.8,963.18,2826.8
	L963.18,2826.8z"/>
<path class="st1" d="M934.56,2752.27c0,0,0.53,14.69-10.31,45.14L934.56,2752.27z"/>
<path class="st4" d="M924.26,2800.95c1.42,0,2.84-0.89,3.38-2.3c11.02-30.63,10.66-45.85,10.49-46.56c0-1.95-1.6-3.36-3.55-3.36
	h-0.18c-1.95,0-3.55,1.77-3.38,3.72c0,0.18,0.18,14.69-10.13,43.91c-0.71,1.77,0.36,3.89,2.13,4.6H924.26L924.26,2800.95z"/>
<path class="st1" d="M965.31,2757.93c0,0-2.84,26.73-10.84,42.84L965.31,2757.93z"/>
<path class="st4" d="M954.47,2804.32c1.24,0,2.49-0.71,3.2-1.95c8.35-16.64,11.2-43.02,11.2-44.08c0.18-1.95-1.24-3.72-3.2-3.89
	s-3.73,1.24-3.91,3.19c0,0.18-2.84,26.38-10.49,41.78c-0.89,1.77-0.18,3.89,1.6,4.78C953.22,2804.14,953.93,2804.32,954.47,2804.32
	L954.47,2804.32z"/>
<g transform="translate(848.0 393.0) rotate(0.0 -29.0 25.5) scale(-0.9800442709653436 0.9959186861684469)">
	<path class="st1" d="M-71.61,2431.24c-11.97,16.63-30.31,3.47-30.31,3.47c-38.71,28.67-47.09-55.94-47.09-55.94
		c5.68-23.48,26.73-15.03,29.96-5.04c3.06-18.44,23.69-20.69,31.26-5.7c4.12-17.32,26.72-19.85,30.75,9.55
		c1.17,8.52,7.91,33.74,7.91,33.74L-71.61,2431.24z"/>
	<path class="st4" d="M-116.89,2444.28c-2.73,0-5.38-0.56-7.93-1.7c-9.57-4.24-17.16-16.36-22.56-36.02
		c-3.88-14.12-5.17-26.89-5.23-27.43c-0.04-0.4-0.01-0.81,0.08-1.21c3.79-15.65,13.71-17.7,17.8-17.86
		c5.27-0.2,10.68,2.05,14.51,5.59c2.99-5.93,8.17-9.91,14.57-10.89c6.32-0.98,12.48,1.25,16.98,5.84c3.46-5.82,9.23-9.33,15.51-9.03
		c7.89,0.39,17.21,7.29,19.7,25.51c1.12,8.2,7.75,33.04,7.82,33.29c0.47,1.95-0.73,3.9-2.68,4.37c-1.87,0.45-3.77-0.65-4.32-2.5
		c-0.28-1.04-6.81-25.53-8-34.18c-1.9-13.83-7.9-19.01-12.89-19.25c-4.81-0.24-9.29,3.9-10.76,10.05c-0.35,1.48-1.59,2.58-3.1,2.76
		c-1.51,0.18-2.97-0.61-3.65-1.96c-3.39-6.71-9.23-8.4-13.54-7.74c-5.69,0.87-9.78,5.5-10.92,12.4c-0.27,1.65-1.64,2.89-3.3,3.02
		c-1.65,0.15-3.2-0.9-3.71-2.49c-1.21-3.73-6.6-7.79-11.96-7.55c-6.48,0.25-9.49,6.38-10.89,11.73c1.5,14.18,8.41,50.26,23.45,56.92
		c5.14,2.28,10.96,0.92,17.81-4.16c1.26-0.94,2.99-0.95,4.26-0.03c1.57,1.12,15.74,10.58,25.26-2.65c1.22-1.59,3.49-1.89,5.08-0.68
		c1.52,1.17,1.87,3.32,0.8,4.91c-7.31,10.15-16.7,10.72-23.29,9.41c-4.16-0.83-7.68-2.51-9.83-3.72
		C-107.05,2442.53-112.1,2444.28-116.89,2444.28z"/>
	<path class="st1" d="M-87.78,2368.03c0,0-0.53,15.08,10.54,46.19L-87.78,2368.03z"/>
	<path class="st4" d="M-77.24,2417.84c-1.53,0-2.9-0.97-3.41-2.41c-11.17-31.4-10.77-46.88-10.75-47.53c0.07-2,1.67-3.58,3.75-3.49
		c1.99,0.07,3.56,1.74,3.49,3.73c-0.01,0.24-0.26,15.08,10.33,44.85c0.67,1.88-0.31,3.95-2.19,4.63
		C-76.41,2417.77-76.82,2417.84-77.24,2417.84z"/>
	<path class="st1" d="M-119.04,2373.73c0,0,2.82,27.33,11.08,43.88L-119.04,2373.73z"/>
	<path class="st4" d="M-107.96,2421.23c-1.37,0-2.63-0.77-3.24-2c-8.45-16.94-11.32-43.98-11.44-45.12
		c-0.21-1.99,1.24-3.77,3.23-3.97c0,0,0,0,0,0c2.01-0.18,3.77,1.24,3.97,3.23c0.03,0.27,2.85,26.88,10.72,42.64
		c0.89,1.79,0.16,3.97-1.63,4.86C-106.86,2421.1-107.41,2421.23-107.96,2421.23z"/>
</g>
<g>
	<g transform="translate(792.0 94.0) rotate(0.0 148.0 57.0) scale(0.6155125805780828 0.6119162640901771)">
		<path class="st25" d="M430.87,2848.76l-94.87,30.03l95.31-211.5l131.86,59.62l-95.31,211.5L430.87,2848.76z"/>
		<path class="st2" d="M54.86,2693.4l68.33-242.84L290.3,2585.9L54.86,2693.4z"/>
		<path class="st2" d="M678.6,3008.63l53.63-225.67l140.57,33.41l-53.63,225.67L678.6,3008.63z"/>
		<path class="st25" d="M1188.54,3079.85l-69.63-70.07l-74.85,62.67l12.19-231.52l71.81,5.22l72.68,2.18L1188.54,3079.85z"/>
		<path class="st6" d="M1591.96,3053.3l-143.61,17.84l-28.72-230.22l71.81-7.4l71.81-10.44L1591.96,3053.3z"/>
		<path class="st2" d="M1890.94,2985.41l-174.51-190.18l99.22-27.85l98.79-31.33L1890.94,2985.41z"/>
	</g>
	
		<g transform="translate(520.0 93.0) rotate(338.87437845595423 143.0 55.5) translate(52.0 0.0) scale(0.5947182366396341 0.5958132045088567)">
		<path class="st2" d="M-1848.66,2610.42l53.63-225.67l140.57,33.41l-53.63,225.67L-1848.66,2610.42z"/>
		<path class="st25" d="M-1338.73,2681.64l-69.63-70.07l-74.85,62.67l12.19-231.52l71.81,5.22l72.68,2.18L-1338.73,2681.64z"/>
		<path class="st2" d="M-935.3,2655.09l-143.61,17.84l-28.72-230.22l71.81-7.4l71.81-10.44L-935.3,2655.09z"/>
		<path class="st6" d="M-636.32,2587.2l-174.51-190.18l99.22-27.85l98.79-31.33L-636.32,2587.2z"/>
	</g>
	<path class="st27" d="M-174.79,1832.1c0,0,155.55,44.1,412.2-22.99c347.38-90.81,545.36-314.71,545.36-314.71
		s363.89,537.06,1218.72,263.46"/>
</g>
<g transform="translate(395.0 326.0) rotate(329.5283540110243 7.5 11.0) translate(7.0 0.0) scale(1.2335526315789473 1.2308380888441313)">
	<path class="st6" d="M575.53,1462.07l4.57-33.21l22.33,3.08l-4.57,33.21L575.53,1462.07z"/>
</g>
<g transform="translate(395.0 326.0) rotate(329.5283540110243 7.5 11.0) translate(7.0 0.0) scale(1.2335526315789473 1.2308380888441313)">
	<path class="st6" d="M59.7-90.89l4.57-33.21l22.33,3.08l-4.57,33.21L59.7-90.89z"/>
</g>
<g>
	<defs>
		<rect id="SVGID_00000174589577612711386390000015326099472292800678_" x="1161.22" y="2105.59" width="840.21" height="1095.38"/>
	</defs>
	<clipPath id="SVGID_00000119804991405875776220000016482839412930073499_">
		<use xlink:href="#SVGID_00000174589577612711386390000015326099472292800678_"  style="overflow:visible;"/>
	</clipPath>
	<g style="clip-path:url(#SVGID_00000119804991405875776220000016482839412930073499_);">
		<g transform="translate(880.0 155.0) rotate(0.0 111.0 269.5) translate(0.0 0.0) scale(0.6730597234391533 0.6729979248190148)">
			<path class="st2" d="M1478.23,3352.9c-39.09,15.44-58.25,59.65-42.81,98.74c15.44,39.09,59.65,58.25,98.74,42.81
				c39.09-15.44,58.25-59.65,42.81-98.74c-8.6-21.75-26.72-38.35-49.14-45"/>
			<path class="st4" d="M1506.13,3505.04c-44.87-0.03-81.23-36.42-81.2-81.3c0.02-33.35,20.42-63.3,51.45-75.54
				c2.59-1.02,5.52,0.26,6.54,2.85c1.02,2.59-0.26,5.52-2.85,6.54c-36.57,14.37-54.57,55.67-40.19,92.24
				c14.37,36.57,55.67,54.57,92.24,40.19c27.21-10.69,45.11-36.95,45.12-66.18c-0.16-31.45-20.78-59.14-50.87-68.3
				c-2.67-0.8-4.18-3.61-3.39-6.28c0.8-2.67,3.61-4.18,6.28-3.39c43.02,12.81,67.5,58.07,54.69,101.09
				c-10.26,34.43-41.9,58.04-77.82,58.07H1506.13z"/>
			<path class="st2" d="M1359.03,4329.28c-11.77,61.86-47.41,75.48-92.63,97.34c-7.9,3.87-56.49,13.79-69.6,29.92
				c-5.18,6.37-9.53,13.38-12.94,20.85c-6.61,15.42-9.49,32.18-8.41,48.92h246.62l56.99-96.83l1.85,96.83h61.36l-0.17-196.69
				L1359.03,4329.28z"/>
			<path class="st2" d="M1567.16,4104.35v231.82H1331.3v-351.69c0.01-16.51,3.5-32.84,10.25-47.91l41.86-93.13l72.96-162.23
				l44.89-99.86l35.3,9.92c0.99,0.3,2,0.53,3.03,0.67l157.86,36.31l6.72,82.04l-109.94,248.47L1567.16,4104.35z"/>
			<path class="st4" d="M1567.15,4341.22h-235.86c-2.79,0-5.04-2.26-5.04-5.04v-351.69c0.02-17.23,3.67-34.25,10.7-49.98
				l41.86-93.13l72.96-162.23l44.89-99.86c1.02-2.28,3.56-3.46,5.96-2.79l35.3,9.92c0.08,0.02,0.15,0.04,0.23,0.07
				c0.74,0.22,1.5,0.38,2.26,0.48c0.1,0.02,0.2,0.03,0.3,0.06l157.86,36.31c2.14,0.49,3.72,2.31,3.9,4.5l6.72,82.04
				c0.07,0.84-0.07,1.68-0.42,2.45l-109.71,247.93l-26.87,144.55v231.36C1572.2,4338.96,1569.94,4341.22,1567.15,4341.22z
				 M1336.34,4331.13h225.77v-226.78c0-0.31,0.03-0.62,0.09-0.92l27.07-145.58c0.07-0.39,0.19-0.76,0.35-1.12l109.42-247.29
				l-6.32-77.08l-154.11-35.45c-1.19-0.18-2.37-0.44-3.52-0.8l-31-8.72l-43.11,95.89l-72.96,162.23l-41.86,93.13
				c-6.45,14.42-9.79,30.04-9.81,45.85L1336.34,4331.13z"/>
			<path class="st2" d="M1483.1,4333.15c-11.77,60.69-47.41,73.97-92.63,95.32c-7.9,3.7-56.49,13.45-69.6,29.25
				c-5.18,6.19-9.53,13.03-12.94,20.34c-6.6,15.07-9.49,31.5-8.41,47.91h246.62l56.99-93.64l1.68,93.64h61.36l-0.17-192.82H1483.1z"
				/>
			<path class="st4" d="M1299.01,4531.01c-2.66,0-4.87-2.08-5.03-4.74c-1.14-17.23,1.9-34.47,8.84-50.28
				c3.61-7.73,8.21-14.96,13.67-21.51c10.73-12.94,39.93-21.3,59.25-26.83c5.36-1.54,10.42-2.99,12.09-3.76
				c2.6-1.23,5.18-2.44,7.73-3.63c41.5-19.4,71.48-33.42,82.08-88.08c0.53-2.73,3.18-4.52,5.91-3.99s4.52,3.18,3.99,5.91l0,0
				c-11.58,59.7-45.17,75.41-87.71,95.3c-2.54,1.19-5.11,2.39-7.72,3.62c-4.44,1.71-8.98,3.16-13.6,4.33
				c-15.91,4.55-45.52,13.03-54.27,23.58c-4.9,5.86-9.02,12.33-12.26,19.25c-6.26,14.3-8.98,29.9-7.94,45.47
				c0.17,2.78-1.95,5.17-4.73,5.34C1299.22,4531.01,1299.12,4531.01,1299.01,4531.01L1299.01,4531.01z"/>
			<path class="st2" d="M1602.12,3670.96c15.48-4.48,31.92-4.48,47.41,0h21.18v9.41c44.66,28.63,57.65,88.04,29.03,132.7
				c-7.47,11.65-17.37,21.56-29.03,29.03v494.08h-202.74v-477.6"/>
			<path class="st4" d="M1670.71,4341.22h-202.74c-2.79,0-5.04-2.26-5.04-5.04v-477.6c0-2.79,2.26-5.04,5.04-5.04
				c2.79,0,5.04,2.26,5.04,5.04v472.56h192.65V3842.1c0-1.75,0.91-3.37,2.39-4.29c25.79-15.94,41.82-45.28,41.82-76.57
				c0-31.29-16.03-60.63-41.82-76.57c-1.49-0.92-2.39-2.54-2.39-4.29V3676h-16.14c-0.47,0-0.95-0.07-1.4-0.2
				c-14.57-4.2-30.03-4.2-44.6,0c-2.68,0.76-5.47-0.79-6.23-3.47c-0.76-2.66,0.77-5.44,3.43-6.22c16.16-4.66,33.31-4.73,49.51-0.2
				h20.48c2.79,0,5.04,2.26,5.04,5.04v6.65c27.34,18.06,44.21,49.83,44.21,83.62s-16.87,65.56-44.21,83.62v491.32
				C1675.76,4338.96,1673.5,4341.22,1670.71,4341.22C1670.71,4341.22,1670.71,4341.22,1670.71,4341.22z"/>
			<path class="st6" d="M1444.1,3628.6l51.95-189.8c11.04-37.32,45.83-62.52,84.73-61.36c38.9-1.16,73.69,24.04,84.73,61.36
				l60.86,207.95c13,45.19-12.79,92.42-57.83,105.91c-32.45,9.58-31.44-65.4-63.88-74.98l-120.37,0.5
				C1452.34,3674.83,1430.82,3673.65,1444.1,3628.6L1444.1,3628.6z"/>
			<path class="st6" d="M1590.02,3843.27c39.55,15.02,83.8-4.74,99.02-44.21l35.47-92.8c15.02-39.55-4.74-83.8-44.21-99.02
				c-39.55-15.02-83.8,4.74-99.02,44.21l-35.47,92.8C1530.83,3783.81,1550.57,3828.03,1590.02,3843.27L1590.02,3843.27z"/>
			<path class="st1" d="M1605.99,3747.79c42.2-3.7,79.68,43.2,55.14,81.37l-1.01,1.51c-11.43,16.64-20.17,35.3-9.25,62.54
				c7.73,19.33,22.36,46.9,3.87,53.63c-12.78,4.71-31.27-27.07-45.56-49.93c5.04,38.5,11.6,88.93-5.72,92.29
				c-17.32,3.36-25.89-21.69-31.94-71.78c-2.86,55.98,3.87,74.64-13.11,75.82c-28.07,2.02-28.92-113.14-18.49-152.81
				c0,0,2.19-9.58,8.57-44.21C1554.55,3760.9,1583.8,3749.64,1605.99,3747.79L1605.99,3747.79z"/>
			<path class="st4" d="M1557.71,3998.3c-3.55,0-8.38-1.29-12.88-6.71c-19.94-24.02-18.78-118.18-9.77-152.45
				c9.01-34.27,2.23-9.93,8.49-43.85c7.64-44.57,49.39-51.47,62.03-52.53c23.68-2.07,47.22,10.26,60.01,31.43
				c11.36,18.81,11.29,39.83-0.19,57.69l-1.05,1.58c-12.14,17.67-18.25,34.24-8.77,57.87c0.94,2.35,1.99,4.84,3.06,7.39
				c6.3,14.92,13.43,31.84,8.43,43.31c-2.01,4.54-5.86,8.02-10.59,9.55c-12.81,4.72-26.24-12.27-39.49-32.76
				c4.72,41.72,4.85,71.95-12.55,75.33c-5.17,1.12-10.56-0.04-14.81-3.19c-5.69-4.14-10.22-11.69-14-23.92
				c-0.12,8.05-0.47,14-1.69,18.62c-2.1,7.92-7.06,12.04-15.17,12.61C1558.43,3998.28,1558.07,3998.3,1557.71,3998.3L1557.71,3998.3
				z M1610.57,3752.63c-1.38,0-2.75,0.06-4.13,0.18h-0.02c-13.84,1.15-46.69,7.77-52.94,44.24c-6.35,34.4-8.54,44.09-8.63,44.48
				c-9.34,35.56-8.5,124.04,7.74,143.61c2.42,2.92,4.29,3.14,5.47,3.05c6.63-0.46,7.47-4,7.55-31.54
				c0.03-10.42,0.07-23.41,0.89-39.51c0.15-2.78,2.52-4.92,5.3-4.77c2.45,0.13,4.45,2,4.74,4.43c2.96,24.54,8.16,58.08,19.03,65.99
				c1.99,1.49,4.53,2.02,6.95,1.45c2.2-0.43,7.3-4.01,7.16-27.99c-0.1-17.63-3.09-40.4-5.48-58.7c-0.36-2.76,1.59-5.29,4.35-5.65
				c1.96-0.26,3.88,0.65,4.93,2.33c1.04,1.67,2.11,3.38,3.19,5.13c6.72,10.83,14.34,23.1,21.52,31.81
				c9.61,11.67,13.79,11.31,14.83,10.93c2.13-0.59,3.89-2.1,4.81-4.12c3.27-7.49-3.24-22.94-8.48-35.35
				c-1.1-2.61-2.17-5.14-3.13-7.55c-11.81-29.42-2.28-49.72,9.77-67.27l0.97-1.45c9.28-14.43,9.29-31.56,0-46.95
				C1647.04,3763.02,1628.8,3752.63,1610.57,3752.63L1610.57,3752.63z"/>
			<ellipse class="st2" cx="1599.1" cy="3336.09" rx="37.23" ry="37.22"/>
			<path class="st2" d="M1599.09,3396.44c-33.33,0-60.35-27.02-60.35-60.35s27.02-60.35,60.35-60.35
				c33.33,0,60.35,27.02,60.35,60.35l0,0C1659.41,3369.4,1632.41,3396.4,1599.09,3396.44z M1599.09,3285.82
				c-27.76,0-50.27,22.5-50.27,50.27c0,27.76,22.5,50.26,50.27,50.26s50.27-22.5,50.27-50.26l0,0
				C1649.33,3308.34,1626.84,3285.85,1599.09,3285.82z"/>
			<path class="st1" d="M1580.1,3383.66c-10.59,5.88-18.16,6.89-31.1,6.89c-38.9,0.01-71.22-29.97-74.14-68.76l1.68-22.36
				c0.72-3.08,1.62-6.11,2.69-9.08c-1.19-3.25-2.2-6.56-3.03-9.92c-1.98-8.54-2.38-17.37-1.18-26.06l17.82-35.14l108.09,22.02
				c19.5,4.03,33.96,26.39,29.92,45.73v0.17c-1.93,9.1-7.52,17.01-15.47,21.85l-2.52,1.51l0.67,16.14v80.69
				c-0.07,21.42-17.41,38.77-38.83,38.83c-21.42-0.07-38.77-17.41-38.83-38.83v-15.8"/>
			<path class="st4" d="M1574.72,3451.24c-24.22-0.03-43.85-19.66-43.88-43.88v-13.89c-33.65-8.02-58.3-36.82-61.01-71.31
				c-0.02-0.25-0.02-0.5,0-0.75l1.68-22.36c0.02-0.24,0.05-0.48,0.1-0.71c0.62-2.69,1.38-5.35,2.27-7.96
				c-0.98-2.87-1.84-5.78-2.58-8.73c-2.13-9.17-2.56-18.64-1.28-27.97c0.08-0.56,0.25-1.1,0.5-1.6l17.82-35.14
				c1.03-2.03,3.28-3.11,5.51-2.66l108.1,22.02c11.15,2.61,20.83,9.51,26.93,19.2c6.4,9.38,8.91,20.87,7.01,32.06
				c-0.02,0.2-0.04,0.39-0.08,0.58c-2.21,10.47-8.63,19.56-17.76,25.14l0.55,13.15v80.9
				C1618.58,3431.59,1598.95,3451.22,1574.72,3451.24L1574.72,3451.24z M1540.93,3395.18v12.18c0.01,18.66,15.14,33.78,33.8,33.78
				c18.65-0.01,33.77-15.13,33.78-33.78v-80.59l-0.67-16.03c-0.08-1.85,0.86-3.59,2.44-4.54l2.52-1.51
				c6.62-4.05,11.32-10.59,13.04-18.16c0.02-0.19,0.05-0.39,0.09-0.57c1.51-8.7-0.46-17.65-5.49-24.91
				c-4.63-7.45-12-12.78-20.52-14.85l-104.31-21.25l-15.69,30.93c-0.98,7.81-0.57,15.74,1.2,23.41c0.78,3.15,1.73,6.26,2.84,9.31
				c0.41,1.1,0.42,2.31,0.03,3.42c-0.96,2.67-1.78,5.39-2.45,8.15l-1.62,21.61c3.02,35.94,33.01,63.6,69.08,63.71
				c12.26,0,18.95-0.87,28.65-6.26c2.43-1.35,5.51-0.48,6.86,1.96c1.35,2.43,0.48,5.51-1.96,6.86c-11.52,6.4-20.01,7.53-33.55,7.53
				C1546.3,3395.59,1543.61,3395.46,1540.93,3395.18L1540.93,3395.18z"/>
			<path class="st1" d="M1480.91,3291.54l-13.62,26.39l16.64,8.41"/>
			<g>
				<path class="st4" d="M1483.94,3331.38c-0.79,0-1.57-0.19-2.27-0.54l-16.64-8.41c-2.49-1.26-3.48-4.29-2.23-6.78
					c0.01-0.01,0.01-0.03,0.02-0.04l13.62-26.39c1.29-2.47,4.34-3.42,6.81-2.12c2.44,1.28,3.4,4.29,2.15,6.75l-11.28,21.87
					l12.1,6.11c2.49,1.26,3.48,4.29,2.23,6.78C1487.59,3330.31,1485.84,3331.38,1483.94,3331.38L1483.94,3331.38z"/>
				<circle class="st4" cx="1503.44" cy="3296.92" r="5.55"/>
				<path class="st4" d="M1492.16,3362.97c-10.74,0-16.33-15.12-18.17-20.1c-0.97-2.61,0.37-5.51,2.98-6.48
					c0.48-0.18,0.98-0.28,1.48-0.31l28.58-1.51c2.78-0.15,5.16,1.99,5.3,4.77c0.04,0.66-0.06,1.33-0.28,1.95
					c-1.28,3.61-8.26,21.6-19.83,21.67L1492.16,3362.97z M1486.2,3345.78c2.75,5.47,4.99,7.1,5.97,7.1c1.86-0.01,4.68-3.47,7.1-7.8
					L1486.2,3345.78z M1611.54,3299.27h-0.17l-21.52-0.67c-2.78-0.09-4.97-2.42-4.88-5.2c0.03-1.02,0.38-2.01,0.98-2.84l16.64-22.53
					c1.66-2.24,4.81-2.71,7.05-1.06s2.71,4.81,1.06,7.05l0,0l-10.93,14.79l11.9,0.37c2.79,0.04,5.01,2.33,4.97,5.12
					c-0.04,2.79-2.33,5.01-5.12,4.97l0,0L1611.54,3299.27z"/>
			</g>
			<path class="st2" d="M1615.24,3249.68c-15.97-7.23-33.12-1.51-42.53,12.61c-6.39,9.75-6.39,25.22-1.01,34.8l-3.19,0.34
				c-15.63,0-26.9-6.05-36.48-16.64c-2.7-3.06-5.18-6.32-7.4-9.75l-24.04-37.66l-25.38,20.85c2.15-17.46,10.5-33.57,23.54-45.39
				c30.26-27.74,75.99-24.54,105.07,4.37c9.08,9.08,14.29,16.14,15.3,37.82L1615.24,3249.68z"/>
			<path class="st4" d="M1568.5,3302.46c-16.14,0-28.92-5.82-40.22-18.3c-2.88-3.26-5.52-6.73-7.89-10.38l-21-32.9l-20.99,17.24
				c-2.15,1.77-5.33,1.46-7.1-0.7c-0.88-1.07-1.28-2.45-1.11-3.83c2.34-18.65,11.25-35.84,25.15-48.49
				c31.35-28.74,80.56-26.75,112.02,4.52c9.41,9.42,15.67,17.37,16.78,41.17c0.13,2.78-2.02,5.14-4.8,5.27
				c-0.64,0.03-1.29-0.06-1.89-0.28l-3.87-1.34c-0.14-0.05-0.28-0.11-0.42-0.17c-13.35-6.04-27.92-1.7-36.26,10.81
				c-5.07,7.73-5.45,21.27-0.81,29.53c1.36,2.43,0.5,5.5-1.93,6.87c-0.6,0.34-1.26,0.55-1.94,0.62l-3.19,0.34
				C1568.86,3302.45,1568.68,3302.46,1568.5,3302.46L1568.5,3302.46z M1500.58,3228.33c1.72,0,3.32,0.88,4.25,2.33l24.04,37.66
				c2.08,3.2,4.39,6.25,6.92,9.11c8.33,9.21,17.27,13.88,28.51,14.79c-3.03-10.8-1.57-23.91,4.18-32.69
				c10.23-15.35,28.26-21.56,44.96-15.96c-1.75-14.59-6.35-19.94-13.21-26.8c-27.62-27.46-70.72-29.32-98.1-4.22
				c-8.51,7.75-14.94,17.5-18.7,28.38l13.94-11.45C1498.28,3228.74,1499.41,3228.33,1500.58,3228.33L1500.58,3228.33z
				 M1571.86,3681.21h-105.91c-17.5-0.02-31.67-14.22-31.65-31.72c0-1.76,0.15-3.51,0.44-5.25c1.22-7.96,3.37-15.76,6.41-23.22
				c7.34-18.17,15.38-39.18,17.26-57.01c0.34-2.76,2.86-4.73,5.63-4.38c2.69,0.33,4.64,2.74,4.4,5.44
				c-2.02,19.13-10.34,40.93-17.99,59.86c-2.74,6.75-4.67,13.8-5.76,21c-1.04,6.3,0.73,12.74,4.87,17.61
				c4.08,4.82,10.08,7.59,16.39,7.58h102.55l13.11-31.69l-13.38-80.11c-0.47-2.74,1.37-5.35,4.11-5.83
				c2.74-0.47,5.35,1.37,5.83,4.11c0,0.02,0.01,0.04,0.01,0.06l13.62,81.53c0.16,0.93,0.05,1.89-0.31,2.76l-14.96,36.14
				C1575.75,3679.98,1573.91,3681.22,1571.86,3681.21L1571.86,3681.21z"/>
		</g>
		<g transform="translate(599.0 140.0) rotate(0.0 178.5 278.5) translate(0.0 0.0) scale(0.6673982498088474 0.6669061302681992)">
			<path class="st1" d="M1472.79,3342.64l22.02,18.16c2.75,2.41,3.12,6.56,0.84,9.41c-0.71,0.65-1.5,1.22-2.35,1.68l-8.41,4.37"/>
			<path class="st4" d="M1484.9,3381.3c-2.79,0-5.05-2.25-5.05-5.04c0-1.88,1.05-3.61,2.72-4.48l8.41-4.37
				c0.34-0.2,0.67-0.42,0.98-0.67c0.31-0.75,0.12-1.61-0.47-2.16l-21.91-18.05c-2.14-1.78-2.43-4.96-0.64-7.1
				c1.77-2.12,4.92-2.43,7.06-0.68l22.02,18.16c4.92,4.23,5.56,11.62,1.43,16.63c-0.07,0.08-0.15,0.17-0.23,0.24
				c-1.1,1.04-2.33,1.92-3.67,2.63l-8.33,4.33C1486.5,3381.11,1485.71,3381.3,1484.9,3381.3L1484.9,3381.3z"/>
			<path class="st1" d="M1273.41,3505.71c16.14-36.14,47.41-31.27,51.61-30.43l25.89,5.04l11.6-42.7l-2.19-135.83l87.08-11.43
				c6.56,7.23,27.57,29.25,24.21,56.15v0.17c10.98,14.64,15.96,32.92,13.95,51.11c-3.09,28.58-22.83,52.61-50.27,61.19l-13.28,39.17
				l1.68,3.03l27.91,19L1273.41,3505.71z"/>
			<path class="st4" d="M1451.61,3525.21c-0.14,0-0.27,0-0.41-0.02l-178.2-14.46c-2.78-0.22-4.85-2.65-4.62-5.43
				c0.05-0.57,0.19-1.13,0.42-1.65c17.83-39.94,53.23-34.11,57.2-33.32l21.26,4.14l10.18-37.49l-2.17-135.12
				c-0.04-2.56,1.85-4.75,4.39-5.08l87.08-11.43c1.64-0.21,3.28,0.39,4.39,1.61l0.68,0.75c7.58,8.31,27.43,30.09,25,57.54
				c24.69,34.88,16.43,83.18-18.46,107.87c-5.87,4.16-12.29,7.47-19.08,9.85l-11.76,34.67l0.02,0.03l26.92,18.32
				c2.3,1.57,2.9,4.7,1.33,7.01C1454.84,3524.38,1453.28,3525.21,1451.61,3525.21L1451.61,3525.21z M1281.33,3501.29l151.66,12.3
				l-12.13-8.26c-0.65-0.44-1.19-1.03-1.57-1.72l-1.68-3.03c-0.69-1.24-0.82-2.72-0.37-4.07l13.28-39.17
				c0.52-1.53,1.74-2.72,3.28-3.19c35.46-11.13,55.18-48.89,44.05-84.35c-2.27-7.23-5.75-14.03-10.28-20.11
				c-0.65-0.87-1.01-1.93-1.01-3.03v-0.17c0-0.21,0.01-0.42,0.04-0.63c2.82-22.56-13.62-41.84-21.16-50.18l-80.01,10.5l2.11,131.34
				c0.01,0.47-0.05,0.95-0.17,1.4l-11.6,42.7c-0.7,2.55-3.24,4.13-5.83,3.63l-25.89-5.04
				C1319.24,3479.26,1296.1,3476.16,1281.33,3501.29L1281.33,3501.29z"/>
			<path class="st4" d="M1481.87,3419.46c-0.32,0-0.65-0.03-0.96-0.09c-12.66-2.45-20.62-19.95-21.48-21.93
				c-1.11-2.55,0.06-5.53,2.61-6.64c0.53-0.23,1.09-0.37,1.67-0.41l22.02-1.51c2.78-0.19,5.19,1.91,5.38,4.69s-1.91,5.19-4.69,5.38
				l-14.18,0.97c2.93,4.49,6.84,8.83,10.59,9.55c2.74,0.53,4.53,3.17,4,5.91C1486.37,3417.75,1484.29,3419.47,1481.87,3419.46
				L1481.87,3419.46z"/>
			<path class="st8" d="M1461.36,3203.44c-23.04-0.04-41.98,18.16-42.87,41.19c-13.62,6.39-31.27,15.47-47.74,23.54
				c-47.58,23.03-74.3,66.07-30.26,142.05c11.94,20.68,22.02,26.73,27.74,24.21c12.27-5.21,25.55-13.28,39.84-36.98
				c0,0-9.08-7.56-9.92-25.72c-1.01-22.86-2.86-37.15,21.69-33.29c6.22,1.01,24.54,12.94,24.54,12.94
				c3.03-1.18,10.59-6.22,13.79-17.99c8.07-29.76-6.22-44.38-4.54-45.22c2.55,0.48,5.14,0.71,7.73,0.67
				c23.58,0,42.7-19.12,42.7-42.7C1504.06,3222.56,1484.94,3203.44,1461.36,3203.44L1461.36,3203.44z"/>
			<path class="st4" d="M1365.5,3440.04c-6.48,0-16.54-5.06-29.38-27.3c-21.16-36.51-27.79-68.41-19.71-94.79
				c6.94-22.66,24.49-40.93,52.14-54.32c6.29-3.08,12.78-6.32,19.14-9.5c9.31-4.65,18.16-9.08,25.97-12.79
				c2.56-26.34,25.99-45.61,52.33-43.04c26.34,2.56,45.61,25.99,43.04,52.33c-2.39,24.51-22.96,43.22-47.58,43.27
				c3.21,7.81,6.83,21.48,1.58,40.83c-4.37,16.11-15.56,20.88-16.82,21.37c-1.51,0.59-3.22,0.41-4.58-0.47
				c-8.39-5.46-19.41-11.68-22.6-12.19c-6.76-1.07-11.28-0.64-13.42,1.28c-3.53,3.16-3.08,12.66-2.56,23.68l0.14,3.13
				c0.71,15.42,7.85,21.84,8.15,22.11c1.85,1.62,2.29,4.32,1.04,6.44c-15.03,24.93-29.16,33.49-42.19,39.02
				C1368.72,3439.72,1367.12,3440.05,1365.5,3440.04L1365.5,3440.04z M1461.36,3208.49c-20.36-0.1-37.11,15.99-37.82,36.33
				c-0.07,1.89-1.19,3.58-2.9,4.38c-8.33,3.91-18.1,8.79-28.43,13.95c-6.39,3.19-12.9,6.45-19.24,9.55
				c-25.05,12.12-40.82,28.34-46.9,48.2c-7.23,23.6-0.91,52.8,18.8,86.79c12.05,20.88,19.91,22.75,21.34,22.12
				c10.97-4.66,22.81-11.77,35.6-31.82c-3.27-4.23-8.06-12.64-8.68-26.04l-0.14-3.12c-0.66-14.14-1.18-25.3,5.91-31.66
				c4.63-4.15,11.54-5.33,21.74-3.73c5.8,0.94,18.16,8.41,23.95,12.06c4.41-3.31,7.5-8.07,8.72-13.45
				c5.69-20.99-0.57-33.47-3.24-38.81c-1.18-2.35-2.11-4.2-1.33-6.54c0.44-1.33,1.39-2.44,2.65-3.06c1-0.5,2.14-0.65,3.24-0.44
				c2.22,0.42,4.48,0.61,6.74,0.57c20.8,0,37.66-16.86,37.66-37.66s-16.86-37.66-37.66-37.66L1461.36,3208.49z"/>
			<path class="st1" d="M1446.23,3366.34c0.23-9.37-3.71-18.36-10.76-24.54c-13.23-11.84-33.55-10.71-45.39,2.52
				s-10.71,33.55,2.52,45.39l0,0c4.41,4.04,9.9,6.73,15.8,7.73"/>
			<path class="st4" d="M1408.41,3402.49c-0.3,0-0.59-0.03-0.88-0.08c-6.86-1.17-13.23-4.29-18.35-9
				c-15.27-13.73-16.52-37.25-2.79-52.52c13.7-15.23,37.14-16.52,52.42-2.87c8.17,7.15,12.73,17.56,12.46,28.41
				c-0.05,2.79-2.35,5-5.14,4.95c-2.79-0.05-5-2.35-4.95-5.14c0.2-7.9-3.12-15.48-9.06-20.68c-10.99-10.16-28.14-9.49-38.3,1.5
				s-9.49,28.14,1.5,38.3c0.21,0.2,0.43,0.39,0.65,0.59c3.71,3.41,8.34,5.67,13.31,6.52c2.74,0.48,4.58,3.09,4.1,5.84
				C1412.96,3400.72,1410.86,3402.48,1408.41,3402.49L1408.41,3402.49z"/>
			<path class="st4" d="M1411.59,3382.14c-2.79,0.01-5.05-2.25-5.05-5.03c-0.01-2.53,1.87-4.68,4.38-5.01l6.59-0.88l-8.76-9.33
				c-1.9-2.03-1.8-5.23,0.24-7.13c2.03-1.9,5.21-1.8,7.12,0.23l15.47,16.47c1.91,2.03,1.81,5.22-0.22,7.13
				c-0.77,0.72-1.74,1.18-2.78,1.32l-16.31,2.19C1412.04,3382.13,1411.81,3382.14,1411.59,3382.14z"/>
			<path class="st1" d="M1167.16,3847.31c40.68,11.94,58.5,69.43,21.69,95.99l-1.51,1.01c-16.81,11.26-31.77,25.55-31.44,54.97
				c0.17,20.85,3.7,51.95-15.97,51.44c-13.62-0.34-19.16-36.65-24.38-63.21c-9.41,37.82-21.85,87.25-39.17,83.89
				c-17.32-3.19-16.14-29.76-3.7-78.51c-23.2,51.11-23.7,71.11-40.01,65.9c-26.9-8.41,14.46-116,38.67-149.28
				c0,0,5.55-8.07,24.04-38.16C1114.38,3840.75,1145.81,3840.92,1167.16,3847.31L1167.16,3847.31z"/>
			<path class="st4" d="M1078.23,4076.62c-0.94,0-1.88-0.09-2.81-0.28c-5.18-0.85-9.74-3.89-12.52-8.34
				c-3.86-6.02-5.32-14.91-4.31-28.05c-7.6,18.56-13.4,28.14-27.46,23.63c-3.43-1.07-8.07-3.91-10.52-11.29
				c-9.97-30.13,25.17-116.24,46.64-145.76c21.47-29.52,5.72-8.36,23.82-37.83c24-38.67,65.37-29.87,77.51-26.24
				c22.47,6.6,40.34,27.18,44.46,51.22c3.72,21.69-4.03,41.26-21.25,53.69c-0.05,0.04-0.1,0.07-0.15,0.11l-1.51,1.01
				c-17.73,11.88-29.49,25.05-29.19,50.72c0.02,2.52,0.09,5.17,0.17,7.9c0.43,16.28,0.91,34.74-7.97,43.62
				c-3.52,3.51-8.38,5.34-13.35,5.03c-13.71-0.34-19.98-21.41-24.92-45.32C1104.56,4049.1,1094.17,4076.62,1078.23,4076.62
				L1078.23,4076.62z M1072.68,3987.84c2.79,0,5.04,2.26,5.04,5.04c0,0.42-0.05,0.84-0.16,1.25c-6.12,23.97-13.41,57.14-6.17,68.44
				c1.3,2.1,3.46,3.51,5.9,3.87c1.77,0.35,8.03-0.37,16.93-23.37c6.44-16.62,11.98-38.89,16.43-56.79c0.67-2.7,3.41-4.35,6.11-3.68
				c1.9,0.47,3.35,2,3.73,3.92c0.48,2.47,0.97,5.03,1.47,7.63c2.35,12.27,5,26.18,8.47,36.55c4.61,13.77,8.52,14.93,9.61,14.96
				c2.19,0.23,4.38-0.53,5.95-2.07c5.81-5.81,5.38-22.68,5.02-36.22c-0.07-2.79-0.14-5.5-0.17-8.07
				c-0.36-32.04,16.81-47.91,33.67-59.2l1.44-0.96c13.93-10.09,20.17-26.03,17.15-43.75c-3.49-20.34-18.5-37.72-37.37-43.25h-0.03
				c-13.3-3.98-46.38-9.82-66.05,21.87c-18.34,29.84-23.94,38.02-24.17,38.36c-21.69,29.82-53.26,112.7-45.3,136.77
				c1.19,3.59,2.84,4.48,3.98,4.84c6.37,2.04,8.44-0.93,18.52-26.45c3.87-9.77,8.67-21.92,15.39-36.72
				C1068.91,3989.01,1070.71,3987.85,1072.68,3987.84L1072.68,3987.84z"/>
			<path class="st1" d="M1611.98,3794.52c-40.68,11.94-58.5,69.43-21.69,95.99l1.51,1.01c16.81,11.26,31.77,25.55,31.44,54.97
				c-0.17,20.85-3.7,51.95,15.97,51.44c13.62-0.34,17.99-30.09,23.03-56.82c9.41,37.82,23.03,80.69,40.35,77.5
				s16.14-29.76,3.7-78.51c23.2,51.11,23.7,71.11,40.01,65.9c26.9-8.41-14.46-116-38.67-149.28c0,0-5.55-8.07-24.04-38.16
				C1664.77,3787.96,1633.33,3788.13,1611.98,3794.52L1611.98,3794.52z"/>
			<path class="st4" d="M1785.47,4601.79H1582.9c-1.38,0-2.71-0.57-3.66-1.57l-45.78-48.25l-5.57,44.4
				c-0.32,2.52-2.45,4.41-4.99,4.42l-87.75,0.17h-0.01c-2.79,0-5.04-2.26-5.04-5.04c0-0.24,0.02-0.49,0.05-0.73l26.9-184.59
				c0.35-2.43,2.4-4.25,4.85-4.32c6.1-0.44,130.64-19.59,213.03-32.39c0.53-0.08,1.01-0.06,1.98-0.11c4.62-0.25,9.4-0.5,11.64,3.09
				l0.13,0.23c2.13,3.83,0.07,7.43-0.92,9.16l-0.25,0.45c-26.46,51.22,1.71,73.2,28.95,94.45l0.84,0.66
				c11.09,8.6,35.47,23.03,47.44,28.07l0.75,0.34c11.54,5.07,23.47,10.31,28.03,21.6c10.85,26.69-2.71,65.02-3.29,66.64
				C1789.49,4600.46,1787.6,4601.79,1785.47,4601.79z"/>
			<path class="st4" d="M1700.53,4023.85c-13.82,0-25.46-18.54-37.46-60.11c-4.45,21.48-10.21,38.91-23.73,39.24
				c-4.95,0.29-9.8-1.54-13.33-5.02c-8.87-8.88-8.39-27.33-7.97-43.61c0.07-2.73,0.14-5.38,0.17-7.89
				c0.29-25.68-11.46-38.86-29.2-50.74l-1.5-1c-0.05-0.04-0.11-0.07-0.16-0.11c-17.23-12.43-24.97-32-21.25-53.69
				c4.12-24.04,21.99-44.63,44.46-51.22c12.15-3.63,53.54-12.44,77.34,26.23c18.15,29.53,23.85,37.87,23.9,37.95
				c21.39,29.41,56.53,115.51,46.57,145.65c-2.44,7.38-7.08,10.22-10.55,11.3c-14.03,4.48-19.83-5.08-27.43-23.64
				c1.01,13.15-0.45,22.02-4.31,28.05c-2.79,4.46-7.37,7.5-12.57,8.34C1702.54,4023.75,1701.54,4023.85,1700.53,4023.85
				L1700.53,4023.85z M1662.25,3936.07c2.32,0,4.33,1.58,4.89,3.82c17.21,69.15,29.86,74.6,34.54,73.76c2.44-0.35,4.6-1.77,5.9-3.87
				c7.23-11.31-0.06-44.48-6.17-68.44c-0.69-2.7,0.93-5.45,3.63-6.14c2.37-0.61,4.84,0.57,5.85,2.81
				c6.72,14.8,11.53,26.96,15.39,36.73c10.09,25.51,12.16,28.47,18.49,26.45c1.18-0.37,2.82-1.26,4.01-4.85
				c7.97-24.07-23.61-106.95-45.22-136.66c-0.31-0.44-5.91-8.63-24.26-38.49c-19.5-31.68-52.56-25.83-65.87-21.85h-0.03
				c-18.86,5.53-33.88,22.92-37.37,43.25c-3.04,17.72,3.21,33.66,17.14,43.75l1.43,0.95c16.87,11.3,34.05,27.17,33.68,59.23
				c-0.03,2.68-0.09,5.37-0.17,8.05c-0.35,13.55-0.79,30.4,5.02,36.22c1.57,1.55,3.75,2.31,5.94,2.07
				c8.48-0.21,13.43-26.94,17.04-46.45c0.39-2.1,0.77-4.19,1.17-6.27c0.44-2.33,2.44-4.04,4.81-4.11L1662.25,3936.07z"/>
			<path class="st3" d="M1109.84,3951.53c-43.02-20.39-61.38-71.79-41.02-114.82l53.12-112.3c20.39-43.02,71.79-61.38,114.82-41.02
				c43.02,20.39,61.38,71.79,41.02,114.82l-53.12,112.3C1204.25,3953.52,1152.87,3971.87,1109.84,3951.53L1109.84,3951.53z
				 M1622.91,3912.87c-46.88,8.27-91.58-23.03-99.85-69.91c0-0.01,0-0.02,0-0.03l-21.69-122.38c-8.27-46.88,23.03-91.58,69.91-99.85
				c0.01,0,0.02,0,0.03,0c46.88-8.27,91.58,23.03,99.85,69.91c0,0.01,0,0.02,0,0.03l21.69,122.38
				C1701.02,3859.88,1669.75,3904.53,1622.91,3912.87L1622.91,3912.87z"/>
			<path class="st51" d="M1435.13,4595.9l87.75-0.17l6.89-54.97l53.12,55.98h202.57c0,0,13.62-37.82,3.36-63.04
				c-3.87-9.58-14.96-14.29-26.06-19.16c-12.78-5.38-37.32-20.01-48.58-28.75c-27.57-21.52-59.85-45.89-31.1-101.54
				c0.84-1.51,2.02-3.19,1.18-4.71c-0.84-1.35-6.89-0.67-8.57-0.67c0,0-208.96,32.45-213.67,32.45L1435.13,4595.9z"/>
			<path class="st2" d="M1785.47,4601.79H1582.9c-1.38,0-2.71-0.57-3.66-1.57l-45.78-48.25l-5.57,44.4
				c-0.32,2.52-2.45,4.41-4.99,4.42l-87.75,0.17h-0.01c-2.79,0-5.04-2.26-5.04-5.04c0-0.24,0.02-0.49,0.05-0.73l26.9-184.59
				c0.35-2.43,2.4-4.25,4.85-4.32c6.1-0.44,130.64-19.59,213.03-32.39c0.53-0.08,1.01-0.06,1.98-0.11c4.62-0.25,9.4-0.5,11.64,3.09
				l0.13,0.23c2.13,3.83,0.07,7.43-0.92,9.16l-0.25,0.45c-26.46,51.22,1.71,73.2,28.95,94.45l0.84,0.66
				c11.09,8.6,35.47,23.03,47.44,28.07l0.75,0.34c11.54,5.07,23.47,10.31,28.03,21.6c10.85,26.69-2.71,65.02-3.29,66.64
				C1789.49,4600.46,1787.6,4601.79,1785.47,4601.79z M1585.07,4591.7h196.74c2.89-9.49,10.07-37.13,2.35-56.1
				c-3.03-7.49-12.6-11.7-22.73-16.15l-0.68-0.3c-12.73-5.36-37.82-20.2-49.65-29.38l-0.86-0.67
				c-27.33-21.32-61.26-47.8-32.6-105.27l-0.21,0.01c-0.5,0.03-0.94,0.05-1.3,0.06c-45.27,7.03-182.89,28.35-209.67,31.94l-25.5,175
				l77.47-0.15l6.34-50.56c0.35-2.76,2.87-4.72,5.63-4.38c1.16,0.15,2.23,0.69,3.03,1.53L1585.07,4591.7z"/>
			<path class="st3" d="M1083.78,3806.79l144.07-310.5c18.95-27.39,52.46-40.76,85.06-33.96c0,0,64.05,5.55,117.34,18.49
				c31.08,7.64,59.82,22.76,83.72,44.04l124.4,110.62c13.47,10.35,23.3,24.72,28.07,41.02c0,0-13.95,170.46-15.97,177.36
				C1650.31,3854.03,1074.53,3819.9,1083.78,3806.79z"/>
			<path class="st4" d="M903.73,4597.25c-2.86-38.5,20.85-76.66,58.84-82.37c75.65-11.43,94.48-74.81,95.32-125.24l202.57,0.67
				l-0.34,207.11h-74.98l-0.67-59.01l-64.55,59.01L903.73,4597.25z"/>
			<path class="st2" d="M1119.93,4602.46l-216.19-0.17c-2.64,0-4.83-2.04-5.03-4.67c-3.22-43.39,24.51-81.92,63.12-87.73
				c77.65-11.73,90.36-80.43,91.03-120.34c0.05-2.75,2.29-4.96,5.04-4.96h0.02l202.57,0.67c2.78,0.01,5.03,2.26,5.03,5.04
				l-0.34,207.11c0,2.79-2.26,5.04-5.04,5.04h-74.98c-2.76,0-5.01-2.22-5.04-4.98l-0.54-47.74l-56.24,51.4
				C1122.4,4601.99,1121.19,4602.46,1119.93,4602.46z M1190.14,4592.37h64.96l0.32-197.04l-192.62-0.64
				c-0.86,21.32-5.24,50.09-20.19,74.8c-16.97,28.04-43.64,44.99-79.27,50.37c-32.06,4.82-55.42,36.13-54.78,72.34l209.42,0.17
				l63.11-57.68c2.06-1.88,5.25-1.74,7.13,0.32c0.84,0.92,1.31,2.11,1.32,3.35L1190.14,4592.37z"/>
			<path class="st8" d="M1259.96,3697.02l222.41-3.36l194.67,262.92c21.37,22.97,33.26,53.18,33.29,84.56v378.75h-248.47v-329.83
				l-53.63-77.67l-145.58,453.23l-255.86-63.71L1259.96,3697.02z"/>
			<g>
				<path class="st4" d="M1262.65,4470.66c-0.41,0-0.82-0.05-1.22-0.15l-255.86-63.71c-2.7-0.67-4.35-3.41-3.68-6.11
					c0.04-0.17,0.09-0.33,0.15-0.49l253.17-704.89c0.71-1.98,2.57-3.31,4.67-3.34l222.41-3.36c1.62,0,3.14,0.76,4.13,2.04
					l194.5,262.7c22.14,23.87,34.45,55.23,34.45,87.78v378.75c0,2.79-2.26,5.04-5.04,5.04h-248.47c-2.79,0-5.04-2.26-5.04-5.04
					v-328.26l-46.91-67.95l-142.45,443.48C1266.78,4469.25,1264.84,4470.66,1262.65,4470.66L1262.65,4470.66z M1013.42,4398.36
					l245.87,61.23l144.14-448.73c0.85-2.65,3.69-4.11,6.34-3.26c1.06,0.34,1.98,1.02,2.61,1.94l53.63,77.67
					c0.58,0.84,0.89,1.84,0.89,2.86v324.8h238.38v-373.71c0-30.11-11.42-59.1-31.94-81.13c-0.13-0.14-0.25-0.28-0.35-0.43
					l-193.13-260.85l-216.33,3.27L1013.42,4398.36z"/>
				<path class="st4" d="M1461.86,4097.29h-0.02c-2.78-0.01-5.04-2.27-5.03-5.06l0.17-59.51c0.01-2.78,2.26-5.03,5.04-5.03h0.01
					c2.79,0.01,5.04,2.27,5.03,5.06c0,0,0,0,0,0l-0.17,59.51C1466.9,4095.04,1464.64,4097.29,1461.86,4097.29z M1409.58,4019.45
					c-1.65,0-3.2-0.81-4.15-2.17l-73.63-105.91c-1.54-2.32-0.92-5.45,1.4-6.99c2.25-1.5,5.29-0.96,6.88,1.24l73.63,105.91
					c1.59,2.29,1.03,5.43-1.26,7.02C1411.61,4019.14,1410.61,4019.45,1409.58,4019.45L1409.58,4019.45z M1482.36,3698.7
					c-2.44,0-4.53-1.75-4.96-4.15l-13.95-77.67c-0.49-2.74,1.33-5.36,4.07-5.86c2.74-0.49,5.36,1.33,5.86,4.07l0,0l13.95,77.67
					c0.49,2.74-1.33,5.36-4.07,5.86C1482.97,3698.67,1482.67,3698.7,1482.36,3698.7z M1259.96,3702.06h-0.12
					c-2.78-0.06-4.99-2.37-4.93-5.16c0,0,0,0,0,0l1.85-81.03c0.06-2.74,2.3-4.93,5.04-4.93h0.12c2.78,0.06,4.99,2.37,4.93,5.16
					l-1.85,81.03C1264.94,3699.87,1262.7,3702.06,1259.96,3702.06L1259.96,3702.06z"/>
			</g>
		</g>
	</g>
</g>
</svg>
