<?xml version="1.0" encoding="utf-8"?>
<!-- Generator: Adobe Illustrator 26.1.0, SVG Export Plug-In . SVG Version: 6.00 Build 0)  -->
<svg version="1.1" id="Layer_1" xmlns="http://www.w3.org/2000/svg" xmlns:xlink="http://www.w3.org/1999/xlink" x="0px" y="0px"
	 viewBox="0 0 2000 3200" style="enable-background:new 0 0 2000 3200;" xml:space="preserve">
<style type="text/css">
	.st0{fill:#70D9D9;}
	.st1{fill:#FFFFFF;}
	.st2{fill:#FF7F36;}
	.st3{fill:#007575;}
	.st4{fill:#222433;}
	.st5{fill:#FF7F36;stroke:#FF7F36;stroke-miterlimit:10;}
	.st6{fill:#15C2C1;}
	.st7{fill:#FDA979;}
	.st8{fill:#C35515;}
	.st9{fill:none;stroke:#5A38FD;stroke-width:111.9047;stroke-miterlimit:10;}
	.st10{fill:none;stroke:#FF7F36;stroke-width:111.9047;stroke-miterlimit:10;}
	.st11{fill:none;stroke:#FFFFFF;stroke-width:9.2351;stroke-miterlimit:10;stroke-dasharray:23.0877,36.9403;}
	.st12{fill:none;stroke:#313341;stroke-width:3.8308;stroke-miterlimit:10;}
	.st13{fill:none;}
	.st14{opacity:0.75;fill:#70D9D9;}
	.st15{fill:#5A38FD;}
	.st16{fill:none;stroke:#222433;stroke-width:8.5039;stroke-miterlimit:10;stroke-dasharray:14.1732,14.1732;}
	.st17{fill:#7057FD;}
	.st18{fill:none;stroke:#222433;stroke-width:5.4074;stroke-miterlimit:10;}
	.st19{fill:#222433;stroke:#222433;stroke-width:5.4303;stroke-miterlimit:10;}
	.st20{fill:#2B292D;}
	.st21{fill:none;stroke:#C35515;stroke-width:9.9101;stroke-miterlimit:10;}
	.st22{fill:none;stroke:#C35515;stroke-width:5.6693;stroke-miterlimit:10;}
	.st23{fill:#C35515;stroke:#000000;stroke-miterlimit:10;}
	.st24{fill:#C35515;stroke:#000000;stroke-width:0.6042;stroke-miterlimit:10;}
	.st25{fill:#15C2C1;stroke:#222433;stroke-width:6.1644;stroke-miterlimit:10;}
	.st26{fill:#FFFFFF;stroke:#000000;stroke-width:6.1644;stroke-miterlimit:10;}
	.st27{fill:none;stroke:#007575;stroke-width:6.1644;stroke-miterlimit:10;}
	.st28{fill:none;stroke:#FFFFFF;stroke-width:14.1732;stroke-miterlimit:10;stroke-dasharray:23.0877,36.9403;}
	.st29{fill-rule:evenodd;clip-rule:evenodd;fill:#FDA979;}
	.st30{fill-rule:evenodd;clip-rule:evenodd;fill:#FFFFFF;}
	.st31{fill-rule:evenodd;clip-rule:evenodd;fill:#007575;}
	.st32{fill:#606060;}
	.st33{clip-path:url(#SVGID_00000168102987346329035950000011004534359313606295_);}
	.st34{fill:#222433;stroke:#222433;stroke-width:1.0471;stroke-miterlimit:10;}
	.st35{fill:#222433;stroke:#222433;stroke-width:2.2688;stroke-miterlimit:10;}
	.st36{fill:#82B1FF;}
	.st37{fill:#15C2C1;stroke:#70D9D9;stroke-width:15.652;stroke-miterlimit:10;}
	.st38{stroke:#222433;stroke-width:0.8333;stroke-miterlimit:10;}
	.st39{clip-path:url(#SVGID_00000129187998001846736390000008107864063844828315_);}
	.st40{clip-path:url(#SVGID_00000129187998001846736390000008107864063844828315_);fill:#FF7F36;}
	.st41{clip-path:url(#SVGID_00000129187998001846736390000008107864063844828315_);fill:#C35515;}
	.st42{fill:#222433;stroke:#222433;stroke-width:0.791;stroke-miterlimit:10;}
	.st43{fill-rule:evenodd;clip-rule:evenodd;fill:#FF7F36;}
	.st44{fill-rule:evenodd;clip-rule:evenodd;fill:#15C2C1;}
	.st45{fill:none;stroke:#FF7F36;stroke-width:11.3386;stroke-miterlimit:10;}
	.st46{fill:none;stroke:#FF7F36;stroke-width:9.6934;stroke-miterlimit:10;}
	.st47{opacity:0.44;fill:#FDA979;}
	.st48{fill:none;stroke:#70D9D9;stroke-width:8.5039;stroke-miterlimit:10;stroke-dasharray:11.5087,11.5098;}
	.st49{opacity:0.75;fill:#007575;}
	.st50{clip-path:url(#SVGID_00000149350191452609580070000005103540549079883166_);}
	.st51{fill:none;stroke:#FF7F36;stroke-miterlimit:10;}
	.st52{clip-path:url(#SVGID_00000096764089726958630920000018397390784514253730_);}
	.st53{stroke:#70D9D9;stroke-width:8.5039;stroke-miterlimit:10;}
	.st54{fill:#FDA979;stroke:#222433;stroke-width:17.0079;stroke-miterlimit:10;}
	.st55{clip-path:url(#SVGID_00000081648387234024650660000018337202276452770437_);}
	.st56{fill:none;stroke:#222433;stroke-width:16.1222;stroke-linecap:round;stroke-miterlimit:10;}
	.st57{clip-path:url(#SVGID_00000081628319993211243640000018385548862705841584_);fill:#15C2C1;}
	.st58{clip-path:url(#SVGID_00000081628319993211243640000018385548862705841584_);fill:#C35515;}
	
		.st59{clip-path:url(#SVGID_00000081628319993211243640000018385548862705841584_);fill:#15C2C1;stroke:#000000;stroke-width:8.2755;stroke-miterlimit:10;}
	.st60{clip-path:url(#SVGID_00000081628319993211243640000018385548862705841584_);fill:#FF7F36;}
	
		.st61{clip-path:url(#SVGID_00000081628319993211243640000018385548862705841584_);fill:#15C2C1;stroke:#000000;stroke-width:8.5039;stroke-miterlimit:10;}
	
		.st62{clip-path:url(#SVGID_00000081628319993211243640000018385548862705841584_);fill:none;stroke:#000000;stroke-width:8.5039;stroke-miterlimit:10;}
	
		.st63{clip-path:url(#SVGID_00000081628319993211243640000018385548862705841584_);fill:#FFFFFF;stroke:#000000;stroke-width:8.5039;stroke-miterlimit:10;}
	.st64{clip-path:url(#SVGID_00000081628319993211243640000018385548862705841584_);}
	.st65{fill:none;stroke:#000000;stroke-width:8.2815;stroke-linecap:round;stroke-miterlimit:10;}
	
		.st66{clip-path:url(#SVGID_00000081628319993211243640000018385548862705841584_);fill:#FFFFFF;stroke:#000000;stroke-width:8.7446;stroke-miterlimit:10;}
	.st67{clip-path:url(#SVGID_00000081628319993211243640000018385548862705841584_);fill:none;}
	.st68{clip-path:url(#SVGID_00000009556353507305418080000006163306202083580829_);fill:#FF7F36;}
	.st69{clip-path:url(#SVGID_00000009556353507305418080000006163306202083580829_);}
	
		.st70{clip-path:url(#SVGID_00000009556353507305418080000006163306202083580829_);fill:none;stroke:#5A38FD;stroke-width:111.9047;stroke-miterlimit:10;}
	.st71{clip-path:url(#SVGID_00000144298181538940603180000002191091543731123878_);}
	
		.st72{opacity:0.57;clip-path:url(#SVGID_00000144298181538940603180000002191091543731123878_);fill:none;stroke:#FFFFFF;stroke-width:32.7065;stroke-linecap:round;stroke-miterlimit:10;}
	.st73{fill:#222433;stroke:#000000;stroke-width:7.0866;stroke-miterlimit:10;}
	
		.st74{clip-path:url(#SVGID_00000144298181538940603180000002191091543731123878_);fill:#222433;stroke:#222433;stroke-width:163.17;stroke-miterlimit:10;}
	.st75{fill:none;stroke:#000000;stroke-width:7.0866;stroke-miterlimit:10;}
	
		.st76{clip-path:url(#SVGID_00000144298181538940603180000002191091543731123878_);fill:#70D9D9;stroke:#000000;stroke-width:2.8346;stroke-linecap:round;stroke-miterlimit:10;}
	.st77{clip-path:url(#SVGID_00000177475073934050367450000018369286322340155822_);fill:#FFFFFF;}
	.st78{clip-path:url(#SVGID_00000177475073934050367450000018369286322340155822_);fill:#222433;}
	.st79{clip-path:url(#SVGID_00000177475073934050367450000018369286322340155822_);fill:#15C2C1;}
	.st80{clip-path:url(#SVGID_00000177475073934050367450000018369286322340155822_);fill:#FDA979;}
	.st81{clip-path:url(#SVGID_00000177475073934050367450000018369286322340155822_);}
	.st82{clip-path:url(#SVGID_00000177475073934050367450000018369286322340155822_);fill:#FF7F36;}
	.st83{clip-path:url(#SVGID_00000177475073934050367450000018369286322340155822_);fill:#C35515;}
	.st84{clip-path:url(#SVGID_00000104707583009197241300000005291252619944060569_);}
</style>
<g>
	<defs>
		<rect id="SVGID_00000083061148735812122090000011882643542889566613_" y="1126.97" width="1999.17" height="2073.03"/>
	</defs>
	<clipPath id="SVGID_00000044145143339568254430000008394151629084706474_">
		<use xlink:href="#SVGID_00000083061148735812122090000011882643542889566613_"  style="overflow:visible;"/>
	</clipPath>
	<g style="clip-path:url(#SVGID_00000044145143339568254430000008394151629084706474_);">
		<g transform="translate(349.0 533.0) rotate(0.0 107.0 199.5) translate(0.0 0.0) scale(1.7892976588628764 1.78125)">
			<g>
				<path class="st7" d="M-52.3,1285.25h268.5v502.88H-52.3V1285.25z"/>
			</g>
		</g>
		<g transform="translate(70.0 623.0) rotate(0.0 106.5 198.5) translate(0.0 0.0) scale(1.7809364548494984 1.7723214285714286)">
			<path class="st7" d="M-247.59,1354.95h268.5v502.88h-268.5V1354.95z"/>
		</g>
		<g transform="translate(629.0 441.0) rotate(0.0 106.5 198.5) translate(0.0 0.0) scale(1.7809364548494984 1.7723214285714286)">
			<g>
				<path class="st7" d="M143.19,1227.1h268.5v502.88h-268.5V1227.1z"/>
			</g>
		</g>
		<g transform="translate(910.0 355.0) rotate(0.0 105.5 197.0) translate(0.0 0.0) scale(1.7642140468227425 1.7589285714285714)">
			<g>
				<path class="st7" d="M342.85,1175.56h268.5v502.88h-268.5V1175.56z"/>
			</g>
		</g>
		<g transform="translate(563.0 493.0) rotate(354.02171623781373 33.0 108.0) scale(0.4752475247524752 0.4739326094159)">
			<g>
				<path class="st6" d="M92.67,5053.98l-79.38,47.55l-47.55-79.38c-31.11-51.75-14.38-118.92,37.38-150.03c0,0,0,0,0,0l0.3-0.18
					l79.38-47.55l47.55,79.38c31.11,51.75,14.38,118.92-37.38,150.03c0,0,0,0,0,0L92.67,5053.98z"/>
				<path class="st4" d="M13.29,5108.27c-2.37,0-4.56-1.24-5.78-3.27l-47.55-79.38c-33.02-54.94-15.25-126.24,39.68-159.27l0.3-0.18
					l79.39-47.55c3.19-1.91,7.32-0.87,9.24,2.32l47.55,79.39c33.02,54.94,15.25,126.24-39.68,159.27l-0.3,0.18l-79.39,47.55
					C15.7,5107.93,14.51,5108.26,13.29,5108.27z M80.48,4833.62l-73.86,44.23c-48.58,29.17-64.3,92.2-35.13,140.78
					c0.01,0.01,0.02,0.03,0.02,0.04l44.09,73.61l73.9-44.26c48.56-29.19,64.26-92.23,35.07-140.79L80.48,4833.62z"/>
				<path class="st4" d="M-152.29,5768.42c-0.55,0-1.11-0.07-1.64-0.2c-3.61-0.9-5.8-4.56-4.89-8.17c0,0,0,0,0,0l197.69-788.19
					c0.91-3.61,4.56-5.8,8.17-4.9c3.61,0.91,5.8,4.56,4.9,8.17l0,0l-197.69,788.19C-146.5,5766.32-149.2,5768.42-152.29,5768.42
					L-152.29,5768.42z M82.8,4831.13c-0.55,0-1.11-0.07-1.64-0.2c-3.61-0.9-5.8-4.56-4.89-8.17c0,0,0,0,0,0l17.93-71.5
					c0.91-3.61,4.56-5.8,8.17-4.89c3.61,0.91,5.8,4.56,4.89,8.17l0,0l-17.93,71.5C88.58,4829.02,85.89,4831.12,82.8,4831.13z"/>
				<path class="st4" d="M82.79,4831.13c-3.27,0-6.06-2.35-6.62-5.57l-12.77-72.43c-0.71-3.65,1.68-7.19,5.33-7.89
					c3.65-0.71,7.19,1.68,7.89,5.33c0.01,0.07,0.03,0.15,0.04,0.22l12.77,72.43c0.65,3.66-1.8,7.16-5.46,7.8
					C83.58,4831.09,83.18,4831.13,82.79,4831.13z"/>
				<path class="st4" d="M82.79,4831.12c-3.72,0-6.73-3.02-6.73-6.74c0-1.52,0.51-2.99,1.45-4.18l45.72-57.76
					c2.41-2.83,6.66-3.18,9.49-0.77c2.7,2.29,3.16,6.28,1.06,9.13l-45.7,57.76C86.8,4830.19,84.85,4831.13,82.79,4831.12z"/>
			</g>
			
				<ellipse transform="matrix(0.9946 -0.1042 0.1042 0.9946 -536.7657 28.059)" class="st6" cx="0.29" cy="5153.73" rx="25.39" ry="25.32"/>
			<path class="st4" d="M0.29,5213.9c-33.23,0-60.17-26.94-60.17-60.17c0-33.23,26.94-60.17,60.17-60.17s60.17,26.94,60.17,60.17
				C60.42,5186.94,33.5,5213.86,0.29,5213.9z M0.29,5107.03c-25.79,0-46.7,20.91-46.7,46.7c0,25.79,20.91,46.7,46.7,46.7
				s46.7-20.91,46.7-46.7C46.96,5127.95,26.07,5107.06,0.29,5107.03L0.29,5107.03z"/>
		</g>
		<g transform="translate(283.0 624.0) rotate(17.61912879191962 25.5 43.5) scale(0.4812592005435398 0.4808144001149533)">
			<g>
				<path class="st4" d="M1343.95,5254.22c-3.43,0-6.31-2.58-6.69-5.99l-33.45-300.83c-0.38-3.7,2.32-7.01,6.02-7.38
					c3.65-0.37,6.93,2.25,7.37,5.89l33.45,300.83c0.41,3.7-2.25,7.03-5.95,7.44C1344.46,5254.21,1344.21,5254.22,1343.95,5254.22z"
					/>
				<path class="st4" d="M1241.21,4957.08c-26.11-0.07-47.23-21.29-47.16-47.41c0.03-10.71,3.69-21.09,10.38-29.44
					c7.82-9.82,19.26-16.1,31.74-17.44l130.74-14.5c25.96-2.85,49.31,15.88,52.17,41.84c2.8,25.94-15.91,49.27-41.84,52.16
					l-130.74,14.49C1244.74,4956.98,1242.97,4957.08,1241.21,4957.08z M1372.16,4861.47c-1.26,0-2.52,0.07-3.77,0.21l-130.74,14.5
					c-18.55,2.12-31.88,18.87-29.76,37.42c2.1,18.43,18.67,31.73,37.12,29.8l130.74-14.5c18.56-2.03,31.96-18.72,29.93-37.28
					c-0.98-8.93-5.46-17.1-12.47-22.71C1387.24,4864.09,1379.82,4861.47,1372.16,4861.47z M1232.06,4926.75
					c-3.6,0-7.1-1.23-9.89-3.51c-6.82-5.49-7.9-15.47-2.42-22.29c2.64-3.28,6.47-5.37,10.65-5.82l148.4-16.46
					c8.69-0.96,16.51,5.3,17.47,13.99c0,0.02,0,0.03,0.01,0.05c0.94,8.7-5.34,16.51-14.03,17.48l-148.4,16.46
					C1233.26,4926.71,1232.66,4926.75,1232.06,4926.75z M1231.89,4908.52c-0.64,0.07-1.23,0.39-1.64,0.89
					c-0.39,0.48-0.57,1.1-0.5,1.72c0.06,0.64,0.38,1.23,0.88,1.64c0.48,0.4,1.1,0.58,1.72,0.5l148.4-16.46
					c1.3-0.11,2.26-1.26,2.14-2.56c0-0.02,0-0.03,0-0.05c-0.07-0.64-0.38-1.23-0.88-1.64c-0.48-0.4-1.1-0.58-1.72-0.5
					L1231.89,4908.52z M1393.58,5080.78c-9.1,0-23.63-4.08-44.25-12.41c-16.22-6.55-29.96-13.25-30.53-13.52
					c-3.35-1.63-4.74-5.66-3.11-9c0.43-0.89,1.06-1.68,1.83-2.3c5.1-4.1,50.36-40.13,69.93-42.3c21.98-2.42,41.77,13.39,44.26,35.36
					c2.29,21.89-13.49,41.55-35.36,44.03C1395.42,5080.74,1394.5,5080.78,1393.58,5080.78z M1334.51,5047.36
					c21.21,9.67,50.16,21.01,60.35,19.88c7.01-0.78,13.42-4.34,17.8-9.88c4.38-5.41,6.42-12.34,5.66-19.26
					c-1.64-14.59-14.79-25.09-29.38-23.47C1378.8,5015.76,1353.04,5033.24,1334.51,5047.36z"/>
				<path class="st4" d="M1251.46,5096.38c-9.13,0.02-17.99-3.1-25.1-8.82c-8.22-6.55-13.47-16.13-14.58-26.58
					c-2.41-21.97,13.4-41.75,35.36-44.25c8.77-0.98,24.16,3.04,47.02,12.26c16.22,6.55,29.97,13.25,30.54,13.52
					c3.34,1.63,4.73,5.66,3.1,9.01c-0.43,0.89-1.06,1.67-1.83,2.3c-5.1,4.1-50.36,40.13-69.93,42.31
					C1254.51,5096.3,1252.98,5096.38,1251.46,5096.38z M1250.15,5030.05c-0.51,0-1.02,0.02-1.53,0.08
					c-14.58,1.67-25.06,14.81-23.46,29.39c0.73,6.9,4.19,13.21,9.62,17.54c5.56,4.46,12.68,6.51,19.76,5.69
					c10.14-1.12,35.9-18.6,54.43-32.73C1288.75,5040.79,1261.43,5030.05,1250.15,5030.05z"/>
			</g>
		</g>
		
			<g transform="translate(610.0 644.0) rotate(12.678264168729324 -10.5 39.5) translate(-0.0 0.0) scale(-0.4751131221719457 0.4759036144578313)">
			<path class="st4" d="M-1570.25,5246.03c-3.72,0-6.73-3.02-6.73-6.74l0-316.32c0-3.72,3.02-6.73,6.74-6.73
				c3.72,0,6.73,3.02,6.73,6.73l0,316.32C-1563.51,5243.02-1566.53,5246.03-1570.25,5246.03z"/>
			<path class="st4" d="M-1570.25,4972.59c-27.4,0-49.61-22.21-49.61-49.62c0-27.4,22.21-49.61,49.61-49.61
				c27.4,0,49.61,22.21,49.61,49.61C-1520.66,4950.36-1542.86,4972.56-1570.25,4972.59z M-1570.25,4886.83
				c-19.96,0-36.14,16.18-36.14,36.15c0,19.96,16.18,36.15,36.14,36.15s36.14-16.18,36.14-36.15l0,0
				C-1534.13,4903.02-1550.29,4886.85-1570.25,4886.83z"/>
		</g>
		<g transform="translate(577.0 567.0) rotate(346.2249644886012 -19.0 72.5) scale(-0.4400389087035064 0.441099524220927)">
			<g>
				<path class="st4" d="M1005.48,5956.07c-3.63,0-6.61-2.87-6.74-6.5l-25.65-724.52c-0.1-3.72,2.84-6.82,6.56-6.91
					c3.67-0.1,6.74,2.77,6.91,6.44l25.65,724.52c0.13,3.72-2.77,6.84-6.49,6.97c0,0,0,0,0,0L1005.48,5956.07z"/>
				<path class="st4" d="M983.36,5332.53c-2.26,0-4.38-1.14-5.62-3.03l-43.06-65.4c-2.05-3.11-1.19-7.28,1.92-9.33
					c3.11-2.05,7.28-1.19,9.33,1.92l36.97,56.16l32.96-58.73c1.78-3.27,5.87-4.47,9.14-2.7s4.47,5.87,2.7,9.14
					c-0.03,0.05-0.06,0.1-0.09,0.15l-38.37,68.38c-1.15,2.05-3.29,3.35-5.64,3.44L983.36,5332.53z"/>
				<path class="st4" d="M985.71,5400.32c-2.28,0-4.4-1.15-5.64-3.06l-62.22-95.4c-2.04-3.11-1.18-7.28,1.93-9.33
					c3.11-2.04,7.28-1.18,9.33,1.93c0.01,0.02,0.02,0.03,0.03,0.05l56.13,86.05l50.05-89.92c1.7-3.31,5.76-4.61,9.07-2.9
					c3.31,1.7,4.61,5.76,2.9,9.07c-0.07,0.13-0.14,0.26-0.21,0.38l-55.48,99.68c-1.15,2.06-3.29,3.37-5.65,3.46L985.71,5400.32z"/>
				<path class="st4" d="M988.54,5477.77c-2.26,0-4.38-1.14-5.62-3.03l-80.72-122.56c-1.99-3.14-1.07-7.3,2.07-9.3
					c3.07-1.95,7.12-1.11,9.17,1.89l74.64,113.33l66.45-118.39c1.78-3.27,5.87-4.47,9.14-2.7c3.27,1.78,4.47,5.87,2.7,9.14
					c-0.03,0.05-0.06,0.1-0.09,0.15l-71.86,128.03c-1.15,2.05-3.28,3.35-5.63,3.44L988.54,5477.77z"/>
				<path class="st4" d="M991.13,5552.38c-2.26,0-4.37-1.14-5.61-3.03l-95.37-144.71c-2.1-3.07-1.31-7.26,1.76-9.36
					s7.26-1.31,9.36,1.77c0.04,0.06,0.08,0.12,0.12,0.19l89.29,135.48l79.6-141.54c1.82-3.24,5.93-4.39,9.17-2.57
					s4.39,5.93,2.57,9.17l-85.02,151.17c-1.15,2.05-3.29,3.35-5.64,3.43C991.29,5552.38,991.21,5552.38,991.13,5552.38z"/>
			</g>
		</g>
		<g transform="translate(533.0 667.0) rotate(0.0 9.0 21.0) scale(0.4812834224598931 0.47565118912797283)">
			<path class="st4" d="M357.19,5362.07c-3.15,0-5.87-2.19-6.56-5.26l-25.94-115.13c-0.82-3.63,1.46-7.23,5.09-8.05
				c3.63-0.82,7.23,1.46,8.05,5.09l25.93,115.14c0.82,3.63-1.46,7.23-5.09,8.05C358.18,5362.01,357.68,5362.07,357.19,5362.07z"/>
			<ellipse class="st1" cx="323.51" cy="5205.81" rx="16.96" ry="16.77"/>
			<path class="st4" d="M323.51,5247.79c-23.19,0-41.98-18.8-41.98-41.98s18.8-41.98,41.98-41.98s41.98,18.8,41.98,41.98l0,0
				C365.47,5228.99,346.68,5247.77,323.51,5247.79z M323.51,5177.3c-15.75,0-28.51,12.77-28.51,28.51s12.77,28.51,28.51,28.51
				s28.51-12.77,28.51-28.51C352,5190.07,339.25,5177.32,323.51,5177.3z"/>
		</g>
		
			<g transform="translate(1065.0 519.0) rotate(354.10794981328013 28.5 133.0) translate(0.0 0.0) scale(0.49401976079043164 0.49206407932220947)">
			<path class="st2" d="M1327.39,4771.53c-13.55-0.01-24.55,10.96-24.56,24.52v0.02c0-13.55-10.99-24.54-24.54-24.54h-0.02
				c-13.55,0-24.54,10.99-24.54,24.54c0-13.55-10.99-24.54-24.54-24.54h-0.02c-13.55-0.01-24.55,10.96-24.56,24.52v0.02
				c0-13.54-10.96-24.51-24.49-24.54c-13.55-0.09-24.61,10.83-24.7,24.38v0.16c0-13.55-10.99-24.54-24.54-24.54
				c-13.55-0.01-24.55,10.96-24.56,24.52l0,102.78c-0.01,67.8,54.94,122.77,122.74,122.78h0.04c67.81,0,122.78-54.97,122.78-122.78
				v-102.75C1351.89,4782.53,1340.93,4771.55,1327.39,4771.53z"/>
			<g>
				<path class="st4" d="M1229.11,5028.33c-34.63-0.01-67.15-13.48-91.6-37.94c-24.45-24.46-37.92-56.98-37.91-91.57v-102.75
					c0.02-17.26,14.04-31.27,31.27-31.27h0.03c9.94,0,18.82,4.67,24.55,11.93c5.96-7.57,15.08-11.98,24.72-11.93
					c9.89,0.02,18.73,4.68,24.45,11.91c5.73-7.26,14.6-11.91,24.54-11.91h0.03c9.95,0,18.82,4.66,24.55,11.91
					c5.73-7.25,14.6-11.91,24.54-11.91c9.95,0,18.83,4.66,24.56,11.91c5.73-7.25,14.6-11.91,24.54-11.91h0.04
					c17.21,0.03,31.22,14.06,31.22,31.27v102.75C1358.62,4970.24,1300.52,5028.33,1229.11,5028.33z M1130.87,4778.26
					c-9.82,0-17.8,7.97-17.81,17.79v102.77c0,30.99,12.06,60.13,33.97,82.05c21.91,21.92,51.04,33.99,82.03,34
					c64.03,0,116.09-52.06,116.09-116.04l0-102.75c0-9.8-7.97-17.79-17.77-17.8h-0.01c-9.81,0-17.79,7.97-17.8,17.79v0.02
					c-0.01,3.72-3.04,6.73-6.76,6.71c-3.64-0.01-6.62-2.92-6.71-6.56v-0.15c0-9.82-7.99-17.8-17.81-17.8
					c-9.84,0-17.83,7.99-17.83,17.8c0,3.72-3.02,6.73-6.73,6.73c-3.72,0-6.74-3.02-6.74-6.73c0-9.82-7.99-17.8-17.8-17.8h-0.02
					c-9.84,0-17.82,7.97-17.83,17.79v0.02c-0.02,3.72-3.05,6.72-6.76,6.71c-3.64-0.02-6.61-2.92-6.7-6.56v-0.14
					c0-9.8-7.97-17.79-17.77-17.8h-0.12c-9.8,0-17.77,7.91-17.83,17.69v0.11c0.03,3.72-2.97,6.76-6.69,6.78
					c-3.72,0.03-6.76-2.97-6.78-6.69v-0.09c0-9.82-7.99-17.8-17.8-17.8H1130.87z"/>
				<path class="st4" d="M1229.17,5978.4c-3.72,0-6.74-3.02-6.74-6.74l0-946.12c0-3.72,3.02-6.74,6.74-6.74
					c3.72,0,6.74,3.02,6.74,6.74l0,946.12C1235.91,5975.39,1232.89,5978.4,1229.17,5978.4z M1302.83,4897.38
					c-3.72,0-6.74-3.02-6.74-6.73l0-96.54c0-3.72,3.02-6.74,6.73-6.74c3.72,0,6.74,3.02,6.74,6.74v96.54
					C1309.57,4894.37,1306.55,4897.38,1302.83,4897.38z M1253.71,4897.38c-3.72,0-6.73-3.02-6.73-6.73v-96.54
					c0-3.72,3.02-6.74,6.74-6.74c3.72,0,6.74,3.02,6.74,6.74l0,96.54C1260.45,4894.37,1257.43,4897.38,1253.71,4897.38z
					 M1204.61,4897.38c-3.72,0-6.74-3.02-6.74-6.74l0-96.54c0-3.72,3.02-6.73,6.73-6.73c3.72,0,6.74,3.02,6.74,6.73l0,96.54
					C1211.35,4894.37,1208.33,4897.38,1204.61,4897.38z M1155.49,4897.38c-3.72,0-6.73-3.02-6.73-6.74v-96.54
					c0-3.72,3.02-6.73,6.74-6.73c3.72,0,6.73,3.02,6.73,6.73v96.54C1162.23,4894.37,1159.21,4897.38,1155.49,4897.38z"/>
			</g>
		</g>
		
			<g transform="translate(828.0 481.0) rotate(8.127735656508817 31.5 120.0) translate(0.0 0.0) scale(0.5044035228182546 0.49968769519050593)">
			
				<ellipse transform="matrix(0.1414 -0.99 0.99 0.1414 -2746.8206 5479.9048)" class="st2" cx="1785.65" cy="4323.44" rx="32.87" ry="33.18"/>
			<path class="st4" d="M1785.65,4395.96c-40.05,0-72.51-32.47-72.51-72.51c0-40.05,32.47-72.51,72.51-72.51
				s72.51,32.47,72.51,72.51C1858.12,4363.47,1825.68,4395.91,1785.65,4395.96z M1785.65,4264.4c-32.61,0-59.04,26.44-59.04,59.04
				c0,32.61,26.43,59.04,59.04,59.04s59.04-26.44,59.04-59.04C1844.65,4290.85,1818.24,4264.43,1785.65,4264.4z"/>
			
				<ellipse transform="matrix(0.1414 -0.99 0.99 0.1414 -2825.9709 5669.2695)" class="st2" cx="1855.24" cy="4463.75" rx="32.87" ry="33.18"/>
			<path class="st4" d="M1855.24,4536.27c-40.05,0-72.51-32.47-72.51-72.51c0-40.05,32.47-72.51,72.51-72.51
				c40.05,0,72.51,32.47,72.51,72.51C1927.71,4503.78,1895.27,4536.22,1855.24,4536.27z M1855.24,4404.71
				c-32.61,0-59.04,26.44-59.04,59.04c0,32.61,26.43,59.04,59.04,59.04c32.61,0,59.04-26.44,59.04-59.04
				C1914.25,4431.16,1887.84,4404.75,1855.24,4404.71z"/>
			
				<ellipse transform="matrix(0.1414 -0.99 0.99 0.1414 -2942.2905 5542.3472)" class="st2" cx="1723.91" cy="4467.35" rx="32.87" ry="33.18"/>
			<path class="st4" d="M1723.91,4539.86c-40.05,0-72.51-32.47-72.51-72.51s32.47-72.51,72.51-72.51s72.51,32.47,72.51,72.51
				C1796.38,4507.38,1763.94,4539.81,1723.91,4539.86z M1723.91,4408.3c-32.61,0-59.04,26.43-59.04,59.04
				c0,32.61,26.43,59.04,59.04,59.04s59.04-26.44,59.04-59.04l0,0C1782.92,4434.75,1756.5,4408.34,1723.91,4408.3z"/>
			
				<ellipse transform="matrix(0.1414 -0.99 0.99 0.1414 -2967.1799 5798.7744)" class="st2" cx="1859.28" cy="4609.91" rx="32.87" ry="33.18"/>
			<path class="st4" d="M1859.28,4682.42c-40.05,0-72.51-32.47-72.51-72.51c0-40.05,32.47-72.51,72.51-72.51
				s72.51,32.47,72.51,72.51C1931.75,4649.94,1899.31,4682.38,1859.28,4682.42z M1859.28,4550.86c-32.61,0-59.04,26.44-59.04,59.04
				c0,32.61,26.43,59.04,59.04,59.04s59.04-26.44,59.04-59.04C1918.29,4577.31,1891.88,4550.9,1859.28,4550.86z"/>
			
				<ellipse transform="matrix(0.1414 -0.99 0.99 0.1414 -3083.4722 5671.4229)" class="st2" cx="1727.73" cy="4613.27" rx="32.87" ry="33.18"/>
			<g>
				<path class="st4" d="M1727.73,4685.79c-40.05,0-72.51-32.47-72.51-72.51c0-40.05,32.47-72.51,72.51-72.51
					s72.51,32.47,72.51,72.51C1800.19,4653.3,1767.76,4685.74,1727.73,4685.79z M1727.73,4554.23c-32.61,0-59.04,26.44-59.04,59.04
					c0,32.61,26.43,59.04,59.04,59.04c32.61,0,59.04-26.44,59.04-59.04C1786.73,4580.68,1760.32,4554.27,1727.73,4554.23z"/>
				<path class="st4" d="M1812.81,5329.21c-3.65,0-6.64-2.9-6.73-6.55l-26.25-968.09c-0.1-3.72,2.83-6.82,6.55-6.92
					c3.72-0.1,6.82,2.83,6.92,6.55l0,0l26.25,968.09c0.1,3.72-2.83,6.81-6.55,6.92c0,0,0,0,0,0L1812.81,5329.21z"/>
			</g>
		</g>
		<g transform="translate(242.0 656.0) rotate(0.0 17.0 27.5) scale(0.422880312433925 0.41920092681514004)">
			<g>
				<path class="st1" d="M-498.62,5961.46l-1.35-20.43c-1.14-17.85-8.44-34.75-20.65-47.82l-8.98-9.65l167.03-11l-7.63,10.78
					c-10.42,14.61-15.42,32.39-14.14,50.29l1.35,20.43c2.12,31.86-21.99,59.4-53.85,61.51c0,0,0,0-0.01,0h-0.02
					c-31.91,2.18-59.54-21.92-61.72-53.83L-498.62,5961.46z"/>
				<g>
					<path class="st4" d="M-440.92,6022.44c-33.95-0.06-62.08-26.37-64.4-60.24l-0.02-0.29l-1.35-20.43
						c-1.06-16.29-7.72-31.72-18.86-43.66l-8.98-9.67c-2.53-2.72-2.38-6.98,0.34-9.52c1.14-1.06,2.6-1.69,4.15-1.79l167.03-11
						c3.71-0.25,6.92,2.56,7.17,6.27c0.1,1.54-0.33,3.08-1.23,4.34l-7.63,10.78c-9.5,13.34-14.07,29.57-12.92,45.92l1.35,20.47
						c2.36,35.55-24.53,66.28-60.08,68.67h-0.07C-437.93,6022.38-439.43,6022.44-440.92,6022.44z M-491.9,5961.01v0.14
						c1.86,28.2,26.22,49.56,54.42,47.7c0.03,0,0.06,0,0.09-0.01h0.09c28.15-1.87,49.45-26.2,47.58-54.35c0,0,0,0,0,0l-1.35-20.43
						c-1.34-19.12,3.89-38.12,14.83-53.86l-138.78,9.13c12.86,14.12,20.54,32.19,21.78,51.25L-491.9,5961.01z"/>
					<path class="st4" d="M-430.6,6121.08c-3.54,0-6.48-2.75-6.71-6.29l-11-164.56c-0.3-3.71,2.46-6.96,6.16-7.26
						c3.71-0.3,6.96,2.46,7.26,6.17c0.01,0.07,0.01,0.13,0.01,0.2l11,164.56c0.25,3.71-2.56,6.92-6.27,7.17
						C-430.3,6121.08-430.45,6121.08-430.6,6121.08z M-446.09,5883.8c-1.67,0-3.27-0.62-4.51-1.74l-34.12-30.78
						c-2.8-2.45-3.09-6.7-0.64-9.5c2.45-2.8,6.7-3.09,9.5-0.64c0.05,0.05,0.1,0.09,0.16,0.14l34.12,30.78
						c2.76,2.49,2.98,6.75,0.49,9.51C-442.36,5882.99-444.18,5883.8-446.09,5883.8z"/>
					<path class="st4" d="M-446.09,5883.8c-3.53,0-6.46-2.73-6.72-6.25l-3.14-43.8c-0.32-3.71,2.43-6.97,6.14-7.29
						c3.71-0.32,6.97,2.43,7.29,6.14c0.01,0.06,0.01,0.12,0.01,0.19l1.95,27.21l18.49-22.07c2.39-2.85,6.64-3.23,9.49-0.84
						s3.23,6.64,0.84,9.49l-29.19,34.82C-442.2,5882.92-444.09,5883.8-446.09,5883.8z"/>
				</g>
			</g>
		</g>
		<g transform="translate(778.0 615.0) rotate(349.3150029726987 31.5 48.0) scale(0.46871861259290676 0.47359229623198135)">
			<path class="st4" d="M102.24,5602.73c-3.72,0-6.74-3.02-6.74-6.73l0-329.79c0-3.72,3.02-6.73,6.74-6.73s6.74,3.02,6.74,6.73
				l0,329.79C108.97,5599.71,105.96,5602.73,102.24,5602.73z"/>
			<path class="st6" d="M191.36,5264.41H13.11c-30.38-0.61-54.51-25.74-53.89-56.11c0.6-29.51,24.38-53.3,53.89-53.89h178.25
				c30.38-0.62,55.51,23.5,56.13,53.88c0.62,30.38-23.5,55.51-53.88,56.13H191.36z"/>
			<g>
				<path class="st4" d="M191.36,5271.14H13.11c-34.1,0.04-61.77-27.56-61.81-61.66c-0.04-34.1,27.56-61.77,61.66-61.81h178.41
					c34.03-0.59,62.13,26.44,62.86,60.47c0.65,34.08-26.39,62.26-60.47,63.01L191.36,5271.14z M192.6,5161.12l-179.49,0
					c-26.66,0.67-47.72,22.82-47.05,49.48c0.65,25.77,21.43,46.49,47.2,47.06h180.35c26.65-0.84,47.57-23.13,46.73-49.78
					C239.52,5182.02,218.47,5161.4,192.6,5161.12z M180.14,5418.41c-21.54,0-75.43-33.79-81.51-37.64
					c-3.14-1.99-4.07-6.15-2.08-9.29c0.53-0.83,1.23-1.54,2.07-2.07c6.09-3.88,59.97-37.88,81.53-37.88
					c23.99,0.38,43.14,20.13,42.76,44.13c-0.37,23.4-19.21,42.3-42.6,42.76H180.14z M115.03,5375.07
					c22.17,13.32,53.4,29.81,65.02,29.88c16.55-0.43,29.62-14.19,29.2-30.74c-0.41-15.98-13.29-28.83-29.28-29.2
					c-11.43,0-42.72,16.64-64.93,30.07L115.03,5375.07z"/>
				<path class="st4" d="M22.31,5418.64h-0.22c-24.05-0.6-43.07-20.58-42.47-44.64c0.6-24.05,20.58-43.07,44.64-42.47l0,0
					c21.4,0,75.3,34,81.38,37.87c3.14,2,4.06,6.16,2.06,9.3c-0.53,0.83-1.24,1.54-2.07,2.07c-6.07,3.85-59.95,37.64-81.51,37.64
					h-0.07C23.48,5418.56,22.9,5418.64,22.31,5418.64z M23.44,5345c-16.61-0.29-30.32,12.94-30.61,29.55
					c-0.29,16.35,12.53,29.93,28.86,30.59c0.8-0.14,1.61-0.2,2.42-0.19c11.57,0,42.88-16.53,65.11-29.88
					c-22.21-13.43-53.53-30.06-65.11-30.06c-0.23-0.02-0.45-0.02-0.68-0.02V5345z"/>
			</g>
		</g>
		
			<g transform="translate(1036.0 592.0) rotate(347.1999729211968 21.5 81.5) translate(0.0 0.0) scale(0.4979387651118626 0.49585670653800756)">
			<g>
				<path class="st4" d="M510.46,5731.9c-3.63,0-6.61-2.87-6.74-6.5l-25.65-724.52c-0.1-3.72,2.84-6.82,6.56-6.91
					c3.67-0.1,6.74,2.77,6.91,6.44l25.65,724.52c0.13,3.72-2.77,6.84-6.49,6.97c0,0,0,0,0,0L510.46,5731.9z"/>
				<path class="st4" d="M488.34,5108.36c-2.26,0-4.38-1.14-5.62-3.03l-43.06-65.4c-2.05-3.11-1.19-7.28,1.92-9.33
					s7.28-1.19,9.33,1.92l36.97,56.16l32.96-58.73c1.78-3.27,5.87-4.47,9.14-2.7c3.27,1.78,4.47,5.87,2.7,9.13
					c-0.03,0.05-0.06,0.1-0.09,0.15l-38.37,68.38c-1.15,2.05-3.29,3.35-5.64,3.43L488.34,5108.36z"/>
				<path class="st4" d="M490.69,5176.15c-2.28,0-4.4-1.15-5.64-3.06l-62.22-95.4c-2.04-3.11-1.18-7.28,1.93-9.33
					c3.11-2.04,7.28-1.18,9.33,1.93c0.01,0.02,0.02,0.03,0.03,0.05l56.13,86.05l50.05-89.92c1.7-3.31,5.76-4.61,9.07-2.9
					s4.61,5.76,2.9,9.07c-0.07,0.13-0.14,0.26-0.21,0.38l-55.48,99.68c-1.15,2.06-3.29,3.37-5.65,3.46L490.69,5176.15z"/>
				<path class="st4" d="M493.52,5253.59c-2.26,0-4.38-1.14-5.62-3.03L407.18,5128c-1.99-3.14-1.07-7.3,2.07-9.3
					c3.07-1.95,7.12-1.11,9.17,1.89l74.64,113.33l66.45-118.39c1.78-3.27,5.87-4.47,9.14-2.7c3.27,1.78,4.47,5.87,2.7,9.14
					c-0.03,0.05-0.06,0.1-0.09,0.15l-71.86,128.03c-1.15,2.05-3.28,3.35-5.63,3.44L493.52,5253.59z"/>
				<path class="st4" d="M496.11,5328.21c-2.26,0-4.37-1.14-5.61-3.03l-95.37-144.71c-2.1-3.07-1.31-7.26,1.76-9.36
					c3.07-2.1,7.26-1.31,9.36,1.77c0.04,0.06,0.08,0.12,0.12,0.19l89.29,135.48l79.6-141.54c1.82-3.24,5.93-4.39,9.17-2.57
					c3.24,1.82,4.39,5.93,2.57,9.17l-85.02,151.17c-1.15,2.05-3.29,3.35-5.64,3.43C496.27,5328.21,496.19,5328.21,496.11,5328.21z"
					/>
			</g>
		</g>
		<g transform="translate(998.0 642.0) rotate(0.0 15.0 60.5) translate(0.0 0.0) scale(0.4813863928112965 0.4768566868312676)">
			<ellipse class="st2" cx="1551.14" cy="5152.42" rx="60.3" ry="60.19"/>
			<g>
				<path class="st4" d="M1551.14,5219.35c-36.96,0-67.04-30.02-67.04-66.93c0-36.9,30.07-66.93,67.04-66.93
					c36.96,0,67.04,30.02,67.04,66.93C1618.18,5189.33,1588.11,5219.35,1551.14,5219.35z M1551.14,5098.97
					c-29.54,0-53.57,23.98-53.57,53.46c0,29.48,24.03,53.46,53.57,53.46s53.57-23.98,53.57-53.46
					C1604.71,5122.95,1580.68,5098.97,1551.14,5098.97z"/>
				<path class="st4" d="M1617.27,5655.16c-3.37-0.01-6.22-2.5-6.67-5.85l-66.14-496c-0.45-3.69,2.18-7.05,5.87-7.5
					c3.64-0.44,6.96,2.1,7.48,5.72l66.14,496c0.49,3.69-2.1,7.07-5.78,7.57C1617.87,5655.14,1617.57,5655.16,1617.27,5655.16z"/>
			</g>
		</g>
		
			<g transform="translate(471.0 607.0) rotate(329.2652832810705 36.0 66.5) translate(0.0 0.0) scale(0.45502806006370394 0.4536941964666432)">
			<path class="st2" d="M-2336.79,4690.28c-13.6-8.24-31.32-3.9-39.56,9.71l-0.02,0.03c8.25-13.64,3.87-31.38-9.77-39.62
				c-13.64-8.25-31.38-3.87-39.62,9.77l-75.93,124.76l19.82-144.69c1.95-15.8-9.29-30.19-25.09-32.13c-15.44-1.9-29.6,8.79-32,24.16
				c2.4-15.74-8.41-30.44-24.15-32.84s-30.44,8.41-32.84,24.15c-0.04,0.24-0.07,0.47-0.1,0.71l-2.67,19.02l-17.96,128.3
				c-6.36,45.37,14.57,90.23,53.43,114.5l-0.2,0.29c13.99,8.34,29.48,13.85,45.6,16.21v-0.36c45.43,5.7,89.97-15.87,113.67-55.05
				l67.06-110.84l9.95-16.43c8.29-13.58,4.01-31.3-9.56-39.6L-2336.79,4690.28L-2336.79,4690.28z"/>
			<g>
				<path class="st4" d="M-2503.43,4919.86c-4.31,0-8.65-0.23-13-0.69c-0.78,0.17-1.59,0.2-2.39,0.08
					c-16.99-2.47-33.33-8.28-48.07-17.09c-0.69-0.41-1.3-0.94-1.8-1.56c-39.86-25.91-61.27-72.73-54.65-119.94l20.74-148.1
					c2.96-19.39,21.13-32.74,40.52-29.79c11.71,1.79,21.22,9.13,26.26,18.93c7.47-7.59,18.26-11.68,29.69-10.27
					c19.46,2.4,33.35,20.18,30.95,39.64l-15.45,112.74l59.11-97.12c10.14-16.78,32.07-22.18,48.86-12.03
					c10.15,6.13,16.14,16.56,17.05,27.56c1.76-0.74,3.57-1.34,5.42-1.79c9.15-2.27,18.83-0.79,26.89,4.12l0.06,0.04l0.03,0.02l0,0
					c16.74,10.37,21.95,32.18,11.78,48.84l-76.99,127.25C-2420.8,4897.66-2460.89,4919.85-2503.43,4919.86z M-2517.85,4905.48
					c0.28,0,0.56,0.02,0.84,0.05c42.74,5.36,84.77-14.99,107.07-51.85l77.01-127.27c6.36-10.41,3.07-24.02-7.31-30.36l3.46-5.78
					l-3.49,5.76c-5-3.05-11.01-3.97-16.7-2.56c-5.68,1.38-10.57,4.97-13.6,9.97l-0.03,0.06c-1.91,3.19-6.04,4.23-9.24,2.33
					c-3.19-1.91-4.23-6.04-2.33-9.24c0.01-0.02,0.02-0.04,0.04-0.06c6.31-10.44,2.95-24.07-7.49-30.38
					c-10.44-6.31-24.07-2.95-30.38,7.49l-75.94,124.77c-1.94,3.18-6.09,4.18-9.26,2.24c-2.28-1.39-3.52-4-3.17-6.65l19.82-144.69
					c0.71-5.77-0.89-11.55-4.52-16.2c-3.63-4.65-8.86-7.61-14.71-8.33c-11.85-1.51-22.74,6.71-24.53,18.52
					c-0.57,3.68-4.01,6.2-7.68,5.63c-3.68-0.57-6.2-4.01-5.63-7.68c1.84-12.04-6.46-23.33-18.51-25.17
					c-12.04-1.84-23.33,6.46-25.17,18.51l-2.76,19.64l-17.96,128.3c-5.99,42.68,13.77,85.02,50.33,107.85
					c0.57,0.36,1.08,0.79,1.51,1.29c12.12,6.95,25.38,11.67,39.16,13.93C-2518.62,4905.52-2518.24,4905.48-2517.85,4905.48z"/>
				<path class="st4" d="M-2433.84,4801.74c-3.72,0-6.73-3.02-6.73-6.74c0-1.23,0.34-2.43,0.97-3.48l58.66-96.96
					c2-3.14,6.16-4.06,9.3-2.07c3.04,1.93,4.02,5.92,2.22,9.04l-58.66,96.96C-2429.3,4800.51-2431.48,4801.75-2433.84,4801.74z
					 M-2664.71,5260.47c-3.72,0-6.74-3.01-6.74-6.73c0-0.77,0.13-1.53,0.39-2.26l140.4-395.01c1.21-3.52,5.04-5.39,8.56-4.17
					c3.52,1.21,5.39,5.04,4.17,8.56c-0.01,0.04-0.03,0.08-0.04,0.12l-140.4,395.01
					C-2659.32,5258.67-2661.86,5260.47-2664.71,5260.47z M-2554.25,4758.93c-3.72,0-6.74-3.01-6.74-6.73c0-0.32,0.02-0.63,0.07-0.94
					l15.69-112.23c0.52-3.68,3.92-6.25,7.6-5.74s6.25,3.92,5.74,7.6l-15.69,112.23C-2548.06,4756.45-2550.9,4758.93-2554.25,4758.93
					z"/>
				<path class="st4" d="M-2541.35,4913.41c-3.72,0-6.74-3.02-6.73-6.74c0-0.77,0.13-1.53,0.39-2.25l39.74-111.76
					c1.25-3.5,5.1-5.34,8.6-4.09s5.34,5.1,4.09,8.6l-39.74,111.76C-2535.96,4911.62-2538.5,4913.41-2541.35,4913.41z"/>
			</g>
		</g>
		<g transform="translate(753.0 668.0) rotate(0.0 9.0 21.0) scale(0.4812834224598931 0.47565118912797283)">
			<path class="st4" d="M926.3,5364.68c-3.15,0-5.87-2.19-6.56-5.26l-25.94-115.13c-0.82-3.63,1.46-7.23,5.09-8.05
				c3.63-0.82,7.23,1.46,8.05,5.09l25.93,115.14c0.82,3.63-1.46,7.23-5.09,8.05C927.29,5364.63,926.8,5364.68,926.3,5364.68z"/>
			<ellipse class="st6" cx="892.62" cy="5208.43" rx="16.96" ry="16.77"/>
			<path class="st4" d="M892.62,5250.41c-23.19,0-41.98-18.8-41.98-41.98s18.8-41.98,41.98-41.98s41.98,18.8,41.98,41.98l0,0
				C934.58,5231.6,915.8,5250.39,892.62,5250.41z M892.62,5179.92c-15.75,0-28.51,12.77-28.51,28.51s12.77,28.51,28.51,28.51
				c15.75,0,28.51-12.77,28.51-28.51C921.12,5192.69,908.36,5179.94,892.62,5179.92z"/>
		</g>
		<g transform="translate(950.0 206.0) rotate(0.0 -34.0 25.0) scale(-0.43556517784510534 0.4338018393197987)">
			<path class="st1" d="M-1336.5,4467.26c-1.72,0.2-34-7.93-39.12-9.49l55.36-108.81c1.04-2.04,3.13-3.32,5.41-3.32h0.08
				c2.32,0.03,4.41,1.38,5.4,3.47l28.14,59.32c0.06,0.12,0.11,0.24,0.16,0.36c4.47,11.27,3.82,23.84,0.51,36.15
				C-1281.31,4445.32-1317.95,4465.13-1336.5,4467.26z"/>
			<path class="st4" d="M-1336.08,4473.97c-5.54,0-41.17-9.65-41.51-9.75c-3.56-1.08-5.56-4.85-4.48-8.4
				c0.11-0.38,0.26-0.74,0.44-1.09l55.36-108.81c3.21-6.31,10.92-8.81,17.23-5.61c2.52,1.28,4.55,3.37,5.76,5.92l28.14,59.32
				c0.11,0.22,0.21,0.46,0.31,0.69c4.62,11.64,4.87,25.23,0.78,40.44c-0.49,1.85-1.75,3.4-3.45,4.27l-0.21,0.11
				c-9.16,4.86-40.41,20.88-58.03,22.9C-1335.85,4473.97-1335.96,4473.97-1336.08,4473.97z M-1365.86,4453.44
				c10.06,2.6,25.69,6.42,29.28,7.04c11.78-1.63,33.12-11.18,50.22-20.1c2.58-11.18,2.26-20.96-0.97-29.1l-27.54-58.06
				L-1365.86,4453.44z"/>
			<path class="st1" d="M-1271.15,4508.07l93.42-33.68c7.2-2.53,15.09,1.26,17.62,8.47c1,2.85,1.04,5.95,0.11,8.82
				c-1.39,4.05-4.52,7.26-8.53,8.76l-22.45,7.86l19.08,3.14c7.5,1.18,12.63,8.21,11.45,15.71c-1.18,7.5-8.21,12.63-15.72,11.45l0,0
				l-61.35-9.71"/>
			<path class="st4" d="M-1173.97,4545.51c-1.08,0-2.17-0.08-3.24-0.25l-61.36-9.71c-3.67-0.62-6.14-4.1-5.51-7.77
				c0.61-3.61,4-6.07,7.62-5.54l61.35,9.71c2.19,0.34,4.43-0.35,6.04-1.87c1.92-1.79,2.62-4.54,1.8-7.03
				c-0.77-2.62-2.99-4.55-5.69-4.95l-19.11-3.14c-3.67-0.61-6.15-4.08-5.54-7.75c0.4-2.43,2.1-4.44,4.42-5.25l22.32-7.81
				c2.1-0.79,3.74-2.46,4.49-4.57c0.86-2.53,0.16-5.32-1.78-7.15c-1.9-1.94-4.76-2.59-7.32-1.66l-93.39,33.66
				c-3.49,1.3-7.36-0.47-8.66-3.96c-1.3-3.49,0.47-7.36,3.96-8.66c0.04-0.02,0.09-0.03,0.13-0.05l93.42-33.68
				c10.7-3.8,22.45,1.8,26.25,12.5c1.52,4.28,1.58,8.94,0.17,13.26c-1.94,5.7-6.23,10.29-11.78,12.62c5.3,2.45,9.3,7.05,11,12.64
				c2.33,7.42,0.2,15.51-5.46,20.83C-1163.67,4543.5-1168.72,4545.5-1173.97,4545.51z M-1450.05,4482.03l-52.98,5.16l51.86,20.88
				L-1450.05,4482.03z"/>
			<path class="st1" d="M-1426.48,4530.97c9.6,4.41,17.66,11.61,23.12,20.65c6.06,9.78,14.08,18.19,23.57,24.7
				c33.9,23.8,80.37,17.74,108.88-12.35l33.45-35.47l-100.35-64.66c-11.89-4.56-22.85-11.25-32.33-19.76
				c-21.76-19.08-54.86-16.9-73.93,4.85c-14.11,16.09-17.01,39.14-7.34,58.23C-1445.96,4517.65-1437.19,4526.02-1426.48,4530.97z"/>
			<path class="st4" d="M-1333.25,4597.56c-18.02,0.08-35.62-5.42-50.4-15.73c-10.24-7.01-18.9-16.09-25.42-26.65
				c-4.75-7.9-11.76-14.19-20.13-18.05l-0.07-0.03c-12.07-5.56-21.94-14.98-28.06-26.77c-14.87-29.06-3.36-64.68,25.7-79.54
				c21.6-11.05,47.76-7.78,65.98,8.25c8.87,7.95,19.12,14.22,30.24,18.49c0.44,0.17,0.87,0.38,1.27,0.64l100.35,64.66
				c3.13,2.02,4.03,6.18,2.01,9.31c-0.22,0.35-0.48,0.67-0.76,0.97l-33.45,35.47C-1283.49,4587.05-1307.81,4597.53-1333.25,4597.56z
				 M-1423.72,4524.82c10.82,4.95,19.91,13.05,26.08,23.23c5.55,9,12.93,16.73,21.66,22.7c30.62,21.5,73.67,16.57,100.2-11.42
				l27.88-29.56l-92.95-59.89c-12.39-4.85-23.81-11.87-33.73-20.74c-18.97-16.61-47.82-14.7-64.43,4.28
				c-12.26,14-14.79,34.04-6.41,50.65C-1440.69,4513.2-1433.05,4520.5-1423.72,4524.82L-1423.72,4524.82z"/>
			<ellipse class="st4" cx="-1422.44" cy="4488.76" rx="5.87" ry="5.84"/>
			<path class="st8" d="M-1383.24,4517.42c-1.97-1.47-3.75-3.18-5.29-5.09c-0.12-0.17-0.24-0.34-0.35-0.51
				c-4.68-7.58-6.27-16.67-4.44-25.4c1.21-5.43,0.36-11.11-2.41-15.94c-0.36-0.5-0.67-1-0.99-1.51c-0.18-0.29-0.35-0.58-0.57-0.87
				c-0.11-0.14-0.21-0.29-0.31-0.45c-6.09-9.75-18.92-12.72-28.67-6.64l-25.82,16.16c-3.15,1.97-7.31,1.01-9.28-2.14
				c-0.94-1.5-1.25-3.32-0.86-5.04c3.08-13.79,11.1-25.98,22.56-34.25c22.37-16.55,53.28-15.16,74.07,3.35
				c7.87,7.17,16.9,12.95,26.72,17.08l122.24-94.64c2.94-2.28,7.17-1.74,9.45,1.2c0.91,1.18,1.41,2.63,1.41,4.12v72.74
				c0,0.15,0,0.29-0.02,0.45c-3.05,46.47-74.53,79.19-82.1,82.52c-13.22,8.55-28.62,13.11-44.37,13.13
				C-1350.86,4535.7-1368.88,4529.24-1383.24,4517.42z"/>
			<path class="st2" d="M-1341.67,4469.5c-3.13-2.01-4.04-6.18-2.03-9.31c0.42-0.65,0.94-1.22,1.55-1.69l125.5-96.98
				c2.94-2.27,7.17-1.73,9.45,1.21c0.91,1.18,1.41,2.63,1.41,4.12v27.61c-0.1,25.04-13.4,48.16-35,60.82l-27.37,15.93
				c-10.69,6.3-22.88,9.63-35.29,9.64C-1317.02,4480.82-1330.29,4476.88-1341.67,4469.5z"/>
		</g>
		<g transform="translate(333.0 77.0) rotate(0.0 206.5 228.5) scale(0.5025841098237548 0.5029644083894903)">
			<path class="st1" d="M329.03,4404.59c-26.42,19.67-57.8,42.83-80.51,58.73c-57.25,40.41-240.89,107.99-254.59,62.19
				c-8.31-27.84,43.1-35.92,130.66-74.09c-83.29,20.21-145.93,28.96-151.09-0.45c-5.16-29.41,79.25-49.39,143.46-64.43
				c-45.12-9.2-106.41-19.53-106.86-42.66c-0.45-33.45,52.53-26.72,87.78-26.04c78.35,1.8,88.68-35.02,120.78-72.96
				c9.73-11.15,21.68-20.14,35.09-26.38"/>
			<path class="st4" d="M27.91,4547.48c-7.66,0.21-15.3-0.84-22.63-3.09c-11.73-4.05-16.16-11.45-17.8-16.94
				c-5.6-18.76,10.88-29.11,16.29-32.52c11.07-6.96,27.78-13.63,48.81-21.75c-38.52,5.86-61.48,4.36-74.39-4.08
				c-6.04-3.76-10.16-9.93-11.33-16.95c-5.16-29.37,46.3-47.13,118.89-65.05c-42.88-8.98-81.94-19.77-82.39-43.07
				c-0.4-7.93,2.6-15.65,8.25-21.23c14.68-14.33,45.55-13.15,72.76-12.12c4.71,0.18,9.31,0.35,13.64,0.44
				c61.03,1.4,78.08-21.44,99.71-50.36c4.9-6.55,9.97-13.32,15.8-20.22c10.35-11.86,23.05-21.43,37.31-28.1
				c3.4-1.51,7.38,0.03,8.89,3.43c1.44,3.24,0.11,7.05-3.03,8.7c-12.55,5.85-23.75,14.25-32.88,24.66
				c-5.58,6.59-10.52,13.2-15.3,19.59c-23.01,30.76-42.97,57.32-110.78,55.76c-4.62-0.1-9.25-0.25-13.87-0.45
				c-23.31-0.89-52.3-1.99-62.84,8.31c-2.98,3-4.51,7.15-4.18,11.36c0.31,15.87,56.85,27.19,90.63,33.96
				c3.69,0.74,7.32,1.47,10.85,2.19c3.64,0.74,6,4.3,5.25,7.95c-0.53,2.58-2.5,4.61-5.06,5.21c-30.51,7.15-68.47,16.04-96.94,26.59
				c-38.17,14.14-42.33,24.94-41.42,30.12c0.54,3.34,2.53,6.27,5.44,8c20.4,13.34,88.2-0.99,137.43-12.94
				c3.61-0.88,7.26,1.34,8.14,4.95c0.78,3.18-0.85,6.46-3.86,7.77c-24.14,10.52-45.12,18.61-63.66,25.75
				c-46.8,18.03-67.32,26.58-63.24,40.24c0.4,1.35,1.62,5.41,9.29,8.07c42.53,14.7,183.4-37.43,234.96-73.83
				c18.36-12.85,44.64-32.02,80.37-58.63c2.98-2.22,7.2-1.6,9.42,1.38c2.22,2.98,1.6,7.2-1.38,9.42l0,0
				c-35.84,26.68-62.22,45.93-80.67,58.84C209.39,4499.18,90.13,4547.48,27.91,4547.48z"/>
			<path class="st1" d="M243.94,4310.4c-18.36,18.77-34.09,42.66-54.69,63.55c-44,44.9-68.25,77.45-63.98,91.82
				c9.43,32.78,87.74-43.95,162.95-84.59"/>
			<path class="st4" d="M135.5,4480.45c-2.14,0.02-4.27-0.32-6.3-1.02c-5.24-1.91-9.16-6.35-10.41-11.78
				c-3.32-11.2,1.12-32.55,65.64-98.4c10.14-10.62,19.73-21.74,28.75-33.33c8.68-10.78,16.87-20.96,25.93-30.22
				c2.6-2.66,6.87-2.7,9.53-0.1c2.66,2.6,2.7,6.87,0.1,9.53l0,0c-8.61,8.8-16.61,18.73-25.07,29.25
				c-9.29,11.93-19.18,23.39-29.63,34.32c-60.68,61.92-63.8,80.2-62.32,85.18c0.69,2.41,1.55,2.72,1.96,2.86
				c9.76,3.45,42.98-19.86,72.29-40.41c24.31-17.05,51.86-36.37,79.02-51.04c3.27-1.77,7.36-0.55,9.13,2.72
				c1.77,3.27,0.55,7.36-2.72,9.13c-26.47,14.3-53.69,33.38-77.7,50.22C175.58,4464.08,151.36,4480.45,135.5,4480.45L135.5,4480.45z
				"/>
			<path class="st2" d="M583,4011.37l-272.63,148.16c-65.37,35.52-89.56,117.31-54.03,182.67s117.31,89.56,182.67,54.03l88.1-47.87
				l87.56-248.86L583,4011.37z"/>
			<path class="st4" d="M374.81,4419.34c-78.12,0.05-141.5-63.24-141.55-141.36c-0.03-51.87,28.32-99.6,73.9-124.38l272.63-148.15
				c3.27-1.78,7.36-0.57,9.13,2.7c0.16,0.3,0.3,0.62,0.42,0.94l31.65,88.12c0.52,1.46,0.53,3.05,0.02,4.51l-87.56,248.86
				c-0.56,1.57-1.68,2.89-3.14,3.68l-88.1,47.87C421.52,4413.4,398.36,4419.3,374.81,4419.34L374.81,4419.34z M579.32,4021.04
				l-265.73,144.4c-62.1,33.74-85.09,111.44-51.34,173.54c33.74,62.1,111.44,85.09,173.54,51.34l85.82-46.64l85.91-244.16
				L579.32,4021.04z"/>
			<path class="st1" d="M1034.48,3733.56c22.45-15.72,70.14-14.01,87.56-15.72l125.72,62.86c4.49,6.74,22.45,69.6,17.96,96.54
				l-231.24,96.54V3733.56z"/>
			<path class="st4" d="M1034.48,3980.51c-3.72,0-6.73-3.02-6.73-6.74v-240.22c0-2.2,1.07-4.26,2.87-5.52
				c19.5-13.65,54.25-15.14,77.24-16.13c5.46-0.22,10.17-0.45,13.52-0.77c1.26-0.12,2.53,0.11,3.67,0.67l125.72,62.86
				c1.05,0.52,1.94,1.31,2.59,2.29c5.9,8.85,23.66,73.44,19,101.38c-0.38,2.28-1.91,4.21-4.04,5.11l-231.24,96.54
				C1036.26,3980.33,1035.38,3980.51,1034.48,3980.51z M1041.22,3737.27v226.4l218.29-91.13c2.06-25.12-11.77-76.01-16.67-86.76
				l-122.11-61.06c-3.41,0.26-7.58,0.45-12.29,0.65C1089.43,3726.18,1058.33,3727.52,1041.22,3737.27z"/>
			<path class="st6" d="M1602.04,4008.48c-25.78-81.62-108.71-130.9-192.72-114.52l-148.09,21.45l-206.54,213.28l-90.14,123.95
				l-279.21-220.37c-11.72,3.68-23.14,8.25-34.15,13.67c-106.21,52.35-155.02,172.93-114.76,275.84l-91.01,259.63
				c-42.66,35.02-113.6,93.62-187.46,156.48c-43.78,37.04-88.45,75.88-128.64,112.25c-50.51,45.57-94.07,87.11-120.56,116.97
				l252.34,222.93c60.17-67.8,297.69-267.16,433.51-377.16c24.25-19.71,42.58-45.74,52.98-75.21l111.25-317.53
				c1.54-0.93,225.77-72.75,225.77-72.75l-5.84-4.61l2.87,1.43l107.81-155.89l-92.32,135.03l283.11,166.01l139.64-233.03
				l66.23-110.46c3.15-5.3,6-10.77,8.53-16.39C1612.18,4091.5,1614.82,4048.32,1602.04,4008.48L1602.04,4008.48z"/>
			<path class="st3" d="M264.69,5188.91l-81.05,106.41c-12.04,15.77-9.02,38.31,6.74,50.35c0.07,0.06,0.14,0.11,0.22,0.16
				c3.24,2.48,6.89,4.38,10.78,5.61c61.06,13.69,79.7,46.92,75.43,109.56l-259.3,1.8l-70.04-59.94l-46.72-153.91l-55.66,66.36
				l-70.94-60.62l239.09-279.95L264.69,5188.91z M1380.26,4488.17l-49.19,92.79c-17.21,32.61-4.76,73,27.84,90.25
				c2.33,1.26,4.73,2.38,7.18,3.37c61.74,10.1,99.45,72.51,94.07,135.15l-230.11-2.69l-81.07-45.25l-101.03-154.91l-43.08,78.48
				l-82.17-44l158.21-294.03l16.22-30.15L1380.26,4488.17z M694.95,3831.92c-23.35-17.74-62.08-61.87-79.81-38.52l-88.68,114.95
				c-17.74,23.27-13.25,56.52,10.03,74.25c0.02,0.02,0.05,0.04,0.07,0.06l44.24,33.7L694.95,3831.92z"/>
			<path class="st4" d="M770.99,3867.49c5.39-13.52,9.72-26.44,19.3-37.72c0.41-0.47,0.86-0.89,1.36-1.25
				c-1.83-1.89-3.8-3.65-5.89-5.25l-80.37-61.29c-23.09-17.67-56.13-13.29-73.8,9.8c-0.02,0.03-0.04,0.05-0.06,0.08l-16.39,21.55
				l138.97,106.08C759.75,3888.8,766.51,3878.72,770.99,3867.49L770.99,3867.49z"/>
			<path class="st2" d="M1207.59,3884.79c10.21-5.01,21.87-9.74,33.44-10.97c-4.01-17.28-10.03-34.03-17.92-49.91
				c-8.64,9.71-17.83,18.93-27.24,27.9c1.52,8.74,6.39,16.79,9.25,25.09C1206.01,3879.51,1206.83,3882.14,1207.59,3884.79z"/>
			<path class="st4" d="M1382.48,4493.85c-1.2,0-2.37-0.32-3.4-0.93l-283.12-166.01c-3.21-1.88-4.28-6.01-2.4-9.22
				c0.08-0.13,0.16-0.27,0.25-0.39l92.32-135.03c2.13-3.05,6.32-3.8,9.38-1.68c3.01,2.1,3.79,6.23,1.74,9.28L1109,4318.95
				l271.13,158.98l136.21-227.31l66.23-110.46c3.01-5.05,5.73-10.27,8.14-15.64c37.22-81.22,1.56-177.24-79.66-214.46
				c-30.7-14.07-65.04-18.18-98.19-11.75c-3.64,0.77-7.21-1.56-7.98-5.2c-0.77-3.64,1.56-7.21,5.2-7.98
				c0.06-0.01,0.12-0.02,0.18-0.04c95-18.44,186.97,43.62,205.42,138.63c6.97,35.9,2.53,73.08-12.69,106.33
				c-2.62,5.82-5.56,11.48-8.83,16.96l-66.27,110.52l-139.64,233.03C1387.04,4492.61,1384.85,4493.85,1382.48,4493.85
				L1382.48,4493.85z M415.98,4673.15c-3.72,0-6.74-3.01-6.74-6.73c0-0.75,0.13-1.5,0.37-2.21l29.43-85.01
				c1.22-3.52,5.05-5.38,8.57-4.16c3.52,1.22,5.38,5.05,4.16,8.57l-29.43,85.01C421.41,4671.33,418.85,4673.15,415.98,4673.15
				L415.98,4673.15z"/>
			<path class="st4" d="M261.09,5196.77c-1.64,0-3.23-0.6-4.46-1.69L4.29,4972.15c-2.79-2.46-3.05-6.72-0.59-9.51
				c0,0,0.01-0.01,0.01-0.01c24.35-27.44,65.08-66.97,121.09-117.5c37.83-34.24,82.37-73.1,128.8-112.39
				c56.27-47.89,118.87-100.16,186.08-155.36l89.58-255.51c-19.25-50.98-18.07-107.54,3.4-159.56
				c22.34-53.51,63.43-97.03,115.55-122.43c11.33-5.58,23.07-10.28,35.11-14.06c3.55-1.12,7.33,0.86,8.45,4.41
				c1.12,3.55-0.86,7.33-4.41,8.45l0,0c-11.39,3.57-22.48,8.02-33.19,13.29c-101.57,50.06-150.53,167.49-111.46,267.35
				c0.59,1.5,0.62,3.16,0.08,4.68l-91.01,259.63c-0.41,1.16-1.13,2.19-2.08,2.98c-67.7,55.58-130.74,108.21-187.37,156.4
				c-46.33,39.21-90.76,77.97-128.49,112.12c-52.29,47.18-91.11,84.62-115.52,111.42l242.25,214.03
				c66.74-72.13,296.99-265.39,429.8-372.95c23.29-18.92,40.89-43.91,50.86-72.2l111.25-317.52c0.51-1.48,1.53-2.72,2.86-3.53
				c0.88-0.54,2.22-1.35,227.21-73.41c3.55-1.11,7.33,0.86,8.44,4.41c1.1,3.52-0.83,7.27-4.33,8.42
				c-57.02,18.26-200.46,64.27-222.55,71.63l-110.17,314.47c-10.8,30.65-29.86,57.71-55.07,78.2
				c-135.69,109.89-373.12,309.23-432.74,376.4C264.86,5195.94,263.02,5196.77,261.09,5196.77z"/>
			<path class="st3" d="M1063.6,3809.09c0.2-12.96,13.19-41.08,21.87-52.95c-8.31-13.62-15.99-25.09-31.67-38.61
				c-94.12-81.24-240.22-56.13-315.43,42.66l-143.23,193.75c-48.29,63.33-36.28,153.79,26.87,202.32l168.35-327.05
				c34.07-66.13,115.3-92.12,181.44-58.05c62,31.94,89.36,105.93,63.07,170.53c18.98-5.71,38.99-7.17,58.59-4.27
				c4.01-25.96,3.48-52.42-1.55-78.2C1087.91,3838.64,1063.27,3830.58,1063.6,3809.09L1063.6,3809.09z"/>
			<path class="st2" d="M1207.16,4089.57c-5.06,38.06-26.42,72.03-58.52,93.09l-390.63,261.1c-61.85,41.34-145.5,24.71-186.84-37.14
				c-27.21-40.71-30.18-92.97-7.78-136.5l226.97-440.92c34.01-66.16,115.22-92.22,181.38-58.21
				c62.11,31.93,89.51,106.03,63.13,170.69c25.27-7.61,52.22-7.63,77.51-0.06L1207.16,4089.57z"/>
			<path class="st4" d="M683.18,4473.2c-78.11,0.01-141.45-63.3-141.46-141.41c0-22.53,5.37-44.73,15.68-64.76l226.97-440.92
				c35.77-69.45,121.07-96.75,190.52-60.98c60.76,31.29,90.45,101.55,70.56,166.93c22.86-4.67,46.52-3.6,68.86,3.1
				c1.55,0.46,2.88,1.46,3.74,2.82l94.77,147.96c0.86,1.34,1.22,2.95,1.01,4.53c-5.27,39.99-27.71,75.69-61.45,97.79l-390.63,261.1
				C738.51,4464.92,711.16,4473.22,683.18,4473.2z M910.27,3762.81c-47.97,0.04-91.91,26.84-113.91,69.47l-226.97,440.92
				c-32.34,62.84-7.62,140,55.22,172.34c41.35,21.28,90.99,18.45,129.66-7.39l390.63-261.1c29.79-19.5,49.88-50.76,55.23-85.96
				l-92.05-143.72c-23.34-6.52-48.06-6.27-71.25,0.74c-3.56,1.08-7.32-0.94-8.4-4.5c-0.45-1.48-0.37-3.07,0.21-4.5
				c24.62-61.4-1.29-131.46-59.94-162.05C950.64,3767.71,930.6,3762.82,910.27,3762.81L910.27,3762.81z"/>
			<path class="st4" d="M780.14,4101.65c-3.72,0-6.74-3.01-6.74-6.73c0-2.1,0.98-4.08,2.65-5.36c6.69-5.11,165-125.42,256.79-154.32
				c3.56-1.07,7.32,0.96,8.38,4.52c1.04,3.49-0.88,7.18-4.34,8.32c-89.55,28.19-251.05,150.95-252.67,152.19
				C783.05,4101.16,781.61,4101.65,780.14,4101.65L780.14,4101.65z"/>
			<path class="st1" d="M1187.61,4110.18c32.1-30.98,44.45-63.09,114.27-54.78c31.43,3.82,78.13,14.37,80.82-15.72
				c1.8-20.65-52.31-35.25-91.82-47.37c58.82-7.86,135.82-18.41,133.8-45.35c-2.02-26.94-58.82-24.25-134.93-13.47
				c81.49-26.49,127.97-29.41,123.03-54.78c-8.31-41.98-178.48-7.63-233.03,23.35c-32.78,18.63-71.62,41.98-91.15,54.1
				c-7.27,4.5-13.91,9.93-19.76,16.16c-31.65,33.45-38.39,86.66-9.2,122.58C1101.63,4145.87,1166.29,4130.83,1187.61,4110.18
				L1187.61,4110.18z"/>
			<path class="st4" d="M1131.58,4136.14c-1.95,0-3.91-0.05-5.88-0.16c-27.93-1.47-53.87-14.87-71.25-36.78
				c-30.28-37.27-26.18-93.78,9.51-131.49c6.24-6.65,13.32-12.45,21.08-17.25c17.69-10.98,56.6-34.47,91.39-54.25
				c48.04-27.28,183.37-56.93,226.86-37.01c11.37,5.2,15.04,12.77,16.11,18.21c4.37,22.43-18.49,30.86-57.65,41.96
				c31.71-1.25,50.55,2.18,60.76,10.4c5.23,4.03,8.47,10.11,8.89,16.69c2.02,27.06-44.29,38.67-109.47,48.32
				c36.75,11.61,69.29,24.66,67.48,45.49c-0.4,7.37-3.91,14.22-9.65,18.84c-14.8,11.77-42.61,7.92-67.13,4.51
				c-4-0.55-7.88-1.09-11.55-1.54c-53.79-6.4-70.06,11.39-92.6,36.01c-5.04,5.5-10.25,11.19-16.19,16.93
				C1181.1,4125.86,1158.39,4136.14,1131.58,4136.14L1131.58,4136.14z M1360.89,3865.84c-55.02,0-142.11,21.82-177.81,42.09
				c-34.62,19.68-73.34,43.06-90.92,53.97c-6.76,4.18-12.93,9.23-18.37,15.02c-31.1,32.86-34.91,81.75-8.91,113.75
				c15.01,18.96,37.43,30.56,61.58,31.86c25.17,1.41,46.9-7.92,56.48-17.19c5.64-5.44,10.7-10.98,15.6-16.33
				c23.33-25.49,43.47-47.51,104.14-40.29c3.76,0.45,7.72,1,11.79,1.57c20.77,2.88,46.61,6.47,56.9-1.71
				c2.85-2.34,4.54-5.8,4.63-9.49c0.2-2.35-1.56-8.86-22.32-18.32c-15.61-7.11-36.67-13.49-55.24-19.12
				c-3.18-0.96-6.35-1.93-9.53-2.9c-3.56-1.09-5.56-4.86-4.47-8.41c0.77-2.52,2.94-4.35,5.55-4.7c27.82-3.72,62.44-8.34,88.88-15.35
				c25.43-6.73,39.68-15.06,39.1-22.82c-0.17-2.86-1.6-5.5-3.91-7.21c-16.45-13.25-74.57-7.01-123.36-0.1
				c-3.68,0.52-7.09-2.04-7.61-5.73c-0.46-3.24,1.47-6.33,4.58-7.35c22.38-7.28,41.76-12.68,58.84-17.44
				c41.92-11.69,61.96-17.83,59.66-29.63c-0.25-1.25-1.01-5.13-8.5-8.55C1389.14,3867.53,1376.26,3865.83,1360.89,3865.84
				L1360.89,3865.84z"/>
			<path class="st1" d="M1373.07,3656.93c5.36,64.12-42.27,120.44-106.39,125.79c-7.19,0.6-14.42,0.53-21.6-0.2l-31.77,57.36
				c-23.93,39.61-71.08,50.83-111.18,27.28c-41.38-24.3-51.94-79.72-31.74-111.15l77.1-131.73l-12-38.89l154.91-127.97l104.53,64.58
				c5.99,27.69,1.58,56.61-12.4,81.25c-0.2,0.37-0.41,0.73-0.62,1.09"/>
			<path class="st4" d="M1145.8,3886.29c-42.81-0.37-79.8-30.02-89.49-71.72c-5.42-22.7-2.37-45.32,8.35-62.08l75.54-129.06
				l-11.12-36.05c-0.81-2.61,0.04-5.45,2.15-7.18l154.91-127.97c2.22-1.84,5.37-2.05,7.83-0.54l104.53,64.59
				c1.55,0.96,2.65,2.51,3.04,4.29c6.32,29.3,1.66,59.9-13.1,85.98l-0.66,1.15c-1.86,3.22-5.98,4.33-9.2,2.47
				c-3.22-1.86-4.33-5.98-2.47-9.2l0.59-1.04c12.65-22.37,16.99-48.49,12.24-73.74l-97.94-60.5l-147.71,122.02l10.67,34.57
				c0.56,1.8,0.33,3.76-0.63,5.39l-77.1,131.74c-0.05,0.08-0.1,0.16-0.15,0.24c-8.68,13.5-11.17,32.86-6.65,51.79
				c4.8,20.85,17.84,38.86,36.14,49.92c37.14,21.81,79.99,11.36,101.94-24.85l31.7-57.25c1.31-2.36,3.89-3.71,6.58-3.44
				c60.3,6.19,114.21-37.67,120.4-97.97c0.69-6.76,0.76-13.57,0.19-20.34c-0.31-3.71,2.44-6.97,6.14-7.28s6.97,2.44,7.28,6.14
				c5.67,67.82-44.71,127.4-112.54,133.07c-6.12,0.51-12.26,0.57-18.39,0.16l-29.65,53.55l-0.13,0.22
				C1202.22,3871.28,1174.9,3886.29,1145.8,3886.29z"/>
			<path class="st1" d="M1377.97,3585.39l18.5,70.82l-40.58,1.25"/>
			<g>
				<path class="st4" d="M1355.88,3664.19c-3.72,0.06-6.78-2.91-6.84-6.63c-0.06-3.72,2.91-6.78,6.63-6.84l32.14-0.99l-16.36-62.64
					c-1.09-3.56,0.91-7.32,4.47-8.41c3.56-1.09,7.32,0.91,8.41,4.47c0.05,0.18,0.1,0.36,0.14,0.54l18.5,70.81
					c0.94,3.6-1.21,7.28-4.81,8.22c-0.49,0.13-0.99,0.2-1.49,0.22l-40.58,1.25H1355.88z M1350.01,3720.35
					c-14.55,0.05-28.31-6.58-37.34-18l-5.31-6.59c-2.37-2.87-1.96-7.11,0.91-9.48c2.87-2.37,7.11-1.96,9.48,0.91
					c0.03,0.04,0.07,0.08,0.1,0.12l5.33,6.62c7.73,9.75,20.15,14.55,32.43,12.52l3.25-0.54c3.66-0.67,7.17,1.75,7.84,5.4
					c0.67,3.66-1.75,7.17-5.4,7.84c-0.08,0.01-0.16,0.03-0.23,0.04l-3.32,0.55C1355.19,3720.15,1352.6,3720.35,1350.01,3720.35
					L1350.01,3720.35z"/>
				
					<ellipse transform="matrix(3.118319e-03 -1 1 3.118319e-03 -2250.8679 4912.4238)" class="st4" cx="1338.45" cy="3585.16" rx="6.21" ry="6.21"/>
				<path class="st4" d="M1243.94,3789.24c-0.26,0-0.53-0.02-0.79-0.05c-42.56-4.96-79.55-31.52-97.84-70.27
					c-1.59-3.36-0.15-7.38,3.22-8.97c3.36-1.59,7.38-0.15,8.97,3.22c16.31,34.54,49.28,58.22,87.22,62.64
					c3.69,0.43,6.34,3.77,5.91,7.47C1250.23,3786.67,1247.35,3789.23,1243.94,3789.24L1243.94,3789.24z"/>
			</g>
			<path class="st4" d="M1207.84,3602.56l17.67,9.93l67.43-135.95l102.23,45.59c-13.41-63.02-75.38-103.24-138.4-89.82
				c-32.74,6.97-60.91,27.66-77.34,56.82c-1.92,3.42-3.67,6.94-5.25,10.53"/>
			<path class="st4" d="M1225.5,3619.22c-1.16,0-2.29-0.3-3.3-0.86l-17.67-9.93c-3.24-1.82-4.39-5.93-2.57-9.17s5.93-4.39,9.17-2.57
				l11.49,6.45l64.28-129.6c1.61-3.24,5.48-4.63,8.78-3.16l89.18,39.77c-20.05-57.32-82.77-87.54-140.09-67.5
				c-25.21,8.82-46.34,26.5-59.47,49.76c-1.81,3.23-3.46,6.54-4.94,9.93c-1.49,3.41-5.46,4.97-8.87,3.48
				c-3.41-1.49-4.97-5.46-3.48-8.87c1.66-3.8,3.51-7.52,5.55-11.14c33.47-59.37,108.73-80.37,168.1-46.9
				c30.84,17.39,52.73,47.18,60.1,81.81c0.77,3.64-1.56,7.21-5.2,7.98c-1.39,0.29-2.84,0.14-4.13-0.44l-96.32-42.95l-64.56,130.16
				C1230.4,3617.77,1228.06,3619.22,1225.5,3619.22z"/>
			<path class="st1" d="M1207.84,3602.56c22.62-26.97,19.1-67.17-7.86-89.79c-26.97-22.62-67.17-19.1-89.79,7.86
				s-19.1,67.17,7.86,89.79c8.45,7.09,18.61,11.87,29.46,13.86"/>
			<path class="st4" d="M1147.51,3631.02c-0.41,0-0.82-0.04-1.22-0.11c-38.28-7.02-63.61-43.75-56.59-82.03
				c7.02-38.28,43.75-63.61,82.03-56.59c38.28,7.02,63.61,43.75,56.59,82.03c-2.2,12-7.48,23.22-15.32,32.57
				c-2.39,2.85-6.64,3.23-9.49,0.83s-3.23-6.64-0.83-9.49c2.29-2.72,4.32-5.66,6.06-8.76c15.39-27.46,5.6-62.19-21.85-77.58
				c-27.46-15.39-62.19-5.6-77.58,21.85c-15.39,27.46-5.6,62.19,21.85,77.58c5.47,3.06,11.4,5.21,17.57,6.34
				c3.66,0.66,6.09,4.17,5.43,7.83C1153.56,3628.7,1150.77,3631.03,1147.51,3631.02L1147.51,3631.02z"/>
			<path class="st4" d="M1170.42,3574.67c-0.33,0-0.65-0.02-0.97-0.07l-32.62-4.74c-3.68-0.53-6.23-3.95-5.7-7.63
				c0.54-3.68,3.95-6.23,7.63-5.7l17.92,2.6l-13.77-21.22c-2.05-3.11-1.19-7.28,1.91-9.33c3.11-2.05,7.28-1.19,9.33,1.91
				c0.02,0.03,0.04,0.06,0.05,0.08l21.85,33.69c2.02,3.12,1.14,7.29-1.98,9.32C1172.99,3574.29,1171.72,3574.67,1170.42,3574.67z"/>
		</g>
		<g transform="translate(510.0 540.0) rotate(0.0 13.0 13.5) scale(0.39989541196917733 0.40627163020253393)">
			<path class="st1" d="M274.52,5777.27l-0.56-26.74c-0.26-12.21,9.42-22.32,21.64-22.58c3.44-0.07,6.85,0.66,9.95,2.13l67.01,31.74
				l-65.6,34.55c-10.82,5.69-24.2,1.54-29.9-9.28C275.46,5784.07,274.59,5780.7,274.52,5777.27z"/>
			<path class="st4" d="M296.68,5805.68c-2.88,0-5.77-0.43-8.59-1.31c-7.32-2.25-13.44-7.34-16.99-14.13
				c-2.08-3.96-3.21-8.34-3.32-12.81v0l-0.56-26.74c-0.18-7.65,2.7-15.06,8.01-20.57c5.28-5.54,12.56-8.74,20.21-8.88
				c4.49-0.09,8.93,0.86,12.99,2.78l67.01,31.74c3.36,1.6,4.79,5.61,3.2,8.98c-0.62,1.32-1.66,2.39-2.95,3.07l-65.6,34.55
				C305.96,5804.53,301.36,5805.67,296.68,5805.68z M281.25,5777.13c0.05,2.38,0.66,4.72,1.77,6.83c1.89,3.62,5.16,6.34,9.06,7.54
				c3.9,1.22,8.13,0.83,11.74-1.08l53.68-28.27l-54.84-25.98c-2.16-1.02-4.53-1.53-6.93-1.48c-4.08,0.08-7.96,1.78-10.77,4.74
				c-2.83,2.94-4.37,6.89-4.27,10.97L281.25,5777.13z"/>
			<path class="st1" d="M357.18,5663.77l26.74-0.56c12.22-0.22,22.31,9.52,22.52,21.74c0.06,3.4-0.66,6.77-2.12,9.85l-31.77,67.04
				l-34.55-65.67c-5.67-10.83-1.48-24.21,9.35-29.88C350.39,5664.7,353.75,5663.83,357.18,5663.77z"/>
			<path class="st4" d="M372.56,5768.56c-2.5,0-4.79-1.39-5.96-3.6l-34.55-65.67c-7.39-14.12-1.92-31.6,12.19-38.98
				c3.96-2.07,8.34-3.19,12.81-3.28l26.74-0.56c15.94-0.28,29.12,12.44,29.4,28.35c0.07,4.44-0.87,8.83-2.76,12.84l-31.77,67.04
				c-1.09,2.31-3.39,3.8-5.94,3.85L372.56,5768.56z M384.32,5669.94l-0.28,0l-26.72,0.56h-0.01c-2.38,0.05-4.72,0.65-6.83,1.75
				c-7.53,3.95-10.44,13.25-6.5,20.79l28.27,53.73l26-54.86c1-2.12,1.51-4.49,1.47-6.85
				C399.55,5676.67,392.71,5669.95,384.32,5669.94z M357.18,5663.77h0.02H357.18z"/>
		</g>
		<g transform="translate(808.0 538.0) rotate(0.0 12.5 12.5) scale(0.38451481920113206 0.3761774353727166)">
			<path class="st1" d="M1250.1,6223.19l-0.56-26.74c-0.26-12.21,9.42-22.32,21.64-22.58c3.44-0.07,6.85,0.66,9.95,2.13l67.01,31.74
				l-65.6,34.55c-10.82,5.69-24.2,1.54-29.9-9.28C1251.05,6229.98,1250.18,6226.61,1250.1,6223.19z"/>
			<path class="st4" d="M1272.27,6251.59c-2.88,0-5.77-0.43-8.59-1.31c-7.32-2.25-13.44-7.34-16.99-14.13
				c-2.08-3.96-3.21-8.34-3.32-12.81v0l-0.56-26.74c-0.18-7.65,2.7-15.06,8.01-20.57c5.28-5.54,12.56-8.74,20.21-8.88
				c4.49-0.09,8.93,0.86,12.99,2.78l67.01,31.74c3.36,1.6,4.79,5.61,3.2,8.98c-0.62,1.32-1.66,2.39-2.95,3.07l-65.6,34.55
				C1281.55,6250.44,1276.94,6251.58,1272.27,6251.59z M1256.84,6223.04c0.05,2.38,0.66,4.72,1.77,6.83
				c1.89,3.62,5.16,6.34,9.06,7.54c3.9,1.22,8.13,0.83,11.74-1.08l53.68-28.27l-54.84-25.98c-2.16-1.02-4.53-1.53-6.93-1.48
				c-4.08,0.08-7.96,1.78-10.77,4.74c-2.83,2.94-4.37,6.89-4.27,10.97L1256.84,6223.04z"/>
			<path class="st1" d="M1332.76,6109.68l26.74-0.56c12.22-0.22,22.31,9.52,22.52,21.74c0.06,3.4-0.66,6.77-2.12,9.85l-31.77,67.04
				l-34.55-65.67c-5.67-10.83-1.48-24.21,9.35-29.88C1325.97,6110.61,1329.34,6109.74,1332.76,6109.68z"/>
			<path class="st4" d="M1348.14,6214.47c-2.5,0-4.79-1.39-5.96-3.6l-34.55-65.67c-7.39-14.12-1.92-31.6,12.19-38.98
				c3.96-2.07,8.34-3.19,12.81-3.28l26.74-0.56c15.94-0.28,29.12,12.44,29.4,28.35c0.07,4.44-0.87,8.83-2.76,12.84l-31.77,67.04
				c-1.09,2.31-3.39,3.8-5.94,3.85L1348.14,6214.47z M1359.9,6115.85l-0.28,0l-26.72,0.56h-0.01c-2.38,0.05-4.72,0.65-6.83,1.75
				c-7.53,3.95-10.44,13.25-6.5,20.79l28.27,53.73l26-54.86c1-2.12,1.51-4.49,1.47-6.85
				C1375.13,6122.58,1368.29,6115.86,1359.9,6115.85z M1332.76,6109.68h0.02H1332.76z"/>
		</g>
		<g transform="translate(210.0 375.0) rotate(7.62736040715628 70.5 43.0) scale(0.5243584975827446 0.524390243902439)">
			<g>
				<path class="st4" d="M44.49,4367.85c-3.72,0-6.73-3.02-6.73-6.74c0-1.84,0.76-3.61,2.09-4.88
					c64.07-60.97,108.02-111.23,130.62-149.38c1.23-2.08,2.38-4.08,3.44-6.01c-23.89,2.6-40-1.76-48.57-13
					c-10.08-13.21-7.28-28.87,7.31-40.86c17.63-14.48,47.38-19.31,60.84-4.11c7.99,9.03,8.94,22.52,3.1,40.05
					c81.58-20.64,227.6-97.71,359.04-182.19c3.13-2.01,7.3-1.1,9.31,2.02s1.1,7.3-2.03,9.31
					c-62.76,40.34-159.86,97.75-244.16,137.92c-53.88,25.68-96.58,41.73-128.48,48.24c-19.55,40.46-67.33,97.53-141.14,167.76
					C47.88,4367.19,46.22,4367.85,44.49,4367.85z M169.79,4146.92c-10.41,0.33-20.44,4-28.6,10.47c-6.21,5.1-12.14,13.11-5.15,22.28
					c6.78,8.88,22.54,10.61,44.98,6.64c9.4-22.3,5.16-31.34,2.36-34.51C180.39,4148.41,175.45,4146.92,169.79,4146.92z
					 M378.77,4223.27c-3.72,0-6.74-3.01-6.74-6.73c0-2.85,1.79-5.39,4.47-6.35c94.47-33.83,252.56-152.96,254.14-154.16
					c2.97-2.24,7.19-1.66,9.43,1.31c2.24,2.97,1.66,7.19-1.31,9.43l0,0c-6.54,4.94-161.32,121.57-257.73,156.1
					C380.31,4223.14,379.54,4223.27,378.77,4223.27z"/>
			</g>
		</g>
	</g>
</g>
</svg>
