<?xml version="1.0" encoding="utf-8"?>
<!-- Generator: Adobe Illustrator 26.1.0, SVG Export Plug-In . SVG Version: 6.00 Build 0)  -->
<svg version="1.1" id="Layer_1" xmlns="http://www.w3.org/2000/svg" xmlns:xlink="http://www.w3.org/1999/xlink" x="0px" y="0px"
	 viewBox="0 0 2000 3200" style="enable-background:new 0 0 2000 3200;" xml:space="preserve">
<style type="text/css">
	.st0{fill:#70D9D9;}
	.st1{fill:#FFFFFF;}
	.st2{fill:#FF7F36;}
	.st3{fill:#007575;}
	.st4{fill:#222433;}
	.st5{fill:#FF7F36;stroke:#FF7F36;stroke-miterlimit:10;}
	.st6{fill:#15C2C1;}
	.st7{fill:#FDA979;}
	.st8{fill:#C35515;}
	.st9{fill:none;stroke:#5A38FD;stroke-width:111.9047;stroke-miterlimit:10;}
	.st10{fill:none;stroke:#FF7F36;stroke-width:111.9047;stroke-miterlimit:10;}
	.st11{fill:none;stroke:#FFFFFF;stroke-width:9.2351;stroke-miterlimit:10;stroke-dasharray:23.0877,36.9403;}
	.st12{fill:none;stroke:#313341;stroke-width:3.8308;stroke-miterlimit:10;}
	.st13{fill:none;}
	.st14{opacity:0.75;fill:#70D9D9;}
	.st15{fill:#5A38FD;}
	.st16{fill:none;stroke:#222433;stroke-width:8.5039;stroke-miterlimit:10;stroke-dasharray:14.1732,14.1732;}
	.st17{fill:#7057FD;}
	.st18{fill:none;stroke:#222433;stroke-width:5.4074;stroke-miterlimit:10;}
	.st19{fill:#222433;stroke:#222433;stroke-width:5.4303;stroke-miterlimit:10;}
	.st20{fill:#2B292D;}
	.st21{fill:none;stroke:#C35515;stroke-width:9.9101;stroke-miterlimit:10;}
	.st22{fill:none;stroke:#C35515;stroke-width:5.6693;stroke-miterlimit:10;}
	.st23{fill:#C35515;stroke:#000000;stroke-miterlimit:10;}
	.st24{fill:#C35515;stroke:#000000;stroke-width:0.6042;stroke-miterlimit:10;}
	.st25{fill:#15C2C1;stroke:#222433;stroke-width:6.1644;stroke-miterlimit:10;}
	.st26{fill:#FFFFFF;stroke:#000000;stroke-width:6.1644;stroke-miterlimit:10;}
	.st27{fill:none;stroke:#007575;stroke-width:6.1644;stroke-miterlimit:10;}
	.st28{fill:none;stroke:#FFFFFF;stroke-width:14.1732;stroke-miterlimit:10;stroke-dasharray:23.0877,36.9403;}
	.st29{fill-rule:evenodd;clip-rule:evenodd;fill:#FDA979;}
	.st30{fill-rule:evenodd;clip-rule:evenodd;fill:#FFFFFF;}
	.st31{fill-rule:evenodd;clip-rule:evenodd;fill:#007575;}
	.st32{fill:#606060;}
	.st33{clip-path:url(#SVGID_00000066516531692937186420000007953478986301441725_);}
	.st34{fill:#222433;stroke:#222433;stroke-width:1.0471;stroke-miterlimit:10;}
	.st35{fill:#222433;stroke:#222433;stroke-width:2.2688;stroke-miterlimit:10;}
	.st36{fill:#82B1FF;}
	.st37{fill:#15C2C1;stroke:#70D9D9;stroke-width:15.652;stroke-miterlimit:10;}
	.st38{stroke:#222433;stroke-width:0.8333;stroke-miterlimit:10;}
	.st39{clip-path:url(#SVGID_00000091706767116070455790000013914999656911207605_);}
	.st40{clip-path:url(#SVGID_00000091706767116070455790000013914999656911207605_);fill:#FF7F36;}
	.st41{clip-path:url(#SVGID_00000091706767116070455790000013914999656911207605_);fill:#C35515;}
	.st42{fill:#222433;stroke:#222433;stroke-width:0.791;stroke-miterlimit:10;}
	.st43{fill-rule:evenodd;clip-rule:evenodd;fill:#FF7F36;}
	.st44{fill-rule:evenodd;clip-rule:evenodd;fill:#15C2C1;}
	.st45{fill:none;stroke:#FF7F36;stroke-width:11.3386;stroke-miterlimit:10;}
	.st46{fill:none;stroke:#FF7F36;stroke-width:9.6934;stroke-miterlimit:10;}
	.st47{opacity:0.44;fill:#FDA979;}
	.st48{fill:none;stroke:#70D9D9;stroke-width:8.5039;stroke-miterlimit:10;stroke-dasharray:11.5087,11.5098;}
	.st49{opacity:0.75;fill:#007575;}
	.st50{clip-path:url(#SVGID_00000170279617160050781060000012237395966034005381_);}
	.st51{fill:none;stroke:#FF7F36;stroke-miterlimit:10;}
	.st52{clip-path:url(#SVGID_00000033366731417868920240000000609563756560297908_);}
	.st53{stroke:#70D9D9;stroke-width:8.5039;stroke-miterlimit:10;}
	.st54{fill:#FDA979;stroke:#222433;stroke-width:17.0079;stroke-miterlimit:10;}
	.st55{clip-path:url(#SVGID_00000043447074423687384770000007972173151712810937_);}
	.st56{fill:none;stroke:#222433;stroke-width:16.1222;stroke-linecap:round;stroke-miterlimit:10;}
	.st57{clip-path:url(#SVGID_00000106113444205012114210000006379605137720407944_);fill:#15C2C1;}
	.st58{clip-path:url(#SVGID_00000106113444205012114210000006379605137720407944_);fill:#C35515;}
	
		.st59{clip-path:url(#SVGID_00000106113444205012114210000006379605137720407944_);fill:#15C2C1;stroke:#000000;stroke-width:8.2755;stroke-miterlimit:10;}
	.st60{clip-path:url(#SVGID_00000106113444205012114210000006379605137720407944_);fill:#FF7F36;}
	
		.st61{clip-path:url(#SVGID_00000106113444205012114210000006379605137720407944_);fill:#15C2C1;stroke:#000000;stroke-width:8.5039;stroke-miterlimit:10;}
	
		.st62{clip-path:url(#SVGID_00000106113444205012114210000006379605137720407944_);fill:none;stroke:#000000;stroke-width:8.5039;stroke-miterlimit:10;}
	
		.st63{clip-path:url(#SVGID_00000106113444205012114210000006379605137720407944_);fill:#FFFFFF;stroke:#000000;stroke-width:8.5039;stroke-miterlimit:10;}
	.st64{clip-path:url(#SVGID_00000106113444205012114210000006379605137720407944_);}
	.st65{fill:none;stroke:#000000;stroke-width:8.2815;stroke-linecap:round;stroke-miterlimit:10;}
	
		.st66{clip-path:url(#SVGID_00000106113444205012114210000006379605137720407944_);fill:#FFFFFF;stroke:#000000;stroke-width:8.7446;stroke-miterlimit:10;}
	.st67{clip-path:url(#SVGID_00000106113444205012114210000006379605137720407944_);fill:none;}
	.st68{clip-path:url(#SVGID_00000126284442777456448220000001048973827242322828_);fill:#FF7F36;}
	.st69{clip-path:url(#SVGID_00000126284442777456448220000001048973827242322828_);}
	
		.st70{clip-path:url(#SVGID_00000126284442777456448220000001048973827242322828_);fill:none;stroke:#5A38FD;stroke-width:111.9047;stroke-miterlimit:10;}
	.st71{clip-path:url(#SVGID_00000120534251474663107840000011138460879837062806_);}
	
		.st72{opacity:0.57;clip-path:url(#SVGID_00000120534251474663107840000011138460879837062806_);fill:none;stroke:#FFFFFF;stroke-width:32.7065;stroke-linecap:round;stroke-miterlimit:10;}
	.st73{fill:#222433;stroke:#000000;stroke-width:7.0866;stroke-miterlimit:10;}
	
		.st74{clip-path:url(#SVGID_00000120534251474663107840000011138460879837062806_);fill:#222433;stroke:#222433;stroke-width:163.17;stroke-miterlimit:10;}
	.st75{fill:none;stroke:#000000;stroke-width:7.0866;stroke-miterlimit:10;}
	
		.st76{clip-path:url(#SVGID_00000120534251474663107840000011138460879837062806_);fill:#70D9D9;stroke:#000000;stroke-width:2.8346;stroke-linecap:round;stroke-miterlimit:10;}
	.st77{clip-path:url(#SVGID_00000145764982560748427250000006543136144733447098_);fill:#FFFFFF;}
	.st78{clip-path:url(#SVGID_00000145764982560748427250000006543136144733447098_);fill:#222433;}
	.st79{clip-path:url(#SVGID_00000145764982560748427250000006543136144733447098_);fill:#15C2C1;}
	.st80{clip-path:url(#SVGID_00000145764982560748427250000006543136144733447098_);fill:#FDA979;}
	.st81{clip-path:url(#SVGID_00000145764982560748427250000006543136144733447098_);}
	.st82{clip-path:url(#SVGID_00000145764982560748427250000006543136144733447098_);fill:#FF7F36;}
	.st83{clip-path:url(#SVGID_00000145764982560748427250000006543136144733447098_);fill:#C35515;}
	.st84{clip-path:url(#SVGID_00000018198448522683191920000011776603450724170154_);}
</style>
<g>
	<path class="st45" d="M119.87,1454.86c16.59,10.39,6.46,26.57,23.06,36.96c16.59,10.39,26.72-5.78,43.32,4.61
		c16.6,10.39,6.47,26.57,23.06,36.96c16.6,10.39,26.73-5.78,43.32,4.61c16.6,10.39,6.47,26.57,23.06,36.96
		c16.6,10.39,26.73-5.78,43.32,4.61c16.6,10.39,6.47,26.57,23.07,36.97c16.6,10.39,26.73-5.78,43.33,4.61"/>
</g>
<g>
	<path class="st45" d="M1381.29,1785.92c20.7-6.94,30.24,21.5,50.94,14.56c20.7-6.94,11.16-35.38,31.86-42.32
		c20.7-6.94,30.24,21.5,50.94,14.56c20.7-6.94,11.16-35.38,31.87-42.32c20.7-6.94,30.24,21.5,50.94,14.56
		c20.7-6.94,11.17-35.38,31.87-42.32c20.7-6.94,30.24,21.5,50.94,14.56s11.17-35.38,31.87-42.33"/>
</g>
<g>
	<path class="st45" d="M925.59,1489.92c16.41,9.29,6.56,26.69,22.97,35.98c16.41,9.29,26.26-8.11,42.68,1.18
		c16.41,9.29,6.56,26.69,22.97,35.98c16.41,9.29,26.27-8.11,42.68,1.18c16.41,9.29,6.56,26.7,22.98,35.99"/>
</g>
<g>
	<path class="st45" d="M200.85,258.15c27.74-8.36,36.6,21.05,64.34,12.69c27.74-8.36,18.87-37.78,46.61-46.14
		c27.74-8.36,36.6,21.05,64.34,12.69c27.74-8.36,18.87-37.78,46.61-46.14c27.74-8.36,36.61,21.05,64.35,12.69"/>
</g>
<g>
	<path class="st45" d="M1671.47,2332.58c16.41,9.29,6.56,26.69,22.97,35.98c16.41,9.29,26.26-8.11,42.68,1.18
		c16.41,9.29,6.56,26.69,22.97,35.98c16.41,9.29,26.27-8.11,42.68,1.18s6.56,26.7,22.98,35.99"/>
</g>
<g>
	<path class="st45" d="M982.48,2110.42c-5.74,17.96-24.79,11.88-30.53,29.84c-5.74,17.96,13.31,24.05,7.57,42.02
		c-5.74,17.96-24.79,11.88-30.53,29.84c-5.74,17.97,13.31,24.05,7.57,42.02s-24.79,11.88-30.53,29.85"/>
</g>
<g>
	<path class="st45" d="M1875.28,729.65c-5.74,17.96-24.79,11.88-30.53,29.84c-5.74,17.96,13.31,24.05,7.57,42.02
		c-5.74,17.96-24.79,11.88-30.53,29.84c-5.74,17.97,13.31,24.05,7.57,42.02c-5.74,17.97-24.79,11.88-30.53,29.85"/>
</g>
<g>
	<path class="st45" d="M1451.1,248.52c-14.31-12.28-1.29-27.46-15.6-39.74c-14.31-12.28-27.34,2.89-41.65-9.39
		c-14.31-12.28-1.29-27.46-15.6-39.74c-14.31-12.28-27.34,2.89-41.65-9.39s-1.29-27.46-15.6-39.74"/>
</g>
<g>
	<defs>
		<rect id="SVGID_00000073706412769908120220000004944279756671881383_" x="0" y="1987.01" width="2000" height="1212.99"/>
	</defs>
	<clipPath id="SVGID_00000163039248319974434530000016871993132867265946_">
		<use xlink:href="#SVGID_00000073706412769908120220000004944279756671881383_"  style="overflow:visible;"/>
	</clipPath>
	
		<circle style="clip-path:url(#SVGID_00000163039248319974434530000016871993132867265946_);fill:#15C2C1;" cx="230.94" cy="2193.09" r="117.65"/>
	<path style="clip-path:url(#SVGID_00000163039248319974434530000016871993132867265946_);fill:#C35515;" d="M2000,3201.73H252.59
		v-368.59h1601.79c80.42,0,145.62,65.2,145.62,145.62V3201.73z"/>
	
		<path style="clip-path:url(#SVGID_00000163039248319974434530000016871993132867265946_);fill:#15C2C1;stroke:#000000;stroke-width:8.2755;stroke-miterlimit:10;" d="
		M1407.67,3098.93l42.91,141.29h379.35l-117.74-325.4c-23.74-65.61-72.57-119.09-135.76-148.68l-48.44-22.68l-157.69,273.98
		L1407.67,3098.93z"/>
	<path style="clip-path:url(#SVGID_00000163039248319974434530000016871993132867265946_);fill:#FF7F36;" d="M459.61,2387.74
		c0,0,72.35-10.56,118.19,3.33c128.52,38.94,323.1,336,323.1,336l-379.23,142.45l-192.86-249.07c0,0-12.92-69.9,10.94-122.54
		c23.86-52.65,56.37-75.87,56.37-75.87L459.61,2387.74z"/>
	
		<path style="clip-path:url(#SVGID_00000163039248319974434530000016871993132867265946_);fill:#15C2C1;stroke:#000000;stroke-width:8.5039;stroke-miterlimit:10;" d="
		M564.9,2778.16c0,0,328.26-57.29,538.84-83.61s314.32-29.42,414.19,0c99.87,29.42,99.28,109.95,96.48,138.59
		c-2.8,28.64-17.18,58.13-40.4,84.38c-44.04,49.8-273.62,297.29-273.62,297.29H843.61h-12.39L1048,2999.58H766.19h0
		c-32.28,0-63.82-9.72-90.5-27.9l-49.96-34.04l-67.03-105.29l-37.04-34.06L564.9,2778.16z"/>
	
		<polyline style="clip-path:url(#SVGID_00000163039248319974434530000016871993132867265946_);fill:none;stroke:#000000;stroke-width:8.5039;stroke-miterlimit:10;" points="
		1116.13,2923.71 1048,2999.58 1026.32,2961.65 	"/>
	<polygon style="clip-path:url(#SVGID_00000163039248319974434530000016871993132867265946_);fill:#FF7F36;" points="
		515.35,2723.97 562,2802.52 814.19,3227.19 625.74,3227.19 329.87,2654.29 359.86,2553.65 513.81,2673.63 	"/>
	
		<line style="clip-path:url(#SVGID_00000163039248319974434530000016871993132867265946_);fill:#FFFFFF;stroke:#000000;stroke-width:8.5039;stroke-miterlimit:10;" x1="814.19" y1="3214.81" x2="562" y2="2802.52"/>
	
		<line style="clip-path:url(#SVGID_00000163039248319974434530000016871993132867265946_);fill:#FFFFFF;stroke:#000000;stroke-width:8.5039;stroke-miterlimit:10;" x1="564.9" y1="2743.45" x2="542.77" y2="2861.59"/>
	<g style="clip-path:url(#SVGID_00000163039248319974434530000016871993132867265946_);">
		<path class="st1" d="M359.44,2148.4c-16.27-16.67-37.71-27.37-60.83-30.36l-95.1,170.03l108.23,66.06l99.44,106.37l90.82-31.32
			c6.53-2.16,12.32-6.11,16.69-11.41c12.45-15.26,10.13-37.71-5.18-50.14c-0.01-0.01-0.03-0.02-0.04-0.03l-41.4-47.85
			c24.5-51.31,2.63-112.75-48.84-137.23c-5.88-2.8-12.02-5.03-18.33-6.68L359.44,2148.4z"/>
		<path class="st4" d="M531.32,2401.43c-1.08,7.18-4.09,13.92-8.71,19.53c-4.99,6.03-11.59,10.54-19.04,13.01l-90.73,31.29
			c-1.89,0.65-3.98,0.13-5.35-1.33l-98.96-105.87l-107.64-65.7c-2.31-1.41-3.1-4.39-1.78-6.75l95.1-170.03
			c1.01-1.8,3.01-2.8,5.06-2.54c24.02,3.14,46.31,14.18,63.34,31.37l44.3,26.73c57.75,15.48,92.03,74.72,76.55,132.31
			c-1.42,5.27-3.23,10.43-5.43,15.43l39,45.08C528,2373.13,533.42,2387.32,531.32,2401.43L531.32,2401.43z M412.63,2454.67
			l87.72-30.26c5.65-1.86,10.66-5.28,14.45-9.85c5.16-6.27,7.57-14.34,6.7-22.4c-0.84-8.1-4.87-15.54-11.22-20.67
			c-0.23-0.18-0.44-0.39-0.63-0.6l-41.4-47.85c-1.31-1.51-1.6-3.65-0.74-5.46c23.3-48.8,2.5-107.24-46.45-130.51
			c-5.59-2.66-11.43-4.79-17.42-6.35c-0.47-0.12-0.93-0.31-1.35-0.57l-45.47-27.44c-0.37-0.22-0.71-0.49-1.01-0.8
			c-14.68-15-33.77-24.94-54.5-28.38l-91.04,162.77l104.09,63.54c0.39,0.24,0.75,0.53,1.06,0.86L412.63,2454.67z"/>
		<path class="st6" d="M317.13,2120.3l-114.07,170.16l-37.29-25.31c-26.28-17.82-33.26-53.44-15.64-79.79l65.61-97.91
			c9.02-13.47,27.51,0.82,40.99,10L317.13,2120.3z"/>
		<path class="st0" d="M317.13,2120.3l-32.36,48.85l-60.94-41.25c-13.35-9.01-16.95-27.05-8.08-40.46
			c8.97-13.48,27.2-17.15,40.73-8.19c0.01,0.01,0.02,0.01,0.02,0.02c0.09,0.01,0.16,0.1,0.14,0.19l0,0L317.13,2120.3z"/>
		<path class="st4" d="M324.41,2024.85c-2.17,0.42-4.08,1.69-5.3,3.53l-6.15,9.24c-5.18,7.66-7.13,17.05-5.41,26.13
			c3.44,19.02,5.93,56.17-16.02,91.24c-0.23,0.37-90.77,131.26-91.46,132.25c-0.84,1.18-0.55,2.81,0.63,3.65
			c1.18,0.83,2.82,0.55,3.66-0.63c0.88-1.24,88.06-124.47,112.91-164.25c9.12-14.58,15.1-30.89,17.58-47.91
			c2.26-15.53,2.01-31.31-0.74-46.76c-0.46-2.11-1.7-3.97-3.47-5.21C328.81,2024.89,326.57,2024.44,324.41,2024.85L324.41,2024.85z"
			/>
		<path class="st1" d="M359.86,2153.72l51.3,2.45l-10.39,32.72"/>
		<path class="st4" d="M416.15,2156.92c-0.04,0.26-0.1,0.52-0.18,0.77l-10.39,32.72c-0.84,2.65-3.68,4.12-6.34,3.27
			c-2.66-0.84-4.13-3.67-3.29-6.32l0,0l8.41-26.48l-44.74-2.14c-2.79-0.13-4.94-2.48-4.82-5.26c0.12-2.78,2.48-4.93,5.27-4.8
			c0.01,0,0.02,0,0.03,0l51.3,2.45c2.78,0.14,4.93,2.5,4.8,5.28c-0.01,0.17-0.02,0.33-0.05,0.5L416.15,2156.92z M476.93,2320.85
			c-0.08,0.5-0.22,0.98-0.44,1.44c-16.22,33.92-49.06,56.88-86.57,60.51c-2.77,0.31-5.27-1.68-5.58-4.45
			c-0.31-2.76,1.68-5.25,4.45-5.56c0.03,0,0.07-0.01,0.1-0.01c34.01-3.3,63.79-24.11,78.5-54.87c1.21-2.51,4.22-3.56,6.74-2.35
			C476.12,2316.52,477.26,2318.67,476.93,2320.85L476.93,2320.85z"/>
		<path class="st1" d="M318.45,2334.71c-4.63,30.8-33.42,52-64.3,47.36c-30.88-4.64-52.16-33.38-47.53-64.18s33.42-52,64.3-47.36
			c16.7,2.51,31.41,12.33,40.1,26.78"/>
		<path class="st4" d="M323.44,2335.46c-5.04,33.55-36.41,56.65-70.05,51.59c-33.64-5.06-56.82-36.36-51.78-69.91
			s36.41-56.65,70.05-51.59c18.19,2.74,34.21,13.43,43.67,29.17c1.44,2.39,0.66,5.48-1.73,6.91c-2.39,1.43-5.49,0.66-6.93-1.73
			c-14.63-24.33-46.27-32.24-70.65-17.67s-32.29,46.12-17.66,70.46c14.63,24.33,46.27,32.24,70.65,17.67
			c13.19-7.88,22.15-21.24,24.43-36.4c0.41-2.75,2.98-4.64,5.74-4.23S323.86,2332.71,323.44,2335.46z"/>
		<path class="st4" d="M296.19,2318.63c-0.16,1.06-0.65,2.04-1.41,2.8l-30.46,30.55c-1.97,1.97-5.16,1.98-7.14,0.02
			c-1.98-1.96-1.99-5.15-0.02-7.12l0,0l20.96-21.02l-40.23,2.86c-2.78,0.24-5.22-1.82-5.46-4.59c-0.24-2.77,1.82-5.21,4.6-5.44
			c0.05,0,0.09-0.01,0.14-0.01l53.67-3.81c2.78-0.2,5.2,1.89,5.4,4.66C296.26,2317.89,296.25,2318.26,296.19,2318.63z"/>
	</g>
	<g style="clip-path:url(#SVGID_00000163039248319974434530000016871993132867265946_);">
		<path class="st65" d="M416.14,2276.08c0,0,1.94-5.45,9.19-23.73c6.48-16.35,22.15-11.64,22.15-11.64"/>
		<path class="st65" d="M332.45,2172.85c0,0,16.59,21.86-11.31,51.27"/>
	</g>
	<path style="clip-path:url(#SVGID_00000163039248319974434530000016871993132867265946_);fill:#C35515;" d="M625.74,3201.73H0
		V2122.19c104.45,39.48,191.51,119.05,239.19,224.51L625.74,3201.73z"/>
	
		<circle style="clip-path:url(#SVGID_00000163039248319974434530000016871993132867265946_);fill:#FFFFFF;stroke:#000000;stroke-width:8.7446;stroke-miterlimit:10;" cx="710.24" cy="3208.19" r="97.12"/>
	
		<ellipse style="clip-path:url(#SVGID_00000163039248319974434530000016871993132867265946_);fill:#FFFFFF;stroke:#000000;stroke-width:8.7446;stroke-miterlimit:10;" cx="715.39" cy="3243.88" rx="91.98" ry="97.12"/>
</g>
</svg>
