<?xml version="1.0" encoding="utf-8"?>
<!-- Generator: Adobe Illustrator 26.1.0, SVG Export Plug-In . SVG Version: 6.00 Build 0)  -->
<svg version="1.1" id="Layer_1" xmlns="http://www.w3.org/2000/svg" xmlns:xlink="http://www.w3.org/1999/xlink" x="0px" y="0px"
	 viewBox="0 0 2000 3200" style="enable-background:new 0 0 2000 3200;" xml:space="preserve">
<style type="text/css">
	.st0{fill:#70D9D9;}
	.st1{fill:#FFFFFF;}
	.st2{fill:#FF7F36;}
	.st3{fill:#007575;}
	.st4{fill:#222433;}
	.st5{fill:#FF7F36;stroke:#FF7F36;stroke-miterlimit:10;}
	.st6{fill:#15C2C1;}
	.st7{fill:#FDA979;}
	.st8{fill:#C35515;}
	.st9{fill:none;stroke:#5A38FD;stroke-width:111.9047;stroke-miterlimit:10;}
	.st10{fill:none;stroke:#FF7F36;stroke-width:111.9047;stroke-miterlimit:10;}
	.st11{fill:none;stroke:#FFFFFF;stroke-width:9.2351;stroke-miterlimit:10;stroke-dasharray:23.0877,36.9403;}
	.st12{fill:none;stroke:#313341;stroke-width:3.8308;stroke-miterlimit:10;}
	.st13{fill:none;}
	.st14{opacity:0.75;fill:#70D9D9;}
	.st15{fill:#5A38FD;}
	.st16{fill:none;stroke:#222433;stroke-width:8.5039;stroke-miterlimit:10;stroke-dasharray:14.1732,14.1732;}
	.st17{fill:#7057FD;}
	.st18{fill:none;stroke:#222433;stroke-width:5.4074;stroke-miterlimit:10;}
	.st19{fill:#222433;stroke:#222433;stroke-width:5.4303;stroke-miterlimit:10;}
	.st20{fill:#2B292D;}
	.st21{fill:none;stroke:#C35515;stroke-width:9.9101;stroke-miterlimit:10;}
	.st22{fill:none;stroke:#C35515;stroke-width:5.6693;stroke-miterlimit:10;}
	.st23{fill:#C35515;stroke:#000000;stroke-miterlimit:10;}
	.st24{fill:#C35515;stroke:#000000;stroke-width:0.6042;stroke-miterlimit:10;}
	.st25{fill:#15C2C1;stroke:#222433;stroke-width:6.1644;stroke-miterlimit:10;}
	.st26{fill:#FFFFFF;stroke:#000000;stroke-width:6.1644;stroke-miterlimit:10;}
	.st27{fill:none;stroke:#007575;stroke-width:6.1644;stroke-miterlimit:10;}
	.st28{fill:none;stroke:#FFFFFF;stroke-width:14.1732;stroke-miterlimit:10;stroke-dasharray:23.0877,36.9403;}
	.st29{fill-rule:evenodd;clip-rule:evenodd;fill:#FDA979;}
	.st30{fill-rule:evenodd;clip-rule:evenodd;fill:#FFFFFF;}
	.st31{fill-rule:evenodd;clip-rule:evenodd;fill:#007575;}
	.st32{fill:#606060;}
	.st33{clip-path:url(#SVGID_00000125588689090750416260000009032459030001871283_);}
	.st34{fill:#222433;stroke:#222433;stroke-width:1.0471;stroke-miterlimit:10;}
	.st35{fill:#222433;stroke:#222433;stroke-width:2.2688;stroke-miterlimit:10;}
	.st36{fill:#82B1FF;}
	.st37{fill:#15C2C1;stroke:#70D9D9;stroke-width:15.652;stroke-miterlimit:10;}
	.st38{stroke:#222433;stroke-width:0.8333;stroke-miterlimit:10;}
	.st39{clip-path:url(#SVGID_00000049179607280210762890000007350674464313157522_);}
	.st40{clip-path:url(#SVGID_00000049179607280210762890000007350674464313157522_);fill:#FF7F36;}
	.st41{clip-path:url(#SVGID_00000049179607280210762890000007350674464313157522_);fill:#C35515;}
	.st42{fill:#222433;stroke:#222433;stroke-width:0.791;stroke-miterlimit:10;}
	.st43{fill-rule:evenodd;clip-rule:evenodd;fill:#FF7F36;}
	.st44{fill-rule:evenodd;clip-rule:evenodd;fill:#15C2C1;}
	.st45{fill:none;stroke:#FF7F36;stroke-width:11.3386;stroke-miterlimit:10;}
	.st46{fill:none;stroke:#FF7F36;stroke-width:9.6934;stroke-miterlimit:10;}
	.st47{opacity:0.44;fill:#FDA979;}
	.st48{fill:none;stroke:#70D9D9;stroke-width:8.5039;stroke-miterlimit:10;stroke-dasharray:11.5087,11.5098;}
	.st49{opacity:0.75;fill:#007575;}
	.st50{clip-path:url(#SVGID_00000054257154798834355050000003648832591996733626_);}
	.st51{fill:none;stroke:#FF7F36;stroke-miterlimit:10;}
	.st52{clip-path:url(#SVGID_00000130643431482323281570000012265520559287970485_);}
	.st53{stroke:#70D9D9;stroke-width:8.5039;stroke-miterlimit:10;}
	.st54{fill:#FDA979;stroke:#222433;stroke-width:17.0079;stroke-miterlimit:10;}
	.st55{clip-path:url(#SVGID_00000010281407287823430590000012149960443862170782_);}
	.st56{fill:none;stroke:#222433;stroke-width:16.1222;stroke-linecap:round;stroke-miterlimit:10;}
	.st57{clip-path:url(#SVGID_00000116232585193709206900000015156095684615562891_);fill:#15C2C1;}
	.st58{clip-path:url(#SVGID_00000116232585193709206900000015156095684615562891_);fill:#C35515;}
	
		.st59{clip-path:url(#SVGID_00000116232585193709206900000015156095684615562891_);fill:#15C2C1;stroke:#000000;stroke-width:8.2755;stroke-miterlimit:10;}
	.st60{clip-path:url(#SVGID_00000116232585193709206900000015156095684615562891_);fill:#FF7F36;}
	
		.st61{clip-path:url(#SVGID_00000116232585193709206900000015156095684615562891_);fill:#15C2C1;stroke:#000000;stroke-width:8.5039;stroke-miterlimit:10;}
	
		.st62{clip-path:url(#SVGID_00000116232585193709206900000015156095684615562891_);fill:none;stroke:#000000;stroke-width:8.5039;stroke-miterlimit:10;}
	
		.st63{clip-path:url(#SVGID_00000116232585193709206900000015156095684615562891_);fill:#FFFFFF;stroke:#000000;stroke-width:8.5039;stroke-miterlimit:10;}
	.st64{clip-path:url(#SVGID_00000116232585193709206900000015156095684615562891_);}
	.st65{fill:none;stroke:#000000;stroke-width:8.2815;stroke-linecap:round;stroke-miterlimit:10;}
	
		.st66{clip-path:url(#SVGID_00000116232585193709206900000015156095684615562891_);fill:#FFFFFF;stroke:#000000;stroke-width:8.7446;stroke-miterlimit:10;}
	.st67{clip-path:url(#SVGID_00000116232585193709206900000015156095684615562891_);fill:none;}
	.st68{clip-path:url(#SVGID_00000012437828346690126610000010792364102327900338_);fill:#FF7F36;}
	.st69{clip-path:url(#SVGID_00000012437828346690126610000010792364102327900338_);}
	
		.st70{clip-path:url(#SVGID_00000012437828346690126610000010792364102327900338_);fill:none;stroke:#5A38FD;stroke-width:111.9047;stroke-miterlimit:10;}
	.st71{clip-path:url(#SVGID_00000094603572765882257130000014302902677613224082_);}
	
		.st72{opacity:0.57;clip-path:url(#SVGID_00000094603572765882257130000014302902677613224082_);fill:none;stroke:#FFFFFF;stroke-width:32.7065;stroke-linecap:round;stroke-miterlimit:10;}
	.st73{fill:#222433;stroke:#000000;stroke-width:7.0866;stroke-miterlimit:10;}
	
		.st74{clip-path:url(#SVGID_00000094603572765882257130000014302902677613224082_);fill:#222433;stroke:#222433;stroke-width:163.17;stroke-miterlimit:10;}
	.st75{fill:none;stroke:#000000;stroke-width:7.0866;stroke-miterlimit:10;}
	
		.st76{clip-path:url(#SVGID_00000094603572765882257130000014302902677613224082_);fill:#70D9D9;stroke:#000000;stroke-width:2.8346;stroke-linecap:round;stroke-miterlimit:10;}
	.st77{clip-path:url(#SVGID_00000080171682187744798750000011334596241954879919_);fill:#FFFFFF;}
	.st78{clip-path:url(#SVGID_00000080171682187744798750000011334596241954879919_);fill:#222433;}
	.st79{clip-path:url(#SVGID_00000080171682187744798750000011334596241954879919_);fill:#15C2C1;}
	.st80{clip-path:url(#SVGID_00000080171682187744798750000011334596241954879919_);fill:#FDA979;}
	.st81{clip-path:url(#SVGID_00000080171682187744798750000011334596241954879919_);}
	.st82{clip-path:url(#SVGID_00000080171682187744798750000011334596241954879919_);fill:#FF7F36;}
	.st83{clip-path:url(#SVGID_00000080171682187744798750000011334596241954879919_);fill:#C35515;}
	.st84{clip-path:url(#SVGID_00000010300128650179729130000016112474305443655598_);}
</style>
<path class="st2" d="M1699.44,2111.8L1699.44,2111.8c-18.27-81.44-90.57-139.32-174.03-139.32h0c-64.57,0-124.1,34.9-155.64,91.25
	l-0.18,0.31c-5.22,9.32-14.16,10.37-19.15,1.45l-0.99-1.76c-31.54-56.35-91.07-91.25-155.64-91.25h0
	c-83.46,0-155.76,57.88-174.03,139.32h0c-14.84,66.14-2.54,134.51,31.87,190.07c24.44,39.46,56.86,87.57,122.73,138.42
	c54.61,42.16,114.79,77.4,181.26,99.07c0.12,0.04,0.25,0.08,0.39,0.13c2.45,0.79,5.09,0.79,7.54-0.01c0.01,0,0.02-0.01,0.03-0.01
	c65.12-21.2,123.9-55.87,178.03-96.29c64.69-48.3,106.52-110.22,125.95-141.24C1702.37,2246.42,1714.32,2178.14,1699.44,2111.8z"/>
<path class="st21" d="M837.03,2637.78L837.03,2637.78c-10.15-45.27-50.34-77.44-96.73-77.44h0c-35.89,0-68.98,19.4-86.51,50.72
	l-0.1,0.17c-2.9,5.18-7.87,5.76-10.65,0.81l-0.55-0.98c-17.53-31.32-50.62-50.72-86.51-50.72h0c-46.39,0-86.58,32.17-96.73,77.44h0
	c-8.25,36.76-1.41,74.77,17.71,105.65c13.58,21.93,31.6,48.67,68.22,76.94c30.35,23.43,63.8,43.02,100.75,55.07
	c0.06,0.02,0.14,0.04,0.22,0.07c1.36,0.44,2.83,0.44,4.19,0c0.01,0,0.01,0,0.02-0.01c36.2-11.78,68.86-31.05,98.96-53.52
	c35.96-26.85,59.21-61.26,70.01-78.51C838.66,2712.61,845.31,2674.65,837.03,2637.78z"/>
<path class="st21" d="M1835.74,1647.54L1835.74,1647.54c-5.52-24.62-27.38-42.12-52.61-42.12h0c-19.52,0-37.52,10.55-47.05,27.58
	l-0.05,0.09c-1.58,2.82-4.28,3.13-5.79,0.44l-0.3-0.53c-9.53-17.03-27.53-27.58-47.05-27.58h0c-25.23,0-47.09,17.5-52.61,42.12l0,0
	c-4.48,19.99-0.77,40.66,9.63,57.46c7.39,11.93,17.19,26.47,37.1,41.84c16.51,12.74,34.7,23.4,54.8,29.95
	c0.04,0.01,0.07,0.02,0.12,0.04c0.74,0.24,1.54,0.24,2.28,0c0,0,0.01,0,0.01,0c19.69-6.41,37.45-16.89,53.82-29.11
	c19.56-14.6,32.2-33.32,38.08-42.7C1836.62,1688.24,1840.24,1667.59,1835.74,1647.54z"/>
<path class="st22" d="M854.1,1721.46L854.1,1721.46c-2.59-11.54-12.83-19.74-24.66-19.74l0,0c-9.15,0-17.58,4.95-22.05,12.93
	l-0.02,0.04c-0.74,1.32-2.01,1.47-2.71,0.21l-0.14-0.25c-4.47-7.98-12.9-12.93-22.05-12.93h0c-11.83,0-22.07,8.2-24.66,19.74l0,0
	c-2.1,9.37-0.36,19.06,4.52,26.93c3.46,5.59,8.06,12.41,17.39,19.61c7.74,5.97,16.26,10.97,25.68,14.04
	c0.02,0.01,0.04,0.01,0.06,0.02c0.35,0.11,0.72,0.11,1.07,0c0,0,0,0,0,0c9.23-3,17.55-7.92,25.23-13.64
	c9.17-6.84,15.09-15.62,17.85-20.01C854.51,1740.54,856.21,1730.86,854.1,1721.46z"/>
<path class="st22" d="M1931.66,830.55L1931.66,830.55c-2.59-11.54-12.83-19.74-24.66-19.74l0,0c-9.15,0-17.58,4.95-22.05,12.93
	l-0.02,0.04c-0.74,1.32-2.01,1.47-2.71,0.21l-0.14-0.25c-4.47-7.98-12.9-12.93-22.05-12.93h0c-11.83,0-22.07,8.2-24.66,19.74l0,0
	c-2.1,9.37-0.36,19.06,4.52,26.93c3.46,5.59,8.06,12.41,17.39,19.61c7.74,5.97,16.26,10.97,25.68,14.04
	c0.02,0.01,0.04,0.01,0.06,0.02c0.35,0.11,0.72,0.11,1.07,0c0,0,0,0,0,0c9.23-3,17.55-7.92,25.23-13.64
	c9.17-6.84,15.09-15.62,17.85-20.01C1932.08,849.62,1933.77,839.95,1931.66,830.55z"/>
<path class="st2" d="M1731.47,2677.97L1731.47,2677.97c-4.5-20.08-22.33-34.35-42.91-34.35l0,0c-15.92,0-30.6,8.61-38.38,22.5
	l-0.04,0.08c-1.29,2.3-3.49,2.56-4.72,0.36l-0.24-0.43c-7.78-13.89-22.45-22.5-38.38-22.5l0,0c-20.58,0-38.41,14.27-42.91,34.35l0,0
	c-3.66,16.31-0.63,33.17,7.86,46.87c6.03,9.73,14.02,21.59,30.26,34.13c13.46,10.39,28.3,19.08,44.69,24.43
	c0.03,0.01,0.06,0.02,0.1,0.03c0.6,0.2,1.26,0.19,1.86,0c0,0,0.01,0,0.01,0c16.06-5.23,30.55-13.77,43.9-23.74
	c15.95-11.91,26.26-27.18,31.06-34.83C1732.2,2711.16,1735.14,2694.33,1731.47,2677.97z"/>
<path class="st23" d="M464.27,2098.51L464.27,2098.51c-8.34-37.19-41.36-63.62-79.47-63.62h0c-29.49,0-56.67,15.94-71.07,41.67
	l-0.08,0.14c-2.38,4.26-6.46,4.74-8.75,0.66l-0.45-0.8c-14.4-25.73-41.59-41.67-71.07-41.67h0c-38.11,0-71.13,26.43-79.47,63.62h0
	c-6.78,30.2-1.16,61.43,14.55,86.8c11.16,18.02,25.97,39.99,56.04,63.21c24.94,19.25,52.42,35.35,82.78,45.24
	c0.05,0.02,0.11,0.04,0.18,0.06c1.12,0.36,2.32,0.36,3.44,0c0.01,0,0.01,0,0.02-0.01c29.74-9.68,56.58-25.51,81.3-43.97
	c29.54-22.06,48.64-50.33,57.52-64.5C465.6,2159.99,471.06,2128.8,464.27,2098.51z"/>
<path class="st24" d="M1174.35,2944.2L1174.35,2944.2c-5.04-22.47-24.99-38.44-48.02-38.44h0c-17.82,0-34.24,9.63-42.95,25.18
	l-0.05,0.09c-1.44,2.57-3.91,2.86-5.28,0.4l-0.27-0.49c-8.7-15.55-25.13-25.18-42.95-25.18h0c-23.03,0-42.98,15.97-48.02,38.44l0,0
	c-4.09,18.25-0.7,37.12,8.79,52.45c6.74,10.89,15.69,24.16,33.86,38.19c15.07,11.63,31.67,21.36,50.02,27.34
	c0.03,0.01,0.07,0.02,0.11,0.03c0.68,0.22,1.4,0.22,2.08,0c0,0,0.01,0,0.01,0c17.97-5.85,34.19-15.42,49.13-26.57
	c17.85-13.33,29.39-30.41,34.76-38.97C1175.16,2981.34,1178.46,2962.5,1174.35,2944.2z"/>
<path class="st2" d="M234.04,1418.98L234.04,1418.98c-3.35-14.95-16.63-25.58-31.95-25.58h0c-11.85,0-22.78,6.41-28.57,16.75
	l-0.03,0.06c-0.96,1.71-2.6,1.9-3.52,0.27l-0.18-0.32c-5.79-10.34-16.72-16.75-28.57-16.75h0c-15.32,0-28.6,10.63-31.95,25.58h0
	c-2.72,12.14-0.47,24.69,5.85,34.9c4.49,7.24,10.44,16.08,22.53,25.41c10.03,7.74,21.07,14.21,33.28,18.19
	c0.02,0.01,0.05,0.01,0.07,0.02c0.45,0.15,0.93,0.14,1.38,0c0,0,0,0,0.01,0c11.96-3.89,22.75-10.26,32.69-17.68
	c11.88-8.87,19.56-20.23,23.12-25.93C234.58,1443.7,236.77,1431.16,234.04,1418.98z"/>
</svg>
