<?xml version="1.0" encoding="utf-8"?>
<!-- Generator: Adobe Illustrator 26.1.0, SVG Export Plug-In . SVG Version: 6.00 Build 0)  -->
<svg version="1.1" id="Layer_1" xmlns="http://www.w3.org/2000/svg" xmlns:xlink="http://www.w3.org/1999/xlink" x="0px" y="0px"
	 viewBox="0 0 2000 3200" style="enable-background:new 0 0 2000 3200;" xml:space="preserve">
<style type="text/css">
	.st0{fill:#70D9D9;}
	.st1{fill:#FFFFFF;}
	.st2{fill:#FF7F36;}
	.st3{fill:#007575;}
	.st4{fill:#222433;}
	.st5{fill:#FF7F36;stroke:#FF7F36;stroke-miterlimit:10;}
	.st6{fill:#15C2C1;}
	.st7{fill:#FDA979;}
	.st8{fill:#C35515;}
	.st9{fill:none;stroke:#5A38FD;stroke-width:111.9047;stroke-miterlimit:10;}
	.st10{fill:none;stroke:#FF7F36;stroke-width:111.9047;stroke-miterlimit:10;}
	.st11{fill:none;stroke:#FFFFFF;stroke-width:9.2351;stroke-miterlimit:10;stroke-dasharray:23.0877,36.9403;}
	.st12{fill:none;stroke:#313341;stroke-width:3.8308;stroke-miterlimit:10;}
	.st13{fill:none;}
	.st14{opacity:0.75;fill:#70D9D9;}
	.st15{fill:#5A38FD;}
	.st16{fill:none;stroke:#222433;stroke-width:8.5039;stroke-miterlimit:10;stroke-dasharray:14.1732,14.1732;}
	.st17{fill:#7057FD;}
	.st18{fill:none;stroke:#222433;stroke-width:5.4074;stroke-miterlimit:10;}
	.st19{fill:#222433;stroke:#222433;stroke-width:5.4303;stroke-miterlimit:10;}
	.st20{fill:#2B292D;}
	.st21{fill:none;stroke:#C35515;stroke-width:9.9101;stroke-miterlimit:10;}
	.st22{fill:none;stroke:#C35515;stroke-width:5.6693;stroke-miterlimit:10;}
	.st23{fill:#C35515;stroke:#000000;stroke-miterlimit:10;}
	.st24{fill:#C35515;stroke:#000000;stroke-width:0.6042;stroke-miterlimit:10;}
	.st25{fill:#15C2C1;stroke:#222433;stroke-width:6.1644;stroke-miterlimit:10;}
	.st26{fill:#FFFFFF;stroke:#000000;stroke-width:6.1644;stroke-miterlimit:10;}
	.st27{fill:none;stroke:#007575;stroke-width:6.1644;stroke-miterlimit:10;}
	.st28{fill:none;stroke:#FFFFFF;stroke-width:14.1732;stroke-miterlimit:10;stroke-dasharray:23.0877,36.9403;}
	.st29{fill-rule:evenodd;clip-rule:evenodd;fill:#FDA979;}
	.st30{fill-rule:evenodd;clip-rule:evenodd;fill:#FFFFFF;}
	.st31{fill-rule:evenodd;clip-rule:evenodd;fill:#007575;}
	.st32{fill:#606060;}
	.st33{clip-path:url(#SVGID_00000021831172257016685560000005093873220469417140_);}
	.st34{fill:#222433;stroke:#222433;stroke-width:1.0471;stroke-miterlimit:10;}
	.st35{fill:#222433;stroke:#222433;stroke-width:2.2688;stroke-miterlimit:10;}
	.st36{fill:#82B1FF;}
	.st37{fill:#15C2C1;stroke:#70D9D9;stroke-width:15.652;stroke-miterlimit:10;}
	.st38{stroke:#222433;stroke-width:0.8333;stroke-miterlimit:10;}
	.st39{clip-path:url(#SVGID_00000088119309832423351050000015092629331483053240_);}
	.st40{clip-path:url(#SVGID_00000088119309832423351050000015092629331483053240_);fill:#FF7F36;}
	.st41{clip-path:url(#SVGID_00000088119309832423351050000015092629331483053240_);fill:#C35515;}
	.st42{fill:#222433;stroke:#222433;stroke-width:0.791;stroke-miterlimit:10;}
	.st43{fill-rule:evenodd;clip-rule:evenodd;fill:#FF7F36;}
	.st44{fill-rule:evenodd;clip-rule:evenodd;fill:#15C2C1;}
	.st45{fill:none;stroke:#FF7F36;stroke-width:11.3386;stroke-miterlimit:10;}
	.st46{fill:none;stroke:#FF7F36;stroke-width:9.6934;stroke-miterlimit:10;}
	.st47{opacity:0.44;fill:#FDA979;}
	.st48{fill:none;stroke:#70D9D9;stroke-width:8.5039;stroke-miterlimit:10;stroke-dasharray:11.5087,11.5098;}
	.st49{opacity:0.75;fill:#007575;}
	.st50{clip-path:url(#SVGID_00000075136449694513072320000003985387224803508632_);}
	.st51{fill:none;stroke:#FF7F36;stroke-miterlimit:10;}
	.st52{clip-path:url(#SVGID_00000035505528353623915990000008766809052524489150_);}
	.st53{stroke:#70D9D9;stroke-width:8.5039;stroke-miterlimit:10;}
	.st54{fill:#FDA979;stroke:#222433;stroke-width:17.0079;stroke-miterlimit:10;}
	.st55{clip-path:url(#SVGID_00000109013607102658191470000000444540337112539314_);}
	.st56{fill:none;stroke:#222433;stroke-width:16.1222;stroke-linecap:round;stroke-miterlimit:10;}
	.st57{clip-path:url(#SVGID_00000083799485032790350330000001148378227630559377_);fill:#15C2C1;}
	.st58{clip-path:url(#SVGID_00000083799485032790350330000001148378227630559377_);fill:#C35515;}
	
		.st59{clip-path:url(#SVGID_00000083799485032790350330000001148378227630559377_);fill:#15C2C1;stroke:#000000;stroke-width:8.2755;stroke-miterlimit:10;}
	.st60{clip-path:url(#SVGID_00000083799485032790350330000001148378227630559377_);fill:#FF7F36;}
	
		.st61{clip-path:url(#SVGID_00000083799485032790350330000001148378227630559377_);fill:#15C2C1;stroke:#000000;stroke-width:8.5039;stroke-miterlimit:10;}
	
		.st62{clip-path:url(#SVGID_00000083799485032790350330000001148378227630559377_);fill:none;stroke:#000000;stroke-width:8.5039;stroke-miterlimit:10;}
	
		.st63{clip-path:url(#SVGID_00000083799485032790350330000001148378227630559377_);fill:#FFFFFF;stroke:#000000;stroke-width:8.5039;stroke-miterlimit:10;}
	.st64{clip-path:url(#SVGID_00000083799485032790350330000001148378227630559377_);}
	.st65{fill:none;stroke:#000000;stroke-width:8.2815;stroke-linecap:round;stroke-miterlimit:10;}
	
		.st66{clip-path:url(#SVGID_00000083799485032790350330000001148378227630559377_);fill:#FFFFFF;stroke:#000000;stroke-width:8.7446;stroke-miterlimit:10;}
	.st67{clip-path:url(#SVGID_00000083799485032790350330000001148378227630559377_);fill:none;}
	.st68{clip-path:url(#SVGID_00000057118037105455737240000007009589319643269291_);fill:#FF7F36;}
	.st69{clip-path:url(#SVGID_00000057118037105455737240000007009589319643269291_);}
	
		.st70{clip-path:url(#SVGID_00000057118037105455737240000007009589319643269291_);fill:none;stroke:#5A38FD;stroke-width:111.9047;stroke-miterlimit:10;}
	.st71{clip-path:url(#SVGID_00000150100224100889896770000018357650147338227631_);}
	
		.st72{opacity:0.57;clip-path:url(#SVGID_00000150100224100889896770000018357650147338227631_);fill:none;stroke:#FFFFFF;stroke-width:32.7065;stroke-linecap:round;stroke-miterlimit:10;}
	.st73{fill:#222433;stroke:#000000;stroke-width:7.0866;stroke-miterlimit:10;}
	
		.st74{clip-path:url(#SVGID_00000150100224100889896770000018357650147338227631_);fill:#222433;stroke:#222433;stroke-width:163.17;stroke-miterlimit:10;}
	.st75{fill:none;stroke:#000000;stroke-width:7.0866;stroke-miterlimit:10;}
	
		.st76{clip-path:url(#SVGID_00000150100224100889896770000018357650147338227631_);fill:#70D9D9;stroke:#000000;stroke-width:2.8346;stroke-linecap:round;stroke-miterlimit:10;}
	.st77{clip-path:url(#SVGID_00000135653061856318813100000003864118629408455074_);fill:#FFFFFF;}
	.st78{clip-path:url(#SVGID_00000135653061856318813100000003864118629408455074_);fill:#222433;}
	.st79{clip-path:url(#SVGID_00000135653061856318813100000003864118629408455074_);fill:#15C2C1;}
	.st80{clip-path:url(#SVGID_00000135653061856318813100000003864118629408455074_);fill:#FDA979;}
	.st81{clip-path:url(#SVGID_00000135653061856318813100000003864118629408455074_);}
	.st82{clip-path:url(#SVGID_00000135653061856318813100000003864118629408455074_);fill:#FF7F36;}
	.st83{clip-path:url(#SVGID_00000135653061856318813100000003864118629408455074_);fill:#C35515;}
	.st84{clip-path:url(#SVGID_00000104669444841821372260000016545448328366730927_);}
</style>
<g>
	<defs>
		<rect id="SVGID_00000118374631819872700350000000077837620409459611_" x="106.58" y="1619.27" width="1873.55" height="1580.73"/>
	</defs>
	<clipPath id="SVGID_00000026132096091019052990000000330423504489139869_">
		<use xlink:href="#SVGID_00000118374631819872700350000000077837620409459611_"  style="overflow:visible;"/>
	</clipPath>
	<g style="clip-path:url(#SVGID_00000026132096091019052990000000330423504489139869_);">
		<path class="st4" d="M1171.61,1927.88c50.37,0,22.62,56.93,15.21,119.21c-19.45,4.19-58.16,21.48-71.9,36.2
			c-14.45,15.48-23.41,40.24-27.69,80.14c-56.57-46.72-64.61-130.53-17.95-187.18C1094.48,1945.65,1132,1927.91,1171.61,1927.88
			L1171.61,1927.88z M1623.95,2101.72c-1.95,14.73-5.74,29.15-11.29,42.92c-34.41-36.79-92.05-37.75-127.1-27.64
			c-22.13,6.38-91.61,41.83-91.61,41.83l-13.62-243.23c22.02-6.07,68.46-14.97,92.55-11.76c96.27,12.86,163.9,101.44,151.07,197.84
			L1623.95,2101.72L1623.95,2101.72z M1098.24,2373.04c18.62,43.03,81.17,102.96,147.72,115.18c10.76,20.91,18.26,58.88,27.91,89.92
			c-26.79,21.39-48.08,66.17-55.78,108.81c-6.69,0.54-13.45,0.8-20.29,0.8c-10.73,0-245.55-54.73-254.54-255.1
			c-3.42-76.18,33.39-144.7,86.32-191.42l21.83,29.36c0,0,7.12,9.34,33.47,14.69C1082.24,2315.19,1086.82,2345.29,1098.24,2373.04
			L1098.24,2373.04z M1480.73,2341.3c46.57-36.39,67.05-95.41,73.9-150.43c192.35,85.72,291.78,300.66,232.7,503.02
			c-69.8-26.15-109.27-51.09-274.29-65.58c-57.54-5.05-104.38,30.05-112.73-2.65c-19.83-77.69-35.99-139.9-70.7-247.29
			C1445.12,2394.4,1450.06,2365.27,1480.73,2341.3L1480.73,2341.3z"/>
		<path class="st2" d="M1931.33,3213.78H717.45v-223.74c0-219.57,177.91-397.56,397.38-397.56h419.14
			c219.46,0,397.37,177.99,397.37,397.56V3213.78z"/>
		<path class="st7" d="M1931.33,3213.78l-626.49,1.68l-68.66-285.7c0-219.57-181.79-337.28,37.68-337.28h133.74
			c219.46,0-23.57,404.62-23.57,624.19L1931.33,3213.78z"/>
		<path class="st4" d="M1931.33,3223.82H717.45c-4.15,0.01-7.51-3.35-7.52-7.5c0-0.01,0-0.01,0-0.02v-223.76
			c0-223.37,181.64-405.09,404.9-405.09h419.14c223.26,0,404.9,181.72,404.9,405.09v223.74c0.01,4.15-3.35,7.52-7.49,7.53
			C1931.35,3223.82,1931.34,3223.82,1931.33,3223.82L1931.33,3223.82z M724.97,3208.77h1198.85v-216.22
			c0-215.07-174.89-390.04-389.85-390.04h-419.14c-214.97,0-389.86,174.97-389.86,390.04L724.97,3208.77z"/>
		<path class="st1" d="M1712.83,3214.26l28.8-69.47"/>
		<path class="st4" d="M1712.83,3221.8c-4.15,0.01-7.51-3.35-7.52-7.5c0-1,0.19-1.99,0.58-2.91l28.79-69.47
			c1.68-3.81,6.12-5.53,9.92-3.85c3.68,1.62,5.43,5.86,3.98,9.61l-28.77,69.47c-1.16,2.82-3.91,4.65-6.96,4.64L1712.83,3221.8z"/>
		<path class="st1" d="M768.8,2629.54l-212.64,8.01l-55.86-121.41l15.91-60.69l251.23-4.62l27.46,93.41L768.8,2629.54z"/>
		<path class="st1" d="M701.27,2417.99c-58.51-12.53-111.52,17.93-163.04,8.38c-53.79-10.12-90-20.34-112.82-14.03
			c-12.93,3.75-21.07,16.52-19.04,29.84c5.98,41.63,38.84,27.23,112.93,65.27c4.38,2.26-3.7,5.74,13.6,0.66"/>
		<path class="st4" d="M522.03,2516.4c-1.35,0.04-2.68-0.34-3.81-1.08c-1.22-0.79-2.13-1.98-2.56-3.36
			c-21.03-10.61-43.01-19.24-65.64-25.77c-28.09-8.68-45.04-13.91-49.25-43.2c-2.43-16.14,7.47-31.58,23.13-36.1
			c19.35-5.35,46.43,0.13,83.93,7.72c9.94,2,20.22,4.09,31.45,6.2c23.42,4.34,47.39,0,72.75-4.58c28.81-5.2,58.6-10.59,90.42-3.76
			c3.05,0.67,4.98,3.68,4.32,6.73c-0.66,3.04-3.64,4.97-6.68,4.33c-29.64-6.34-58.32-1.16-86.05,3.85
			c-26.42,4.77-51.37,9.27-76.84,4.56c-11.31-2.13-21.63-4.22-31.61-6.24c-35.96-7.28-61.93-12.53-78.66-7.9
			c-10.18,2.99-16.58,13.08-14.95,23.58c3.19,22.2,14.37,25.65,41.39,34c23.64,6.85,46.58,15.91,68.53,27.06
			c1.05,0.52,1.98,1.24,2.75,2.12c2.23-0.58,4.46-1.2,6.67-1.86c2.98-0.94,6.15,0.71,7.09,3.69c0.94,2.98-0.71,6.16-3.69,7.1
			c-0.07,0.02-0.14,0.04-0.22,0.06C530.47,2515.01,526.28,2515.96,522.03,2516.4L522.03,2516.4z"/>
		<path d="M521.83,2517.65c-1.53,0-3.02-0.45-4.3-1.29c-1.31-0.84-2.32-2.06-2.89-3.51c-20.83-10.47-42.58-18.99-64.97-25.45
			c-28.58-8.83-45.82-14.15-50.14-44.23c-2.47-16.75,7.78-32.75,24.02-37.48c19.65-5.44,46.86,0.07,84.52,7.69
			c9.94,2,20.21,4.09,31.43,6.2c23.15,4.28,46.95,0,72.16-4.55c29.08-5.26,58.99-10.66,91.05-3.79c3.72,0.82,6.07,4.51,5.25,8.24
			c0,0.01,0,0.01,0,0.02c-0.84,3.67-4.44,6-8.12,5.26c-29.41-6.29-57.96-1.13-85.57,3.86c-26.54,4.8-51.6,9.32-77.29,4.56
			c-10.56-2.01-21.1-4.09-31.63-6.24c-35.78-7.24-61.63-12.48-78.08-7.92c-9.56,2.84-15.55,12.31-14.05,22.18
			c3.08,21.43,13.27,24.58,40.53,32.99c23.7,6.88,46.71,15.96,68.72,27.13c0.95,0.48,1.82,1.1,2.58,1.84
			c1.98-0.53,3.95-1.08,5.92-1.66c3.66-1.07,7.49,1.02,8.57,4.69c1.07,3.66-1.02,7.5-4.68,8.58c-4.13,1.48-8.43,2.45-12.79,2.88
			L521.83,2517.65z M441.9,2406.01c-5.96-0.1-11.91,0.61-17.68,2.1c-15.03,4.38-24.52,19.2-22.22,34.7
			c4.1,28.52,20.77,33.67,48.38,42.19c22.7,6.55,44.73,15.2,65.83,25.84l0.47,0.24l0.16,0.5c0.35,1.11,1.07,2.06,2.05,2.68
			c0.91,0.61,2,0.92,3.1,0.88h0.04c4.13-0.46,8.2-1.39,12.11-2.78c2.33-0.69,3.67-3.14,2.98-5.47c-0.69-2.33-3.13-3.67-5.46-2.98
			c-3.16,0.92-5.29,1.5-6.72,1.87l-0.75,0.19l-0.5-0.58c-0.66-0.76-1.47-1.38-2.37-1.83c-21.88-11.1-44.75-20.13-68.32-26.97
			c-26.77-8.27-38.98-12.04-42.28-35.02c-1.69-11.11,5.07-21.77,15.84-24.96c17.05-4.73,43.14,0.56,79.26,7.87
			c9.93,2,20.19,4.09,31.6,6.24c25.24,4.67,50.08,0.19,76.37-4.56c27.86-5.04,56.65-10.24,86.54-3.84c2.35,0.46,4.63-1.03,5.17-3.36
			c0.53-2.38-0.97-4.73-3.34-5.26c-31.57-6.76-61.23-1.4-89.91,3.78c-25.59,4.61-49.61,8.95-73.22,4.57
			c-11.24-2.11-21.52-4.19-31.46-6.21C480.57,2410.38,458.99,2406.01,441.9,2406.01L441.9,2406.01z"/>
		<path class="st1" d="M553.29,2634.55l-28.7,141.59h269.99l6.82-225.14c14.43-88.55-67.12-155.71-155.58-128.22
			c-7.33,1.89-25.59,11.29-41.69,29.02"/>
		<path class="st4" d="M794.58,2781.8H524.58c-3.12,0-5.65-2.53-5.66-5.65c0,0,0,0,0,0c0-0.38,0.04-0.76,0.12-1.13l28.7-141.59
			c0.67-3.06,3.68-4.99,6.74-4.32c2.99,0.66,4.91,3.57,4.35,6.58l-27.34,134.81h257.59l6.65-219.65c0.01-0.25,0.03-0.49,0.07-0.74
			c6.35-38.98-6.41-75.6-35.03-100.47c-30.04-26.13-72.39-34.14-113.31-21.42l-0.27,0.08c-5.99,1.54-23.38,10.24-38.91,27.35
			c-2.15,2.27-5.73,2.36-7.99,0.21c-2.19-2.08-2.36-5.53-0.38-7.81c16.66-18.35,35.56-28.35,44.33-30.66
			c44.63-13.83,90.96-4.96,123.95,23.73c31.52,27.43,45.67,67.67,38.82,110.47l-6.81,224.76c-0.09,3.06-2.6,5.49-5.65,5.49
			L794.58,2781.8z"/>
		<path d="M524.58,2783.05c-3.81,0-6.9-3.09-6.9-6.91c0-0.47,0.05-0.93,0.14-1.39l28.7-141.6c0.8-3.74,4.47-6.11,8.2-5.31
			c3.67,0.79,6.04,4.37,5.33,8.07l-27.03,133.29h254.84l6.62-218.44c0.01-0.3,0.04-0.61,0.09-0.9c6.28-38.54-6.33-74.74-34.6-99.33
			c-29.72-25.84-71.63-33.76-112.12-21.17l-0.3,0.09c-5.9,1.5-22.98,10.08-38.32,26.99c-2.56,2.83-6.93,3.05-9.75,0.48
			c-2.83-2.56-3.04-6.94-0.48-9.77c16.82-18.53,36.09-28.71,44.94-31.04c44.99-13.95,91.77-4.98,125.08,24
			c31.86,27.71,46.16,68.39,39.24,111.61l-6.79,224.6c-0.1,3.74-3.17,6.72-6.91,6.7L524.58,2783.05L524.58,2783.05z M553.29,2630.14
			c-2.09,0-3.89,1.48-4.31,3.53l-28.7,141.6c-0.48,2.39,1.05,4.71,3.43,5.2c0.29,0.06,0.58,0.09,0.88,0.09h269.99
			c2.39,0.01,4.34-1.89,4.4-4.27l6.81-224.76c6.8-42.51-7.2-82.36-38.39-109.49c-32.66-28.4-78.56-37.18-122.76-23.48
			c-8.62,2.25-27.33,12.19-43.77,30.3c-1.58,1.85-1.37,4.63,0.48,6.22c1.78,1.53,4.44,1.39,6.05-0.3
			c15.71-17.31,33.4-26.14,39.51-27.71l0.25-0.07c41.28-12.84,84.09-4.73,114.47,21.68c28.94,25.17,41.85,62.21,35.43,101.63
			c-0.03,0.19-0.05,0.38-0.06,0.57l-6.69,220.87H529.97l27.64-136.3c0.48-2.39-1.06-4.71-3.44-5.19
			C553.88,2630.17,553.58,2630.14,553.29,2630.14L553.29,2630.14z"/>
		<path class="st1" d="M522.71,2529.21c-68.13-7.8-222.12-79.89-264.51-67.47c-20.41,5.99-34.81,31.75-21.77,48.53
			c27.62,35.51,140.11,77.26,280.14,116.54c7.32,2.05,40.44,10.94,47.9,12.98"/>
		<path class="st4" d="M564.48,2645.46c-0.51,0-1.01-0.07-1.5-0.2l-16.26-4.4c-12.04-3.26-27.03-7.29-31.67-8.59
			c-162.01-45.45-257.25-85.33-283.06-118.52c-6.31-8.27-7.98-19.19-4.43-28.97c4.55-13.62,15.36-24.22,29.06-28.48
			c25.88-7.58,85.27,12.45,148.15,33.66c44.2,14.9,89.91,30.33,118.59,33.61c3.1,0.34,5.34,3.13,5.01,6.23
			c-0.34,3.11-3.12,5.35-6.22,5.02h-0.07c-29.88-3.42-76.16-19.04-120.92-34.14c-58.44-19.72-118.9-40.09-141.36-33.52
			c-10.09,3.23-18.05,11.06-21.47,21.1c-2.35,6.22-1.37,13.21,2.59,18.54c23.96,30.8,119.81,70.4,277.2,114.57
			c4.58,1.28,19.54,5.32,31.55,8.56c7.22,1.95,13.54,3.65,16.31,4.41c3.01,0.82,4.79,3.93,3.97,6.94
			C569.27,2643.76,567.03,2645.47,564.48,2645.46L564.48,2645.46z"/>
		<path d="M564.48,2646.71c-0.62,0-1.23-0.09-1.82-0.25l-17.58-4.76c-11.8-3.18-25.9-6.99-30.37-8.24
			c-162.28-45.53-257.73-85.55-283.72-118.95c-6.57-8.59-8.32-19.95-4.63-30.12c4.7-13.99,15.81-24.88,29.88-29.27
			c26.27-7.7,85.84,12.39,148.91,33.67l0.44,0.15c43.97,14.82,89.45,30.15,117.91,33.41c3.79,0.42,6.52,3.83,6.11,7.62
			c-0.41,3.79-3.82,6.53-7.61,6.12c-30.15-3.45-76.46-19.08-121.26-34.2c-58.26-19.66-118.51-39.98-140.61-33.51
			c-9.69,3.13-17.33,10.65-20.64,20.29c-2.23,5.83-1.32,12.39,2.41,17.39c23.77,30.57,119.4,70.03,276.54,114.11
			c4.57,1.28,19.53,5.32,31.54,8.56l2.39,0.65l13.93,3.76c3.68,1,5.85,4.8,4.84,8.48c-0.82,3.01-3.55,5.1-6.66,5.09L564.48,2646.71z
			 M270.23,2455.91c-4.48-0.09-8.95,0.45-13.28,1.6c-13.29,4.16-23.79,14.45-28.22,27.67c-3.42,9.39-1.82,19.87,4.23,27.81
			c25.65,32.97,120.67,72.69,282.41,118.08c4.47,1.25,18.56,5.05,30.35,8.23l17.59,4.76c2.34,0.61,4.74-0.76,5.41-3.09
			c0.64-2.35-0.74-4.77-3.08-5.41c0,0,0,0-0.01,0c-2.46-0.68-7.72-2.09-13.92-3.76l-2.39-0.65c-12.02-3.24-26.99-7.28-31.57-8.56
			c-157.65-44.25-253.73-84.02-277.86-115.03c-4.24-5.67-5.29-13.12-2.77-19.75c3.57-10.39,11.82-18.49,22.27-21.85
			c22.87-6.7,83.51,13.75,142.14,33.53c44.67,15.08,90.86,30.67,120.67,34.07c2.43,0.29,4.63-1.45,4.91-3.88c0,0,0-0.01,0-0.01
			c0.26-2.42-1.49-4.59-3.9-4.85c0,0,0,0-0.01,0c-28.73-3.29-74.34-18.66-118.43-33.53l-0.43-0.14
			C350.85,2473.1,299.87,2455.91,270.23,2455.91L270.23,2455.91z"/>
		<path class="st1" d="M546.2,2510.27c-64.99-6.89-205.88-85.12-230.32-78.65c-17.93,5.03-28.39,23.67-23.37,41.62
			c0.64,2.27,1.51,4.47,2.6,6.56c22.27,41.78,128.37,93.91,269.37,159.99"/>
		<path class="st4" d="M564.47,2645.46c-0.83,0-1.64-0.18-2.39-0.53c-144.68-67.8-248.88-119.14-271.96-162.45
			c-5.63-10.6-6.07-23.21-1.19-34.17c4.65-10.92,14.07-19.09,25.52-22.15c12.84-3.4,43.5,9.14,96.58,31.6
			c48.04,20.32,102.47,43.36,135.78,46.89c3.1,0.33,5.35,3.12,5.02,6.23c-0.33,3.11-3.11,5.36-6.22,5.03
			c-34.98-3.71-90.24-27.09-138.99-47.72c-37.28-15.78-79.55-33.67-89.28-31.08c-8.11,2.19-14.76,7.99-18.04,15.73
			c-3.49,7.8-3.19,16.78,0.8,24.33c21.4,40.15,128.72,92.83,266.79,157.53c2.83,1.32,4.05,4.68,2.74,7.52
			c-0.93,2-2.94,3.28-5.14,3.27L564.47,2645.46z"/>
		<path d="M564.48,2646.72l-1.25-0.13c-0.58-0.11-1.14-0.29-1.67-0.54c-144.9-67.9-249.27-119.33-272.54-162.99
			c-10.44-19.89-2.8-44.49,17.07-54.94c2.56-1.35,5.25-2.41,8.04-3.19c13.24-3.51,44.06,9.09,97.39,31.66
			c47.95,20.29,102.3,43.28,135.42,46.8c3.79,0.37,6.57,3.75,6.2,7.55c-0.37,3.8-3.74,6.58-7.54,6.21c-0.04,0-0.08-0.01-0.12-0.01
			c-35.16-3.73-90.5-27.14-139.33-47.8l-0.29-0.12c-35.16-14.88-78.92-33.38-88.2-30.91c-7.74,2.07-14.1,7.61-17.21,15.01
			c-3.36,7.45-3.09,16.04,0.75,23.26c21.22,39.8,128.35,92.38,266.21,156.98c3.45,1.61,4.95,5.72,3.34,9.18c0,0,0,0.01,0,0.01
			C569.61,2645.16,567.17,2646.72,564.48,2646.72L564.48,2646.72z M319.36,2426.85c-1.55-0.02-3.09,0.15-4.6,0.52
			c-11.09,2.93-20.21,10.84-24.68,21.42c-4.76,10.61-4.34,22.83,1.14,33.09c22.91,42.97,126.93,94.21,271.39,161.9
			c0.58,0.27,1.22,0.42,1.87,0.42h0.29c2.42-0.15,4.26-2.25,4.11-4.68c-0.1-1.61-1.07-3.03-2.53-3.71
			c-138.28-64.8-245.77-117.58-267.36-158.07c-4.2-7.89-4.51-17.28-0.84-25.43c3.41-8.1,10.37-14.16,18.86-16.42
			c10.14-2.69,50.64,14.44,89.82,31.02l0.27,0.12c48.69,20.6,103.85,43.94,138.64,47.63c2.41,0.25,4.58-1.5,4.84-3.92
			c0.26-2.42-1.49-4.59-3.91-4.84c0,0,0,0-0.01,0c-33.49-3.55-88.02-26.62-136.13-46.98
			C363.34,2438.94,333.97,2426.85,319.36,2426.85L319.36,2426.85z"/>
		<path class="st2" d="M1507.38,2595.38l171.85,184.02l-154.22,102.47l41.78,70.31l-167.49,175.79L1507.38,2595.38z"/>
		<path class="st2" d="M1168.33,2595.38l-171.84,184.02l154.22,102.47l-41.78,70.31l167.49,175.79L1168.33,2595.38z"/>
		<ellipse class="st1" cx="1108.45" cy="2205.09" rx="102.59" ry="102.64"/>
		<path class="st4" d="M999.25,2205.09c-0.06-60.39,48.79-109.4,109.1-109.45c60.31-0.06,109.24,48.86,109.3,109.25
			c0.06,60.4-48.79,109.4-109.1,109.45c-0.03,0-0.07,0-0.1,0C1048.17,2314.37,999.28,2265.46,999.25,2205.09L999.25,2205.09z
			 M1108.45,2109.07c-52.96,0.04-95.89,42.99-95.98,96.02c-0.05,53.08,42.88,96.15,95.89,96.2c53.01,0.05,96.02-42.94,96.07-96.03
			c0.05-53.08-42.88-96.15-95.89-96.2C1108.51,2109.06,1108.48,2109.06,1108.45,2109.07L1108.45,2109.07z"/>
		<path class="st4" d="M1108.46,2315.6c-60.9-0.14-110.25-49.51-110.45-110.49c0.09-61.04,49.5-110.48,110.45-110.53
			c60.94,0,110.35,49.47,110.35,110.5c0,61.03-49.4,110.5-110.35,110.5V2315.6z M999.25,2205.09h1.25
			c0.02,59.7,48.37,108.08,107.99,108.06c59.59-0.02,107.88-48.39,107.91-108.06c-0.02-59.7-48.37-108.08-107.99-108.06
			c-59.59,0.02-107.88,48.39-107.91,108.06H999.25z M1108.46,2302.37c-53.65,0-97.14-43.55-97.14-97.28
			c0-53.73,43.49-97.28,97.14-97.28s97.14,43.55,97.14,97.28C1205.6,2258.82,1162.11,2302.37,1108.46,2302.37z M1108.46,2110.32
			c-52.27,0.03-94.61,42.49-94.58,94.84c0.03,52.34,42.43,94.74,94.7,94.71c25.08-0.02,49.13-10,66.86-27.76
			c36.97-36.99,37-96.98,0.06-134C1157.73,2120.29,1133.6,2110.29,1108.46,2110.32L1108.46,2110.32z"/>
		<path class="st1" d="M1494.83,2327.37l-0.02,1.02l0.6,273.05c0.19,88.09-70.19,159.75-157.43,160.29
			c-87.07,0.54-158.25-69.98-159.37-157.89l-1.13-87.94c-117.17-51.37-170.58-188.13-119.29-305.47
			c13.8-31.57,34.46-59.67,60.46-82.24c-9.78-39.62-9.04-81.12,2.17-120.36l271.96-1.31c40.42,0.01,73.18,32.84,73.17,73.32
			c0,3.15-0.21,6.3-0.61,9.43l-5.31,42.25"/>
		<path class="st4" d="M1267.36,2541.38c-31.4,0.04-62.49-6.21-91.45-18.36l-0.25-0.1c-3.8-1.68-5.52-6.13-3.84-9.93
			c1.68-3.81,6.12-5.53,9.92-3.85l0,0c70.96,29.59,152.13,20.55,214.87-23.94c3.38-2.42,8.07-1.64,10.49,1.75
			c2.41,3.38,1.63,8.08-1.74,10.5c-40.32,28.65-88.55,44-137.99,43.92L1267.36,2541.38z M1589.71,2262.2c-0.21,0-0.42,0-0.63-0.03
			l-105.89-8.77c-4.13-0.33-7.22-3.95-6.89-8.08c0.18-2.35,1.46-4.48,3.44-5.74l104.79-67.47l0.15-0.1
			c3.52-2.21,8.15-1.15,10.36,2.37c2.21,3.52,1.15,8.17-2.37,10.38l-86.15,55.47l83.82,6.93c4.15,0.17,7.37,3.67,7.2,7.82
			c-0.17,4.15-3.66,7.38-7.81,7.21H1589.71z"/>
		<path class="st1" d="M1491.2,2320.49c56.37,19.09,117.52-11.21,136.58-67.66s-11.19-117.69-67.56-136.77
			c-50.11-16.96-105.1,5-129.79,51.85"/>
		<path class="st4" d="M1489.16,2326.45c-3.31-1.08-5.11-4.65-4.03-7.96s4.64-5.12,7.95-4.03c0.04,0.01,0.09,0.03,0.13,0.04
			c53.08,17.97,110.66-10.55,128.6-63.7c17.95-53.15-10.53-110.81-63.61-128.78c-47.19-15.98-98.97,4.71-122.22,48.83
			c-0.08,0.17-0.17,0.33-0.25,0.5c-1.76,3.01-5.62,4.02-8.62,2.26s-4.01-5.63-2.25-8.64l0,0c29.39-55.82,98.39-77.21,154.13-47.78
			c55.74,29.43,77.1,98.53,47.72,154.35c-26.14,49.66-84.44,72.94-137.53,54.93L1489.16,2326.45z"/>
		<path class="st4" d="M1525.79,2333.74h-0.1c-12.56,0-25.04-2.06-36.94-6.11c-3.95-1.33-6.09-5.61-4.76-9.57
			c1.32-3.96,5.6-6.09,9.56-4.77c0.02,0.01,0.04,0.01,0.06,0.02c52.42,17.75,109.29-10.42,127.02-62.92s-10.4-109.45-62.83-127.2
			c-46.6-15.78-97.75,4.65-120.71,48.23c-0.07,0.15-0.18,0.35-0.29,0.54c-2.11,3.6-6.74,4.81-10.34,2.7s-4.81-6.75-2.7-10.35
			c19.96-37.89,59.25-61.57,102.02-61.5h0.07c63.68-0.01,115.3,51.67,115.32,115.44c0.01,63.77-51.6,115.47-115.27,115.48
			C1525.87,2333.74,1525.83,2333.74,1525.79,2333.74L1525.79,2333.74z M1525.72,2331.24h0.07c62.29,0.02,112.81-50.53,112.83-112.92
			c0.02-62.38-50.46-112.97-112.76-112.99l0,0h-0.07c-41.86-0.07-80.31,23.12-99.83,60.21c-1.47,2.38-0.74,5.5,1.63,6.97
			c2.37,1.47,5.49,0.74,6.96-1.63c0.04-0.06,0.07-0.12,0.1-0.18c0.08-0.13,0.15-0.25,0.21-0.39c26.52-50.27,88.72-69.5,138.92-42.94
			c24.08,12.74,42.13,34.53,50.19,60.59c16.72,54.29-13.67,111.87-67.88,128.61c-20.66,6.38-42.8,6.07-63.27-0.88
			c-2.64-0.9-5.51,0.52-6.41,3.16c-0.9,2.64,0.52,5.51,3.16,6.41c0,0,0,0,0,0c11.64,3.96,23.84,5.98,36.13,5.97H1525.72z"/>
		<path class="st4" d="M1568.74,2263.82c-1.12,0-2.22-0.25-3.24-0.73l-93.67-44.54c-3.75-1.77-5.35-6.25-3.58-10.01
			c0.93-1.97,2.66-3.43,4.75-4.03l94.38-26.96l0.13-0.04c4-1.11,8.14,1.24,9.24,5.25s-1.24,8.15-5.24,9.26l-75.21,21.49l75.67,35.98
			c3.75,1.76,5.37,6.23,3.62,9.99C1574.35,2262.15,1571.67,2263.84,1568.74,2263.82L1568.74,2263.82z"/>
		<ellipse class="st4" cx="1315.98" cy="1961.77" rx="79.8" ry="79.98"/>
		<ellipse class="st4" cx="1412.47" cy="2016.93" rx="45.86" ry="45.97"/>
		<ellipse class="st4" cx="1181.01" cy="1936.96" rx="108.46" ry="108.7"/>
		<g>
			<path class="st4" d="M1201.01,2189.66c-4.15,0-7.51-3.37-7.51-7.52c0.13-12.34-9.76-22.46-22.08-22.59s-22.43,9.77-22.56,22.11
				c0,0.16,0,0.32,0,0.48c0,4.15-3.36,7.52-7.51,7.52s-7.51-3.37-7.51-7.52c-0.17-20.65,16.41-37.52,37.03-37.69
				c20.62-0.17,37.47,16.43,37.64,37.08c0,0.21,0,0.41,0,0.62C1208.51,2186.29,1205.15,2189.66,1201.01,2189.66z M1354.22,2206.5
				c-4.15,0-7.51-3.37-7.51-7.52c-0.01-12.35-10.01-22.35-22.34-22.34c-12.31,0.01-22.3,10-22.3,22.34c0,4.15-3.36,7.52-7.51,7.52
				s-7.51-3.37-7.51-7.52c0.01-20.65,16.74-37.38,37.36-37.36c20.6,0.01,37.3,16.73,37.31,37.36
				C1361.73,2203.14,1358.37,2206.5,1354.22,2206.5z M1232.7,2431.34c-44.47,0-80.65-43.34-80.65-96.64c0-4.15,3.36-7.52,7.51-7.52
				h146.29c4.15,0,7.51,3.37,7.51,7.52C1313.35,2387.99,1277.17,2431.34,1232.7,2431.34L1232.7,2431.34z M1167.33,2342.22
				c3.06,41.49,31.21,74.09,65.36,74.09c34.15,0,62.3-32.6,65.37-74.09H1167.33z M1265.03,2276.73c-0.28,0-0.56-0.02-0.83-0.05
				l-63.46-7.02c-4.12-0.46-7.09-4.17-6.64-8.3c0.11-1.03,0.44-2.02,0.95-2.91l52.29-91.33c2.2-3.52,6.84-4.58,10.35-2.37
				c3.32,2.08,4.48,6.37,2.66,9.85l-46.6,81.38l52.08,5.76c4.12,0.45,7.09,4.17,6.64,8.29c-0.42,3.81-3.63,6.69-7.46,6.69
				L1265.03,2276.73z"/>
		</g>
		<path class="st2" d="M496.81,2775.56h323.87v441.21H496.81V2775.56z"/>
		<path class="st4" d="M820.68,3224.29H496.81c-4.15,0-7.51-3.37-7.51-7.52v-441.22c0-4.15,3.36-7.52,7.51-7.52h323.87
			c4.15,0,7.51,3.37,7.51,7.52v441.22C828.19,3220.92,824.82,3224.29,820.68,3224.29z M504.32,3209.25h308.86v-426.18H504.32
			L504.32,3209.25z"/>
		<path class="st1" d="M496.81,2773.05h323.87v113.74H496.81V2773.05z"/>
		<path class="st4" d="M820.68,2894.31H496.81c-4.15,0-7.51-3.37-7.51-7.52v-113.75c0-4.15,3.36-7.52,7.51-7.52h323.87
			c4.15,0,7.51,3.37,7.51,7.52v113.75C828.19,2890.94,824.82,2894.31,820.68,2894.31z M504.32,2879.27h308.86v-98.72H504.32
			L504.32,2879.27z M1259.39,3061.9l12.23-2.61l33.22,156.17l-12.23,2.61L1259.39,3061.9z M1371.81,3214.06l33.23-156.16l12.23,2.61
			l-33.23,156.17L1371.81,3214.06z"/>
		<path class="st53" d="M841.8,2237.29c-0.02-0.01-0.04-0.03-0.06-0.04C841.76,2237.27,841.78,2237.28,841.8,2237.29z"/>
		<path class="st53" d="M844.27,2227.01c0.09-0.01,0.17-0.02,0.25-0.04C844.43,2226.98,844.35,2226.99,844.27,2227.01z"/>
		<path class="st54" d="M728.78,2206.24c35.69,21.71,74.45,24.14,100.92,22.28c-20.49-16.53-35.78-38.36-45.56-65.09
			c-1.88-5.12-0.73-10.85,2.96-14.86c44.42-48.16,68.88-108.72,68.88-170.52c0-150.27-140.37-272.53-312.89-272.53
			c-90.65,0-176.74,34.17-236.2,93.74c-49.39,49.49-76.52,112.86-76.38,178.47c0,150.27,140.37,272.53,312.9,272.53
			c60.74,0,119.75-15.3,170.63-44.23c2.23-1.27,4.71-1.9,7.19-1.9C721.23,2204.13,726.46,2204.83,728.78,2206.24z"/>
		<ellipse class="st1" cx="543.26" cy="1970.96" rx="22.94" ry="24.01"/>
		<path class="st4" d="M513.14,1970.96c-0.73-16.66,12.17-30.76,28.8-31.48c16.64-0.73,30.71,12.19,31.44,28.85
			c0.04,0.88,0.04,1.76,0,2.64c0.73,16.66-12.17,30.76-28.8,31.48c-16.64,0.73-30.71-12.19-31.44-28.85
			C513.1,1972.72,513.1,1971.84,513.14,1970.96z"/>
		<path class="st4" d="M527.49,1970.96c-0.4,8.72,6.34,16.11,15.05,16.51c8.71,0.4,16.09-6.35,16.49-15.08
			c0.02-0.48,0.02-0.96,0-1.44c0.4-8.72-6.34-16.11-15.05-16.51c-8.71-0.4-16.09,6.35-16.49,15.08
			C527.47,1970.01,527.47,1970.48,527.49,1970.96z"/>
		<ellipse class="st1" cx="446.45" cy="1970.96" rx="22.94" ry="24.01"/>
		<path class="st4" d="M414.32,1970.96c-0.73-16.66,12.17-30.76,28.8-31.48c16.64-0.73,30.71,12.19,31.44,28.85
			c0.04,0.88,0.04,1.76,0,2.64c0.73,16.66-12.17,30.76-28.8,31.48c-16.64,0.73-30.71-12.19-31.44-28.85
			C414.28,1972.72,414.28,1971.84,414.32,1970.96z"/>
		<path class="st4" d="M428.67,1970.96c-0.4,8.72,6.34,16.11,15.05,16.51c8.71,0.4,16.09-6.35,16.49-15.08
			c0.02-0.48,0.02-0.96,0-1.44c0.4-8.72-6.34-16.11-15.05-16.51c-8.71-0.4-16.09,6.35-16.49,15.08
			C428.65,1970.01,428.65,1970.48,428.67,1970.96z"/>
		<ellipse class="st1" cx="639.52" cy="1970.96" rx="22.94" ry="24.01"/>
		<path class="st4" d="M607.39,1970.96c-0.73-16.66,12.17-30.76,28.8-31.48c16.64-0.73,30.71,12.19,31.44,28.85
			c0.04,0.88,0.04,1.76,0,2.64c0.73,16.66-12.17,30.76-28.8,31.48c-16.64,0.73-30.71-12.19-31.44-28.85
			C607.35,1972.72,607.35,1971.84,607.39,1970.96z"/>
		<path class="st4" d="M621.74,1970.96c-0.4,8.72,6.34,16.11,15.05,16.51c8.71,0.4,16.09-6.35,16.49-15.08
			c0.02-0.48,0.02-0.96,0-1.44c0.4-8.72-6.34-16.11-15.05-16.51c-8.71-0.4-16.09,6.35-16.49,15.08
			C621.72,1970.01,621.72,1970.48,621.74,1970.96z"/>
		<path class="st4" d="M1396.8,3134.45c-3.57,0.01-6.46-2.89-6.47-6.46c0-0.44,0.04-0.88,0.13-1.31l108.08-532.59
			c0.72-3.51,4.14-5.77,7.64-5.05c1.31,0.27,2.51,0.94,3.43,1.92l171.85,184.02c2.44,2.61,2.3,6.71-0.31,9.15
			c-0.26,0.24-0.54,0.46-0.83,0.66l-149.09,99.07l38.62,65.01c1.48,2.49,1.12,5.67-0.88,7.77l-167.49,175.8
			C1400.26,3133.73,1398.57,3134.45,1396.8,3134.45L1396.8,3134.45z M1508.73,2608.99l-101.12,498.25l148.6-155.97l-39.28-66.08
			c-1.76-2.97-0.89-6.8,1.98-8.7l147.87-98.25L1508.73,2608.99z"/>
		<path class="st4" d="M1278.92,3134.45c-1.77,0-3.46-0.72-4.68-2l-167.48-175.81c-2-2.1-2.36-5.27-0.88-7.77l38.62-65.01
			l-149.09-99.07c-0.3-0.2-0.58-0.42-0.84-0.66c-2.61-2.44-2.75-6.53-0.32-9.14c0,0,0.01-0.01,0.01-0.01l171.85-184.02
			c2.45-2.61,6.54-2.75,9.16-0.3c0.98,0.92,1.65,2.12,1.92,3.43l108.08,532.59c0.72,3.5-1.54,6.92-5.03,7.64
			C1279.8,3134.41,1279.36,3134.45,1278.92,3134.45L1278.92,3134.45z M1008.93,2778.24l147.87,98.25c2.87,1.91,3.74,5.74,1.98,8.7
			l-39.27,66.08l148.6,155.97l-101.12-498.25L1008.93,2778.24z"/>
		<path class="st4" d="M1337,2769.25c-90.41,0-164.75-73.95-165.92-165.33l-1.07-83.13c-119.88-55.51-172.12-197.83-116.69-317.88
			c13.57-29.39,32.95-55.71,56.97-77.39c-8.98-39.56-7.84-80.76,3.3-119.76c0.92-3.21,3.85-5.43,7.19-5.45l271.96-1.31h0.38
			c22.9,0.02,44.7,9.86,59.88,27.02c15.52,17.54,22.74,40.93,19.81,64.19l-5.31,42.24l-0.02,0.12c-0.55,4.12-4.33,7.02-8.45,6.47
			s-7.01-4.34-6.46-8.46l5.31-42.25c2.4-18.95-3.48-38.02-16.13-52.33c-12.33-13.95-30.03-21.95-48.63-21.97h-0.32l-266.25,1.28
			c-9.42,36.39-9.63,74.56-0.62,111.06c0.68,2.75-0.24,5.64-2.38,7.49c-93.52,81.15-103.64,222.84-22.61,316.49
			c21.82,25.21,48.97,45.24,79.5,58.62c2.72,1.17,4.5,3.84,4.54,6.81l1.13,87.94c1.07,83.17,68.65,150.47,150.87,150.47h0.93
			c82.87-0.5,150.14-69.03,149.95-152.74l-0.6-273.22l0.03-1.02c0.14-4.16,3.63-7.41,7.78-7.27c4.08,0.14,7.31,3.52,7.26,7.61
			l-0.02,0.83l0.6,273.04c0.2,91.98-73.77,167.27-164.9,167.83h-1.03H1337z"/>
	</g>
</g>
</svg>
