<?xml version="1.0" encoding="utf-8"?>
<!-- Generator: Adobe Illustrator 26.1.0, SVG Export Plug-In . SVG Version: 6.00 Build 0)  -->
<svg version="1.1" id="Layer_1" xmlns="http://www.w3.org/2000/svg" xmlns:xlink="http://www.w3.org/1999/xlink" x="0px" y="0px"
	 viewBox="0 0 2000 3200" style="enable-background:new 0 0 2000 3200;" xml:space="preserve">
<style type="text/css">
	.st0{fill:#70D9D9;}
	.st1{fill:#FFFFFF;}
	.st2{fill:#FF7F36;}
	.st3{fill:#007575;}
	.st4{fill:#222433;}
	.st5{fill:#FF7F36;stroke:#FF7F36;stroke-miterlimit:10;}
	.st6{fill:#15C2C1;}
	.st7{fill:#FDA979;}
	.st8{fill:#C35515;}
	.st9{fill:none;stroke:#5A38FD;stroke-width:111.9047;stroke-miterlimit:10;}
	.st10{fill:none;stroke:#FF7F36;stroke-width:111.9047;stroke-miterlimit:10;}
	.st11{fill:none;stroke:#FFFFFF;stroke-width:9.2351;stroke-miterlimit:10;stroke-dasharray:23.0877,36.9403;}
	.st12{fill:none;stroke:#313341;stroke-width:3.8308;stroke-miterlimit:10;}
	.st13{fill:none;}
	.st14{opacity:0.75;fill:#70D9D9;}
	.st15{fill:#5A38FD;}
	.st16{fill:none;stroke:#222433;stroke-width:8.5039;stroke-miterlimit:10;stroke-dasharray:14.1732,14.1732;}
	.st17{fill:#7057FD;}
	.st18{fill:none;stroke:#222433;stroke-width:5.4074;stroke-miterlimit:10;}
	.st19{fill:#222433;stroke:#222433;stroke-width:5.4303;stroke-miterlimit:10;}
	.st20{fill:#2B292D;}
	.st21{fill:none;stroke:#C35515;stroke-width:9.9101;stroke-miterlimit:10;}
	.st22{fill:none;stroke:#C35515;stroke-width:5.6693;stroke-miterlimit:10;}
	.st23{fill:#C35515;stroke:#000000;stroke-miterlimit:10;}
	.st24{fill:#C35515;stroke:#000000;stroke-width:0.6042;stroke-miterlimit:10;}
	.st25{fill:#15C2C1;stroke:#222433;stroke-width:6.1644;stroke-miterlimit:10;}
	.st26{fill:#FFFFFF;stroke:#000000;stroke-width:6.1644;stroke-miterlimit:10;}
	.st27{fill:none;stroke:#007575;stroke-width:6.1644;stroke-miterlimit:10;}
	.st28{fill:none;stroke:#FFFFFF;stroke-width:14.1732;stroke-miterlimit:10;stroke-dasharray:23.0877,36.9403;}
	.st29{fill-rule:evenodd;clip-rule:evenodd;fill:#FDA979;}
	.st30{fill-rule:evenodd;clip-rule:evenodd;fill:#FFFFFF;}
	.st31{fill-rule:evenodd;clip-rule:evenodd;fill:#007575;}
	.st32{fill:#606060;}
	.st33{clip-path:url(#SVGID_00000129171720284484565400000011315813684605503154_);}
	.st34{fill:#222433;stroke:#222433;stroke-width:1.0471;stroke-miterlimit:10;}
	.st35{fill:#222433;stroke:#222433;stroke-width:2.2688;stroke-miterlimit:10;}
	.st36{fill:#82B1FF;}
	.st37{fill:#15C2C1;stroke:#70D9D9;stroke-width:15.652;stroke-miterlimit:10;}
	.st38{stroke:#222433;stroke-width:0.8333;stroke-miterlimit:10;}
	.st39{clip-path:url(#SVGID_00000152251686198070391530000015346236642194897571_);}
	.st40{clip-path:url(#SVGID_00000152251686198070391530000015346236642194897571_);fill:#FF7F36;}
	.st41{clip-path:url(#SVGID_00000152251686198070391530000015346236642194897571_);fill:#C35515;}
	.st42{fill:#222433;stroke:#222433;stroke-width:0.791;stroke-miterlimit:10;}
	.st43{fill-rule:evenodd;clip-rule:evenodd;fill:#FF7F36;}
	.st44{fill-rule:evenodd;clip-rule:evenodd;fill:#15C2C1;}
	.st45{fill:none;stroke:#FF7F36;stroke-width:11.3386;stroke-miterlimit:10;}
	.st46{fill:none;stroke:#FF7F36;stroke-width:9.6934;stroke-miterlimit:10;}
	.st47{opacity:0.44;fill:#FDA979;}
	.st48{fill:none;stroke:#70D9D9;stroke-width:8.5039;stroke-miterlimit:10;stroke-dasharray:11.5087,11.5098;}
	.st49{opacity:0.75;fill:#007575;}
	.st50{clip-path:url(#SVGID_00000000182617162271296280000000756050749477015955_);}
	.st51{fill:none;stroke:#FF7F36;stroke-miterlimit:10;}
	.st52{clip-path:url(#SVGID_00000072259864516984949660000015896391507904999074_);}
	.st53{stroke:#70D9D9;stroke-width:8.5039;stroke-miterlimit:10;}
	.st54{fill:#FDA979;stroke:#222433;stroke-width:17.0079;stroke-miterlimit:10;}
	.st55{clip-path:url(#SVGID_00000178894385859531406980000004484711873892619952_);}
	.st56{fill:none;stroke:#222433;stroke-width:16.1222;stroke-linecap:round;stroke-miterlimit:10;}
	.st57{clip-path:url(#SVGID_00000180368353549159252640000012560796285942042044_);fill:#15C2C1;}
	.st58{clip-path:url(#SVGID_00000180368353549159252640000012560796285942042044_);fill:#C35515;}
	
		.st59{clip-path:url(#SVGID_00000180368353549159252640000012560796285942042044_);fill:#15C2C1;stroke:#000000;stroke-width:8.2755;stroke-miterlimit:10;}
	.st60{clip-path:url(#SVGID_00000180368353549159252640000012560796285942042044_);fill:#FF7F36;}
	
		.st61{clip-path:url(#SVGID_00000180368353549159252640000012560796285942042044_);fill:#15C2C1;stroke:#000000;stroke-width:8.5039;stroke-miterlimit:10;}
	
		.st62{clip-path:url(#SVGID_00000180368353549159252640000012560796285942042044_);fill:none;stroke:#000000;stroke-width:8.5039;stroke-miterlimit:10;}
	
		.st63{clip-path:url(#SVGID_00000180368353549159252640000012560796285942042044_);fill:#FFFFFF;stroke:#000000;stroke-width:8.5039;stroke-miterlimit:10;}
	.st64{clip-path:url(#SVGID_00000180368353549159252640000012560796285942042044_);}
	.st65{fill:none;stroke:#000000;stroke-width:8.2815;stroke-linecap:round;stroke-miterlimit:10;}
	
		.st66{clip-path:url(#SVGID_00000180368353549159252640000012560796285942042044_);fill:#FFFFFF;stroke:#000000;stroke-width:8.7446;stroke-miterlimit:10;}
	.st67{clip-path:url(#SVGID_00000180368353549159252640000012560796285942042044_);fill:none;}
	.st68{clip-path:url(#SVGID_00000087393070445835387960000016242750606071125660_);fill:#FF7F36;}
	.st69{clip-path:url(#SVGID_00000087393070445835387960000016242750606071125660_);}
	
		.st70{clip-path:url(#SVGID_00000087393070445835387960000016242750606071125660_);fill:none;stroke:#5A38FD;stroke-width:111.9047;stroke-miterlimit:10;}
	.st71{clip-path:url(#SVGID_00000130630633787095993640000002296515468288630936_);}
	
		.st72{opacity:0.57;clip-path:url(#SVGID_00000130630633787095993640000002296515468288630936_);fill:none;stroke:#FFFFFF;stroke-width:32.7065;stroke-linecap:round;stroke-miterlimit:10;}
	.st73{fill:#222433;stroke:#000000;stroke-width:7.0866;stroke-miterlimit:10;}
	
		.st74{clip-path:url(#SVGID_00000130630633787095993640000002296515468288630936_);fill:#222433;stroke:#222433;stroke-width:163.17;stroke-miterlimit:10;}
	.st75{fill:none;stroke:#000000;stroke-width:7.0866;stroke-miterlimit:10;}
	
		.st76{clip-path:url(#SVGID_00000130630633787095993640000002296515468288630936_);fill:#70D9D9;stroke:#000000;stroke-width:2.8346;stroke-linecap:round;stroke-miterlimit:10;}
	.st77{clip-path:url(#SVGID_00000169524133580066542390000013436337761923693469_);fill:#FFFFFF;}
	.st78{clip-path:url(#SVGID_00000169524133580066542390000013436337761923693469_);fill:#222433;}
	.st79{clip-path:url(#SVGID_00000169524133580066542390000013436337761923693469_);fill:#15C2C1;}
	.st80{clip-path:url(#SVGID_00000169524133580066542390000013436337761923693469_);fill:#FDA979;}
	.st81{clip-path:url(#SVGID_00000169524133580066542390000013436337761923693469_);}
	.st82{clip-path:url(#SVGID_00000169524133580066542390000013436337761923693469_);fill:#FF7F36;}
	.st83{clip-path:url(#SVGID_00000169524133580066542390000013436337761923693469_);fill:#C35515;}
	.st84{clip-path:url(#SVGID_00000110440393615630615440000005564109968905813158_);}
</style>
<circle class="st16" cx="1694.53" cy="1580" r="135.87"/>
<g transform="translate(278.0 882.0) rotate(0.0 1152.0 547.0) scale(2.0011743001969906 2.0017638943273597)">
	<path class="st4" d="M531.85,645.19c4.22-18.48,13.59-38.49,21.36-38.59c2.69-0.03,11.31,2.83,32.5,67.9
		c0.43,1.32-42.53-15.31-45.2-16.3C537.88,658.59,531.61,646.23,531.85,645.19L531.85,645.19z"/>
	<path class="st1" d="M101.88,798.17c0,0-27.8-7.66-55.91,0c-29.71,7.51-47.79,26.19-57.5,39.61c2.63-8.27,13.1-40.56,44.18-59.78
		c25.62-14.64,40.63-15.04,48.6-15.27C86.02,772.95,101.88,798.17,101.88,798.17L101.88,798.17z"/>
	<path class="st4" d="M-11.52,839.66c-1.04,0-1.88-0.84-1.88-1.88c0-0.19,0.03-0.39,0.09-0.57c10.82-33.96,30.44-51.82,44.98-60.81
		c0.02-0.01,0.04-0.02,0.06-0.03c25.96-14.84,41.21-15.28,49.41-15.51l0.06,0c0.75-0.02,1.44,0.41,1.76,1.09
		c4.66,10.01,20.36,34.99,20.51,35.24c0.55,0.88,0.29,2.04-0.6,2.6c-0.45,0.28-0.99,0.36-1.5,0.22c-0.27-0.08-27.65-7.43-54.91,0
		C17.82,807.23-0.05,825.13-10,838.88C-10.35,839.37-10.92,839.66-11.52,839.66L-11.52,839.66z M33.62,779.61
		c-12.41,7.68-28.65,22.08-39.47,48.12c10.98-12.29,27.59-25.37,51.36-31.38c21.88-5.97,43.29-2.88,52.37-1.03
		c-4.43-7.16-13.76-22.42-17.8-30.67C71.97,764.9,57.56,765.93,33.62,779.61L33.62,779.61z"/>
	<path class="st1" d="M490,824.2c0,0,56.3-27.67,73.07-25.84c6.91,0.75,1.03-1.8,27.47-1.02c13.1,0.02,26.32-0.56,32.82-12.09
		l17.86-29.67c0,0-36.88-73.52-71.73-90.7c0,0-20.54-9.07-27.14-8.69c-1.56-0.44-3.14-0.81-4.73-1.1l-46.1,14.08
		c-2.97,2.9-23.45,15.01-23.45,15.01l-66.94-1.13l-225.73,1.28c-26.94-3.32-53.84,6.44-72.39,26.26
		c-29.61,31.47-33.7,83.17-3.36,115.06l25.43,26.91l163.96,0.14h78.25C387.7,850.02,490,824.2,490,824.2L490,824.2z"/>
	<path class="st4" d="M367.27,854.57h-78.25l-163.96-0.14c-0.52,0-1.01-0.21-1.37-0.59l-25.43-26.91
		c-14.75-15.51-22.32-36.49-21.32-59.07c0.96-21.59,9.95-42.94,24.67-58.58c18.86-20.16,46.47-30.19,73.87-26.85l225.61-1.28
		l66.45,1.12c8.17-4.84,20.62-12.49,22.64-14.47c0.22-0.21,0.48-0.37,0.77-0.45l46.1-14.08c0.29-0.09,0.59-0.11,0.89-0.05
		c1.56,0.28,3.1,0.64,4.62,1.06c7.12-0.13,25.57,7.92,27.68,8.86l0.07,0.03c35.01,17.27,71.06,88.52,72.58,91.55
		c0.29,0.58,0.26,1.26-0.07,1.81l-17.86,29.67c-7.35,13.04-23,13.02-34.44,13c-16.47-0.49-20.16,0.31-22.36,0.79
		c-1.56,0.34-2.58,0.52-5.31,0.22c-16.04-1.76-71.48,25.38-72.04,25.66c-0.12,0.06-0.24,0.1-0.37,0.14
		c-4.18,1.06-102.64,25.87-122.94,28.53C367.44,854.57,367.36,854.57,367.27,854.57L367.27,854.57z M125.88,850.67l163.15,0.14
		h78.13c19.95-2.66,117.21-27.13,122.2-28.39c4.12-2.02,57.12-27.78,73.93-25.93c2.25,0.25,2.87,0.11,4.1-0.16
		c2.37-0.52,6.34-1.38,23.22-0.88c13.56,0.02,25.31-0.81,31.13-11.14l17.35-28.82c-4.39-8.5-38.58-73.21-70.37-88.92
		c-5.63-2.48-21.21-8.8-26.24-8.51c-0.21,0.01-0.42-0.01-0.62-0.07c-1.36-0.38-2.73-0.71-4.12-0.97l-45.26,13.82
		c-3.93,3.38-21.4,13.75-23.45,14.95c-0.3,0.18-0.64,0.27-0.99,0.26l-66.94-1.13l-225.69,1.28c-0.08,0-0.16,0-0.24-0.01
		c-26.25-3.24-52.71,6.36-70.78,25.67C74.1,744.02,72.6,794.48,101,824.34L125.88,850.67L125.88,850.67z M490,824.2L490,824.2
		L490,824.2z"/>
	<path class="st1" d="M498.8,698.6c-19.65-33.01,5.53-92.65,14.85-92.77c9.32-0.12,31.7,72.85,31.7,72.85"/>
	<g>
		<path class="st4" d="M498.8,700.48c-0.66,0-1.28-0.35-1.62-0.92c-16.21-27.23-2.92-69.16,6.06-85.2
			c3.85-6.87,7.34-10.38,10.38-10.42c3.05-0.03,6.24,3.66,10.59,12.37c3.05,6.1,6.59,14.59,10.54,25.23
			c6.7,18.07,12.33,36.39,12.39,36.57c0.3,0.99-0.25,2.05-1.25,2.35c-0.99,0.3-2.05-0.25-2.35-1.25l0,0
			c-0.06-0.18-5.61-18.23-12.23-36.11c-12.64-34.13-17.18-35.37-17.66-35.41c-0.67,0.01-3.26,1.55-7.14,8.49
			c-10.67,19.06-19.99,58.12-6.11,81.43c0.53,0.89,0.24,2.05-0.65,2.58C499.47,700.39,499.14,700.48,498.8,700.48L498.8,700.48z
			 M641.21,756.57l-10.87,17.06l1.63-33.12L641.21,756.57z M571.74,722.78c-4.14,0-8.26-1.74-11.17-5.12
			c-0.49-0.57-0.93-1.17-1.32-1.8l-0.35-0.6c-0.51-0.9-0.2-2.05,0.71-2.57c0.88-0.5,2.01-0.21,2.54,0.66l0.33,0.55
			c0.27,0.43,0.6,0.88,0.96,1.3c3.93,4.58,10.85,5.1,15.43,1.17l1.88-1.59c0.81-0.65,1.99-0.53,2.65,0.28
			c0.63,0.78,0.54,1.93-0.22,2.59l-1.87,1.58C578.64,721.54,575.24,722.79,571.74,722.78L571.74,722.78z M289.02,854.57
			L289.02,854.57l-107.48-0.14c-1.04,0-1.88-0.84-1.88-1.88c0-1.04,0.84-1.88,1.88-1.88c0,0,0,0,0,0h0l105.59,0.14l0-6.75
			c0.21-18.44-14.6-33.59-33.01-33.8l-27.84-0.32c-0.44-0.01-0.86-0.16-1.2-0.45l-0.1-0.08c-0.79-0.67-0.89-1.86-0.22-2.65
			c24.09-28.47,22.84-70.34-2.9-97.4c-0.73-0.74-0.71-1.94,0.03-2.66s1.94-0.71,2.66,0.03c0.01,0.01,0.02,0.02,0.03,0.03
			c26.19,27.53,28.27,69.63,5.44,99.45l24.13,0.27c20.49,0.23,36.97,17.09,36.73,37.58l0,8.62
			C290.91,853.73,290.06,854.57,289.02,854.57C289.02,854.57,289.02,854.57,289.02,854.57L289.02,854.57z"/>
		<path class="st4" d="M198.61,829.51c-1.04,0-1.88-0.84-1.88-1.88c0-0.76,0.46-1.45,1.16-1.74c13.7-5.73,25.18-15.38,33.22-27.93
			c0.57-0.87,1.73-1.12,2.6-0.55c0.86,0.56,1.11,1.71,0.57,2.58c-8.45,13.19-20.53,23.35-34.93,29.37
			C199.1,829.46,198.85,829.51,198.61,829.51L198.61,829.51z"/>
	</g>
	<path class="st1" d="M395.2,766.31c22.38,14.06,47.49,32.56,47.49,32.56l89.83-0.36l9.02-3.79c3.92-1.65,8.09-2.7,12.34-2.84
		c15.48-0.5,36.68,17.62,33.28,35.74l-2.89,20.62l-218.52,4.45c-16.67,0-31.61-10.28-37.56-25.86"/>
	<path class="st4" d="M365.78,854.57c-17.37,0-33.17-10.88-39.36-27.06c-0.38-0.97,0.09-2.06,1.05-2.44
		c0.97-0.38,2.06,0.09,2.44,1.05c0.01,0.02,0.01,0.03,0.02,0.05c5.63,14.74,20.02,24.65,35.8,24.65l216.88-4.41l2.67-19.03
		c0-0.03,0.01-0.06,0.01-0.09c1.27-6.79-1.17-14.19-6.87-20.84c-6.72-7.84-16.57-12.93-24.5-12.67c-3.78,0.12-7.71,1.03-11.67,2.69
		l-9.02,3.79c-0.23,0.1-0.47,0.15-0.72,0.15l-89.83,0.36c-0.4,0.01-0.8-0.12-1.12-0.37c-0.25-0.18-25.31-18.62-47.38-32.48
		c-0.87-0.56-1.13-1.73-0.56-2.6c0.55-0.86,1.69-1.12,2.56-0.59c20.45,12.85,43.43,29.59,47.1,32.27l88.84-0.35l8.67-3.64
		c4.39-1.84,8.77-2.85,13.01-2.99c9.01-0.28,20.06,5.33,27.48,13.98c6.45,7.52,9.19,16.02,7.72,23.94l-2.88,20.58
		c-0.13,0.91-0.9,1.6-1.83,1.62L365.78,854.57z"/>
	<path class="st6" d="M686.88,946.81c0,0,6.44-37.15,6.44-50.23c0-1.04-0.02-2.07-0.04-3.1c-1.98-68.45-78.18-107.23-135.89-90.82
		c0,0-86.58,38.89-157.45,40.85H264.41c-70.12,1.98-157.45-40.85-157.45-40.85c-64.35-23.42-133.91,22.37-135.89,90.82
		c-0.03,1.03-0.04,2.07-0.04,3.1v50.23H686.88z"/>
</g>
<g transform="translate(1092.0 182.0) rotate(0.0 303.0 285.0) scale(1.9941360553619554 1.9996772450762335)">
	<path class="st1" d="M-152.06,788.13H-19.4c2.65,0,4.81,2.15,4.81,4.81v109.49c0,2.65-2.15,4.81-4.81,4.81h-132.65
		c-2.65,0-4.81-2.15-4.81-4.81V792.93C-156.86,790.28-154.71,788.13-152.06,788.13z"/>
	<path class="st1" d="M-8.37,771.98h-154.99c-1.86,0.04-3.33,1.58-3.3,3.44v144.49c-0.04,1.86,1.44,3.4,3.3,3.44c0,0,0,0,0,0H-8.37
		c1.86-0.04,3.33-1.58,3.3-3.44V775.41C-5.03,773.56-6.51,772.02-8.37,771.98z M-19.39,903.78c0.04,1.86-1.44,3.4-3.3,3.44h-126.34
		c-1.86-0.04-3.33-1.58-3.3-3.44V791.54c-0.04-1.86,1.44-3.4,3.3-3.44h126.35c1.86,0.04,3.34,1.58,3.3,3.44L-19.39,903.78z"/>
	<path class="st4" d="M-163.36,924.97c-2.79-0.06-4.98-2.35-4.92-5.1V775.41c-0.06-2.72,2.14-5.01,4.89-5.06H-8.33
		c2.75,0.06,4.95,2.34,4.89,5.1v144.46c0.06,2.72-2.14,5.01-4.89,5.06L-163.36,924.97L-163.36,924.97z M-163.36,773.61
		c-0.92,0.02-1.69,0.82-1.67,1.78v144.52c-0.02,0.99,0.74,1.79,1.7,1.81H-8.37c0.92-0.02,1.69-0.82,1.67-1.78V775.41
		c0.02-0.99-0.74-1.78-1.69-1.81H-163.36z M-149.04,908.84c-2.79-0.06-4.98-2.34-4.92-5.1v-112.2c-0.06-2.72,2.14-5.01,4.89-5.06
		h126.38c2.79,0.06,4.98,2.34,4.92,5.1l0,112.18c0.05,2.74-2.14,5.02-4.89,5.08H-149.04z M-22.72,789.73h-126.31
		c-0.92,0.02-1.69,0.82-1.67,1.78v112.26c-0.02,0.99,0.75,1.79,1.7,1.81h126.31c0.93-0.02,1.69-0.82,1.67-1.78v-0.03l0-112.23
		C-21,790.55-21.76,789.75-22.72,789.73L-22.72,789.73z"/>
	<path class="st7" d="M-56.94,809.21c-4.73-5.22-12.85-5.62-18.07-0.89c-4.71,4.27-5.49,11.26-2.11,16.42l-32.35,29.32
		c-4.85-3.82-11.88-3.73-16.6,0.54c-5.22,4.73-5.62,12.85-0.89,18.07c2.34,2.59,5.52,4.05,8.9,4.22c-0.21,3.33,0.98,6.69,3.28,9.22
		c4.73,5.22,12.85,5.62,18.07,0.89c4.71-4.27,5.49-11.26,2.11-16.42l32.4-29.37c4.8,3.87,11.88,3.73,16.54-0.5
		c5.22-4.73,5.62-12.85,0.89-18.07c-2.34-2.59-5.52-4.05-8.9-4.22C-53.45,815.09-54.6,811.79-56.94,809.21L-56.94,809.21z"/>
</g>
<g transform="translate(2464.0 1726.0) rotate(0.0 128.0 128.0) scale(1.9862822382917975 1.9862822382917975)">
	<circle class="st1" cx="-398.87" cy="490.74" r="38.55"/>
	<g>
		<path class="st4" d="M-398.87,531.17c-22.33,0-40.43-18.1-40.43-40.43s18.1-40.43,40.43-40.43c22.33,0,40.43,18.1,40.43,40.43
			C-358.47,513.06-376.55,531.14-398.87,531.17z M-398.87,454.08c-20.25,0-36.66,16.42-36.66,36.66s16.42,36.66,36.66,36.66
			c20.25,0,36.66-16.42,36.66-36.66l0,0C-362.23,470.5-378.63,454.1-398.87,454.08z"/>
		<path class="st4" d="M-397.05,530.48c-0.59,0-1.14-0.27-1.5-0.74c-13.49-17.79-10.01-43.14,7.77-56.64
			c6.01-4.56,13.18-7.35,20.7-8.05c1.03-0.11,1.96,0.64,2.07,1.68c0.11,1.03-0.64,1.96-1.68,2.07c-0.01,0-0.03,0-0.04,0
			c-20.16,1.87-34.99,19.73-33.12,39.89c0.63,6.82,3.16,13.32,7.3,18.77c0.63,0.83,0.47,2.01-0.36,2.64
			C-396.24,530.35-396.64,530.48-397.05,530.48L-397.05,530.48z"/>
	</g>
</g>
<g transform="translate(180.0 1968.0) rotate(0.0 1318.0 10.0) scale(1.6207575012297097 1.7543859649122806)">
	<path class="st4" d="M1005.21,463.95H-11.36c-1.07,0-1.88-0.82-1.88-1.88c0-1.07,0.82-1.88,1.88-1.88h1016.58
		c1.07,0,1.88,0.82,1.88,1.88C1007.1,463.14,1006.28,463.95,1005.21,463.95z"/>
</g>
<g transform="translate(180.0 1968.0) rotate(0.0 1318.0 10.0) scale(1.6207575012297097 1.7543859649122806)">
	<path class="st4" d="M528.77,510.18H-38.51c-0.6,0-1.05-0.82-1.05-1.88c0-1.07,0.46-1.88,1.05-1.88h567.28
		c0.6,0,1.05,0.82,1.05,1.88C529.82,509.36,529.36,510.18,528.77,510.18z"/>
</g>
<g transform="translate(180.0 1968.0) rotate(0.0 1318.0 10.0) scale(1.6207575012297097 1.7543859649122806)">
	<path class="st4" d="M977.27,663.9H660.81c-0.33,0-0.59-0.82-0.59-1.88s0.25-1.88,0.59-1.88h316.46c0.33,0,0.59,0.82,0.59,1.88
		S977.6,663.9,977.27,663.9z"/>
</g>
<g transform="translate(180.0 1968.0) rotate(0.0 1318.0 10.0) scale(1.6207575012297097 1.7543859649122806)">
	<path class="st4" d="M732.57,528.8H416.11c-0.33,0-0.59-0.82-0.59-1.88c0-1.07,0.25-1.88,0.59-1.88h316.46
		c0.33,0,0.59,0.82,0.59,1.88C733.16,527.99,732.9,528.8,732.57,528.8z"/>
</g>
</svg>
