<?xml version="1.0" encoding="utf-8"?>
<!-- Generator: Adobe Illustrator 26.1.0, SVG Export Plug-In . SVG Version: 6.00 Build 0)  -->
<svg version="1.1" id="Layer_1" xmlns="http://www.w3.org/2000/svg" xmlns:xlink="http://www.w3.org/1999/xlink" x="0px" y="0px"
	 viewBox="0 0 2000 3200" style="enable-background:new 0 0 2000 3200;" xml:space="preserve">
<style type="text/css">
	.st0{fill:#70D9D9;}
	.st1{fill:#FFFFFF;}
	.st2{fill:#FF7F36;}
	.st3{fill:#007575;}
	.st4{fill:#222433;}
	.st5{fill:#FF7F36;stroke:#FF7F36;stroke-miterlimit:10;}
	.st6{fill:#15C2C1;}
	.st7{fill:#FDA979;}
	.st8{fill:#C35515;}
	.st9{fill:none;stroke:#5A38FD;stroke-width:111.9047;stroke-miterlimit:10;}
	.st10{fill:none;stroke:#FF7F36;stroke-width:111.9047;stroke-miterlimit:10;}
	.st11{fill:none;stroke:#FFFFFF;stroke-width:9.2351;stroke-miterlimit:10;stroke-dasharray:23.0877,36.9403;}
	.st12{fill:none;stroke:#313341;stroke-width:3.8308;stroke-miterlimit:10;}
	.st13{fill:none;}
	.st14{opacity:0.75;fill:#70D9D9;}
	.st15{fill:#5A38FD;}
	.st16{fill:none;stroke:#222433;stroke-width:8.5039;stroke-miterlimit:10;stroke-dasharray:14.1732,14.1732;}
	.st17{fill:#7057FD;}
	.st18{fill:none;stroke:#222433;stroke-width:5.4074;stroke-miterlimit:10;}
	.st19{fill:#222433;stroke:#222433;stroke-width:5.4303;stroke-miterlimit:10;}
	.st20{fill:#2B292D;}
	.st21{fill:none;stroke:#C35515;stroke-width:9.9101;stroke-miterlimit:10;}
	.st22{fill:none;stroke:#C35515;stroke-width:5.6693;stroke-miterlimit:10;}
	.st23{fill:#C35515;stroke:#000000;stroke-miterlimit:10;}
	.st24{fill:#C35515;stroke:#000000;stroke-width:0.6042;stroke-miterlimit:10;}
	.st25{fill:#15C2C1;stroke:#222433;stroke-width:6.1644;stroke-miterlimit:10;}
	.st26{fill:#FFFFFF;stroke:#000000;stroke-width:6.1644;stroke-miterlimit:10;}
	.st27{fill:none;stroke:#007575;stroke-width:6.1644;stroke-miterlimit:10;}
	.st28{fill:none;stroke:#FFFFFF;stroke-width:14.1732;stroke-miterlimit:10;stroke-dasharray:23.0877,36.9403;}
	.st29{fill-rule:evenodd;clip-rule:evenodd;fill:#FDA979;}
	.st30{fill-rule:evenodd;clip-rule:evenodd;fill:#FFFFFF;}
	.st31{fill-rule:evenodd;clip-rule:evenodd;fill:#007575;}
	.st32{fill:#606060;}
	.st33{clip-path:url(#SVGID_00000031899224348793218790000009282369233814748852_);}
	.st34{fill:#222433;stroke:#222433;stroke-width:1.0471;stroke-miterlimit:10;}
	.st35{fill:#222433;stroke:#222433;stroke-width:2.2688;stroke-miterlimit:10;}
	.st36{fill:#82B1FF;}
	.st37{fill:#15C2C1;stroke:#70D9D9;stroke-width:15.652;stroke-miterlimit:10;}
	.st38{stroke:#222433;stroke-width:0.8333;stroke-miterlimit:10;}
	.st39{clip-path:url(#SVGID_00000061459958289604848050000016407749294355111856_);}
	.st40{clip-path:url(#SVGID_00000061459958289604848050000016407749294355111856_);fill:#FF7F36;}
	.st41{clip-path:url(#SVGID_00000061459958289604848050000016407749294355111856_);fill:#C35515;}
	.st42{fill:#222433;stroke:#222433;stroke-width:0.791;stroke-miterlimit:10;}
	.st43{fill-rule:evenodd;clip-rule:evenodd;fill:#FF7F36;}
	.st44{fill-rule:evenodd;clip-rule:evenodd;fill:#15C2C1;}
	.st45{fill:none;stroke:#FF7F36;stroke-width:11.3386;stroke-miterlimit:10;}
	.st46{fill:none;stroke:#FF7F36;stroke-width:9.6934;stroke-miterlimit:10;}
	.st47{opacity:0.44;fill:#FDA979;}
	.st48{fill:none;stroke:#70D9D9;stroke-width:8.5039;stroke-miterlimit:10;stroke-dasharray:11.5087,11.5098;}
	.st49{opacity:0.75;fill:#007575;}
	.st50{clip-path:url(#SVGID_00000028295544631211033900000001829188863468570025_);}
	.st51{fill:none;stroke:#FF7F36;stroke-miterlimit:10;}
	.st52{clip-path:url(#SVGID_00000052791274896854706650000003591379390510143365_);}
	.st53{stroke:#70D9D9;stroke-width:8.5039;stroke-miterlimit:10;}
	.st54{fill:#FDA979;stroke:#222433;stroke-width:17.0079;stroke-miterlimit:10;}
	.st55{clip-path:url(#SVGID_00000137833345931879667930000015455591882375896761_);}
	.st56{fill:none;stroke:#222433;stroke-width:16.1222;stroke-linecap:round;stroke-miterlimit:10;}
	.st57{clip-path:url(#SVGID_00000150807434270001757930000004316313080441990590_);fill:#15C2C1;}
	.st58{clip-path:url(#SVGID_00000150807434270001757930000004316313080441990590_);fill:#C35515;}
	
		.st59{clip-path:url(#SVGID_00000150807434270001757930000004316313080441990590_);fill:#15C2C1;stroke:#000000;stroke-width:8.2755;stroke-miterlimit:10;}
	.st60{clip-path:url(#SVGID_00000150807434270001757930000004316313080441990590_);fill:#FF7F36;}
	
		.st61{clip-path:url(#SVGID_00000150807434270001757930000004316313080441990590_);fill:#15C2C1;stroke:#000000;stroke-width:8.5039;stroke-miterlimit:10;}
	
		.st62{clip-path:url(#SVGID_00000150807434270001757930000004316313080441990590_);fill:none;stroke:#000000;stroke-width:8.5039;stroke-miterlimit:10;}
	
		.st63{clip-path:url(#SVGID_00000150807434270001757930000004316313080441990590_);fill:#FFFFFF;stroke:#000000;stroke-width:8.5039;stroke-miterlimit:10;}
	.st64{clip-path:url(#SVGID_00000150807434270001757930000004316313080441990590_);}
	.st65{fill:none;stroke:#000000;stroke-width:8.2815;stroke-linecap:round;stroke-miterlimit:10;}
	
		.st66{clip-path:url(#SVGID_00000150807434270001757930000004316313080441990590_);fill:#FFFFFF;stroke:#000000;stroke-width:8.7446;stroke-miterlimit:10;}
	.st67{clip-path:url(#SVGID_00000150807434270001757930000004316313080441990590_);fill:none;}
	.st68{clip-path:url(#SVGID_00000106141501684687684450000013718669562787290301_);fill:#FF7F36;}
	.st69{clip-path:url(#SVGID_00000106141501684687684450000013718669562787290301_);}
	
		.st70{clip-path:url(#SVGID_00000106141501684687684450000013718669562787290301_);fill:none;stroke:#5A38FD;stroke-width:111.9047;stroke-miterlimit:10;}
	.st71{clip-path:url(#SVGID_00000124119340699950847690000008272194524192820643_);}
	
		.st72{opacity:0.57;clip-path:url(#SVGID_00000124119340699950847690000008272194524192820643_);fill:none;stroke:#FFFFFF;stroke-width:32.7065;stroke-linecap:round;stroke-miterlimit:10;}
	.st73{fill:#222433;stroke:#000000;stroke-width:7.0866;stroke-miterlimit:10;}
	
		.st74{clip-path:url(#SVGID_00000124119340699950847690000008272194524192820643_);fill:#222433;stroke:#222433;stroke-width:163.17;stroke-miterlimit:10;}
	.st75{fill:none;stroke:#000000;stroke-width:7.0866;stroke-miterlimit:10;}
	
		.st76{clip-path:url(#SVGID_00000124119340699950847690000008272194524192820643_);fill:#70D9D9;stroke:#000000;stroke-width:2.8346;stroke-linecap:round;stroke-miterlimit:10;}
	.st77{clip-path:url(#SVGID_00000030460648304565638450000012743542360584404896_);fill:#FFFFFF;}
	.st78{clip-path:url(#SVGID_00000030460648304565638450000012743542360584404896_);fill:#222433;}
	.st79{clip-path:url(#SVGID_00000030460648304565638450000012743542360584404896_);fill:#15C2C1;}
	.st80{clip-path:url(#SVGID_00000030460648304565638450000012743542360584404896_);fill:#FDA979;}
	.st81{clip-path:url(#SVGID_00000030460648304565638450000012743542360584404896_);}
	.st82{clip-path:url(#SVGID_00000030460648304565638450000012743542360584404896_);fill:#FF7F36;}
	.st83{clip-path:url(#SVGID_00000030460648304565638450000012743542360584404896_);fill:#C35515;}
	.st84{clip-path:url(#SVGID_00000030487412089444691460000004827949791053277882_);}
</style>
<path class="st4" d="M1493.42,2228.13c3-0.05,6.71-0.59,8.27-3.08c2-3.22,0.63-10.11-19.77-32.88
	c-17.75-19.8-46.99-42.77-65.34-46.83c-2.22-0.49-4.42,0.92-4.91,3.14c-0.49,2.22,20.98,39.51-27.68,44.49
	c0.58,17.59,1.16,35.19,1.74,52.78L1493.42,2228.13z"/>
<path class="st6" d="M1383.03,2248c11.98-2.2,190.42-34.25,190.42-34.25c29.9-5.35,58.48,14.56,63.83,44.46
	c1.14,6.37,1.15,12.89,0.02,19.27l-25.11,141.75c-3.35,18.92-16.32,34.72-34.22,41.69c2.7-3.38,5.58-6.74,8.62-10.47
	c10.71-13.52,12.32-32.13,4.1-47.3c-10.85-19.86-53.38-37.75-69.65-12.2c-6.23,9.95-11.79,20.3-16.63,31
	c-1.65-7.19-1.84-14.63-0.54-21.89v-0.01l11.37-64.1l-56.29,10.07l-0.51,45.45l-153.54,36.65l-83.09,135.74
	c-0.39-1.21-0.83-2.4-1.33-3.58c-8.88-20.81-49.49-42.72-68.14-18.9c-4.86,6.22-5.88-2.34,2.26-10.34l73.14-71.85l27.25-147.56
	c6.48-38.57,47.8-48.56,63.68-52.34"/>
<path class="st4" d="M1221.81,2566.87c-0.12,0-0.24-0.01-0.36-0.02c-1.16-0.14-2.14-0.94-2.5-2.06c-0.37-1.14-0.78-2.26-1.24-3.33
	c-5.4-12.65-23.15-25.08-38.76-27.13c-7.15-0.94-17.16-0.15-24.26,8.91c-0.72,0.93-2.94,3.76-5.84,3.22
	c-1.47-0.29-2.64-1.39-3.04-2.83c-1.11-3.64,1.69-9.83,6.67-14.72l72.46-71.19l27.08-146.63c6.83-40.64,49.77-50.86,65.94-54.71
	c1.61-0.38,3.23,0.61,3.61,2.22s-0.61,3.23-2.22,3.61c0,0,0,0,0,0c-15.11,3.6-55.24,13.15-61.42,49.92l-27.26,147.61
	c-0.11,0.61-0.41,1.17-0.85,1.6l-73.08,71.79c6.28-4.28,14.07-5.91,22.98-4.75c16.98,2.23,35.58,14.94,42.62,28.84l79.98-130.66
	c0.42-0.68,1.09-1.17,1.86-1.35l151.26-36.11l0.48-43.11c0.02-1.44,1.05-2.67,2.47-2.92l56.29-10.07c1.63-0.29,3.19,0.79,3.48,2.43
	c0.06,0.35,0.06,0.7,0,1.05l-11.35,64.01c0,0.03-0.01,0.07-0.02,0.1c-0.65,3.63-0.91,7.32-0.78,11.01
	c3.75-7.64,7.91-15.07,12.46-22.26c6.1-9.58,15.98-14.43,28.56-14c17.89,0.6,38.64,12.43,46.25,26.38
	c8.37,15.4,7.27,34.21-2.83,48.53c9.85-7.91,16.51-19.11,18.74-31.53l25.11-141.75c5.01-28.28-13.86-55.26-42.14-60.27
	c-6.03-1.07-12.2-1.06-18.23,0.02c-1.78,0.32-178.57,32.06-190.41,34.24c-1.62,0.33-3.21-0.73-3.53-2.35
	c-0.33-1.62,0.73-3.21,2.35-3.53c0.03-0.01,0.06-0.01,0.09-0.02c11.85-2.18,188.65-33.93,190.44-34.25
	c31.54-5.64,61.67,15.35,67.31,46.88c1.2,6.72,1.21,13.6,0.02,20.32l-25.11,141.75c-3.59,19.92-17.25,36.55-36.09,43.96
	c-1.54,0.6-3.28-0.16-3.88-1.71c-0.39-1-0.22-2.13,0.45-2.96c1.56-1.95,3.15-3.86,4.83-5.88c1.24-1.49,2.51-3.01,3.81-4.61
	c9.96-12.58,11.45-29.88,3.79-43.98c-6.6-12.07-25.46-22.72-41.18-23.25c-7.2-0.24-17.11,1.51-23.3,11.23
	c-6.17,9.83-11.67,20.07-16.44,30.65c-0.7,1.5-2.48,2.16-3.98,1.46c-0.84-0.39-1.45-1.15-1.66-2.05c-1.74-7.55-1.94-15.37-0.59-23
	c0-0.03,0.01-0.07,0.02-0.1l10.62-59.87l-49.61,8.88l-0.48,42.97c-0.01,1.38-0.96,2.56-2.3,2.89l-152.33,36.36l-82.44,134.68
	C1223.83,2566.32,1222.86,2566.86,1221.81,2566.87L1221.81,2566.87z"/>
<path class="st1" d="M1382.6,2189.09l0.23,69.77c0.03,16.93-13.45,30.79-30.37,31.24h-0.04c-17.23,0.45-31.56-13.15-32.01-30.37
	c0,0,0,0,0,0l-0.12-28.95c-20.99-5.68-35.6-21.83-36.9-40.49c-0.86-12.37,4.58-23.72,12.13-32.39c-1.5-3.69-2.54-7.54-3.11-11.48
	c-2.03-13.48,1.46-23.68,6.76-33.18l14.21-9.55l51.13,49.23"/>
<path class="st4" d="M1351.63,2293.11c-18.54-0.01-33.7-14.77-34.21-33.3l-0.11-26.77c-20.85-6.49-35.57-23.34-36.91-42.54
	c-0.79-11.3,3.35-23.02,11.68-33.17c-1.24-3.39-2.12-6.9-2.64-10.47c-2.35-15.6,2.57-26.94,7.11-35.07
	c0.23-0.41,0.55-0.76,0.95-1.03l14.22-9.55c1.17-0.79,2.74-0.65,3.75,0.33l51.13,49.23c1.19,1.15,1.23,3.05,0.08,4.24
	c-1.15,1.19-3.05,1.23-4.24,0.08l-49.39-47.55l-11.6,7.8c-4.2,7.65-8.08,17.27-6.07,30.65c0.53,3.7,1.51,7.33,2.92,10.79
	c0.43,1.05,0.23,2.25-0.52,3.1c-8.06,9.26-12.11,19.99-11.4,30.21c1.2,17.32,15.15,32.51,34.69,37.8c1.3,0.35,2.21,1.53,2.22,2.88
	l0.12,28.95c0.44,15.25,12.92,27.38,28.18,27.4c0.25,0,0.5,0,0.75-0.01c15.35-0.31,27.6-12.9,27.49-28.25l-0.23-69.77
	c-0.01-1.66,1.33-3,2.99-3.01c1.66-0.01,3,1.33,3.01,2.99l0,0l0.23,69.77c0.14,18.6-14.69,33.86-33.29,34.25
	C1352.24,2293.11,1351.93,2293.11,1351.63,2293.11L1351.63,2293.11z"/>
<path class="st1" d="M1359.7,2221.91c-12.07,8.87-27.5,11.8-41.98,7.95"/>
<g>
	<path class="st4" d="M1330.5,2234.54c-4.58,0-9.13-0.6-13.55-1.78c-1.6-0.43-2.55-2.07-2.13-3.67c0.43-1.6,2.07-2.55,3.67-2.13
		c13.6,3.65,28.11,0.9,39.43-7.47c1.34-0.97,3.22-0.67,4.19,0.67c0.96,1.33,0.68,3.18-0.64,4.17
		C1352.5,2230.96,1341.65,2234.53,1330.5,2234.54L1330.5,2234.54z"/>
	<path class="st4" d="M1318.91,2173.78h-0.1l-16.11-0.52c-1.66-0.05-2.96-1.44-2.9-3.09c0.01-0.36,0.09-0.71,0.22-1.04l7.83-19.17
		c0.63-1.53,2.38-2.27,3.91-1.64c1.53,0.63,2.27,2.38,1.64,3.91l-6.2,15.17l11.8,0.37c1.66,0.03,2.98,1.39,2.95,3.05
		C1321.93,2172.49,1320.56,2173.81,1318.91,2173.78L1318.91,2173.78z"/>
	<circle class="st4" cx="1329.98" cy="2154.48" r="5.2"/>
	<circle class="st4" cx="1297.04" cy="2154.48" r="5.2"/>
	<path class="st4" d="M1391.27,2172.37c-0.35,0-0.69-0.06-1.02-0.18l-17.32-6.24c-1.56-0.56-2.37-2.28-1.81-3.84
		c0.29-0.81,0.92-1.46,1.72-1.77l23.56-9.3c1.53-0.64,3.29,0.09,3.92,1.62s-0.09,3.29-1.62,3.92c-0.03,0.01-0.07,0.03-0.1,0.04
		l-16.16,6.38l9.84,3.55c1.56,0.56,2.37,2.28,1.81,3.84C1393.67,2171.57,1392.54,2172.37,1391.27,2172.37L1391.27,2172.37z"/>
</g>
<path class="st3" d="M1575.15,2941.1c2.59,18.5-7.82,33.34-31.06,34.98c-24.72,1.75-48.55,21.56-36.25,43.26h146.55l28.25-39.66
	l17.33,37.94l47.32-22.33L1690.64,2875L1575.15,2941.1z"/>
<path class="st3" d="M1052.52,2862.33c-12.59,13.92-30.44,21.03-51.08,22.6c-31.25,2.38-57.42,2.25-57.42,2.25
	c-24.49-3.09-47.63,11.98-54.7,35.64l129,50.54l84.5-11.66l-15.7,38.63l48.71,19.1l32.72-83.24"/>
<path class="st4" d="M1248.32,2463.44c-0.07,0-0.14,0-0.22-0.01l-17.5-1.25c-1.65-0.12-2.9-1.55-2.78-3.21
	c0.12-1.65,1.55-2.9,3.21-2.78l17.5,1.25c1.65,0.11,2.9,1.54,2.79,3.2C1251.21,2462.22,1249.9,2463.44,1248.32,2463.44
	L1248.32,2463.44z"/>
<path class="st4" d="M1434.7,2350.99c-1.66,0-3-1.34-3-3c0-1.56,1.2-2.87,2.76-2.99l23.65-1.99c1.65-0.13,3.09,1.11,3.22,2.76
	c0.13,1.64-1.09,3.07-2.72,3.22l-23.65,1.99C1434.87,2350.99,1434.78,2350.99,1434.7,2350.99z"/>
<path class="st4" d="M1515.23,2338.46c-0.1,0-0.2,0-0.3-0.02c-1.65-0.16-2.85-1.63-2.69-3.28c0,0,0,0,0,0l2.5-24.99
	c0.17-1.65,1.64-2.85,3.29-2.69c1.65,0.17,2.85,1.64,2.69,3.29l0,0l-2.5,24.99C1518.06,2337.29,1516.77,2338.46,1515.23,2338.46z"/>
<path class="st4" d="M1313.86,2199.02c-0.17,0-0.34,0-0.51-0.01c-4.39-0.12-8.55-1.99-11.56-5.2l-1.73-1.84
	c-1.14-1.2-1.1-3.1,0.1-4.24s3.1-1.1,4.24,0.1c0.01,0.01,0.02,0.02,0.03,0.03l1.73,1.84c4,4.25,10.68,4.44,14.93,0.45
	c0.27-0.25,0.52-0.52,0.76-0.8l0.4-0.47c1.08-1.26,2.97-1.41,4.23-0.33c1.26,1.08,1.41,2.97,0.33,4.23l-0.41,0.48
	c-0.38,0.44-0.78,0.86-1.21,1.26C1322.13,2197.42,1318.07,2199.03,1313.86,2199.02L1313.86,2199.02z"/>
<path class="st4" d="M1362.66,2153.82c1.47,0.02,2.81-0.84,3.4-2.19c0.72-1.76-3.25-2.87-2.09-4.42
	c11.26-14.97,31.01-14.97,44.4-2.02c1.4,1.35,1.3,3.54,3.3,3.71c1.94,0.22,3.7-1.16,3.95-3.1c0.11-1.2,0.23-2.43,0.23-3.72v-0.33
	c0.21-12.52-3.67-24.76-11.05-34.87c-9.88-13.53-24.65-22.68-41.16-25.5c-16.7-3.1-33.96,0.21-48.33,9.28
	c-7.71,4.87-14.26,11.36-19.2,19.02c-2.91,4.53-5.17,9.45-6.74,14.6c-0.26,0.88-0.14,1.83,0.33,2.61c0.5,0.81,1.29,1.39,2.21,1.62
	c1.23,0.32,2.54,0.01,3.5-0.83l16.12-14.55l27.11,25.39c6.23,6.79,14.02,11.96,22.7,15.07
	C1361.77,2153.74,1362.21,2153.82,1362.66,2153.82L1362.66,2153.82z"/>
<path class="st1" d="M1362.61,2160.53c1.48-14.68,14.57-25.38,29.25-23.9s25.38,14.57,23.9,29.25
	c-1.48,14.68-14.57,25.38-29.25,23.9c-1.32-0.13-2.63-0.36-3.92-0.69"/>
<path class="st4" d="M1389.22,2192.92c-2.48,0-4.95-0.31-7.36-0.92c-1.61-0.39-2.6-2.01-2.21-3.62c0.39-1.61,2.01-2.6,3.62-2.21
	c0.02,0.01,0.04,0.01,0.06,0.02c12.7,3.24,25.63-4.42,28.87-17.12c3.24-12.7-4.42-25.63-17.12-28.87s-25.63,4.42-28.87,17.12
	c-0.29,1.15-0.5,2.33-0.62,3.51c-0.17,1.65-1.65,2.84-3.3,2.67c-1.63-0.17-2.83-1.62-2.68-3.26c1.63-16.34,16.19-28.27,32.53-26.64
	c16.34,1.63,28.27,16.19,26.64,32.53C1417.29,2181.33,1404.5,2192.91,1389.22,2192.92L1389.22,2192.92z"/>
<path class="st2" d="M1600.43,2703.29l-111.25-248.15l-5.2-12.36c-1.11-19.95-10.33-38.58-25.53-51.55v0.25l-153.54,36.65
	l-83.09,135.75l-95.86,156.61l-83.08,135.73l127.61,80.73l141.58-223.8l67.32-106.42l25.09,59.61l13.23,31.43l11.33,26.93
	c1.26,2.99,2.7,5.9,4.31,8.72l123.07,215l138.86-79.47L1600.43,2703.29z"/>
<path class="st4" d="M1556.41,2951.43c-1.08,0-2.07-0.58-2.61-1.51l-123.07-215c-1.67-2.92-3.16-5.94-4.47-9.04l-47.42-112.68
	l-205.82,325.37c-0.89,1.4-2.74,1.82-4.14,0.93l0,0l-127.61-80.73c-1.38-0.88-1.81-2.7-0.95-4.1l262.03-428.1
	c0.42-0.68,1.09-1.17,1.86-1.35l152.45-36.39c0.17-0.12,0.35-0.23,0.54-0.32c1.06-0.49,2.32-0.32,3.21,0.44
	c15.64,13.42,25.21,32.57,26.55,53.14l5,11.89l111.17,247.95l94.77,165.54c0.82,1.44,0.32,3.27-1.11,4.09c0,0,0,0,0,0l-138.86,79.47
	C1557.45,2951.29,1556.93,2951.43,1556.41,2951.43L1556.41,2951.43z M1379.38,2603.73c0.08,0,0.17,0,0.25,0.01
	c1.11,0.09,2.08,0.8,2.52,1.83l49.65,117.97c1.21,2.88,2.6,5.68,4.15,8.4l121.58,212.4l133.65-76.49l-93.35-163.07
	c-0.05-0.09-0.09-0.17-0.13-0.26l-111.25-248.15l-5.23-12.42c-0.13-0.32-0.21-0.66-0.23-1c-1.08-18.49-9.38-35.82-23.13-48.24
	l-151.04,36.05l-259.84,424.52l122.58,77.55l207.3-327.69C1377.4,2604.26,1378.35,2603.73,1379.38,2603.73L1379.38,2603.73z"/>
<path class="st1" d="M1129.46,2576.31c6.51-15.44,14.36-23.14,21.98-33.89c18.65-23.82,60.16-2.94,69.04,17.87
	c6.72,15.88,3.33,34.25-8.64,46.67c-15.4,15.56-31.23,21.41-27.53,55.76c1.67,15.49,6.56,38.45-8.15,39.51
	c-10.19,0.74-17-25.86-22.73-45.29c-4.26,28.82-9.88,66.56-23,65.4c-13.12-1.16-11.59-29-5.8-66.28
	c-13.52,39.8-15.17,62.67-27.65,60.07c-13.01-2.72-8.66-36.93,0.24-68.46"/>
<path class="st4" d="M1131.09,2725.37c-0.31,0-0.61-0.01-0.92-0.04c-3.14-0.25-6.02-1.83-7.9-4.35c-4.17-5.33-5.69-15.28-4.58-32.24
	c-2.76,9.41-5.05,16.9-7.67,21.97c-1.29,2.5-5.23,10.12-13.66,8.37c-3.03-0.66-5.62-2.59-7.12-5.3c-8.5-14.02,0.73-51.47,5.09-66.92
	c0.45-1.59,2.11-2.52,3.7-2.07s2.52,2.11,2.07,3.7l0,0c-8.38,29.69-10.64,54.1-5.74,62.18c0.65,1.27,1.83,2.2,3.22,2.53
	c6.08,1.26,9.06-8.02,15.22-29.15c2.45-8.41,5.23-17.94,8.97-28.95c0.53-1.57,2.24-2.41,3.81-1.87c1.38,0.47,2.22,1.86,2,3.3
	c-3.42,22.04-7.21,52.31-0.6,60.76c0.87,1.21,2.22,1.96,3.7,2.07c2.31,0.2,6.88-2.03,11.67-19.27c3.55-12.79,6.07-29.86,8.1-43.58
	c0.24-1.64,1.77-2.77,3.41-2.53c1.16,0.17,2.11,1,2.44,2.12c0.47,1.59,0.94,3.22,1.43,4.88c4.21,14.5,11.29,38.77,18.21,38.26
	c1.87-0.01,3.63-0.84,4.84-2.27c4.14-5.04,2.54-17.81,1.25-28.06c-0.26-2.03-0.5-4-0.7-5.87c-3.2-29.69,7.68-39.4,20.27-50.63
	c2.66-2.37,5.41-4.82,8.11-7.56c11.13-11.55,14.28-28.63,8.01-43.39c-5.21-12.2-22.87-24.26-38.57-26.32
	c-7.52-0.99-18-0.21-25.3,9.07c-2.01,2.83-4.05,5.47-6.02,8.02c-5.63,7.3-10.95,14.19-15.61,25.24c-0.62,1.54-2.37,2.28-3.91,1.66
	c-1.54-0.62-2.28-2.37-1.66-3.91c0.01-0.03,0.02-0.05,0.03-0.08c4.96-11.77,10.77-19.3,16.39-26.58c1.95-2.52,3.96-5.13,5.91-7.89
	c0.03-0.04,0.06-0.08,0.09-0.11c7.06-9.02,18.02-13.06,30.85-11.37c17.84,2.34,37.27,15.76,43.31,29.92
	c7.21,16.99,3.58,36.65-9.24,49.93c-2.87,2.9-5.69,5.41-8.41,7.84c-11.82,10.55-21.16,18.88-18.3,45.51
	c0.2,1.83,0.44,3.77,0.69,5.76c1.5,11.99,3.21,25.58-2.57,32.61c-2.24,2.7-5.53,4.32-9.04,4.45c-0.22,0.02-0.44,0.02-0.66,0.02
	c-9.9,0-15.94-16.42-21.36-34.5C1149.27,2702.48,1143.52,2725.37,1131.09,2725.37L1131.09,2725.37z"/>
<path class="st1" d="M1173.11,2574.12c-5.92,16.58-22.51,26.92-35.51,42.11c-18,21-31.52,32.81-37.92,31.52
	c-14.7-3,14.71-36.89,29.78-71.44"/>
<path class="st4" d="M1100.72,2650.85c-0.55,0-1.1-0.05-1.63-0.16c-2.5-0.36-4.65-1.96-5.71-4.25c-2.83-6.37,2.93-16.64,14.22-35.75
	c6.43-10.88,13.72-23.21,19.11-35.58c0.66-1.52,2.43-2.21,3.95-1.55c1.52,0.66,2.21,2.43,1.55,3.95
	c-5.54,12.71-12.93,25.21-19.45,36.24c-7.32,12.38-15.61,26.42-13.9,30.26c0.07,0.16,0.25,0.56,1.42,0.8
	c1.77,0.36,9.55-0.79,35.04-30.53c4.4-4.99,9.06-9.75,13.95-14.27c8.91-8.51,17.32-16.54,21.02-26.9c0.53-1.57,2.24-2.41,3.8-1.88
	c1.57,0.53,2.41,2.24,1.88,3.8c-0.01,0.03-0.02,0.06-0.03,0.09c-4.17,11.7-13.09,20.21-22.52,29.22c-4.74,4.38-9.26,9-13.53,13.83
	C1115.96,2646.09,1105.95,2650.85,1100.72,2650.85L1100.72,2650.85z"/>
<path class="st4" d="M1379.38,2609.73c-1.18,0-2.25-0.69-2.73-1.76l-39.23-86.55c-0.68-1.51-0.02-3.29,1.49-3.97
	c1.51-0.68,3.29-0.02,3.97,1.49l39.23,86.55c0.68,1.51,0.02,3.29-1.49,3.97C1380.23,2609.64,1379.81,2609.73,1379.38,2609.73z"/>
<path class="st3" d="M1471.04,2531.72c-2.41,6.67-3.59,13.72-3.49,20.81v3.81h-32.29c-17,0-30.79,13.79-30.79,30.79v83.12
	c0,17,13.78,30.79,30.78,30.79c0,0,0.01,0,0.01,0h182.37c17,0,30.79-13.79,30.79-30.79v-83.12c-0.01-17-13.79-30.78-30.79-30.79
	h-32.29V2551c-0.24-19.48-10.11-37.58-26.36-48.33l-5.36,21.41c7.66,7.46,11.91,17.76,11.72,28.45v3.81h-70.87
	c0,0,1.13,13.96-11.74,14.05C1468.21,2570.5,1471.04,2531.72,1471.04,2531.72L1471.04,2531.72z"/>
<path class="st1" d="M1590.69,2401.16c8.23,15.17,6.61,33.78-4.1,47.3c-13.83,17-24.47,26.29-29.63,65.29
	c-2.05,15.44-8.25,17.25-13,17c-10.2-0.54-13.25-10-13.25-15.5c-0.71,9.65-4.76,16-14.25,15.5c-7.89-0.34-14.14-6.77-14.27-14.67
	c-9.63,40.92-6.74,53.49-19.42,52.1c-20.92-2.29-6.17-87.22,6.83-115.22c9.9-21.38,13.32-35.21,26.65-56.09
	C1537.78,2362.17,1579.84,2381.3,1590.69,2401.16L1590.69,2401.16z"/>
<path class="st4" d="M1484.64,2571.29c-0.74,0-1.47-0.04-2.2-0.13c-2.52-0.28-6.08-1.61-8.77-6.38
	c-11.36-20.13,2.06-89.07,13.21-113.09c3.19-6.89,5.69-12.96,8.11-18.83c4.93-11.98,9.59-23.29,18.73-37.61
	c10.88-17.52,25.76-20.86,36.31-20.57c19.53,0.54,36.88,13.3,43.29,25.03v0.01c8.81,16.22,7.09,36.13-4.39,50.59
	c-1.37,1.68-2.68,3.26-3.96,4.79c-11.9,14.31-20.5,24.65-25.05,59.03c-1.79,13.48-7.22,20.07-16.13,19.6
	c-5.31-0.15-10.17-2.98-12.93-7.52c-3.75,6.79-10.26,7.74-14.57,7.52c-5.29-0.23-10.21-2.8-13.42-7.02
	c-1.52,7.16-2.64,13.25-3.6,18.45C1496.06,2562.68,1494.47,2571.29,1484.64,2571.29L1484.64,2571.29z M1548.83,2380.67
	c-8.91,0-21,3.22-30.04,17.78c-8.88,13.9-13.22,24.47-18.26,36.7c-2.44,5.93-4.97,12.06-8.21,19.07
	c-11.7,25.21-23.16,90.35-13.43,107.61c1.75,3.1,3.59,3.3,4.2,3.36c5.68,0.62,6.65-1.35,10.28-21.1c1.39-7.53,3.11-16.89,5.89-28.7
	c0.38-1.61,1.99-2.61,3.61-2.23c1.34,0.31,2.29,1.5,2.31,2.87c0.11,6.31,5.1,11.44,11.4,11.72c4.37,0.23,10.25-0.84,11.13-12.72
	c0.12-1.65,1.56-2.89,3.21-2.77c1.57,0.11,2.78,1.42,2.78,2.99c0,4.13,2.18,12.07,10.41,12.5c2.36,0.12,7.9,0.42,9.87-14.4
	c4.78-36.1,14.31-47.56,26.39-62.08c1.27-1.52,2.56-3.08,3.89-4.71c9.96-12.57,11.45-29.88,3.79-43.97
	c-5.69-10.41-21.53-21.45-38.19-21.91C1549.52,2380.67,1549.18,2380.67,1548.83,2380.67L1548.83,2380.67z"/>
<path class="st6" d="M497.96,2408.69h-19.63c-4.61-13.09-17.05-22.49-31.73-22.49h-7.52c-14.67,0-27.11,9.4-31.73,22.49h-19.51
	c-18.59,0-33.66,15.07-33.66,33.66c0,18.59,15.07,33.66,33.66,33.66h110.11c18.59,0,33.66-15.07,33.66-33.66
	C531.63,2423.76,516.55,2408.69,497.96,2408.69z"/>
<path class="st6" d="M1925.28,736.8h-19.63c-4.61-13.09-17.05-22.49-31.73-22.49h-7.52c-14.67,0-27.11,9.4-31.73,22.49h-19.51
	c-18.59,0-33.66,15.07-33.66,33.66c0,18.59,15.07,33.66,33.66,33.66h110.11c18.59,0,33.66-15.07,33.66-33.66
	C1958.94,751.87,1943.87,736.8,1925.28,736.8z"/>
<path class="st6" d="M461.82,207.77c-20.3-39.28-66.78-24.3-84.12-16.97c-3.51,1.48-7.49-0.16-9.04-3.64
	c-3.59-8.05-12.05-21.29-30.56-28.17c-34.56-12.84-59.64,9.25-71.84,24.12c-4.62-5.27-11.39-8.62-18.95-8.62
	c-9.89,0-18.42,5.7-22.55,13.98c-14.35-2.6-31.15-2.2-43.55,12.54c-0.17,0.21-0.43,0.31-0.64,0.47
	c-14.49,10.88-6.58,34.01,11.54,34.08l265.46,0.92C457.56,236.48,472.86,229.14,461.82,207.77z"/>
<path class="st1" d="M1898.24,2004.78c-16.64-32.2-54.75-19.92-68.97-13.91c-2.88,1.22-6.14-0.13-7.42-2.98
	c-2.94-6.6-9.88-17.46-25.05-23.1c-28.34-10.53-48.9,7.58-58.9,19.77c-3.79-4.32-9.34-7.07-15.54-7.07
	c-8.11,0-15.1,4.68-18.49,11.47c-11.77-2.13-25.54-1.81-35.7,10.28c-0.14,0.17-0.35,0.26-0.53,0.39
	c-11.88,8.92-5.39,27.89,9.46,27.94l217.64,0.75C1894.75,2028.32,1907.29,2022.3,1898.24,2004.78z"/>
<path class="st6" d="M1811.79,1537.27c-9.2-17.8-30.26-11.01-38.11-7.69c-1.59,0.67-3.39-0.07-4.1-1.65
	c-1.62-3.65-5.46-9.65-13.84-12.76c-15.66-5.82-27.02,4.19-32.55,10.93c-2.09-2.39-5.16-3.9-8.59-3.9c-4.48,0-8.35,2.58-10.22,6.34
	c-6.5-1.18-14.11-1-19.73,5.68c-0.08,0.09-0.2,0.14-0.29,0.21c-6.56,4.93-2.98,15.41,5.23,15.44l120.27,0.42
	C1809.86,1550.28,1816.8,1546.96,1811.79,1537.27z"/>
<path class="st6" d="M237.56,1267.36c-9.2-17.8-30.26-11.01-38.11-7.69c-1.59,0.67-3.39-0.07-4.1-1.65
	c-1.62-3.65-5.46-9.65-13.84-12.76c-15.66-5.82-27.02,4.19-32.55,10.93c-2.09-2.39-5.16-3.9-8.59-3.9c-4.48,0-8.35,2.58-10.22,6.34
	c-6.5-1.18-14.11-1-19.73,5.68c-0.08,0.09-0.2,0.14-0.29,0.21c-6.56,4.93-2.98,15.41,5.23,15.44l120.27,0.42
	C235.63,1280.37,242.57,1277.04,237.56,1267.36z"/>
<path class="st1" d="M919.65,1903.49c-47.1-91.14-154.95-56.37-195.18-39.37c-8.15,3.44-17.39-0.36-20.99-8.45
	c-8.32-18.68-27.97-49.41-70.9-65.36c-80.2-29.8-138.38,21.46-166.69,55.96c-10.73-12.23-26.43-20-43.98-20
	c-22.94,0-42.74,13.23-52.33,32.45c-33.3-6.03-72.28-5.12-101.05,29.1c-0.4,0.48-1,0.73-1.49,1.09
	c-33.61,25.25-15.26,78.92,26.78,79.07l615.95,2.13C909.78,1970.12,945.29,1953.1,919.65,1903.49z"/>
<g transform="translate(48.0 668.0) rotate(0.0 586.5 4.5) scale(0.7212247909493359 0.7894736842105263)">
	<path class="st4" d="M2600.47,2987.43H224.21c-2.49,0-4.4-1.91-4.4-4.4s1.91-4.4,4.4-4.4h2376.27c2.49,0,4.4,1.91,4.4,4.4
		S2602.96,2987.43,2600.47,2987.43z"/>
</g>
</svg>
