<?xml version="1.0" encoding="utf-8"?>
<!-- Generator: Adobe Illustrator 26.1.0, SVG Export Plug-In . SVG Version: 6.00 Build 0)  -->
<svg version="1.1" id="Layer_1" xmlns="http://www.w3.org/2000/svg" xmlns:xlink="http://www.w3.org/1999/xlink" x="0px" y="0px"
	 viewBox="0 0 2000 3200" style="enable-background:new 0 0 2000 3200;" xml:space="preserve">
<style type="text/css">
	.st0{fill:#70D9D9;}
	.st1{fill:#FFFFFF;}
	.st2{fill:#FF7F36;}
	.st3{fill:#007575;}
	.st4{fill:#222433;}
	.st5{fill:#FF7F36;stroke:#FF7F36;stroke-miterlimit:10;}
	.st6{fill:#15C2C1;}
	.st7{fill:#FDA979;}
	.st8{fill:#C35515;}
	.st9{fill:none;stroke:#5A38FD;stroke-width:111.9047;stroke-miterlimit:10;}
	.st10{fill:none;stroke:#FF7F36;stroke-width:111.9047;stroke-miterlimit:10;}
	.st11{fill:none;stroke:#FFFFFF;stroke-width:9.2351;stroke-miterlimit:10;stroke-dasharray:23.0877,36.9403;}
	.st12{fill:none;stroke:#313341;stroke-width:3.8308;stroke-miterlimit:10;}
	.st13{fill:none;}
	.st14{opacity:0.75;fill:#70D9D9;}
	.st15{fill:#5A38FD;}
	.st16{fill:none;stroke:#222433;stroke-width:8.5039;stroke-miterlimit:10;stroke-dasharray:14.1732,14.1732;}
	.st17{fill:#7057FD;}
	.st18{fill:none;stroke:#222433;stroke-width:5.4074;stroke-miterlimit:10;}
	.st19{fill:#222433;stroke:#222433;stroke-width:5.4303;stroke-miterlimit:10;}
	.st20{fill:#2B292D;}
	.st21{fill:none;stroke:#C35515;stroke-width:9.9101;stroke-miterlimit:10;}
	.st22{fill:none;stroke:#C35515;stroke-width:5.6693;stroke-miterlimit:10;}
	.st23{fill:#C35515;stroke:#000000;stroke-miterlimit:10;}
	.st24{fill:#C35515;stroke:#000000;stroke-width:0.6042;stroke-miterlimit:10;}
	.st25{fill:#15C2C1;stroke:#222433;stroke-width:6.1644;stroke-miterlimit:10;}
	.st26{fill:#FFFFFF;stroke:#000000;stroke-width:6.1644;stroke-miterlimit:10;}
	.st27{fill:none;stroke:#007575;stroke-width:6.1644;stroke-miterlimit:10;}
	.st28{fill:none;stroke:#FFFFFF;stroke-width:14.1732;stroke-miterlimit:10;stroke-dasharray:23.0877,36.9403;}
	.st29{fill-rule:evenodd;clip-rule:evenodd;fill:#FDA979;}
	.st30{fill-rule:evenodd;clip-rule:evenodd;fill:#FFFFFF;}
	.st31{fill-rule:evenodd;clip-rule:evenodd;fill:#007575;}
	.st32{fill:#606060;}
	.st33{clip-path:url(#SVGID_00000063626207266879697760000004459176517856834176_);}
	.st34{fill:#222433;stroke:#222433;stroke-width:1.0471;stroke-miterlimit:10;}
	.st35{fill:#222433;stroke:#222433;stroke-width:2.2688;stroke-miterlimit:10;}
	.st36{fill:#82B1FF;}
	.st37{fill:#15C2C1;stroke:#70D9D9;stroke-width:15.652;stroke-miterlimit:10;}
	.st38{stroke:#222433;stroke-width:0.8333;stroke-miterlimit:10;}
	.st39{clip-path:url(#SVGID_00000070827336764332008260000011580269641386050982_);}
	.st40{clip-path:url(#SVGID_00000070827336764332008260000011580269641386050982_);fill:#FF7F36;}
	.st41{clip-path:url(#SVGID_00000070827336764332008260000011580269641386050982_);fill:#C35515;}
	.st42{fill:#222433;stroke:#222433;stroke-width:0.791;stroke-miterlimit:10;}
	.st43{fill-rule:evenodd;clip-rule:evenodd;fill:#FF7F36;}
	.st44{fill-rule:evenodd;clip-rule:evenodd;fill:#15C2C1;}
	.st45{fill:none;stroke:#FF7F36;stroke-width:11.3386;stroke-miterlimit:10;}
	.st46{fill:none;stroke:#FF7F36;stroke-width:9.6934;stroke-miterlimit:10;}
	.st47{opacity:0.44;fill:#FDA979;}
	.st48{fill:none;stroke:#70D9D9;stroke-width:8.5039;stroke-miterlimit:10;stroke-dasharray:11.5087,11.5098;}
	.st49{opacity:0.75;fill:#007575;}
	.st50{clip-path:url(#SVGID_00000051376818720356846350000008472863753064926895_);}
	.st51{fill:none;stroke:#FF7F36;stroke-miterlimit:10;}
	.st52{clip-path:url(#SVGID_00000141417384745429567220000001797431712341546900_);}
	.st53{stroke:#70D9D9;stroke-width:8.5039;stroke-miterlimit:10;}
	.st54{fill:#FDA979;stroke:#222433;stroke-width:17.0079;stroke-miterlimit:10;}
	.st55{clip-path:url(#SVGID_00000114757429299750572980000014989805504161230476_);}
	.st56{fill:none;stroke:#222433;stroke-width:16.1222;stroke-linecap:round;stroke-miterlimit:10;}
	.st57{clip-path:url(#SVGID_00000027583065685150819600000013951583024849160117_);fill:#15C2C1;}
	.st58{clip-path:url(#SVGID_00000027583065685150819600000013951583024849160117_);fill:#C35515;}
	
		.st59{clip-path:url(#SVGID_00000027583065685150819600000013951583024849160117_);fill:#15C2C1;stroke:#000000;stroke-width:8.2755;stroke-miterlimit:10;}
	.st60{clip-path:url(#SVGID_00000027583065685150819600000013951583024849160117_);fill:#FF7F36;}
	
		.st61{clip-path:url(#SVGID_00000027583065685150819600000013951583024849160117_);fill:#15C2C1;stroke:#000000;stroke-width:8.5039;stroke-miterlimit:10;}
	
		.st62{clip-path:url(#SVGID_00000027583065685150819600000013951583024849160117_);fill:none;stroke:#000000;stroke-width:8.5039;stroke-miterlimit:10;}
	
		.st63{clip-path:url(#SVGID_00000027583065685150819600000013951583024849160117_);fill:#FFFFFF;stroke:#000000;stroke-width:8.5039;stroke-miterlimit:10;}
	.st64{clip-path:url(#SVGID_00000027583065685150819600000013951583024849160117_);}
	.st65{fill:none;stroke:#000000;stroke-width:8.2815;stroke-linecap:round;stroke-miterlimit:10;}
	
		.st66{clip-path:url(#SVGID_00000027583065685150819600000013951583024849160117_);fill:#FFFFFF;stroke:#000000;stroke-width:8.7446;stroke-miterlimit:10;}
	.st67{clip-path:url(#SVGID_00000027583065685150819600000013951583024849160117_);fill:none;}
	.st68{clip-path:url(#SVGID_00000024689153599156301640000009053898675695079837_);}
	
		.st69{opacity:0.57;clip-path:url(#SVGID_00000024689153599156301640000009053898675695079837_);fill:none;stroke:#FFFFFF;stroke-width:32.7065;stroke-linecap:round;stroke-miterlimit:10;}
	.st70{fill:#222433;stroke:#000000;stroke-width:7.0866;stroke-miterlimit:10;}
	
		.st71{clip-path:url(#SVGID_00000024689153599156301640000009053898675695079837_);fill:#222433;stroke:#222433;stroke-width:163.17;stroke-miterlimit:10;}
	.st72{fill:none;stroke:#000000;stroke-width:7.0866;stroke-miterlimit:10;}
	
		.st73{clip-path:url(#SVGID_00000024689153599156301640000009053898675695079837_);fill:#70D9D9;stroke:#000000;stroke-width:2.8346;stroke-linecap:round;stroke-miterlimit:10;}
	.st74{clip-path:url(#SVGID_00000049906520914975379040000009229246487628435370_);fill:#FFFFFF;}
	.st75{clip-path:url(#SVGID_00000049906520914975379040000009229246487628435370_);fill:#222433;}
	.st76{clip-path:url(#SVGID_00000049906520914975379040000009229246487628435370_);fill:#15C2C1;}
	.st77{clip-path:url(#SVGID_00000049906520914975379040000009229246487628435370_);fill:#FDA979;}
	.st78{clip-path:url(#SVGID_00000049906520914975379040000009229246487628435370_);}
	.st79{clip-path:url(#SVGID_00000049906520914975379040000009229246487628435370_);fill:#FF7F36;}
	.st80{clip-path:url(#SVGID_00000049906520914975379040000009229246487628435370_);fill:#C35515;}
	.st81{clip-path:url(#SVGID_00000152265537616479704670000001915713062263955089_);}
	.st82{fill:none;stroke:#222433;stroke-width:5.6693;stroke-linecap:round;stroke-miterlimit:10;}
</style>
<polygon class="st2" points="2000,3200 0,3200 0,2853.26 0,2835.95 2000,2835.95 "/>
<g transform="translate(28.0 722.0) rotate(0.0 573.0 9.5) translate(0.0 0.0) scale(1.2914131169709264 1.3475177304964538)">
	<g>
		<path class="st4" d="M131.14,1683.51h377.38c0.52,0,1.11-0.91,1.11-2.19s-0.46-2.2-1.11-2.2H131.14V1683.51z"/>
	</g>
</g>
<path class="st2" d="M1022.05,2240.31c-1.71,0-3.09-1.39-3.09-3.11v-82.19c0-1.72,1.39-3.11,3.09-3.11c1.71,0,3.09,1.39,3.09,3.11
	v82.19C1025.15,2238.92,1023.76,2240.31,1022.05,2240.31L1022.05,2240.31z"/>
<g transform="translate(909.0 365.0) rotate(0.0 105.0 181.5) translate(0.0 0.0) scale(0.5758852178491509 0.5741853843720341)">
	<path class="st4" d="M1161.73,4297.05c-3.02,0-5.48-2.44-5.48-5.47c0-0.48,0.06-0.95,0.18-1.42l170.26-640.07
		c0.78-2.92,3.78-4.66,6.7-3.88c2.92,0.78,4.66,3.78,3.88,6.7l-170.26,640.07C1166.38,4295.38,1164.21,4297.05,1161.73,4297.05z
		 M1693.37,4297.05c-2.7,0-5-1.98-5.41-4.65l-97.52-640.07c-0.42-2.99,1.67-5.76,4.67-6.18c2.94-0.41,5.67,1.6,6.16,4.53
		l97.52,640.07c0.46,2.99-1.6,5.78-4.58,6.24C1693.93,4297.03,1693.65,4297.05,1693.37,4297.05z"/>
	<path class="st2" d="M1304.85,3651.5c0,0,88.09-415.11,90.1-426.22c6.3-34.79,19.49-68.05,54.78-75.06
		c4.4-0.87,8.87-1.31,13.36-1.31h200.13c4.49,0,8.96,0.44,13.36,1.31c37.15,7.38,61.28,43.47,57.33,80.39l-84.52,424.2"/>
	<g>
		<path class="st4" d="M1649.38,3660.28c-3.02,0-5.48-2.44-5.48-5.47c0-0.36,0.03-0.72,0.11-1.08l84.47-423.96
			c3.63-35-19.6-67.57-52.97-74.19c-4.05-0.8-8.16-1.21-12.29-1.21h-200.13c-4.11,0-8.25,0.41-12.29,1.21
			c-26.66,5.29-42.69,27.75-50.45,70.66c-2,11.07-86.54,409.43-90.14,426.39c-0.66,2.95-3.59,4.81-6.54,4.14
			c-2.9-0.65-4.75-3.5-4.17-6.42c0.88-4.15,88.1-415.16,90.07-426.06c5.46-30.15,17.52-71.19,59.1-79.45
			c4.75-0.94,9.58-1.42,14.42-1.42h200.13c4.83,0,9.68,0.48,14.42,1.42c38.96,7.74,66.06,45.66,61.7,86.34
			c-0.02,0.16-0.04,0.32-0.07,0.49l-84.52,424.2C1654.24,3658.44,1651.99,3660.28,1649.38,3660.28z"/>
		<path class="st4" d="M1101.12,3646.03l553.98-0.05v7.3c0,14.19-11.5,25.69-25.69,25.69h-555.02L1101.12,3646.03z"/>
	</g>
</g>
<path class="st2" d="M1761.42,2104.42l-74.45-1.36l-29.86,15.85l-100.92,103.14l26.78,71.21l166.11-11.91l19.37-173L1761.42,2104.42
	z M1461.44,2299.49l-61.43-71.32c-4.13-4.83-7.46-10.3-9.86-16.2l-46.41-72.86l27.51-29.08l28.36,7.75l40.39,52.75"/>
<ellipse class="st5" cx="1629.49" cy="2063.87" rx="51.17" ry="51.21"/>
<path class="st4" d="M1629.49,2118.07c-29.91,0-54.15-24.27-54.16-54.2c0-29.93,24.24-54.2,54.15-54.2
	c29.91,0,54.15,24.27,54.16,54.2c0,0,0,0,0,0C1683.61,2093.79,1659.38,2118.03,1629.49,2118.07z M1629.49,2015.65
	c-26.61,0-48.18,21.59-48.18,48.22c0,26.63,21.57,48.22,48.18,48.22c26.61,0,48.18-21.59,48.18-48.22c0,0,0,0,0,0
	C1677.64,2037.25,1656.08,2015.68,1629.49,2015.65z"/>
<path class="st1" d="M1116.26,2684.22l-26.55,79.89c-3.67,11.05-12.95,19.31-24.34,21.67l-77.99,16.19c-1.22,0.26-2.43,0.59-3.61,1
	c-13.02,4.3-21.96,16.28-22.39,29.99l199.11-1.05l59.08-58.46v58.5h62.14l0.04-134.03"/>
<path class="st4" d="M961.38,2835.95c-1.65,0-2.99-1.34-2.99-2.99c0-0.03,0-0.06,0-0.09c0.5-14.96,10.25-28.02,24.43-32.74
	c1.29-0.44,2.6-0.8,3.93-1.08l78-16.19c10.35-2.16,18.77-9.66,22.12-19.69l26.55-79.89c0.52-1.57,2.21-2.41,3.78-1.89
	c1.56,0.52,2.41,2.21,1.89,3.78l-26.55,79.89c-4.03,12.05-14.14,21.06-26.57,23.66l-77.99,16.19c-1.1,0.23-2.19,0.53-3.25,0.9
	c-10.75,3.57-18.54,12.93-20.1,24.16l194.63-1.03l58.22-57.6c1.17-1.16,3.06-1.15,4.22,0.02c0.55,0.56,0.86,1.31,0.86,2.1v55.51
	h56.17l0.04-131.04c0-1.65,1.34-2.99,2.99-2.99s2.99,1.34,2.99,2.99l-0.04,134.03c0,1.65-1.34,2.99-2.99,2.99h-62.14
	c-1.65,0-2.99-1.34-2.99-2.99v-51.34l-54,53.43c-0.56,0.55-1.3,0.86-2.08,0.86l-199.12,1.05H961.38z"/>
<ellipse class="st5" cx="1578.32" cy="2092.76" rx="46.32" ry="46.36"/>
<path class="st4" d="M1578.32,2142.11c-27.23,0-49.3-22.09-49.3-49.35s22.07-49.35,49.3-49.35c27.23,0,49.3,22.09,49.3,49.35
	c0,0,0,0,0,0C1627.59,2120,1605.53,2142.07,1578.32,2142.11z M1578.32,2049.39c-23.93,0-43.33,19.42-43.33,43.37
	s19.4,43.37,43.33,43.37c23.93,0,43.33-19.42,43.33-43.37C1621.62,2068.82,1602.24,2049.42,1578.32,2049.39z"/>
<path class="st1" d="M1528.73,2736.6c3.32,29.73-20.05,64.34-50,66.46c-7.62,0.46-15.15,1.86-22.41,4.19
	c-15.2,5.05-24.79,14.04-27.53,25.3h193.73l30.07-68.83l32.51,68.63l46.48-22.71l-59.71-125.01"/>
<path class="st4" d="M1671.86,2684.63l59.71,125.01l-46.48,22.71l-32.51-68.63l-30.07,68.83h-193.73
	c2.74-11.26,12.33-20.25,27.53-25.3c7.27-2.33,12.97-0.38,20.59-0.83c29.95-2.12,122.6,13.86,119.28-15.87l28.35-91.34
	L1671.86,2684.63"/>
<path class="st4" d="M1622.51,2835.54h-193.73c-1.65,0-2.99-1.34-2.99-2.99c0-0.24,0.03-0.48,0.08-0.71
	c3.01-12.37,13.48-22.11,29.49-27.43c7.51-2.41,15.3-3.87,23.18-4.34c11.92-0.84,23.52-7.35,32.65-18.32
	c10.64-12.79,16.22-29.96,14.56-44.82c-0.18-1.64,1-3.12,2.64-3.3s3.12,1,3.3,2.64c1.86,16.67-4.08,35.11-15.91,49.31
	c-10.18,12.23-23.27,19.5-36.85,20.46c-7.38,0.44-14.67,1.8-21.71,4.06c-12.24,4.07-20.73,10.9-24.32,19.47h187.66l29.28-67.04
	c0.66-1.51,2.42-2.2,3.93-1.54c0.66,0.29,1.19,0.81,1.5,1.46l31.22,65.9l41.1-20.08l-58.44-122.34c-0.72-1.48-0.1-3.27,1.38-3.99
	s3.27-0.1,3.99,1.38c0.01,0.01,0.01,0.02,0.02,0.03l59.71,125.01c0.71,1.48,0.09,3.25-1.38,3.97l-46.48,22.71
	c-1.48,0.72-3.27,0.11-3.99-1.37c0-0.01-0.01-0.02-0.01-0.03l-29.71-62.7l-27.44,62.82
	C1624.78,2834.84,1623.7,2835.54,1622.51,2835.54L1622.51,2835.54z"/>
<path class="st4" d="M1565.92,2810.27h-109.61c-1.65,0-2.99-1.34-2.99-2.99s1.34-2.99,2.99-2.99h109.6
	c13.94,0.05,26.26-9.06,30.29-22.42l24.63-80.63c0.46-1.58,2.12-2.5,3.7-2.03c1.58,0.46,2.49,2.12,2.03,3.7
	c-0.01,0.03-0.02,0.05-0.02,0.08l-24.63,80.63C1597.12,2799.5,1582.48,2810.33,1565.92,2810.27L1565.92,2810.27z M1089.85,2806.02
	H983.77c-1.65,0-2.99-1.34-2.99-2.99c0-1.65,1.34-2.99,2.99-2.99h108.22c20.09-0.61,38.94-11.37,50.33-28.8l32.02-48.98
	c8.29-12.7,18.77-23.82,30.95-32.85c1.33-0.98,3.2-0.69,4.17,0.65c0.97,1.32,0.69,3.17-0.62,4.16
	c-11.61,8.61-21.61,19.21-29.51,31.32l-32.02,48.98c-12.17,18.9-32.79,30.65-55.24,31.5L1089.85,2806.02z"/>
<path class="st6" d="M1422.13,2492.16l-137.56,206.08l-176.54-14.61l169.92-293.71l12.3-21.26c12.11-20.91,32.25-35.93,55.73-41.57
	l65.18-15.58l68.61-16.4l126.43-30.2"/>
<path class="st4" d="M1284.57,2701.22c-0.08,0-0.16,0-0.25-0.01l-176.54-14.61c-1.64-0.14-2.87-1.58-2.73-3.22
	c0.04-0.44,0.17-0.87,0.39-1.25l169.92-293.71l12.3-21.26c12.55-21.59,33.37-37.11,57.62-42.97l133.79-31.97l126.43-30.2
	c1.61-0.38,3.21,0.62,3.59,2.23c0.37,1.6-0.61,3.2-2.2,3.58l-195.04,46.6l-65.18,15.58c-22.66,5.48-42.11,19.99-53.84,40.16
	l-12.3,21.26l-167.56,289.62l170.09,14.08l136.59-204.61c0.92-1.37,2.78-1.73,4.15-0.81c1.36,0.92,1.72,2.76,0.82,4.12
	l-137.56,206.08C1286.5,2700.72,1285.57,2701.22,1284.57,2701.22L1284.57,2701.22z"/>
<path class="st6" d="M1827.99,2429.6l-223.2,46.06l36.41,99.61l25.82,70.65l13.05,35.73l-165.61,60.13l-24.99-68.6l-25.21-69.19
	l-33.41-91.64l-25.29-69.41c-0.14-0.38-0.27-0.76-0.4-1.14c-10.53-30.34-3.74-64.02,17.73-87.89c11.95-13.3,27.65-22.64,45.03-26.79
	l1.91-0.46l109.09-26.08"/>
<path class="st4" d="M1514.47,2744.77c-1.26,0-2.38-0.79-2.81-1.97l-50.2-137.79l-33.41-91.64l-25.28-69.41
	c-0.15-0.4-0.28-0.79-0.42-1.2c-16.49-47.57,8.68-99.52,56.21-116.02c2.85-0.99,5.75-1.84,8.69-2.54l1.91-0.46l109.09-26.08
	c1.6-0.41,3.22,0.55,3.63,2.15s-0.55,3.23-2.15,3.64c-0.03,0.01-0.06,0.02-0.1,0.02l-111,26.54
	c-45.73,10.93-73.94,56.89-63.02,102.66c0.66,2.75,1.45,5.47,2.38,8.14c0.13,0.37,0.25,0.73,0.38,1.08l25.29,69.42l33.41,91.64
	l49.18,134.98l159.99-58.09l-37.84-103.57l-36.41-99.61c-0.57-1.55,0.23-3.27,1.78-3.83c0.14-0.05,0.28-0.09,0.42-0.12l223.19-46.06
	c1.62-0.32,3.19,0.74,3.5,2.36c0.31,1.6-0.71,3.15-2.3,3.49l-219.8,45.36l61.03,167l13.05,35.73c0.57,1.55-0.23,3.27-1.78,3.83
	c0,0,0,0-0.01,0l-165.61,60.13C1515.16,2744.71,1514.81,2744.77,1514.47,2744.77L1514.47,2744.77z"/>
<path class="st2" d="M1686.97,2103.06c-14.44,5.31-27.49,12.32-39.21,24.05l-31.85,32.99l-52.35,54.33l-9.63,9.96l-70.66-78.48
	c-6.27-7.24-14.21-12.83-23.12-16.31l2.01,16.49c2.98,24.44-33.25,96.81-33.57,96.4c-3.32-4.18-3.1,1.81-10.43-2.26
	c-6.08-3.38-20.35-15.87-21.12-15.83l63.49,75.3l143.7-34.3"/>
<path class="st4" d="M1460.52,2302.67c-0.88,0-1.71-0.39-2.28-1.06l-63.49-75.3c-1.06-1.26-0.9-3.15,0.36-4.21
	c0.49-0.41,1.1-0.66,1.74-0.7c1.46-0.09,1.84,0.21,8.07,5.23c4.75,3.83,11.26,9.06,14.69,10.97c2.67,1.49,3.53,1.17,4.44,0.83
	c1.11-0.5,2.36-0.61,3.54-0.33c6.75-13.26,34.12-71.06,31.61-91.65l-2.01-16.49c-0.2-1.64,0.97-3.13,2.6-3.33
	c0.49-0.06,0.99,0,1.44,0.18c9.36,3.67,17.69,9.55,24.29,17.13l68.48,76.06l7.41-7.66l52.35-54.32l31.85-32.99
	c10.88-10.89,23.31-18.52,40.33-24.77c1.55-0.57,3.26,0.23,3.83,1.78c0.57,1.55-0.23,3.27-1.77,3.84
	c-16.17,5.94-27.93,13.14-38.13,23.35l-31.81,32.95l-52.35,54.32l-9.64,9.96c-1.15,1.19-3.04,1.22-4.22,0.07
	c-0.05-0.05-0.1-0.1-0.14-0.15l-70.66-78.48c-4.84-5.57-10.72-10.13-17.3-13.45l1.37,11.26c1.3,10.69-3.96,30.44-15.63,58.72
	c-3.85,9.3-7.94,18.49-12.27,27.57c-6.01,12.61-6.33,12.74-7.48,13.23c-1.23,0.52-2.66,0.15-3.5-0.9c-0.07-0.09-0.15-0.18-0.23-0.27
	c-2.09,0.77-4.71,1.32-9.32-1.24c-0.14-0.08-0.28-0.16-0.42-0.24l45.34,53.77l141.91-33.87c1.6-0.38,3.21,0.61,3.6,2.21
	s-0.61,3.22-2.21,3.6l-143.7,34.3C1460.99,2302.64,1460.75,2302.67,1460.52,2302.67L1460.52,2302.67z"/>
<path class="st2" d="M1699.42,2395.45l135.92,36.11c5.4,1.58,10.99,2.38,16.61,2.38c1.63,0,3.25-0.07,4.87-0.21
	c15.62-1.29,30.09-8.73,40.23-20.7c7.58-8.94,10.83-19.9,10.89-31.27c0.06-11.28-3.01-22.96-7.95-33.45l-61.88-129.08
	c0,0-44.91-82.15-48.28-88.38c-5.92-10.97-15.57-20.12-28.4-26.43"/>
<path class="st4" d="M1851.96,2436.92c-5.9,0-11.78-0.84-17.45-2.5l-135.85-36.09c-1.59-0.42-2.54-2.06-2.12-3.66
	s2.06-2.55,3.65-2.12l0,0l135.92,36.11c5.15,1.51,10.48,2.28,15.84,2.28c1.54,0,3.09-0.07,4.61-0.2
	c14.85-1.18,28.6-8.26,38.21-19.65c6.69-7.9,10.12-17.77,10.18-29.35c0.05-10.29-2.6-21.41-7.66-32.16l-61.84-128.99
	c-1.53-2.8-44.96-82.24-48.25-88.33c-5.69-10.55-15.06-19.25-27.09-25.17c-1.52-0.64-2.24-2.39-1.6-3.91
	c0.64-1.52,2.38-2.24,3.91-1.6c0.11,0.05,0.22,0.1,0.33,0.16c13.15,6.47,23.42,16.04,29.71,27.69c3.32,6.15,47.82,87.55,48.27,88.37
	c0.03,0.05,0.05,0.1,0.07,0.14l61.88,129.08c5.46,11.57,8.31,23.58,8.25,34.76c-0.07,12.84-4.08,24.32-11.6,33.19
	c-10.62,12.6-25.84,20.43-42.26,21.74C1855.37,2436.85,1853.66,2436.92,1851.96,2436.92L1851.96,2436.92z"/>
<path class="st1" d="M1687.29,2286.25c8.72-4.93,18.57-7.51,28.59-7.5c32.49,0,58.86,26.65,58.86,59.58
	c0.09,24.21-14.47,46.07-36.82,55.32c-6.98,2.86-14.46,4.32-22,4.31c-21.6-0.08-41.42-11.96-51.69-30.98"/>
<path class="st4" d="M1715.96,2400.96h-0.06c-22.7-0.07-43.54-12.56-54.31-32.55c-0.78-1.45-0.24-3.27,1.21-4.05
	s3.26-0.24,4.05,1.21l0,0c9.73,18.06,28.56,29.35,49.06,29.41c7.15,0.01,14.24-1.38,20.86-4.09c21.27-8.74,35.1-29.53,34.97-52.54
	c0-31.22-25.06-56.61-55.87-56.61c-9.5,0-18.84,2.45-27.12,7.11c-1.43,0.83-3.25,0.34-4.08-1.09c-0.82-1.43-0.34-3.26,1.09-4.08
	c0.02-0.01,0.04-0.02,0.05-0.03c9.18-5.17,19.53-7.88,30.06-7.89c34.1,0,61.84,28.07,61.84,62.57
	c0.15,25.44-15.15,48.42-38.66,58.08C1731.73,2399.42,1723.88,2400.96,1715.96,2400.96z"/>
<path class="st1" d="M1448.36,2125.9c1.05,0.21,2.1,0.46,3.14,0.75c21.33,6.04,37.53,40.75,30.41,70.58
	c-5.62,23.54-23.77,35.66-25.99,37.09c-19.08,12.31-38.6,9.47-43.13,8.69l-15.32-20.94l-1.28-0.5"/>
<path class="st4" d="M1422.98,2246.85c-3.58,0.01-7.15-0.29-10.69-0.88c-0.76-0.13-1.44-0.55-1.9-1.18l-14.8-20.23l-0.46-0.18
	c-1.52-0.63-2.25-2.38-1.62-3.9c0.61-1.47,2.26-2.21,3.76-1.68l1.28,0.5c0.54,0.21,1,0.56,1.34,1.02l14.59,19.95
	c13.86,2.05,28-0.95,39.83-8.46c3.21-2.07,19.51-13.52,24.7-35.27c7.1-29.76-9.64-61.72-28.32-67.01c-0.96-0.27-1.93-0.5-2.91-0.7
	c-1.62-0.32-2.67-1.89-2.35-3.51c0.32-1.62,1.89-2.67,3.51-2.35c1.13,0.22,2.27,0.5,3.38,0.81c23.73,6.72,39.83,43.45,32.51,74.15
	c-5.72,23.98-23.72,36.62-27.27,38.91C1447.24,2243.45,1435.23,2246.92,1422.98,2246.85z"/>
<path class="st1" d="M1658.52,1970.56c-24.09,29.14-20.02,72.31,9.09,96.42c5.68,4.71,12.08,8.46,18.96,11.12
	c1.04,0.4,2.08,0.77,3.13,1.12l-2.73,23.85c-2.32,20.34,12.28,38.71,32.6,41.03c20.32,2.32,38.68-12.29,41-32.63l6.75-55.52
	l5.25-1.27l21.44-65.47c6.84-37.2-17.75-72.91-54.92-79.75c-12.57-2.31-25.54-1.06-37.43,3.63c-15.02,5.89-27.47,16.91-35.13,31.12"
	/>
<path class="st4" d="M1680.11,2007.98c-0.37,0-0.73-0.07-1.08-0.2l-13.75-5.32c-1.54-0.59-2.3-2.32-1.71-3.86
	c0.12-0.3,0.28-0.58,0.49-0.83l16.11-19.38c1.05-1.27,2.94-1.44,4.2-0.39c1.27,1.06,1.44,2.94,0.39,4.21l0,0l-13.46,16.19l9.88,3.82
	c1.54,0.59,2.31,2.32,1.71,3.86C1682.46,2007.22,1681.35,2007.98,1680.11,2007.98L1680.11,2007.98z"/>
<path class="st1" d="M1751.86,1977.36c-5.37-16.93-34.48-20.09-50.9-14.22c-0.8,0.28-1.55,0.59-2.27,0.91
	c-2.57,1.2-5.49,1.41-8.21,0.59l-6.83-2.15c-2.69-0.9-4.96-2.76-6.37-5.23c-0.41-0.69-0.85-1.35-1.33-1.99
	c-10.04-14.25-35.68-28.42-49.76-17.7c-14.08,10.72-19.55,30.35-0.33,48.3c14.35,13.41,36.35,5.73,39.23,3.81
	c5.71-3.81,10.36-8.04,13.03-12.74c0.78-1.55,2.54-2.33,4.21-1.88l2.06,0.66c1.64,0.59,2.63,2.26,2.36,3.98
	c-0.52,5.38,0.85,11.51,3.32,17.93c1.25,3.23,14.82,22.18,34.27,19.5C1750.33,2013.45,1757.22,1994.26,1751.86,1977.36
	L1751.86,1977.36z"/>
<path class="st1" d="M1455.96,2135.89c-16.29-23.91-46.71-47.05-53.74-56.87s-26.67,2.38-12.86,23.91
	c13.81,21.52,51.95,69.23,51.95,69.23"/>
<path class="st1" d="M1400.39,2188.55c9.65,6.21,4.87,22.56-12.84,22.56c-13.19,0-24.13-0.51-30.85-0.9
	c-4.52-0.29-8.8-2.12-12.14-5.18l-7.49-6.82c-5.71-5.2-7.88-13.24-5.57-20.61c0.82-2.6,2.16-5,3.95-7.06"/>
<path class="st1" d="M1361.56,2160.53c13.45,0.66,27.81,1.28,36.62,1c23.41-0.66,21.23,27.56-3.23,27.53c-14.6,0-26.71-0.56-34.11-1
	c-5.01-0.3-9.76-2.3-13.48-5.67l-8.3-7.55c-6.32-5.75-8.73-14.65-6.16-22.81c2.52-8.06,9.45-13.95,17.8-15.14l13.05-1.86"/>
<path class="st1" d="M1360.42,2125.31c0,0,5.27-6.78,10.85-15.27c8.24-12.54,17.16-28.81,10.75-32.45
	c-20.51-11.64-31.2,7.22-44.19,24.18c-9.57,12.5-6.12,32.24,9.23,35.97l7.09-1.35l8.3-1.19"/>
<path class="st1" d="M1756.78,2324.07c3.81,11.86,3.59,25.41-0.77,36.4c-7.17,18.03-28.13,28.56-46.72,21.91
	c-8.29-2.96-15.19-8.9-23.28-12.37c-8.26-3.52-17.41-4.34-26.17-2.35c-12.65,2.91-24.01,11.6-36.99,11.34
	c-3.24-0.06-6.75-0.87-8.73-3.44c-2.05-2.65-1.84-6.54-0.31-9.52c1.52-2.99,4.13-5.26,6.74-7.36c8.98-7.22,18.77-13.36,28.53-19.48
	c-17.4,2.01-34.94,4.02-52.4,2.59c-3.88-0.32-7.93-0.87-11.13-3.09c-3.2-2.23-5.22-6.62-3.57-10.15c1.11-2.36,3.51-3.8,5.84-4.97
	c16.75-8.45,35.88-10.52,54.53-12.46l-50.83-2.55c-4.58-0.23-10.08-1.06-11.89-5.28c-1.75-4.08,1.28-8.69,4.86-11.31
	c5.32-3.9,11.94-5.55,18.44-6.72c34.31-6.19,69.62-1.67,103.92,4.59c14.33,2.61,29.55,6.02,39.67,16.51
	C1751.23,2311.41,1754.74,2317.47,1756.78,2324.07L1756.78,2324.07z"/>
<path class="st4" d="M1721.04,2387.41c-4.35,0-8.66-0.74-12.75-2.2c-4.65-1.83-9.1-4.13-13.28-6.87c-3.26-2.09-6.66-3.95-10.17-5.56
	c-7.68-3.27-16.19-4.04-24.32-2.19c-4.85,1.28-9.57,2.99-14.12,5.1c-7.44,3.19-15.13,6.47-23.6,6.31c-4.97-0.1-8.78-1.69-11.03-4.6
	c-2.6-3.36-2.84-8.35-0.61-12.71c1.81-3.56,4.83-6.16,7.53-8.33c5.75-4.55,11.72-8.81,17.89-12.76c-13.23,1.37-26.7,2.27-40.14,1.17
	c-4.05-0.33-8.7-0.91-12.59-3.62c-4.05-2.81-7.02-8.63-4.57-13.87c1.48-3.16,4.47-5,7.2-6.37c7.82-3.82,16.08-6.63,24.61-8.37
	l-19.71-0.98c-3.2-0.16-11.69-0.59-14.48-7.08c-2.4-5.58,1.21-11.5,5.84-14.9c5.87-4.31,12.93-6.03,19.68-7.25
	c35.25-6.36,71.29-1.55,104.99,4.59c15.06,2.74,30.65,6.35,41.28,17.38c5.03,5.38,8.78,11.82,10.96,18.86
	c4.04,12.57,3.72,26.93-0.84,38.42C1752.61,2377.06,1737.69,2387.27,1721.04,2387.41L1721.04,2387.41z M1669.26,2363.62
	c6.16-0.01,12.26,1.24,17.92,3.65c3.78,1.72,7.43,3.71,10.92,5.95c3.84,2.52,7.92,4.65,12.18,6.35
	c16.57,5.92,36.24-3.34,42.94-20.21c4.07-10.24,4.33-23.1,0.71-34.38c-1.9-6.17-5.17-11.82-9.57-16.54
	c-9.4-9.75-23.95-13.08-38.05-15.65c-33.14-6.04-68.55-10.78-102.86-4.58c-6.04,1.1-12.31,2.59-17.21,6.19
	c-2.72,1.99-4.93,5.29-3.88,7.72c0.9,2.1,3.85,3.2,9.29,3.47l50.83,2.55c1.65,0.08,2.91,1.49,2.83,3.14
	c-0.07,1.47-1.21,2.67-2.67,2.82c-18.2,1.89-37.02,3.84-53.5,12.15c-1.91,0.96-3.78,2.06-4.48,3.57c-0.98,2.09,0.54,5.02,2.57,6.43
	c2.68,1.86,6.4,2.3,9.67,2.57c17.23,1.41,34.81-0.62,51.82-2.58c1.64-0.19,3.12,0.99,3.31,2.63c0.13,1.14-0.41,2.26-1.38,2.87
	c-9.53,5.98-19.39,12.16-28.24,19.28c-2.31,1.86-4.67,3.88-5.95,6.38c-0.93,1.83-1.33,4.6,0.02,6.33c1.47,1.9,4.66,2.24,6.43,2.28
	c7.18,0.15,13.96-2.76,21.13-5.83c4.87-2.26,9.93-4.08,15.13-5.43C1662.48,2364.01,1665.86,2363.62,1669.26,2363.62L1669.26,2363.62
	z M1281.76,2700.98c-0.08,0-0.17,0-0.25-0.01l-165.51-13.7c-1.64-0.16-2.84-1.62-2.68-3.26c0.16-1.61,1.56-2.8,3.17-2.69
	l165.51,13.7c1.64,0.13,2.87,1.58,2.73,3.22C1284.61,2699.79,1283.32,2700.98,1281.76,2700.98z"/>
<ellipse transform="matrix(0.3043 -0.9526 0.9526 0.3043 -730.4553 2939.2031)" class="st4" cx="1646.98" cy="1969.68" rx="24.33" ry="26.19"/>
<ellipse transform="matrix(0.3052 -0.9523 0.9523 0.3052 -702.2196 3015.9724)" class="st4" cx="1715.72" cy="1989.21" rx="24.42" ry="26.29"/>
<path class="st4" d="M1460.52,2302.67c-0.88,0-1.72-0.39-2.29-1.07l-63.03-75.3c-1.06-1.27-0.89-3.15,0.37-4.21
	c1.26-1.06,3.15-0.89,4.21,0.37l61.85,73.88l142.36-33.87c1.6-0.4,3.22,0.57,3.62,2.17c0.4,1.6-0.57,3.22-2.17,3.63
	c-0.02,0.01-0.05,0.01-0.07,0.02l-144.16,34.3C1460.98,2302.64,1460.75,2302.67,1460.52,2302.67L1460.52,2302.67z"/>
<path class="st4" d="M1423.98,2236.34c-2.95,0.02-5.89-0.5-8.66-1.53c-2.93-1.1-4.8-2.46-8.19-4.94
	c-5.86-4.29-10.94-9.55-15.02-15.55c-0.93-1.36-0.58-3.22,0.78-4.15s3.22-0.58,4.15,0.78c3.7,5.44,8.3,10.21,13.61,14.1
	c3.15,2.3,4.59,3.36,6.76,4.17c9.27,3.47,20.98-1.6,28.48-8.17c4.26-3.83,7.63-8.54,9.89-13.81c7.28-16.27,6.51-41.12-2.15-69.96
	c-0.48-1.58,0.4-3.25,1.98-3.73c1.58-0.48,3.25,0.4,3.73,1.98c0,0.01,0.01,0.02,0.01,0.03c9.2,30.66,9.85,56.29,1.88,74.13
	c-2.61,6.05-6.5,11.47-11.41,15.87C1443.51,2231.08,1433.78,2236.34,1423.98,2236.34z"/>
<g>
	<g>
		<g>
			<path class="st7" d="M1645.09,2464.28c-8.17-19.17,0.73-41.35,19.89-49.53c19.16-8.18,41.31,0.73,49.49,19.9
				c2,4.68,3.02,9.72,3.03,14.81"/>
		</g>
		<g>
			<ellipse class="st7" cx="1305.39" cy="2512.1" rx="37.71" ry="37.74"/>
		</g>
		<g>
			<ellipse class="st7" cx="1818.9" cy="2305.29" rx="37.71" ry="37.74"/>
		</g>
		<g>
			<g>
				<path class="st7" d="M1663.91,2645.96c-20.08,5.53-40.84-6.28-46.36-26.38c-4.89-17.8,3.8-36.53,20.54-44.27L1663.91,2645.96z
					 M1525.84,2635.74c0,19-14.12,35.04-32.95,37.44l-25.21-69.19c17.5-11.3,40.84-6.27,52.13,11.24
					C1523.75,2621.34,1525.85,2628.46,1525.84,2635.74z M1339.69,2615.34l-40.42,60.55c-13.64-15.77-11.92-39.61,3.83-53.26
					C1313.16,2613.92,1327.06,2611.15,1339.69,2615.34z M1197.38,2630.38c0.01,20.84-16.87,37.75-37.7,37.75
					c-12.5,0-24.19-6.19-31.21-16.54l34.08-58.84C1182.2,2594.25,1197.38,2610.65,1197.38,2630.38L1197.38,2630.38z M1343.1,2364.08
					c0.01,20.85-16.86,37.76-37.69,37.78c-10.41,0.01-20.36-4.29-27.49-11.88l12.3-21.26c8.76-15.13,21.82-27.32,37.52-35
					C1337.39,2340.82,1343.09,2352.09,1343.1,2364.08z M1479.77,2295.14c-2.67,20.68-21.59,35.28-42.26,32.6
					c-10.69-1.39-20.29-7.28-26.35-16.21L1479.77,2295.14z M1838.01,2219.21c-18.04,10.41-41.1,4.22-51.51-13.84
					c-10.31-17.88-4.34-40.74,13.39-51.29 M1904.79,2380.71c-0.06,11.36-3.3,22.32-10.89,31.27c-10.14,11.96-25.67,18.82-41.1,19.12
					c-10.57-17.96-3.72-39.53,14.23-50.12c11.64-6.86,26.07-6.97,37.81-0.28L1904.79,2380.71z M1627.13,2188.05
					c0,20.84-16.88,37.74-37.71,37.75c-9.49,0-18.64-3.58-25.61-10.03l52.35-54.33C1623.2,2168.5,1627.15,2178.07,1627.13,2188.05
					L1627.13,2188.05z"/>
			</g>
		</g>
		<g>
			<path class="st7" d="M1738.96,2243.05c-7.32,19.51-29.05,29.39-48.54,22.07c-19.49-7.32-29.36-29.07-22.05-48.58
				c7.32-19.51,29.05-29.39,48.54-22.07c0.47,0.18,0.94,0.36,1.41,0.56"/>
		</g>
		<g>
			<path class="st7" d="M1462.06,2474.13c0,17.35-11.81,32.46-28.63,36.65l-25.29-69.41c-0.14-0.38-0.27-0.76-0.4-1.14
				c18.7-9.18,41.3-1.45,50.48,17.27c2.53,5.17,3.85,10.84,3.85,16.6L1462.06,2474.13z"/>
		</g>
		<g>
			<ellipse class="st7" cx="1558.47" cy="2371.56" rx="37.71" ry="37.74"/>
		</g>
		<g>
			<ellipse class="st7" cx="1544.43" cy="2512.1" rx="37.71" ry="37.74"/>
		</g>
	</g>
</g>
<path class="st4" d="M1284.57,2701.22c-0.08,0-0.16,0-0.25-0.01l-176.54-14.61c-1.64-0.14-2.87-1.58-2.73-3.22
	c0.04-0.44,0.17-0.87,0.39-1.25l169.92-293.71l12.3-21.26c12.55-21.59,33.37-37.11,57.62-42.97l133.79-31.97l126.43-30.2
	c1.61-0.38,3.21,0.62,3.59,2.23c0.37,1.6-0.61,3.2-2.2,3.58l-195.04,46.6l-65.18,15.58c-22.66,5.48-42.11,19.99-53.84,40.16
	l-12.3,21.26l-167.56,289.62l170.09,14.08l136.59-204.61c0.92-1.37,2.78-1.73,4.15-0.81c1.36,0.92,1.72,2.76,0.82,4.12
	l-137.56,206.08C1286.5,2700.72,1285.57,2701.22,1284.57,2701.22L1284.57,2701.22z"/>
<g transform="translate(809.0 234.0) rotate(0.0 41.5 44.5) translate(0.0 0.0) scale(0.6036714863410235 0.6021650879566982)">
	<path class="st1" d="M893.78,2881.84l69.76,78.74l85.34-67.91L893.78,2881.84z"/>
	<g>
		<path class="st4" d="M963.55,2966.05c-1.57,0-3.06-0.67-4.1-1.84l-69.76-78.74c-2-2.26-1.8-5.72,0.47-7.73
			c1.1-0.97,2.54-1.47,4.01-1.36l155.1,10.83c3.02,0.21,5.29,2.83,5.08,5.84c-0.11,1.53-0.85,2.95-2.05,3.9l-85.34,67.91
			C965.99,2965.64,964.79,2966.06,963.55,2966.05z M906.76,2888.23l57.44,64.83l70.25-55.91L906.76,2888.23z"/>
		<path class="st4" d="M964.48,2961.41c-3.02,0-5.47-2.46-5.47-5.48c0-0.95,0.25-1.87,0.71-2.7l73.72-130.15
			c0.95-1.67,2.71-2.72,4.63-2.77l95.52-2.37c3.02-0.07,5.53,2.32,5.61,5.34c0.07,3.02-2.32,5.53-5.34,5.61l-92.42,2.28
			l-72.2,127.46C968.27,2960.35,966.45,2961.41,964.48,2961.41z"/>
		<path class="st4" d="M955.13,3087.64c-0.13,0-0.26,0-0.38-0.01c-3.02-0.21-5.29-2.82-5.08-5.84c0,0,0,0,0,0l8.42-121.59
			c0.21-3.02,2.82-5.29,5.84-5.08c3.02,0.21,5.29,2.82,5.08,5.84l-8.42,121.59C960.39,3085.42,958.01,3087.64,955.13,3087.64z"/>
	</g>
</g>
<g transform="translate(765.0 129.0) rotate(0.0 15.0 15.0) translate(0.0 0.0) scale(0.40896450188123673 0.40883074407195424)">
	<g>
		<path class="st2" d="M1274.77,3648.1l9.93,32.85c1.73,5.71,6.2,10.17,11.92,11.9l32.85,9.95c2.14,0.65,3.35,2.91,2.71,5.05
			c-0.39,1.3-1.41,2.31-2.71,2.71l-32.85,9.95c-5.71,1.72-10.18,6.19-11.92,11.9l-9.93,32.85c-0.63,2.15-2.88,3.38-5.03,2.74
			c-1.32-0.39-2.36-1.42-2.74-2.74l-9.94-32.85c-1.72-5.71-6.19-10.18-11.9-11.9l-32.85-9.95c-2.14-0.65-3.35-2.91-2.71-5.05
			c0.39-1.3,1.41-2.31,2.71-2.71l32.85-9.95c5.71-1.72,10.18-6.19,11.9-11.9l9.94-32.85c0.63-2.15,2.88-3.38,5.03-2.74
			C1273.35,3645.75,1274.39,3646.78,1274.77,3648.1z"/>
	</g>
</g>
<g transform="translate(765.0 129.0) rotate(0.0 15.0 15.0) translate(0.0 0.0) scale(0.40896450188123673 0.40883074407195424)">
	<g>
		<path class="st2" d="M-1085.6,188.94l9.93,32.85c1.73,5.71,6.2,10.17,11.92,11.9l32.85,9.94c2.14,0.65,3.35,2.91,2.71,5.05
			c-0.39,1.3-1.41,2.31-2.71,2.71l-32.85,9.94c-5.71,1.72-10.18,6.19-11.92,11.9l-9.93,32.85c-0.63,2.15-2.88,3.38-5.03,2.74
			c-1.32-0.39-2.36-1.42-2.74-2.74l-9.94-32.85c-1.72-5.71-6.19-10.18-11.9-11.9l-32.85-9.94c-2.14-0.65-3.35-2.91-2.71-5.05
			c0.39-1.3,1.41-2.31,2.71-2.71l32.85-9.94c5.71-1.72,10.18-6.19,11.9-11.9l9.94-32.85c0.63-2.15,2.88-3.38,5.03-2.75
			C-1087.02,186.59-1085.99,187.62-1085.6,188.94z"/>
	</g>
</g>
<g transform="translate(765.0 129.0) rotate(0.0 15.0 15.0) translate(0.0 0.0) scale(0.40896450188123673 0.40883074407195424)">
	<g>
		<path class="st2" d="M2751.48,1567.48l18.22,60.28c3.18,10.48,11.39,18.67,21.87,21.83l60.28,18.25c3.93,1.19,6.15,5.34,4.96,9.27
			c-0.72,2.38-2.58,4.24-4.96,4.96l-60.28,18.25c-10.48,3.17-18.69,11.36-21.87,21.83l-18.22,60.28c-1.16,3.94-5.29,6.19-9.23,5.04
			c-2.43-0.71-4.32-2.61-5.04-5.04l-18.25-60.28c-3.16-10.48-11.36-18.68-21.83-21.83l-60.28-18.25c-3.93-1.19-6.15-5.34-4.96-9.27
			c0.72-2.38,2.58-4.24,4.96-4.96l60.28-18.25c10.48-3.16,18.68-11.36,21.83-21.83l18.25-60.28c1.16-3.94,5.29-6.19,9.23-5.04
			C2748.87,1563.16,2750.77,1565.06,2751.48,1567.48z"/>
	</g>
</g>
<g transform="translate(912.0 182.0) rotate(0.0 9.0 9.0) scale(0.26723677177979693 0.26714158504007124)">
	<path class="st2" d="M2436.26,6039.73c-5.71,1.72-10.18,6.19-11.92,11.9l-9.93,32.85c-0.63,2.15-2.88,3.38-5.03,2.75
		c-1.32-0.39-2.36-1.42-2.74-2.75l-9.95-32.85c-1.72-5.71-6.19-10.18-11.9-11.9l-32.85-9.94c-2.14-0.65-3.35-2.91-2.71-5.05
		c0.39-1.3,1.41-2.31,2.71-2.71l32.85-9.94c5.71-1.72,10.18-6.19,11.9-11.9l9.95-32.85c0.63-2.15,2.88-3.38,5.03-2.74
		c1.32,0.39,2.36,1.42,2.75,2.74l9.93,32.85c1.73,5.71,6.2,10.17,11.92,11.9l32.85,9.94c2.14,0.65,3.35,2.91,2.71,5.05"/>
</g>
<g transform="translate(912.0 182.0) rotate(0.0 9.0 9.0) scale(0.26723677177979693 0.26714158504007124)">
	<path class="st2" d="M-2847.55,3943.53c-5.71,1.72-10.18,6.19-11.92,11.9l-9.93,32.85c-0.63,2.15-2.88,3.38-5.03,2.74
		c-1.32-0.39-2.36-1.42-2.75-2.74l-9.94-32.85c-1.72-5.71-6.19-10.18-11.9-11.9l-32.85-9.95c-2.14-0.65-3.35-2.91-2.71-5.05
		c0.39-1.3,1.41-2.31,2.71-2.71l32.85-9.95c5.71-1.72,10.18-6.19,11.9-11.9l9.94-32.85c0.63-2.15,2.88-3.38,5.03-2.75
		c1.32,0.39,2.36,1.42,2.74,2.75l9.93,32.85c1.73,5.71,6.2,10.17,11.92,11.9l32.85,9.95c2.14,0.65,3.35,2.91,2.71,5.05"/>
</g>
<path class="st2" d="M814.11,1940.91c-1.71,0-3.09-1.39-3.09-3.11v-82.19c0-1.72,1.39-3.11,3.09-3.11s3.09,1.39,3.09,3.11v82.19
	C817.21,1939.52,815.82,1940.91,814.11,1940.91z"/>
<g transform="translate(307.0 376.0) rotate(0.0 -108.5 188.0) translate(-0.0 0.0) scale(-0.595081391777456 0.5947484973109775)">
	<path class="st4" d="M262.56,4136l-0.64-4.17l-0.88-5.76l-86.39-567.17c-0.43-2.99,1.66-5.76,4.67-6.17
		c2.94-0.43,5.66,1.59,6.16,4.51l86.65,568.82l0.88,5.76l0.64,4.17H262.56z M-243.21,4136l1.11-4.17l1.54-5.76l151.45-569.39
		c0.78-2.92,3.77-4.67,6.68-3.89c2.94,0.78,4.67,3.77,3.89,6.71l-150.69,566.57l-1.54,5.76l-1.11,4.17H-243.21z"/>
	<path class="st2" d="M-110.94,3558.07c0,0,88.09-415.11,90.11-426.22c6.3-34.79,19.49-68.05,54.78-75.06
		c4.4-0.87,8.87-1.31,13.36-1.31h200.13c4.49,0,8.96,0.44,13.36,1.31c37.15,7.38,61.28,43.47,57.33,80.39l-84.52,424.2"/>
	<g>
		<path class="st4" d="M233.59,3566.85c-3.02,0-5.48-2.44-5.48-5.47c0-0.36,0.03-0.72,0.11-1.08l84.47-423.96
			c3.63-35-19.6-67.57-52.97-74.19c-4.05-0.8-8.16-1.21-12.29-1.21H47.3c-4.11,0-8.25,0.41-12.29,1.21
			c-26.66,5.29-42.69,27.75-50.45,70.66c-2,11.07-86.54,409.43-90.14,426.39c-0.66,2.95-3.59,4.81-6.54,4.14
			c-2.9-0.65-4.75-3.5-4.17-6.42c0.88-4.15,88.1-415.16,90.07-426.06c5.46-30.15,17.52-71.2,59.1-79.45
			c4.75-0.94,9.58-1.42,14.42-1.42h200.13c4.83,0,9.68,0.48,14.42,1.42c38.96,7.74,66.06,45.66,61.7,86.34
			c-0.02,0.16-0.04,0.32-0.07,0.49l-84.52,424.2C238.44,3565.01,236.2,3566.85,233.59,3566.85z"/>
		<path class="st4" d="M-314.68,3552.6l553.98-0.05v7.3c0,14.19-11.5,25.69-25.69,25.69h-555.02L-314.68,3552.6z"/>
	</g>
</g>
<path class="st4" d="M687.81,2728.02c2.65,19.94,16.18,32.95,46.74,42.47c28.81,8.99,42.76,34.57,40.31,61.32h-115.2l-18.53-48.68
	l-120.73-51.72l1.55-21.2l33.95,2.69l10.39-21.67L687.81,2728.02z"/>
<path class="st1" d="M666.62,2288.38c19.73,8.66,40.27,20.12,51.07,30.49l5.17,6.44H579.59l-11.78-59.7"/>
<path class="st4" d="M722.86,2328.22H579.59c-1.39,0-2.59-0.98-2.86-2.35l-11.78-59.7c-0.34-1.57,0.66-3.12,2.23-3.46
	c1.57-0.34,3.12,0.65,3.47,2.22c0.01,0.04,0.02,0.08,0.02,0.11l11.31,57.36h134.8l-1.25-1.56c-9.52-9.08-28.22-20.21-50.09-29.8
	c-1.48-0.64-2.15-2.35-1.51-3.82c0.64-1.47,2.36-2.15,3.83-1.51c0.01,0,0.02,0.01,0.02,0.01c22.56,9.9,41.97,21.51,51.92,31.06
	c0.09,0.09,0.18,0.18,0.25,0.28l5.17,6.44c1.01,1.25,0.81,3.08-0.45,4.08C724.16,2327.99,723.52,2328.22,722.86,2328.22
	L722.86,2328.22z"/>
<path class="st2" d="M607.64,2319.44l154.25,0.34c51.05,6.68,87,53.36,80.31,104.28c-5.04,25.83-28.47,66.57-28.47,66.57
	l-72.96,152.14l-14.24,29.69l-28.27,58.95l-130.92-42.36"/>
<path class="st4" d="M698.27,2734.31c-0.31,0-0.61-0.05-0.9-0.14l-130.92-42.36c-1.54-0.48-2.39-2.11-1.91-3.64
	c0.48-1.53,2.11-2.39,3.65-1.91c0.02,0.01,0.04,0.01,0.06,0.02l128.5,41.58l114.36-238.48c0.03-0.06,0.07-0.13,0.1-0.19
	c0.23-0.4,23.2-40.53,28.12-65.59c3.11-23.83-3.26-47.44-17.94-66.49c-14.66-19.03-35.85-31.25-59.69-34.41l-154.06-0.34
	c-1.61,0-2.91-1.3-2.91-2.91c0-1.61,1.31-2.91,2.92-2.9h0.01l154.25,0.34c0.12,0,0.25,0.01,0.37,0.02
	c25.46,3.33,48.1,16.35,63.74,36.66c15.64,20.31,22.42,45.48,19.08,70.88c-0.01,0.06-0.02,0.12-0.03,0.18
	c-5,25.63-27.19,64.64-28.75,67.37L700.9,2732.66C700.41,2733.67,699.39,2734.31,698.27,2734.31z"/>
<path class="st1" d="M600.87,2269.91c-8.52-1.7-19.97-2.91-28.75-4.08"/>
<path class="st4" d="M600.87,2272.81c-0.19,0-0.38-0.02-0.58-0.06c-6.25-1.25-14.31-2.25-21.43-3.14c-2.49-0.31-4.9-0.61-7.14-0.91
	c-1.6-0.19-2.73-1.64-2.54-3.24c0.19-1.59,1.65-2.73,3.25-2.53c0.02,0,0.04,0.01,0.06,0.01c2.22,0.3,4.62,0.59,7.09,0.9
	c7.21,0.9,15.39,1.92,21.85,3.21c1.58,0.31,2.6,1.84,2.29,3.42C603.46,2271.84,602.26,2272.81,600.87,2272.81L600.87,2272.81z"/>
<path class="st1" d="M593.87,2307.84c16.91,3.54,16.85-7.62,36.24-10.73c26.85-4.31,43.61-9.53,45.8-15.52
	c5.06-13.79-38.4-6.6-75.04-11.69"/>
<path class="st4" d="M599.84,2311.43c-1.94,0-4.1-0.23-6.57-0.74c-1.58-0.33-2.58-1.87-2.25-3.44s1.88-2.58,3.45-2.25l0,0
	c8.26,1.73,11.57-0.33,16.59-3.45c4.19-2.6,9.4-5.84,18.58-7.31c37.98-6.09,42.92-11.99,43.53-13.65c0.41-1.11,0.16-1.48,0.06-1.62
	c-2.34-3.4-18.35-3.66-32.48-3.89c-12.57-0.2-26.81-0.43-40.28-2.3c-1.59-0.22-2.71-1.69-2.48-3.28c0.22-1.59,1.69-2.7,3.29-2.48
	c13.12,1.82,27.17,2.05,39.57,2.25c21.78,0.35,33.33,0.8,37.19,6.41c0.94,1.36,1.8,3.66,0.61,6.91
	c-1.62,4.42-8.37,11.02-48.08,17.39c-8.03,1.28-12.49,4.06-16.43,6.5C610.07,2309.01,606.18,2311.43,599.84,2311.43L599.84,2311.43z
	"/>
<path class="st6" d="M353.01,2129.21l13.78-1.19c3.09-0.25,6.2-0.28,9.29-0.1c28.52,1.68,54.97,19.65,60.35,46.2l17.09,84.25
	l115.9-5.51l13.69,65.57l-109.48,3.95l-31.4,54.81l-168.78,73.41"/>
<path class="st4" d="M273.44,2453.5c-1.61,0-2.92-1.3-2.92-2.9c0-1.16,0.69-2.21,1.75-2.67l167.89-73.02l30.92-53.97
	c0.5-0.87,1.42-1.43,2.42-1.46l106.03-3.82l-12.48-59.77l-113.41,5.39c-1.44,0.07-2.71-0.92-2.99-2.33l-17.09-84.25
	c-4.81-23.73-29.07-42.19-57.67-43.87c-2.96-0.18-5.93-0.15-8.88,0.09l-13.76,1.19c-1.6,0.12-3-1.08-3.12-2.68
	c-0.12-1.57,1.04-2.95,2.62-3.11l13.78-1.19c3.23-0.26,6.48-0.3,9.72-0.1c14.72,0.87,29.07,5.96,40.41,14.34
	c12.08,8.93,19.9,20.75,22.62,34.18l16.59,81.81l113.4-5.39c1.43-0.07,2.7,0.91,2.99,2.31l13.69,65.57
	c0.33,1.57-0.68,3.11-2.26,3.44c-0.16,0.03-0.33,0.05-0.49,0.06l-107.86,3.89l-30.6,53.41c-0.31,0.54-0.79,0.97-1.36,1.22
	l-168.78,73.41C274.23,2453.42,273.83,2453.5,273.44,2453.5L273.44,2453.5z"/>
<path class="st4" d="M518.07,2708.33c8.24,17.23,21.94,30.14,42.03,39.03c32.25,14.28,44.48,19.59,60.08,24.1
	c26.82,7.74,44.28,33.82,42.29,60.35H510.13l-86.88-80.43l-0.44,79.71l-59.39,0.72l-2.2-151.67"/>
<path class="st2" d="M417.32,2386.17c11.64-4.73,18.31-23.24,25.72-27.15c15.37-4.11,32.3,6.78,44.79,8.41
	c12.49,1.63,19.38,4.44,20.76-6.29c1.37-10.73-36.25-29.85-36.25-29.85l29.06,1.11c38.45,4.23,37.6-12.96,37.6-12.96h68.66
	c51.24,5.03,88.69,50.53,83.65,101.64c-0.86,10.79-4.31,18.47-4.31,18.47L555.91,2712.9l-195.04-34.26l46.12-100.21l17.75-38.6
	l22.02-52.13l-135.51-0.19c-28.82-0.04-53.46-17.84-63.53-43C247.72,2444.52,405.68,2390.9,417.32,2386.17L417.32,2386.17z"/>
<path class="st4" d="M555.91,2715.81c-0.17,0-0.34-0.01-0.51-0.04l-195.04-34.26c-1.58-0.28-2.64-1.78-2.36-3.36
	c0.04-0.25,0.12-0.48,0.22-0.71l46.12-100.21l17.75-38.6l20.28-48.02l-131.13-0.18c-29.35-0.04-55.35-17.64-66.23-44.83
	c-0.6-1.49,0.13-3.18,1.63-3.78c0.05-0.02,0.09-0.04,0.14-0.05c1.58-0.54,158.01-53.65,169.44-58.29
	c5.86-2.38,10.64-9.24,14.86-15.29c3.64-5.22,6.79-9.73,10.59-11.74c0.19-0.1,0.4-0.18,0.61-0.24c10.87-2.91,22.14,0.99,32.08,4.42
	c5.03,1.74,9.79,3.38,13.84,3.91c1.75,0.23,3.4,0.48,4.94,0.71c5.07,0.77,9.07,1.39,10.74,0.13c0.89-0.67,1.5-2.23,1.81-4.62
	c0.69-5.37-17.47-18.14-34.68-26.89c-1.43-0.73-2-2.48-1.27-3.91c0.52-1.01,1.57-1.63,2.71-1.58l29.06,1.11
	c0.07,0,0.14,0.01,0.21,0.02c19.41,2.14,27.82-1.33,31.47-4.61c2.89-2.6,2.9-5.26,2.9-5.38c-0.04-0.8,0.25-1.54,0.8-2.12
	c0.55-0.58,1.31-0.88,2.11-0.88h68.66c0.1,0,0.19,0,0.28,0.01c25.56,2.51,48.6,14.79,64.89,34.59
	c16.29,19.8,23.88,44.74,21.37,70.23c-0.88,11.11-4.4,19.04-4.55,19.37l-131.09,273.42
	C558.05,2715.16,557.03,2715.81,555.91,2715.81L555.91,2715.81z M365.09,2676.43l189.15,33.22l130.11-271.36
	c0,0,3.23-7.34,4.04-17.44c2.37-24-4.76-47.43-20.07-66.02c-15.27-18.56-36.87-30.09-60.82-32.48h-66.01
	c-0.52,1.85-1.65,4.29-4.14,6.63c-6.51,6.11-18.67,8.24-36.17,6.33l-16.77-0.64c2.77,1.63,5.5,3.34,8.18,5.11
	c17.91,11.87,19.35,18.09,18.89,21.74c-0.53,4.12-1.83,6.83-4.08,8.52c-3.63,2.73-8.71,1.96-15.13,0.98c-1.5-0.23-3.1-0.47-4.81-0.7
	c-4.65-0.6-9.68-2.34-15-4.18c-9.47-3.27-19.27-6.66-28.32-4.39c-2.48,1.48-5.29,5.51-8.27,9.77c-4.68,6.71-9.99,14.32-17.45,17.35
	c-10.84,4.4-144.37,49.78-166.79,57.4c10.61,23.36,33.69,38.31,59.62,38.35l135.51,0.19c1.61,0,2.91,1.3,2.91,2.91
	c0,0.39-0.08,0.77-0.23,1.13l-22.02,52.13l-17.79,38.69L365.09,2676.43z"/>
<path class="st6" d="M413.04,2387.87l-166.82,57.16c-6.91,2.34-14.21,3.31-21.49,2.83c-30.56-2-53.71-28.33-51.7-58.81l21.07-176.1
	c5.52-52.44,36.2-72.9,58.73-75.05c0.45-0.04,10.76-0.94,25.01-2.17l43.69,13.42l28.46-18.6"/>
<g>
	<path class="st4" d="M228.4,2450.88c-1.29,0-2.58-0.04-3.86-0.13c-32.11-2.1-56.52-29.87-54.42-61.9c0-0.05,0.01-0.1,0.01-0.15
		l21.07-176.1c2.53-24.05,10.75-44.13,23.75-58.02c10.44-11.16,24.15-18.29,37.59-19.58c0.41-0.04,8.37-0.73,25.03-2.18
		c0.37-0.03,0.75,0.01,1.11,0.12l42.38,13.01l27.31-17.85c1.33-0.9,3.14-0.55,4.05,0.78s0.55,3.14-0.78,4.04
		c-0.03,0.02-0.05,0.03-0.08,0.05l-28.46,18.6c-0.73,0.47-1.63,0.6-2.45,0.35l-43.15-13.25c-8.14,0.7-16.28,1.41-24.42,2.12
		c-12.05,1.15-24.4,7.62-33.89,17.76c-12.13,12.96-19.81,31.88-22.22,54.7l-21.06,176.06c-1.86,28.8,20.11,53.76,48.99,55.65
		c6.9,0.46,13.82-0.45,20.36-2.68l166.82-57.16c1.52-0.52,3.18,0.29,3.7,1.8c0.52,1.52-0.29,3.17-1.81,3.69l-166.82,57.16
		C241.12,2449.83,234.78,2450.88,228.4,2450.88z M746.49,2378.49c-0.47,0-0.96-0.07-1.43-0.21c-1.66-0.48-2.97-1.78-3.45-3.44
		l-5.33-17.6c-0.64-2.13-2.32-3.8-4.46-4.44l-17.62-5.34c-2.67-0.78-4.22-3.61-3.43-6.3c0.49-1.66,1.79-2.96,3.45-3.44l17.59-5.32
		c2.14-0.65,3.82-2.32,4.46-4.45l1.82-5.95c0.37-1.22,1.51-2.06,2.79-2.06h8.35c0.1,0,0.19,0,0.29,0.01c1,0.1,2.01,0.22,3.06,0.35
		c1.14,0.14,2.1,0.94,2.43,2.04l1.71,5.61c0.65,2.14,2.32,3.81,4.47,4.45l17.66,5.32c2.71,0.85,4.21,3.71,3.37,6.38
		c-0.5,1.6-1.76,2.85-3.37,3.35l-0.01,0l-17.66,5.33c-2.14,0.64-3.82,2.31-4.46,4.44l-5.34,17.62
		C750.73,2377.06,748.69,2378.49,746.49,2378.49z M745.79,2373.2l0,0.01L745.79,2373.2z M747.19,2373.18L747.19,2373.18
		L747.19,2373.18z M718.19,2342.61l15.31,4.64c4.01,1.2,7.14,4.33,8.35,8.32l4.64,15.31l4.64-15.31c1.21-4,4.35-7.13,8.36-8.32
		l15.35-4.64l-15.35-4.63c-4.01-1.21-7.14-4.33-8.35-8.33l-1.15-3.79c-0.3-0.03-0.6-0.07-0.9-0.1h-6.05l-1.19,3.89
		c-1.21,3.99-4.34,7.12-8.35,8.33L718.19,2342.61z M777.99,2344.69L777.99,2344.69L777.99,2344.69z M715.9,2343.3l-0.01,0
		C715.89,2343.3,715.9,2343.3,715.9,2343.3z M715.87,2341.9l0.01,0C715.88,2341.91,715.87,2341.91,715.87,2341.9z M429.52,2282.86
		c-1.58,0-2.87-1.26-2.91-2.83l-1.13-45.26c-0.05-1.6,1.21-2.95,2.82-3c1.61-0.05,2.95,1.21,3.01,2.81c0,0.02,0,0.03,0,0.05
		l1.13,45.26c0.04,1.6-1.23,2.94-2.84,2.98H429.52z"/>
	<path class="st4" d="M314.97,2196.11c-32.51,0-59.98-24.23-63.54-56.98c-0.17-1.6,0.98-3.03,2.58-3.2c1.6-0.17,3.04,0.98,3.21,2.58
		l0,0c3.29,31.09,30.73,53.96,61.99,51.65c32.02-2.26,56.22-30.09,53.95-62.02c-0.11-1.6,1.1-2.99,2.7-3.11
		c1.6-0.12,2.99,1.08,3.11,2.68c0,0.01,0,0.01,0,0.02c2.5,35.13-24.13,65.74-59.35,68.23
		C318.06,2196.06,316.5,2196.11,314.97,2196.11L314.97,2196.11z M635.07,2607.4c-0.51,0-1.03-0.08-1.52-0.23
		c-1.61-0.5-2.86-1.75-3.36-3.35l-5.34-17.64c-0.65-2.13-2.33-3.8-4.46-4.44c-1.55-0.45-2.44-2.06-1.99-3.6s2.06-2.43,3.61-1.98
		c0.02,0.01,0.05,0.01,0.07,0.02c4,1.21,7.13,4.33,8.35,8.32l4.64,15.32l4.64-15.31c1.21-3.99,4.35-7.11,8.35-8.32l15.31-4.63
		l-15.31-4.64c-3.99-1.19-7.12-4.29-8.34-8.25l-4.74-15.66c-0.42-1.55,0.49-3.15,2.05-3.57c1.49-0.4,3.04,0.42,3.53,1.89l4.74,15.64
		c0.66,2.11,2.33,3.76,4.46,4.39l17.62,5.34c2.7,0.84,4.21,3.69,3.38,6.37c-0.5,1.6-1.76,2.86-3.36,3.35l-17.63,5.33
		c-2.14,0.65-3.82,2.31-4.47,4.45l-5.34,17.61c-0.39,1.3-1.3,2.39-2.5,3.02C636.72,2607.2,635.9,2607.4,635.07,2607.4L635.07,2607.4
		z M665.65,2572.24L665.65,2572.24L665.65,2572.24z M546.84,2524.86c-0.5,0-0.99-0.07-1.48-0.22c-1.63-0.49-2.91-1.76-3.4-3.39
		l-5.35-17.62c-0.64-2.13-2.32-3.8-4.45-4.44l-17.66-5.33c-2.67-0.78-4.22-3.61-3.43-6.3c0.48-1.66,1.79-2.96,3.45-3.44l17.64-5.32
		c2.14-0.65,3.81-2.31,4.45-4.44l5.35-17.61c0.39-1.3,1.27-2.37,2.47-3.01c1.2-0.64,2.58-0.78,3.88-0.38
		c1.63,0.49,2.91,1.76,3.4,3.39l5.35,17.62c0.65,2.13,2.32,3.8,4.46,4.44l17.66,5.32c2.67,0.78,4.22,3.61,3.43,6.3
		c-0.48,1.66-1.79,2.96-3.45,3.44l-17.64,5.33c-2.14,0.64-3.81,2.31-4.45,4.44l-5.35,17.62c-0.39,1.29-1.28,2.37-2.47,3.01
		C548.5,2524.65,547.67,2524.86,546.84,2524.86L546.84,2524.86z M518.49,2488.99l15.35,4.64c4,1.2,7.14,4.33,8.34,8.32l4.64,15.3
		l4.64-15.3c1.21-3.99,4.34-7.12,8.34-8.32l15.35-4.64l-15.35-4.63c-4-1.21-7.13-4.33-8.34-8.32l-4.65-15.3l-4.64,15.3
		c-1.21,3.99-4.34,7.11-8.34,8.32L518.49,2488.99z M577.49,2489.69c0,0,0.01,0,0.01,0L577.49,2489.69z M516.19,2489.69
		L516.19,2489.69L516.19,2489.69z M577.48,2488.29l-0.01,0L577.48,2488.29z M516.16,2488.29l0.01,0L516.16,2488.29z M566.03,2673.31
		c-2.24,0-4.22-1.47-4.87-3.61l-5.35-17.62c-0.64-2.13-2.32-3.8-4.45-4.44l-17.66-5.33c-2.67-0.78-4.22-3.61-3.43-6.3
		c0.49-1.66,1.79-2.96,3.45-3.44l17.64-5.32c2.14-0.65,3.81-2.31,4.45-4.44l5.35-17.61c0.82-2.68,3.66-4.2,6.35-3.39
		c1.63,0.49,2.91,1.76,3.4,3.39l5.35,17.62c0.65,2.13,2.32,3.8,4.46,4.44l13.78,4.15c1.54,0.46,2.41,2.09,1.95,3.62
		c-0.47,1.54-2.09,2.41-3.63,1.94l0,0l-13.79-4.16c-4-1.21-7.13-4.33-8.34-8.32l-4.64-15.3l-4.64,15.3
		c-1.21,3.99-4.34,7.11-8.34,8.32l-15.36,4.63l15.35,4.64c4,1.2,7.14,4.33,8.34,8.32l4.64,15.3l4.64-15.3
		c1.21-3.99,4.34-7.12,8.34-8.32l10.14-3.06c1.54-0.46,3.17,0.4,3.63,1.94s-0.4,3.16-1.95,3.62l0,0l-10.14,3.06
		c-2.14,0.64-3.81,2.31-4.45,4.44l-5.35,17.62C570.25,2671.85,568.27,2673.31,566.03,2673.31L566.03,2673.31z M535.39,2638.14
		L535.39,2638.14L535.39,2638.14z M535.36,2636.74l0.01,0L535.36,2636.74z M662.78,2471.1c-0.49,0-0.97-0.07-1.43-0.21
		c-1.66-0.48-2.97-1.78-3.45-3.44l-5.33-17.55c-0.65-2.14-2.32-3.81-4.47-4.45l-17.66-5.32c-2.67-0.78-4.22-3.61-3.43-6.3
		c0.49-1.66,1.79-2.96,3.45-3.44l17.64-5.32c2.14-0.65,3.82-2.32,4.46-4.45l5.34-17.61c0.84-2.7,3.7-4.2,6.39-3.37
		c1.61,0.5,2.87,1.75,3.36,3.36l5.34,17.64c0.65,2.14,2.32,3.81,4.47,4.45l12.98,3.93c1.45,0.44,2.32,1.92,2,3.39
		c-0.35,1.63-0.75,3.26-1.2,4.87c-0.05,0.17-0.11,0.33-0.18,0.48l-1.46,3.05c-0.35,0.74-1,1.29-1.78,1.53l-10.36,3.13
		c-2.14,0.65-3.82,2.32-4.46,4.45l-5.34,17.57C667.01,2469.67,664.98,2471.1,662.78,2471.1L662.78,2471.1z M662.08,2465.8l0,0.01
		L662.08,2465.8z M663.47,2465.78L663.47,2465.78C663.48,2465.79,663.48,2465.79,663.47,2465.78z M634.44,2435.27l15.35,4.63
		c4.01,1.21,7.14,4.33,8.35,8.33l4.64,15.27l4.64-15.27c1.21-3.99,4.34-7.12,8.35-8.33l9.13-2.76l0.8-1.66
		c0.15-0.56,0.3-1.13,0.44-1.7l-10.37-3.14c-4-1.21-7.14-4.33-8.35-8.33l-4.64-15.31l-4.64,15.31c-1.21,4-4.35,7.12-8.35,8.33
		L634.44,2435.27z M632.13,2435.96L632.13,2435.96L632.13,2435.96z M632.1,2434.56l0.01,0L632.1,2434.56z M499.47,2351.1
		c-1.61-0.01-2.91-1.31-2.91-2.92c0-1.28,0.84-2.4,2.06-2.77l7.85-2.37c2.14-0.65,3.81-2.31,4.46-4.45l2.13-7.03
		c0.48-1.53,2.12-2.38,3.65-1.9c1.51,0.47,2.37,2.07,1.93,3.58l-2.13,7.04c-1.21,3.99-4.35,7.11-8.35,8.32l-7.85,2.37
		C500.03,2351.06,499.75,2351.1,499.47,2351.1L499.47,2351.1z M521.16,2389.08c-0.49,0-0.97-0.07-1.44-0.21
		c-1.66-0.48-2.97-1.78-3.45-3.44l-5.33-17.55c-0.55-1.81-1.86-3.31-3.58-4.11c-1.46-0.68-2.09-2.4-1.42-3.86
		c0.68-1.46,2.41-2.09,3.87-1.41c3.23,1.5,5.67,4.29,6.7,7.69l4.64,15.27l4.65-15.27c1.2-4,4.34-7.12,8.34-8.32l15.31-4.64
		l-15.31-4.63c-4-1.2-7.13-4.33-8.34-8.32l-2.47-8.16c-0.45-1.54,0.44-3.15,1.99-3.6c1.52-0.44,3.11,0.41,3.59,1.92l2.48,8.16
		c0.64,2.13,2.32,3.8,4.45,4.44l17.61,5.32c2.67,0.78,4.22,3.61,3.43,6.3c-0.48,1.66-1.79,2.96-3.45,3.44l-17.59,5.33
		c-2.14,0.64-3.81,2.31-4.45,4.44l-5.35,17.57c-0.38,1.28-1.26,2.36-2.44,3C522.85,2388.86,522.01,2389.08,521.16,2389.08
		L521.16,2389.08z M520.45,2383.78l0,0.01L520.45,2383.78z M521.85,2383.75L521.85,2383.75L521.85,2383.75z M551.77,2353.94
		c0,0,0.01,0,0.01,0L551.77,2353.94z M551.76,2352.54l-0.01,0L551.76,2352.54z M396.87,2486.69c-0.5,0-0.99-0.07-1.48-0.22
		c-1.63-0.49-2.91-1.76-3.4-3.39l-5.35-17.57c-0.64-2.14-2.32-3.81-4.46-4.45l-17.61-5.32c-2.67-0.78-4.22-3.61-3.43-6.3
		c0.48-1.66,1.79-2.96,3.45-3.44l17.59-5.32c2.14-0.65,3.81-2.32,4.45-4.45l5.35-17.62c0.82-2.68,3.66-4.2,6.35-3.39
		c1.63,0.49,2.91,1.76,3.4,3.39l5.35,17.62c0.65,2.13,2.32,3.8,4.46,4.45l17.61,5.32c2.67,0.78,4.22,3.61,3.43,6.3
		c-0.49,1.66-1.79,2.96-3.45,3.44l-17.59,5.32c-2.14,0.65-3.81,2.32-4.45,4.45l-5.35,17.57c-0.39,1.29-1.28,2.37-2.47,3
		C398.53,2486.48,397.71,2486.69,396.87,2486.69L396.87,2486.69z M368.57,2450.87l15.31,4.63c4,1.21,7.14,4.34,8.34,8.33l4.64,15.25
		l4.64-15.26c1.21-3.99,4.34-7.11,8.34-8.33l15.31-4.63l-15.31-4.63c-4-1.21-7.13-4.34-8.34-8.33l-4.64-15.3l-4.64,15.3
		c-1.21,3.99-4.34,7.12-8.34,8.33L368.57,2450.87z M427.47,2451.57l0.01,0L427.47,2451.57z M366.27,2451.56l-0.01,0
		C366.27,2451.56,366.27,2451.56,366.27,2451.56z M427.46,2450.17l-0.01,0L427.46,2450.17z M366.24,2450.16l0.01,0
		C366.25,2450.17,366.24,2450.17,366.24,2450.16z M403.6,2392.2c-8.34,0-16.97-2.87-24.41-8.34c-8.14-5.98-21.78-20.27-21.63-48.86
		c0.01-1.6,1.31-2.89,2.91-2.89h0.02c1.61,0.01,2.91,1.32,2.9,2.92c0,0,0,0,0,0c-0.14,26.01,12,38.83,19.26,44.15
		c9.1,6.68,20.13,8.89,29.51,5.92c14.82-4.7,22.16-19.79,24.63-26.06c0.59-1.49,2.28-2.23,3.78-1.64s2.24,2.27,1.65,3.77
		c-2.77,7.05-11.08,24.02-28.29,29.48C410.61,2391.69,407.13,2392.2,403.6,2392.2L403.6,2392.2z"/>
</g>
<path class="st1" d="M360.51,2332.23c-1.45,31.05,34.06,57.16,61.46,37.99c0.37-0.26,0.74-0.52,1.09-0.78
	c11.86-8.88,25.32-15.84,45.74-8.55c14.4,5.14,35.17,15.05,39.56,1.3c3.04-9.53-20.76-22.11-37.98-32.01
	c28.46,2.56,65.74,5.87,67.71-6.85c1.96-12.72-24.96-17.67-61.9-20.71c41.09-3.75,63.27-0.07,63.65-12.55
	c0.63-20.55-83.97-17.86-112.93-9.1c0,0-6.95,1.91-32.3,7.52C368.66,2294.16,361.29,2315.94,360.51,2332.23z"/>
<path class="st4" d="M401.71,2379.7c-6.57,0-13.24-1.75-19.65-5.26c-15.42-8.46-25.25-25.47-24.46-42.34v0
	c0.56-11.69,5.21-39.63,36.37-46.46c24.91-5.51,32.09-7.46,32.16-7.48c24.8-7.5,93.64-11.08,111.64,2.67
	c4.25,3.25,5.05,6.86,4.98,9.33c-0.26,8.41-8.41,10.4-11.08,11.06c-5.49,1.34-13.27,1.8-23.01,2.27
	c16.65,2.84,25.88,6.58,30.01,11.8c2,2.53,2.77,5.38,2.3,8.48c-1.96,12.67-25.5,12.94-57.74,10.42
	c16.38,9.52,30.98,19.26,27.91,28.89c-1.13,3.55-3.26,6.09-6.31,7.57c-8.03,3.87-20.59-0.86-31.67-5.03
	c-1.85-0.7-3.64-1.37-5.35-1.98c-18.06-6.44-30.25-1.4-43.01,8.14c-0.32,0.24-0.65,0.47-0.98,0.71l-0.17,0.12
	C416.89,2377.32,409.37,2379.7,401.71,2379.7L401.71,2379.7z M363.42,2332.37c-0.69,14.7,7.93,29.56,21.45,36.98
	c11.85,6.5,24.76,5.95,35.43-1.51l0.16-0.11c0.29-0.21,0.58-0.41,0.86-0.62c12.34-9.23,26.75-16.71,48.47-8.97
	c1.74,0.62,3.56,1.31,5.44,2.02c9.49,3.57,21.3,8.02,27.07,5.24c1.6-0.77,2.64-2.07,3.29-4.1c2.08-6.52-19.47-18.81-32.35-26.15
	c-1.47-0.84-2.91-1.66-4.31-2.46c-1.39-0.8-1.87-2.58-1.07-3.97c0.57-0.98,1.66-1.55,2.79-1.44c13.54,1.22,30.38,2.74,43.43,2.3
	c17.58-0.59,20.79-4.45,21.14-6.7c0.23-1.48-0.13-2.74-1.11-3.99c-6.51-8.24-36.3-11.58-58.15-13.38c-1.6-0.13-2.8-1.53-2.67-3.13
	c0.12-1.41,1.23-2.53,2.64-2.66c11.37-1.04,21.11-1.5,29.7-1.91c21.57-1.02,31.12-1.73,31.31-7.83c0.02-0.6,0.07-2.42-2.7-4.53
	c-14.95-11.42-80.52-9.55-106.48-1.7c-0.36,0.1-7.38,2.01-32.52,7.57C368,2297.28,363.92,2322.02,363.42,2332.37L363.42,2332.37z"/>
<path class="st4" d="M289.14,2316.52c-1.61,0-2.92-1.31-2.91-2.91c0-0.06,0-0.12,0.01-0.19l3.83-57.93c0.1-1.6,1.49-2.81,3.1-2.71
	c0,0,0,0,0,0c1.61,0.11,2.82,1.49,2.72,3.09l0,0l-3.57,54.01l95.96-22.64c1.57-0.37,3.14,0.6,3.51,2.16c0.37,1.56-0.6,3.13-2.17,3.5
	l0,0l-99.8,23.54C289.59,2316.49,289.36,2316.52,289.14,2316.52L289.14,2316.52z M557.2,2713.12c-1.61,0-2.91-1.3-2.91-2.91
	c0-0.43,0.1-0.86,0.29-1.25l129.78-270.66c0,0,3.23-7.34,4.04-17.44c2.37-24-4.76-47.43-20.07-66.02
	c-15.31-18.6-36.95-30.14-60.96-32.49c-1.6-0.14-2.79-1.56-2.64-3.16c0.14-1.6,1.56-2.78,3.16-2.63c0.02,0,0.03,0,0.05,0
	c25.56,2.51,48.6,14.79,64.89,34.59s23.88,44.74,21.37,70.23c-0.88,11.11-4.4,19.04-4.55,19.37l-129.81,270.73
	C559.35,2712.47,558.32,2713.12,557.2,2713.12L557.2,2713.12z"/>
<path class="st1" d="M402.9,2028.31c2.98,33.01-16.85,64.65-48.83,74.5c-1.05,0.32-2.1,0.61-3.16,0.88l0.82,14.35l0.55,11.8
	c1.14,20.29-13.83,37.63-33.53,38.72c-15.12,0.86-28.52-8.06-34.52-21.47c-1.85-4.04-2.99-8.51-3.21-13.04l-7.69-74.98l-7.73-61.64
	l89.29-62.64l21.59,9.79l6.19,10.49c3.82,5.26,5.88,21.42,6.25,26.6c0.14,2.1,0.19,4.19,0.14,6.27"/>
<path class="st4" d="M316.71,2171.53c-15.11,0-28.75-8.94-35.15-23.25c-2.01-4.4-3.21-9.25-3.46-14l-7.68-74.91l-7.72-61.57
	c-0.13-1.07,0.33-2.12,1.22-2.74l89.29-62.64c0.85-0.59,1.94-0.69,2.88-0.27l21.59,9.79c0.55,0.25,1,0.66,1.31,1.17l6.12,10.38
	c5.04,7.16,6.69,27.78,6.71,27.98c0.14,2.15,0.19,4.34,0.15,6.53c-0.02,1.59-1.33,2.87-2.93,2.85c-0.01,0-0.03,0-0.04,0
	c-1.61-0.03-2.89-1.36-2.85-2.96c0,0,0,0,0,0c0.04-2.01,0-4.01-0.14-6.01c-0.45-6.44-2.65-20.9-5.7-25.09
	c-0.05-0.07-0.1-0.15-0.15-0.23l-5.72-9.7l-19.23-8.72l-86.5,60.68l7.51,59.9l7.7,75.05l0.01,0.15c0.2,4.05,1.22,8.19,2.95,11.98
	c5.72,12.8,18.17,20.55,31.7,19.78c8.73-0.48,16.73-4.44,22.54-11.15c5.83-6.74,8.76-15.43,8.25-24.5l-0.55-11.83l-0.82-14.32
	c-0.08-1.39,0.84-2.64,2.19-2.98c1.02-0.26,2.03-0.54,3.03-0.84c30.01-9.24,49.69-39.3,46.79-71.46c-0.1-1.6,1.11-2.99,2.72-3.09
	c1.55-0.1,2.91,1.03,3.09,2.57c3.15,34.88-18.25,67.49-50.88,77.54c-0.32,0.1-0.64,0.19-0.98,0.29l0.69,11.99l0.55,11.84
	c0.59,10.55-2.83,20.71-9.65,28.59c-6.85,7.92-16.31,12.59-26.63,13.16C318.17,2171.5,317.44,2171.53,316.71,2171.53L316.71,2171.53
	z"/>
<ellipse transform="matrix(0.9971 -0.0756 0.0756 0.9971 -150.8541 32.415)" class="st1" cx="352.88" cy="2009.48" rx="21.47" ry="22.12"/>
<path class="st4" d="M353.01,2034.5c-0.77,0-1.55-0.04-2.32-0.11c-13.38-1.29-23.29-13.5-22.1-27.22
	c0.59-6.79,3.75-12.88,8.91-17.16c4.96-4.12,11.2-6.05,17.57-5.43c13.38,1.29,23.29,13.5,22.1,27.22
	c-0.59,6.79-3.75,12.88-8.91,17.16C363.9,2032.57,358.56,2034.5,353.01,2034.5L353.01,2034.5z M352.76,1990.27
	c-4.2,0-8.24,1.46-11.54,4.2c-3.95,3.28-6.38,7.97-6.83,13.19c-0.92,10.56,6.65,19.95,16.86,20.94c4.81,0.46,9.53-1,13.28-4.12
	c3.95-3.28,6.38-7.97,6.83-13.2c0.91-10.56-6.65-19.95-16.86-20.94C353.92,1990.29,353.34,1990.27,352.76,1990.27z"/>
<path class="st4" d="M370.88,2000.42c-1.61,0-2.91-1.3-2.92-2.91c0-1.53,1.19-2.8,2.72-2.9l10.99-0.76c1.6-0.11,2.99,1.09,3.11,2.69
	c0,0,0,0.01,0,0.01c0.11,1.6-1.1,2.99-2.7,3.1l-10.99,0.76C371.02,2000.42,370.95,2000.42,370.88,2000.42z M322.47,2000
	c-1.61,0-2.91-1.3-2.92-2.91c0-1.53,1.19-2.8,2.72-2.9l13.18-0.92c1.6-0.13,3.01,1.06,3.14,2.66c0.13,1.6-1.06,3-2.66,3.14
	c-0.02,0-0.05,0-0.07,0.01l-13.18,0.92C322.61,2000,322.54,2000,322.47,2000z"/>
<path class="st4" d="M255.91,2001.3c2.27-0.56,3.85-0.59,6.78-0.44c12.69,0.62,20,11.78,22.14,14.46c0.02,0.02,0.93-1,0.96-1.01
	c21.47-9.44,81.45-65.68,83.17-67.3c0.02-0.02,0.06-0.02,0.08,0l13.59,11.3l6.31,5.25c0.05,0.04,0.12-0.01,0.11-0.07
	c-7.43-28.34-25.48-38.41-39.59-43.42c-33.99-12.08-71.37,5.6-83.48,39.51c-0.58,1.64-1.1,3.29-1.55,4.97
	c-0.01,0.03-0.04,0.05-0.08,0.05c-0.02-0.01-0.04-0.03-0.05-0.05c-5.5-25.81-28.48-45.18-56-45.18h-32.28
	c-32.23,0-58.83,26.13-58.19,58.27c0.62,31,26.01,55.94,57.24,55.94h33.23c7.49,0,14.64-1.43,21.19-4.04
	c0.02-0.01,0.04-0.03,0.04-0.05c0.36-2.86,1.78-10.98,8.55-18.26C244.97,2003.84,253.13,2001.85,255.91,2001.3z"/>
<path class="st1" d="M287.12,2028.51c-1.49-14.06-13.15-25.27-27.73-25.83c-16.01-0.61-29.48,11.83-30.09,27.8
	c-0.61,15.97,11.86,29.4,27.87,30.02c6.18,0.24,12.28-1.5,17.39-4.97"/>
<path class="st4" d="M258.31,2063.43c-0.42,0-0.84-0.01-1.25-0.02c-17.59-0.67-31.34-15.49-30.67-33.03
	c0.33-8.5,3.95-16.36,10.21-22.14c6.26-5.78,14.39-8.78,22.91-8.45c15.74,0.6,28.86,12.82,30.51,28.42c0.15,1.6-1.03,3.01-2.64,3.16
	c-1.57,0.14-2.97-0.99-3.16-2.55c-1.35-12.75-12.08-22.73-24.94-23.23c-6.96-0.27-13.61,2.19-18.73,6.91
	c-5.11,4.72-8.08,11.15-8.34,18.09c-0.55,14.34,10.69,26.45,25.07,27c5.56,0.23,11.05-1.34,15.65-4.47c1.33-0.9,3.14-0.55,4.05,0.77
	s0.56,3.14-0.78,4.04C270.87,2061.54,264.71,2063.43,258.31,2063.43L258.31,2063.43z M372.53,2059.88c-4.64,0-9.14-1.87-12.47-5.23
	l-0.56-0.6c-1.1-1.18-1.03-3.02,0.15-4.11c1.18-1.09,3.02-1.02,4.12,0.15l0.5,0.53c2.38,2.39,5.58,3.63,8.97,3.42
	c3.38-0.21,6.53-1.91,8.65-4.65l1.68-2.19c0.97-1.28,2.79-1.54,4.08-0.58c1.29,0.96,1.54,2.79,0.58,4.07
	c-0.01,0.01-0.02,0.02-0.03,0.03l-1.69,2.2c-3.15,4.09-7.85,6.6-12.91,6.92C373.25,2059.87,372.89,2059.88,372.53,2059.88z"/>
<path class="st4" d="M258.03,2047.07c-1.61,0-2.92-1.3-2.92-2.9c0-1.11,0.63-2.12,1.63-2.61l10.98-5.38l-19.03-5.15
	c-1.54-0.46-2.42-2.08-1.96-3.61c0.44-1.49,1.98-2.37,3.49-2l26.49,7.17c1.55,0.42,2.47,2.02,2.05,3.57
	c-0.22,0.81-0.78,1.48-1.53,1.85l-17.91,8.78C258.9,2046.97,258.47,2047.07,258.03,2047.07z"/>
<ellipse transform="matrix(0.9971 -0.0756 0.0756 0.9971 -151.1582 33.1572)" class="st4" cx="362.57" cy="2014.02" rx="5.05" ry="5.2"/>
<path class="st1" d="M379.91,2005.33c0.32-11.2,8.83-20.52,19.92-21.29c11.83-0.82,22.11,8.39,22.96,20.57s-8.05,22.73-19.87,23.55
	c-4.29,0.3-8.56-0.72-12.24-2.93"/>
<path class="st4" d="M401.45,2031.12c-4.32,0-8.56-1.18-12.26-3.4c-1.38-0.82-1.83-2.61-1-3.99c0.83-1.38,2.62-1.83,4-1
	c3.17,1.9,6.85,2.79,10.54,2.53c4.93-0.34,9.43-2.65,12.67-6.49c3.26-3.87,4.86-8.83,4.5-13.96c-0.36-5.14-2.63-9.83-6.4-13.2
	c-3.74-3.36-8.52-5.01-13.45-4.67c-9.53,0.66-16.93,8.61-17.21,18.47c-0.05,1.6-1.39,2.87-3,2.82c-1.61-0.05-2.88-1.38-2.83-2.99
	c0,0,0,0,0,0c0.37-12.87,10.1-23.23,22.63-24.11c6.51-0.45,12.82,1.73,17.75,6.15c4.9,4.39,7.86,10.47,8.32,17.12
	s-1.62,13.08-5.86,18.11c-4.27,5.06-10.2,8.09-16.72,8.54C402.56,2031.1,402,2031.12,401.45,2031.12L401.45,2031.12z"/>
<path class="st4" d="M381.43,2036.83c-1.61,0-2.91-1.3-2.91-2.91c0-0.79,0.32-1.54,0.88-2.09l10.69-10.34l-18.73-21.7
	c-1.05-1.22-0.91-3.05,0.31-4.1c1.22-1.05,3.06-0.91,4.11,0.31l0,0l20.52,23.77c1.01,1.17,0.93,2.91-0.18,3.98l-12.66,12.25
	C382.92,2036.54,382.19,2036.83,381.43,2036.83z"/>
<ellipse transform="matrix(0.9971 -0.0756 0.0756 0.9971 -150.7722 36.8074)" class="st4" cx="411" cy="2010.75" rx="5.05" ry="5.2"/>
<path class="st4" d="M779.71,2533.66c-0.5,0-0.99-0.07-1.48-0.22c-1.63-0.49-2.91-1.76-3.4-3.39l-5.35-17.62
	c-0.64-2.13-2.32-3.8-4.45-4.44l-17.66-5.33c-2.67-0.78-4.22-3.61-3.43-6.3c0.48-1.66,1.79-2.96,3.45-3.44l17.64-5.32
	c2.14-0.65,3.81-2.31,4.45-4.44l5.35-17.61c0.39-1.3,1.27-2.37,2.47-3.01c1.2-0.64,2.58-0.78,3.88-0.38
	c1.63,0.49,2.91,1.76,3.4,3.39l5.35,17.62c0.65,2.13,2.32,3.8,4.46,4.44l17.66,5.32c1.54,0.46,2.41,2.09,1.95,3.62
	s-2.09,2.41-3.63,1.94l-0.73-0.22c1.39,0.8,1.87,2.58,1.07,3.97c-0.37,0.64-0.97,1.12-1.68,1.33l-14.64,4.42
	c-2.14,0.64-3.81,2.31-4.45,4.44l-5.35,17.62c-0.39,1.29-1.28,2.37-2.47,3.01C781.37,2533.45,780.55,2533.66,779.71,2533.66
	L779.71,2533.66z M751.37,2497.79l15.35,4.64c4,1.2,7.14,4.33,8.34,8.32l4.64,15.3l4.64-15.3c1.21-3.99,4.34-7.12,8.34-8.32
	l14.64-4.42c0.34-0.1,0.69-0.14,1.03-0.12l-15.67-4.72c-4-1.21-7.13-4.33-8.34-8.32l-4.65-15.3l-4.64,15.3
	c-1.21,3.99-4.34,7.11-8.34,8.32L751.37,2497.79z M749.06,2498.49L749.06,2498.49L749.06,2498.49z M749.03,2497.09l0.01,0
	L749.03,2497.09z M420.99,2607.07c-0.49,0-0.98-0.07-1.47-0.22c-1.63-0.49-2.91-1.76-3.4-3.39l-5.35-17.62
	c-0.64-2.13-2.32-3.8-4.45-4.44c-1.54-0.47-2.41-2.09-1.95-3.62c0.47-1.54,2.09-2.41,3.63-1.94c4,1.2,7.14,4.33,8.34,8.32l4.64,15.3
	l4.64-15.3c1.21-3.99,4.34-7.12,8.34-8.32l15.35-4.64l-15.35-4.63c-4-1.21-7.13-4.33-8.34-8.32l-4.68-15.43
	c-0.45-1.54,0.44-3.15,1.99-3.6c1.52-0.44,3.11,0.41,3.59,1.92l4.68,15.42c0.65,2.13,2.32,3.8,4.46,4.44l17.66,5.32
	c2.67,0.78,4.22,3.61,3.43,6.3c-0.48,1.66-1.79,2.96-3.45,3.44l-17.64,5.33c-2.14,0.64-3.81,2.31-4.45,4.44l-5.35,17.62
	C425.22,2605.6,423.24,2607.06,420.99,2607.07L420.99,2607.07z M451.65,2571.9l0.01,0L451.65,2571.9z M451.64,2570.5l-0.01,0
	L451.64,2570.5z M721.33,2685.4c-0.83,0-1.62-0.35-2.17-0.97c-0.82-0.91-1.87-1.58-3.05-1.94l-17.66-5.33
	c-2.67-0.78-4.22-3.61-3.43-6.3c0.48-1.66,1.79-2.96,3.45-3.44l17.64-5.32c2.14-0.65,3.81-2.31,4.45-4.44l5.35-17.61
	c0.39-1.29,1.28-2.37,2.47-3.01c1.19-0.64,2.59-0.78,3.88-0.38c1.63,0.49,2.91,1.76,3.4,3.39l3.28,10.79
	c0.45,1.54-0.44,3.15-1.99,3.6c-1.52,0.44-3.11-0.41-3.59-1.92l-2.57-8.47l-4.64,15.3c-1.21,3.99-4.34,7.11-8.34,8.32l-15.35,4.63
	l15.35,4.64c2.2,0.66,4.17,1.92,5.71,3.63c1.07,1.2,0.97,3.04-0.23,4.1C722.74,2685.14,722.05,2685.4,721.33,2685.4L721.33,2685.4z
	 M700.15,2672.99L700.15,2672.99L700.15,2672.99z M700.12,2671.59l0.01,0L700.12,2671.59z"/>
<g transform="translate(300.0 190.0) rotate(0.0 11.5 11.5) translate(0.0 0.0) scale(0.34146920838529604 0.3413475808845355)">
	<path class="st1" d="M1161.34,4103.06l9.93,32.85c1.73,5.71,6.2,10.17,11.92,11.9l32.85,9.94c2.14,0.65,3.35,2.91,2.71,5.05
		c-0.39,1.3-1.41,2.31-2.71,2.71l-32.85,9.95c-5.71,1.72-10.18,6.19-11.92,11.9l-9.93,32.85c-0.63,2.15-2.88,3.38-5.03,2.74
		c-1.32-0.39-2.36-1.42-2.74-2.74l-9.94-32.85c-1.72-5.71-6.19-10.18-11.9-11.9l-32.85-9.95c-2.14-0.65-3.35-2.91-2.71-5.05
		c0.39-1.3,1.41-2.31,2.71-2.71l32.85-9.94c5.71-1.72,10.18-6.19,11.9-11.9l9.94-32.85c0.63-2.15,2.88-3.38,5.03-2.75
		C1159.91,4100.71,1160.95,4101.74,1161.34,4103.06z"/>
</g>
<g transform="translate(450.0 283.0) rotate(0.0 14.5 14.5) translate(0.0 0.0) scale(0.3953323518185288 0.39520305260288907)">
	<path class="st4" d="M877.81,4519.87l-0.01,0.02L877.81,4519.87z M880.52,4519.83l0.01,0.02L880.52,4519.83z M880.54,4405.85
		l-0.01,0.02L880.54,4405.85z"/>
</g>
<g transform="translate(232.0 108.0) rotate(0.0 13.5 13.5) translate(0.0 0.0) scale(0.3680680516931131 0.36794766966475884)">
	<path class="st1" d="M454.73,4337.66l9.93,32.85c1.73,5.71,6.2,10.17,11.92,11.9l32.85,9.94c2.14,0.65,3.35,2.91,2.71,5.05
		c-0.39,1.3-1.41,2.31-2.71,2.71l-32.85,9.94c-5.71,1.72-10.18,6.19-11.92,11.9l-9.93,32.85c-0.63,2.15-2.88,3.38-5.03,2.75
		c-1.32-0.39-2.36-1.42-2.74-2.75l-9.94-32.85c-1.72-5.71-6.19-10.18-11.9-11.9l-32.85-9.94c-2.14-0.65-3.35-2.91-2.71-5.05
		c0.39-1.3,1.41-2.31,2.71-2.71l32.85-9.94c5.71-1.72,10.18-6.19,11.9-11.9l9.94-32.85c0.63-2.15,2.88-3.38,5.03-2.75
		C453.31,4335.3,454.34,4336.33,454.73,4337.66z"/>
	<path class="st5" d="M450.86,4463.18c-0.9,0-1.81-0.13-2.7-0.39c-3.11-0.91-5.55-3.34-6.45-6.45l-9.93-32.8
		c-1.19-3.96-4.28-7.05-8.24-8.24l-32.85-9.95c-2.42-0.72-4.45-2.39-5.64-4.62c-1.2-2.22-1.46-4.84-0.72-7.25
		c0.92-3.05,3.31-5.44,6.36-6.36l32.84-9.94c3.96-1.19,7.05-4.28,8.24-8.24l9.95-32.85c1.47-5,6.77-7.89,11.81-6.41
		c3.1,0.9,5.53,3.33,6.45,6.43l9.92,32.83c1.2,3.96,4.3,7.05,8.26,8.24l32.85,9.94c2.42,0.73,4.45,2.39,5.64,4.62
		c1.2,2.22,1.46,4.84,0.72,7.26c-0.92,3.05-3.31,5.44-6.36,6.36l-32.84,9.94c-3.96,1.19-7.07,4.29-8.26,8.25l-9.92,32.84
		c-0.71,2.41-2.35,4.44-4.56,5.63C454.01,4462.77,452.45,4463.18,450.86,4463.18z M449.48,4453.23l-0.01,0.02L449.48,4453.23z
		 M452.19,4453.18l0.01,0.02L452.19,4453.18z M507.83,4397.58h0.02H507.83z M452.21,4339.2l-0.01,0.02L452.21,4339.2z"/>
</g>
<g transform="translate(377.0 381.0) rotate(0.0 28.0 33.5) scale(0.5186001500236148 0.5190378432815587)">
	<path class="st8" d="M556.47,3553.58c-5.35,6.07-12.91,9.76-20.99,10.25c-16.82,1.03-31.3-11.76-32.33-28.59
		c-1.03-16.82,11.76-31.3,28.59-32.33c14.72-0.91,27.65,8.78,31.34,22.49l-33.07,2.03L556.47,3553.58z"/>
	<path class="st1" d="M527.79,3526.66l80.91,78.74l85.95-79.45L527.79,3526.66z"/>
	<g>
		<path class="st4" d="M608.7,3610.88c-1.43,0-2.8-0.56-3.82-1.55l-80.91-78.74c-2.17-2.11-2.22-5.57-0.11-7.74
			c1.03-1.06,2.43-1.65,3.91-1.66l166.86-0.71h0.02c3.02,0,5.47,2.45,5.48,5.47c0,1.53-0.64,2.99-1.76,4.03l-85.95,79.45
			C611.41,3610.36,610.08,3610.88,608.7,3610.88z M541.21,3532.08l67.59,65.78l71.8-66.37L541.21,3532.08z"/>
		<path class="st4" d="M607.09,3738.39h-0.05c-3.02-0.02-5.45-2.5-5.43-5.52c0,0,0,0,0,0l1.08-127.58c0.02-3.02,2.48-5.45,5.49-5.43
			c0.01,0,0.02,0,0.03,0c3.02,0.03,5.45,2.5,5.43,5.52c0,0,0,0,0,0l-1.08,127.58C612.54,3735.97,610.1,3738.39,607.09,3738.39z"/>
		<path class="st4" d="M667.75,3738.39H546.47c-3.02,0-5.47-2.45-5.47-5.47c0-3.02,2.45-5.47,5.47-5.47h121.28
			c3.02,0,5.47,2.45,5.47,5.47C673.23,3735.94,670.77,3738.39,667.75,3738.39z"/>
	</g>
</g>
<g transform="translate(397.0 81.0) rotate(0.0 15.5 15.5) translate(0.0 0.0) scale(0.4602411069540947 0.4600771742356783)">
	<path class="st1" d="M1574.54,4918.6l9.93,32.85c1.73,5.71,6.2,10.17,11.92,11.9l32.85,9.94c2.14,0.65,3.35,2.91,2.71,5.05
		c-0.39,1.3-1.41,2.31-2.71,2.71l-32.85,9.94c-5.71,1.73-10.18,6.19-11.92,11.9l-9.93,32.85c-0.63,2.15-2.88,3.38-5.03,2.75
		c-1.32-0.39-2.36-1.42-2.74-2.75l-9.94-32.85c-1.72-5.71-6.19-10.18-11.9-11.9l-32.85-9.94c-2.14-0.65-3.35-2.91-2.71-5.05
		c0.39-1.3,1.41-2.31,2.71-2.71l32.85-9.94c5.71-1.72,10.18-6.19,11.9-11.9l9.94-32.85c0.63-2.15,2.88-3.38,5.03-2.75
		C1573.12,4916.24,1574.16,4917.27,1574.54,4918.6z"/>
</g>
<g transform="translate(397.0 81.0) rotate(0.0 15.5 15.5) translate(0.0 0.0) scale(0.4602411069540947 0.4600771742356783)">
	<path class="st7" d="M2601.39,6322.93l17.25,57.07c3.01,9.92,10.78,17.68,20.7,20.67l57.07,17.28c3.72,1.12,5.83,5.05,4.7,8.77
		c-0.68,2.25-2.45,4.02-4.7,4.7l-57.07,17.28c-9.92,3-17.69,10.75-20.7,20.67l-17.25,57.07c-1.1,3.73-5.01,5.87-8.74,4.77
		c-2.3-0.67-4.09-2.47-4.77-4.77l-17.28-57.07c-2.99-9.92-10.75-17.68-20.67-20.67l-57.07-17.28c-3.72-1.12-5.83-5.05-4.7-8.77
		c0.68-2.25,2.45-4.02,4.7-4.7l57.07-17.28c9.92-2.99,17.68-10.75,20.67-20.67l17.28-57.07c1.1-3.73,5.01-5.86,8.74-4.77
		C2598.92,6318.84,2600.71,6320.63,2601.39,6322.93z"/>
</g>
<g transform="translate(300.0 190.0) rotate(0.0 11.5 11.5) translate(0.0 0.0) scale(0.34146920838529604 0.3413475808845355)">
	<g>
		<path class="st7" d="M1311.91,8585.41l9.93,32.85c1.73,5.71,6.2,10.17,11.92,11.9l32.85,9.95c2.14,0.65,3.35,2.91,2.71,5.05
			c-0.39,1.3-1.41,2.31-2.71,2.71l-32.85,9.95c-5.71,1.72-10.18,6.19-11.92,11.9l-9.93,32.85c-0.63,2.15-2.88,3.38-5.03,2.75
			c-1.32-0.39-2.36-1.42-2.74-2.75l-9.94-32.85c-1.72-5.71-6.19-10.18-11.9-11.9l-32.85-9.95c-2.14-0.65-3.35-2.91-2.71-5.05
			c0.39-1.3,1.41-2.31,2.71-2.71l32.85-9.95c5.71-1.72,10.18-6.19,11.9-11.9l9.94-32.85c0.63-2.15,2.88-3.38,5.03-2.74
			C1310.49,8583.05,1311.52,8584.08,1311.91,8585.41z"/>
	</g>
</g>
<g transform="translate(174.0 179.0) rotate(0.0 -6.5 6.5) scale(-0.19300433517429777 0.19293558919560702)">
	<path class="st1" d="M-8471.25,5804.21l9.93,32.85c1.73,5.71,6.21,10.17,11.92,11.9l32.85,9.94c2.14,0.65,3.35,2.91,2.71,5.05
		c-0.39,1.3-1.41,2.31-2.71,2.71l-32.85,9.94c-5.71,1.72-10.18,6.19-11.92,11.9l-9.93,32.85c-0.63,2.15-2.88,3.38-5.03,2.74
		c-1.32-0.39-2.36-1.42-2.75-2.74l-9.94-32.85c-1.72-5.71-6.19-10.18-11.9-11.9l-32.85-9.94c-2.14-0.65-3.35-2.91-2.71-5.05
		c0.39-1.3,1.41-2.31,2.71-2.71l32.85-9.94c5.71-1.72,10.18-6.19,11.9-11.9l9.94-32.85c0.63-2.15,2.88-3.38,5.03-2.75
		C-8472.67,5801.85-8471.64,5802.88-8471.25,5804.21z"/>
</g>
<g transform="translate(174.0 179.0) rotate(0.0 -6.5 6.5) scale(-0.19300433517429777 0.19293558919560702)">
	<path class="st1" d="M-76.67,2379.17l16.07,53.18c2.81,9.24,10.05,16.47,19.29,19.26l53.18,16.1c3.47,1.05,5.43,4.71,4.38,8.18
		c-0.64,2.1-2.28,3.74-4.38,4.38l-53.18,16.1c-9.25,2.79-16.48,10.02-19.29,19.26l-16.07,53.18c-1.02,3.48-4.67,5.46-8.14,4.44
		c-2.14-0.63-3.82-2.3-4.44-4.44l-16.1-53.18c-2.79-9.24-10.02-16.48-19.26-19.26l-53.18-16.1c-3.47-1.05-5.43-4.71-4.38-8.18
		c0.64-2.1,2.28-3.74,4.38-4.38l53.18-16.1c9.24-2.79,16.48-10.02,19.26-19.26l16.1-53.18c1.02-3.48,4.67-5.46,8.14-4.44
		C-78.97,2375.36-77.3,2377.03-76.67,2379.17z"/>
</g>
<path class="st5" d="M1673.68,1930.41c0,0,38.47-27.43,53.96-25.47c15.48,1.96,60.19,16.05,65.46,46.09
	c5.27,30.05-1.33,34.05-1.33,34.05l-19.23-1.53l-16.61,5.7c0,0-2.77-23.21-23.28-26.03c-9.43-1.3-18.59-3.71-24.66-3.52
	c-11.3,0.36-12.47-21.84-12.47-21.84l-19.08,13.44l-9.25-10.49L1673.68,1930.41z"/>
<path class="st4" d="M1461.44,2302.48c-0.87,0-1.7-0.38-2.26-1.04l-61.43-71.32c-4.29-5.01-7.75-10.67-10.26-16.77l-46.26-72.63
	c-0.74-1.16-0.59-2.67,0.35-3.66l27.51-29.08c0.76-0.8,1.89-1.12,2.95-0.83l28.36,7.75c0.63,0.17,1.19,0.55,1.58,1.06l40.39,52.75
	c1,1.31,0.76,3.19-0.55,4.19c-1.31,1-3.18,0.76-4.19-0.55l-39.78-51.95l-25.66-7l-24.68,26.09l45.15,70.89
	c0.1,0.15,0.18,0.31,0.25,0.48c2.27,5.6,5.44,10.79,9.36,15.38l61.42,71.31c1.08,1.25,0.94,3.14-0.31,4.21
	C1462.85,2302.23,1462.16,2302.49,1461.44,2302.48L1461.44,2302.48z"/>
<polygon class="st1" points="1372.2,2113.4 1397.86,2120.4 1436.26,2170.54 1407.13,2229.88 1391.4,2207.8 1373.23,2207.92 
	1337.29,2149.37 1363.2,2122.92 "/>
<path class="st7" d="M661.33,2832.3c-1.61,0-2.92-1.3-2.92-2.9c0-0.07,0-0.14,0.01-0.21c1.73-24.28-15.11-47.39-40.03-54.95
	c-14.9-4.52-26.42-9.76-57.54-24.24c-20.78-9.67-35.28-23.29-43.1-40.46c-0.67-1.46-0.02-3.18,1.45-3.85
	c1.47-0.66,3.19-0.02,3.86,1.45c7.22,15.88,20.77,28.53,40.25,37.6c30.85,14.36,42.25,19.54,56.77,23.95
	c27.5,8.34,46.07,33.96,44.15,60.92C664.13,2831.12,662.86,2832.3,661.33,2832.3L661.33,2832.3z"/>
<path class="st4" d="M1441.31,2175.15c-0.91,0-1.77-0.41-2.33-1.12c-1.56-1.95-38.39-48.07-52.13-69.48
	c-8.77-13.67-5.34-24.95,1.56-29.64c5.66-3.85,12.49-2.85,16.24,2.38c2.49,3.48,8.59,9.18,15.65,15.78
	c12.4,11.6,27.83,26.03,38.13,41.14c0.93,1.36,0.58,3.22-0.78,4.15c-1.36,0.93-3.22,0.58-4.15-0.78
	c-9.93-14.57-25.09-28.75-37.28-40.14c-7.59-7.1-13.58-12.7-16.42-16.66c-2.11-2.95-5.64-2.54-8.03-0.92
	c-4.74,3.22-6.54,11.11,0.11,21.47c13.57,21.15,51.39,68.5,51.77,68.97c1.03,1.29,0.82,3.17-0.46,4.2
	C1442.65,2174.92,1441.99,2175.15,1441.31,2175.15L1441.31,2175.15z"/>
<path class="st4" d="M1347.05,2140.74c-0.24,0-0.47-0.03-0.7-0.08c-7.2-1.74-13-7.07-15.35-14.1c-2.98-9.06-1.31-19,4.45-26.59
	c1.32-1.73,2.62-3.46,3.91-5.21c11.51-15.49,23.42-31.51,44.12-19.76c1.75,1,3,2.7,3.43,4.67c0.52,2.17,2.12,8.79-13.15,32.02
	c-5.58,8.49-10.77,15.18-10.99,15.47c-1.01,1.3-2.89,1.54-4.19,0.52s-1.54-2.89-0.52-4.19c0.05-0.07,5.27-6.8,10.71-15.08
	c12.85-19.55,12.69-25.87,12.33-27.34c-0.04-0.36-0.25-0.69-0.57-0.87c-15.34-8.71-23.82,1.22-36.38,18.13
	c-1.31,1.77-2.63,3.53-3.96,5.28c-4.56,5.98-5.9,13.82-3.56,20.97c1.59,4.92,5.54,8.72,10.52,10.12l6.43-1.22
	c0.04-0.01,0.09-0.02,0.14-0.02l8.31-1.19c1.63-0.23,3.14,0.9,3.38,2.54c0.23,1.63-0.9,3.15-2.53,3.38l-8.24,1.18l-7.02,1.33
	C1347.42,2140.72,1347.23,2140.74,1347.05,2140.74L1347.05,2140.74z M1606.2,2267.9c-1.65,0-2.99-1.34-2.98-2.99
	c0-0.62,0.19-1.22,0.55-1.72c0.07-0.09,6.7-9.49,20.14-29.14c10.03-14.66,8.97-24.79,7.75-36.52c-0.36-3.42-0.72-6.95-0.85-10.76
	c-0.05-1.65,1.24-3.03,2.89-3.09c1.65-0.06,3.03,1.24,3.09,2.89c0.12,3.59,0.47,7.02,0.82,10.33c1.29,12.37,2.51,24.04-8.76,40.52
	c-13.47,19.69-20.12,29.12-20.19,29.21C1608.09,2267.43,1607.17,2267.9,1606.2,2267.9L1606.2,2267.9z M1563.03,2238.92
	c-0.92,0-1.78-0.42-2.35-1.14l-10.95-13.94c-1.02-1.3-0.79-3.18,0.5-4.2c1.3-1.02,3.17-0.79,4.19,0.5l10.95,13.95
	c1.02,1.3,0.79,3.18-0.5,4.2C1564.35,2238.7,1563.7,2238.92,1563.03,2238.92z"/>
<path class="st4" d="M1387.54,2214.09c-10.24,0-20.68-0.3-31.02-0.9c-5.2-0.34-10.13-2.44-13.98-5.96l-7.49-6.82
	c-9.17-8.34-10-22.48-1.87-31.84c1.08-1.25,2.97-1.38,4.21-0.29s1.38,2.97,0.29,4.22l0,0c-6,6.91-5.39,17.34,1.38,23.5l7.49,6.82
	c2.84,2.6,6.49,4.15,10.33,4.41c10.21,0.59,20.53,0.89,30.66,0.89c8.82,0,13.28-4.53,14.41-8.4c1.06-3.27-0.25-6.85-3.18-8.65
	c-1.39-0.89-1.8-2.73-0.91-4.13c0.89-1.39,2.73-1.8,4.12-0.91c0.01,0,0.01,0.01,0.02,0.01c5.17,3.23,7.5,9.55,5.68,15.37
	C1405.97,2207.26,1399.66,2214.09,1387.54,2214.09L1387.54,2214.09z"/>
<path class="st4" d="M1394.99,2192.04c-14.4,0.04-26.61-0.54-34.32-1c-5.68-0.34-11.08-2.61-15.31-6.44l-8.3-7.55
	c-10.18-9.27-10.92-25.03-1.66-35.22c3.9-4.29,9.17-7.08,14.9-7.9l13.05-1.86c1.63-0.23,3.14,0.9,3.38,2.54s-0.9,3.15-2.53,3.38
	l-13.05,1.86c-10.35,1.49-17.54,11.09-16.06,21.45c0.62,4.36,2.75,8.36,6,11.33l8.3,7.55c3.21,2.91,7.32,4.64,11.64,4.9
	c7.64,0.45,19.76,0.98,33.97,1c7.09,0,12.65-2.64,15.26-7.26c1.74-2.83,1.8-6.39,0.16-9.28c-2.05-3.4-6.35-5.18-12.14-5.02
	c-9.08,0.3-23.79-0.36-36.85-1c-1.65-0.08-2.92-1.48-2.84-3.13c0.08-1.65,1.48-2.92,3.13-2.84c12.95,0.63,27.51,1.28,36.38,1
	c7.93-0.22,14.28,2.66,17.43,7.91c2.77,4.73,2.74,10.6-0.08,15.3C1411.74,2188.29,1404.28,2192.04,1394.99,2192.04L1394.99,2192.04z
	"/>
<path class="st4" d="M1209.46,2690.06l-26.75,24.61l-51.1,73.55c-1.75,5.27-48.43,16.4-62.32,14.32
	c-15.24-2.27-51.87,1.55-64.26-1.55l-17.65,0.97c-1.22,0.26-2.43,0.59-3.61,1c-13.02,4.3-21.96,16.28-22.39,29.99l199.11-1.05
	l59.08-58.46v58.5h62.14l0.04-134.03"/>
<path class="st4" d="M1723.7,2147.33c-22.1-0.03-39.99-17.99-39.96-40.11c0-1.5,0.09-3.01,0.26-4.5l2.46-21.47
	c-0.33-0.12-0.65-0.24-0.96-0.36c-36.79-14.22-55.09-55.59-40.88-92.41c2.77-7.19,6.69-13.88,11.6-19.82
	c1.03-1.29,2.91-1.49,4.2-0.45c1.28,1.04,1.49,2.92,0.45,4.2c-0.02,0.02-0.03,0.04-0.05,0.06c-23.04,27.86-19.15,69.15,8.69,92.21
	c5.44,4.5,11.56,8.1,18.14,10.64c0.91,0.35,1.89,0.7,2.99,1.07c1.34,0.45,2.19,1.77,2.02,3.18l-2.73,23.85
	c-2.13,18.7,11.28,35.59,29.97,37.73c18.68,2.14,35.56-11.29,37.7-29.99l0,0l6.75-55.55c0.15-1.24,1.05-2.25,2.26-2.54l3.63-0.88
	l20.86-63.69c6.42-35.6-17.21-69.68-52.78-76.11c-27.82-5.03-55.71,8.38-69.18,33.26c-0.77,1.46-2.57,2.02-4.03,1.25
	c-1.46-0.77-2.02-2.58-1.25-4.04c0.01-0.02,0.02-0.04,0.03-0.06c18.78-34.72,62.13-47.62,96.81-28.82
	c27.2,14.74,41.83,45.34,36.24,75.79c-0.02,0.13-0.06,0.26-0.1,0.39l-21.44,65.47c-0.32,0.98-1.13,1.73-2.14,1.97l-3.24,0.78
	l-6.5,53.47c-0.55,4.95-2.03,9.75-4.36,14.16C1752.21,2139.13,1738.56,2147.34,1723.7,2147.33z"/>
<path class="st1" d="M1752.9,1994.51c14.82-12.9,37.27-11.34,50.16,3.49s11.33,37.3-3.49,50.2c-8.84,7.69-20.89,10.54-32.23,7.61"/>
<path class="st4" d="M1778.72,2033.25c-0.18,0-0.36-0.02-0.54-0.05l-15.98-2.9c-1.62-0.29-2.7-1.85-2.41-3.47
	c0.14-0.77,0.57-1.45,1.21-1.91l26.71-18.93c1.35-0.95,3.21-0.63,4.16,0.71s0.63,3.21-0.71,4.17l-20.91,14.81l8.99,1.63
	c1.62,0.29,2.7,1.85,2.41,3.47C1781.4,2032.22,1780.16,2033.25,1778.72,2033.25L1778.72,2033.25z"/>
<path class="st4" d="M1776.27,2059.93c-3.26,0-6.52-0.41-9.68-1.23c-1.6-0.39-2.58-2.01-2.19-3.61c0.39-1.6,2.01-2.58,3.61-2.19
	c0.02,0.01,0.05,0.01,0.07,0.02c17.42,4.52,35.21-5.94,39.73-23.38s-5.94-35.24-23.36-39.76c-10.41-2.7-21.49-0.09-29.6,6.98
	c-1.24,1.09-3.13,0.96-4.21-0.29s-0.96-3.13,0.29-4.22c16.05-14.01,40.4-12.34,54.4,3.73c13.99,16.06,12.33,40.44-3.72,54.44
	C1794.59,2056.56,1785.59,2059.93,1776.27,2059.93L1776.27,2059.93z"/>
<path class="st4" d="M1720.65,2020.35c-18.34,0-31.5-16.88-33.36-21.66c-2.89-7.49-4.04-13.8-3.51-19.3
	c0.01-0.06,0.01-0.12,0.02-0.18c0.05-0.29-0.11-0.58-0.39-0.7l-1.89-0.6c-0.29-0.06-0.59,0.08-0.73,0.35
	c-0.02,0.04-0.04,0.09-0.07,0.13c-2.73,4.81-7.3,9.31-13.97,13.75c-4.58,3.05-27.82,10-42.92-4.11
	c-11.64-10.88-13.68-21.4-13.33-28.3c0.46-9.25,5.53-18.2,13.89-24.56c4.92-3.74,11.43-5.12,18.82-3.98
	c14.3,2.21,28.5,12.88,35.15,22.29c0.53,0.71,1.02,1.44,1.47,2.2c1.05,1.86,2.75,3.27,4.77,3.95l6.78,2.14
	c2.01,0.6,4.16,0.44,6.06-0.45c0.83-0.37,1.68-0.71,2.54-1.02c10.83-3.87,28.61-4.43,41.6,2.01c6.71,3.33,11.25,8.22,13.13,14.13
	c3.17,10,2.17,20.23-2.76,28.06c-3.69,5.87-11.4,13.33-27.19,15.55C1723.4,2020.26,1722.02,2020.35,1720.65,2020.35z
	 M1689.71,1980.04c-0.41,4.47,0.64,10.02,3.14,16.49c0.82,2.11,13.08,20.1,31.07,17.62c10.69-1.51,18.64-5.94,22.96-12.82
	c3.99-6.34,4.76-14.75,2.12-23.07c-1.39-4.39-4.79-7.96-10.09-10.59c-9.98-4.95-25.87-5.69-36.95-1.73
	c-0.67,0.24-1.34,0.5-2.06,0.82c-3.22,1.49-6.88,1.75-10.28,0.72l-6.87-2.16c-3.41-1.13-6.28-3.48-8.06-6.6
	c-0.34-0.57-0.71-1.12-1.11-1.66c-0.03-0.03-0.05-0.07-0.07-0.1c-6.78-9.62-20.2-18.17-31.22-19.87c-5.84-0.9-10.65,0.05-14.3,2.83
	c-6.96,5.29-11.16,12.62-11.54,20.1c-0.41,8.09,3.55,16.26,11.44,23.63c13.06,12.2,33.74,4.71,35.54,3.5
	c5.77-3.84,9.82-7.77,12.06-11.68c1.45-2.76,4.61-4.14,7.61-3.34c0.04,0.01,0.09,0.02,0.13,0.04l2.06,0.66l0.1,0.04
	C1688.35,1973.94,1690.15,1976.93,1689.71,1980.04z"/>
<path class="st4" d="M1705.05,1963.23c-1.04,0-2.01-0.54-2.56-1.44c-1.79-2.96-3.16-5.68-4.9-9.13c-1.15-2.28-2.52-5-4.32-8.39
	c-7.13,4.96-13.01,8.46-17.52,10.42c-1.51,0.66-3.27-0.03-3.93-1.54c-0.66-1.51,0.03-3.27,1.54-3.93c4.7-2.05,11.16-6.01,19.2-11.76
	c1.34-0.96,3.21-0.65,4.17,0.69c0.07,0.1,0.14,0.2,0.19,0.31c2.66,4.9,4.51,8.57,6,11.52c1.68,3.33,3,5.96,4.67,8.72
	c0.86,1.41,0.41,3.25-1,4.11C1706.13,1963.08,1705.6,1963.23,1705.05,1963.23L1705.05,1963.23z M1711.45,2085.6
	c-4.62,0-9.24-0.43-13.78-1.29c-0.06-0.01-0.11-0.02-0.16-0.04l-7.8-1.93c-1.6-0.4-2.58-2.02-2.18-3.62c0.4-1.6,2.01-2.58,3.62-2.18
	l7.72,1.91c12.1,2.27,24.59,1.23,36.16-3.01c1.54-0.59,3.27,0.18,3.86,1.72c0.59,1.54-0.18,3.27-1.71,3.86
	c-0.03,0.01-0.06,0.02-0.09,0.03C1728.86,2084.06,1720.19,2085.6,1711.45,2085.6L1711.45,2085.6z M1674.71,2036.19
	c-9.74-0.01-17.63-7.92-17.62-17.67c0-1.2,0.12-2.39,0.37-3.56c0.34-1.62,1.92-2.65,3.53-2.32c0.05,0.01,0.1,0.02,0.14,0.03
	l28.32,7.36c1.6,0.41,2.55,2.05,2.14,3.64c-0.01,0.05-0.03,0.09-0.04,0.14C1689.23,2031.17,1682.42,2036.18,1674.71,2036.19z
	 M1663.08,2019.35c0.45,6.43,6.03,11.28,12.46,10.83c3.64-0.26,6.96-2.21,8.96-5.27L1663.08,2019.35z M1782.37,1989.26
	c-0.28,0-0.57-0.04-0.84-0.12l-30.52-8.91c-1.59-0.44-2.52-2.08-2.08-3.68s2.08-2.53,3.67-2.09c0.03,0.01,0.06,0.02,0.09,0.03
	l30.52,8.91c1.58,0.46,2.49,2.12,2.03,3.71C1784.87,1988.38,1783.7,1989.26,1782.37,1989.26L1782.37,1989.26z"/>
<path class="st4" d="M1755.53,2284.34c-0.07,0-0.14,0-0.21-0.01l-35.07-2.42c-1.65-0.11-2.89-1.54-2.77-3.19
	c0.11-1.65,1.54-2.89,3.18-2.78l0,0l30.18,2.08l-35.23-81.8c-0.65-1.52,0.05-3.27,1.56-3.93s3.27,0.05,3.92,1.56l0,0l37.17,86.3
	c0.65,1.52-0.05,3.27-1.56,3.93C1756.33,2284.25,1755.93,2284.34,1755.53,2284.34L1755.53,2284.34z"/>
<path class="st4" d="M1851.96,2436.92c-5.9,0-11.78-0.84-17.45-2.5l-135.85-36.09c-1.59-0.42-2.54-2.06-2.12-3.66
	s2.06-2.55,3.65-2.12l0,0l135.92,36.11c5.15,1.51,10.48,2.28,15.84,2.28c1.54,0,3.09-0.07,4.61-0.2
	c14.85-1.18,28.6-8.26,38.21-19.65c6.69-7.9,10.12-17.77,10.18-29.35c0.05-10.29-2.6-21.41-7.66-32.16l-61.84-128.99
	c-1.53-2.8-44.96-82.24-48.25-88.33c-5.69-10.55-15.06-19.25-27.09-25.17c-1.52-0.64-2.24-2.39-1.6-3.91
	c0.64-1.52,2.38-2.24,3.91-1.6c0.11,0.05,0.22,0.1,0.33,0.16c13.15,6.47,23.42,16.04,29.71,27.69c3.32,6.15,47.82,87.55,48.27,88.37
	c0.03,0.05,0.05,0.1,0.07,0.14l61.88,129.08c5.46,11.57,8.31,23.58,8.25,34.76c-0.07,12.84-4.08,24.32-11.6,33.19
	c-10.62,12.6-25.84,20.43-42.26,21.74C1855.37,2436.85,1853.66,2436.92,1851.96,2436.92L1851.96,2436.92z"/>
<path class="st4" d="M1554.38,2227.37h-0.05c-0.83-0.01-1.61-0.37-2.16-0.99l-70.66-78.48c-5.97-6.88-13.51-12.2-21.99-15.53
	c-1.54-0.58-2.32-2.31-1.74-3.85s2.31-2.32,3.85-1.74c0.02,0.01,0.04,0.02,0.06,0.02c9.36,3.67,17.69,9.55,24.29,17.13l68.48,76.06
	l7.41-7.66l52.35-54.32l31.85-32.99c10.88-10.89,23.31-18.52,40.33-24.77c1.55-0.57,3.26,0.23,3.83,1.78
	c0.57,1.55-0.23,3.27-1.77,3.84c-16.17,5.94-27.93,13.14-38.13,23.35l-31.81,32.95l-52.35,54.32l-9.64,9.96
	C1555.97,2227.04,1555.19,2227.37,1554.38,2227.37L1554.38,2227.37z"/>
<g>
	<line class="st82" x1="838.19" y1="2832.96" x2="0" y2="2832.96"/>
	<line class="st82" x1="2000" y1="2832.96" x2="875.85" y2="2832.96"/>
</g>
</svg>
