<?xml version="1.0" encoding="utf-8"?>
<!-- Generator: Adobe Illustrator 26.1.0, SVG Export Plug-In . SVG Version: 6.00 Build 0)  -->
<svg version="1.1" id="Layer_1" xmlns="http://www.w3.org/2000/svg" xmlns:xlink="http://www.w3.org/1999/xlink" x="0px" y="0px"
	 viewBox="0 0 2000 3200" style="enable-background:new 0 0 2000 3200;" xml:space="preserve">
<style type="text/css">
	.st0{fill:#70D9D9;}
	.st1{fill:#FFFFFF;}
	.st2{fill:#FF7F36;}
	.st3{fill:#007575;}
	.st4{fill:#222433;}
	.st5{fill:#FF7F36;stroke:#FF7F36;stroke-miterlimit:10;}
	.st6{fill:#15C2C1;}
	.st7{fill:#FDA979;}
	.st8{fill:#C35515;}
	.st9{fill:none;stroke:#5A38FD;stroke-width:111.9047;stroke-miterlimit:10;}
	.st10{fill:none;stroke:#FF7F36;stroke-width:111.9047;stroke-miterlimit:10;}
	.st11{fill:none;stroke:#FFFFFF;stroke-width:9.2351;stroke-miterlimit:10;stroke-dasharray:23.0877,36.9403;}
	.st12{fill:none;stroke:#313341;stroke-width:3.8308;stroke-miterlimit:10;}
	.st13{fill:none;}
	.st14{opacity:0.75;fill:#70D9D9;}
	.st15{fill:#5A38FD;}
	.st16{fill:none;stroke:#222433;stroke-width:8.5039;stroke-miterlimit:10;stroke-dasharray:14.1732,14.1732;}
	.st17{fill:#7057FD;}
	.st18{fill:none;stroke:#222433;stroke-width:5.4074;stroke-miterlimit:10;}
	.st19{fill:#222433;stroke:#222433;stroke-width:5.4303;stroke-miterlimit:10;}
	.st20{fill:#2B292D;}
	.st21{fill:none;stroke:#C35515;stroke-width:9.9101;stroke-miterlimit:10;}
	.st22{fill:none;stroke:#C35515;stroke-width:5.6693;stroke-miterlimit:10;}
	.st23{fill:#C35515;stroke:#000000;stroke-miterlimit:10;}
	.st24{fill:#C35515;stroke:#000000;stroke-width:0.6042;stroke-miterlimit:10;}
	.st25{fill:#15C2C1;stroke:#222433;stroke-width:6.1644;stroke-miterlimit:10;}
	.st26{fill:#FFFFFF;stroke:#000000;stroke-width:6.1644;stroke-miterlimit:10;}
	.st27{fill:none;stroke:#007575;stroke-width:6.1644;stroke-miterlimit:10;}
	.st28{fill:none;stroke:#FFFFFF;stroke-width:14.1732;stroke-miterlimit:10;stroke-dasharray:23.0877,36.9403;}
	.st29{fill-rule:evenodd;clip-rule:evenodd;fill:#FDA979;}
	.st30{fill-rule:evenodd;clip-rule:evenodd;fill:#FFFFFF;}
	.st31{fill-rule:evenodd;clip-rule:evenodd;fill:#007575;}
	.st32{fill:#606060;}
	.st33{clip-path:url(#SVGID_00000165193199120500371110000003129609897037792690_);}
	.st34{fill:#222433;stroke:#222433;stroke-width:1.0471;stroke-miterlimit:10;}
	.st35{fill:#222433;stroke:#222433;stroke-width:2.2688;stroke-miterlimit:10;}
	.st36{fill:#82B1FF;}
	.st37{fill:#15C2C1;stroke:#70D9D9;stroke-width:15.652;stroke-miterlimit:10;}
	.st38{stroke:#222433;stroke-width:0.8333;stroke-miterlimit:10;}
	.st39{clip-path:url(#SVGID_00000023971029224730944020000013765142702415356336_);}
	.st40{clip-path:url(#SVGID_00000023971029224730944020000013765142702415356336_);fill:#FF7F36;}
	.st41{clip-path:url(#SVGID_00000023971029224730944020000013765142702415356336_);fill:#C35515;}
	.st42{fill:#222433;stroke:#222433;stroke-width:0.791;stroke-miterlimit:10;}
	.st43{fill-rule:evenodd;clip-rule:evenodd;fill:#FF7F36;}
	.st44{fill-rule:evenodd;clip-rule:evenodd;fill:#15C2C1;}
	.st45{fill:none;stroke:#FF7F36;stroke-width:11.3386;stroke-miterlimit:10;}
	.st46{fill:none;stroke:#FF7F36;stroke-width:9.6934;stroke-miterlimit:10;}
	.st47{opacity:0.44;fill:#FDA979;}
	.st48{fill:none;stroke:#70D9D9;stroke-width:8.5039;stroke-miterlimit:10;stroke-dasharray:11.5087,11.5098;}
	.st49{opacity:0.75;fill:#007575;}
	.st50{clip-path:url(#SVGID_00000106121108169687165460000011506913583262189192_);}
	.st51{fill:none;stroke:#FF7F36;stroke-miterlimit:10;}
	.st52{clip-path:url(#SVGID_00000149382293769971093180000012026114593998978177_);}
	.st53{stroke:#70D9D9;stroke-width:8.5039;stroke-miterlimit:10;}
	.st54{fill:#FDA979;stroke:#222433;stroke-width:17.0079;stroke-miterlimit:10;}
	.st55{clip-path:url(#SVGID_00000003810201494343509310000008085009558637655983_);}
	.st56{fill:none;stroke:#222433;stroke-width:16.1222;stroke-linecap:round;stroke-miterlimit:10;}
	.st57{clip-path:url(#SVGID_00000012434614172363580130000017862893634704904586_);fill:#15C2C1;}
	.st58{clip-path:url(#SVGID_00000012434614172363580130000017862893634704904586_);fill:#C35515;}
	
		.st59{clip-path:url(#SVGID_00000012434614172363580130000017862893634704904586_);fill:#15C2C1;stroke:#000000;stroke-width:8.2755;stroke-miterlimit:10;}
	.st60{clip-path:url(#SVGID_00000012434614172363580130000017862893634704904586_);fill:#FF7F36;}
	
		.st61{clip-path:url(#SVGID_00000012434614172363580130000017862893634704904586_);fill:#15C2C1;stroke:#000000;stroke-width:8.5039;stroke-miterlimit:10;}
	
		.st62{clip-path:url(#SVGID_00000012434614172363580130000017862893634704904586_);fill:none;stroke:#000000;stroke-width:8.5039;stroke-miterlimit:10;}
	
		.st63{clip-path:url(#SVGID_00000012434614172363580130000017862893634704904586_);fill:#FFFFFF;stroke:#000000;stroke-width:8.5039;stroke-miterlimit:10;}
	.st64{clip-path:url(#SVGID_00000012434614172363580130000017862893634704904586_);}
	.st65{fill:none;stroke:#000000;stroke-width:8.2815;stroke-linecap:round;stroke-miterlimit:10;}
	
		.st66{clip-path:url(#SVGID_00000012434614172363580130000017862893634704904586_);fill:#FFFFFF;stroke:#000000;stroke-width:8.7446;stroke-miterlimit:10;}
	.st67{clip-path:url(#SVGID_00000012434614172363580130000017862893634704904586_);fill:none;}
	.st68{clip-path:url(#SVGID_00000062904202120733827220000014756750505659198894_);fill:#FF7F36;}
	.st69{clip-path:url(#SVGID_00000062904202120733827220000014756750505659198894_);}
	
		.st70{clip-path:url(#SVGID_00000062904202120733827220000014756750505659198894_);fill:none;stroke:#5A38FD;stroke-width:111.9047;stroke-miterlimit:10;}
	.st71{clip-path:url(#SVGID_00000181045060705870133190000008516921419897055672_);}
	
		.st72{opacity:0.57;clip-path:url(#SVGID_00000181045060705870133190000008516921419897055672_);fill:none;stroke:#FFFFFF;stroke-width:32.7065;stroke-linecap:round;stroke-miterlimit:10;}
	.st73{fill:#222433;stroke:#000000;stroke-width:7.0866;stroke-miterlimit:10;}
	
		.st74{clip-path:url(#SVGID_00000181045060705870133190000008516921419897055672_);fill:#222433;stroke:#222433;stroke-width:163.17;stroke-miterlimit:10;}
	.st75{fill:none;stroke:#000000;stroke-width:7.0866;stroke-miterlimit:10;}
	
		.st76{clip-path:url(#SVGID_00000181045060705870133190000008516921419897055672_);fill:#70D9D9;stroke:#000000;stroke-width:2.8346;stroke-linecap:round;stroke-miterlimit:10;}
	.st77{clip-path:url(#SVGID_00000124870422868589586920000008625082886461334413_);fill:#FFFFFF;}
	.st78{clip-path:url(#SVGID_00000124870422868589586920000008625082886461334413_);fill:#222433;}
	.st79{clip-path:url(#SVGID_00000124870422868589586920000008625082886461334413_);fill:#15C2C1;}
	.st80{clip-path:url(#SVGID_00000124870422868589586920000008625082886461334413_);fill:#FDA979;}
	.st81{clip-path:url(#SVGID_00000124870422868589586920000008625082886461334413_);}
	.st82{clip-path:url(#SVGID_00000124870422868589586920000008625082886461334413_);fill:#FF7F36;}
	.st83{clip-path:url(#SVGID_00000124870422868589586920000008625082886461334413_);fill:#C35515;}
	.st84{clip-path:url(#SVGID_00000017474019508223447020000010779023028029769376_);}
</style>
<path class="st3" d="M203.83,845.35l81.93,141.73c39.33,68.41-9.83,153.61-88.89,153.61c-78.65,0-128.21-85.2-88.89-153.61
	l81.93-141.73C193.18,840.03,200.55,840.03,203.83,845.35L203.83,845.35z"/>
<path class="st6" d="M1818.19,1413.89l63.29,109.48c30.38,52.84-7.59,118.66-68.67,118.66c-60.75,0-99.04-65.82-68.67-118.66
	l63.29-109.48C1809.96,1409.78,1815.66,1409.78,1818.19,1413.89L1818.19,1413.89z"/>
<path class="st6" d="M1209.79,1568.75l25.26,43.7c12.13,21.09-3.03,47.37-27.41,47.37c-24.25,0-39.54-26.27-27.41-47.37l25.26-43.7
	C1206.51,1567.1,1208.78,1567.1,1209.79,1568.75L1209.79,1568.75z"/>
<path class="st6" d="M1814.97,2892.53l25.26,43.71c12.13,21.09-3.03,47.37-27.41,47.37c-24.25,0-39.54-26.27-27.41-47.37
	l25.26-43.71C1811.69,2890.89,1813.96,2890.89,1814.97,2892.53L1814.97,2892.53z"/>
<path class="st6" d="M626.86,124.44l28.88,49.97c13.86,24.12-3.47,54.15-31.34,54.15c-27.73,0-45.2-30.04-31.34-54.15l28.88-49.97
	C623.11,122.57,625.71,122.57,626.86,124.44L626.86,124.44z"/>
<path class="st3" d="M1668.92,147.91l52.52,90.86c25.21,43.86-6.3,98.48-56.99,98.48c-50.42,0-82.2-54.62-56.99-98.48l52.52-90.86
	C1662.1,144.5,1666.82,144.5,1668.92,147.91L1668.92,147.91z"/>
<path class="st3" d="M1586.19,2145.82l112,193.76c53.76,93.52-13.44,210-121.52,210c-107.52,0-175.28-116.48-121.52-210l112-193.76
	C1571.63,2138.54,1581.71,2138.54,1586.19,2145.82L1586.19,2145.82z"/>
<g>
	<defs>
		<rect id="SVGID_00000022538506633300749040000009408802407362502806_" y="1492.37" width="1764.87" height="1705.19"/>
	</defs>
	<clipPath id="SVGID_00000136410212403900910700000003668979970840648634_">
		<use xlink:href="#SVGID_00000022538506633300749040000009408802407362502806_"  style="overflow:visible;"/>
	</clipPath>
	<g style="clip-path:url(#SVGID_00000136410212403900910700000003668979970840648634_);">
		<rect x="498.32" y="1860.99" class="st1" width="360.8" height="526.4"/>
		<g>
			<path class="st15" d="M954.21,2157.3c0,1.23-0.09,2.47-0.28,3.65h-48.08c-0.19-1.19-0.28-2.42-0.28-3.65
				c0-1.85,0.21-3.68,0.62-5.41c0,0,0.98-3.26,1.41-4.3c4.65-11.29,21.9-43.64,21.9-43.64s17.15,31.15,21.91,42
				c0.69,1.57,2.32,6.44,2.32,6.44c0,0.02,0,0.05,0,0.05C954.04,2154,954.21,2155.64,954.21,2157.3z"/>
			<path class="st15" d="M954.21,2157.3c0,1.23-0.09,2.47-0.28,3.65c-1.75,11.69-11.86,20.65-24.04,20.65
				c-12.21,0-22.29-8.96-24.04-20.65c-0.19-1.19-0.28-2.42-0.28-3.65c0-1.85,0.21-3.68,0.62-5.41c0.83-3.7,2.51-7.09,4.84-9.93
				c4.43-5.48,11.24-8.99,18.87-8.99c7.25,0,13.77,3.18,18.21,8.23c2.77,3.13,4.77,6.97,5.62,11.19c0,0.02,0,0.05,0,0.05
				C954.04,2154,954.21,2155.64,954.21,2157.3z"/>
		</g>
		<path class="st6" d="M50.13,3226.31c-41.24-38.39-63.62-95.59-55-155.49l25.52-177.48c7.15-49.73,35.05-94.14,76.82-122.27
			l402.79-269.05c17.7-12.92,36.77-23.98,62.53-32.56l236.55-0.32c56.59,22.43,99.09,61.88,128.31,107.75l-0.01,0.01l239.11,337.03"
			/>
		<path class="st4" d="M50.13,3235.21c-2.26,0-4.44-0.86-6.09-2.4c-44.85-41.75-66.44-102.79-57.75-163.26l25.52-177.48
			c7.49-52.11,36.89-98.9,80.66-128.38l402.67-268.97c21.16-15.43,41.16-25.83,64.83-33.71c0.91-0.3,1.86-0.46,2.82-0.46
			l236.55-0.32h0.01c1.13,0,2.25,0.21,3.3,0.63c53.98,21.39,99.81,59.86,132.55,111.25l0.04,0.07l238.81,336.6
			c2.85,4.02,1.89,9.57-2.14,12.41c-4.03,2.84-9.6,1.88-12.45-2.13l-239.12-337.03c-0.19-0.26-0.36-0.53-0.52-0.82
			c-30.36-47.48-72.58-83.12-122.21-103.18l-233.36,0.31c-21.31,7.24-39.48,16.79-58.73,30.84c-0.1,0.07-0.2,0.15-0.31,0.21
			l-402.79,269.05c-39.57,26.65-66.17,68.99-72.95,116.14L3.97,3072.08c-7.87,54.72,11.67,109.94,52.26,147.72
			c3.6,3.36,3.8,8.99,0.43,12.58C54.97,3234.19,52.6,3235.21,50.13,3235.21L50.13,3235.21z"/>
		<path class="st2" d="M1401.46,3182.8c0.03-38.06-7.52-75.75-22.21-110.88c-61.4-147.33-231.62-217.42-379.44-156.21
			l-322.22,133.35c-3.8,1.57-5.6,5.91-4.02,9.69c0,0,0,0,0,0.01l147.38,353.27l0.15,489.66c0,4.1,3.34,7.42,7.45,7.42l565.71-0.18
			c4.11,0,7.44-3.31,7.44-7.4c0-0.01,0-0.01,0-0.02L1401.46,3182.8z"/>
		<path class="st2" d="M962.59,3182.81c0-61.75-20.35-123.04-57.31-172.6c-95.41-127.94-277.41-154.74-405.86-59.84l-213.7,127.32
			c0,0,10.29,97.39,9.52,129.95c-0.83,35.35-62.95,131.28-62.95,131.28c1.64,29.41,5.95,97.93,47.64,148.37
			c25.25,30.56,53.99,53.51,55.14,53.51h47.16v360.9c0,4.1,3.34,7.42,7.45,7.42l565.71-0.18c4.11,0,7.44-3.31,7.44-7.4
			c0-0.01,0-0.01,0-0.02L962.59,3182.81z"/>
		<path class="st2" d="M805.24,2418.96h141.27l-0.88-220.8v-160.24c0-148.67-122.76-269.19-274.2-269.19s-274.2,132.89-274.2,281.56
			v368.86l169.58-0.19v-52.01l-59.55-34.4v-326.91c0,0-3.06-50.13,18.73-49c21.79,1.13,124.76-43.03,124.76-43.03l32.45-28.89
			c0,0-1.1,31.72,71.64,55.34s84.93,6.76,95.37,41.02c10.44,34.27,8.93,210.4,8.93,210.4v109.26l-59.79,58.87l-3.03,57.68"/>
		<path class="st4" d="M397.22,2428.05c-4.93,0-8.93-3.98-8.93-8.89c0,0,0-0.01,0-0.01v-368.86
			c0-157.45,129.66-290.46,283.14-290.46c156.12,0,283.14,124.75,283.14,278.09v160.24l0.88,220.77c0.01,4.92-3.98,8.92-8.92,8.94
			c0,0-0.01,0-0.01,0H805.23c-4.93,0-8.93-3.99-8.93-8.9c0-4.92,4-8.9,8.93-8.9h132.3l-0.84-211.86v-160.28
			c0-143.52-119-260.29-265.27-260.29c-143.79,0-265.27,124.86-265.27,272.66v359.94l157.99-0.18h0.01c4.93,0,8.93,3.98,8.94,8.9
			c0,4.92-3.99,8.9-8.93,8.91L397.22,2428.05L397.22,2428.05L397.22,2428.05z"/>
		<path class="st1" d="M507.25,2317.65c10.98,17.62,41.43,43.07,59.55,49.3v112.93c0,64,52.05,115.88,116.27,115.88
			s116.27-51.88,116.27-115.88v-120.27c18.97-7.21,52.36-38.54,59.79-58.87"/>
		<path class="st4" d="M683.07,2604.66c-69.04,0-125.2-55.97-125.2-124.78v-107c-19.71-9.36-47.22-32.9-58.21-50.53
			c-2.56-4.2-1.22-9.68,3-12.23c4.16-2.52,9.57-1.26,12.18,2.84c10.1,16.21,38.82,40.06,54.87,45.58c3.6,1.24,6.02,4.62,6.02,8.42
			v112.93c0,58.99,48.15,106.98,107.34,106.98s107.34-47.99,107.34-106.98v-120.27c0-3.69,2.29-7,5.75-8.32
			c16.42-6.24,47.98-35.54,54.57-53.59c1.69-4.62,6.81-7,11.45-5.32s7.03,6.79,5.34,11.41l0,0c-7.71,21.13-38.27,50.57-59.25,61.52
			v114.57C808.27,2548.69,752.1,2604.66,683.07,2604.66L683.07,2604.66z"/>
		<g>
			<ellipse class="st4" cx="586" cy="2071.95" rx="22.27" ry="22.2"/>
			<ellipse class="st4" cx="777.09" cy="2071.95" rx="22.27" ry="22.2"/>
			<path class="st4" d="M666.04,2158.48c-4.93,0.01-8.94-3.97-8.95-8.89c-0.01-3.67,2.25-6.96,5.67-8.3l41.7-16.36l-30.19-66.46
				c-2.03-4.48-0.04-9.75,4.45-11.78c4.49-2.03,9.79-0.04,11.82,4.44l0,0l34.06,74.99c2.03,4.48,0.04,9.75-4.45,11.78
				c-0.14,0.06-0.27,0.12-0.41,0.17l-50.44,19.79C668.27,2158.27,667.16,2158.48,666.04,2158.48L666.04,2158.48z M819.27,2003.34
				c-0.44,0-0.89-0.03-1.34-0.1l-65.92-9.88c-4.86-0.83-8.13-5.44-7.29-10.29c0.81-4.7,5.2-7.93,9.95-7.32l65.92,9.88
				c4.88,0.74,8.23,5.28,7.49,10.14C827.41,2000.11,823.67,2003.33,819.27,2003.34z M546.9,2003.34c-4.93,0-8.93-3.99-8.93-8.91
				c0-4.41,3.24-8.15,7.61-8.8l65.92-9.88c4.88-0.73,9.43,2.62,10.16,7.48c0.73,4.86-2.63,9.4-7.51,10.13l-65.92,9.88
				C547.8,2003.31,547.35,2003.34,546.9,2003.34z M955.39,4156.72c-4.93,0-8.93-3.98-8.94-8.9c0,0,0,0,0,0l-0.24-965.01
				c-0.02-76.03-32.21-149.18-88.32-200.7c-3.61-3.35-3.81-8.99-0.44-12.58c3.34-3.57,8.93-3.8,12.55-0.51
				c59.76,54.88,94.05,132.8,94.08,213.79l0.24,965.01C964.32,4152.73,960.32,4156.72,955.39,4156.72L955.39,4156.72L955.39,4156.72
				z"/>
		</g>
		<path class="st1" d="M82.94,3009.54c-38.27,32.05-53.71,83.73-39.27,131.43c19.23,60.3,23.4,56.86-7.95,111.58
			c-22.39,39.17-67.65,90.27-31.14,112.35c25.34,15.28,78.04-44.19,118.44-86.65c-27.03,79.76-67.8,164.54-32.33,178.82
			c35.46,14.27,73.54-39.59,107.84-143.18c-17.6,120.18-43.53,181.01-7.86,190.87c58.83,16.02,109.45-228.02,104.21-316.98
			c-3.96-67.95,2.5-66.97-11.2-137.21C267.06,2964.7,133.35,2967.67,82.94,3009.54L82.94,3009.54z"/>
		<path class="st4" d="M196.16,3514.38c-2.96,0-5.6-0.44-7.85-1.05c-24.27-6.7-24.38-31.56-24.41-39.73
			c-0.08-18.21,4.75-43.46,10.88-75.42l0.28-1.48c-18,36.17-36.47,58.75-55.22,67.41c-10.95,5.06-21.89,5.46-32.5,1.19
			c-36.7-14.77-14.63-74.84,10.92-144.4l2.19-5.96c-38.01,39.38-75.24,72.78-100.49,57.55c-9.2-5.56-14.95-13.11-17.11-22.44
			c-5.33-23.06,12.9-51.25,30.53-78.51c5.33-8.25,10.37-16.03,14.59-23.42c26.35-45.99,26.35-45.99,12.37-88.54
			c-1.57-4.78-3.3-10.05-5.17-15.93c-15.53-51.29,0.99-106.56,42.04-140.94c0.01-0.01,0.02-0.01,0.03-0.02
			c35.47-29.46,104.15-39.27,153.09-21.87c34.4,12.24,55.89,35.76,62.14,68.04c9.29,47.64,9.46,63.09,9.74,88.69
			c0.13,12.15,0.3,27.28,1.6,49.69c4.5,76.43-32.75,276.1-84.85,318.2C210.45,3512.31,202.57,3514.38,196.16,3514.38L196.16,3514.38
			z M198.52,3304.97c4.93,0,8.93,3.98,8.94,8.9c0,0.43-0.03,0.86-0.09,1.29c-4.88,33.3-10.28,61.49-15.04,86.36
			c-11.92,62.19-16.46,89.89,0.73,94.64c1.64,0.45,6.75,1.84,14.64-4.54c43.15-34.87,82.96-223.66,78.27-303.34
			c-1.33-22.83-1.5-38.19-1.63-50.54c-0.27-24.59-0.43-39.43-9.41-85.5c-6.3-32.54-30.99-47.68-50.6-54.65
			c-42.89-15.25-105-6.66-135.63,18.77c-35.56,29.74-49.9,77.75-36.46,122.03c1.82,5.7,3.53,10.92,5.09,15.66
			c15.28,46.53,15.74,51.29-13.84,102.9c-4.46,7.8-9.62,15.79-15.09,24.24c-14.89,23.03-31.77,49.13-28.13,64.87
			c1.06,4.6,3.91,8.16,8.96,11.21c17.12,10.33,67.36-42.87,97.39-74.66c3.38-3.58,6.7-7.09,9.94-10.5c3.4-3.57,9.05-3.72,12.63-0.33
			c2.53,2.39,3.43,6.02,2.32,9.31c-5.2,15.34-10.92,30.9-16.44,45.95c-19.54,53.17-41.68,113.44-21.01,121.76
			c5.94,2.39,11.92,2.12,18.3-0.83c14.28-6.6,43.37-33.16,77.72-136.88C191.25,3307.44,194.67,3304.97,198.52,3304.97
			L198.52,3304.97z M389.55,3542.28c-4.93,0-8.93-3.99-8.93-8.9V3413.7c0-4.92,4-8.9,8.93-8.9c4.93,0,8.93,3.99,8.93,8.9v119.68
			C398.49,3538.3,394.49,3542.28,389.55,3542.28z M507.25,2423.71c-4.93,0-8.93-3.99-8.93-8.9v-433.25
			c-0.18-29.39,31.16-37.71,67.45-47.34c37.8-10.03,84.85-22.51,109.9-61.94c2.64-4.15,8.16-5.39,12.32-2.76
			c1.41,0.89,2.54,2.15,3.27,3.65c22.58,46.53,72.74,57.59,113.04,66.48c34.21,7.55,63.76,14.06,63.76,41.43v427.31
			c0,4.92-4,8.9-8.93,8.9s-8.93-3.99-8.93-8.9l0,0v-427.31c0-12.44-18.91-17.24-49.75-24.05c-38.3-8.45-89.59-19.76-118.14-63.52
			c-29.57,36.05-74.86,48.07-111.92,57.91c-33.65,8.93-54.28,15.16-54.19,30.08v433.3C516.18,2419.72,512.18,2423.71,507.25,2423.71
			L507.25,2423.71z"/>
		<path class="st56" d="M638.44,2249.52c0,0,20.86-25.62,59.99-16.49c26.97,6.3,29.53,25.25,29.53,25.25"/>
		<path class="st6" d="M166.7,1961.04l39.91,69.04c19.16,33.32-4.79,74.83-43.3,74.83c-38.31,0-62.46-41.51-43.3-74.83l39.91-69.04
			C161.51,1958.44,165.1,1958.44,166.7,1961.04L166.7,1961.04z"/>
		<path class="st1" d="M600.99,2833.34c0,0-132.1,30.9-137.6,51.23c-5.5,20.33-28.62,47.85,0,47.85c28.62,0,187.14-42.93,284.01-6.6
			s108.98,82.56,155.22,58.34s122.1-35.26,97.97-81.46s-69.35-73.75-108.98-80.36c-39.63-6.6-221.26,0-221.26,0L600.99,2833.34z"/>
		<path class="st4" d="M480.75,2941.23c-20.26,0-33.09-5.94-37.92-22.92c-1.93-6.84-2.22-17.48,7.35-29.43
			c39.72-49.62,229.57-86.45,302.41-82.78c71.26,3.59,108.86,7.76,118.68,8.96c0.21,0.02,0.41,0.06,0.62,0.1l28.97,5.58
			c52.83,10.5,95.65,49,111.55,100.31c1.46,4.7-1.18,9.68-5.89,11.14s-9.72-1.18-11.17-5.87c-13.96-45.05-51.54-78.86-97.93-88.1
			l-28.6-5.51c-10.14-1.22-47.17-5.28-117.12-8.81c-75.72-3.81-254.78,35.18-287.54,76.1c-5.26,6.56-4.87,10.84-4.12,13.49
			c4.48,15.74,30.67,11.25,89.49-0.42c23.67-4.69,50.49-10.02,82.18-14.87c4.87-0.74,9.43,2.59,10.19,7.45
			c0.75,4.86-2.59,9.4-7.47,10.15c-31.3,4.8-57.92,10.08-81.41,14.74C523.18,2936.43,498.97,2941.23,480.75,2941.23L480.75,2941.23z
			"/>
	</g>
</g>
</svg>
