<?xml version="1.0" encoding="utf-8"?>
<!-- Generator: Adobe Illustrator 26.1.0, SVG Export Plug-In . SVG Version: 6.00 Build 0)  -->
<svg version="1.1" id="Layer_1" xmlns="http://www.w3.org/2000/svg" xmlns:xlink="http://www.w3.org/1999/xlink" x="0px" y="0px"
	 viewBox="0 0 2000 3200" style="enable-background:new 0 0 2000 3200;" xml:space="preserve">
<style type="text/css">
	.st0{fill:#70D9D9;}
	.st1{fill:#FFFFFF;}
	.st2{fill:#FF7F36;}
	.st3{fill:#007575;}
	.st4{fill:#222433;}
	.st5{fill:#FF7F36;stroke:#FF7F36;stroke-miterlimit:10;}
	.st6{fill:#15C2C1;}
	.st7{fill:#FDA979;}
	.st8{fill:#C35515;}
	.st9{fill:none;stroke:#5A38FD;stroke-width:111.9047;stroke-miterlimit:10;}
	.st10{fill:none;stroke:#FF7F36;stroke-width:111.9047;stroke-miterlimit:10;}
	.st11{fill:none;stroke:#FFFFFF;stroke-width:9.2351;stroke-miterlimit:10;stroke-dasharray:23.0877,36.9403;}
	.st12{fill:none;stroke:#313341;stroke-width:3.8308;stroke-miterlimit:10;}
	.st13{fill:none;}
	.st14{opacity:0.75;fill:#70D9D9;}
	.st15{fill:#5A38FD;}
	.st16{fill:none;stroke:#222433;stroke-width:8.5039;stroke-miterlimit:10;stroke-dasharray:14.1732,14.1732;}
	.st17{fill:#7057FD;}
	.st18{fill:none;stroke:#222433;stroke-width:5.4074;stroke-miterlimit:10;}
	.st19{fill:#222433;stroke:#222433;stroke-width:5.4303;stroke-miterlimit:10;}
	.st20{fill:#2B292D;}
	.st21{fill:none;stroke:#C35515;stroke-width:9.9101;stroke-miterlimit:10;}
	.st22{fill:none;stroke:#C35515;stroke-width:5.6693;stroke-miterlimit:10;}
	.st23{fill:#C35515;stroke:#000000;stroke-miterlimit:10;}
	.st24{fill:#C35515;stroke:#000000;stroke-width:0.6042;stroke-miterlimit:10;}
	.st25{fill:#15C2C1;stroke:#222433;stroke-width:6.1644;stroke-miterlimit:10;}
	.st26{fill:#FFFFFF;stroke:#000000;stroke-width:6.1644;stroke-miterlimit:10;}
	.st27{fill:none;stroke:#007575;stroke-width:6.1644;stroke-miterlimit:10;}
	.st28{fill:none;stroke:#FFFFFF;stroke-width:14.1732;stroke-miterlimit:10;stroke-dasharray:23.0877,36.9403;}
	.st29{fill-rule:evenodd;clip-rule:evenodd;fill:#FDA979;}
	.st30{fill-rule:evenodd;clip-rule:evenodd;fill:#FFFFFF;}
	.st31{fill-rule:evenodd;clip-rule:evenodd;fill:#007575;}
	.st32{fill:#606060;}
	.st33{clip-path:url(#SVGID_00000055665229952928902940000015654515818153126547_);}
	.st34{fill:#222433;stroke:#222433;stroke-width:1.0471;stroke-miterlimit:10;}
	.st35{fill:#222433;stroke:#222433;stroke-width:2.2688;stroke-miterlimit:10;}
	.st36{fill:#82B1FF;}
	.st37{fill:#15C2C1;stroke:#70D9D9;stroke-width:15.652;stroke-miterlimit:10;}
	.st38{stroke:#222433;stroke-width:0.8333;stroke-miterlimit:10;}
	.st39{clip-path:url(#SVGID_00000072265809361977396930000014073442506419832236_);}
	.st40{clip-path:url(#SVGID_00000072265809361977396930000014073442506419832236_);fill:#FF7F36;}
	.st41{clip-path:url(#SVGID_00000072265809361977396930000014073442506419832236_);fill:#C35515;}
	.st42{fill:#222433;stroke:#222433;stroke-width:0.791;stroke-miterlimit:10;}
	.st43{fill-rule:evenodd;clip-rule:evenodd;fill:#FF7F36;}
	.st44{fill-rule:evenodd;clip-rule:evenodd;fill:#15C2C1;}
	.st45{fill:none;stroke:#FF7F36;stroke-width:11.3386;stroke-miterlimit:10;}
	.st46{fill:none;stroke:#FF7F36;stroke-width:9.6934;stroke-miterlimit:10;}
	.st47{opacity:0.44;fill:#FDA979;}
	.st48{fill:none;stroke:#70D9D9;stroke-width:8.5039;stroke-miterlimit:10;stroke-dasharray:11.5087,11.5098;}
	.st49{opacity:0.75;fill:#007575;}
	.st50{clip-path:url(#SVGID_00000040556841833655823580000016600882614607777683_);}
	.st51{fill:none;stroke:#FF7F36;stroke-miterlimit:10;}
	.st52{clip-path:url(#SVGID_00000023994678926927806280000001069438350681527715_);}
	.st53{stroke:#70D9D9;stroke-width:8.5039;stroke-miterlimit:10;}
	.st54{fill:#FDA979;stroke:#222433;stroke-width:17.0079;stroke-miterlimit:10;}
	.st55{clip-path:url(#SVGID_00000123416229374367397290000011674284749972305539_);}
	.st56{fill:none;stroke:#222433;stroke-width:16.1222;stroke-linecap:round;stroke-miterlimit:10;}
	.st57{clip-path:url(#SVGID_00000034053862825006772120000002211332836203605391_);fill:#15C2C1;}
	.st58{clip-path:url(#SVGID_00000034053862825006772120000002211332836203605391_);fill:#C35515;}
	
		.st59{clip-path:url(#SVGID_00000034053862825006772120000002211332836203605391_);fill:#15C2C1;stroke:#000000;stroke-width:8.2755;stroke-miterlimit:10;}
	.st60{clip-path:url(#SVGID_00000034053862825006772120000002211332836203605391_);fill:#FF7F36;}
	
		.st61{clip-path:url(#SVGID_00000034053862825006772120000002211332836203605391_);fill:#15C2C1;stroke:#000000;stroke-width:8.5039;stroke-miterlimit:10;}
	
		.st62{clip-path:url(#SVGID_00000034053862825006772120000002211332836203605391_);fill:none;stroke:#000000;stroke-width:8.5039;stroke-miterlimit:10;}
	
		.st63{clip-path:url(#SVGID_00000034053862825006772120000002211332836203605391_);fill:#FFFFFF;stroke:#000000;stroke-width:8.5039;stroke-miterlimit:10;}
	.st64{clip-path:url(#SVGID_00000034053862825006772120000002211332836203605391_);}
	.st65{fill:none;stroke:#000000;stroke-width:8.2815;stroke-linecap:round;stroke-miterlimit:10;}
	
		.st66{clip-path:url(#SVGID_00000034053862825006772120000002211332836203605391_);fill:#FFFFFF;stroke:#000000;stroke-width:8.7446;stroke-miterlimit:10;}
	.st67{clip-path:url(#SVGID_00000034053862825006772120000002211332836203605391_);fill:none;}
	.st68{clip-path:url(#SVGID_00000064355122178697877150000005137054824785410995_);fill:#FF7F36;}
	.st69{clip-path:url(#SVGID_00000064355122178697877150000005137054824785410995_);}
	
		.st70{clip-path:url(#SVGID_00000064355122178697877150000005137054824785410995_);fill:none;stroke:#5A38FD;stroke-width:111.9047;stroke-miterlimit:10;}
	.st71{clip-path:url(#SVGID_00000183229471385978549120000014576614584319094659_);}
	
		.st72{opacity:0.57;clip-path:url(#SVGID_00000183229471385978549120000014576614584319094659_);fill:none;stroke:#FFFFFF;stroke-width:32.7065;stroke-linecap:round;stroke-miterlimit:10;}
	.st73{fill:#222433;stroke:#000000;stroke-width:7.0866;stroke-miterlimit:10;}
	
		.st74{clip-path:url(#SVGID_00000183229471385978549120000014576614584319094659_);fill:#222433;stroke:#222433;stroke-width:163.17;stroke-miterlimit:10;}
	.st75{fill:none;stroke:#000000;stroke-width:7.0866;stroke-miterlimit:10;}
	
		.st76{clip-path:url(#SVGID_00000183229471385978549120000014576614584319094659_);fill:#70D9D9;stroke:#000000;stroke-width:2.8346;stroke-linecap:round;stroke-miterlimit:10;}
	.st77{clip-path:url(#SVGID_00000072998932671354158620000006909888318671908490_);fill:#FFFFFF;}
	.st78{clip-path:url(#SVGID_00000072998932671354158620000006909888318671908490_);fill:#222433;}
	.st79{clip-path:url(#SVGID_00000072998932671354158620000006909888318671908490_);fill:#15C2C1;}
	.st80{clip-path:url(#SVGID_00000072998932671354158620000006909888318671908490_);fill:#FDA979;}
	.st81{clip-path:url(#SVGID_00000072998932671354158620000006909888318671908490_);}
	.st82{clip-path:url(#SVGID_00000072998932671354158620000006909888318671908490_);fill:#FF7F36;}
	.st83{clip-path:url(#SVGID_00000072998932671354158620000006909888318671908490_);fill:#C35515;}
	.st84{clip-path:url(#SVGID_00000008111809788855775140000015245095427984419512_);}
</style>
<circle class="st6" cx="1878.05" cy="728.24" r="30.97"/>
<circle class="st6" cx="251.12" cy="213.25" r="176.26"/>
<circle class="st2" cx="1821.35" cy="1878.65" r="139.87"/>
<circle class="st6" cx="1727.37" cy="260.71" r="136.82"/>
<circle class="st6" cx="1459.3" cy="1964.74" r="81.87"/>
<circle class="st2" cx="712.99" cy="1647.33" r="224.54"/>
<circle class="st6" cx="1197.48" cy="2491.98" r="115.98"/>
<circle class="st2" cx="1678.96" cy="2167.36" r="49.03"/>
<circle class="st6" cx="175.13" cy="1976.76" r="141.57"/>
<g>
	<path class="st1" d="M616.87,2567.38l44.57-14.93c17.4-5.92,26.7-24.83,20.78-42.23c-2.93-8.61-9.26-15.64-17.51-19.47
		l-101.61-50.34c-0.12-2.71-2.12-44.26-8.44-44.87c-5.06-0.52-7.94,6.31-9.59,14.6c-9.19-17.71-21.29-35.4-28.54-31.42
		c-6.75,3.76-1.63,17.54,11.15,39.48c-14.7-17.47-26.77-29.25-32.52-23.71c-5.75,5.54,9.23,23.08,20.66,36.49
		c-11.15-5.11-25.99-12.64-29.68-7.67c-5.4,7.1,7.03,14.06,14.77,19.45c17.11,12,20.59,12.78,21.51,25.99
		c0.6,8.27,8.27,16.28,17.38,17.88l48.6,26.56l0.89,0.94c13.95,14.63,23.48,32.91,27.48,52.72L616.87,2567.38z"/>
	<path class="st4" d="M616.87,2569.51c-1.01,0-1.89-0.71-2.09-1.71l-0.11-0.55c-3.91-19.42-13.25-37.34-26.93-51.67l-0.67-0.7
		l-48-26.24c-9.89-1.9-18.11-10.51-18.78-19.75c-0.75-10.68-2.96-12.21-15.27-20.69c-1.62-1.11-3.39-2.34-5.35-3.71
		c-0.88-0.62-1.84-1.26-2.81-1.92c-6.16-4.15-13.15-8.85-14.08-14.45c-0.35-2.18,0.25-4.41,1.65-6.13
		c3.71-4.99,13.33-1.57,23.6,3.04c-12.66-15.29-20.16-26.53-14.37-32.11c1.43-1.39,3.38-2.1,5.36-1.96
		c4.42,0.23,10.03,3.95,18.18,12.31c-5-10.39-6.64-17.17-5.42-21.64c0.51-2.04,1.85-3.78,3.69-4.8c1.74-0.94,3.78-1.1,5.65-0.46
		c7.87,2.4,17.13,16.85,23.2,27.86c2.36-7.67,5.9-11.3,10.53-10.82c2.94,0.29,6,3.34,8.44,23.52c1.11,9.22,1.67,18.67,1.85,22.12
		l100.49,49.78c17.73,8.25,25.42,29.31,17.17,47.04c-4.07,8.76-11.55,15.47-20.69,18.58l-44.58,14.94
		C617.33,2569.47,617.1,2569.51,616.87,2569.51L616.87,2569.51z M490.22,2423.73c-1.12,0-1.95,0.25-2.38,0.83
		c-0.69,0.79-1,1.83-0.85,2.87c0.63,3.78,7.07,8.12,12.25,11.61c1,0.67,1.97,1.33,2.88,1.96c1.95,1.37,3.72,2.59,5.33,3.69
		c12.77,8.8,16.21,11.17,17.1,23.89c0.53,7.36,7.54,14.51,15.62,15.93c0.23,0.04,0.45,0.12,0.65,0.23l48.6,26.56
		c0.19,0.11,0.37,0.24,0.52,0.4l0.89,0.94c13.8,14.46,23.36,32.43,27.64,51.96l42.29-14.17c16.28-5.55,24.99-23.25,19.43-39.53
		c-2.75-8.06-8.67-14.64-16.39-18.22l-101.66-50.36c-0.69-0.34-1.15-1.04-1.18-1.81c-0.05-1.14-0.54-11.47-1.74-21.83
		c-2.07-17.92-4.44-20.65-4.91-21.03c-3.98-0.22-6.18,7.96-7.15,12.9c-0.23,1.15-1.35,1.9-2.5,1.68c-0.64-0.13-1.18-0.53-1.48-1.11
		c-9.09-17.52-17.8-28.98-23.29-30.65c-0.76-0.3-1.62-0.26-2.34,0.11c-0.83,0.46-1.43,1.26-1.64,2.19
		c-2.05,7.47,9.73,27.7,13.61,34.34c0.59,1.02,0.25,2.32-0.77,2.91c-0.89,0.52-2.03,0.32-2.7-0.47
		c-5.51-6.55-20.16-23.96-27.23-24.33c-0.81-0.08-1.61,0.21-2.18,0.78c-0.75,0.72-1.86,3.4,4.14,12.51
		c4.35,6.61,10.82,14.21,16.53,20.91l0.14,0.16c0.76,0.9,0.66,2.24-0.24,3c-0.63,0.54-1.52,0.66-2.27,0.31
		c-0.98-0.45-1.98-0.91-3.01-1.39C505.72,2428.63,495.17,2423.73,490.22,2423.73L490.22,2423.73z"/>
	<path class="st1" d="M476.45,2718.84l-10.2,57.19l-130.64,50.98l53.11,136.47l168.98-65.89c23.8-9.25,41.05-30.24,45.51-55.38
		l10.53-58.99l48.83,24.91l-53.75,98.41l135.76,57.58l82.65-152.16c19.31-35.49,6.2-79.92-29.3-99.23c-0.6-0.32-1.2-0.64-1.8-0.95
		l-196.18-97.91"/>
	<path class="st13" d="M458.6,2778.74l-34.03,13.28c0.75,0.04,1.51,0.06,2.28,0.06C438.79,2792.08,450.24,2787.27,458.6,2778.74z"/>
	<path class="st13" d="M562.18,2778.23c-9.22,0-16.69-7.47-16.69-16.69s7.47-16.69,16.69-16.69s16.69,7.47,16.69,16.69
		S571.39,2778.23,562.18,2778.23L562.18,2778.23z M674.15,2719.66l-23-23.5l-23.64,23.64c-5.2,5.2-13.62,5.2-18.82,0
		c-5.2-5.2-5.2-13.62,0-18.82l33.16-33.16c5.18-5.2,13.59-5.21,18.79-0.03c0.06,0.06,0.11,0.11,0.17,0.17l32.38,33.16
		c5.14,5.23,5.06,13.64-0.17,18.78c-2.49,2.45-5.85,3.81-9.34,3.8C680.07,2723.71,676.63,2722.24,674.15,2719.66L674.15,2719.66z
		 M689.2,2795.98l55.81-55.81c3.91-3.96,10.29-4.01,14.25-0.1c0.61,0.6,1.14,1.28,1.58,2.02c14.32,24.19,6.31,55.41-17.88,69.72
		c-15.99,9.46-35.86,9.46-51.85,0c-4.79-2.88-6.33-9.09-3.45-13.88C688.1,2797.22,688.61,2796.57,689.2,2795.98L689.2,2795.98z"/>
	<path class="st13" d="M745.01,2927.76l-23.64,23.64c-0.79,0.79-1.69,1.47-2.65,2.04l25.16,10.67l13.1-24.13L745.01,2927.76z"/>
	<g>
		<g>
			<path class="st6" d="M498.13,2747.49c0-7.37-5.98-13.35-13.35-13.35c-7.37,0-13.35,5.98-13.35,13.35
				c0,6.47-1.41,12.86-4.14,18.72l-1.75,9.82l-6.95,2.71c-8.36,8.53-19.8,13.34-31.75,13.34c-0.76,0-1.52-0.02-2.28-0.06
				l-37.46,14.61c11.74,7.93,25.58,12.16,39.74,12.14C466.11,2818.77,498.06,2786.82,498.13,2747.49L498.13,2747.49z"/>
			<path class="st6" d="M671.24,2865.21c5.18-5.2,5.18-13.61,0-18.82l-19.58-19.58l-13.29,24.34l14.06,14.06
				C657.62,2870.39,666.03,2870.39,671.24,2865.21L671.24,2865.21z"/>
			<path class="st6" d="M591.07,2818.77H591c-3.56,0.05-6.95,1.51-9.44,4.05l-13.77,14.13l-14.2-14.2c-5.22-5.21-13.67-5.21-18.89,0
				l-23.79,23.79c-5.2,5.2-5.19,13.63,0.01,18.83c2.5,2.5,5.9,3.9,9.43,3.89c3.56,0,6.98-1.4,9.51-3.91l14.34-14.34l14.34,14.34
				c2.51,2.49,5.91,3.89,9.44,3.91h0.07c3.56-0.05,6.95-1.51,9.44-4.05l13.77-14.13l6.64,6.64c2.09-4.99,3.63-10.19,4.58-15.51
				l2.66-14.88l-4.64-4.64C598,2820.19,594.61,2818.79,591.07,2818.77L591.07,2818.77z"/>
			<path class="st6" d="M412.08,2916.33c2.5-2.53,3.88-5.96,3.83-9.51l-0.43-32.87h33.44c7.37-0.01,13.34-5.99,13.33-13.36
				c-0.01-7.36-5.97-13.33-13.33-13.33H402c-3.56-0.01-6.96,1.43-9.44,3.98c-2.5,2.53-3.88,5.96-3.83,9.51l0.43,32.87h-28.33
				l10.39,26.7h31.43C406.19,2920.31,409.6,2918.88,412.08,2916.33L412.08,2916.33z"/>
			<path class="st6" d="M496.22,2902.34h-0.07c-3.56,0.05-6.95,1.51-9.44,4.05l-29.33,30.04l56.46-22.02l-8.17-8.17
				C503.15,2903.76,499.76,2902.36,496.22,2902.34z"/>
			<circle class="st6" cx="562.18" cy="2761.54" r="16.69"/>
			<path class="st6" d="M550.82,2663.85c-1.4,0-2.78-0.07-4.14-0.2c-3.49,5-7.28,9.79-11.34,14.34c-2.4,2.73-4.46,5.76-7,8.36
				c-0.14,0.14-0.28,0.27-0.42,0.41c7.37,2.51,15.11,3.79,22.9,3.79c7.37,0,13.35-5.98,13.35-13.35S558.19,2663.85,550.82,2663.85
				L550.82,2663.85z"/>
			<path class="st6" d="M693.17,2701.12l-32.38-33.16c-5.1-5.27-13.51-5.41-18.79-0.31c-0.06,0.06-0.11,0.11-0.17,0.17l-33.16,33.16
				c-5.2,5.2-5.2,13.62,0,18.82c5.2,5.2,13.62,5.2,18.82,0l23.64-23.64l23,23.5c5.1,5.27,13.52,5.41,18.79,0.31
				c0.01-0.01,0.02-0.02,0.02-0.02C698.2,2714.8,698.3,2706.38,693.17,2701.12z"/>
			<path class="st6" d="M603.57,2631.47c5.98,0,11.51-3.2,14.48-8.39l-16.68-8.5l-14.05,4
				C589.08,2626.13,595.81,2631.47,603.57,2631.47z"/>
			<path class="st6" d="M786.19,2839.65c-0.01,7.36,5.95,13.34,13.32,13.35c0.01,0,0.02,0,0.03,0h4.69l14.5-26.7h-19.19
				c-7.36-0.01-13.34,5.95-13.35,13.32C786.19,2839.63,786.19,2839.64,786.19,2839.65L786.19,2839.65z"/>
			<path class="st6" d="M745.01,2927.76l11.97,12.23l13.28-24.45l-15.59-15.97c-2.47-2.57-5.88-4.03-9.44-4.05h-0.07
				c-3.54,0-6.94,1.41-9.44,3.91l-33.16,33.16c-3.26,3.28-4.59,8.01-3.51,12.51l19.67,8.34c0.97-0.56,1.86-1.25,2.66-2.04
				L745.01,2927.76z"/>
			<path class="st6" d="M753.03,2804.01c16.42-16.44,19.63-41.91,7.81-61.91c-2.85-4.78-9.03-6.35-13.81-3.5
				c-0.74,0.44-1.42,0.97-2.02,1.58l-55.81,55.81c-3.96,3.94-3.98,10.34-0.04,14.3c0.59,0.59,1.24,1.1,1.95,1.53
				C711.11,2823.67,736.6,2820.45,753.03,2804.01L753.03,2804.01z"/>
		</g>
	</g>
	<path class="st4" d="M388.01,2963.48l-27.69,11.43c-6.1,2.49-9.92,8.62-9.44,15.19c0.56,8.02,7.22,14.25,15.27,14.27h16.97
		c11.75-0.02,21.28,9.5,21.3,21.24c0,0.02,0,0.04,0,0.06v0.71h-94.57l-58.72-168.42l83.78-30.96L388.01,2963.48z"/>
	<path class="st4" d="M608.11,2906.53l135.76,57.58c-8.38,15.27,2.7,33.94,20.09,33.94h21.23c11.08,0.01,20.57,7.92,22.58,18.82
		l1.78,9.51H662.36l-97.06-40.26L608.11,2906.53z"/>
	<path class="st4" d="M743.87,2966.24c-0.29,0-0.57-0.06-0.83-0.17l-135.76-57.58c-1.08-0.46-1.59-1.71-1.13-2.79
		c0.03-0.06,0.06-0.13,0.09-0.19l52.7-96.49l-44.32-22.61l-10.02,56.16c-4.67,25.83-22.4,47.4-46.84,56.99l-168.98,65.89
		c-1.1,0.43-2.33-0.12-2.76-1.21c0,0,0,0,0,0l-53.11-136.47c-0.43-1.1,0.12-2.33,1.21-2.76l129.53-50.55l9.99-56.01
		c0.21-1.16,1.31-1.93,2.47-1.72c1.16,0.21,1.93,1.31,1.72,2.47l-10.2,57.19c-0.13,0.73-0.63,1.34-1.32,1.61l-128.66,50.21
		l51.56,132.5l167-65.12c23.06-9.05,39.78-29.4,44.19-53.77l10.53-58.99c0.21-1.16,1.31-1.93,2.47-1.72c0.21,0.04,0.41,0.1,0.59,0.2
		l48.83,24.91c1.05,0.53,1.46,1.82,0.93,2.86c-0.01,0.02-0.02,0.04-0.03,0.05l-52.62,96.34l131.81,55.91l81.72-150.46
		c18.75-34.46,6.02-77.59-28.44-96.35c-0.58-0.32-1.16-0.62-1.75-0.92l-196.16-97.9c-1.06-0.52-1.49-1.79-0.98-2.85
		c0.52-1.06,1.79-1.49,2.85-0.98c0.01,0,0.02,0.01,0.03,0.01l196.18,97.91c37.07,18.84,51.84,64.17,33,101.24
		c-0.32,0.63-0.65,1.25-0.98,1.87l-82.65,152.16C745.37,2965.82,744.65,2966.24,743.87,2966.24L743.87,2966.24z"/>
	<path class="st4" d="M661.93,2810.25c-0.1,0-0.19-0.01-0.29-0.02c-0.95-0.13-1.7-0.88-1.82-1.83l-3.27-24.85
		c-0.15-1.17,0.67-2.24,1.83-2.39s2.24,0.67,2.39,1.83l2.25,17.14l5.75-13.44c0.45-1.09,1.69-1.61,2.78-1.16
		c1.09,0.45,1.61,1.69,1.16,2.78c-0.01,0.02-0.02,0.04-0.03,0.06l-8.8,20.59C663.56,2809.74,662.79,2810.25,661.93,2810.25z"/>
	<path class="st2" d="M504.18,2533.89l59.7-20.28c20.88-7.14,43.59,4,50.73,24.88c0.04,0.11,0.07,0.22,0.11,0.33l2.77,8.31
		c5.12,15.27-3.07,31.81-18.32,36.99l-1.41,0.48l1.48,29.27l-1.66,0.56c-61.18,33.81-58.45,105.95-141.41,105.95l-11.34-86.53
		l-0.07-0.13l-48.02,16.37l-12.6-55.35l15.62-27.69L504.18,2533.89z"/>
	<path class="st4" d="M456.17,2722.5c-1.07,0-1.97-0.79-2.11-1.85l-11.02-84.09l-45.61,15.54c-1.11,0.38-2.32-0.22-2.7-1.33
		c-0.02-0.07-0.04-0.14-0.06-0.21l-12.6-55.35c-0.12-0.52-0.04-1.06,0.22-1.52l15.62-27.69c0.26-0.47,0.7-0.82,1.21-0.98
		l104.4-33.14l59.68-20.27c21.99-7.52,45.91,4.22,53.43,26.2c0.04,0.11,0.08,0.23,0.12,0.34l2.77,8.31
		c5.44,16.34-3.27,34.01-19.54,39.64l1.4,27.66c0.05,0.95-0.54,1.83-1.45,2.13l-1.48,0.5c-23.91,13.26-37.87,32.49-51.37,51.08
		C526.52,2695.76,507.1,2722.5,456.17,2722.5z M444.76,2631.58c0.76,0,1.47,0.41,1.85,1.07l0.07,0.13c0.14,0.24,0.23,0.51,0.26,0.78
		l11.09,84.66c47.35-0.62,65.09-25.05,85.59-53.27c13.81-19.01,28.09-38.67,52.92-52.4c0.11-0.06,0.23-0.11,0.36-0.15l0.13-0.04
		l-1.4-27.66c-0.05-0.95,0.54-1.82,1.44-2.12l1.41-0.48c14.12-4.83,21.7-20.14,16.98-34.3l-2.77-8.31
		c-6.58-19.82-27.99-30.55-47.81-23.97c-0.11,0.04-0.21,0.07-0.32,0.11l-59.7,20.28l-0.04,0.01l-103.62,32.89l-14.8,26.24
		l11.9,52.24l45.78-15.6C444.29,2631.62,444.53,2631.58,444.76,2631.58L444.76,2631.58z"/>
	<path class="st4" d="M461.07,2645.18c-0.37,0-0.74-0.1-1.07-0.28l-16.26-9.37c-1.02-0.59-1.37-1.89-0.78-2.91
		c0.59-1.02,1.89-1.37,2.91-0.78l16.26,9.37c1.02,0.59,1.37,1.89,0.78,2.91C462.54,2644.77,461.83,2645.18,461.07,2645.18z"/>
	<path class="st4" d="M597.75,2586.67c-1.13,0-2.06-0.89-2.13-2.02l-0.78-14.56c-0.06-1.17,0.84-2.18,2.01-2.24
		c1.17-0.06,2.18,0.84,2.24,2.01l0.78,14.56c0.06,1.17-0.84,2.18-2.01,2.24C597.82,2586.67,597.78,2586.67,597.75,2586.67z"/>
	<path class="st4" d="M533.85,2648.51c-1.18,0-2.13-0.95-2.13-2.13c0-0.93,0.6-1.75,1.48-2.03c7.97-2.58,14.06-9.87,21.1-18.33
		c8.11-9.73,17.31-20.76,31.7-26.77c1.08-0.47,2.33,0.03,2.8,1.11c0.47,1.08-0.03,2.33-1.11,2.8c-0.02,0.01-0.03,0.01-0.05,0.02
		c-13.43,5.6-22.27,16.21-30.07,25.56c-7.16,8.59-13.92,16.7-23.07,19.65C534.29,2648.47,534.07,2648.51,533.85,2648.51z"/>
	<path class="st4" d="M526.82,2641.55c-1.18,0-2.13-0.95-2.13-2.13c0-0.92,0.59-1.74,1.47-2.03c3.79-1.24,7.47-3.94,11.28-8.26
		c0.79-0.87,2.14-0.93,3.01-0.13c0.84,0.77,0.93,2.08,0.19,2.95c-4.32,4.9-8.62,8.01-13.15,9.49
		C527.27,2641.52,527.04,2641.55,526.82,2641.55L526.82,2641.55z"/>
	<path class="st4" d="M543.08,2432.03c-0.07,0-0.14,0-0.22-0.01c-1.17-0.12-2.02-1.16-1.91-2.33l1.99-19.74
		c0.12-1.17,1.16-2.02,2.33-1.91c1.17,0.12,2.02,1.16,1.91,2.33l-1.99,19.74C545.08,2431.2,544.17,2432.03,543.08,2432.03
		L543.08,2432.03z"/>
	<path class="st4" d="M521.92,2466.39h-0.07c-1.18-0.04-2.1-1.02-2.06-2.2c0,0,0,0,0,0l0.43-13.06c0.04-1.18,1.02-2.1,2.2-2.06
		c1.18,0.04,2.1,1.02,2.06,2.2l-0.43,13.06C524.01,2465.48,523.07,2466.39,521.92,2466.39z"/>
	<path class="st4" d="M372.18,2616.63c-1.18,0-2.13-0.96-2.13-2.13c0-0.38,0.1-0.75,0.3-1.08l11.93-20.24
		c0.6-1.01,1.9-1.35,2.92-0.75s1.35,1.9,0.75,2.92l-11.93,20.24C373.63,2616.23,372.93,2616.63,372.18,2616.63z"/>
	<path class="st15" d="M495.99,2442.81c0.62,0.62,1.17,1.3,1.65,2.03c0.71,0.7,1.35,1.49,2.02,2.09c3.88,3.39,6.63,7.88,7.87,12.88
		c4.76-3.58,5.72-10.34,2.14-15.1c-3.42-4.55-9.79-5.66-14.55-2.53C495.45,2442.34,495.74,2442.55,495.99,2442.81z"/>
	<path class="st4" d="M507.85,2468.7c-1.16,0-2.1-0.93-2.13-2.08c-0.07-3.48-0.78-6.92-2.1-10.14c-2.56-6.23-5.77-10.84-10.12-14.5
		c-0.91-0.74-1.05-2.09-0.3-3c0.74-0.91,2.09-1.05,3-0.3c0.02,0.01,0.03,0.03,0.05,0.04c4.9,4.12,8.5,9.25,11.32,16.15
		c1.52,3.7,2.34,7.66,2.42,11.66c0.03,1.18-0.91,2.15-2.08,2.18H507.85z"/>
	<path class="st1" d="M457.93,2502.62l0.01,0.01c0.07,0.14,0.13,0.29,0.16,0.44l8.35,42.23c0.11,0.53,0.47,0.98,0.97,1.18
		l23.84,9.96c5.74,2.4,12.35-0.31,14.75-6.05c0.91-2.17,1.11-4.58,0.59-6.87l-2.34-10.15l-3.49-17.68
		c-0.12-0.66,0.16-1.32,0.73-1.68c14.17-9.13,18.24-28.02,9.11-42.19c-0.24-0.37-0.49-0.74-0.75-1.11c-0.07-0.1-0.13-0.2-0.17-0.31
		l-1.64-4.05c-0.07-0.17-2.48-1.38-2.48-1.57c0-3.55-0.78-5.94-2.13-9.23c-2.34-5.7-7.81-12.07-12.07-16.33l-2.94-4.49
		c-0.39-0.3-0.89-0.42-1.37-0.31l-26.21,6.05c-0.46,0.11-0.84,0.4-1.07,0.82l-10.89,20.42c-0.08,0.15-0.13,0.31-0.16,0.47
		l-1.26,6.92c-0.07,0.41-0.3,0.77-0.64,1.02l-9.54,7c-0.37,0.27-0.61,0.7-0.66,1.16l-0.38,4.04c-0.91,9.75,3.94,19.27,15.17,20.07
		c0.12,0.01,0.25,0,0.37-0.01l4.49-0.63C456.94,2501.67,457.61,2502.01,457.93,2502.62L457.93,2502.62z"/>
	<circle class="st4" cx="502.75" cy="2458.23" r="2.49"/>
	<path class="st1" d="M496.29,2458.44l12.43,8.73c1.37,0.94,1.71,2.82,0.77,4.18c-0.02,0.03-0.04,0.05-0.06,0.08l-3.76,5.11"/>
	<path class="st4" d="M505.66,2478.68c-1.18,0-2.13-0.96-2.13-2.13c0-0.45,0.15-0.9,0.41-1.26l3.76-5.11
		c0.29-0.39,0.21-0.94-0.18-1.23c-0.01-0.01-0.02-0.02-0.04-0.03l-12.43-8.73c-0.96-0.68-1.19-2-0.52-2.97
		c0.68-0.96,2.01-1.19,2.97-0.52l12.43,8.73c2.33,1.62,2.9,4.82,1.29,7.15c-0.03,0.04-0.06,0.08-0.09,0.12l-3.76,5.11
		C506.98,2478.36,506.34,2478.68,505.66,2478.68L505.66,2478.68z"/>
	<circle class="st4" cx="482.8" cy="2462.13" r="2.49"/>
	<path class="st4" d="M500.33,2488.47l1.7-3.34c1.35-2.64,4.59-3.69,7.23-2.34c0.5,0.26,0.96,0.59,1.36,0.99l1.63,1.63
		c0.59,0.57,0.83,1.41,0.64,2.2c-0.31,1.26-1.59,2.03-2.85,1.72c-0.25-0.06-0.48-0.16-0.7-0.3l-0.5-0.35
		c-1.08-0.7-2.53-0.42-3.27,0.64l-1.14,1.63c-0.73,1.07-2.19,1.34-3.26,0.61c-0.05-0.04-0.1-0.07-0.15-0.11l-0.14-0.07
		C500.09,2490.65,499.86,2489.46,500.33,2488.47L500.33,2488.47z"/>
	<path class="st4" d="M484.75,2521.57c-1.07,0-2.15-0.05-3.23-0.16c-1.17-0.11-2.03-1.16-1.91-2.33c0.12-1.17,1.16-2.03,2.33-1.91
		c6.08,0.61,12.2-0.76,17.44-3.9c1.01-0.61,2.32-0.28,2.92,0.73s0.28,2.32-0.73,2.92C496.49,2519.97,490.68,2521.57,484.75,2521.57z
		"/>
	<path class="st4" d="M495.54,2559.93c-1.78,0-3.55-0.36-5.19-1.05l-24.63-10.3c-0.65-0.27-1.13-0.86-1.27-1.55l-8.5-43.01
		c-0.18-0.34-0.35-0.69-0.52-1.04c-0.47-1.08,0.02-2.33,1.1-2.81c1.02-0.45,2.22-0.03,2.74,0.96c0.19,0.39,0.38,0.77,0.59,1.15
		c0.1,0.19,0.17,0.39,0.21,0.6l8.34,42.2l23.59,9.86c4.66,1.95,10.01-0.25,11.96-4.91c0.74-1.76,0.9-3.71,0.48-5.57l-2.34-10.15
		l-3.72-18.84c-0.17-0.88,0.23-1.78,1-2.24c8.59-5.14,13.86-14.4,13.89-24.41c0.01-5.94-1.85-11.73-5.33-16.54
		c-0.68-0.96-0.44-2.29,0.52-2.97c0.95-0.67,2.26-0.45,2.94,0.48c3.99,5.54,6.14,12.2,6.12,19.03c-0.03,10.97-5.54,21.2-14.68,27.26
		l3.43,17.34l2.33,10.09c1.66,7.22-2.86,14.42-10.08,16.08C497.53,2559.82,496.53,2559.93,495.54,2559.93L495.54,2559.93z"/>
	<path class="st4" d="M502.93,2427.76c-1.18-11.7-11.62-20.24-23.33-19.06c-2.88,0.29-5.67,1.16-8.2,2.57
		c-10.29-5.71-23.26-1.99-28.96,8.3c-0.03,0.05-0.05,0.1-0.08,0.15c-4.91-1.2-10.08-0.62-14.6,1.64c0.01,0.3-9.5,30.78-10.05,32.36
		c2.76-2.25,19.27-17.54,23.55-14.66c10.11,6.8-9.2,24.42-11.08,28.22c-8,16.22,5.87,31.6,4.75,40.38c6.73,2.2,14.11,0.91,19.7-3.44
		c-0.73-0.13-19.26,0.52-16.34-16.47c3.2-21.76,21.85-12.29,24.05-11.29c1.57-5.52-1.19-11.34-6.45-13.63
		c4.56-2.67,6.37-8.35,4.2-13.16c0.32,0.03,0.65,0.05,0.98,0.05c4.87,0,9.07-3.39,10.12-8.14c4.64,3.86,11.53,3.23,15.39-1.41
		c0.66-0.8,1.21-1.69,1.63-2.64c1.85,4.62,7.1,6.87,11.72,5.01c4.62-1.85,6.87-7.1,5.01-11.73
		C504.49,2429.67,503.8,2428.63,502.93,2427.76L502.93,2427.76z"/>
	<path class="st1" d="M384.1,2594.34l39.05-66.17l-0.12-0.26c9.03-3.87,14.52-14.68,12.33-23.17c-3.27-12.85-14.41-25.84-1.99-42.6
		c5.68-7.53,15.19-18.03,7.88-23.08c-5.04-3.48-16.76,8.31-25.7,16.69c6.6-16.33,15.27-37.77,8.02-41.18
		c-7.17-3.41-14.91,11.57-23.29,32.8c5.11-24.85,5.68-39.55-1.92-40.97c-12.5-2.34-19.67,47.5-19.67,66.17
		c0,7.88,0.13,14,0.28,18.45l-97.7,125.89c-11.63,14.22-9.53,35.17,4.69,46.8c5.95,4.87,13.4,7.52,21.09,7.51
		c3.64-0.03,7.25-0.61,10.72-1.7l77.36-26.48L384.1,2594.34z"/>
	<path class="st4" d="M307.07,2673.36c-19.54,0.01-35.4-15.82-35.42-35.36c-0.01-8.18,2.82-16.1,8-22.43l97.19-125.25
		c-0.17-5.31-0.26-11.28-0.26-17.75c0-14.63,4.94-57.23,16.06-66.46c1.65-1.52,3.92-2.19,6.13-1.81c2.06,0.37,3.87,1.59,5,3.35
		c2.56,3.82,3.14,10.78,1.69,22.29c5.07-10.52,9.21-15.83,13.35-17.46c1.83-0.76,3.9-0.7,5.69,0.16c7.25,3.41,3.56,16.94-3.44,35.04
		c8.3-7.62,16.33-13.88,21.42-10.37c1.86,1.19,3.13,3.13,3.48,5.31c0.87,5.65-4.34,12.37-8.95,18.3c-0.67,0.86-1.32,1.7-1.92,2.5
		c-8.75,11.8-4.98,21.27-0.98,31.29c1.31,3.09,2.43,6.27,3.33,9.51c2.41,9.34-3.28,20.61-12.53,25.18l-38.54,65.3l10.86,47.88
		c0.24,1.06-0.36,2.13-1.39,2.49l-77.36,26.48C314.79,2672.71,310.94,2673.33,307.07,2673.36L307.07,2673.36z M397.52,2408.44
		c-0.81,0.05-1.58,0.38-2.16,0.95c-8.54,7.08-14.52,45.22-14.52,63.18c0,6.74,0.09,12.92,0.28,18.38c0.02,0.5-0.14,0.99-0.45,1.38
		l-97.7,125.89c-10.91,13.29-8.98,32.9,4.31,43.81c5.58,4.58,12.57,7.08,19.78,7.07c3.43-0.03,6.83-0.58,10.1-1.61l75.48-25.84
		l-10.62-46.84c-0.12-0.53-0.03-1.09,0.24-1.55l38.64-65.48c0.05-0.8,0.55-1.51,1.29-1.82c7.89-3.38,13.08-13.05,11.11-20.68
		c-0.86-3.06-1.92-6.06-3.16-8.99c-4.06-10.17-8.65-21.69,1.52-35.42c0.63-0.83,1.29-1.69,1.97-2.56c3.87-4.99,8.69-11.2,8.1-15.03
		c-0.18-1.03-0.79-1.92-1.69-2.46c-3.21-2.22-14.65,8.58-20.8,14.38c-0.76,0.72-1.51,1.43-2.24,2.11c-0.86,0.8-2.21,0.76-3.01-0.1
		c-0.57-0.61-0.73-1.49-0.42-2.25c3.31-8.19,7.06-17.47,9.12-25.19c2.83-10.63,0.92-12.82-0.03-13.27c-0.72-0.36-1.57-0.38-2.3-0.04
		c-5.93,2.34-13.17,19.21-18.1,31.7c-0.43,1.09-1.67,1.63-2.76,1.2c-0.96-0.38-1.51-1.4-1.3-2.41c1.55-7.56,6.29-30.56,2.02-36.91
		c-0.49-0.81-1.31-1.37-2.25-1.54C397.83,2408.46,397.68,2408.44,397.52,2408.44L397.52,2408.44z"/>
	<path class="st4" d="M452.27,2505.09c-9.41,0-17.04-7.63-17.04-17.04s7.63-17.04,17.04-17.04c3.39,0,6.71,1.01,9.52,2.91
		c0.98,0.65,1.26,1.97,0.61,2.95c-0.65,0.98-1.97,1.26-2.95,0.61c-0.02-0.01-0.03-0.02-0.05-0.03c-5.85-3.94-13.8-2.39-17.74,3.46
		c-3.94,5.85-2.39,13.8,3.46,17.74c3.38,2.28,7.65,2.8,11.48,1.42c1.11-0.4,2.33,0.17,2.73,1.28s-0.17,2.33-1.28,2.73l0,0
		C456.21,2504.75,454.24,2505.09,452.27,2505.09L452.27,2505.09z"/>
	<path class="st4" d="M378.78,2507.43h-0.03c-1.18-0.02-2.12-0.98-2.1-2.16c0,0,0,0,0,0l0.21-14.28c0.02-1.18,0.99-2.12,2.16-2.1
		c1.18,0.02,2.12,0.99,2.1,2.16l-0.21,14.28C380.89,2506.5,379.94,2507.43,378.78,2507.43L378.78,2507.43z"/>
</g>
<circle class="st2" cx="1557.19" cy="2993.86" r="155.07"/>
</svg>
