<?xml version="1.0" encoding="utf-8"?>
<!-- Generator: Adobe Illustrator 26.1.0, SVG Export Plug-In . SVG Version: 6.00 Build 0)  -->
<svg version="1.1" id="Layer_1" xmlns="http://www.w3.org/2000/svg" xmlns:xlink="http://www.w3.org/1999/xlink" x="0px" y="0px"
	 viewBox="0 0 2000 2294.31" style="enable-background:new 0 0 2000 2294.31;" xml:space="preserve">
<style type="text/css">
	.st0{fill:#70D9D9;}
	.st1{fill:#FFFFFF;}
	.st2{fill:none;stroke:#70D9D9;stroke-width:8.5039;stroke-miterlimit:10;stroke-dasharray:11.5087,11.5098;}
	.st3{opacity:0.44;fill:#FDA979;}
	.st4{fill:#FF7F36;}
	.st5{opacity:0.75;fill:#007575;}
	.st6{fill:#FDA979;}
	.st7{fill:url(#SVGID_1_);}
	.st8{fill:#606060;}
	.st9{fill:#222433;}
	.st10{fill:#15C2C1;}
	.st11{fill:#C35515;}
	.st12{fill:#222433;stroke:#FF7F36;stroke-width:2.9089;stroke-miterlimit:10;}
	.st13{fill:#222433;stroke:#FF7F36;stroke-width:2.287;stroke-miterlimit:10;}
	.st14{fill:#007575;}
	.st15{fill:#2B292D;}
	.st16{fill:none;stroke:#FF7F36;stroke-width:6.974;stroke-miterlimit:10;}
	.st17{fill:none;stroke:#007575;stroke-width:3.0392;stroke-linecap:round;stroke-miterlimit:10;}
	.st18{fill:#FF7F36;stroke:#222433;stroke-miterlimit:10;}
	.st19{fill:#82B1FF;}
	.st20{fill:#222433;stroke:#FFFFFF;stroke-width:2.2146;stroke-miterlimit:10;}
	.st21{fill:none;stroke:#FF7F36;stroke-width:2.2146;stroke-linecap:round;stroke-miterlimit:10;}
	.st22{fill:none;stroke:#FFFFFF;stroke-miterlimit:10;}
	.st23{fill:#C35515;stroke:#222433;stroke-width:5.6693;stroke-miterlimit:10;}
	.st24{fill:none;stroke:#313341;stroke-width:1.2723;stroke-miterlimit:10;}
	.st25{fill:none;}
	.st26{fill-rule:evenodd;clip-rule:evenodd;fill:#FF7F36;}
	.st27{fill:#222433;stroke:#FF7F36;stroke-width:2.0175;stroke-miterlimit:10;}
	.st28{fill:#FF7F36;stroke:#FF7F36;stroke-width:2.0175;stroke-miterlimit:10;}
	.st29{fill:#222433;stroke:#222433;stroke-width:0.474;stroke-miterlimit:10;}
	.st30{fill:#15C2C1;stroke:#15C2C1;stroke-miterlimit:10;}
	.st31{fill:#222433;stroke:#FF7F36;stroke-width:2.006;stroke-miterlimit:10;}
	.st32{fill:none;stroke:#FF7F36;stroke-width:2.9439;stroke-miterlimit:10;}
	.st33{fill:#222433;stroke:#FF7F36;stroke-width:2.9305;stroke-miterlimit:10;}
	.st34{fill:none;stroke:#C35515;stroke-width:5.6693;stroke-linecap:round;stroke-miterlimit:10;}
	.st35{fill:#222433;stroke:#007575;stroke-width:2.6235;stroke-miterlimit:10;}
	.st36{fill:#222433;stroke:#FF7F36;stroke-width:2.4344;stroke-miterlimit:10;}
	.st37{fill:#222433;stroke:#222433;stroke-width:2.6235;stroke-miterlimit:10;}
	.st38{fill:none;stroke:#C35515;stroke-width:7.2469;stroke-linecap:round;stroke-miterlimit:10;}
	.st39{fill:#FF7F36;stroke:#FF7F36;stroke-width:1.0653;stroke-miterlimit:10;}
	.st40{fill:none;stroke:#FF7F36;stroke-width:8.5928;stroke-miterlimit:10;}
	.st41{fill:none;stroke:#FF7F36;stroke-width:7.5694;stroke-miterlimit:10;}
	.st42{fill:#752F06;}
	.st43{fill:none;stroke:#FFFFFF;stroke-width:2.6249;stroke-miterlimit:10;stroke-dasharray:5.2498,5.2498;}
	.st44{fill:none;stroke:#222433;stroke-width:2.6249;stroke-miterlimit:10;stroke-dasharray:5.2498,5.2498;}
	.st45{fill:none;stroke:#FFFFFF;stroke-width:2.8346;stroke-miterlimit:10;stroke-dasharray:5.6693,5.6693;}
	.st46{fill:none;stroke:#222433;stroke-width:2.8346;stroke-miterlimit:10;stroke-dasharray:5.6693,5.6693;}
	.st47{fill:url(#SVGID_00000172431182123660692530000016323046393159408544_);}
	.st48{fill:url(#SVGID_00000124852787482692609490000000490052830326691492_);}
	.st49{fill:url(#SVGID_00000107583982332160452990000000390237844539681696_);}
	.st50{fill:url(#SVGID_00000015341464476718205360000000906297476241585026_);}
	.st51{fill:#222433;stroke:#FF7F36;stroke-width:1.4062;stroke-miterlimit:10;}
	.st52{fill:none;stroke:#222433;stroke-width:1.932;stroke-miterlimit:10;}
	.st53{fill:#222433;stroke:#22A966;stroke-miterlimit:10;}
	.st54{fill:none;stroke:#FF7F36;stroke-width:5.3681;stroke-miterlimit:10;}
	.st55{fill:none;stroke:#FF7F36;stroke-width:5.6693;stroke-miterlimit:10;}
</style>
<g>
	<g>
		<path class="st1" d="M984.66,542.86c3.78-0.08,7.56-0.11,11.34-0.11v559.9L984.66,542.86z"/>
	</g>
	<g>
		<path class="st14" d="M962.16,543.77c7.5-0.45,15-0.76,22.51-0.91L996,1102.64L962.16,543.77z"/>
	</g>
	<g>
		<path class="st6" d="M923.97,547.4c12.68-1.65,25.42-2.86,38.18-3.63L996,1102.64L923.97,547.4z"/>
	</g>
	<g>
		<path class="st42" d="M852.76,561.38c23.41-6.2,47.2-10.87,71.22-13.98L996,1102.64L852.76,561.38z"/>
	</g>
	<g>
		<path class="st10" d="M436.3,1117.3c-6.79-259.43,165.58-489.53,416.46-555.92L996,1102.64L436.3,1117.3z"/>
	</g>
	<g>
		<path class="st4" d="M996,542.75c307.32,0,557.19,247.71,559.88,555.01c2.68,307.3-242.83,559.33-550.1,564.7
			S444.34,1424.51,436.3,1117.3l559.7-14.66V542.75z"/>
	</g>
</g>
<g>
	<path class="st1" d="M1648.47,1419.54l-19.29,45.51l-11.12-3.73l17.66-40.84h-21.24v-9.26h33.99V1419.54z"/>
	<path class="st1" d="M1689.07,1452.44h-5.91v11.36h-11.98l-0.08-11.36h-22.17v-8.17l14.94-34.38l10.42,3.89l-12.68,29.48h9.65
		l1.32-12.45h10.58v12.45h5.91V1452.44z"/>
	<path class="st1" d="M1707.04,1458.04c0,3.89-3.11,7.08-7,7.08c-3.97,0-7.08-3.19-7.08-7.08c0-3.81,3.11-7,7.08-7
		C1703.92,1451.04,1707.04,1454.23,1707.04,1458.04z"/>
	<path class="st1" d="M1750.52,1445.83c0,10.74-7.31,19.29-19.06,19.29c-13.92,0-19.91-10.27-19.91-25.36
		c0-17.81,8.63-29.64,22.87-29.64c4.98,0,8.95,1.48,11.98,3.5l-4.51,7.31c-2.18-1.24-4.43-2.02-7.16-2.02
		c-5.91,0-9.72,5.13-10.42,14.31c3.27-3.34,7.16-4.82,11.12-4.82C1744.06,1428.41,1750.52,1434.71,1750.52,1445.83z
		 M1738.23,1445.99c0-6.77-2.18-9.1-6.22-9.1c-2.8,0-5.45,1.48-7.7,4.12c0.16,10.97,2.02,15.32,7.31,15.32
		C1736.05,1456.33,1738.23,1452.21,1738.23,1445.99z"/>
	<path class="st1" d="M1793.3,1424.13c0,8.56-6.07,14-13.85,14c-7.7,0-13.85-5.45-13.85-14s6.15-14,13.85-14
		C1787.23,1410.13,1793.3,1415.57,1793.3,1424.13z M1774.4,1424.13c0,3.27,1.01,6.61,5.06,6.61c4.04,0,4.98-3.27,4.98-6.61
		c0-3.27-0.93-6.61-4.98-6.61C1775.41,1417.52,1774.4,1420.78,1774.4,1424.13z M1818.66,1412.61l-36.02,54.3l-7.55-4.82l36.02-54.3
		L1818.66,1412.61z M1827.91,1451.12c0,8.63-6.07,14-13.85,14c-7.78,0-13.92-5.37-13.92-14c0-8.56,6.15-13.92,13.92-13.92
		C1821.85,1437.2,1827.91,1442.56,1827.91,1451.12z M1809.01,1451.12c0,3.27,1.01,6.69,5.06,6.69s4.98-3.34,4.98-6.69
		c0-3.27-0.93-6.53-4.98-6.53S1809.01,1447.85,1809.01,1451.12z"/>
</g>
<g>
	<path class="st1" d="M215.37,872.02c0,8.17-4.04,14.31-20.46,29.25h21.55l-1.24,9.41h-34.23v-8.71
		c17.66-17.43,21.78-22.17,21.78-28.71c0-4.28-2.65-6.84-6.77-6.84c-3.81,0-6.46,1.71-9.57,5.45l-7.23-5.76
		c4.2-5.52,10.19-9.1,18.05-9.1C208.99,857,215.37,863.85,215.37,872.02z"/>
	<path class="st1" d="M246.95,910.68h-12.06v-40.61L223.61,877l-5.37-8.17l17.74-10.74h10.97V910.68z"/>
	<path class="st1" d="M269.66,904.92c0,3.89-3.11,7.08-7,7.08c-3.97,0-7.08-3.19-7.08-7.08c0-3.81,3.11-7,7.08-7
		C266.55,897.92,269.66,901.11,269.66,904.92z"/>
	<path class="st1" d="M309.33,870.38c0,6.38-3.81,10.66-10.27,12.52c6.53,0.7,11.98,4.59,11.98,12.91c0,8.79-7.08,16.18-20.07,16.18
		c-7.93,0-13.92-2.96-18.05-7.93l6.61-6.46c3.5,3.5,6.61,5.06,10.73,5.06c4.82,0,8.17-2.8,8.17-7.62c0-5.52-3.03-7.55-8.56-7.55
		h-4.36l1.32-8.48h3.03c4.67,0,7.55-2.49,7.55-6.85c0-3.81-2.72-6.07-7-6.07c-3.89,0-7.16,1.56-10.27,4.59l-6.07-6.61
		c4.9-4.67,10.73-7.08,17.74-7.08C303.19,857,309.33,862.99,309.33,870.38z"/>
	<path class="st1" d="M359.19,871.01c0,8.56-6.07,14-13.85,14c-7.7,0-13.85-5.45-13.85-14s6.15-14,13.85-14
		C353.12,857,359.19,862.45,359.19,871.01z M340.29,871.01c0,3.27,1.01,6.61,5.06,6.61c4.05,0,4.98-3.27,4.98-6.61
		c0-3.27-0.93-6.61-4.98-6.61C341.3,864.4,340.29,867.66,340.29,871.01z M384.55,859.49l-36.02,54.3l-7.55-4.82l36.02-54.3
		L384.55,859.49z M393.8,898c0,8.63-6.07,14-13.85,14s-13.92-5.37-13.92-14c0-8.56,6.15-13.92,13.92-13.92S393.8,889.44,393.8,898z
		 M374.9,898c0,3.27,1.01,6.69,5.06,6.69c4.04,0,4.98-3.34,4.98-6.69c0-3.27-0.93-6.53-4.98-6.53
		C375.91,891.47,374.9,894.73,374.9,898z"/>
</g>
<g>
	<path class="st1" d="M332.43,448.99c0,8.17-4.04,14.31-20.46,29.25h21.55l-1.24,9.41h-34.23v-8.71
		c17.66-17.42,21.78-22.17,21.78-28.7c0-4.28-2.65-6.84-6.77-6.84c-3.81,0-6.46,1.71-9.57,5.45l-7.23-5.76
		c4.2-5.52,10.19-9.1,18.05-9.1C326.05,433.98,332.43,440.83,332.43,448.99z"/>
	<path class="st1" d="M352.34,481.9c0,3.89-3.11,7.08-7,7.08c-3.97,0-7.08-3.19-7.08-7.08c0-3.81,3.11-7,7.08-7
		C349.23,474.9,352.34,478.09,352.34,481.9z"/>
	<path class="st1" d="M376.61,487.65h-12.06v-40.61l-11.28,6.92l-5.37-8.17l17.74-10.74h10.97V487.65z"/>
	<path class="st1" d="M426.94,447.98c0,8.56-6.07,14-13.85,14c-7.7,0-13.85-5.44-13.85-14c0-8.56,6.15-14,13.85-14
		C420.87,433.98,426.94,439.43,426.94,447.98z M408.04,447.98c0,3.27,1.01,6.61,5.06,6.61c4.05,0,4.98-3.27,4.98-6.61
		c0-3.27-0.93-6.61-4.98-6.61C409.05,441.37,408.04,444.64,408.04,447.98z M452.3,436.47l-36.02,54.3l-7.55-4.82l36.02-54.3
		L452.3,436.47z M461.55,474.98c0,8.63-6.07,14-13.85,14s-13.92-5.37-13.92-14c0-8.56,6.15-13.92,13.92-13.92
		S461.55,466.42,461.55,474.98z M442.65,474.98c0,3.27,1.01,6.69,5.06,6.69c4.05,0,4.98-3.34,4.98-6.69c0-3.27-0.93-6.53-4.98-6.53
		C443.66,468.44,442.65,471.71,442.65,474.98z"/>
</g>
<g>
	<path class="st1" d="M665.89,312.74h-12.06v-40.61l-11.28,6.92l-5.37-8.17l17.74-10.74h10.97V312.74z"/>
	<path class="st1" d="M688.6,306.99c0,3.89-3.11,7.08-7,7.08c-3.97,0-7.08-3.19-7.08-7.08c0-3.81,3.11-7,7.08-7
		C685.49,299.99,688.6,303.18,688.6,306.99z"/>
	<path class="st1" d="M712.87,312.74h-12.06v-40.61l-11.28,6.92l-5.37-8.17l17.74-10.74h10.97V312.74z"/>
	<path class="st1" d="M764.75,273.07c0,8.56-6.07,14-13.85,14c-7.7,0-13.85-5.45-13.85-14s6.15-14,13.85-14
		C758.68,259.07,764.75,264.51,764.75,273.07z M745.85,273.07c0,3.27,1.01,6.61,5.06,6.61c4.04,0,4.98-3.27,4.98-6.61
		c0-3.27-0.93-6.61-4.98-6.61C746.86,266.46,745.85,269.73,745.85,273.07z M790.11,261.56l-36.02,54.3l-7.55-4.82l36.02-54.3
		L790.11,261.56z M799.37,300.06c0,8.63-6.07,14-13.85,14c-7.78,0-13.92-5.37-13.92-14c0-8.56,6.15-13.92,13.92-13.92
		C793.3,286.14,799.37,291.51,799.37,300.06z M780.46,300.06c0,3.27,1.01,6.69,5.06,6.69s4.98-3.34,4.98-6.69
		c0-3.27-0.93-6.53-4.98-6.53S780.46,296.8,780.46,300.06z"/>
</g>
<g>
	<path class="st1" d="M1151.7,107.98c0,17.58-6.92,27.54-19.84,27.54c-12.91,0-19.84-9.96-19.84-27.54
		c0-17.66,6.92-27.46,19.84-27.46C1144.78,80.52,1151.7,90.32,1151.7,107.98z M1124.63,107.98c0,13.92,2.1,18.44,7.23,18.44
		c5.06,0,7.23-4.2,7.23-18.44c0-14.31-2.18-18.36-7.23-18.36C1126.73,89.62,1124.63,94.06,1124.63,107.98z"/>
	<path class="st1" d="M1169.82,128.44c0,3.89-3.11,7.08-7,7.08c-3.97,0-7.08-3.19-7.08-7.08c0-3.81,3.11-7,7.08-7
		C1166.71,121.44,1169.82,124.63,1169.82,128.44z"/>
	<path class="st1" d="M1213.3,116.23c0,10.74-7.31,19.29-19.06,19.29c-13.92,0-19.91-10.27-19.91-25.36
		c0-17.81,8.63-29.64,22.87-29.64c4.98,0,8.95,1.48,11.98,3.5l-4.51,7.31c-2.18-1.24-4.43-2.02-7.16-2.02
		c-5.91,0-9.72,5.13-10.42,14.31c3.27-3.34,7.16-4.82,11.12-4.82C1206.85,98.8,1213.3,105.1,1213.3,116.23z M1201.01,116.38
		c0-6.77-2.18-9.1-6.22-9.1c-2.8,0-5.45,1.48-7.7,4.12c0.16,10.97,2.02,15.32,7.31,15.32
		C1198.84,126.73,1201.01,122.6,1201.01,116.38z"/>
	<path class="st1" d="M1262.31,94.52c0,8.56-6.07,14-13.85,14c-7.7,0-13.85-5.45-13.85-14s6.15-14,13.85-14
		C1256.24,80.52,1262.31,85.97,1262.31,94.52z M1243.4,94.52c0,3.27,1.01,6.61,5.06,6.61c4.04,0,4.98-3.27,4.98-6.61
		c0-3.27-0.93-6.61-4.98-6.61C1244.42,87.91,1243.4,91.18,1243.4,94.52z M1287.67,83.01l-36.02,54.3l-7.55-4.82l36.02-54.3
		L1287.67,83.01z M1296.92,121.52c0,8.63-6.07,14-13.85,14s-13.92-5.37-13.92-14c0-8.56,6.15-13.92,13.92-13.92
		S1296.92,112.96,1296.92,121.52z M1278.02,121.52c0,3.27,1.01,6.69,5.06,6.69c4.04,0,4.98-3.34,4.98-6.69
		c0-3.27-0.93-6.53-4.98-6.53C1279.03,114.98,1278.02,118.25,1278.02,121.52z"/>
</g>
<g>
	<path class="st1" d="M1322.33,380.1c0,17.58-6.92,27.54-19.84,27.54c-12.91,0-19.84-9.96-19.84-27.54
		c0-17.66,6.92-27.46,19.84-27.46C1315.41,352.64,1322.33,362.45,1322.33,380.1z M1295.26,380.1c0,13.92,2.1,18.44,7.23,18.44
		c5.06,0,7.23-4.2,7.23-18.44c0-14.31-2.18-18.36-7.23-18.36C1297.36,361.75,1295.26,366.18,1295.26,380.1z"/>
	<path class="st1" d="M1340.45,400.56c0,3.89-3.11,7.08-7,7.08c-3.97,0-7.08-3.19-7.08-7.08c0-3.81,3.11-7,7.08-7
		C1337.34,393.56,1340.45,396.75,1340.45,400.56z"/>
	<path class="st1" d="M1380.12,366.02c0,6.38-3.81,10.66-10.27,12.52c6.53,0.7,11.98,4.59,11.98,12.91
		c0,8.79-7.08,16.18-20.07,16.18c-7.93,0-13.92-2.96-18.05-7.93l6.61-6.46c3.5,3.5,6.61,5.06,10.73,5.06c4.82,0,8.17-2.8,8.17-7.62
		c0-5.52-3.03-7.55-8.56-7.55h-4.36l1.32-8.48h3.03c4.67,0,7.55-2.49,7.55-6.85c0-3.81-2.72-6.07-7-6.07
		c-3.89,0-7.16,1.56-10.27,4.59l-6.07-6.61c4.9-4.67,10.74-7.08,17.74-7.08C1373.98,352.64,1380.12,358.63,1380.12,366.02z"/>
	<path class="st1" d="M1414.43,366.65c0,8.56-6.07,14-13.85,14c-7.7,0-13.85-5.44-13.85-14c0-8.56,6.15-14,13.85-14
		C1408.36,352.64,1414.43,358.09,1414.43,366.65z M1395.52,366.65c0,3.27,1.01,6.61,5.06,6.61c4.04,0,4.98-3.27,4.98-6.61
		c0-3.27-0.93-6.61-4.98-6.61C1396.53,360.03,1395.52,363.3,1395.52,366.65z M1439.78,355.13l-36.02,54.3l-7.55-4.82l36.02-54.3
		L1439.78,355.13z M1449.04,393.64c0,8.63-6.07,14-13.85,14s-13.92-5.37-13.92-14c0-8.56,6.15-13.92,13.92-13.92
		S1449.04,385.08,1449.04,393.64z M1430.14,393.64c0,3.27,1.01,6.69,5.06,6.69c4.04,0,4.98-3.34,4.98-6.69
		c0-3.27-0.93-6.53-4.98-6.53C1431.15,387.11,1430.14,390.37,1430.14,393.64z"/>
</g>
<g>
	<g>
		<path class="st4" d="M559.8,1979.03c0-10.37,8.4-18.77,18.77-18.77h0c10.37,0,18.77,8.4,18.77,18.77l0,0
			c0,10.37-8.4,18.77-18.77,18.77h0C568.2,1997.8,559.8,1989.4,559.8,1979.03L559.8,1979.03z"/>
	</g>
	<g>
		<path class="st10" d="M559.8,2070.78c0-10.37,8.4-18.77,18.77-18.77h0c10.37,0,18.77,8.4,18.77,18.77l0,0
			c0,10.37-8.4,18.77-18.77,18.77h0C568.2,2089.55,559.8,2081.14,559.8,2070.78L559.8,2070.78z"/>
	</g>
	<g>
		<path class="st42" d="M559.8,2164.04c0-10.37,8.4-18.77,18.77-18.77h0c10.37,0,18.77,8.4,18.77,18.77l0,0
			c0,10.37-8.4,18.77-18.77,18.77h0C568.2,2182.81,559.8,2174.4,559.8,2164.04L559.8,2164.04z"/>
	</g>
	<g>
		<path class="st1" d="M646.08,1988.87c0,5.27-4.21,8.3-10.23,8.3c-5.94,0-9.48-2.83-9.48-7c0-0.32,0.04-0.63,0.08-0.83l3.27,0.47
			v0.24c0,3.23,2.6,4.45,6.14,4.45c4.56,0,6.69-2.01,6.69-5.63c0-2.79-1.57-4.84-4.6-4.84h-1.02l0.35-2.6h1.02
			c2.83,0,4.76-2.01,4.76-5.98c0-3.5-1.73-5.2-4.05-5.2c-1.61,0-3.03,0.55-4.25,1.65c0.67,1.42,1.02,3.11,1.02,5
			c0,5.31-2.95,9.41-8.03,9.41c-5.15,0-7.99-3.94-7.99-9.41c0-5.23,2.91-9.33,8.03-9.33c2.44,0,4.33,0.87,5.71,2.4
			c1.57-1.65,3.54-2.4,5.71-2.4c4.13,0,7.28,3.15,7.28,7.79c0,4.09-2.2,6.65-5.31,7.36
			C644.38,1983.56,646.08,1985.61,646.08,1988.87z M632.38,1976.91c0-4.17-1.69-6.73-4.6-6.73c-2.95,0-4.64,2.56-4.64,6.73
			c0,4.25,1.61,6.81,4.6,6.81S632.38,1981.16,632.38,1976.91z"/>
		<path class="st1" d="M652.06,1959.71l3.31-0.51v19.99c0,4.8,1.38,7.48,5.12,7.48c3.27,0,4.92-2.44,4.92-6.14
			c0-5.86-4.53-7.24-4.53-12.47h3.31c0,4.17,4.64,5.67,4.64,12.47c0,4.8-2.75,8.74-8.38,8.74c-5.47,0-8.38-3.31-8.38-9.84V1959.71z"
			/>
		<path class="st1" d="M681.97,1967.58c5.31,0,8.3,3.82,8.3,9.76c0,4.84-1.26,8.54-2.48,11.41h-3.27c1.5-3.86,2.4-7.48,2.4-11.41
			c0-4.84-1.93-7.08-4.96-7.08c-3.07,0-5,2.28-5,7.08c0,3.86,0.91,7.48,2.36,11.41h-3.27c-1.22-2.95-2.44-6.65-2.44-11.41
			C673.63,1971.64,676.69,1967.58,681.97,1967.58z"/>
		<path class="st1" d="M710.97,1959.71v28.92c0,4.96-2.87,8.54-7.99,8.54c-5.59,0-8.07-3.78-8.07-7.75c0-1.93,0.55-3.66,1.26-5.08
			l2.83,0.75c-0.47,1.26-0.75,2.64-0.75,4.33c0,3.03,1.65,5.08,4.72,5.08c3.42,0,4.68-2.6,4.68-6.26v-15.11
			c-1.26-1.69-2.72-2.91-4.76-2.87c-2.87,0.04-4.01,1.93-4.01,4.45c0,1.18,0.24,2.16,0.59,3.11l-3.03,0.55
			c-0.55-1.14-0.94-2.52-0.94-3.86c0-4.13,3.31-6.93,6.73-6.93c2.44,0,4.09,1.18,5.43,2.72v-11.1L710.97,1959.71z"/>
		<path class="st1" d="M716.99,1977.38c0-7.12,3.27-9.8,6.97-9.8c3.23,0,5,1.46,5.67,4.6c0.47-3.11,2.52-4.6,5.35-4.6
			c3.94,0,7.24,2.87,7.24,9.8c0,4.8-1.26,8.5-2.44,11.37h-3.31c1.61-4.29,2.4-7.48,2.4-11.33c0-5.82-2.12-7.16-4.21-7.16
			c-2.09,0-3.5,1.3-3.5,4.8v6.93l-3.15,0.35v-7.28c0-3.97-1.53-4.8-3.58-4.8c-2.6,0-4.09,2.05-4.09,7.08
			c0,3.94,0.67,7.12,2.28,11.41h-3.27C718.14,1985.8,716.99,1982.18,716.99,1977.38z"/>
		<path class="st1" d="M782.32,1976.63c0,4.21-0.71,7.12-1.77,9.48l-2.87-0.75c0.87-2.75,1.3-5.19,1.3-8.7
			c0-5.08-2.05-6.42-4.09-6.42c-1.93,0-3.46,1.34-3.46,4.45v7.36l-3.15,0.28v-7.67c0-3.07-1.5-4.41-3.5-4.41
			c-2.05,0-3.54,1.34-3.54,4.45v7.28l-3.19,0.35v-7.63c0-3.11-1.42-4.45-3.46-4.45c-2.56,0-4.01,2.4-4.01,6.93
			c0,8.3,6.1,10.62,11.41,12.32c3.42,1.1,8.22,2.75,10.51,5.9l-2.09,1.77c-3.15-3.5-6.34-4.53-9.68-4.57
			c-2.83,0-5.19,0.87-7.36,2.16l-0.98-2.99c1.97-0.91,3.78-1.3,6.38-1.26c-6.22-1.34-11.49-5.16-11.49-13.46
			c0-6.69,3.23-9.48,6.97-9.48c2.91,0,4.8,1.46,5.43,4.45c0.51-2.95,2.32-4.45,5.04-4.45c2.99,0,4.53,1.46,5.19,4.45
			c0.47-2.95,2.48-4.45,5.27-4.45C778.9,1967.58,782.32,1970.42,782.32,1976.63z"/>
		<path class="st1" d="M787.32,1977.38c0-7.12,3.27-9.8,6.97-9.8c3.23,0,5,1.46,5.67,4.6c0.47-3.11,2.52-4.6,5.35-4.6
			c3.94,0,7.24,2.87,7.24,9.8c0,4.8-1.26,8.5-2.44,11.37h-3.31c1.61-4.29,2.4-7.48,2.4-11.33c0-5.82-2.12-7.16-4.21-7.16
			c-2.09,0-3.5,1.3-3.5,4.8v6.93l-3.15,0.35v-7.28c0-3.97-1.53-4.8-3.58-4.8c-2.6,0-4.09,2.05-4.09,7.08
			c0,3.94,0.67,7.12,2.28,11.41h-3.27C788.46,1985.8,787.32,1982.18,787.32,1977.38z"/>
		<path class="st1" d="M834.39,1987.34c0,6.26-3.62,9.84-9.01,9.84c-5.75,0-8.97-4.17-8.97-9.8c0-5.04,2.52-8.11,7.52-10.23
			c3.94-1.65,4.68-2.6,4.68-4.41c0-1.38-0.98-2.64-3.23-2.64c-2.48,0-3.54,1.26-3.54,2.79c0,0.55,0.04,0.91,0.12,1.14l-3.07,0.79
			c-0.28-0.59-0.43-1.22-0.43-1.97c0-3.23,3.15-5.27,6.93-5.27c4.05,0,6.69,2.17,6.69,5.27c0,2.16-0.87,3.82-3.78,5.31
			C831.83,1979.86,834.39,1982.69,834.39,1987.34z M830.81,1987.34c0-4.21-1.73-6.57-4.6-8.26c-4.8,1.97-6.34,4.33-6.34,8.3
			c0,4.72,2.09,7.12,5.51,7.12C829,1994.5,830.81,1991.94,830.81,1987.34z"/>
		<path class="st1" d="M846.55,1967.58c5.31,0,8.3,3.82,8.3,9.76c0,4.84-1.26,8.54-2.48,11.41h-3.27c1.5-3.86,2.4-7.48,2.4-11.41
			c0-4.84-1.93-7.08-4.96-7.08c-3.07,0-5,2.28-5,7.08c0,3.86,0.91,7.48,2.36,11.41h-3.27c-1.22-2.95-2.44-6.65-2.44-11.41
			C838.21,1971.64,841.28,1967.58,846.55,1967.58z"/>
		<path class="st1" d="M875.87,1973.53v15.23c0,5-3.19,8.42-8.26,8.42c-0.04,0-0.04,0-0.04,0c-5.55,0-8.03-3.78-8.03-7.75
			c0-1.93,0.55-3.66,1.26-5.08l2.83,0.75c-0.47,1.3-0.75,2.64-0.75,4.33c0,3.03,1.65,5.08,4.68,5.08c3.42,0,5-2.36,5-6.06v-14.84
			c0-2.4-0.94-3.42-2.72-3.42c-1.65,0-2.72,0.94-2.72,3.15v4.92l-3.19,0.39v-5.82c0-1.69-0.67-2.36-1.89-2.36
			c-0.67,0-1.22,0.16-1.85,0.16c-0.59,0-1.22-0.12-1.81-0.51l0.35-2.48c0.47,0.16,0.87,0.2,1.22,0.2c0.75,0,1.38-0.24,2.36-0.24
			c1.38,0,2.87,0.63,3.31,3.11c0.71-2.44,2.44-3.11,4.49-3.11C873.11,1967.58,875.87,1969.28,875.87,1973.53z"/>
		<path class="st1" d="M881.69,1976.67c0-8.22,2.32-12.67,8.26-14.72c3.11-1.06,7.28-1.34,9.41-2.68l1.42,2.48
			c-2.79,1.57-6.45,1.65-10.07,2.87c-2.12,0.71-4.84,2.32-5.94,6.14c1.38-2.24,2.91-2.71,4.49-2.71c2.64,0,4.41,1.46,5.08,4.6
			c0.59-3.15,2.56-4.6,5.47-4.6c3.86,0,7.12,2.83,7.12,8.93c0,5.19-1.26,8.89-2.44,11.77h-3.31c1.61-4.29,2.4-7.48,2.4-11.73
			c0-5-2.09-6.3-4.09-6.3c-2.16,0-3.62,1.34-3.62,4.8v6.45l-3.15,0.35v-6.85c0-3.78-1.53-4.76-3.5-4.76c-2.75,0-4.17,2.12-4.17,6.65
			c0,3.9,0.67,7.08,2.28,11.37h-3.27C882.84,1985.8,881.69,1982.18,881.69,1976.67z"/>
		<path class="st1" d="M920.3,1967.58c5.31,0,8.3,3.82,8.3,9.76c0,4.84-1.26,8.54-2.48,11.41h-3.27c1.5-3.86,2.4-7.48,2.4-11.41
			c0-4.84-1.93-7.08-4.96-7.08c-3.07,0-5,2.28-5,7.08c0,3.86,0.91,7.48,2.36,11.41h-3.27c-1.22-2.95-2.44-6.65-2.44-11.41
			C911.96,1971.64,915.03,1967.58,920.3,1967.58z"/>
	</g>
	<g>
		<path class="st1" d="M646.08,2081.39c0,5.27-4.21,8.3-10.23,8.3c-5.94,0-9.48-2.83-9.48-7c0-0.32,0.04-0.63,0.08-0.83l3.27,0.47
			v0.24c0,3.23,2.6,4.45,6.14,4.45c4.56,0,6.69-2.01,6.69-5.63c0-2.79-1.57-4.84-4.6-4.84h-1.02l0.35-2.6h1.02
			c2.83,0,4.76-2.01,4.76-5.98c0-3.5-1.73-5.2-4.05-5.2c-1.61,0-3.03,0.55-4.25,1.65c0.67,1.42,1.02,3.11,1.02,5
			c0,5.31-2.95,9.41-8.03,9.41c-5.15,0-7.99-3.94-7.99-9.41c0-5.23,2.91-9.33,8.03-9.33c2.44,0,4.33,0.87,5.71,2.4
			c1.57-1.65,3.54-2.4,5.71-2.4c4.13,0,7.28,3.15,7.28,7.79c0,4.09-2.2,6.65-5.31,7.36
			C644.38,2076.08,646.08,2078.12,646.08,2081.39z M632.38,2069.43c0-4.17-1.69-6.73-4.6-6.73c-2.95,0-4.64,2.56-4.64,6.73
			c0,4.25,1.61,6.81,4.6,6.81S632.38,2073.68,632.38,2069.43z"/>
		<path class="st1" d="M659.61,2060.1c5.31,0,8.3,3.82,8.3,9.76c0,4.84-1.26,8.54-2.48,11.41h-3.27c1.5-3.86,2.4-7.48,2.4-11.41
			c0-4.84-1.93-7.08-4.96-7.08c-3.07,0-5,2.28-5,7.08c0,3.86,0.91,7.48,2.36,11.41h-3.27c-1.22-2.95-2.44-6.65-2.44-11.41
			C651.27,2064.15,654.34,2060.1,659.61,2060.1z"/>
		<path class="st1" d="M691.73,2071.28c0,6.14-3.23,10.47-8.89,10.47c-5.67,0-8.85-4.21-8.85-10.27c0-2.28,0.59-4.25,1.65-5.9
			c-2.79-1.65-5.15-3.74-5.15-7.36c0-3.38,2.44-6.49,6.97-6.49c4.13,0,6.77,2.68,6.77,5.86c0,1.42-0.39,2.6-1.06,3.7
			c0.24-0.04,0.43-0.08,0.63-0.08C688.19,2061.2,691.73,2065.41,691.73,2071.28z M677.05,2063.72c0.35-0.39,0.75-0.79,1.14-1.14
			c1.97-1.73,2.75-2.95,2.75-5c0-2.05-1.34-3.34-3.5-3.34c-2.4,0-3.7,1.69-3.7,3.97C673.74,2060.89,675.32,2062.7,677.05,2063.72z
			 M688.15,2071.28c0-4.76-1.85-7.56-5.31-7.56c-0.63,0-1.3,0.12-1.93,0.31c-0.24,0.2-0.47,0.43-0.71,0.67
			c-2.01,1.85-2.68,4.01-2.68,6.65c0,5.08,1.89,7.71,5.31,7.71S688.15,2076.43,688.15,2071.28z"/>
		<path class="st1" d="M704.87,2060.1c5.31,0,8.3,3.82,8.3,9.76c0,4.84-1.26,8.54-2.48,11.41h-3.27c1.5-3.86,2.4-7.48,2.4-11.41
			c0-4.84-1.93-7.08-4.96-7.08c-3.07,0-5,2.28-5,7.08c0,3.86,0.91,7.48,2.36,11.41h-3.27c-1.22-2.95-2.44-6.65-2.44-11.41
			C696.53,2064.15,699.6,2060.1,704.87,2060.1z"/>
		<path class="st1" d="M732.38,2080.92c0,4.92-3.11,8.78-8.46,8.78c-5.71,0-8.3-3.5-8.3-7.56c0-1.69,0.39-3.03,1.1-4.37l2.83,0.75
			c-0.39,1.06-0.63,2.17-0.63,3.58c0,2.95,1.73,4.92,5,4.92c3.66,0,5-2.87,5-6.33c0-3.54-1.61-6.42-5.51-6.42h-2.12l0.2-2.68h1.85
			c2.72,0,4.92-1.54,4.92-4.33c0-2.36-1.34-3.86-4.25-4.72l1.1-2.52c3.74,0.98,6.45,3.23,6.45,7.04c0,3.34-2.16,5.16-5.08,5.82
			C729.9,2073.48,732.38,2076,732.38,2080.92z"/>
		<path class="st1" d="M753,2066.04v15.23c0,5-3.19,8.42-8.26,8.42c-0.04,0-0.04,0-0.04,0c-5.55,0-8.03-3.78-8.03-7.75
			c0-1.93,0.55-3.66,1.26-5.08l2.83,0.75c-0.47,1.3-0.75,2.64-0.75,4.33c0,3.03,1.65,5.08,4.68,5.08c3.42,0,5-2.36,5-6.06v-14.84
			c0-2.4-0.94-3.42-2.72-3.42c-1.65,0-2.72,0.94-2.72,3.15v4.92l-3.19,0.39v-5.82c0-1.69-0.67-2.36-1.89-2.36
			c-0.67,0-1.22,0.16-1.85,0.16c-0.59,0-1.22-0.12-1.81-0.51l0.35-2.48c0.47,0.16,0.87,0.2,1.22,0.2c0.75,0,1.38-0.24,2.36-0.24
			c1.38,0,2.87,0.63,3.31,3.11c0.71-2.44,2.44-3.11,4.49-3.11C750.25,2060.1,753,2061.79,753,2066.04z"/>
		<path class="st1" d="M758.83,2069.19c0-8.22,2.32-12.67,8.26-14.72c3.11-1.06,7.28-1.34,9.41-2.68l1.42,2.48
			c-2.79,1.57-6.45,1.65-10.07,2.87c-2.12,0.71-4.84,2.32-5.94,6.14c1.38-2.24,2.91-2.71,4.49-2.71c2.64,0,4.41,1.46,5.08,4.6
			c0.59-3.15,2.56-4.6,5.47-4.6c3.86,0,7.12,2.83,7.12,8.93c0,5.19-1.26,8.89-2.44,11.77h-3.31c1.61-4.29,2.4-7.48,2.4-11.73
			c0-5-2.09-6.3-4.09-6.3c-2.16,0-3.62,1.34-3.62,4.8v6.45l-3.15,0.35v-6.85c0-3.78-1.53-4.76-3.5-4.76c-2.75,0-4.17,2.12-4.17,6.65
			c0,3.9,0.67,7.08,2.28,11.37h-3.27C759.97,2078.32,758.83,2074.7,758.83,2069.19z"/>
		<path class="st1" d="M797.43,2060.1c5.31,0,8.3,3.82,8.3,9.76c0,4.84-1.26,8.54-2.48,11.41h-3.27c1.5-3.86,2.4-7.48,2.4-11.41
			c0-4.84-1.93-7.08-4.96-7.08c-3.07,0-5,2.28-5,7.08c0,3.86,0.91,7.48,2.36,11.41h-3.27c-1.22-2.95-2.44-6.65-2.44-11.41
			C789.09,2064.15,792.16,2060.1,797.43,2060.1z"/>
	</g>
	<g>
		<path class="st1" d="M636,2158.72v13.26c0,4.96-2.91,8.54-7.99,8.54c-5.59,0-8.07-3.78-8.07-7.75c0-1.93,0.55-3.66,1.26-5.08
			l2.83,0.75c-0.47,1.26-0.75,2.64-0.75,4.33c0,3.03,1.65,5.08,4.72,5.08c3.38,0,4.68-2.6,4.68-6.26v-12.67
			c0-3.07-1.22-5.31-4.41-5.31s-4.41,2.09-4.41,4.25c0,1.34,0.28,2.36,0.55,3.23l-2.99,0.63c-0.55-1.14-0.94-2.52-0.94-3.86
			c0-4.17,3.42-6.93,7.79-6.93C632.77,2150.92,636,2153.88,636,2158.72z"/>
		<path class="st1" d="M656.78,2171.74c0,4.92-3.11,8.78-8.46,8.78c-5.71,0-8.3-3.5-8.3-7.56c0-1.69,0.39-3.03,1.1-4.37l2.83,0.75
			c-0.39,1.06-0.63,2.17-0.63,3.58c0,2.95,1.73,4.92,5,4.92c3.66,0,5-2.87,5-6.33c0-3.54-1.61-6.42-5.51-6.42h-2.12l0.2-2.68h1.85
			c2.71,0,4.92-1.54,4.92-4.33c0-2.36-1.34-3.86-4.25-4.72l1.1-2.52c3.74,0.98,6.45,3.23,6.45,7.04c0,3.34-2.16,5.16-5.08,5.82
			C654.3,2164.3,656.78,2166.82,656.78,2171.74z"/>
		<path class="st1" d="M661.42,2160.72c0-7.12,3.27-9.8,6.97-9.8c3.23,0,5,1.46,5.67,4.6c0.47-3.11,2.52-4.6,5.35-4.6
			c3.94,0,7.24,2.87,7.24,9.8c0,4.8-1.26,8.5-2.44,11.37h-3.31c1.61-4.29,2.4-7.48,2.4-11.33c0-5.82-2.12-7.16-4.21-7.16
			c-2.09,0-3.5,1.3-3.5,4.8v6.93l-3.15,0.35v-7.28c0-3.97-1.53-4.8-3.58-4.8c-2.6,0-4.09,2.05-4.09,7.08
			c0,3.94,0.67,7.12,2.28,11.41h-3.27C662.57,2169.14,661.42,2165.52,661.42,2160.72z"/>
		<path class="st1" d="M709.4,2161.9c0,6.77-3.31,10.7-8.58,10.7c-5.47,0-8.3-3.54-8.34-10.07v-14.05c0-3.9,2.72-5.94,6.38-5.94
			c2.52,0,4.13,0.55,5.82,0.55c0.75,0,1.61-0.12,2.87-0.55l0.39,2.4c-1.22,0.55-2.24,0.71-3.23,0.71c-2.32,0-3.54-0.51-5.67-0.51
			s-3.27,1.22-3.27,3.54v5c1.42-1.54,3.19-2.75,5.71-2.75C706.68,2150.92,709.4,2155.57,709.4,2161.9z M705.86,2161.9
			c0-5.67-1.85-8.3-4.92-8.3c-2.24,0-3.82,1.14-5.16,2.91v5.59c0,5.35,1.65,7.83,5.04,7.83S705.86,2167.41,705.86,2161.9z"/>
		<path class="st1" d="M715.22,2160.72c0-7.12,3.27-9.8,6.97-9.8c3.23,0,5,1.46,5.67,4.6c0.47-3.11,2.52-4.6,5.35-4.6
			c3.94,0,7.24,2.87,7.24,9.8c0,4.8-1.26,8.5-2.44,11.37h-3.31c1.61-4.29,2.4-7.48,2.4-11.33c0-5.82-2.12-7.16-4.21-7.16
			c-2.09,0-3.5,1.3-3.5,4.8v6.93l-3.15,0.35v-7.28c0-3.97-1.53-4.8-3.58-4.8c-2.6,0-4.09,2.05-4.09,7.08
			c0,3.94,0.67,7.12,2.28,11.41h-3.27C716.36,2169.14,715.22,2165.52,715.22,2160.72z"/>
		<path class="st1" d="M762.41,2150.1v12.28c0,6.65-3.15,10.23-8.34,10.23c-5.59,0-8.58-3.9-8.58-10.62
			c0-5.71,2.75-10.59,7.95-10.59c2.52,0,4.33,1.26,5.67,2.75v-3.82c0-2.95-1.1-5.19-4.92-5.19c-3.07,0-4.68,1.42-4.68,3.34
			c0,0.16,0,0.28,0.04,0.55l-3.11,0.39c-0.08-0.28-0.12-0.55-0.12-0.91c0-3.82,3.38-5.98,7.87-5.98
			C759.06,2142.54,762.41,2145.41,762.41,2150.1z M759.1,2162.1v-5.12c-1.3-1.73-2.87-2.91-5.12-2.91c-3.11,0-4.96,2.87-4.96,7.91
			c0,5.47,1.65,7.95,5.04,7.95C757.45,2169.93,759.1,2167.45,759.1,2162.1z"/>
		<path class="st1" d="M776.58,2150.92c5.31,0,8.3,3.82,8.3,9.76c0,4.84-1.26,8.54-2.48,11.41h-3.27c1.5-3.86,2.4-7.48,2.4-11.41
			c0-4.84-1.93-7.08-4.96-7.08c-3.07,0-5,2.28-5,7.08c0,3.86,0.91,7.48,2.36,11.41h-3.27c-1.22-2.95-2.44-6.65-2.44-11.41
			C768.23,2154.98,771.3,2150.92,776.58,2150.92z"/>
		<path class="st1" d="M804.08,2171.74c0,4.92-3.11,8.78-8.46,8.78c-5.71,0-8.3-3.5-8.3-7.56c0-1.69,0.39-3.03,1.1-4.37l2.83,0.75
			c-0.39,1.06-0.63,2.17-0.63,3.58c0,2.95,1.73,4.92,5,4.92c3.66,0,5-2.87,5-6.33c0-3.54-1.61-6.42-5.51-6.42h-2.12l0.2-2.68h1.85
			c2.72,0,4.92-1.54,4.92-4.33c0-2.36-1.34-3.86-4.25-4.72l1.1-2.52c3.74,0.98,6.45,3.23,6.45,7.04c0,3.34-2.16,5.16-5.08,5.82
			C801.61,2164.3,804.08,2166.82,804.08,2171.74z"/>
		<path class="st1" d="M824.71,2156.87v15.23c0,5-3.19,8.42-8.26,8.42c-0.04,0-0.04,0-0.04,0c-5.55,0-8.03-3.78-8.03-7.75
			c0-1.93,0.55-3.66,1.26-5.08l2.83,0.75c-0.47,1.3-0.75,2.64-0.75,4.33c0,3.03,1.65,5.08,4.68,5.08c3.42,0,5-2.36,5-6.06v-14.84
			c0-2.4-0.94-3.42-2.72-3.42c-1.65,0-2.72,0.94-2.72,3.15v4.92l-3.19,0.39v-5.82c0-1.69-0.67-2.36-1.89-2.36
			c-0.67,0-1.22,0.16-1.85,0.16c-0.59,0-1.22-0.12-1.81-0.51l0.35-2.48c0.47,0.16,0.87,0.2,1.22,0.2c0.75,0,1.38-0.24,2.36-0.24
			c1.38,0,2.87,0.63,3.31,3.11c0.71-2.44,2.44-3.11,4.49-3.11C821.95,2150.92,824.71,2152.62,824.71,2156.87z"/>
		<path class="st1" d="M830.53,2160.01c0-8.22,2.32-12.67,8.26-14.72c3.11-1.06,7.28-1.34,9.41-2.68l1.42,2.48
			c-2.79,1.57-6.45,1.65-10.07,2.87c-2.12,0.71-4.84,2.32-5.94,6.14c1.38-2.24,2.91-2.71,4.49-2.71c2.64,0,4.41,1.46,5.08,4.6
			c0.59-3.15,2.56-4.6,5.47-4.6c3.86,0,7.12,2.83,7.12,8.93c0,5.19-1.26,8.89-2.44,11.77h-3.31c1.61-4.29,2.4-7.48,2.4-11.73
			c0-5-2.09-6.3-4.09-6.3c-2.16,0-3.62,1.34-3.62,4.8v6.45l-3.15,0.35v-6.85c0-3.78-1.53-4.76-3.5-4.76c-2.75,0-4.17,2.12-4.17,6.65
			c0,3.9,0.67,7.08,2.28,11.37h-3.27C831.67,2169.14,830.53,2165.52,830.53,2160.01z"/>
		<path class="st1" d="M869.14,2150.92c5.31,0,8.3,3.82,8.3,9.76c0,4.84-1.26,8.54-2.48,11.41h-3.27c1.5-3.86,2.4-7.48,2.4-11.41
			c0-4.84-1.93-7.08-4.96-7.08c-3.07,0-5,2.28-5,7.08c0,3.86,0.91,7.48,2.36,11.41h-3.27c-1.22-2.95-2.44-6.65-2.44-11.41
			C860.79,2154.98,863.86,2150.92,869.14,2150.92z"/>
	</g>
	<g>
		<g>
			<path class="st6" d="M1094.37,1978.09c0-10.37,8.4-18.77,18.77-18.77l0,0c10.37,0,18.77,8.4,18.77,18.77v0
				c0,10.37-8.4,18.77-18.77,18.77l0,0C1102.78,1996.86,1094.37,1988.45,1094.37,1978.09L1094.37,1978.09z"/>
		</g>
		<g>
			<path class="st14" d="M1094.37,2067.65c0-10.37,8.4-18.77,18.77-18.77l0,0c10.37,0,18.77,8.4,18.77,18.77l0,0
				c0,10.37-8.4,18.77-18.77,18.77l0,0C1102.78,2086.42,1094.37,2078.01,1094.37,2067.65L1094.37,2067.65z"/>
		</g>
		<g>
			<path class="st1" d="M1094.37,2161.25c0-10.37,8.4-18.77,18.77-18.77l0,0c10.37,0,18.77,8.4,18.77,18.77l0,0
				c0,10.37-8.4,18.77-18.77,18.77l0,0C1102.78,2180.01,1094.37,2171.61,1094.37,2161.25L1094.37,2161.25z"/>
		</g>
		<g>
			<path class="st1" d="M1163.25,1972.17c5.31,0,8.3,3.82,8.3,9.76c0,4.84-1.26,8.54-2.48,11.41h-3.27c1.5-3.86,2.4-7.48,2.4-11.41
				c0-4.84-1.93-7.08-4.96-7.08c-3.07,0-5,2.28-5,7.08c0,3.86,0.91,7.48,2.36,11.41h-3.27c-1.22-2.95-2.44-6.65-2.44-11.41
				C1154.91,1976.22,1157.98,1972.17,1163.25,1972.17z"/>
			<path class="st1" d="M1193.52,1964.3v19.32c0,6.65-3.15,10.23-8.34,10.23c-5.55,0-8.58-3.94-8.58-10.62
				c0-6.3,2.83-11.06,8.07-11.06c2.48,0,4.21,1.26,5.55,2.75v-11.14L1193.52,1964.3z M1190.21,1983.3v-5.55
				c-1.3-1.73-2.87-2.91-5.12-2.91c-3.11,0-4.96,2.75-4.96,8.38c0,5.43,1.65,7.95,5.04,7.95
				C1188.56,1991.18,1190.21,1988.66,1190.21,1983.3z"/>
			<path class="st1" d="M1215.32,1978.11v15.23c0,5-3.19,8.42-8.26,8.42c-0.04,0-0.04,0-0.04,0c-5.55,0-8.03-3.78-8.03-7.75
				c0-1.93,0.55-3.66,1.26-5.08l2.83,0.75c-0.47,1.3-0.75,2.64-0.75,4.33c0,3.03,1.65,5.08,4.68,5.08c3.42,0,5-2.36,5-6.06v-14.84
				c0-2.4-0.94-3.42-2.72-3.42c-1.65,0-2.72,0.94-2.72,3.15v4.92l-3.19,0.39v-5.82c0-1.69-0.67-2.36-1.89-2.36
				c-0.67,0-1.22,0.16-1.85,0.16c-0.59,0-1.22-0.12-1.81-0.51l0.35-2.48c0.47,0.16,0.87,0.2,1.22,0.2c0.75,0,1.38-0.24,2.36-0.24
				c1.38,0,2.87,0.63,3.31,3.11c0.71-2.44,2.44-3.11,4.49-3.11C1212.56,1972.17,1215.32,1973.86,1215.32,1978.11z"/>
			<path class="st1" d="M1256.21,1981.22c0,4.21-0.71,7.12-1.77,9.48l-2.87-0.75c0.87-2.75,1.3-5.19,1.3-8.7
				c0-5.08-2.05-6.42-4.09-6.42c-1.93,0-3.46,1.34-3.46,4.45v7.36l-3.15,0.28v-7.67c0-3.07-1.5-4.41-3.5-4.41
				c-2.05,0-3.54,1.34-3.54,4.45v7.28l-3.19,0.35v-7.63c0-3.11-1.42-4.45-3.46-4.45c-2.56,0-4.01,2.4-4.01,6.93
				c0,8.3,6.1,10.62,11.41,12.32c3.42,1.1,8.22,2.75,10.51,5.9l-2.09,1.77c-3.15-3.5-6.34-4.53-9.68-4.57
				c-2.83,0-5.19,0.87-7.36,2.16l-0.98-2.99c1.97-0.91,3.78-1.3,6.38-1.26c-6.22-1.34-11.49-5.16-11.49-13.46
				c0-6.69,3.23-9.48,6.97-9.48c2.91,0,4.8,1.46,5.43,4.45c0.51-2.95,2.32-4.45,5.04-4.45c2.99,0,4.53,1.46,5.19,4.45
				c0.47-2.95,2.48-4.45,5.27-4.45C1252.78,1972.17,1256.21,1975,1256.21,1981.22z"/>
			<path class="st1" d="M1276.87,1979.96v13.26c0,4.96-2.91,8.54-7.99,8.54c-5.59,0-8.07-3.78-8.07-7.75c0-1.93,0.55-3.66,1.26-5.08
				l2.83,0.75c-0.47,1.26-0.75,2.64-0.75,4.33c0,3.03,1.65,5.08,4.72,5.08c3.38,0,4.68-2.6,4.68-6.26v-12.67
				c0-3.07-1.22-5.31-4.41-5.31s-4.41,2.09-4.41,4.25c0,1.34,0.28,2.36,0.55,3.23l-2.99,0.63c-0.55-1.14-0.94-2.52-0.94-3.86
				c0-4.17,3.42-6.93,7.79-6.93C1273.64,1972.17,1276.87,1975.12,1276.87,1979.96z"/>
			<path class="st1" d="M1300.72,1982.95c0,6.53-3.31,10.86-9.13,10.86c-5.78,0-9.09-4.21-9.09-10.78c0-6.06,2.91-10.27,7.99-10.78
				c0.08-0.39,0.16-0.83,0.16-1.54c0-2.48-3.35-2.75-3.35-6.41l3.27-0.35c0,2.87,3.31,3.38,3.31,6.61c0,0.67-0.2,1.26-0.43,1.77
				C1298.12,1973.11,1300.72,1977.05,1300.72,1982.95z M1297.17,1982.95c0-5.47-1.97-8.11-5.55-8.11c-3.54,0-5.59,2.64-5.59,8.19
				c0,5.47,1.97,8.11,5.55,8.11S1297.17,1988.5,1297.17,1982.95z"/>
			<path class="st1" d="M1320.94,1986.41c0,4.6-3.5,7.44-8.07,7.44c-5.31,0-7.95-3.46-7.95-7.12c0-1.53,0.39-2.95,1.06-4.17
				l2.79,0.79c-0.35,0.94-0.55,2.08-0.55,3.31c0,2.75,1.77,4.56,4.64,4.56c3.19,0,4.56-2.12,4.56-4.88c0-5.63-6.49-7.2-6.49-13.69
				h3.31C1314.25,1977.28,1320.94,1979.92,1320.94,1986.41z"/>
		</g>
		<g>
			<path class="st1" d="M1170.89,2068.52v15.23c0,5-3.19,8.42-8.26,8.42c-0.04,0-0.04,0-0.04,0c-5.55,0-8.03-3.78-8.03-7.75
				c0-1.93,0.55-3.66,1.26-5.08l2.83,0.75c-0.47,1.3-0.75,2.64-0.75,4.33c0,3.03,1.65,5.08,4.68,5.08c3.42,0,5-2.36,5-6.06v-14.84
				c0-2.4-0.94-3.42-2.72-3.42c-1.65,0-2.72,0.94-2.72,3.15v4.92l-3.19,0.39v-5.82c0-1.69-0.67-2.36-1.89-2.36
				c-0.67,0-1.22,0.16-1.85,0.16c-0.59,0-1.22-0.12-1.81-0.51l0.35-2.48c0.47,0.16,0.87,0.2,1.22,0.2c0.75,0,1.38-0.24,2.36-0.24
				c1.38,0,2.87,0.63,3.31,3.11c0.71-2.44,2.44-3.11,4.49-3.11C1168.13,2062.58,1170.89,2064.27,1170.89,2068.52z"/>
			<path class="st1" d="M1194.3,2082.33c0,6.26-3.62,9.84-9.01,9.84c-5.75,0-8.97-4.17-8.97-9.8c0-5.04,2.52-8.11,7.52-10.23
				c3.94-1.65,4.68-2.6,4.68-4.41c0-1.38-0.98-2.64-3.23-2.64c-2.48,0-3.54,1.26-3.54,2.79c0,0.55,0.04,0.91,0.12,1.14l-3.07,0.79
				c-0.28-0.59-0.43-1.22-0.43-1.97c0-3.23,3.15-5.27,6.93-5.27c4.05,0,6.69,2.17,6.69,5.27c0,2.16-0.87,3.82-3.78,5.31
				C1191.74,2074.86,1194.3,2077.69,1194.3,2082.33z M1190.72,2082.33c0-4.21-1.73-6.57-4.6-8.26c-4.8,1.97-6.34,4.33-6.34,8.3
				c0,4.72,2.09,7.12,5.51,7.12C1188.91,2089.49,1190.72,2086.94,1190.72,2082.33z"/>
			<path class="st1" d="M1214.88,2068.52v15.23c0,5-3.19,8.42-8.26,8.42c-0.04,0-0.04,0-0.04,0c-5.55,0-8.03-3.78-8.03-7.75
				c0-1.93,0.55-3.66,1.26-5.08l2.83,0.75c-0.47,1.3-0.75,2.64-0.75,4.33c0,3.03,1.65,5.08,4.68,5.08c3.42,0,5-2.36,5-6.06v-14.84
				c0-2.4-0.94-3.42-2.72-3.42c-1.65,0-2.72,0.94-2.72,3.15v4.92l-3.19,0.39v-5.82c0-1.69-0.67-2.36-1.89-2.36
				c-0.67,0-1.22,0.16-1.85,0.16c-0.59,0-1.22-0.12-1.81-0.51l0.35-2.48c0.47,0.16,0.87,0.2,1.22,0.2c0.75,0,1.38-0.24,2.36-0.24
				c1.38,0,2.87,0.63,3.31,3.11c0.71-2.44,2.44-3.11,4.49-3.11C1212.13,2062.58,1214.88,2064.27,1214.88,2068.52z"/>
			<path class="st1" d="M1255.77,2071.63c0,4.21-0.71,7.12-1.77,9.48l-2.87-0.75c0.87-2.75,1.3-5.19,1.3-8.7
				c0-5.08-2.05-6.42-4.09-6.42c-1.93,0-3.46,1.34-3.46,4.45v7.36l-3.15,0.28v-7.67c0-3.07-1.5-4.41-3.5-4.41
				c-2.05,0-3.54,1.34-3.54,4.45v7.28l-3.19,0.35v-7.63c0-3.11-1.42-4.45-3.46-4.45c-2.56,0-4.01,2.4-4.01,6.93
				c0,8.3,6.1,10.62,11.41,12.32c3.42,1.1,8.22,2.75,10.51,5.9l-2.09,1.77c-3.15-3.5-6.34-4.53-9.68-4.57
				c-2.83,0-5.19,0.87-7.36,2.16l-0.98-2.99c1.97-0.91,3.78-1.3,6.38-1.26c-6.22-1.34-11.49-5.16-11.49-13.46
				c0-6.69,3.23-9.48,6.97-9.48c2.91,0,4.8,1.46,5.43,4.45c0.51-2.95,2.32-4.45,5.04-4.45c2.99,0,4.53,1.46,5.19,4.45
				c0.47-2.95,2.48-4.45,5.27-4.45C1252.35,2062.58,1255.77,2065.41,1255.77,2071.63z"/>
			<path class="st1" d="M1276.43,2070.37v13.26c0,4.96-2.91,8.54-7.99,8.54c-5.59,0-8.07-3.78-8.07-7.75c0-1.93,0.55-3.66,1.26-5.08
				l2.83,0.75c-0.47,1.26-0.75,2.64-0.75,4.33c0,3.03,1.65,5.08,4.72,5.08c3.38,0,4.68-2.6,4.68-6.26v-12.67
				c0-3.07-1.22-5.31-4.41-5.31s-4.41,2.09-4.41,4.25c0,1.34,0.28,2.36,0.55,3.23l-2.99,0.63c-0.55-1.14-0.94-2.52-0.94-3.86
				c0-4.17,3.42-6.93,7.79-6.93C1273.21,2062.58,1276.43,2065.53,1276.43,2070.37z"/>
			<path class="st1" d="M1300.28,2073.36c0,6.53-3.31,10.86-9.13,10.86c-5.78,0-9.09-4.21-9.09-10.78c0-6.06,2.91-10.27,7.99-10.78
				c0.08-0.39,0.16-0.83,0.16-1.54c0-2.48-3.35-2.75-3.35-6.41l3.27-0.35c0,2.87,3.31,3.38,3.31,6.61c0,0.67-0.2,1.26-0.43,1.77
				C1297.69,2063.52,1300.28,2067.46,1300.28,2073.36z M1296.74,2073.36c0-5.47-1.97-8.11-5.55-8.11c-3.54,0-5.59,2.64-5.59,8.19
				c0,5.47,1.97,8.11,5.55,8.11S1296.74,2078.91,1296.74,2073.36z"/>
			<path class="st1" d="M1320.39,2070.37v13.26c0,4.96-2.91,8.54-7.99,8.54c-5.59,0-8.07-3.78-8.07-7.75c0-1.93,0.55-3.66,1.26-5.08
				l2.83,0.75c-0.47,1.26-0.75,2.64-0.75,4.33c0,3.03,1.65,5.08,4.72,5.08c3.38,0,4.68-2.6,4.68-6.26v-12.67
				c0-3.07-1.22-5.31-4.41-5.31s-4.41,2.09-4.41,4.25c0,1.34,0.28,2.36,0.55,3.23l-2.99,0.63c-0.55-1.14-0.94-2.52-0.94-3.86
				c0-4.17,3.42-6.93,7.79-6.93C1317.17,2062.58,1320.39,2065.53,1320.39,2070.37z"/>
			<path class="st1" d="M1361.28,2071.63c0,4.21-0.71,7.12-1.77,9.48l-2.87-0.75c0.87-2.75,1.3-5.19,1.3-8.7
				c0-5.08-2.05-6.42-4.09-6.42c-1.93,0-3.46,1.34-3.46,4.45v7.36l-3.15,0.28v-7.67c0-3.07-1.5-4.41-3.5-4.41
				c-2.05,0-3.54,1.34-3.54,4.45v7.28l-3.19,0.35v-7.63c0-3.11-1.42-4.45-3.46-4.45c-2.56,0-4.01,2.4-4.01,6.93
				c0,8.3,6.1,10.62,11.41,12.32c3.42,1.1,8.22,2.75,10.51,5.9l-2.09,1.77c-3.15-3.5-6.34-4.53-9.68-4.57
				c-2.83,0-5.19,0.87-7.36,2.16l-0.98-2.99c1.97-0.91,3.78-1.3,6.38-1.26c-6.22-1.34-11.49-5.16-11.49-13.46
				c0-6.69,3.23-9.48,6.97-9.48c2.91,0,4.8,1.46,5.43,4.45c0.51-2.95,2.32-4.45,5.04-4.45c2.99,0,4.53,1.46,5.19,4.45
				c0.47-2.95,2.48-4.45,5.27-4.45C1357.86,2062.58,1361.28,2065.41,1361.28,2071.63z"/>
			<path class="st1" d="M1381.9,2063.05v20.94c0,4.49-2.87,8.19-7.99,8.19c-5.35,0-8.03-3.35-8.03-7c0-1.46,0.35-2.68,0.98-3.86
				l2.79,0.75c-0.28,0.87-0.43,1.89-0.43,2.95c0,2.72,1.73,4.49,4.68,4.49c3.42,0,4.68-2.79,4.68-5.71v-7.4
				c-1.34,1.42-3.03,2.36-5.47,2.36c-3.82,0-7.16-2.83-7.16-8.15c0-3.31,0.91-5.63,1.81-7.56h3.15c-0.71,1.73-1.53,4.33-1.53,7.44
				c0,3.23,1.26,5.59,4.33,5.59c2.09,0,3.62-0.94,4.88-2.52v-10.51H1381.9z"/>
			<path class="st1" d="M1388.16,2072.38c0-7.12,3.27-9.8,6.97-9.8c3.23,0,5,1.46,5.67,4.6c0.47-3.11,2.52-4.6,5.35-4.6
				c3.94,0,7.24,2.87,7.24,9.8c0,4.8-1.26,8.5-2.44,11.37h-3.31c1.61-4.29,2.4-7.48,2.4-11.33c0-5.82-2.12-7.16-4.21-7.16
				c-2.09,0-3.5,1.3-3.5,4.8v6.93l-3.15,0.35v-7.28c0-3.97-1.53-4.8-3.58-4.8c-2.6,0-4.09,2.05-4.09,7.08
				c0,3.94,0.67,7.12,2.28,11.41h-3.27C1389.3,2080.8,1388.16,2077.18,1388.16,2072.38z"/>
			<path class="st1" d="M1444.16,2083.87c0,5.27-4.21,8.3-10.23,8.3c-5.94,0-9.48-2.83-9.48-7c0-0.32,0.04-0.63,0.08-0.83l3.27,0.47
				v0.24c0,3.23,2.6,4.45,6.14,4.45c4.56,0,6.69-2.01,6.69-5.63c0-2.79-1.57-4.84-4.6-4.84h-1.02l0.35-2.6h1.02
				c2.83,0,4.76-2.01,4.76-5.98c0-3.5-1.73-5.2-4.05-5.2c-1.61,0-3.03,0.55-4.25,1.65c0.67,1.42,1.02,3.11,1.02,5
				c0,5.31-2.95,9.41-8.03,9.41c-5.16,0-7.99-3.94-7.99-9.41c0-5.23,2.91-9.33,8.03-9.33c2.44,0,4.33,0.87,5.71,2.4
				c1.57-1.65,3.54-2.4,5.71-2.4c4.13,0,7.28,3.15,7.28,7.79c0,4.09-2.2,6.65-5.31,7.36
				C1442.47,2078.56,1444.16,2080.6,1444.16,2083.87z M1430.47,2071.91c0-4.17-1.69-6.73-4.6-6.73c-2.95,0-4.64,2.56-4.64,6.73
				c0,4.25,1.61,6.81,4.6,6.81C1428.82,2078.71,1430.47,2076.16,1430.47,2071.91z"/>
			<path class="st1" d="M1464.75,2076.82c0,4.6-3.5,7.44-8.07,7.44c-5.31,0-7.95-3.46-7.95-7.12c0-1.53,0.39-2.95,1.06-4.17
				l2.79,0.79c-0.35,0.94-0.55,2.08-0.55,3.31c0,2.75,1.77,4.56,4.64,4.56c3.19,0,4.56-2.12,4.56-4.88c0-5.63-6.49-7.2-6.49-13.69
				h3.31C1458.06,2067.69,1464.75,2070.33,1464.75,2076.82z"/>
		</g>
		<g>
			<path class="st1" d="M1155.7,2142.11l3.31-0.51v19.99c0,4.8,1.38,7.48,5.12,7.48c3.27,0,4.92-2.44,4.92-6.14
				c0-5.86-4.53-7.24-4.53-12.47h3.31c0,4.17,4.64,5.67,4.64,12.47c0,4.8-2.75,8.74-8.38,8.74c-5.47,0-8.38-3.31-8.38-9.84V2142.11z
				"/>
			<path class="st1" d="M1192.53,2157.78v13.26c0,4.96-2.91,8.54-7.99,8.54c-5.59,0-8.07-3.78-8.07-7.75c0-1.93,0.55-3.66,1.26-5.08
				l2.83,0.75c-0.47,1.26-0.75,2.64-0.75,4.33c0,3.03,1.65,5.08,4.72,5.08c3.38,0,4.68-2.6,4.68-6.26v-12.67
				c0-3.07-1.22-5.31-4.41-5.31s-4.41,2.09-4.41,4.25c0,1.34,0.28,2.36,0.55,3.23l-2.99,0.63c-0.55-1.14-0.94-2.52-0.94-3.86
				c0-4.17,3.42-6.93,7.79-6.93C1189.3,2149.98,1192.53,2152.94,1192.53,2157.78z"/>
			<path class="st1" d="M1214.02,2142.11v28.92c0,4.96-2.87,8.54-7.99,8.54c-5.59,0-8.07-3.78-8.07-7.75c0-1.93,0.55-3.66,1.26-5.08
				l2.83,0.75c-0.47,1.26-0.75,2.64-0.75,4.33c0,3.03,1.65,5.08,4.72,5.08c3.42,0,4.68-2.6,4.68-6.26v-15.11
				c-1.26-1.69-2.72-2.91-4.76-2.87c-2.87,0.04-4.01,1.93-4.01,4.45c0,1.18,0.24,2.16,0.59,3.11l-3.03,0.55
				c-0.55-1.14-0.94-2.52-0.94-3.86c0-4.13,3.31-6.93,6.73-6.93c2.44,0,4.09,1.18,5.43,2.72v-11.1L1214.02,2142.11z"/>
			<path class="st1" d="M1220.83,2142.11l3.31-0.51v19.99c0,4.8,1.38,7.48,5.12,7.48c3.27,0,4.92-2.44,4.92-6.14
				c0-5.86-4.53-7.24-4.53-12.47h3.31c0,4.17,4.64,5.67,4.64,12.47c0,4.8-2.75,8.74-8.38,8.74c-5.47,0-8.38-3.31-8.38-9.84V2142.11z
				"/>
			<path class="st1" d="M1257.98,2155.93v15.23c0,5-3.19,8.42-8.26,8.42c-0.04,0-0.04,0-0.04,0c-5.55,0-8.03-3.78-8.03-7.75
				c0-1.93,0.55-3.66,1.26-5.08l2.83,0.75c-0.47,1.3-0.75,2.64-0.75,4.33c0,3.03,1.65,5.08,4.68,5.08c3.42,0,5-2.36,5-6.06v-14.84
				c0-2.4-0.94-3.42-2.72-3.42c-1.65,0-2.72,0.94-2.72,3.15v4.92l-3.19,0.39v-5.82c0-1.69-0.67-2.36-1.89-2.36
				c-0.67,0-1.22,0.16-1.85,0.16c-0.59,0-1.22-0.12-1.81-0.51l0.35-2.48c0.47,0.16,0.87,0.2,1.22,0.2c0.75,0,1.38-0.24,2.36-0.24
				c1.38,0,2.87,0.63,3.31,3.11c0.71-2.44,2.44-3.11,4.49-3.11C1255.22,2149.98,1257.98,2151.68,1257.98,2155.93z"/>
			<path class="st1" d="M1279.19,2164.23c0,4.6-3.5,7.44-8.07,7.44c-5.31,0-7.95-3.46-7.95-7.12c0-1.53,0.39-2.95,1.06-4.17
				l2.79,0.79c-0.35,0.94-0.55,2.08-0.55,3.31c0,2.75,1.77,4.56,4.64,4.56c3.19,0,4.56-2.12,4.56-4.88c0-5.63-6.49-7.2-6.49-13.69
				h3.31C1272.5,2155.1,1279.19,2157.74,1279.19,2164.23z"/>
			<path class="st1" d="M1319.06,2159.04c0,4.21-0.71,7.12-1.77,9.48l-2.87-0.75c0.87-2.75,1.3-5.19,1.3-8.7
				c0-5.08-2.05-6.42-4.09-6.42c-1.93,0-3.46,1.34-3.46,4.45v7.36l-3.15,0.28v-7.67c0-3.07-1.5-4.41-3.5-4.41
				c-2.05,0-3.54,1.34-3.54,4.45v7.28l-3.19,0.35v-7.63c0-3.11-1.42-4.45-3.46-4.45c-2.56,0-4.01,2.4-4.01,6.93
				c0,8.3,6.1,10.62,11.41,12.32c3.42,1.1,8.22,2.75,10.51,5.9l-2.09,1.77c-3.15-3.5-6.34-4.53-9.68-4.57
				c-2.83,0-5.19,0.87-7.36,2.16l-0.98-2.99c1.97-0.91,3.78-1.3,6.38-1.26c-6.22-1.34-11.49-5.16-11.49-13.46
				c0-6.69,3.23-9.48,6.97-9.48c2.91,0,4.8,1.46,5.43,4.45c0.51-2.95,2.32-4.45,5.04-4.45c2.99,0,4.53,1.46,5.19,4.45
				c0.47-2.95,2.48-4.45,5.27-4.45C1315.63,2149.98,1319.06,2152.82,1319.06,2159.04z"/>
			<path class="st1" d="M1339.64,2155.93v15.23c0,5-3.19,8.42-8.26,8.42c-0.04,0-0.04,0-0.04,0c-5.55,0-8.03-3.78-8.03-7.75
				c0-1.93,0.55-3.66,1.26-5.08l2.83,0.75c-0.47,1.3-0.75,2.64-0.75,4.33c0,3.03,1.65,5.08,4.68,5.08c3.42,0,5-2.36,5-6.06v-14.84
				c0-2.4-0.94-3.42-2.72-3.42c-1.65,0-2.72,0.94-2.72,3.15v4.92l-3.19,0.39v-5.82c0-1.69-0.67-2.36-1.89-2.36
				c-0.67,0-1.22,0.16-1.85,0.16c-0.59,0-1.22-0.12-1.81-0.51l0.35-2.48c0.47,0.16,0.87,0.2,1.22,0.2c0.75,0,1.38-0.24,2.36-0.24
				c1.38,0,2.87,0.63,3.31,3.11c0.71-2.44,2.44-3.11,4.49-3.11C1336.88,2149.98,1339.64,2151.68,1339.64,2155.93z"/>
			<path class="st1" d="M1345.46,2159.07c0-8.22,2.32-12.67,8.26-14.72c3.11-1.06,7.28-1.34,9.41-2.68l1.42,2.48
				c-2.79,1.57-6.45,1.65-10.07,2.87c-2.12,0.71-4.84,2.32-5.94,6.14c1.38-2.24,2.91-2.71,4.49-2.71c2.64,0,4.41,1.46,5.08,4.6
				c0.59-3.15,2.56-4.6,5.47-4.6c3.86,0,7.12,2.83,7.12,8.93c0,5.19-1.26,8.89-2.44,11.77h-3.31c1.61-4.29,2.4-7.48,2.4-11.73
				c0-5-2.09-6.3-4.09-6.3c-2.16,0-3.62,1.34-3.62,4.8v6.45l-3.15,0.35v-6.85c0-3.78-1.53-4.76-3.5-4.76
				c-2.75,0-4.17,2.12-4.17,6.65c0,3.9,0.67,7.08,2.28,11.37h-3.27C1346.6,2168.2,1345.46,2164.58,1345.46,2159.07z"/>
			<path class="st1" d="M1384.07,2149.98c5.31,0,8.3,3.82,8.3,9.76c0,4.84-1.26,8.54-2.48,11.41h-3.27c1.5-3.86,2.4-7.48,2.4-11.41
				c0-4.84-1.93-7.08-4.96-7.08c-3.07,0-5,2.28-5,7.08c0,3.86,0.91,7.48,2.36,11.41h-3.27c-1.22-2.95-2.44-6.65-2.44-11.41
				C1375.73,2154.04,1378.8,2149.98,1384.07,2149.98z"/>
		</g>
	</g>
</g>
<g>
	<path class="st1" d="M1610.91,1529.71h-8.31v6.42c1.1-0.57,2.23-0.85,3.43-0.85c3.56,0,5.95,2.49,5.95,6.64
		c0,4.19-2.83,7.11-7.18,7.11c-2.64,0-4.53-1.01-6.14-2.64l1.57-1.54c1.32,1.35,2.68,2.01,4.56,2.01c2.71,0,4.44-1.83,4.44-5.01
		c0-3.3-1.73-4.5-4-4.5c-1.2,0-2.05,0.25-3.08,0.79h-2.08v-10.51h11.21L1610.91,1529.71z"/>
	<path class="st1" d="M1626.43,1533.02c0,4-2.49,6.74-9.07,13.41h9.57l-0.31,2.24h-12.28v-2.11c7.49-7.87,9.32-9.92,9.32-13.41
		c0-2.3-1.45-3.65-3.56-3.65c-1.83,0-3.05,0.76-4.44,2.33l-1.73-1.39c1.7-2.08,3.68-3.12,6.3-3.12
		C1624.04,1527.32,1626.43,1529.78,1626.43,1533.02z"/>
	<path class="st1" d="M1641.67,1529.71h-8.31v6.42c1.1-0.57,2.23-0.85,3.43-0.85c3.56,0,5.95,2.49,5.95,6.64
		c0,4.19-2.83,7.11-7.18,7.11c-2.64,0-4.53-1.01-6.14-2.64l1.57-1.54c1.32,1.35,2.68,2.01,4.56,2.01c2.71,0,4.44-1.83,4.44-5.01
		c0-3.3-1.73-4.5-4-4.5c-1.2,0-2.05,0.25-3.08,0.79h-2.08v-10.51h11.21L1641.67,1529.71z"/>
	<path class="st1" d="M1657.19,1533.02c0,4-2.49,6.74-9.07,13.41h9.57l-0.31,2.24h-12.28v-2.11c7.49-7.87,9.32-9.92,9.32-13.41
		c0-2.3-1.45-3.65-3.56-3.65c-1.83,0-3.05,0.76-4.44,2.33l-1.73-1.39c1.7-2.08,3.68-3.12,6.3-3.12
		C1654.8,1527.32,1657.19,1529.78,1657.19,1533.02z"/>
	<path class="st1" d="M1673.82,1535.57c0,8.59-3.49,11.55-11.05,13.76l-0.63-1.98c5.38-1.54,8.72-4.06,8.94-8.97
		c-0.98,1.48-2.68,2.61-4.82,2.61c-3.27,0-5.79-2.58-5.79-6.74c0-4.38,2.99-6.93,6.64-6.93
		C1671.61,1527.32,1673.82,1530.56,1673.82,1535.57z M1671.11,1536.14c0.09-4.79-1.2-6.71-3.93-6.71c-2.55,0-4.03,1.76-4.03,4.88
		c0,3.08,1.51,4.56,3.65,4.56C1668.65,1538.87,1670.04,1537.84,1671.11,1536.14z"/>
	<path class="st1" d="M1698.22,1543.12c0,3.68-2.8,5.95-6.45,5.95c-4.25,0-6.36-2.77-6.36-5.7c0-1.23,0.31-2.36,0.85-3.34l2.23,0.63
		c-0.28,0.76-0.44,1.67-0.44,2.64c0,2.2,1.42,3.65,3.71,3.65c2.55,0,3.65-1.7,3.65-3.9c0-4.5-5.19-5.76-5.19-10.95h2.64
		C1692.87,1535.82,1698.22,1537.93,1698.22,1543.12z"/>
	<path class="st1" d="M1710.9,1540.35c0-1.98,0.31-3.65,0.91-4.97c-1.1-1.13-2.33-1.51-3.34-1.51c-1.79,0-3.78,1.17-3.78,6.14
		c0,5.41,2.99,7.77,6.61,9.29c2.49,1.07,5.1,2.14,6.86,4.85l-1.92,1.26c-1.2-1.92-3.43-3.62-6.08-3.62c-2.14,0-3.9,0.66-5.26,1.39
		l-0.79-2.39c1.2-0.41,2.61-0.69,4.66-0.66c-3.62-1.61-6.74-4.06-6.74-10.48c0-5.51,2.93-7.9,6.14-7.9c1.61,0,3.27,0.69,4.6,2.05
		c1.13-1.32,2.71-2.05,4.69-2.05c4.22,0,6.64,3.31,6.64,8.62c0,5.1-2.42,8.31-6.61,8.31S1710.9,1545.33,1710.9,1540.35z
		 M1713.67,1540.35c0,4.09,1.42,6.17,3.84,6.17s3.81-2.08,3.81-6.17c0-4.41-1.42-6.48-3.84-6.48
		C1715.09,1533.87,1713.67,1535.92,1713.67,1540.35z"/>
	<path class="st1" d="M1740.47,1543.12c0,3.68-2.8,5.95-6.45,5.95c-4.25,0-6.36-2.77-6.36-5.7c0-1.23,0.31-2.36,0.85-3.34l2.23,0.63
		c-0.28,0.76-0.44,1.67-0.44,2.64c0,2.2,1.42,3.65,3.71,3.65c2.55,0,3.65-1.7,3.65-3.9c0-4.5-5.19-5.76-5.19-10.95h2.64
		C1735.12,1535.82,1740.47,1537.93,1740.47,1543.12z"/>
	<path class="st1" d="M1757.85,1531.07v9.82c0,5.32-2.52,8.18-6.67,8.18c-4.47,0-6.86-3.12-6.86-8.5c0-4.56,2.2-8.47,6.36-8.47
		c2.01,0,3.46,1.01,4.53,2.2v-3.05c0-2.36-0.88-4.16-3.93-4.16c-2.46,0-3.75,1.13-3.75,2.68c0,0.13,0,0.22,0.03,0.44l-2.49,0.31
		c-0.06-0.22-0.09-0.44-0.09-0.72c0-3.05,2.71-4.79,6.3-4.79C1755.17,1525.02,1757.85,1527.32,1757.85,1531.07z M1755.2,1540.67
		v-4.09c-1.04-1.38-2.3-2.33-4.09-2.33c-2.49,0-3.97,2.3-3.97,6.33c0,4.38,1.32,6.36,4.03,6.36S1755.2,1544.95,1755.2,1540.67z"/>
	<path class="st1" d="M1769.18,1531.73c4.25,0,6.64,3.05,6.64,7.81c0,3.87-1.01,6.83-1.98,9.13h-2.61c1.2-3.08,1.92-5.98,1.92-9.13
		c0-3.87-1.54-5.67-3.97-5.67c-2.46,0-4,1.83-4,5.67c0,3.08,0.72,5.98,1.89,9.13h-2.61c-0.98-2.36-1.95-5.32-1.95-9.13
		C1762.51,1534.97,1764.96,1531.73,1769.18,1531.73z"/>
	<path class="st1" d="M1792.16,1543.12c0,3.68-2.8,5.95-6.45,5.95c-4.25,0-6.36-2.77-6.36-5.7c0-1.23,0.31-2.36,0.85-3.34l2.23,0.63
		c-0.28,0.76-0.44,1.67-0.44,2.64c0,2.2,1.42,3.65,3.71,3.65c2.55,0,3.65-1.7,3.65-3.9c0-4.5-5.19-5.76-5.19-10.95h2.64
		C1786.81,1535.82,1792.16,1537.93,1792.16,1543.12z"/>
	<path class="st1" d="M1810.17,1540.51c0,5.42-2.64,8.56-6.86,8.56c-4.38,0-6.64-2.83-6.67-8.06v-11.24c0-3.12,2.17-4.75,5.1-4.75
		c2.01,0,3.31,0.44,4.66,0.44c0.6,0,1.29-0.09,2.3-0.44l0.31,1.92c-0.98,0.44-1.79,0.57-2.58,0.57c-1.86,0-2.83-0.41-4.53-0.41
		c-1.7,0-2.61,0.98-2.61,2.83v4c1.13-1.23,2.55-2.2,4.56-2.2C1808,1531.73,1810.17,1535.44,1810.17,1540.51z M1807.34,1540.51
		c0-4.53-1.48-6.64-3.94-6.64c-1.79,0-3.05,0.91-4.12,2.33v4.47c0,4.28,1.32,6.26,4.03,6.26
		C1806.02,1546.93,1807.34,1544.92,1807.34,1540.51z"/>
	<path class="st1" d="M1821.51,1531.73c4.25,0,6.64,3.05,6.64,7.81c0,3.87-1.01,6.83-1.98,9.13h-2.61c1.2-3.08,1.92-5.98,1.92-9.13
		c0-3.87-1.54-5.67-3.97-5.67c-2.46,0-4,1.83-4,5.67c0,3.08,0.72,5.98,1.89,9.13h-2.61c-0.98-2.36-1.95-5.32-1.95-9.13
		C1814.83,1534.97,1817.29,1531.73,1821.51,1531.73z"/>
</g>
<g>
	<path class="st1" d="M188.68,994.26h-2.64v-18.19l-4.97,3.05l-1.16-1.89l6.45-4h2.33V994.26z"/>
	<path class="st1" d="M205.33,975.31h-8.31v6.42c1.1-0.57,2.23-0.85,3.43-0.85c3.56,0,5.95,2.49,5.95,6.64
		c0,4.19-2.83,7.11-7.18,7.11c-2.64,0-4.53-1.01-6.14-2.64l1.57-1.54c1.32,1.35,2.68,2.01,4.56,2.01c2.71,0,4.44-1.83,4.44-5.01
		c0-3.3-1.73-4.5-4-4.5c-1.2,0-2.05,0.25-3.08,0.79h-2.08v-10.51h11.21L205.33,975.31z"/>
	<path class="st1" d="M223.56,983.77c0,6.99-2.3,10.86-6.93,10.86c-4.63,0-6.93-3.87-6.93-10.89c0-7.02,2.3-10.83,6.93-10.83
		C221.26,972.91,223.56,976.75,223.56,983.77z M212.45,983.74c0,6.26,1.45,8.78,4.19,8.78c2.71,0,4.19-2.52,4.19-8.75
		c0-6.26-1.48-8.75-4.19-8.75C213.9,975.02,212.45,977.51,212.45,983.74z"/>
	<path class="st1" d="M241.07,983.77c0,6.99-2.3,10.86-6.93,10.86c-4.63,0-6.93-3.87-6.93-10.89c0-7.02,2.3-10.83,6.93-10.83
		C238.77,972.91,241.07,976.75,241.07,983.77z M229.95,983.74c0,6.26,1.45,8.78,4.19,8.78c2.71,0,4.19-2.52,4.19-8.75
		c0-6.26-1.48-8.75-4.19-8.75C231.4,975.02,229.95,977.51,229.95,983.74z"/>
	<path class="st1" d="M252.02,994.26h-2.64v-18.19l-4.97,3.05l-1.17-1.89l6.45-4h2.33V994.26z"/>
	<path class="st1" d="M278.31,988.72c0,3.68-2.8,5.95-6.45,5.95c-4.25,0-6.36-2.77-6.36-5.7c0-1.23,0.31-2.36,0.85-3.34l2.24,0.63
		c-0.28,0.76-0.44,1.67-0.44,2.64c0,2.2,1.42,3.65,3.71,3.65c2.55,0,3.65-1.7,3.65-3.9c0-4.5-5.19-5.76-5.19-10.95h2.64
		C272.96,981.41,278.31,983.52,278.31,988.72z"/>
	<path class="st1" d="M291,985.95c0-1.98,0.31-3.65,0.91-4.97c-1.1-1.13-2.33-1.51-3.34-1.51c-1.79,0-3.78,1.17-3.78,6.14
		c0,5.41,2.99,7.77,6.61,9.29c2.49,1.07,5.1,2.14,6.86,4.85l-1.92,1.26c-1.2-1.92-3.43-3.62-6.08-3.62c-2.14,0-3.9,0.66-5.26,1.39
		l-0.79-2.39c1.2-0.41,2.61-0.69,4.66-0.66c-3.62-1.61-6.74-4.06-6.74-10.48c0-5.51,2.93-7.9,6.14-7.9c1.61,0,3.27,0.69,4.6,2.05
		c1.13-1.32,2.71-2.05,4.69-2.05c4.22,0,6.64,3.31,6.64,8.62c0,5.1-2.42,8.31-6.61,8.31C293.42,994.26,291,990.92,291,985.95z
		 M293.77,985.95c0,4.09,1.42,6.17,3.84,6.17c2.42,0,3.81-2.08,3.81-6.17c0-4.41-1.42-6.48-3.84-6.48
		C295.19,979.46,293.77,981.51,293.77,985.95z"/>
	<path class="st1" d="M320.56,988.72c0,3.68-2.8,5.95-6.45,5.95c-4.25,0-6.36-2.77-6.36-5.7c0-1.23,0.31-2.36,0.85-3.34l2.24,0.63
		c-0.28,0.76-0.44,1.67-0.44,2.64c0,2.2,1.42,3.65,3.71,3.65c2.55,0,3.65-1.7,3.65-3.9c0-4.5-5.19-5.76-5.19-10.95h2.64
		C315.21,981.41,320.56,983.52,320.56,988.72z"/>
	<path class="st1" d="M337.94,976.66v9.82c0,5.32-2.52,8.18-6.67,8.18c-4.47,0-6.86-3.12-6.86-8.5c0-4.56,2.2-8.47,6.36-8.47
		c2.01,0,3.46,1.01,4.53,2.2v-3.05c0-2.36-0.88-4.16-3.93-4.16c-2.46,0-3.75,1.13-3.75,2.68c0,0.13,0,0.22,0.03,0.44l-2.49,0.31
		c-0.06-0.22-0.09-0.44-0.09-0.72c0-3.05,2.71-4.79,6.3-4.79C335.26,970.62,337.94,972.91,337.94,976.66z M335.3,986.26v-4.09
		c-1.04-1.38-2.3-2.33-4.09-2.33c-2.49,0-3.97,2.3-3.97,6.33c0,4.38,1.32,6.36,4.03,6.36C333.97,992.53,335.3,990.54,335.3,986.26z"
		/>
	<path class="st1" d="M349.28,977.32c4.25,0,6.64,3.05,6.64,7.81c0,3.87-1.01,6.83-1.98,9.13h-2.61c1.2-3.08,1.92-5.98,1.92-9.13
		c0-3.87-1.54-5.67-3.97-5.67c-2.46,0-4,1.83-4,5.67c0,3.08,0.72,5.98,1.89,9.13h-2.61c-0.98-2.36-1.95-5.32-1.95-9.13
		C342.6,980.56,345.06,977.32,349.28,977.32z"/>
	<path class="st1" d="M372.26,988.72c0,3.68-2.8,5.95-6.45,5.95c-4.25,0-6.36-2.77-6.36-5.7c0-1.23,0.31-2.36,0.85-3.34l2.23,0.63
		c-0.28,0.76-0.44,1.67-0.44,2.64c0,2.2,1.42,3.65,3.71,3.65c2.55,0,3.65-1.7,3.65-3.9c0-4.5-5.19-5.76-5.19-10.95h2.64
		C366.91,981.41,372.26,983.52,372.26,988.72z"/>
	<path class="st1" d="M390.27,986.1c0,5.42-2.64,8.56-6.86,8.56c-4.38,0-6.64-2.83-6.67-8.06v-11.24c0-3.12,2.17-4.75,5.1-4.75
		c2.01,0,3.31,0.44,4.66,0.44c0.6,0,1.29-0.09,2.3-0.44l0.31,1.92c-0.98,0.44-1.79,0.57-2.58,0.57c-1.86,0-2.83-0.41-4.53-0.41
		c-1.7,0-2.61,0.98-2.61,2.83v4c1.13-1.23,2.55-2.2,4.56-2.2C388.09,977.32,390.27,981.04,390.27,986.1z M387.43,986.1
		c0-4.53-1.48-6.64-3.94-6.64c-1.79,0-3.05,0.91-4.12,2.33v4.47c0,4.28,1.32,6.26,4.03,6.26S387.43,990.51,387.43,986.1z"/>
	<path class="st1" d="M401.6,977.32c4.25,0,6.64,3.05,6.64,7.81c0,3.87-1.01,6.83-1.98,9.13h-2.61c1.2-3.08,1.92-5.98,1.92-9.13
		c0-3.87-1.54-5.67-3.97-5.67c-2.46,0-4,1.83-4,5.67c0,3.08,0.72,5.98,1.89,9.13h-2.61c-0.98-2.36-1.95-5.32-1.95-9.13
		C394.93,980.56,397.38,977.32,401.6,977.32z"/>
</g>
<g>
	<path class="st1" d="M305.74,569.31h-2.64v-18.19l-4.97,3.05l-1.16-1.89l6.45-4h2.33V569.31z"/>
	<path class="st1" d="M324.91,564.05h-2.74v5.26h-2.58v-5.26h-9.03v-1.92l6.36-14.17l2.2,0.91l-5.76,13.03h6.26l0.25-5.76h2.3v5.76
		h2.74V564.05z"/>
	<path class="st1" d="M338.73,550.36h-8.31v6.42c1.1-0.57,2.24-0.85,3.43-0.85c3.56,0,5.95,2.49,5.95,6.64
		c0,4.19-2.83,7.11-7.18,7.11c-2.64,0-4.53-1.01-6.14-2.64l1.57-1.54c1.32,1.35,2.68,2.01,4.56,2.01c2.71,0,4.44-1.83,4.44-5.01
		c0-3.3-1.73-4.5-4-4.5c-1.2,0-2.05,0.25-3.08,0.79h-2.08v-10.51h11.21L338.73,550.36z"/>
	<path class="st1" d="M356.93,564.05h-2.74v5.26h-2.58v-5.26h-9.03v-1.92l6.36-14.17l2.2,0.91l-5.76,13.03h6.26l0.25-5.76h2.3v5.76
		h2.74V564.05z"/>
	<path class="st1" d="M380.7,563.77c0,3.68-2.8,5.95-6.45,5.95c-4.25,0-6.36-2.77-6.36-5.7c0-1.23,0.31-2.36,0.85-3.34l2.24,0.63
		c-0.28,0.76-0.44,1.67-0.44,2.64c0,2.2,1.42,3.65,3.71,3.65c2.55,0,3.65-1.7,3.65-3.9c0-4.5-5.19-5.76-5.19-10.95h2.64
		C375.35,556.46,380.7,558.57,380.7,563.77z"/>
	<path class="st1" d="M393.39,561c0-1.98,0.31-3.65,0.91-4.97c-1.1-1.13-2.33-1.51-3.34-1.51c-1.79,0-3.78,1.17-3.78,6.14
		c0,5.41,2.99,7.77,6.61,9.29c2.49,1.07,5.1,2.14,6.86,4.85l-1.92,1.26c-1.2-1.92-3.43-3.62-6.08-3.62c-2.14,0-3.9,0.66-5.26,1.39
		l-0.79-2.39c1.2-0.41,2.61-0.69,4.66-0.66c-3.62-1.61-6.74-4.06-6.74-10.48c0-5.51,2.93-7.9,6.14-7.9c1.61,0,3.27,0.69,4.6,2.05
		c1.13-1.32,2.71-2.05,4.69-2.05c4.22,0,6.64,3.31,6.64,8.62c0,5.1-2.42,8.31-6.61,8.31C395.81,569.31,393.39,565.97,393.39,561z
		 M396.16,561c0,4.09,1.42,6.17,3.84,6.17c2.42,0,3.81-2.08,3.81-6.17c0-4.41-1.42-6.48-3.84-6.48
		C397.58,554.51,396.16,556.56,396.16,561z"/>
	<path class="st1" d="M422.95,563.77c0,3.68-2.8,5.95-6.45,5.95c-4.25,0-6.36-2.77-6.36-5.7c0-1.23,0.31-2.36,0.85-3.34l2.24,0.63
		c-0.28,0.76-0.44,1.67-0.44,2.64c0,2.2,1.42,3.65,3.71,3.65c2.55,0,3.65-1.7,3.65-3.9c0-4.5-5.19-5.76-5.19-10.95h2.64
		C417.6,556.46,422.95,558.57,422.95,563.77z"/>
	<path class="st1" d="M440.33,551.71v9.82c0,5.32-2.52,8.18-6.67,8.18c-4.47,0-6.86-3.12-6.86-8.5c0-4.56,2.2-8.47,6.36-8.47
		c2.01,0,3.46,1.01,4.53,2.2v-3.05c0-2.36-0.88-4.16-3.93-4.16c-2.46,0-3.75,1.13-3.75,2.68c0,0.13,0,0.22,0.03,0.44l-2.49,0.31
		c-0.06-0.22-0.09-0.44-0.09-0.72c0-3.05,2.71-4.79,6.3-4.79C437.66,545.67,440.33,547.97,440.33,551.71z M437.69,561.31v-4.09
		c-1.04-1.38-2.3-2.33-4.09-2.33c-2.49,0-3.97,2.3-3.97,6.33c0,4.38,1.32,6.36,4.03,6.36C436.36,567.58,437.69,565.59,437.69,561.31
		z"/>
	<path class="st1" d="M451.67,552.37c4.25,0,6.64,3.05,6.64,7.81c0,3.87-1.01,6.83-1.98,9.13h-2.61c1.2-3.08,1.92-5.98,1.92-9.13
		c0-3.87-1.54-5.67-3.97-5.67c-2.46,0-4,1.83-4,5.67c0,3.08,0.72,5.98,1.89,9.13h-2.61c-0.98-2.36-1.95-5.32-1.95-9.13
		C444.99,555.61,447.45,552.37,451.67,552.37z"/>
	<path class="st1" d="M474.65,563.77c0,3.68-2.8,5.95-6.45,5.95c-4.25,0-6.36-2.77-6.36-5.7c0-1.23,0.31-2.36,0.85-3.34l2.23,0.63
		c-0.28,0.76-0.44,1.67-0.44,2.64c0,2.2,1.42,3.65,3.71,3.65c2.55,0,3.65-1.7,3.65-3.9c0-4.5-5.19-5.76-5.19-10.95h2.64
		C469.3,556.46,474.65,558.57,474.65,563.77z"/>
	<path class="st1" d="M492.66,561.15c0,5.42-2.64,8.56-6.86,8.56c-4.38,0-6.64-2.83-6.67-8.06v-11.24c0-3.12,2.17-4.75,5.1-4.75
		c2.01,0,3.31,0.44,4.66,0.44c0.6,0,1.29-0.09,2.3-0.44l0.31,1.92c-0.98,0.44-1.79,0.57-2.58,0.57c-1.86,0-2.83-0.41-4.53-0.41
		c-1.7,0-2.61,0.98-2.61,2.83v4c1.13-1.23,2.55-2.2,4.56-2.2C490.48,552.37,492.66,556.09,492.66,561.15z M489.82,561.15
		c0-4.53-1.48-6.64-3.94-6.64c-1.79,0-3.05,0.91-4.12,2.33v4.47c0,4.28,1.32,6.26,4.03,6.26S489.82,565.56,489.82,561.15z"/>
	<path class="st1" d="M503.99,552.37c4.25,0,6.64,3.05,6.64,7.81c0,3.87-1.01,6.83-1.98,9.13h-2.61c1.2-3.08,1.92-5.98,1.92-9.13
		c0-3.87-1.54-5.67-3.97-5.67c-2.46,0-4,1.83-4,5.67c0,3.08,0.72,5.98,1.89,9.13h-2.61c-0.98-2.36-1.95-5.32-1.95-9.13
		C497.32,555.61,499.77,552.37,503.99,552.37z"/>
</g>
<g>
	<path class="st1" d="M649.11,371.69l-7.96,19.33l-2.42-0.79l7.71-18.35h-9.44v-2.17h12.12V371.69z"/>
	<path class="st1" d="M664.95,383.62c0,4.6-2.9,7.49-6.58,7.49c-5.07,0-6.96-4.25-6.96-10.17c0-6.99,2.96-11.55,7.84-11.55
		c1.7,0,3.05,0.47,4.25,1.26l-1.04,1.76c-0.98-0.6-2.05-0.91-3.24-0.91c-3.15,0-5.04,3.3-5.16,8.28c1.39-1.95,3.08-2.83,5.13-2.83
		C662.27,376.95,664.95,379.12,664.95,383.62z M662.27,383.68c0-3.4-1.48-4.63-3.53-4.63c-1.95,0-3.56,1.2-4.66,2.99
		c0.13,4.63,1.35,6.96,4.28,6.96C660.95,389,662.27,386.86,662.27,383.68z"/>
	<path class="st1" d="M682.07,385.13c0,3.53-2.96,5.98-7.21,5.98c-4.28,0-7.08-2.46-7.08-5.92c0-2.74,1.57-4.41,4.25-5.54
		c-2.33-1.13-3.37-2.71-3.37-4.91c0-3.49,3.12-5.35,6.26-5.35c3.12,0,6.3,1.73,6.3,5.29c0,2.14-1.2,3.56-3.62,4.79
		C680.53,380.69,682.07,382.49,682.07,385.13z M679.3,385.16c0-2.33-1.23-3.34-4.6-4.53l-0.85-0.28c-2.27,1.01-3.31,2.49-3.31,4.85
		c0,2.39,1.67,3.78,4.34,3.78C677.6,388.97,679.3,387.49,679.3,385.16z M671.28,374.78c0,2.14,1.39,2.99,3.87,3.84l0.63,0.22
		c1.98-1.1,2.83-2.23,2.83-4.06c0-2.08-1.35-3.4-3.68-3.4C672.73,371.38,671.28,372.6,671.28,374.78z"/>
	<path class="st1" d="M706.32,385.2c0,3.68-2.8,5.95-6.45,5.95c-4.25,0-6.36-2.77-6.36-5.7c0-1.23,0.31-2.36,0.85-3.34l2.23,0.63
		c-0.28,0.76-0.44,1.67-0.44,2.64c0,2.2,1.42,3.65,3.71,3.65c2.55,0,3.65-1.7,3.65-3.9c0-4.5-5.19-5.76-5.19-10.95h2.64
		C700.97,377.89,706.32,380,706.32,385.2z"/>
	<path class="st1" d="M719.01,382.43c0-1.98,0.31-3.65,0.91-4.97c-1.1-1.13-2.33-1.51-3.34-1.51c-1.79,0-3.78,1.17-3.78,6.14
		c0,5.41,2.99,7.77,6.61,9.29c2.49,1.07,5.1,2.14,6.86,4.85l-1.92,1.26c-1.2-1.92-3.43-3.62-6.08-3.62c-2.14,0-3.9,0.66-5.26,1.39
		l-0.79-2.39c1.2-0.41,2.61-0.69,4.66-0.66c-3.62-1.61-6.74-4.06-6.74-10.48c0-5.51,2.93-7.9,6.14-7.9c1.61,0,3.27,0.69,4.6,2.05
		c1.13-1.32,2.71-2.05,4.69-2.05c4.22,0,6.64,3.31,6.64,8.62c0,5.1-2.42,8.31-6.61,8.31S719.01,387.4,719.01,382.43z M721.78,382.43
		c0,4.09,1.42,6.17,3.84,6.17s3.81-2.08,3.81-6.17c0-4.41-1.42-6.48-3.84-6.48C723.19,375.94,721.78,377.99,721.78,382.43z"/>
	<path class="st1" d="M748.57,385.2c0,3.68-2.8,5.95-6.45,5.95c-4.25,0-6.36-2.77-6.36-5.7c0-1.23,0.31-2.36,0.85-3.34l2.23,0.63
		c-0.28,0.76-0.44,1.67-0.44,2.64c0,2.2,1.42,3.65,3.71,3.65c2.55,0,3.65-1.7,3.65-3.9c0-4.5-5.19-5.76-5.19-10.95h2.64
		C743.22,377.89,748.57,380,748.57,385.2z"/>
	<path class="st1" d="M765.95,373.14v9.82c0,5.32-2.52,8.18-6.67,8.18c-4.47,0-6.86-3.12-6.86-8.5c0-4.56,2.2-8.47,6.36-8.47
		c2.01,0,3.46,1.01,4.53,2.2v-3.05c0-2.36-0.88-4.16-3.93-4.16c-2.46,0-3.75,1.13-3.75,2.68c0,0.13,0,0.22,0.03,0.44l-2.49,0.31
		c-0.06-0.22-0.09-0.44-0.09-0.72c0-3.05,2.71-4.79,6.3-4.79C763.27,367.1,765.95,369.39,765.95,373.14z M763.3,382.74v-4.09
		c-1.04-1.38-2.3-2.33-4.09-2.33c-2.49,0-3.97,2.3-3.97,6.33c0,4.38,1.32,6.36,4.03,6.36S763.3,387.02,763.3,382.74z"/>
	<path class="st1" d="M777.28,373.8c4.25,0,6.64,3.05,6.64,7.81c0,3.87-1.01,6.83-1.98,9.13h-2.61c1.2-3.08,1.92-5.98,1.92-9.13
		c0-3.87-1.54-5.67-3.97-5.67c-2.46,0-4,1.83-4,5.67c0,3.08,0.72,5.98,1.89,9.13h-2.61c-0.98-2.36-1.95-5.32-1.95-9.13
		C770.61,377.04,773.06,373.8,777.28,373.8z"/>
	<path class="st1" d="M800.26,385.2c0,3.68-2.8,5.95-6.45,5.95c-4.25,0-6.36-2.77-6.36-5.7c0-1.23,0.31-2.36,0.85-3.34l2.23,0.63
		c-0.28,0.76-0.44,1.67-0.44,2.64c0,2.2,1.42,3.65,3.71,3.65c2.55,0,3.65-1.7,3.65-3.9c0-4.5-5.19-5.76-5.19-10.95h2.64
		C794.91,377.89,800.26,380,800.26,385.2z"/>
	<path class="st1" d="M818.27,382.58c0,5.42-2.64,8.56-6.86,8.56c-4.38,0-6.64-2.83-6.67-8.06v-11.24c0-3.12,2.17-4.75,5.1-4.75
		c2.01,0,3.31,0.44,4.66,0.44c0.6,0,1.29-0.09,2.3-0.44l0.31,1.92c-0.98,0.44-1.79,0.57-2.58,0.57c-1.86,0-2.83-0.41-4.53-0.41
		c-1.7,0-2.61,0.98-2.61,2.83v4c1.13-1.23,2.55-2.2,4.56-2.2C816.1,373.8,818.27,377.52,818.27,382.58z M815.44,382.58
		c0-4.53-1.48-6.64-3.94-6.64c-1.79,0-3.05,0.91-4.12,2.33v4.47c0,4.28,1.32,6.26,4.03,6.26C814.12,389,815.44,386.99,815.44,382.58
		z"/>
	<path class="st1" d="M829.61,373.8c4.25,0,6.64,3.05,6.64,7.81c0,3.87-1.01,6.83-1.98,9.13h-2.61c1.2-3.08,1.92-5.98,1.92-9.13
		c0-3.87-1.54-5.67-3.97-5.67c-2.46,0-4,1.83-4,5.67c0,3.08,0.72,5.98,1.89,9.13h-2.61c-0.98-2.36-1.95-5.32-1.95-9.13
		C822.93,377.04,825.39,373.8,829.61,373.8z"/>
</g>
<g>
	<path class="st1" d="M1115.72,205.27h-2.74v5.26h-2.58v-5.26h-9.03v-1.92l6.36-14.17l2.2,0.91l-5.76,13.03h6.26l0.25-5.76h2.3v5.76
		h2.74V205.27z"/>
	<path class="st1" d="M1129.54,191.58h-8.31V198c1.1-0.57,2.23-0.85,3.43-0.85c3.56,0,5.95,2.49,5.95,6.64
		c0,4.19-2.83,7.11-7.18,7.11c-2.64,0-4.53-1.01-6.14-2.64l1.57-1.54c1.32,1.35,2.68,2.01,4.56,2.01c2.71,0,4.44-1.83,4.44-5.01
		c0-3.3-1.73-4.5-4-4.5c-1.2,0-2.05,0.25-3.08,0.79h-2.08V189.5h11.21L1129.54,191.58z"/>
	<path class="st1" d="M1140.94,210.53h-2.64v-18.19l-4.97,3.05l-1.17-1.89l6.45-4h2.33V210.53z"/>
	<path class="st1" d="M1167.23,204.99c0,3.68-2.8,5.95-6.45,5.95c-4.25,0-6.36-2.77-6.36-5.7c0-1.23,0.31-2.36,0.85-3.34l2.23,0.63
		c-0.28,0.76-0.44,1.67-0.44,2.64c0,2.2,1.42,3.65,3.71,3.65c2.55,0,3.65-1.7,3.65-3.9c0-4.5-5.19-5.76-5.19-10.95h2.64
		C1161.87,197.69,1167.23,199.8,1167.23,204.99z"/>
	<path class="st1" d="M1179.91,202.22c0-1.98,0.31-3.65,0.91-4.97c-1.1-1.13-2.33-1.51-3.34-1.51c-1.79,0-3.78,1.17-3.78,6.14
		c0,5.41,2.99,7.77,6.61,9.29c2.49,1.07,5.1,2.14,6.86,4.85l-1.92,1.26c-1.2-1.92-3.43-3.62-6.08-3.62c-2.14,0-3.9,0.66-5.26,1.39
		l-0.79-2.39c1.2-0.41,2.61-0.69,4.66-0.66c-3.62-1.61-6.74-4.06-6.74-10.48c0-5.51,2.93-7.9,6.14-7.9c1.61,0,3.27,0.69,4.6,2.05
		c1.13-1.32,2.71-2.05,4.69-2.05c4.22,0,6.64,3.31,6.64,8.62c0,5.1-2.42,8.31-6.61,8.31
		C1182.34,210.53,1179.91,207.19,1179.91,202.22z M1182.68,202.22c0,4.09,1.42,6.17,3.84,6.17s3.81-2.08,3.81-6.17
		c0-4.41-1.42-6.48-3.84-6.48C1184.1,195.74,1182.68,197.78,1182.68,202.22z"/>
	<path class="st1" d="M1209.48,204.99c0,3.68-2.8,5.95-6.45,5.95c-4.25,0-6.36-2.77-6.36-5.7c0-1.23,0.31-2.36,0.85-3.34l2.23,0.63
		c-0.28,0.76-0.44,1.67-0.44,2.64c0,2.2,1.42,3.65,3.71,3.65c2.55,0,3.65-1.7,3.65-3.9c0-4.5-5.19-5.76-5.19-10.95h2.64
		C1204.13,197.69,1209.48,199.8,1209.48,204.99z"/>
	<path class="st1" d="M1226.86,192.93v9.82c0,5.32-2.52,8.18-6.67,8.18c-4.47,0-6.86-3.12-6.86-8.5c0-4.56,2.2-8.47,6.36-8.47
		c2.01,0,3.46,1.01,4.53,2.2v-3.05c0-2.36-0.88-4.16-3.93-4.16c-2.46,0-3.75,1.13-3.75,2.68c0,0.13,0,0.22,0.03,0.44l-2.49,0.31
		c-0.06-0.22-0.09-0.44-0.09-0.72c0-3.05,2.71-4.79,6.3-4.79C1224.18,186.89,1226.86,189.19,1226.86,192.93z M1224.21,202.53v-4.09
		c-1.04-1.38-2.3-2.33-4.09-2.33c-2.49,0-3.97,2.3-3.97,6.33c0,4.38,1.32,6.36,4.03,6.36
		C1222.89,208.8,1224.21,206.82,1224.21,202.53z"/>
	<path class="st1" d="M1238.19,193.6c4.25,0,6.64,3.05,6.64,7.81c0,3.87-1.01,6.83-1.98,9.13h-2.61c1.2-3.08,1.92-5.98,1.92-9.13
		c0-3.87-1.54-5.67-3.97-5.67c-2.46,0-4,1.83-4,5.67c0,3.08,0.72,5.98,1.89,9.13h-2.61c-0.98-2.36-1.95-5.32-1.95-9.13
		C1231.52,196.84,1233.97,193.6,1238.19,193.6z"/>
	<path class="st1" d="M1261.17,204.99c0,3.68-2.8,5.95-6.45,5.95c-4.25,0-6.36-2.77-6.36-5.7c0-1.23,0.31-2.36,0.85-3.34l2.23,0.63
		c-0.28,0.76-0.44,1.67-0.44,2.64c0,2.2,1.42,3.65,3.71,3.65c2.55,0,3.65-1.7,3.65-3.9c0-4.5-5.19-5.76-5.19-10.95h2.64
		C1255.82,197.69,1261.17,199.8,1261.17,204.99z"/>
	<path class="st1" d="M1279.18,202.38c0,5.42-2.64,8.56-6.86,8.56c-4.38,0-6.64-2.83-6.67-8.06v-11.24c0-3.12,2.17-4.75,5.1-4.75
		c2.01,0,3.31,0.44,4.66,0.44c0.6,0,1.29-0.09,2.3-0.44l0.31,1.92c-0.98,0.44-1.79,0.57-2.58,0.57c-1.86,0-2.83-0.41-4.53-0.41
		c-1.7,0-2.61,0.98-2.61,2.83v4c1.13-1.23,2.55-2.2,4.56-2.2C1277.01,193.6,1279.18,197.31,1279.18,202.38z M1276.35,202.38
		c0-4.53-1.48-6.64-3.94-6.64c-1.79,0-3.05,0.91-4.12,2.33v4.47c0,4.28,1.32,6.26,4.03,6.26
		C1275.03,208.8,1276.35,206.78,1276.35,202.38z"/>
	<path class="st1" d="M1290.52,193.6c4.25,0,6.64,3.05,6.64,7.81c0,3.87-1.01,6.83-1.98,9.13h-2.61c1.2-3.08,1.92-5.98,1.92-9.13
		c0-3.87-1.54-5.67-3.97-5.67c-2.46,0-4,1.83-4,5.67c0,3.08,0.72,5.98,1.89,9.13h-2.61c-0.98-2.36-1.95-5.32-1.95-9.13
		C1283.84,196.84,1286.3,193.6,1290.52,193.6z"/>
</g>
<g>
	<path class="st1" d="M1265.41,472.51c0,4-2.49,6.74-9.07,13.41h9.57l-0.31,2.24h-12.28v-2.11c7.49-7.87,9.32-9.92,9.32-13.41
		c0-2.3-1.45-3.65-3.56-3.65c-1.83,0-3.05,0.76-4.44,2.33l-1.73-1.39c1.7-2.08,3.68-3.12,6.3-3.12
		C1263.02,466.81,1265.41,469.27,1265.41,472.51z"/>
	<path class="st1" d="M1280.87,472.51c0,4-2.49,6.74-9.07,13.41h9.57l-0.31,2.24h-12.28v-2.11c7.49-7.87,9.32-9.92,9.32-13.41
		c0-2.3-1.45-3.65-3.56-3.65c-1.83,0-3.05,0.76-4.44,2.33l-1.73-1.39c1.7-2.08,3.68-3.12,6.3-3.12
		C1278.48,466.81,1280.87,469.27,1280.87,472.51z"/>
	<path class="st1" d="M1295.61,469.11l-7.96,19.33l-2.42-0.79l7.71-18.35h-9.44v-2.17h12.12V469.11z"/>
	<path class="st1" d="M1319.34,482.62c0,3.68-2.8,5.95-6.45,5.95c-4.25,0-6.36-2.77-6.36-5.7c0-1.23,0.31-2.36,0.85-3.34l2.23,0.63
		c-0.28,0.76-0.44,1.67-0.44,2.64c0,2.2,1.42,3.65,3.71,3.65c2.55,0,3.65-1.7,3.65-3.9c0-4.5-5.19-5.76-5.19-10.95h2.64
		C1313.99,475.31,1319.34,477.42,1319.34,482.62z"/>
	<path class="st1" d="M1332.03,479.85c0-1.98,0.31-3.65,0.91-4.97c-1.1-1.13-2.33-1.51-3.34-1.51c-1.79,0-3.78,1.17-3.78,6.14
		c0,5.41,2.99,7.77,6.61,9.29c2.49,1.07,5.1,2.14,6.86,4.85l-1.92,1.26c-1.2-1.92-3.43-3.62-6.08-3.62c-2.14,0-3.9,0.66-5.26,1.39
		l-0.79-2.39c1.2-0.41,2.61-0.69,4.66-0.66c-3.62-1.61-6.74-4.06-6.74-10.48c0-5.51,2.93-7.9,6.14-7.9c1.61,0,3.27,0.69,4.6,2.05
		c1.13-1.32,2.71-2.05,4.69-2.05c4.22,0,6.64,3.31,6.64,8.62c0,5.1-2.42,8.31-6.61,8.31S1332.03,484.82,1332.03,479.85z
		 M1334.8,479.85c0,4.09,1.42,6.17,3.84,6.17s3.81-2.08,3.81-6.17c0-4.41-1.42-6.48-3.84-6.48
		C1336.22,473.36,1334.8,475.41,1334.8,479.85z"/>
	<path class="st1" d="M1361.59,482.62c0,3.68-2.8,5.95-6.45,5.95c-4.25,0-6.36-2.77-6.36-5.7c0-1.23,0.31-2.36,0.85-3.34l2.23,0.63
		c-0.28,0.76-0.44,1.67-0.44,2.64c0,2.2,1.42,3.65,3.71,3.65c2.55,0,3.65-1.7,3.65-3.9c0-4.5-5.19-5.76-5.19-10.95h2.64
		C1356.24,475.31,1361.59,477.42,1361.59,482.62z"/>
	<path class="st1" d="M1378.97,470.56v9.82c0,5.32-2.52,8.18-6.67,8.18c-4.47,0-6.86-3.12-6.86-8.5c0-4.56,2.2-8.47,6.36-8.47
		c2.01,0,3.46,1.01,4.53,2.2v-3.05c0-2.36-0.88-4.16-3.93-4.16c-2.46,0-3.75,1.13-3.75,2.68c0,0.13,0,0.22,0.03,0.44l-2.49,0.31
		c-0.06-0.22-0.09-0.44-0.09-0.72c0-3.05,2.71-4.79,6.3-4.79C1376.3,464.52,1378.97,466.81,1378.97,470.56z M1376.33,480.16v-4.09
		c-1.04-1.38-2.3-2.33-4.09-2.33c-2.49,0-3.97,2.3-3.97,6.33c0,4.38,1.32,6.36,4.03,6.36S1376.33,484.44,1376.33,480.16z"/>
	<path class="st1" d="M1390.31,471.22c4.25,0,6.64,3.05,6.64,7.81c0,3.87-1.01,6.83-1.98,9.13h-2.61c1.2-3.08,1.92-5.98,1.92-9.13
		c0-3.87-1.54-5.67-3.97-5.67c-2.46,0-4,1.83-4,5.67c0,3.08,0.72,5.98,1.89,9.13h-2.61c-0.98-2.36-1.95-5.32-1.95-9.13
		C1383.63,474.46,1386.09,471.22,1390.31,471.22z"/>
	<path class="st1" d="M1413.29,482.62c0,3.68-2.8,5.95-6.45,5.95c-4.25,0-6.36-2.77-6.36-5.7c0-1.23,0.31-2.36,0.85-3.34l2.23,0.63
		c-0.28,0.76-0.44,1.67-0.44,2.64c0,2.2,1.42,3.65,3.71,3.65c2.55,0,3.65-1.7,3.65-3.9c0-4.5-5.19-5.76-5.19-10.95h2.64
		C1407.94,475.31,1413.29,477.42,1413.29,482.62z"/>
	<path class="st1" d="M1431.3,480c0,5.42-2.64,8.56-6.86,8.56c-4.38,0-6.64-2.83-6.67-8.06v-11.24c0-3.12,2.17-4.75,5.1-4.75
		c2.01,0,3.31,0.44,4.66,0.44c0.6,0,1.29-0.09,2.3-0.44l0.31,1.92c-0.98,0.44-1.79,0.57-2.58,0.57c-1.86,0-2.83-0.41-4.53-0.41
		c-1.7,0-2.61,0.98-2.61,2.83v4c1.13-1.23,2.55-2.2,4.56-2.2C1429.13,471.22,1431.3,474.94,1431.3,480z M1428.47,480
		c0-4.53-1.48-6.64-3.94-6.64c-1.79,0-3.05,0.91-4.12,2.33v4.47c0,4.28,1.32,6.26,4.03,6.26
		C1427.14,486.42,1428.47,484.41,1428.47,480z"/>
	<path class="st1" d="M1442.63,471.22c4.25,0,6.64,3.05,6.64,7.81c0,3.87-1.01,6.83-1.98,9.13h-2.61c1.2-3.08,1.92-5.98,1.92-9.13
		c0-3.87-1.54-5.67-3.97-5.67c-2.46,0-4,1.83-4,5.67c0,3.08,0.72,5.98,1.89,9.13h-2.61c-0.98-2.36-1.95-5.32-1.95-9.13
		C1435.96,474.46,1438.42,471.22,1442.63,471.22z"/>
</g>
<g>
	<path class="st1" d="M992.07,596.01h-2.62v-5.25h2.62V596.01z M992.07,585.51h-2.62v-5.25h2.62V585.51z M992.07,575.01h-2.62v-5.25
		h2.62V575.01z M992.07,564.51h-2.62v-5.25h2.62V564.51z M992.07,554.01h-2.62v-5.25h2.62V554.01z M992.07,543.51h-2.62v-5.25h2.62
		V543.51z M992.07,533.01h-2.62v-5.25h2.62V533.01z M992.07,522.51h-2.62v-5.25h2.62V522.51z M992.07,512.01h-2.62v-5.25h2.62
		V512.01z M992.07,501.51h-2.62v-5.25h2.62V501.51z M992.07,491.01h-2.62v-5.25h2.62V491.01z M992.07,480.51h-2.62v-5.25h2.62
		V480.51z M992.07,470.01h-2.62v-5.25h2.62V470.01z M992.07,459.51h-2.62v-5.25h2.62V459.51z M992.07,449.01h-2.62v-5.25h2.62
		V449.01z M1450.11,442.44h-5.25v-2.62h5.25V442.44z M1439.61,442.44h-5.25v-2.62h5.25V442.44z M1429.11,442.44h-5.25v-2.62h5.25
		V442.44z M1418.61,442.44h-5.25v-2.62h5.25V442.44z M1408.11,442.44h-5.25v-2.62h5.25V442.44z M1397.61,442.44h-5.25v-2.62h5.25
		V442.44z M1387.11,442.44h-5.25v-2.62h5.25V442.44z M1376.61,442.44h-5.25v-2.62h5.25V442.44z M1366.11,442.44h-5.25v-2.62h5.25
		V442.44z M1355.61,442.44h-5.25v-2.62h5.25V442.44z M1345.11,442.44h-5.25v-2.62h5.25V442.44z M1334.62,442.44h-5.25v-2.62h5.25
		V442.44z M1324.12,442.44h-5.25v-2.62h5.25V442.44z M1313.62,442.44h-5.25v-2.62h5.25V442.44z M1303.12,442.44h-5.25v-2.62h5.25
		V442.44z M1292.62,442.44h-5.25v-2.62h5.25V442.44z M1282.12,442.44h-5.25v-2.62h5.25V442.44z M1271.62,442.44h-5.25v-2.62h5.25
		V442.44z M1261.12,442.44h-5.25v-2.62h5.25V442.44z M1250.62,442.44h-5.25v-2.62h5.25V442.44z M1240.12,442.44h-5.25v-2.62h5.25
		V442.44z M1229.62,442.44h-5.25v-2.62h5.25V442.44z M1219.12,442.44h-5.25v-2.62h5.25V442.44z M1208.62,442.44h-5.25v-2.62h5.25
		V442.44z M1198.12,442.44h-5.25v-2.62h5.25V442.44z M1187.62,442.44h-5.25v-2.62h5.25V442.44z M1177.12,442.44h-5.25v-2.62h5.25
		V442.44z M1166.62,442.44h-5.25v-2.62h5.25V442.44z M1156.12,442.44h-5.25v-2.62h5.25V442.44z M1145.62,442.44h-5.25v-2.62h5.25
		V442.44z M1135.12,442.44h-5.25v-2.62h5.25V442.44z M1124.62,442.44h-5.25v-2.62h5.25V442.44z M1114.13,442.44h-5.25v-2.62h5.25
		V442.44z M1103.63,442.44h-5.25v-2.62h5.25V442.44z M1093.13,442.44h-5.25v-2.62h5.25V442.44z M1082.63,442.44h-5.25v-2.62h5.25
		V442.44z M1072.13,442.44h-5.25v-2.62h5.25V442.44z M1061.63,442.44h-5.25v-2.62h5.25V442.44z M1051.13,442.44h-5.25v-2.62h5.25
		V442.44z M1040.63,442.44h-5.25v-2.62h5.25V442.44z M1030.13,442.44h-5.25v-2.62h5.25V442.44z M1019.63,442.44h-5.25v-2.62h5.25
		V442.44z M1009.13,442.44h-5.25v-2.62h5.25V442.44z M998.63,442.44h-5.25v-2.62h5.25V442.44z"/>
</g>
<g>
	<path class="st1" d="M940.54,596.01c0-0.43,0-2.28-0.01-5.32l2.62,0c0,3.04,0.01,4.88,0.01,5.31L940.54,596.01z M940.53,585.4
		l0-5.28l2.62,0l0,5.28L940.53,585.4z M940.53,574.85l0-5.27l2.62,0l0,5.27H940.53z M940.52,564.32l0-5.26h2.62l0,5.26H940.52z
		 M940.52,553.79l0-5.26h2.62l0,5.26H940.52z M940.52,543.27l0-5.26h2.62l0,5.26H940.52z M940.52,532.75l0-5.26h2.62l0,5.26H940.52z
		 M940.51,522.23l0-5.26h2.62l0,5.26H940.51z M940.51,511.72l0-5.26h2.62l0,5.26H940.51z M940.51,501.2l0-5.26h2.62l0,5.26H940.51z
		 M940.51,490.68l0-5.26h2.62l0,5.26H940.51z M940.51,480.18l0-5.27h2.62l0,5.27H940.51z M940.5,469.65h1.31H940.5l0-5.26h2.62
		l0,5.26L940.5,469.65z M940.5,459.14h1.31H940.5l0-5.26h2.62l0,5.25L940.5,459.14z M940.5,448.62h1.31l-1.31-0.02l0-5.24h2.62
		l0,5.24L940.5,448.62z M943.12,438.11h-2.62l0-5.26h2.62L943.12,438.11z M943.12,427.59h-2.62l0-5.26h2.62L943.12,427.59z
		 M943.12,417.07h-2.62l0-5.26h2.62L943.12,417.07z M943.12,406.55h-2.62l0-5.26h2.62L943.12,406.55z M943.12,396.03h-2.62l0-5.26
		h2.62L943.12,396.03z M943.12,385.51h-2.62l0-5.26h2.62L943.12,385.51z M943.12,374.98h-2.62l0-5.27h2.62L943.12,374.98z
		 M943.12,364.44h-2.62l0-5.28h2.62L943.12,364.44z M943.12,353.89h-2.62l0-5.3l2.62,0L943.12,353.89z M938.26,348.15h-5.25v-2.62
		h5.25V348.15z M927.76,348.15h-5.25v-2.62h5.25V348.15z M917.27,348.15h-5.25v-2.62h5.25V348.15z M906.77,348.15h-5.25v-2.62h5.25
		V348.15z M896.27,348.15h-5.25v-2.62h5.25V348.15z M885.77,348.15h-5.25v-2.62h5.25V348.15z M875.27,348.15h-5.25v-2.62h5.25
		V348.15z M864.77,348.15h-5.25v-2.62h5.25V348.15z M854.27,348.15h-5.25v-2.62h5.25V348.15z M843.77,348.15h-5.25v-2.62h5.25
		V348.15z M833.27,348.15h-5.25v-2.62h5.25V348.15z M822.77,348.15h-5.25v-2.62h5.25V348.15z M812.27,348.15h-5.25v-2.62h5.25
		V348.15z M801.77,348.15h-5.25v-2.62h5.25V348.15z M791.27,348.15h-5.25v-2.62h5.25V348.15z M780.77,348.15h-5.25v-2.62h5.25
		V348.15z M770.27,348.15h-5.25v-2.62h5.25V348.15z M759.77,348.15h-5.25v-2.62h5.25V348.15z M749.27,348.15h-5.25v-2.62h5.25
		V348.15z M738.77,348.15h-5.25v-2.62h5.25V348.15z M728.27,348.15h-5.25v-2.62h5.25V348.15z M717.77,348.15h-5.25v-2.62h5.25
		V348.15z M707.27,348.15h-5.25v-2.62h5.25V348.15z M696.78,348.15h-5.25v-2.62h5.25V348.15z M686.28,348.15h-5.25v-2.62h5.25
		V348.15z M675.78,348.15h-5.25v-2.62h5.25V348.15z M665.28,348.15h-5.25v-2.62h5.25V348.15z M654.78,348.15h-5.25v-2.62h5.25
		V348.15z M644.28,348.15h-5.25v-2.62h5.25V348.15z"/>
</g>
<g>
	<path class="st1" d="M904.17,596.01h-2.62v-5.25h2.62V596.01z M904.17,585.51h-2.62v-5.25h2.62V585.51z M904.17,575.01h-2.62v-5.25
		h2.62V575.01z M904.17,564.51h-2.62v-5.25h2.62V564.51z M904.17,554.01h-2.62v-5.25h2.62V554.01z M904.17,543.51h-2.62v-5.25h2.62
		V543.51z M904.17,533.01h-2.62v-5.25h2.62V533.01z M904.17,522.51h-2.62v-0.86h-1.76v-2.62h4.39V522.51z M894.54,521.65h-5.25
		v-2.62h5.25V521.65z M884.04,521.65h-5.25v-2.62h5.25V521.65z M873.54,521.65h-5.25v-2.62h5.25V521.65z M863.04,521.65h-5.25v-2.62
		h5.25V521.65z M852.54,521.65h-5.25v-2.62h5.25V521.65z M842.04,521.65h-5.25v-2.62h5.25V521.65z M831.54,521.65h-5.25v-2.62h5.25
		V521.65z M821.04,521.65h-5.25v-2.62h5.25V521.65z M810.54,521.65h-5.25v-2.62h5.25V521.65z M800.04,521.65h-5.25v-2.62h5.25
		V521.65z M789.54,521.65h-5.25v-2.62h5.25V521.65z M779.04,521.65h-5.25v-2.62h5.25V521.65z M768.54,521.65h-5.25v-2.62h5.25
		V521.65z M758.04,521.65h-5.25v-2.62h5.25V521.65z M747.54,521.65h-5.25v-2.62h5.25V521.65z M737.04,521.65h-5.25v-2.62h5.25
		V521.65z M726.54,521.65h-5.25v-2.62h5.25V521.65z M716.04,521.65h-5.25v-2.62h5.25V521.65z M705.54,521.65h-5.25v-2.62h5.25
		V521.65z M695.04,521.65h-5.25v-2.62h5.25V521.65z M684.54,521.65h-5.25v-2.62h5.25V521.65z M674.05,521.65h-5.25v-2.62h5.25
		V521.65z M663.55,521.65h-5.25v-2.62h5.25V521.65z M653.05,521.65h-5.25v-2.62h5.25V521.65z M642.55,521.65h-5.25v-2.62h5.25
		V521.65z M632.05,521.65h-5.25v-2.62h5.25V521.65z M621.55,521.65h-5.25v-2.62h5.25V521.65z M611.05,521.65h-5.25v-2.62h5.25
		V521.65z M600.55,521.65h-5.25v-2.62h5.25V521.65z M590.05,521.65h-5.25v-2.62h5.25V521.65z M579.55,521.65h-5.25v-2.62h5.25
		V521.65z M569.05,521.65h-5.25v-2.62h5.25V521.65z M558.55,521.65h-5.25v-2.62h5.25V521.65z M548.05,521.65h-5.25v-2.62h5.25
		V521.65z M537.55,521.65h-5.25v-2.62h5.25V521.65z M527.05,521.65h-5.25v-2.62h5.25V521.65z M516.55,521.65h-5.25v-2.62h5.25
		V521.65z M506.05,521.65h-5.25v-2.62h5.25V521.65z M495.55,521.65h-5.25v-2.62h5.25V521.65z M485.05,521.65h-5.25v-2.62h5.25
		V521.65z M474.55,521.65h-5.25v-2.62h5.25V521.65z M464.06,521.65h-5.25v-2.62h5.25V521.65z M453.56,521.65h-5.25v-2.62h5.25
		V521.65z M443.06,521.65h-5.25v-2.62h5.25V521.65z M432.56,521.65h-5.25v-2.62h5.25V521.65z M422.06,521.65h-5.25v-2.62h5.25
		V521.65z M411.56,521.65h-5.25v-2.62h5.25V521.65z M401.06,521.65h-5.25v-2.62h5.25V521.65z M390.56,521.65h-5.25v-2.62h5.25
		V521.65z M380.06,521.65h-5.25v-2.62h5.25V521.65z M369.56,521.65h-5.25v-2.62h5.25V521.65z M359.06,521.65h-5.25v-2.62h5.25
		V521.65z M348.56,521.65h-5.25v-2.62h5.25V521.65z M338.06,521.65h-5.25v-2.62h5.25V521.65z M327.56,521.65h-5.25v-2.62h5.25
		V521.65z M317.06,521.65h-5.25v-2.62h5.25V521.65z M306.56,521.65h-5.25v-2.62h5.25V521.65z M296.06,521.65h-0.27v-2.62h0.27
		V521.65z"/>
</g>
<g>
	<path class="st1" d="M1830.17,1499.59h-5.25v-2.62h5.25V1499.59z M1819.67,1499.59h-5.25v-2.62h5.25V1499.59z M1809.17,1499.59
		h-5.25v-2.62h5.25V1499.59z M1798.67,1499.59h-5.25v-2.62h5.25V1499.59z M1788.17,1499.59h-5.25v-2.62h5.25V1499.59z
		 M1777.67,1499.59h-5.25v-2.62h5.25V1499.59z M1767.17,1499.59h-5.25v-2.62h5.25V1499.59z M1756.67,1499.59h-5.25v-2.62h5.25
		V1499.59z M1746.17,1499.59h-5.25v-2.62h5.25V1499.59z M1735.67,1499.59h-5.25v-2.62h5.25V1499.59z M1725.17,1499.59h-5.25v-2.62
		h5.25V1499.59z M1714.67,1499.59h-5.25v-2.62h5.25V1499.59z M1704.17,1499.59h-5.25v-2.62h5.25V1499.59z M1693.67,1499.59h-5.25
		v-2.62h5.25V1499.59z M1683.17,1499.59h-5.25v-2.62h5.25V1499.59z M1672.67,1499.59h-5.25v-2.62h5.25V1499.59z M1662.17,1499.59
		h-5.25v-2.62h5.25V1499.59z M1651.67,1499.59h-5.25v-2.62h5.25V1499.59z M1641.17,1499.59h-5.25v-2.62h5.25V1499.59z
		 M1630.67,1499.59h-5.25v-2.62h5.25V1499.59z M1620.18,1499.59h-5.25v-2.62h5.25V1499.59z M1609.68,1499.59h-5.25v-2.62h5.25
		V1499.59z M1599.18,1499.59h-5.25v-2.62h5.25V1499.59z M1588.68,1499.59h-5.25v-2.62h5.25V1499.59z M1578.18,1499.59h-5.25v-2.62
		h5.25V1499.59z M1567.68,1499.59h-5.25v-2.62h5.25V1499.59z M1557.18,1499.59h-5.25v-2.62h5.25V1499.59z M1546.68,1499.59h-5.25
		v-2.62h5.25V1499.59z M1536.18,1499.59h-5.25v-2.62h5.25V1499.59z M1525.68,1499.59h-5.25v-2.62h5.25V1499.59z M1515.18,1499.59
		h-5.25v-2.62h5.25V1499.59z M1504.68,1499.59h-5.25v-2.62h5.25V1499.59z M1494.18,1499.59h-5.25v-2.62h5.25V1499.59z
		 M1483.68,1499.59h-5.25v-2.62h5.25V1499.59z M1473.18,1499.59h-5.25v-2.62h5.25V1499.59z M1462.68,1499.59h-5.25v-2.62h5.25
		V1499.59z M1452.18,1499.59h-5.25v-2.62h5.25V1499.59z M1441.68,1499.59h-5.25v-2.62h5.25V1499.59z M1431.18,1499.59h-5.25v-2.62
		h5.25V1499.59z M1420.68,1499.59h-5.25v-2.62h5.25V1499.59z M1410.19,1499.59h-5.25v-2.62h5.25V1499.59z M1402.18,1497.09h-2.62
		v-5.25h2.62V1497.09z M1402.18,1486.59h-2.62v-5.25h2.62V1486.59z M1402.18,1476.09h-2.62v-5.25h2.62V1476.09z M1402.18,1465.59
		h-2.62v-5.25h2.62V1465.59z M1402.18,1455.09h-2.62v-5.25h2.62V1455.09z M1402.18,1444.6h-2.62v-5.25h2.62V1444.6z M1402.18,1434.1
		h-2.62v-5.25h2.62V1434.1z M1402.18,1423.6h-2.62v-5.25h2.62V1423.6z"/>
</g>
<g>
	<path class="st1" d="M978.13,596.01h-2.62v-5.25h2.62V596.01z M978.13,585.51h-2.62v-5.25h2.62V585.51z M978.13,575.01h-2.62v-5.25
		h2.62V575.01z M978.13,564.51h-2.62v-5.25h2.62V564.51z M978.13,554.01h-2.62v-5.25h2.62V554.01z M978.13,543.51h-2.62v-5.25h2.62
		V543.51z M978.13,533.01h-2.62v-5.25h2.62V533.01z M978.13,522.51h-2.62v-5.25h2.62V522.51z M978.13,512.01h-2.62v-5.25h2.62
		V512.01z M978.13,501.51h-2.62v-5.25h2.62V501.51z M978.13,491.01h-2.62v-5.25h2.62V491.01z M978.13,480.51h-2.62v-5.25h2.62
		V480.51z M978.13,470.01h-2.62v-5.25h2.62V470.01z M978.13,459.51h-2.62v-5.25h2.62V459.51z M978.13,449.01h-2.62v-5.25h2.62
		V449.01z M978.13,438.51h-2.62v-5.25h2.62V438.51z M978.13,428.01h-2.62v-5.25h2.62V428.01z M978.13,417.51h-2.62v-5.25h2.62
		V417.51z M978.13,407.01h-2.62v-5.25h2.62V407.01z M978.13,396.51h-2.62v-5.25h2.62V396.51z M978.13,386.02h-2.62v-5.25h2.62
		V386.02z M978.13,375.52h-2.62v-5.25h2.62V375.52z M978.13,365.02h-2.62v-5.25h2.62V365.02z M978.13,354.52h-2.62v-5.25h2.62
		V354.52z M978.13,344.02h-2.62v-5.25h2.62V344.02z M978.13,333.52h-2.62v-5.25h2.62V333.52z M978.13,323.02h-2.62v-5.25h2.62
		V323.02z M978.13,312.52h-2.62v-5.25h2.62V312.52z M978.13,302.02h-2.62v-5.25h2.62V302.02z M978.13,291.52h-2.62v-5.25h2.62
		V291.52z M978.13,281.02h-2.62v-5.25h2.62V281.02z M978.13,270.52h-2.62v-5.25h2.62V270.52z M978.13,260.02h-2.62v-5.25h2.62
		V260.02z M978.13,249.52h-2.62v-5.25h2.62V249.52z M978.13,239.02h-2.62v-5.25h2.62V239.02z M978.13,228.52h-2.62v-5.25h2.62
		V228.52z M978.13,218.02h-2.62v-5.25h2.62V218.02z M978.13,207.52h-2.62v-5.25h2.62V207.52z M978.13,197.02h-2.62v-5.25h2.62
		V197.02z M978.13,186.52h-2.62v-5.25h2.62V186.52z M978.13,176.03h-2.62v-5.25h2.62V176.03z M1298.25,168.04H1293v-2.62h5.25
		V168.04z M1287.75,168.04h-5.25v-2.62h5.25V168.04z M1277.25,168.04H1272v-2.62h5.25V168.04z M1266.75,168.04h-5.25v-2.62h5.25
		V168.04z M1256.25,168.04H1251v-2.62h5.25V168.04z M1245.75,168.04h-5.25v-2.62h5.25V168.04z M1235.25,168.04H1230v-2.62h5.25
		V168.04z M1224.75,168.04h-5.25v-2.62h5.25V168.04z M1214.25,168.04H1209v-2.62h5.25V168.04z M1203.75,168.04h-5.25v-2.62h5.25
		V168.04z M1193.25,168.04H1188v-2.62h5.25V168.04z M1182.75,168.04h-5.25v-2.62h5.25V168.04z M1172.25,168.04H1167v-2.62h5.25
		V168.04z M1161.75,168.04h-5.25v-2.62h5.25V168.04z M1151.26,168.04h-5.25v-2.62h5.25V168.04z M1140.76,168.04h-5.25v-2.62h5.25
		V168.04z M1130.26,168.04h-5.25v-2.62h5.25V168.04z M1119.76,168.04h-5.25v-2.62h5.25V168.04z M1109.26,168.04h-5.25v-2.62h5.25
		V168.04z M1098.76,168.04h-5.25v-2.62h5.25V168.04z M1088.26,168.04h-5.25v-2.62h5.25V168.04z M1077.76,168.04h-5.25v-2.62h5.25
		V168.04z M1067.26,168.04h-5.25v-2.62h5.25V168.04z M1056.76,168.04h-5.25v-2.62h5.25V168.04z M1046.26,168.04h-5.25v-2.62h5.25
		V168.04z M1035.76,168.04h-5.25v-2.62h5.25V168.04z M1025.26,168.04h-5.25v-2.62h5.25V168.04z M1014.76,168.04h-5.25v-2.62h5.25
		V168.04z M1004.26,168.04h-5.25v-2.62h5.25V168.04z M993.76,168.04h-5.25v-2.62h5.25V168.04z M983.26,168.04h-5.25v-2.62h5.25
		V168.04z"/>
</g>
<g>
	<path class="st1" d="M549.96,979.97h-2.62v-2.33h2.62V979.97z M549.96,972.39h-2.62v-5.25h2.62V972.39z M549.96,961.89h-2.62v-5.25
		h2.62V961.89z M549.96,951.39h-2.62v-1.5h-1.13v-2.62h3.75V951.39z M540.96,949.89h-5.25v-2.62h5.25V949.89z M530.46,949.89h-5.25
		v-2.62h5.25V949.89z M519.96,949.89h-5.25v-2.62h5.25V949.89z M509.47,949.89h-5.25v-2.62h5.25V949.89z M498.97,949.89h-5.25v-2.62
		h5.25V949.89z M488.47,949.89h-5.25v-2.62h5.25V949.89z M477.97,949.89h-5.25v-2.62h5.25V949.89z M467.47,949.89h-5.25v-2.62h5.25
		V949.89z M456.97,949.89h-5.25v-2.62h5.25V949.89z M446.47,949.89h-5.25v-2.62h5.25V949.89z M435.97,949.89h-5.25v-2.62h5.25
		V949.89z M425.47,949.89h-5.25v-2.62h5.25V949.89z M414.97,949.89h-5.25v-2.62h5.25V949.89z M404.47,949.89h-5.25v-2.62h5.25
		V949.89z M393.97,949.89h-5.25v-2.62h5.25V949.89z M383.47,949.89h-5.25v-2.62h5.25V949.89z M372.97,949.89h-5.25v-2.62h5.25
		V949.89z M362.47,949.89h-5.25v-2.62h5.25V949.89z M351.97,949.89h-5.25v-2.62h5.25V949.89z M341.47,949.89h-5.25v-2.62h5.25
		V949.89z M330.97,949.89h-5.25v-2.62h5.25V949.89z M320.47,949.89h-5.25v-2.62h5.25V949.89z M309.97,949.89h-5.25v-2.62h5.25
		V949.89z M299.48,949.89h-5.25v-2.62h5.25V949.89z M288.98,949.89h-5.25v-2.62h5.25V949.89z M278.48,949.89h-5.25v-2.62h5.25
		V949.89z M267.98,949.89h-5.25v-2.62h5.25V949.89z M257.48,949.89h-5.25v-2.62h5.25V949.89z M246.98,949.89h-5.25v-2.62h5.25
		V949.89z M236.48,949.89h-5.25v-2.62h5.25V949.89z M225.98,949.89h-5.25v-2.62h5.25V949.89z M215.48,949.89h-5.25v-2.62h5.25
		V949.89z M204.98,949.89h-5.25v-2.62h5.25V949.89z M194.48,949.89h-5.25v-2.62h5.25V949.89z M183.98,949.89h-5.25v-2.62h5.25
		V949.89z"/>
</g>
<g>
	<circle class="st1" cx="902.86" cy="603.31" r="4.34"/>
</g>
<g>
	<circle class="st1" cx="548.65" cy="981.48" r="4.34"/>
</g>
<g>
	<circle class="st1" cx="1400.87" cy="1409.21" r="4.34"/>
</g>
<g>
	<circle class="st1" cx="941.86" cy="603.31" r="4.34"/>
</g>
<g>
	<circle class="st1" cx="976.85" cy="603.31" r="4.34"/>
</g>
<g>
	<circle class="st9" cx="991.57" cy="603.31" r="4.34"/>
</g>
<g>
	<path class="st9" d="M992.07,596.01h-2.62v-5.25h2.62V596.01z M992.07,585.51h-2.62v-5.25h2.62V585.51z M992.07,575.01h-2.62v-5.25
		h2.62V575.01z M992.07,564.51h-2.62v-5.25h2.62V564.51z M992.07,554.01h-2.62v-5.25h2.62V554.01z"/>
</g>
</svg>
