<?xml version="1.0" encoding="utf-8"?>
<!-- Generator: Adobe Illustrator 26.1.0, SVG Export Plug-In . SVG Version: 6.00 Build 0)  -->
<svg version="1.1" id="Layer_1" xmlns="http://www.w3.org/2000/svg" xmlns:xlink="http://www.w3.org/1999/xlink" x="0px" y="0px"
	 viewBox="0 0 2000 3200" style="enable-background:new 0 0 2000 3200;" xml:space="preserve">
<style type="text/css">
	.st0{fill:#70D9D9;}
	.st1{fill:#FFFFFF;}
	.st2{fill:#FF7F36;}
	.st3{fill:#007575;}
	.st4{fill:#222433;}
	.st5{fill:#FF7F36;stroke:#FF7F36;stroke-miterlimit:10;}
	.st6{fill:#15C2C1;}
	.st7{fill:#FDA979;}
	.st8{fill:#C35515;}
	.st9{fill:none;stroke:#5A38FD;stroke-width:111.9047;stroke-miterlimit:10;}
	.st10{fill:none;stroke:#FF7F36;stroke-width:111.9047;stroke-miterlimit:10;}
	.st11{fill:none;stroke:#FFFFFF;stroke-width:9.2351;stroke-miterlimit:10;stroke-dasharray:23.0877,36.9403;}
	.st12{fill:none;stroke:#313341;stroke-width:3.8308;stroke-miterlimit:10;}
	.st13{fill:none;}
	.st14{opacity:0.75;fill:#70D9D9;}
	.st15{fill:#5A38FD;}
	.st16{fill:none;stroke:#222433;stroke-width:8.5039;stroke-miterlimit:10;stroke-dasharray:14.1732,14.1732;}
	.st17{fill:#7057FD;}
	.st18{fill:none;stroke:#222433;stroke-width:5.4074;stroke-miterlimit:10;}
	.st19{fill:#222433;stroke:#222433;stroke-width:5.4303;stroke-miterlimit:10;}
	.st20{fill:#2B292D;}
	.st21{fill:none;stroke:#C35515;stroke-width:9.9101;stroke-miterlimit:10;}
	.st22{fill:none;stroke:#C35515;stroke-width:5.6693;stroke-miterlimit:10;}
	.st23{fill:#C35515;stroke:#000000;stroke-miterlimit:10;}
	.st24{fill:#C35515;stroke:#000000;stroke-width:0.6042;stroke-miterlimit:10;}
	.st25{fill:#15C2C1;stroke:#222433;stroke-width:6.1644;stroke-miterlimit:10;}
	.st26{fill:#FFFFFF;stroke:#000000;stroke-width:6.1644;stroke-miterlimit:10;}
	.st27{fill:none;stroke:#007575;stroke-width:6.1644;stroke-miterlimit:10;}
	.st28{fill:none;stroke:#FFFFFF;stroke-width:14.1732;stroke-miterlimit:10;stroke-dasharray:23.0877,36.9403;}
	.st29{fill-rule:evenodd;clip-rule:evenodd;fill:#FDA979;}
	.st30{fill-rule:evenodd;clip-rule:evenodd;fill:#FFFFFF;}
	.st31{fill-rule:evenodd;clip-rule:evenodd;fill:#007575;}
	.st32{fill:#606060;}
	.st33{clip-path:url(#SVGID_00000154394342360704039750000001557020488955904410_);}
	.st34{fill:#222433;stroke:#222433;stroke-width:1.0471;stroke-miterlimit:10;}
	.st35{fill:#222433;stroke:#222433;stroke-width:2.2688;stroke-miterlimit:10;}
	.st36{fill:#82B1FF;}
	.st37{fill:#15C2C1;stroke:#70D9D9;stroke-width:15.652;stroke-miterlimit:10;}
	.st38{stroke:#222433;stroke-width:0.8333;stroke-miterlimit:10;}
	.st39{clip-path:url(#SVGID_00000143589813690546079850000010981888445077675453_);}
	.st40{clip-path:url(#SVGID_00000143589813690546079850000010981888445077675453_);fill:#FF7F36;}
	.st41{clip-path:url(#SVGID_00000143589813690546079850000010981888445077675453_);fill:#C35515;}
	.st42{fill:#222433;stroke:#222433;stroke-width:0.791;stroke-miterlimit:10;}
	.st43{fill-rule:evenodd;clip-rule:evenodd;fill:#FF7F36;}
	.st44{fill-rule:evenodd;clip-rule:evenodd;fill:#15C2C1;}
	.st45{fill:none;stroke:#FF7F36;stroke-width:11.3386;stroke-miterlimit:10;}
	.st46{fill:none;stroke:#FF7F36;stroke-width:9.6934;stroke-miterlimit:10;}
	.st47{opacity:0.44;fill:#FDA979;}
	.st48{fill:none;stroke:#70D9D9;stroke-width:8.5039;stroke-miterlimit:10;stroke-dasharray:11.5087,11.5098;}
	.st49{opacity:0.75;fill:#007575;}
	.st50{clip-path:url(#SVGID_00000033327050845886915730000004394096285529895600_);}
	.st51{fill:none;stroke:#FF7F36;stroke-miterlimit:10;}
	.st52{clip-path:url(#SVGID_00000032609600186951438770000002533575399913155215_);}
	.st53{stroke:#70D9D9;stroke-width:8.5039;stroke-miterlimit:10;}
	.st54{fill:#FDA979;stroke:#222433;stroke-width:17.0079;stroke-miterlimit:10;}
	.st55{clip-path:url(#SVGID_00000044167902010948519090000002841657266585646733_);}
	.st56{fill:none;stroke:#222433;stroke-width:16.1222;stroke-linecap:round;stroke-miterlimit:10;}
	.st57{clip-path:url(#SVGID_00000052782912075984694510000005771528063513041818_);fill:#15C2C1;}
	.st58{clip-path:url(#SVGID_00000052782912075984694510000005771528063513041818_);fill:#C35515;}
	
		.st59{clip-path:url(#SVGID_00000052782912075984694510000005771528063513041818_);fill:#15C2C1;stroke:#000000;stroke-width:8.2755;stroke-miterlimit:10;}
	.st60{clip-path:url(#SVGID_00000052782912075984694510000005771528063513041818_);fill:#FF7F36;}
	
		.st61{clip-path:url(#SVGID_00000052782912075984694510000005771528063513041818_);fill:#15C2C1;stroke:#000000;stroke-width:8.5039;stroke-miterlimit:10;}
	
		.st62{clip-path:url(#SVGID_00000052782912075984694510000005771528063513041818_);fill:none;stroke:#000000;stroke-width:8.5039;stroke-miterlimit:10;}
	
		.st63{clip-path:url(#SVGID_00000052782912075984694510000005771528063513041818_);fill:#FFFFFF;stroke:#000000;stroke-width:8.5039;stroke-miterlimit:10;}
	.st64{clip-path:url(#SVGID_00000052782912075984694510000005771528063513041818_);}
	.st65{fill:none;stroke:#000000;stroke-width:8.2815;stroke-linecap:round;stroke-miterlimit:10;}
	
		.st66{clip-path:url(#SVGID_00000052782912075984694510000005771528063513041818_);fill:#FFFFFF;stroke:#000000;stroke-width:8.7446;stroke-miterlimit:10;}
	.st67{clip-path:url(#SVGID_00000052782912075984694510000005771528063513041818_);fill:none;}
	.st68{clip-path:url(#SVGID_00000091709710634768298590000017882980238403657384_);fill:#FF7F36;}
	.st69{clip-path:url(#SVGID_00000091709710634768298590000017882980238403657384_);}
	
		.st70{clip-path:url(#SVGID_00000091709710634768298590000017882980238403657384_);fill:none;stroke:#5A38FD;stroke-width:111.9047;stroke-miterlimit:10;}
	.st71{clip-path:url(#SVGID_00000060011025546384909330000001391229645592740011_);}
	
		.st72{opacity:0.57;clip-path:url(#SVGID_00000060011025546384909330000001391229645592740011_);fill:none;stroke:#FFFFFF;stroke-width:32.7065;stroke-linecap:round;stroke-miterlimit:10;}
	.st73{fill:#222433;stroke:#000000;stroke-width:7.0866;stroke-miterlimit:10;}
	
		.st74{clip-path:url(#SVGID_00000060011025546384909330000001391229645592740011_);fill:#222433;stroke:#222433;stroke-width:163.17;stroke-miterlimit:10;}
	.st75{fill:none;stroke:#000000;stroke-width:7.0866;stroke-miterlimit:10;}
	
		.st76{clip-path:url(#SVGID_00000060011025546384909330000001391229645592740011_);fill:#70D9D9;stroke:#000000;stroke-width:2.8346;stroke-linecap:round;stroke-miterlimit:10;}
	.st77{clip-path:url(#SVGID_00000140004536329800378110000010308706721115340969_);fill:#FFFFFF;}
	.st78{clip-path:url(#SVGID_00000140004536329800378110000010308706721115340969_);fill:#222433;}
	.st79{clip-path:url(#SVGID_00000140004536329800378110000010308706721115340969_);fill:#15C2C1;}
	.st80{clip-path:url(#SVGID_00000140004536329800378110000010308706721115340969_);fill:#FDA979;}
	.st81{clip-path:url(#SVGID_00000140004536329800378110000010308706721115340969_);}
	.st82{clip-path:url(#SVGID_00000140004536329800378110000010308706721115340969_);fill:#FF7F36;}
	.st83{clip-path:url(#SVGID_00000140004536329800378110000010308706721115340969_);fill:#C35515;}
	.st84{clip-path:url(#SVGID_00000183209079622721246260000015852359538485972648_);}
</style>
<path class="st43" d="M431.19,1759.4L431.19,1759.4c0-8.69,7.04-15.73,15.73-15.73h0c8.69,0,15.73,7.04,15.73,15.73l0,0
	c0,8.69-7.04,15.73-15.73,15.73h0C438.24,1775.13,431.19,1768.09,431.19,1759.4z M436.79,1717.83l-7.34-75.54v-29.78
	c0-5.11,4.15-9.26,9.26-9.26h15.86c5.11,0,9.26,4.15,9.26,9.26v29.78l-7.34,75.54c-0.46,4.74-4.45,8.36-9.22,8.36H446
	C441.24,1726.19,437.25,1722.57,436.79,1717.83z M270.96,1526.92l37.87,113.03l-139.25,18.06l131.09,97.31l-86.82,187.03
	l173.05-118.28l72.83,72.25l51.27-93.81l97.31,26.22l-23.89-89.15l130.51-75.74l-126.44-33.79l34.96-84.48l-109.54,19.81
	l-60.01-79.82l-63.51,89.15l-119.44-47.78L270.96,1526.92z"/>
<path class="st43" d="M1441.42,3074.27L1441.42,3074.27c-3.81,0-6.89-3.09-6.89-6.89l0,0c0-3.81,3.09-6.89,6.89-6.89l0,0
	c3.81,0,6.89,3.09,6.89,6.89l0,0C1448.32,3071.19,1445.23,3074.27,1441.42,3074.27z M1441.82,3052.82h-0.55
	c-2.09,0-3.84-1.59-4.04-3.67l-3.22-33.11V3003c0-2.24,1.82-4.06,4.06-4.06h6.95c2.24,0,4.06,1.82,4.06,4.06v13.05l-3.22,33.11
	C1445.66,3051.24,1443.91,3052.82,1441.82,3052.82z M1518.54,2965.5l-52.35,20.94l-27.83-39.07l-26.3,34.98l-48.01-8.68l15.32,37.03
	l-55.41,14.81l57.2,33.19l-10.47,39.07l42.65-11.49l22.47,41.11l31.92-31.66l75.84,51.84l-38.05-81.97l57.45-42.65l-61.03-7.92
	L1518.54,2965.5L1518.54,2965.5z"/>
<path class="st44" d="M620.78,2801.27L620.78,2801.27c0-10.65,8.63-19.28,19.28-19.28h0c10.65,0,19.28,8.63,19.28,19.28l0,0
	c0,10.65-8.63,19.28-19.28,19.28h0C629.41,2820.55,620.78,2811.92,620.78,2801.27z M627.64,2750.3l-9-92.61v-36.5
	c0-6.27,5.08-11.35,11.35-11.35h19.44c6.27,0,11.35,5.08,11.35,11.35v36.5l-9,92.61c-0.57,5.82-5.45,10.25-11.3,10.25h-1.54
	C633.09,2760.55,628.2,2756.11,627.64,2750.3z M424.35,2516.26l46.43,138.57l-170.71,22.15l160.71,119.29l-106.43,229.29l212.14-145
	l89.28,88.57l62.86-115l119.29,32.15l-29.28-109.29l160-92.85l-155-41.43l42.85-103.57l-134.29,24.28l-73.57-97.85l-77.86,109.29
	l-146.43-58.57L424.35,2516.26z"/>
<path class="st44" d="M1821.59,1019.27L1821.59,1019.27c-3.82,0-6.91-3.1-6.91-6.91l0,0c0-3.82,3.1-6.91,6.91-6.91l0,0
	c3.82,0,6.91,3.1,6.91,6.91l0,0C1828.51,1016.18,1825.41,1019.27,1821.59,1019.27z M1822,997.77h-0.55c-2.09,0-3.85-1.59-4.05-3.68
	l-3.23-33.2v-13.09c0-2.25,1.82-4.07,4.07-4.07h6.97c2.25,0,4.07,1.82,4.07,4.07v13.09l-3.23,33.2
	C1825.85,996.18,1824.09,997.77,1822,997.77z M1898.92,910.2l-52.49,21l-27.91-39.18l-26.37,35.08l-48.14-8.71l15.36,37.13
	l-55.56,14.85l57.35,33.29l-10.5,39.18l42.76-11.52l22.53,41.22l32.01-31.75l76.04,51.98l-38.15-82.19l57.61-42.76l-61.19-7.94
	L1898.92,910.2L1898.92,910.2z"/>
<path class="st44" d="M236.67,762.68L236.67,762.68c0-2.3,1.86-4.16,4.16-4.16h0c2.3,0,4.16,1.86,4.16,4.16l0,0
	c0,2.3-1.86,4.16-4.16,4.16h0C238.53,766.84,236.67,764.98,236.67,762.68z M238.15,751.69l-1.94-19.97v-7.87
	c0-1.35,1.1-2.45,2.45-2.45h4.19c1.35,0,2.45,1.1,2.45,2.45v7.87l-1.94,19.97c-0.12,1.25-1.18,2.21-2.44,2.21h-0.33
	C239.32,753.9,238.27,752.94,238.15,751.69z M194.31,701.23l10.01,29.88l-36.81,4.77l34.65,25.72l-22.95,49.44l45.74-31.26
	l19.25,19.1l13.55-24.8l25.72,6.93l-6.31-23.57l34.5-20.02l-33.42-8.93l9.24-22.33l-28.96,5.24l-15.86-21.1l-16.79,23.57
	L194.31,701.23L194.31,701.23z"/>
<path class="st43" d="M1371.5,2276.37L1371.5,2276.37c-20.32,0-36.8-16.48-36.8-36.8l0,0c0-20.32,16.48-36.8,36.8-36.8l0,0
	c20.32,0,36.8,16.48,36.8,36.8l0,0C1408.3,2259.89,1391.82,2276.37,1371.5,2276.37z M1373.65,2161.87h-2.95
	c-11.15,0-20.48-8.47-21.56-19.56l-17.18-176.72v-69.66c0-11.96,9.7-21.66,21.66-21.66h37.1c11.96,0,21.66,9.7,21.66,21.66v69.66
	l-17.18,176.72C1394.13,2153.41,1384.8,2161.87,1373.65,2161.87z M1783.15,1695.74l-279.42,111.77l-148.57-208.55l-140.39,186.73
	l-256.26-46.34l81.78,197.64l-295.78,79.06l305.32,177.19l-55.88,208.55l227.63-61.34l119.94,219.45l170.38-169.01l404.81,276.69
	l-203.09-437.54l306.67-227.63l-325.75-42.26l88.6-264.42L1783.15,1695.74z"/>
<path class="st29" d="M277.6,2352.1L277.6,2352.1c0-3.66,2.96-6.62,6.62-6.62h0c3.66,0,6.62,2.96,6.62,6.62l0,0
	c0,3.66-2.96,6.62-6.62,6.62h0C280.57,2358.72,277.6,2355.75,277.6,2352.1z M279.96,2334.6l-3.09-31.79v-12.53
	c0-2.15,1.74-3.9,3.9-3.9h6.67c2.15,0,3.9,1.74,3.9,3.9v12.53l-3.09,31.79c-0.19,2-1.87,3.52-3.88,3.52h-0.53
	C281.83,2338.12,280.15,2336.6,279.96,2334.6z M210.18,2254.27l15.94,47.57l-58.6,7.6l55.17,40.95l-36.53,78.71l72.82-49.77
	l30.65,30.4l21.58-39.48l40.95,11.03l-10.05-37.52l54.92-31.87l-53.21-14.22l14.71-35.55l-46.1,8.34l-25.25-33.59l-26.72,37.52
	L210.18,2254.27L210.18,2254.27z"/>
</svg>
