<?xml version="1.0" encoding="utf-8"?>
<!-- Generator: Adobe Illustrator 26.1.0, SVG Export Plug-In . SVG Version: 6.00 Build 0)  -->
<svg version="1.1" id="Layer_1" xmlns="http://www.w3.org/2000/svg" xmlns:xlink="http://www.w3.org/1999/xlink" x="0px" y="0px"
	 viewBox="0 0 2000 3200" style="enable-background:new 0 0 2000 3200;" xml:space="preserve">
<style type="text/css">
	.st0{fill:#70D9D9;}
	.st1{fill:#FFFFFF;}
	.st2{fill:#FF7F36;}
	.st3{fill:#007575;}
	.st4{fill:#222433;}
	.st5{fill:#FF7F36;stroke:#FF7F36;stroke-miterlimit:10;}
	.st6{fill:#15C2C1;}
	.st7{fill:#FDA979;}
	.st8{fill:#C35515;}
	.st9{fill:none;stroke:#5A38FD;stroke-width:111.9047;stroke-miterlimit:10;}
	.st10{fill:none;stroke:#FF7F36;stroke-width:111.9047;stroke-miterlimit:10;}
	.st11{fill:none;stroke:#FFFFFF;stroke-width:9.2351;stroke-miterlimit:10;stroke-dasharray:23.0877,36.9403;}
	.st12{fill:none;stroke:#313341;stroke-width:3.8308;stroke-miterlimit:10;}
	.st13{fill:none;}
	.st14{opacity:0.75;fill:#70D9D9;}
	.st15{fill:#5A38FD;}
	.st16{fill:none;stroke:#222433;stroke-width:8.5039;stroke-miterlimit:10;stroke-dasharray:14.1732,14.1732;}
	.st17{fill:#7057FD;}
	.st18{fill:none;stroke:#222433;stroke-width:5.4074;stroke-miterlimit:10;}
	.st19{fill:#222433;stroke:#222433;stroke-width:5.4303;stroke-miterlimit:10;}
	.st20{fill:#2B292D;}
	.st21{fill:none;stroke:#C35515;stroke-width:9.9101;stroke-miterlimit:10;}
	.st22{fill:none;stroke:#C35515;stroke-width:5.6693;stroke-miterlimit:10;}
	.st23{fill:#C35515;stroke:#000000;stroke-miterlimit:10;}
	.st24{fill:#C35515;stroke:#000000;stroke-width:0.6042;stroke-miterlimit:10;}
	.st25{fill:#15C2C1;stroke:#222433;stroke-width:6.1644;stroke-miterlimit:10;}
	.st26{fill:#FFFFFF;stroke:#000000;stroke-width:6.1644;stroke-miterlimit:10;}
	.st27{fill:none;stroke:#007575;stroke-width:6.1644;stroke-miterlimit:10;}
	.st28{fill:none;stroke:#FFFFFF;stroke-width:14.1732;stroke-miterlimit:10;stroke-dasharray:23.0877,36.9403;}
	.st29{fill-rule:evenodd;clip-rule:evenodd;fill:#FDA979;}
	.st30{fill-rule:evenodd;clip-rule:evenodd;fill:#FFFFFF;}
	.st31{fill-rule:evenodd;clip-rule:evenodd;fill:#007575;}
	.st32{fill:#606060;}
	.st33{clip-path:url(#SVGID_00000016071710818902821940000017612293618362886329_);}
	.st34{fill:#222433;stroke:#222433;stroke-width:1.0471;stroke-miterlimit:10;}
	.st35{fill:#222433;stroke:#222433;stroke-width:2.2688;stroke-miterlimit:10;}
	.st36{fill:#82B1FF;}
	.st37{fill:#15C2C1;stroke:#70D9D9;stroke-width:15.652;stroke-miterlimit:10;}
	.st38{stroke:#222433;stroke-width:0.8333;stroke-miterlimit:10;}
	.st39{clip-path:url(#SVGID_00000067197995082098868760000008568040477879863728_);}
	.st40{clip-path:url(#SVGID_00000067197995082098868760000008568040477879863728_);fill:#FF7F36;}
	.st41{clip-path:url(#SVGID_00000067197995082098868760000008568040477879863728_);fill:#C35515;}
	.st42{fill:#222433;stroke:#222433;stroke-width:0.791;stroke-miterlimit:10;}
	.st43{fill-rule:evenodd;clip-rule:evenodd;fill:#FF7F36;}
	.st44{fill-rule:evenodd;clip-rule:evenodd;fill:#15C2C1;}
	.st45{fill:none;stroke:#FF7F36;stroke-width:11.3386;stroke-miterlimit:10;}
	.st46{fill:none;stroke:#FF7F36;stroke-width:9.6934;stroke-miterlimit:10;}
	.st47{opacity:0.44;fill:#FDA979;}
	.st48{fill:none;stroke:#70D9D9;stroke-width:8.5039;stroke-miterlimit:10;stroke-dasharray:11.5087,11.5098;}
	.st49{opacity:0.75;fill:#007575;}
	.st50{clip-path:url(#SVGID_00000152223420461077993410000018046426275013575560_);}
	.st51{fill:none;stroke:#FF7F36;stroke-miterlimit:10;}
	.st52{clip-path:url(#SVGID_00000057865990928929238770000017970302910866466954_);}
	.st53{stroke:#70D9D9;stroke-width:8.5039;stroke-miterlimit:10;}
	.st54{fill:#FDA979;stroke:#222433;stroke-width:17.0079;stroke-miterlimit:10;}
	.st55{clip-path:url(#SVGID_00000013163360327830103460000008863216892193496743_);}
	.st56{fill:none;stroke:#222433;stroke-width:16.1222;stroke-linecap:round;stroke-miterlimit:10;}
	.st57{clip-path:url(#SVGID_00000023987388701686450840000011467608064258112155_);fill:#15C2C1;}
	.st58{clip-path:url(#SVGID_00000023987388701686450840000011467608064258112155_);fill:#C35515;}
	
		.st59{clip-path:url(#SVGID_00000023987388701686450840000011467608064258112155_);fill:#15C2C1;stroke:#000000;stroke-width:8.2755;stroke-miterlimit:10;}
	.st60{clip-path:url(#SVGID_00000023987388701686450840000011467608064258112155_);fill:#FF7F36;}
	
		.st61{clip-path:url(#SVGID_00000023987388701686450840000011467608064258112155_);fill:#15C2C1;stroke:#000000;stroke-width:8.5039;stroke-miterlimit:10;}
	
		.st62{clip-path:url(#SVGID_00000023987388701686450840000011467608064258112155_);fill:none;stroke:#000000;stroke-width:8.5039;stroke-miterlimit:10;}
	
		.st63{clip-path:url(#SVGID_00000023987388701686450840000011467608064258112155_);fill:#FFFFFF;stroke:#000000;stroke-width:8.5039;stroke-miterlimit:10;}
	.st64{clip-path:url(#SVGID_00000023987388701686450840000011467608064258112155_);}
	.st65{fill:none;stroke:#000000;stroke-width:8.2815;stroke-linecap:round;stroke-miterlimit:10;}
	
		.st66{clip-path:url(#SVGID_00000023987388701686450840000011467608064258112155_);fill:#FFFFFF;stroke:#000000;stroke-width:8.7446;stroke-miterlimit:10;}
	.st67{clip-path:url(#SVGID_00000023987388701686450840000011467608064258112155_);fill:none;}
	.st68{clip-path:url(#SVGID_00000097492240716617017110000008072307822653739423_);fill:#FF7F36;}
	.st69{clip-path:url(#SVGID_00000097492240716617017110000008072307822653739423_);}
	
		.st70{clip-path:url(#SVGID_00000097492240716617017110000008072307822653739423_);fill:none;stroke:#5A38FD;stroke-width:111.9047;stroke-miterlimit:10;}
	.st71{clip-path:url(#SVGID_00000060730660780270535570000000951920475266050975_);}
	
		.st72{opacity:0.57;clip-path:url(#SVGID_00000060730660780270535570000000951920475266050975_);fill:none;stroke:#FFFFFF;stroke-width:32.7065;stroke-linecap:round;stroke-miterlimit:10;}
	.st73{fill:#222433;stroke:#000000;stroke-width:7.0866;stroke-miterlimit:10;}
	
		.st74{clip-path:url(#SVGID_00000060730660780270535570000000951920475266050975_);fill:#222433;stroke:#222433;stroke-width:163.17;stroke-miterlimit:10;}
	.st75{fill:none;stroke:#000000;stroke-width:7.0866;stroke-miterlimit:10;}
	
		.st76{clip-path:url(#SVGID_00000060730660780270535570000000951920475266050975_);fill:#70D9D9;stroke:#000000;stroke-width:2.8346;stroke-linecap:round;stroke-miterlimit:10;}
	.st77{clip-path:url(#SVGID_00000049220693375668721260000001280669314562702735_);fill:#FFFFFF;}
	.st78{clip-path:url(#SVGID_00000049220693375668721260000001280669314562702735_);fill:#222433;}
	.st79{clip-path:url(#SVGID_00000049220693375668721260000001280669314562702735_);fill:#15C2C1;}
	.st80{clip-path:url(#SVGID_00000049220693375668721260000001280669314562702735_);fill:#FDA979;}
	.st81{clip-path:url(#SVGID_00000049220693375668721260000001280669314562702735_);}
	.st82{clip-path:url(#SVGID_00000049220693375668721260000001280669314562702735_);fill:#FF7F36;}
	.st83{clip-path:url(#SVGID_00000049220693375668721260000001280669314562702735_);fill:#C35515;}
	.st84{clip-path:url(#SVGID_00000111173648234247462040000015444871491722550421_);}
</style>
<g>
	<path class="st10" d="M669.35,2727.75h254.48c99.6,0,180.34-80.74,180.34-180.34v-475.5c0-78.68,63.79-142.47,142.47-142.47h459.96
		c85.34,0,154.53-69.18,154.53-154.53V446.77c0-79.8,64.69-144.48,144.48-144.48h0"/>
	<path class="st10" d="M669.35,2967.49h782.26c161.54,0,292.49-15.59,292.49-177.13v0c0-88.4,71.66-160.07,160.07-160.07H2000"/>
	<path class="st10" d="M407.79,2321.68v-507.64c0-78.79,63.87-142.66,142.66-142.66h0c59.54,0,107.8-48.26,107.8-107.8v-433.6
		c0-63.78-51.7-115.48-115.48-115.48H0"/>
</g>
<path class="st11" d="M669.35,2727.75h254.48c99.6,0,180.34-80.74,180.34-180.34v-475.5c0-78.68,63.79-142.47,142.47-142.47h459.96
	c85.34,0,154.53-69.18,154.53-154.53V446.77c0-79.8,64.69-144.48,144.48-144.48h0"/>
<path class="st11" d="M669.35,2967.49h782.26c161.54,0,292.49-15.59,292.49-177.13v0c0-88.4,71.66-160.07,160.07-160.07H2000"/>
<path class="st11" d="M407.79,2321.68v-507.64c0-78.79,63.87-142.66,142.66-142.66h0c59.54,0,107.8-48.26,107.8-107.8v-433.6
	c0-63.78-51.7-115.48-115.48-115.48H0"/>
<g>
	<path class="st1" d="M272.31,2670.53c-0.78,1.78-4.7,11.9-8.48,22.1l-9.77,38.35c-1.78,18.53-0.78,39.06,6.84,39.14
		c6.99,0.14,6.99-12.12,10.05-34.86c0.78,20.6,1.35,35.43,8.55,34.72c7.13-0.71,6.27-21.6,5.49-37.5
		c5.13,9.84,11.55,23.38,16.97,21.96c7.77-2.14,2.78-13.9,0.29-22.03c-5.56-18.11,2.28-22.81,8.98-32.79
		c4.42-6.63,3.35-15.97-0.21-25.95L272.31,2670.53z"/>
	<path class="st4" d="M261.05,2772.26h-0.19c-1.85-0.04-3.59-0.88-4.78-2.29c-6.64-7.37-4.85-31.86-4.15-39.19
		c0.01-0.11,0.03-0.22,0.06-0.32l9.77-38.35c0.02-0.07,0.04-0.14,0.07-0.21c3.69-9.94,7.68-20.28,8.53-22.22
		c0.37-0.83,1.22-1.34,2.13-1.27l38.71,3.14c0.84,0.07,1.56,0.62,1.84,1.41c4.35,12.19,4.35,21.3-0.02,27.85
		c-1.24,1.85-2.5,3.49-3.71,5.09c-5.37,7.02-9.24,12.09-5,25.89c0.3,0.96,0.63,1.98,0.97,3.02c2.07,6.34,4.42,13.54,1.96,18.11
		c-0.98,1.81-2.69,3.11-4.69,3.59c-5.42,1.43-10.32-5.87-15-14.55c0.49,16.72-0.52,29.43-7.81,30.16c-1.75,0.2-3.51-0.36-4.84-1.52
		c-2.51-2.18-3.86-6.66-4.67-12.91C268.71,2767.15,266.66,2772.26,261.05,2772.26L261.05,2772.26z M256.17,2731.35
		c-1.67,17.49-0.43,31.85,3.09,35.75c0.39,0.53,1.01,0.85,1.66,0.88h0.05c3.81,0,4.81-8.3,6.47-22.03c0.4-3.28,0.85-6.99,1.38-10.98
		c0.16-1.17,1.23-1.99,2.4-1.83c1.03,0.14,1.81,1,1.85,2.04c0.57,14.98,1.11,29.13,4.61,32.18c0.43,0.4,1.02,0.58,1.6,0.49
		c0.69-0.07,2.99-1.07,3.79-11.1c0.6-7.5,0.1-17.53-0.23-24.17c-0.06-1.18,0.85-2.18,2.03-2.24c0.83-0.04,1.61,0.41,2,1.15
		c0.44,0.85,0.89,1.72,1.35,2.61c2.36,4.58,5.04,9.76,7.63,13.46c3.44,4.91,5.11,4.92,5.54,4.81c0.87-0.17,1.61-0.72,2.04-1.49
		c1.59-2.95-0.55-9.5-2.26-14.75c-0.35-1.07-0.69-2.1-0.99-3.09c-4.89-15.91,0.25-22.63,5.69-29.75c1.18-1.54,2.39-3.13,3.56-4.87
		c3.37-5.05,3.37-12.7,0-22.74l-35.76-2.9c-1.38,3.44-4.61,11.82-7.82,20.48L256.17,2731.35z"/>
	<path class="st6" d="M297.05,2626.66c0,0-9.48,36.71-18.18,73.5c-0.43,1.78-0.86,3.64-1.28,5.42c-7.7,32.72-14.68,64.8-14.4,71.43
		l-0.64,145.14l0.21,28.16h107.57v-152.62l-0.14-3.56l21.39,31.15l31.08,129.31l104.29-27.73l-33.79-140.79
		c-1.77-7.52-5.05-14.6-9.62-20.82l-34.29-45.77l-38.78-51.68l-6.49-8.63L297.05,2626.66z"/>
	<path class="st4" d="M422.65,2956.71c-0.99,0-1.85-0.68-2.08-1.64l-30.99-128.93l-17.12-24.94v149.09c0,1.18-0.96,2.14-2.14,2.14
		H262.76c-1.17,0-2.13-0.95-2.14-2.12l-0.21-28.16l0.64-145.12c-0.28-7.51,7.7-43.25,14.46-71.96c0.21-0.9,0.43-1.8,0.64-2.71
		s0.43-1.82,0.64-2.72c8.6-36.38,18.09-73.16,18.19-73.53c0.3-1.14,1.46-1.83,2.61-1.54c0.03,0.01,0.06,0.02,0.09,0.02l106.93,32.51
		c0.43,0.13,0.82,0.4,1.09,0.76l6.49,8.63l38.78,51.68l34.29,45.77c4.76,6.45,8.16,13.8,9.99,21.61l33.79,140.78
		c0.27,1.13-0.41,2.27-1.53,2.57l-104.29,27.73C423.02,2956.68,422.84,2956.71,422.65,2956.71z M370.18,2791.97
		c0.7,0,1.36,0.35,1.76,0.93l21.39,31.15c0.15,0.22,0.26,0.46,0.32,0.71l30.57,127.18l100.16-26.63l-33.3-138.76
		c-1.7-7.24-4.85-14.06-9.27-20.05l-34.28-45.75l-38.78-51.68l-6.07-8.07l-104.12-31.65c-2.16,8.41-10.21,40-17.61,71.29
		c-0.21,0.89-0.43,1.8-0.64,2.71c-0.21,0.91-0.43,1.82-0.64,2.72c-9.48,40.29-14.57,65.45-14.34,70.84v0.1l-0.64,145.14l0.2,26.01
		h103.31v-150.44l-0.14-3.52c-0.05-1.18,0.87-2.18,2.05-2.22C370.13,2791.97,370.16,2791.97,370.18,2791.97L370.18,2791.97z"/>
	<path class="st1" d="M364.91,3018.37l0.07-67.94h-90.96c-6.27,17.18-21.74,26.23-40.28,30.37c-16.32,3.64-26.73,19.25-25.52,36.85
		v0.78l104.58-0.07l17.25-29.44l-0.36,29.44H364.91z"/>
	<path class="st4" d="M208.22,3020.58c-1.18,0-2.14-0.96-2.14-2.14v-0.71c-1.26-18.82,10.16-35.22,27.19-39.01
		c20.33-4.53,33.36-14.3,38.73-29.01c0.31-0.84,1.11-1.41,2.01-1.41h90.96c1.18,0,2.14,0.96,2.14,2.14l-0.07,67.94
		c0,1.18-0.96,2.14-2.14,2.14h-35.22c-1.18,0-2.14-0.96-2.14-2.14c0-0.01,0-0.02,0-0.03l0.26-21.37l-13.17,22.48
		c-0.38,0.65-1.08,1.06-1.84,1.06L208.22,3020.58L208.22,3020.58z M275.49,2952.58c-6.2,15.39-20.08,25.59-41.28,30.32
		c-14.61,3.25-24.52,17.2-23.92,33.41l101.28-0.07l16.63-28.38c0.6-1.02,1.91-1.36,2.93-0.76c0.66,0.39,1.07,1.1,1.06,1.87
		l-0.33,27.28h30.91l0.07-63.66L275.49,2952.58z"/>
	<path class="st1" d="M515.96,2929.69c2.71,15.26,12.26,24.38,29.3,21.1l31.86-4.99c16.4-3.07,31.94,5.85,37.71,22.38l0.29,0.78
		l-102.94,49.33l-50.04-29.44l0.36,29.44h-35.22l-0.07-65.08L515.96,2929.69z"/>
	<path class="st4" d="M512.19,3020.44c-0.38,0-0.76-0.1-1.08-0.3l-46.77-27.52l0.31,25.65c0.01,1.18-0.93,2.15-2.11,2.16
		c-0.01,0-0.02,0-0.03,0h-35.22c-1.18,0-2.14-0.96-2.14-2.14l-0.07-65.08c0-0.97,0.65-1.82,1.59-2.07l88.75-23.52
		c1.14-0.3,2.31,0.38,2.62,1.52c0.02,0.06,0.03,0.12,0.04,0.17c1.38,7.74,4.59,13.54,9.3,16.78c4.49,3.09,10.38,3.96,17.49,2.59
		l0.07-0.01l31.86-4.99c17.52-3.28,34.02,6.5,40.06,23.79l0.28,0.76c0.38,1.03-0.09,2.18-1.09,2.66l-102.94,49.33
		C512.82,3020.37,512.51,3020.44,512.19,3020.44L512.19,3020.44z M429.42,3016.16h30.91l-0.33-27.28c-0.01-1.18,0.93-2.15,2.11-2.16
		c0.39,0,0.77,0.1,1.11,0.3l49.06,28.86l100.16-48c-5.62-14.63-19.82-22.8-34.93-19.98l-31.89,5c-8.26,1.58-15.22,0.48-20.69-3.28
		c-5.18-3.56-8.82-9.51-10.62-17.28l-84.97,22.53L429.42,3016.16z"/>
	<path class="st4" d="M270.3,2993.86c-2.01,0-3.92-0.84-5.28-2.32c-1.54-1.67-2.23-3.95-1.89-6.19l3.11-22.12l-25.55,3.02
		c-3.29,0.32-6.37-1.64-7.47-4.76l-0.16-0.46c-0.95-2.66-0.35-5.63,1.57-7.7c1.74-1.94,4.43-2.72,6.94-2.02l27.79,7.41
		c0.75,0.2,1.33,0.78,1.52,1.53l6.27,24.24c0.55,2.19,0.11,4.52-1.2,6.36c-1.2,1.71-3.09,2.8-5.17,3
		C270.63,2993.85,270.47,2993.86,270.3,2993.86z M269.4,2971.54l-2.02,14.41v0.02c-0.15,0.97,0.14,1.95,0.8,2.67
		c0.96,1.13,2.65,1.27,3.78,0.32c0.21-0.17,0.38-0.38,0.53-0.6c0.58-0.82,0.78-1.86,0.53-2.83L269.4,2971.54z M239.74,2955.33
		c-0.75,0.02-1.46,0.34-1.96,0.9c-0.84,0.92-1.1,2.23-0.67,3.4l0.16,0.47c0.44,1.24,1.67,2.02,2.97,1.9l17.21-2.04l-16.99-4.53
		C240.23,2955.36,239.98,2955.33,239.74,2955.33L239.74,2955.33z"/>
	<path class="st4" d="M405.19,2843.44c-0.63,0-1.22-0.27-1.63-0.75l-13.69-16.04c-0.77-0.9-0.66-2.25,0.24-3.02s2.25-0.66,3.02,0.24
		l13.69,16.04c0.77,0.9,0.66,2.25-0.24,3.01C406.19,2843.26,405.7,2843.44,405.19,2843.44L405.19,2843.44z"/>
	<path class="st4" d="M542.83,2984.38c-1.04,0-2.07-0.2-3.04-0.58c-2.46-0.99-4.37-3-5.22-5.51l-9.64-28.3
		c-0.2-0.59-0.14-1.24,0.18-1.77l11.31-19.28c1.39-2.42,3.9-3.98,6.69-4.16c2.86-0.15,5.62,1.13,7.36,3.41
		c1.65,2.08,2.28,4.8,1.71,7.39c-0.52,2.52-2.16,4.68-4.44,5.86l-14.84,7.65l17.09,20.07c1.81,2.12,2.56,4.95,2.02,7.68
		c-0.46,2.58-2.08,4.82-4.39,6.06l-0.94,0.51C545.49,2984.05,544.17,2984.38,542.83,2984.38L542.83,2984.38z M530.37,2952.74
		l8.23,24.15c0.45,1.33,1.45,2.4,2.75,2.93c1.07,0.44,2.28,0.37,3.31-0.17l0.93-0.51c1.17-0.64,1.99-1.78,2.21-3.1
		c0.29-1.46-0.11-2.98-1.08-4.11L530.37,2952.74z M543.62,2929.04c-0.09,0-0.17,0-0.26,0.01c-1.37,0.1-2.6,0.87-3.27,2.07
		l-7.95,13.54l13.63-7.02c1.15-0.6,1.96-1.69,2.22-2.96c0.3-1.35-0.03-2.77-0.89-3.85C546.29,2929.72,545,2929.06,543.62,2929.04
		L543.62,2929.04z"/>
	<g>
		<g>
			<circle class="st1" cx="298.4" cy="2879.29" r="6.34"/>
			<circle class="st1" cx="273.09" cy="2847.57" r="6.34"/>
			<circle class="st1" cx="363.27" cy="2868.24" r="6.34"/>
			<circle class="st1" cx="342.31" cy="2835.67" r="6.34"/>
			
				<ellipse transform="matrix(0.7555 -0.6552 0.6552 0.7555 -1800.2169 919.42)" class="st1" cx="331.64" cy="2871.46" rx="6.34" ry="6.34"/>
			<circle class="st1" cx="306.67" cy="2843.01" r="6.34"/>
			<circle class="st1" cx="282" cy="2811.43" r="6.34"/>
			<circle class="st1" cx="318.93" cy="2805.87" r="6.34"/>
			<circle class="st1" cx="292.91" cy="2774.22" r="6.34"/>
			<circle class="st1" cx="356.36" cy="2800.88" r="6.34"/>
			<circle class="st1" cx="335.47" cy="2767.87" r="6.34"/>
			<circle class="st1" cx="307.52" cy="2735.44" r="6.34"/>
			<path class="st1" d="M273.09,2728.45c0.8-0.37,1.68-0.57,2.57-0.57c3.5,0,6.34,2.85,6.34,6.35c0,3.5-2.84,6.33-6.34,6.34
				c-2.28,0.01-4.38-1.22-5.49-3.21"/>
			<circle class="st1" cx="359.92" cy="2903.39" r="6.34"/>
			
				<ellipse transform="matrix(0.7555 -0.6552 0.6552 0.7555 -1824.4769 926.1331)" class="st1" cx="328.5" cy="2907.31" rx="6.34" ry="6.34"/>
			
				<ellipse transform="matrix(0.7555 -0.6552 0.6552 0.7555 -1845.6702 931.6473)" class="st1" cx="325.29" cy="2938.47" rx="6.34" ry="6.34"/>
			
				<ellipse transform="matrix(0.0333 -0.9994 0.9994 0.0333 -2624.9016 3110.6997)" class="st1" cx="295.55" cy="2912.23" rx="6.34" ry="6.34"/>
			
				<ellipse transform="matrix(0.0333 -0.9994 0.9994 0.0333 -2661.1941 3139.0464)" class="st1" cx="292.06" cy="2945.16" rx="6.34" ry="6.34"/>
			<path class="st1" d="M263.33,2916.36c3.5,0,6.34,2.85,6.34,6.35c0,3.5-2.84,6.33-6.34,6.34"/>
			<path class="st1" d="M265.11,2876.51c3.5,0,6.34,2.85,6.34,6.35c0,3.5-2.84,6.33-6.34,6.34"/>
			<circle class="st1" cx="356.93" cy="2938.53" r="6.34"/>
			<circle class="st1" cx="451.38" cy="2865.75" r="6.34"/>
			<circle class="st1" cx="426.07" cy="2834.03" r="6.34"/>
			<circle class="st1" cx="495.29" cy="2822.12" r="6.34"/>
			<circle class="st1" cx="484.53" cy="2857.98" r="6.34"/>
			<circle class="st1" cx="459.65" cy="2829.46" r="6.34"/>
			<circle class="st1" cx="434.98" cy="2797.89" r="6.34"/>
			<circle class="st1" cx="471.84" cy="2792.32" r="6.34"/>
			<circle class="st1" cx="445.82" cy="2760.67" r="6.34"/>
			<circle class="st1" cx="512.97" cy="2889.84" r="6.34"/>
			<circle class="st1" cx="481.39" cy="2893.84" r="6.34"/>
			<circle class="st1" cx="478.18" cy="2924.99" r="6.34"/>
			<circle class="st1" cx="448.53" cy="2898.68" r="6.34"/>
			<circle class="st1" cx="445.04" cy="2931.62" r="6.34"/>
			<circle class="st1" cx="416.24" cy="2909.23" r="6.34"/>
			<circle class="st1" cx="418.16" cy="2869.39" r="6.34"/>
			<circle class="st1" cx="509.91" cy="2924.99" r="6.34"/>
			<circle class="st1" cx="353.15" cy="2711.99" r="6.34"/>
			<circle class="st1" cx="327.63" cy="2680.44" r="6.34"/>
			<circle class="st1" cx="396.99" cy="2668.36" r="6.34"/>
			<circle class="st1" cx="386.22" cy="2704.22" r="6.34"/>
			<circle class="st1" cx="361.35" cy="2675.7" r="6.34"/>
			<circle class="st1" cx="336.75" cy="2644.12" r="6.34"/>
			<circle class="st1" cx="414.67" cy="2736.08" r="6.34"/>
			<path class="st1" d="M454.94,2723.46c0,3.5-2.84,6.34-6.34,6.34c-3.5,0-6.34-2.84-6.34-6.34s2.84-6.34,6.34-6.34l0,0"/>
			<circle class="st1" cx="422.58" cy="2692.95" r="6.34"/>
			<circle class="st1" cx="305.24" cy="2647.12" r="6.34"/>
			<circle class="st1" cx="383.09" cy="2740.07" r="6.34"/>
			<circle class="st1" cx="346.73" cy="2739.93" r="6.34"/>
			<circle class="st1" cx="396.99" cy="2803.09" r="6.34"/>
			<circle class="st1" cx="373.46" cy="2774.22" r="6.34"/>
			<circle class="st1" cx="296.62" cy="2697.66" r="6.34"/>
			<circle class="st1" cx="411.6" cy="2771.22" r="6.34"/>
		</g>
	</g>
	<path class="st4" d="M422.72,2956.64c-0.99,0-1.85-0.68-2.08-1.64l-30.99-128.93l-17.12-24.93v149.16c0,1.18-0.96,2.14-2.14,2.14
		H262.83c-1.17,0-2.13-0.95-2.14-2.12l-0.21-28.16l0.64-145.11c-0.57-14.88,32.11-144.6,33.5-150.12c0.29-1.15,1.45-1.84,2.6-1.55
		c0.03,0.01,0.06,0.01,0.08,0.02l107.36,31.65c0.44,0.13,0.83,0.4,1.1,0.77l6.49,8.63l38.78,51.68l34.29,45.77
		c4.76,6.45,8.16,13.8,9.99,21.61l33.79,140.78c0.27,1.13-0.41,2.27-1.53,2.57l-104.29,27.73
		C423.09,2956.61,422.91,2956.64,422.72,2956.64L422.72,2956.64z M370.26,2791.9c0.7,0,1.36,0.35,1.76,0.93l21.39,31.15
		c0.15,0.22,0.25,0.46,0.32,0.71l30.57,127.18l100.16-26.63l-33.3-138.76c-1.7-7.24-4.85-14.06-9.27-20.05l-34.28-45.75L408.82,2669
		l-6.06-8.06l-104.54-30.82c-11.88,47.21-33.31,135.75-32.83,146.78v0.1l-0.64,145.14l0.2,26.01h103.31v-150.51l-0.14-3.52
		c-0.05-1.18,0.87-2.18,2.05-2.22C370.2,2791.9,370.23,2791.9,370.26,2791.9L370.26,2791.9z"/>
	<path class="st1" d="M282,2699.87c0.59,7.91-3.18,15.51-9.84,19.82c-3.19,1.91-6.02,4.37-8.34,7.27
		c-9.2,12.05-11.62,10.98-15.11,10.48c-8.13-1.21,12.55-36.07,19.75-55.39"/>
	<path class="st4" d="M251.12,2739.83c-0.74-0.01-1.49-0.08-2.22-0.2l-0.49-0.07c-1.31-0.17-2.45-0.96-3.06-2.13
		c-2.47-4.62,2.74-16.1,11.44-34.43c3.63-7.65,7.38-15.56,9.67-21.7c0.41-1.11,1.65-1.67,2.75-1.26c1.11,0.41,1.67,1.65,1.26,2.75
		c-2.35,6.31-6.14,14.3-9.81,22.03c-3.36,7.09-6.84,14.42-9.09,20.23c-2.99,7.72-2.65,9.82-2.48,10.27l0.46,0.07
		c2.57,0.4,4.61,0.71,12.58-9.74c2.47-3.09,5.48-5.73,8.87-7.77c5.99-3.9,9.39-10.74,8.87-17.87c-0.08-1.18,0.8-2.2,1.98-2.29
		c1.18-0.08,2.2,0.8,2.29,1.98c0.63,8.68-3.51,17.02-10.81,21.76c-2.98,1.78-5.63,4.07-7.81,6.78
		C258.18,2737.88,254.63,2739.83,251.12,2739.83L251.12,2739.83z"/>
	<path class="st2" d="M202.38,2588.23c-2.04-21.7,11.78-41.74,32.79-47.55l85.97-23.67c12.57-3,25.72-2.56,38.07,1.28l22.46,7.06
		l75.56,32.86l-35.14,76.42l-18.25,24.45l-99.44-30.01l-4.2-1.21l5.77-34.93l-16.41,2.71l10.65,32.22l-18.13,71.39l-66.14-87.92
		C210.43,2604.13,204.52,2597.07,202.38,2588.23L202.38,2588.23z"/>
	<path class="st4" d="M282.06,2701.39c-0.67,0-1.31-0.32-1.71-0.86l-66.14-87.92c-0.51-0.67-1.03-1.34-1.55-2.02
		c-5.07-6.6-10.32-13.42-12.37-21.86c-0.02-0.1-0.04-0.2-0.05-0.3c-2.16-22.74,12.33-43.75,34.35-49.81l85.98-23.67
		c0.02-0.01,0.05-0.01,0.07-0.02c12.95-3.08,26.49-2.63,39.2,1.32l22.46,7.06c0.07,0.02,0.14,0.05,0.21,0.08l75.56,32.86
		c1.08,0.47,1.58,1.73,1.11,2.81c-0.01,0.01-0.01,0.02-0.02,0.04l-35.14,76.42c-0.06,0.14-0.14,0.27-0.23,0.39l-18.25,24.45
		c-0.54,0.72-1.47,1.03-2.33,0.77l-99.44-30.01l-2.05-0.59l-17.59,69.24c-0.2,0.8-0.85,1.41-1.65,1.57
		C282.34,2701.37,282.2,2701.39,282.06,2701.39L282.06,2701.39z M204.49,2587.88c1.85,7.5,6.57,13.62,11.56,20.11
		c0.52,0.68,1.05,1.36,1.57,2.04l63.46,84.37l16.88-66.45l-10.45-31.63c-0.37-1.12,0.24-2.33,1.36-2.7c0.1-0.03,0.21-0.06,0.32-0.08
		l16.41-2.71c1.17-0.19,2.27,0.6,2.46,1.76c0.04,0.23,0.04,0.47,0,0.7l-5.46,33.06l2.37,0.68l98.03,29.58l17.22-23.07l34.14-74.23
		l-73.46-31.95l-22.35-7.02c-11.96-3.72-24.71-4.15-36.89-1.25l-85.94,23.66C215.77,2548.25,202.61,2567.26,204.49,2587.88
		L204.49,2587.88z M292.36,2597.35l7.14,21.6l3.86-23.42L292.36,2597.35z"/>
	<path class="st1" d="M388.29,2498.63l-13.54,23.52c-3.41,5.95-3.57,13.22-0.43,19.32l0.78,1.5c5.18,9.78,17.3,13.52,27.09,8.34
		c0.05-0.02,0.09-0.05,0.14-0.08c3.17-1.73,5.82-4.26,7.7-7.34l9.05-15.04c15,0.34,27.92-10.49,30.23-25.31
		c0.39-2.45,0.46-4.94,0.21-7.41c-0.56-6.21-3.05-12.1-7.13-16.82c0.94-2.21,1.59-4.54,1.92-6.91c0.36-3.46,0.36-6.95,0-10.41
		l-33.43-4.13l-8.63,10.76l-9.48-0.36c-12.48-0.43-19.25,14.33-10.84,23.52L388.29,2498.63z"/>
	<path class="st4" d="M392.83,2555.78c-2.2,0-4.39-0.33-6.49-0.97c-5.65-1.71-10.38-5.61-13.12-10.84l-0.79-1.51
		c-3.5-6.74-3.32-14.79,0.47-21.37l12.76-22.17l-5.28-5.69c-6.05-6.57-5.62-16.81,0.95-22.85c3.13-2.88,7.27-4.41,11.52-4.26
		l8.41,0.32l7.95-9.92c0.46-0.58,1.2-0.88,1.93-0.78l33.43,4.13c0.99,0.12,1.76,0.91,1.86,1.9c0.38,3.64,0.37,7.32-0.01,10.96
		c-0.31,2.12-0.83,4.2-1.58,6.21c3.89,4.88,6.25,10.8,6.8,17.01c0.27,2.65,0.19,5.33-0.24,7.96c-2.44,15.38-15.56,26.8-31.13,27.1
		l-8.43,14c-2.08,3.4-5.01,6.2-8.51,8.12C400.12,2554.86,396.51,2555.78,392.83,2555.78L392.83,2555.78z M392.27,2470.39
		c-6.57,0.01-11.89,5.34-11.88,11.91c0,2.98,1.12,5.85,3.14,8.04l6.33,6.83c0.64,0.69,0.75,1.71,0.29,2.52l-13.54,23.52
		c-3.06,5.31-3.2,11.82-0.38,17.27l0.78,1.49c4.63,8.74,15.46,12.07,24.2,7.44c0.04-0.02,0.08-0.04,0.12-0.07
		c2.84-1.54,5.21-3.81,6.89-6.58l9.04-15.03c0.39-0.66,1.12-1.06,1.88-1.04c13.91,0.29,25.9-9.75,28.06-23.5
		c0.36-2.28,0.43-4.6,0.2-6.9c-0.51-5.77-2.83-11.23-6.62-15.61c-0.54-0.62-0.67-1.49-0.34-2.25c0.87-2.04,1.46-4.18,1.77-6.38
		c0.29-2.72,0.33-5.46,0.13-8.19l-30.52-3.78l-7.88,9.83c-0.42,0.53-1.07,0.83-1.75,0.8l-9.48-0.36
		C392.56,2470.39,392.41,2470.39,392.27,2470.39L392.27,2470.39z"/>
	<path class="st4" d="M447.1,2463.7c-2.1-17.62-18.08-30.21-35.71-28.12c-10.21,1.21-19.22,7.24-24.24,16.21
		c-0.42,0.69-0.8,1.4-1.14,2.14c-1.24,2.7-2.1,5.55-2.57,8.48c-0.14,0.93-0.21,1.92-0.29,2.85h0.14c3.21,0.5,6.63,0.29,9.62,1.64
		c2.57,1.14,4.63,3.28,6.34,5.49c2.99,3.78,5.99,9.34,4.06,14.19c0.2-0.01,0.39-0.06,0.57-0.14c0.51-0.25,0.88-0.72,1-1.28
		l2.49-16.04c0.83-5.08,5.6-8.55,10.69-7.77l26.95,4.28c0.54,0.08,1.08-0.08,1.5-0.43C447.01,2464.86,447.23,2464.27,447.1,2463.7
		L447.1,2463.7z"/>
	<circle class="st4" cx="418.37" cy="2478.95" r="3.14"/>
	<circle class="st4" cx="439.69" cy="2479.95" r="3.14"/>
	<path class="st4" d="M419.66,2531.06c-1.63-0.01-3.25-0.14-4.86-0.38c-6.66-1.03-12.82-4.14-17.61-8.87
		c-0.82-0.85-0.8-2.2,0.05-3.02c0.83-0.8,2.14-0.8,2.97,0c4.14,4.09,9.47,6.78,15.23,7.67c1.4,0.21,2.8,0.32,4.21,0.33
		c1.18,0,2.14,0.96,2.14,2.14C421.79,2530.1,420.84,2531.06,419.66,2531.06L419.66,2531.06z"/>
	<path class="st4" d="M434.91,2492.78c-0.07,0-0.14,0-0.22-0.01l-8.34-0.86c-1.18-0.12-2.03-1.17-1.91-2.35s1.17-2.03,2.35-1.91
		l5.45,0.56l-2.49-12.26c-0.23-1.16,0.51-2.29,1.67-2.52s2.29,0.51,2.52,1.67l3.07,15.11c0.24,1.16-0.51,2.29-1.67,2.52
		C435.2,2492.77,435.06,2492.79,434.91,2492.78L434.91,2492.78z"/>
	<path class="st1" d="M388.29,2498.63c-1.4,0.13-2.82,0.08-4.21-0.14c-8.96-1.4-15.08-9.79-13.69-18.75
		c1.4-8.96,9.79-15.08,18.75-13.69c8.96,1.4,15.08,9.79,13.69,18.75"/>
	<path class="st4" d="M386.83,2500.84c-1.03,0-2.05-0.08-3.07-0.24c-10.12-1.57-17.06-11.06-15.48-21.18
		c1.57-10.12,11.06-17.06,21.18-15.48c10.12,1.57,17.06,11.06,15.48,21.18c0,0,0,0,0,0c-0.15,1.17-1.23,1.99-2.4,1.84
		s-1.99-1.23-1.84-2.4c0-0.03,0.01-0.05,0.01-0.08c1.22-7.79-4.1-15.09-11.89-16.31c-7.79-1.22-15.09,4.1-16.31,11.89
		c-1.22,7.79,4.1,15.09,11.89,16.31c0,0,0.01,0,0.01,0c1.21,0.2,2.43,0.24,3.65,0.13c1.17-0.12,2.23,0.73,2.35,1.9
		c0.12,1.17-0.73,2.23-1.9,2.35l0,0C387.96,2500.81,387.39,2500.84,386.83,2500.84L386.83,2500.84z"/>
	<path class="st4" d="M384.02,2488.86c-1.18,0-2.14-0.95-2.14-2.14c0-0.75,0.39-1.45,1.03-1.83l4.68-2.83l-7.96-3.66
		c-1.07-0.49-1.54-1.76-1.05-2.84c0.49-1.07,1.76-1.54,2.84-1.05l11.62,5.35c1.07,0.49,1.54,1.76,1.05,2.84
		c-0.18,0.39-0.47,0.71-0.84,0.94l-8.13,4.92C384.79,2488.75,384.41,2488.86,384.02,2488.86L384.02,2488.86z"/>
	<path class="st4" d="M435.77,2500.84h-0.02l-12.76-0.14c-1.18-0.01-2.13-0.97-2.13-2.15c0.01-1.18,0.97-2.13,2.15-2.13h0.24
		l12.55,0.14c1.18,0.01,2.13,0.97,2.13,2.15S436.95,2500.84,435.77,2500.84L435.77,2500.84z"/>
	<path class="st1" d="M458.65,2590.87c-20.6,2.21-33.79-20.89-20.67-36.57c0.21-0.21,0.36-0.43,0.57-0.64
		c6.06-6.7,10.91-14.54,7.41-27.02c-2.49-8.84-7.7-21.67,1-23.74c5.99-1.43,12.69,13.33,18.04,24.02
		c-0.29-17.18-0.64-39.71,7.34-40.28c7.98-0.64,9.84,15.68,9.91,37.85c4.21-24.45,2.92-37.92,10.69-37.64
		c12.76,0.5,7.27,50.97,0.5,68.01l-3.56,11.05C485.53,2579.54,473.19,2589.3,458.65,2590.87L458.65,2590.87z"/>
	<path class="st4" d="M456.02,2593.15c-9.41,0.06-18.07-5.08-22.53-13.36c-4.73-8.67-3.6-19.37,2.84-26.86
		c0.04-0.05,0.08-0.09,0.13-0.14c0.06-0.06,0.11-0.12,0.16-0.18c0.12-0.14,0.24-0.28,0.37-0.42c6.37-7.06,9.98-14.01,6.91-24.97
		c-0.3-1.07-0.65-2.21-1-3.39c-2.06-6.8-4.4-14.51-1.65-19.29c1.13-1.93,3.03-3.28,5.22-3.71c6.02-1.44,11.28,7.04,16.3,16.84
		c-0.02-18.95,1.4-32.58,9.42-33.15c2.02-0.17,4.02,0.53,5.49,1.93c2.74,2.52,4.54,7.33,5.58,15.42
		c1.47-10.96,3.09-17.39,9.76-17.14c1.65,0.06,4.01,0.76,5.94,3.71c7.72,11.87,2.39,52.25-3.5,67.15l-3.54,10.98
		c-4.59,14.38-17.56,24.75-33.03,26.42C457.93,2593.1,456.98,2593.15,456.02,2593.15L456.02,2593.15z M439.57,2555.73
		c-5.26,6.16-6.18,14.93-2.3,22.04c4.13,7.73,12.23,11.93,21.15,10.97c13.79-1.49,25.33-10.7,29.41-23.47l3.56-11.06
		c0.01-0.04,0.03-0.09,0.05-0.13c5.98-15.05,10.33-53.45,3.92-63.31c-1-1.54-1.91-1.75-2.51-1.77h-0.12c-3.42,0-4.27,5.6-5.84,18.09
		c-0.65,5.15-1.38,10.98-2.55,17.77c-0.2,1.16-1.3,1.95-2.47,1.75c-1.03-0.18-1.78-1.06-1.78-2.1c-0.04-12.92-0.64-30.6-5.33-34.91
		c-0.6-0.6-1.43-0.9-2.27-0.81c-2.24,0.16-3.99,4.54-4.82,12.01c-0.86,7.75-0.7,17.5-0.56,26.09c0.02,1.18-0.92,2.15-2.1,2.17
		c-0.82,0.01-1.58-0.45-1.95-1.18c-0.44-0.88-0.89-1.8-1.35-2.73c-3.65-7.37-10.44-21.08-14.27-20.17c-1.04,0.17-1.95,0.79-2.5,1.68
		c-1.83,3.18,0.32,10.25,2.04,15.92c0.36,1.2,0.72,2.37,1.03,3.47c3.83,13.67-1.84,22.35-7.88,29.03c-0.02,0.03-0.05,0.05-0.07,0.08
		c-0.06,0.06-0.11,0.12-0.16,0.18C439.8,2555.48,439.69,2555.61,439.57,2555.73L439.57,2555.73z"/>
	<path class="st2" d="M459.72,2705.07c-22.75-0.01-41.19-18.45-41.2-41.2v-99.73h82.34v99.73c0.05,22.71-18.32,41.16-41.03,41.2
		C459.79,2705.07,459.75,2705.07,459.72,2705.07z"/>
	<path class="st4" d="M459.72,2707.21c-23.93-0.03-43.31-19.42-43.34-43.34v-99.73c0-1.18,0.96-2.14,2.14-2.14h82.34
		c1.18,0,2.14,0.96,2.14,2.14v99.73c0.05,23.89-19.28,43.29-43.17,43.34C459.79,2707.21,459.75,2707.21,459.72,2707.21z
		 M420.66,2566.28v97.59c-0.01,21.57,17.47,39.05,39.04,39.06c10.38,0,20.33-4.13,27.66-11.47c7.33-7.3,11.42-17.24,11.36-27.58
		v-97.59H420.66z"/>
</g>
</svg>
