<?xml version="1.0" encoding="utf-8"?>
<!-- Generator: Adobe Illustrator 26.1.0, SVG Export Plug-In . SVG Version: 6.00 Build 0)  -->
<svg version="1.1" id="Layer_1" xmlns="http://www.w3.org/2000/svg" xmlns:xlink="http://www.w3.org/1999/xlink" x="0px" y="0px"
	 viewBox="0 0 2000 3200" style="enable-background:new 0 0 2000 3200;" xml:space="preserve">
<style type="text/css">
	.st0{fill:#70D9D9;}
	.st1{fill:#FFFFFF;}
	.st2{fill:#FF7F36;}
	.st3{fill:#007575;}
	.st4{fill:#222433;}
	.st5{fill:#FF7F36;stroke:#FF7F36;stroke-miterlimit:10;}
	.st6{fill:#15C2C1;}
	.st7{fill:#FDA979;}
	.st8{fill:#C35515;}
	.st9{fill:none;stroke:#5A38FD;stroke-width:111.9047;stroke-miterlimit:10;}
	.st10{fill:none;stroke:#FF7F36;stroke-width:111.9047;stroke-miterlimit:10;}
	.st11{fill:none;stroke:#FFFFFF;stroke-width:9.2351;stroke-miterlimit:10;stroke-dasharray:23.0877,36.9403;}
	.st12{fill:none;stroke:#313341;stroke-width:3.8308;stroke-miterlimit:10;}
	.st13{fill:none;}
	.st14{opacity:0.75;fill:#70D9D9;}
	.st15{fill:#5A38FD;}
	.st16{fill:none;stroke:#222433;stroke-width:8.5039;stroke-miterlimit:10;stroke-dasharray:14.1732,14.1732;}
	.st17{fill:#7057FD;}
	.st18{fill:none;stroke:#222433;stroke-width:5.4074;stroke-miterlimit:10;}
	.st19{fill:#222433;stroke:#222433;stroke-width:5.4303;stroke-miterlimit:10;}
	.st20{fill:#2B292D;}
	.st21{fill:none;stroke:#C35515;stroke-width:9.9101;stroke-miterlimit:10;}
	.st22{fill:none;stroke:#C35515;stroke-width:5.6693;stroke-miterlimit:10;}
	.st23{fill:#C35515;stroke:#000000;stroke-miterlimit:10;}
	.st24{fill:#C35515;stroke:#000000;stroke-width:0.6042;stroke-miterlimit:10;}
	.st25{fill:#15C2C1;stroke:#222433;stroke-width:6.1644;stroke-miterlimit:10;}
	.st26{fill:#FFFFFF;stroke:#000000;stroke-width:6.1644;stroke-miterlimit:10;}
	.st27{fill:none;stroke:#007575;stroke-width:6.1644;stroke-miterlimit:10;}
	.st28{fill:none;stroke:#FFFFFF;stroke-width:14.1732;stroke-miterlimit:10;stroke-dasharray:23.0877,36.9403;}
	.st29{fill-rule:evenodd;clip-rule:evenodd;fill:#FDA979;}
	.st30{fill-rule:evenodd;clip-rule:evenodd;fill:#FFFFFF;}
	.st31{fill-rule:evenodd;clip-rule:evenodd;fill:#007575;}
	.st32{fill:#606060;}
	.st33{clip-path:url(#SVGID_00000069394614615906369690000002642458015130953100_);}
	.st34{fill:#222433;stroke:#222433;stroke-width:1.0471;stroke-miterlimit:10;}
	.st35{fill:#222433;stroke:#222433;stroke-width:2.2688;stroke-miterlimit:10;}
	.st36{fill:#82B1FF;}
	.st37{fill:#15C2C1;stroke:#70D9D9;stroke-width:15.652;stroke-miterlimit:10;}
	.st38{stroke:#222433;stroke-width:0.8333;stroke-miterlimit:10;}
	.st39{clip-path:url(#SVGID_00000000918518881796650460000014764425535975011729_);}
	.st40{clip-path:url(#SVGID_00000000918518881796650460000014764425535975011729_);fill:#FF7F36;}
	.st41{clip-path:url(#SVGID_00000000918518881796650460000014764425535975011729_);fill:#C35515;}
	.st42{fill:#222433;stroke:#222433;stroke-width:0.791;stroke-miterlimit:10;}
	.st43{fill-rule:evenodd;clip-rule:evenodd;fill:#FF7F36;}
	.st44{fill-rule:evenodd;clip-rule:evenodd;fill:#15C2C1;}
	.st45{fill:none;stroke:#FF7F36;stroke-width:11.3386;stroke-miterlimit:10;}
	.st46{fill:none;stroke:#FF7F36;stroke-width:9.6934;stroke-miterlimit:10;}
	.st47{opacity:0.44;fill:#FDA979;}
	.st48{fill:none;stroke:#70D9D9;stroke-width:8.5039;stroke-miterlimit:10;stroke-dasharray:11.5087,11.5098;}
	.st49{opacity:0.75;fill:#007575;}
	.st50{clip-path:url(#SVGID_00000106862736476644283800000000023166633593670831_);}
	.st51{fill:none;stroke:#FF7F36;stroke-miterlimit:10;}
	.st52{clip-path:url(#SVGID_00000080168256438743253620000005641829768102194875_);}
	.st53{stroke:#70D9D9;stroke-width:8.5039;stroke-miterlimit:10;}
	.st54{fill:#FDA979;stroke:#222433;stroke-width:17.0079;stroke-miterlimit:10;}
	.st55{clip-path:url(#SVGID_00000074439804875245502360000015596532389586297274_);}
	.st56{fill:none;stroke:#222433;stroke-width:16.1222;stroke-linecap:round;stroke-miterlimit:10;}
	.st57{clip-path:url(#SVGID_00000147180664787982896860000013858819217366462119_);fill:#15C2C1;}
	.st58{clip-path:url(#SVGID_00000147180664787982896860000013858819217366462119_);fill:#C35515;}
	
		.st59{clip-path:url(#SVGID_00000147180664787982896860000013858819217366462119_);fill:#15C2C1;stroke:#000000;stroke-width:8.2755;stroke-miterlimit:10;}
	.st60{clip-path:url(#SVGID_00000147180664787982896860000013858819217366462119_);fill:#FF7F36;}
	
		.st61{clip-path:url(#SVGID_00000147180664787982896860000013858819217366462119_);fill:#15C2C1;stroke:#000000;stroke-width:8.5039;stroke-miterlimit:10;}
	
		.st62{clip-path:url(#SVGID_00000147180664787982896860000013858819217366462119_);fill:none;stroke:#000000;stroke-width:8.5039;stroke-miterlimit:10;}
	
		.st63{clip-path:url(#SVGID_00000147180664787982896860000013858819217366462119_);fill:#FFFFFF;stroke:#000000;stroke-width:8.5039;stroke-miterlimit:10;}
	.st64{clip-path:url(#SVGID_00000147180664787982896860000013858819217366462119_);}
	.st65{fill:none;stroke:#000000;stroke-width:8.2815;stroke-linecap:round;stroke-miterlimit:10;}
	
		.st66{clip-path:url(#SVGID_00000147180664787982896860000013858819217366462119_);fill:#FFFFFF;stroke:#000000;stroke-width:8.7446;stroke-miterlimit:10;}
	.st67{clip-path:url(#SVGID_00000147180664787982896860000013858819217366462119_);fill:none;}
	.st68{clip-path:url(#SVGID_00000150788883474663343720000009963792322956011177_);fill:#FF7F36;}
	.st69{clip-path:url(#SVGID_00000150788883474663343720000009963792322956011177_);}
	
		.st70{clip-path:url(#SVGID_00000150788883474663343720000009963792322956011177_);fill:none;stroke:#5A38FD;stroke-width:111.9047;stroke-miterlimit:10;}
	.st71{clip-path:url(#SVGID_00000026885349834894740520000014464674664220724121_);}
	
		.st72{opacity:0.57;clip-path:url(#SVGID_00000026885349834894740520000014464674664220724121_);fill:none;stroke:#FFFFFF;stroke-width:32.7065;stroke-linecap:round;stroke-miterlimit:10;}
	.st73{fill:#222433;stroke:#000000;stroke-width:7.0866;stroke-miterlimit:10;}
	
		.st74{clip-path:url(#SVGID_00000026885349834894740520000014464674664220724121_);fill:#222433;stroke:#222433;stroke-width:163.17;stroke-miterlimit:10;}
	.st75{fill:none;stroke:#000000;stroke-width:7.0866;stroke-miterlimit:10;}
	
		.st76{clip-path:url(#SVGID_00000026885349834894740520000014464674664220724121_);fill:#70D9D9;stroke:#000000;stroke-width:2.8346;stroke-linecap:round;stroke-miterlimit:10;}
	.st77{clip-path:url(#SVGID_00000134951944304192511700000017247211377672105089_);fill:#FFFFFF;}
	.st78{clip-path:url(#SVGID_00000134951944304192511700000017247211377672105089_);fill:#222433;}
	.st79{clip-path:url(#SVGID_00000134951944304192511700000017247211377672105089_);fill:#15C2C1;}
	.st80{clip-path:url(#SVGID_00000134951944304192511700000017247211377672105089_);fill:#FDA979;}
	.st81{clip-path:url(#SVGID_00000134951944304192511700000017247211377672105089_);}
	.st82{clip-path:url(#SVGID_00000134951944304192511700000017247211377672105089_);fill:#FF7F36;}
	.st83{clip-path:url(#SVGID_00000134951944304192511700000017247211377672105089_);fill:#C35515;}
	.st84{clip-path:url(#SVGID_00000011010165347615581420000004732254345968096392_);}
</style>
<rect y="3035.87" class="st3" width="1999.71" height="163.9"/>
<path class="st6" d="M310.09,1943.35h-12.25c-2.88-8.17-10.64-14.03-19.79-14.03h-4.69c-9.15,0-16.91,5.86-19.79,14.03h-12.17
	c-11.6,0-21,9.4-21,21c0,11.6,9.4,21,21,21h68.69c11.6,0,21-9.4,21-21C331.09,1952.75,321.69,1943.35,310.09,1943.35z"/>
<path class="st6" d="M876.34,1783.25h-12.25c-2.88-8.17-10.64-14.03-19.79-14.03h-4.69c-9.15,0-16.91,5.86-19.79,14.03h-12.17
	c-11.6,0-21,9.4-21,21s9.4,21,21,21h68.69c11.6,0,21-9.4,21-21S887.94,1783.25,876.34,1783.25z"/>
<path class="st6" d="M1647.92,1527.88h-12.25c-2.88-8.17-10.64-14.03-19.79-14.03h-4.69c-9.15,0-16.91,5.86-19.79,14.03h-12.17
	c-11.6,0-21,9.4-21,21c0,11.6,9.4,21,21,21h68.69c11.6,0,21-9.4,21-21C1668.92,1537.28,1659.52,1527.88,1647.92,1527.88z"/>
<path class="st6" d="M812.67,1705.31c-19.94-38.59-65.6-23.87-82.64-16.67c-3.45,1.46-7.36-0.15-8.89-3.58
	c-3.52-7.91-11.84-20.92-30.02-27.67c-33.95-12.62-58.59,9.08-70.57,23.69c-4.54-5.18-11.19-8.47-18.62-8.47
	c-9.71,0-18.1,5.6-22.16,13.74c-14.1-2.55-30.6-2.17-42.78,12.32c-0.17,0.2-0.42,0.31-0.63,0.46
	c-14.23,10.69-6.46,33.41,11.34,33.48l260.78,0.9C808.49,1733.52,823.52,1726.31,812.67,1705.31z"/>
<path class="st6" d="M1946.7,2136.8c-15.04-29.11-49.5-18.01-62.35-12.58c-2.6,1.1-5.55-0.12-6.7-2.7
	c-2.66-5.97-8.93-15.78-22.65-20.88c-25.62-9.52-44.2,6.85-53.24,17.88c-3.43-3.91-8.44-6.39-14.05-6.39
	c-7.33,0-13.65,4.23-16.72,10.36c-10.64-1.93-23.09-1.63-32.28,9.3c-0.13,0.15-0.32,0.23-0.48,0.35
	c-10.74,8.06-4.88,25.21,8.55,25.26l196.75,0.68C1943.54,2158.09,1954.89,2152.65,1946.7,2136.8z"/>
<g transform="translate(649.0 192.0) rotate(0.0 185.0 261.5) scale(0.5281933930144282 0.527872793759191)">
	<path class="st1" d="M2029.73,4546.4c0-0.13-28.17,169.79-56.8,251.27l-71.91-226.33L2029.73,4546.4z"/>
	<path class="st4" d="M1972.93,4802.82h-0.08c-2.21-0.03-4.16-1.48-4.83-3.59l-71.91-226.33c-0.86-2.71,0.64-5.6,3.35-6.46
		c0.19-0.06,0.38-0.11,0.58-0.15l128.7-24.93c0.47-0.09,0.95-0.11,1.43-0.08c2.56,0.22,4.56,2.3,4.69,4.86
		c0.02,0.41-0.01,0.83-0.08,1.23l-0.09,0.53c-4.86,28.81-30.49,176.33-56.91,251.48
		C1977.06,4801.43,1975.12,4802.81,1972.93,4802.82L1972.93,4802.82z M1907.68,4575.29l65.35,205.69
		c22.85-73.04,44.7-195.3,50.37-228.11L1907.68,4575.29z"/>
	<path class="st1" d="M1198.39,4116.92c0.8-6.04,3.95-40.02,6.67-74.02l-3.53-124.08c-10.51-57.44-31.26-118.53-54.26-112.3
		c-21.11,5.66-5.83,42.04,4.46,113.42c-20.08-61.6-39.29-105.35-60.4-96.95c-20.93,8.41-0.34,70.52,15.61,117.88
		c-23.85-25.22-54.91-60.74-70.01-51.65c-21.62,13.04,3.6,44.44,18.19,66.75c32.43,49.76,12.7,70.87,1.2,106.73
		c-7.72,23.85,3.6,50.96,22.99,78.07"/>
	<path class="st4" d="M1079.31,4145.92c-1.66,0-3.22-0.8-4.19-2.15c-23.38-32.68-31.13-59.71-23.7-82.65
		c2.13-6.63,4.5-12.7,6.8-18.58c10.27-26.25,17.7-45.22-7.42-83.75c-1.66-2.54-3.47-5.21-5.32-7.96
		c-11.69-17.26-24.94-36.83-21.56-52.17c1.33-5.88,5.09-10.91,10.36-13.84c15.22-9.17,37.7,11.68,60.48,35.6
		c-16.86-52.28-26.28-93.79-5.34-102.2c5.03-2.06,10.7-1.86,15.57,0.55c10.48,4.91,20.48,18.85,31.86,45.43
		c-3.07-16.38-5.36-29.51-5.3-39.24c0.03-4.84,0.11-19.59,14.4-23.42c5.2-1.36,10.73-0.39,15.16,2.66
		c25.91,16.34,41.38,91.15,45.5,113.69c0.05,0.26,0.08,0.52,0.08,0.78l3.54,124.08c0.01,0.19,0,0.37-0.02,0.56
		c-2.66,33.23-5.83,67.81-6.69,74.29c-0.34,2.82-2.91,4.83-5.73,4.49c-2.82-0.34-4.83-2.91-4.49-5.73c0-0.03,0.01-0.07,0.01-0.1
		c0.74-5.64,3.85-38.94,6.62-73.48l-3.52-123.41c-10.2-55.48-26.2-97.23-40.81-106.44c-1.99-1.51-4.56-2.03-6.98-1.43
		c-10.28,2.76-7.6,19.31-0.59,56.49c2.79,14.76,5.95,31.5,8.79,51.22c0.41,2.81-1.54,5.43-4.35,5.84c-2.48,0.36-4.86-1.12-5.64-3.5
		c-11.85-36.38-29.54-85.62-46.22-93.44c-2.29-1.19-4.99-1.31-7.38-0.32c-16.71,6.71,7.13,77.46,18.59,111.45
		c0.91,2.69-0.54,5.61-3.23,6.52c-1.9,0.64-4.01,0.12-5.39-1.34c-2.06-2.18-4.18-4.44-6.34-6.75
		c-17.59-18.77-47.04-50.2-57.27-44.03c-2.84,1.48-4.89,4.12-5.62,7.23c-2.42,11.02,10.03,29.41,20.03,44.19
		c1.89,2.79,3.73,5.51,5.42,8.1c28.01,42.98,18.91,66.22,8.38,93.13c-2.23,5.72-4.56,11.64-6.59,17.98
		c-6.35,19.62,0.94,43.66,22.28,73.51c1.65,2.31,1.12,5.53-1.19,7.18C1081.43,4145.59,1080.38,4145.93,1079.31,4145.92
		L1079.31,4145.92z"/>
	<path class="st1" d="M1134.78,4071.53c0.35-30.26,21.43-56.28,33.95-88.17c17.51-44.18,32.61-70.87,43.74-72.44
		c25.58-3.41-6.44,105.08-11.52,169.68"/>
	<path class="st4" d="M1200.95,4085.75c-0.14,0-0.27,0-0.41-0.02c-2.83-0.22-4.95-2.7-4.73-5.53c0,0,0,0,0,0
		c1.73-22.01,6.52-48.82,11.14-74.76c6.49-36.42,14.58-81.74,7.55-89.09c-0.22-0.23-0.43-0.45-1.35-0.32
		c-3,0.43-14.85,6.7-39.64,69.24c-4.34,10.56-9.21,20.88-14.59,30.94c-9.66,18.76-18.78,36.49-19,55.39
		c-0.03,2.84-2.36,5.12-5.21,5.09c-2.84-0.03-5.12-2.36-5.09-5.21l0,0c0.25-21.33,9.91-40.1,20.14-59.98
		c5.23-9.76,9.96-19.78,14.17-30.01c25.63-64.67,39.01-74.4,47.81-75.66c3.75-0.63,7.57,0.64,10.19,3.4
		c10.12,10.59,4.76,44.14-4.85,98.01c-4.58,25.69-9.32,52.25-11.01,73.76C1205.87,4083.68,1203.64,4085.74,1200.95,4085.75z"/>
	<path class="st2" d="M1936.26,5158.62c1.09,55.72,12.96,114.15,58.13,126.63c45.99,12.7,76.7,54.39,73.1,102.44l-381.61-1.54
		l-0.34-228.73L1936.26,5158.62z"/>
	<path class="st4" d="M2067.48,5392.84h-0.02l-381.61-1.54c-2.83-0.01-5.13-2.31-5.13-5.15l-0.34-228.72c0-2.84,2.3-5.15,5.15-5.15
		h0.02l250.73,1.2c2.79,0.01,5.07,2.25,5.12,5.05c1.39,71.22,19.67,112.19,54.35,121.77c49,13.53,80.6,57.85,76.86,107.78
		C2072.41,5390.77,2070.17,5392.84,2067.48,5392.84z M1691.01,5381.02l371.57,1.5c1.08-42.99-26.95-80.54-69.57-92.31
		c-38.71-10.7-59.48-53.24-61.77-126.47l-240.55-1.15L1691.01,5381.02z"/>
	<path class="st3" d="M1794.75,4372.16c6.99,18.93,103.39,169.41,118,205.56l126.07-23.07l-60.91-323.1
		c-5.3-27.84-21.8-52.28-45.64-67.6L1768.9,4015.4c-20.59-22.31-46.38-33.59-65.66-35.54c-30.86-3.11-75.74-7.8-83.21-9.47
		c3.76,20.33-7.34,43.75-24.86,54.67c-29.53,18.4-61.26-11.36-65.93-40.99c-24.59,3.88-79.5,5.59-110.38,45.06
		c-171.55,219.2-127.65,204.14-127.65,204.14l-59.37-164.21l-193.55,70.01l79.27,218.94c21.23,58.89,73.11,101.35,135.04,110.5
		c8.29,1.23,16.67,1.86,25.05,1.89c18.63,0,37.13-3.08,54.76-9.09c0.23-10.84,91.98-228.65,106.14-235.92
		c14.32-7.35,211.55,0.81,256.16-1.48c13.99-0.72,27.57,1.63,35.64,14.29c9.47,14.85,8.57,33.43,13.79,49.87l39.52,25.34
		L1794.75,4372.16z"/>
	<path class="st4" d="M1625.3,4178.18h-94.89c-2.84,0-5.15-2.3-5.15-5.15c0-0.02,0-0.03,0-0.05l1.7-187.19
		c0.03-2.82,2.32-5.1,5.15-5.1h0.05c2.84,0.03,5.13,2.35,5.1,5.19c0,0,0,0,0,0l-1.65,181.99h84.46l-2.92-181.96
		c-0.05-2.84,2.22-5.18,5.06-5.23c2.81-0.08,5.15,2.13,5.23,4.94c0,0.04,0,0.08,0,0.12l3,187.19c0.05,2.84-2.22,5.18-5.06,5.23
		C1625.35,4178.18,1625.32,4178.18,1625.3,4178.18L1625.3,4178.18z"/>
	<path class="st2" d="M1087.89,5109.04c4.8,64.69-11.15,163.52-117.71,179.65c-47.19,7.21-76.7,49.25-73.1,97.29l442.87-1.54
		l0.34-175.44L1087.89,5109.04z"/>
	<path class="st4" d="M897.08,5391.13c-2.69,0-4.93-2.08-5.13-4.76c-3.91-52.09,28.67-95.31,77.45-102.77
		c112.72-17.06,116.82-127.49,113.35-174.18c-0.21-2.83,1.91-5.31,4.75-5.52c0.78-0.06,1.56,0.06,2.29,0.35l252.4,99.95
		c1.97,0.78,3.27,2.68,3.26,4.8l-0.34,175.44c-0.01,2.83-2.3,5.13-5.13,5.14l-442.87,1.54H897.08z M1093.5,5116.79
		c1.1,25.32-0.64,66.2-18.07,102.5c-20.15,41.98-55.3,67.03-104.48,74.47c-41.83,6.4-70.22,42.62-68.98,87.05l432.84-1.51
		l0.33-166.82L1093.5,5116.79z"/>
	<path class="st7" d="M1411.33,4273.07l-334.59,829.62l272.14,109.82l242.6-601.68l87.87,153.32v393.28h293.59v-433.6
		c0-3.61-0.24-7.22-0.71-10.8l-49.2-115.56l-184.49-324.4H1411.33z"/>
	<path class="st4" d="M1348.87,5217.65c-0.66,0-1.31-0.13-1.93-0.37l-272.14-109.82c-2.63-1.06-3.91-4.06-2.85-6.69l334.59-829.62
		c0.79-1.95,2.67-3.22,4.77-3.22h327.22c1.85,0,3.56,0.99,4.47,2.6l184.49,324.4c0.1,0.17,0.18,0.35,0.26,0.53l49.19,115.56
		c0.2,0.48,0.34,0.99,0.39,1.51l0.21,2.11c0.37,3.05,0.54,6.12,0.51,9.2v433.6c0,2.84-2.3,5.15-5.15,5.15h-293.59
		c-2.84,0-5.15-2.3-5.15-5.15v-391.9l-81.92-142.93l-238.64,591.84C1352.86,5216.38,1350.97,5217.65,1348.87,5217.65
		L1348.87,5217.65z M1083.42,5099.84l262.59,105.96l240.68-596.91c1.06-2.64,4.06-3.91,6.7-2.85c1.07,0.43,1.97,1.21,2.54,2.21
		l87.87,153.32c0.45,0.78,0.68,1.66,0.69,2.56v388.13h283.29v-428.45c0.02-2.72-0.13-5.44-0.46-8.13l-0.14-1.36l-48.78-114.57
		l-182.86-321.54h-320.74L1083.42,5099.84z"/>
	<path class="st1" d="M1989.92,4642.83c-4.98,22.31-22.13,87.68-27.45,102.61c-5.49,15.61-34.83,19.39-28.66-22.13
		c13.73-93.17-17.33-89.74-9.78-133.84"/>
	<path class="st4" d="M1947.55,4761.53c-1.45,0-2.89-0.17-4.29-0.52c-4.58-1.13-19.18-7.26-14.54-38.45
		c7.87-53.42,0.72-74.21-5.02-90.91c-4.34-12.62-8.08-23.51-4.74-43.04c0.47-2.8,3.12-4.7,5.93-4.23c2.8,0.47,4.7,3.12,4.23,5.93
		c0,0.01,0,0.02-0.01,0.03c-2.9,16.93,0.29,26.21,4.33,37.95c6.1,17.76,13.7,39.86,5.47,95.77c-2.67,17.96,1.78,25.7,6.83,26.95
		c4.56,1.13,10.11-2.27,11.87-7.28c5.32-14.96,22.4-80.1,27.28-102.02c0.53-2.79,3.23-4.62,6.02-4.09c2.79,0.53,4.62,3.23,4.09,6.02
		c-0.02,0.1-0.04,0.2-0.07,0.3c-4.93,22.12-22.21,88.02-27.63,103.22C1964.34,4755.59,1956.48,4761.3,1947.55,4761.53
		L1947.55,4761.53z"/>
	<path class="st20" d="M1746.77,4292.88l4.47-2.54l46.16,81.16l-4.47,2.54L1746.77,4292.88z"/>
	<path class="st6" d="M1431.92,4225.02h293.59l13.04,48.04h-327.22L1431.92,4225.02z"/>
	<g>
		<g>
			<path class="st4" d="M1738.54,4278.21h-327.22c-2.84,0-5.15-2.31-5.15-5.15c0-0.7,0.14-1.39,0.42-2.03l20.59-48.04
				c0.81-1.89,2.67-3.12,4.73-3.12h293.59c2.32,0,4.36,1.56,4.97,3.8l13.04,48.04c0.74,2.74-0.88,5.57-3.62,6.32
				C1739.45,4278.15,1738.99,4278.21,1738.54,4278.21L1738.54,4278.21z M1419.13,4267.92h312.68l-10.25-37.75h-286.25
				L1419.13,4267.92z M1577.42,4178.18c-2.84,0-5.15-2.3-5.15-5.15v-142.42c0-2.84,2.3-5.15,5.15-5.15c2.84,0,5.15,2.3,5.15,5.15
				v142.42C1582.57,4175.87,1580.27,4178.18,1577.42,4178.18z M1537.57,4050.38l14.56-14.56l14.56,14.56l-14.56,14.56
				L1537.57,4050.38z M1537.57,4098.59l14.56-14.56l14.56,14.56l-14.56,14.56L1537.57,4098.59z M1537.58,4146.81l14.56-14.56
				l14.56,14.56l-14.56,14.56L1537.58,4146.81z M1587.92,4050.39l14.56-14.56l14.56,14.56l-14.56,14.56L1587.92,4050.39z
				 M1587.93,4098.61l14.56-14.56l14.56,14.56l-14.56,14.56L1587.93,4098.61z M1587.94,4146.83l14.56-14.56l14.56,14.56
				l-14.56,14.56L1587.94,4146.83z M1147.4,5275.97c-32.5,0-91.8-22.94-94.62-24.04c-2.65-1.03-3.96-4.02-2.93-6.67
				c0.18-0.46,0.43-0.9,0.74-1.29c5.25-6.75,52.12-66.12,79.07-73.44c28.74-7.7,58.33,9.1,66.45,37.72
				c7.99,28.69-8.78,58.43-37.48,66.43c-0.08,0.02-0.16,0.04-0.24,0.07h-0.03C1154.78,5275.62,1151.09,5276.03,1147.4,5275.97
				L1147.4,5275.97z M1063.08,5244.81c24.53,9.02,74.35,24.94,92.58,20.01c23.25-6.35,36.95-30.33,30.6-53.58
				c-0.02-0.07-0.04-0.15-0.06-0.22c-6.58-23.19-30.56-36.79-53.84-30.55C1114.16,5185.41,1079.52,5224.52,1063.08,5244.81z"/>
			<path class="st4" d="M1054.65,5252.28c-0.35,0-0.69-0.04-1.03-0.1c-8.38-1.72-82.43-17.31-100.97-38.09
				c-19.89-22.27-17.97-56.45,4.3-76.34c22.27-19.89,56.45-17.97,76.34,4.3c18.53,20.78,25.73,96.12,26.48,104.64
				c0.25,2.83-1.84,5.33-4.67,5.58C1054.96,5252.27,1054.81,5252.28,1054.65,5252.28L1054.65,5252.28z M993.02,5134.31
				c-24.19,0.03-43.78,19.68-43.74,43.87c0.02,10.71,3.95,21.04,11.07,29.04c12.53,14.04,63,27.68,88.49,33.39
				c-2.82-25.98-10.69-77.69-23.22-91.73c-7.7-8.68-18.55-13.9-30.14-14.51C994.65,5134.33,993.83,5134.31,993.02,5134.31z
				 M2001.51,5272.41c-21.3,0-39.33-1.43-40.9-1.56c-2.83-0.23-4.94-2.72-4.71-5.55c0.04-0.5,0.15-0.99,0.34-1.45
				c1.24-3.18,30.68-77.98,54.63-93.06c25.31-15.76,58.59-8.12,74.49,17.09c15.8,25.3,8.16,58.61-17.09,74.49h-0.01
				C2055.3,5270.49,2026.2,5272.41,2001.51,5272.41z M1968.44,5261.09c26.06,1.63,78.3,2.6,94.35-7.43
				c20.68-12.5,27.32-39.39,14.82-60.08s-39.39-27.32-60.08-14.82c-0.4,0.24-0.8,0.49-1.2,0.75
				C2000.43,5189.52,1978.41,5236.94,1968.44,5261.09z"/>
			<path class="st4" d="M1870.24,5290.95c-4.7,0.12-9.39-0.45-13.93-1.7c-28.52-8.91-44.41-39.25-35.5-67.77s39.25-44.41,67.77-35.5
				c0.14,0.04,0.28,0.09,0.41,0.13c26.57,8.38,71.21,69.65,76.2,76.61c1.66,2.31,1.13,5.53-1.18,7.18
				c-0.41,0.29-0.85,0.52-1.32,0.69C1959.94,5271.55,1903.31,5290.95,1870.24,5290.95L1870.24,5290.95z M1872.82,5193.91
				c-24.18-0.1-43.86,19.42-43.96,43.6c-0.08,19.15,12.3,36.13,30.55,41.92c18.06,5.64,68.45-8.3,93.29-16.35
				c-15.68-20.95-48.85-61.49-66.79-67.15C1881.67,5194.59,1877.25,5193.91,1872.82,5193.91L1872.82,5193.91z M1218.98,5089.65
				c-20.47,0.09-40.33-7-56.11-20.04c-8.45-6.86-20.55-6.86-29,0c-14,11.53-31.22,18.44-49.31,19.78c-2.83,0.26-5.34-1.82-5.6-4.65
				c-0.26-2.83,1.82-5.34,4.65-5.6c0.06-0.01,0.12-0.01,0.18-0.01c15.98-1.18,31.2-7.29,43.56-17.48c12.25-9.95,29.79-9.95,42.04,0
				c33.4,27.4,82.69,22.54,110.09-10.86c11.73-14.3,18.02-32.3,17.74-50.79c-0.64-42.13-35.3-76.81-77.27-77.29h-0.67
				c-18.1-0.01-35.65,6.18-49.73,17.55c-8.18,6.61-18.95,9.08-29.19,6.69c-2.76-0.67-4.46-3.45-3.79-6.22
				c0.67-2.76,3.45-4.46,6.21-3.79c7.13,1.64,14.61-0.09,20.3-4.69c15.92-12.85,35.76-19.85,56.22-19.84h0.76
				c47.51,0.54,86.74,39.76,87.46,87.43c0.75,48.85-38.24,89.06-87.09,89.81C1219.94,5089.65,1219.46,5089.65,1218.98,5089.65
				L1218.98,5089.65z M1479.79,4493.38c-20.48,0.1-40.34-7-56.12-20.04c-8.45-6.86-20.55-6.86-29,0
				c-15.78,13.04-35.64,20.13-56.11,20.03c-4.87,0.09-9.73-0.3-14.51-1.18c-2.81-0.46-4.71-3.1-4.25-5.91
				c0.46-2.81,3.1-4.71,5.91-4.25c0.07,0.01,0.14,0.02,0.21,0.04c4.17,0.77,8.41,1.11,12.65,1.01c18.09,0.09,35.64-6.18,49.59-17.7
				c12.25-9.95,29.79-9.95,42.04,0c33.4,27.4,82.69,22.54,110.09-10.87c11.73-14.3,18.02-32.3,17.74-50.79
				c-0.64-42.14-35.3-76.81-77.27-77.29h-0.66c-18.1-0.01-35.65,6.18-49.73,17.55c-12.26,10.05-29.9,10.1-42.23,0.13
				c-1.65-1.36-3.36-2.64-5.12-3.86c-2.34-1.62-2.92-4.83-1.3-7.16c1.62-2.34,4.83-2.92,7.16-1.3c1.99,1.37,3.95,2.85,5.82,4.39
				c8.55,6.86,20.75,6.78,29.2-0.2c16.12-13,36.26-20.01,56.97-19.84c47.51,0.55,86.74,39.77,87.46,87.43
				c0.75,48.85-38.24,89.06-87.09,89.81C1480.75,4493.38,1480.27,4493.39,1479.79,4493.38L1479.79,4493.38z M1513.76,4807.39
				c-20.8,0-39.66-7.24-56.06-21.51c-8.47-7.27-20.98-7.27-29.45,0c-36.98,31.94-92.85,27.85-124.79-9.13
				c-14.18-16.42-21.84-37.48-21.51-59.18c0.54-47.2,39.44-86.36,86.72-87.26c21.85-0.48,43.09,7.19,59.6,21.52
				c8.55,7.16,21.03,7.07,29.48-0.21c32.56-28.08,80.59-28.69,113.85-1.43c1.13,0.94,2.34,1.77,3.63,2.47
				c2.51,1.33,3.47,4.45,2.14,6.96c-1.33,2.51-4.45,3.47-6.96,2.14c-0.02-0.01-0.05-0.03-0.07-0.04c-1.88-1.02-3.65-2.22-5.3-3.59
				c-29.39-24.06-71.81-23.51-100.57,1.3c-12.34,10.58-30.53,10.65-42.96,0.17c-14.58-12.65-33.35-19.42-52.65-18.99
				c-42.05,1.08-75.8,35.06-76.61,77.11c-0.65,43.18,33.82,78.72,77,79.37c19.15,0.29,37.75-6.46,52.25-18.97
				c12.35-10.62,30.61-10.62,42.96,0c14.68,12.78,30.81,18.99,49.31,18.99c2.84,0,5.15,2.3,5.15,5.15
				S1516.61,4807.38,1513.76,4807.39L1513.76,4807.39z M1888.34,4559.1c-21.22,0.04-41.74-7.6-57.77-21.51
				c-8.47-7.27-20.98-7.27-29.45,0c-36.98,31.94-92.86,27.85-124.8-9.13c-14.18-16.42-21.84-37.48-21.51-59.18
				c0.54-47.2,39.45-86.36,86.72-87.26c21.85-0.49,43.1,7.18,59.59,21.52c4.68,4,10.81,5.88,16.93,5.2c2.82-0.34,5.39,1.67,5.72,4.5
				c0.34,2.82-1.67,5.39-4.5,5.73c-0.04,0-0.08,0.01-0.12,0.01c-8.97,0.98-17.95-1.79-24.79-7.67c-14.25-12.35-32.49-19.1-51.35-19
				c-0.44,0-0.87,0-1.31,0.01c-42.04,1.08-75.79,35.05-76.61,77.1c-0.65,43.18,33.82,78.72,77,79.37
				c19.15,0.29,37.75-6.46,52.25-18.97c12.35-10.62,30.61-10.62,42.96,0c14.16,12.28,32.28,19.02,51.02,18.99
				c3.02,0,6.04-0.17,9.04-0.51c2.83-0.3,5.36,1.75,5.66,4.58c0.29,2.79-1.7,5.31-4.49,5.65
				C1895.16,4558.9,1891.75,4559.1,1888.34,4559.1L1888.34,4559.1z M1949.59,5093.59c-20.47,0.1-40.33-7-56.11-20.04
				c-8.45-6.86-20.55-6.86-29,0c-33.27,27.26-81.33,26.64-113.88-1.48c-8.47-7.27-20.98-7.27-29.45,0
				c-11.39,9.92-22.26,17.13-38.26,20.05c-2.78,0.59-5.51-1.19-6.1-3.98c-0.59-2.78,1.19-5.51,3.98-6.1
				c0.09-0.02,0.18-0.04,0.27-0.05c13.74-2.51,22.95-8.63,33.36-17.7c12.35-10.62,30.61-10.62,42.96,0
				c28.76,24.82,71.21,25.37,100.6,1.28c12.25-9.95,29.79-9.95,42.04,0c13.95,11.53,31.49,17.8,49.59,17.71
				c7.41,0.01,14.79-1.04,21.91-3.1c2.73-0.79,5.58,0.79,6.37,3.52c0.78,2.72-0.78,5.57-3.5,6.36
				C1966.32,5092.42,1957.98,5093.6,1949.59,5093.59L1949.59,5093.59z M1735.63,4953.61c-7.78,0.04-15.32-2.73-21.22-7.81
				c-10.25-8.92-22.69-14.97-36.03-17.54c-2.79-0.54-4.62-3.24-4.08-6.03c0.54-2.79,3.24-4.62,6.03-4.08l0,0
				c15.13,2.91,29.22,9.77,40.84,19.88c8.55,7.16,21.03,7.07,29.48-0.21c32.56-28.09,80.6-28.69,113.85-1.43
				c8.55,6.86,20.75,6.78,29.2-0.21c16.11-13.02,36.25-20.04,56.97-19.84c8.03,0.09,16.01,1.28,23.72,3.54
				c2.74,0.76,4.35,3.59,3.59,6.33c-0.76,2.74-3.59,4.35-6.33,3.59c-0.05-0.01-0.11-0.03-0.16-0.05c-6.8-1.99-13.84-3.05-20.92-3.12
				c-18.33-0.16-36.14,6.05-50.4,17.55c-12.27,10.05-29.9,10.1-42.23,0.13c-29.39-24.06-71.81-23.51-100.57,1.3
				C1751.3,4950.79,1743.59,4953.62,1735.63,4953.61L1735.63,4953.61z"/>
		</g>
	</g>
	<path class="st1" d="M1601.21,3778.93c0.72-4.47,0.98-9,0.78-13.52c-1.69-36.02-32.25-63.85-68.27-62.17
		c-34.72,1.62-62.08,30.16-62.24,64.91c-0.03,4.33,3.22,73.32,4,77.39l99.52,12.01l-1.72-53.19L1601.21,3778.93z"/>
	<path class="st4" d="M1575.01,3862.68c-0.21,0-0.41-0.01-0.62-0.04l-99.52-12.01c-2.22-0.27-4.02-1.94-4.44-4.14
		c-0.94-4.88-4.12-74.34-4.09-78.39c0.07-38.9,31.67-70.37,70.57-70.3c37.65,0.07,68.59,29.75,70.23,67.37
		c0.21,4.87-0.07,9.75-0.85,14.57c-0.19,1.15-0.76,2.2-1.62,2.98l-26.17,23.82l1.64,50.82c0.09,2.84-2.13,5.22-4.97,5.32
		C1575.12,3862.69,1575.06,3862.69,1575.01,3862.68L1575.01,3862.68z M1480.23,3840.91l89.44,10.79l-1.52-47.19
		c-0.05-1.51,0.56-2.96,1.68-3.97l26.56-24.18c0.47-3.56,0.62-7.15,0.47-10.74c-1.54-33.18-29.69-58.83-62.87-57.29
		c-32,1.49-57.22,27.8-57.35,59.83C1476.6,3772.65,1479.17,3825.95,1480.23,3840.91L1480.23,3840.91z"/>
	<path class="st4" d="M1541.21,3948.8c-0.86,0-1.73-0.02-2.62-0.06c-42.71-1.37-76.22-37.1-74.85-79.81
		c0.2-6.37,1.19-12.69,2.95-18.81c1.62-5.84,3.95-11.46,6.94-16.73c1.4-2.47,4.55-3.34,7.02-1.93c2.47,1.4,3.34,4.55,1.93,7.02l0,0
		c-2.58,4.55-4.59,9.4-5.99,14.45c-2.29,8.06-3.07,16.48-2.3,24.82c3.31,33.59,30.96,59.54,64.69,60.71
		c10.91,0.38,21.74-1.9,31.57-6.65c33.4-16.24,47.31-56.49,31.06-89.89c-0.5-1.03-1.02-2.04-1.57-3.04
		c-1.4-2.48-0.52-5.62,1.95-7.01c2.48-1.4,5.62-0.52,7.01,1.95c0.01,0.02,0.03,0.05,0.04,0.07c20.68,37.5,7.04,84.66-30.46,105.34
		c-1.19,0.66-2.39,1.28-3.61,1.87c-7.77,3.67-16.08,6.08-24.6,7.15C1547.33,3948.59,1544.27,3948.77,1541.21,3948.8L1541.21,3948.8z
		"/>
	<path class="st1" d="M1534.73,3976.4l-0.09-4.37l-10.68-82.32l89.64-16.67l13.27,101.19l0.62,8.71
		c-0.76,25.69-22.2,45.9-47.89,45.14c-25.69-0.76-45.9-22.2-45.14-47.89C1534.5,3978.94,1534.59,3977.67,1534.73,3976.4z"/>
	<path class="st4" d="M1580.7,4033.25c-0.42,0-0.83,0-1.25-0.02c-14.27-0.32-27.75-6.64-37.13-17.4
		c-9.52-10.9-14.12-25.24-12.74-39.64l-0.08-3.79l-10.64-82.05c-0.35-2.71,1.48-5.22,4.16-5.72l89.64-16.67
		c2.8-0.52,5.48,1.32,6,4.12c0.02,0.09,0.03,0.18,0.04,0.27l13.27,101.19c0.01,0.1,0.02,0.2,0.03,0.3l0.62,8.71
		c0.01,0.18,0.02,0.37,0.01,0.55C1631.53,4011.05,1608.64,4033.14,1580.7,4033.25L1580.7,4033.25z M1529.69,3893.88l10.05,77.49
		c0.02,0.18,0.04,0.37,0.04,0.56l0.09,4.37c0.01,0.21,0,0.42-0.03,0.63c-1.2,11.66,2.49,23.29,10.2,32.11
		c7.49,8.6,18.26,13.65,29.66,13.91c0.34,0,0.67,0.01,1,0.01c22.3-0.1,40.6-17.65,41.62-39.93l-0.59-8.28l-12.54-95.66
		L1529.69,3893.88z"/>
	<path class="st7" d="M1538.65,3948.52c3.87,0.13,7.74-0.03,11.59-0.46c6.99-0.86,13.84-2.64,20.36-5.29
		c1.41-0.57,2.82-1.19,4.23-1.84c38.44-18.58,54.53-64.8,35.95-103.24c-0.69-1.44-1.43-2.85-2.22-4.24
		c-14.17-5.54-21.16-21.51-15.63-35.68c2.35-6.01,6.73-11,12.39-14.11c1.34-6.06,1.88-12.26,1.6-18.46
		c-1.69-38.79-34.51-68.87-73.31-67.17c-0.85,0.04-1.71,0.09-2.56,0.16c-24.01,2.07-45.31,16.25-56.47,37.6
		c-1.26,2.42-0.32,5.4,2.1,6.66c0.83,0.43,1.77,0.62,2.71,0.54l83.51-7.45l9.84,69.33l-3.19,49.55l-2.79-1.57
		c-21.1-11.9-45.76-15.89-69.53-11.25l-26.24,4.95c-1.84,0.35-3.32,1.71-3.83,3.5c-2.62,9.25-3.51,18.89-2.64,28.46
		C1468.01,3917.23,1499.81,3947.25,1538.65,3948.52z"/>
	<path class="st4" d="M1541.26,3953.73c-0.92,0-1.86-0.02-2.81-0.07c-41.42-1.38-75.32-33.4-79.06-74.67
		c-0.93-10.2,0.02-20.48,2.81-30.33c1.03-3.67,4.05-6.44,7.8-7.16l26.28-4.96c23.31-4.54,47.46-1.2,68.66,9.5l2.64-40.98
		l-9.08-63.97l-78.64,7.01c-5.55,0.49-10.44-3.6-10.94-9.15c-0.17-1.91,0.21-3.82,1.08-5.52c11.99-22.93,34.86-38.16,60.64-40.39
		c41.54-3.33,77.91,27.65,81.24,69.2c0.07,0.91,0.13,1.81,0.17,2.72c0.29,6.65-0.28,13.31-1.72,19.8c-0.32,1.45-1.25,2.69-2.55,3.4
		c-9.94,5.46-14.23,17.49-9.98,28.01c2.28,5.73,6.85,10.25,12.61,12.47c1.1,0.43,2.03,1.23,2.61,2.27
		c22.32,39.69,8.25,89.95-31.44,112.28c-1.49,0.84-3,1.63-4.54,2.37c-1.54,0.72-3.05,1.38-4.54,1.98
		c-6.94,2.81-14.23,4.7-21.66,5.62C1547.68,3953.52,1544.47,3953.71,1541.26,3953.73L1541.26,3953.73z M1472.07,3851.6
		c-2.42,8.6-3.24,17.57-2.43,26.47c3.26,36.11,32.93,64.12,69.16,65.31h0.09c3.62,0.12,7.24-0.03,10.84-0.44
		c6.5-0.82,12.87-2.47,18.95-4.94c1.32-0.53,2.65-1.11,3.97-1.73c35.87-17.39,50.85-60.55,33.46-96.42c-0.39-0.8-0.79-1.58-1.2-2.37
		c-16.4-7.56-23.56-26.97-16.01-43.37c2.58-5.59,6.68-10.34,11.84-13.7c0.92-4.94,1.27-9.97,1.05-14.99
		c-1.58-35.96-32-63.82-67.96-62.25c-0.78,0.03-1.57,0.08-2.35,0.15c-22.11,1.91-41.74,14.9-52.15,34.5l83.11-7.41
		c2.73-0.24,5.17,1.69,5.55,4.4l9.84,69.34c0.05,0.35,0.06,0.7,0.04,1.06l-3.19,49.56c-0.18,2.84-2.63,4.99-5.47,4.81
		c-0.77-0.05-1.52-0.27-2.19-0.65l-2.79-1.57c-20.04-11.3-43.45-15.09-66.03-10.69L1472.07,3851.6z"/>
	<path class="st4" d="M1514.23,3881.9c-6.25-0.01-12.27-2.35-16.88-6.56l-2.77-2.57c-2.07-1.95-2.16-5.21-0.2-7.28
		c1.93-2.05,5.15-2.16,7.23-0.25l2.73,2.55c3.06,2.78,7.14,4.15,11.26,3.76c4-0.35,7.65-2.4,10.03-5.62l0.55-0.74
		c1.71-2.27,4.94-2.73,7.21-1.02c2.27,1.71,2.72,4.92,1.03,7.19l-0.55,0.73c-4.14,5.53-10.43,9.06-17.31,9.71
		C1515.79,3881.86,1515.01,3881.9,1514.23,3881.9L1514.23,3881.9z"/>
	<ellipse class="st1" cx="1617.9" cy="3809.49" rx="15.41" ry="15.4"/>
	<path class="st4" d="M1617.9,3843.81c-18.95,0-34.32-15.36-34.32-34.32c0-18.95,15.36-34.32,34.32-34.32
		c18.95,0,34.32,15.36,34.32,34.32C1652.2,3828.44,1636.85,3843.79,1617.9,3843.81z M1617.9,3785.47
		c-13.27,0-24.02,10.76-24.02,24.02c0,13.27,10.76,24.02,24.02,24.02s24.02-10.76,24.02-24.02
		C1641.91,3796.23,1631.16,3785.48,1617.9,3785.47z"/>
	<path class="st1" d="M1497.87,3796.55c-0.2-0.66-0.43-1.32-0.69-1.98c-4.66-11.55-17.8-17.14-29.35-12.48s-17.14,17.8-12.48,29.35
		c4.05,10.03,14.64,15.78,25.26,13.7"/>
	<path class="st4" d="M1476.25,3830.71c-15.3,0-27.7-12.41-27.7-27.71c0-15.3,12.41-27.7,27.71-27.7c11.3,0,21.47,6.87,25.69,17.35
		c0.32,0.79,0.6,1.6,0.86,2.42c0.82,2.72-0.73,5.59-3.45,6.41c-2.72,0.82-5.59-0.73-6.41-3.45l0,0c-0.15-0.52-0.33-1.03-0.54-1.54
		c-3.59-8.92-13.74-13.23-22.65-9.64c-8.92,3.59-13.23,13.74-9.64,22.65c3.12,7.74,11.3,12.18,19.49,10.57
		c2.79-0.55,5.5,1.26,6.05,4.05c0.55,2.79-1.26,5.5-4.05,6.05C1479.84,3830.53,1478.05,3830.71,1476.25,3830.71L1476.25,3830.71z"/>
	<ellipse class="st1" cx="1535.99" cy="3794.74" rx="11.91" ry="11.91"/>
	<path class="st4" d="M1536.04,3822.45c-2.25,0-4.49-0.27-6.67-0.82c-14.76-3.67-23.75-18.62-20.08-33.38
		c3.67-14.76,18.62-23.75,33.38-20.08c14.76,3.67,23.75,18.62,20.08,33.38C1559.7,3813.82,1548.68,3822.44,1536.04,3822.45z
		 M1535.96,3777.34c-9.61,0.02-17.38,7.83-17.36,17.44c0.02,9.61,7.83,17.38,17.44,17.36c9.61-0.02,17.39-7.83,17.36-17.44
		c-0.01-3.16-0.88-6.26-2.51-8.97C1547.75,3780.49,1542.07,3777.3,1535.96,3777.34z"/>
	<path class="st4" d="M1501.2,3796.12c-2.84,0-5.15-2.31-5.15-5.15c0-2.48,1.78-4.61,4.22-5.06l13.16-2.42
		c2.79-0.57,5.51,1.22,6.08,4.01c0.57,2.79-1.22,5.51-4.01,6.08c-0.07,0.01-0.14,0.03-0.21,0.04l-13.16,2.42
		C1501.82,3796.09,1501.51,3796.12,1501.2,3796.12z M1557.55,3793.02c-2.84,0-5.15-2.31-5.14-5.15c0-2.44,1.72-4.55,4.11-5.04
		l53.12-10.91c2.78-0.57,5.51,1.22,6.08,4c0.57,2.78-1.22,5.51-4,6.08l-53.12,10.92C1558.25,3792.99,1557.9,3793.02,1557.55,3793.02
		L1557.55,3793.02z"/>
	<path class="st4" d="M1496.82,3846.9c-0.57,0-1.13-0.09-1.66-0.28l-21.76-7.42c-2.69-0.92-4.13-3.84-3.21-6.53
		c0.12-0.35,0.27-0.68,0.46-0.99l26.14-43.35c1.47-2.43,4.63-3.22,7.07-1.75c2.43,1.47,3.22,4.63,1.75,7.07l0,0l-22.85,37.89
		l15.72,5.36c2.69,0.92,4.12,3.85,3.19,6.54C1500.96,3845.5,1499.02,3846.89,1496.82,3846.9z"/>
	
		<ellipse transform="matrix(1 -2.038483e-03 2.038483e-03 1 -7.7394 3.1292)" class="st4" cx="1531.21" cy="3798.22" rx="2.76" ry="2.75"/>
	
		<ellipse transform="matrix(1 -1.428545e-03 1.428545e-03 1 -5.4363 2.1058)" class="st4" cx="1471.35" cy="3806.54" rx="2.76" ry="2.75"/>
	<path class="st4" d="M1432.59,4229.88c-0.13,0-0.25,0-0.38-0.01c-2.84-0.21-4.97-2.67-4.76-5.51l8.58-118.4
		c0.18-2.84,2.62-4.99,5.46-4.81s4.99,2.62,4.81,5.46c0,0.03,0,0.06-0.01,0.1l-8.58,118.4
		C1437.53,4227.79,1435.29,4229.88,1432.59,4229.88L1432.59,4229.88z M1726,4229.88c-2.84,0-5.15-2.3-5.15-5.15v-118.39
		c0-2.84,2.3-5.15,5.15-5.15c2.84,0,5.15,2.3,5.15,5.15v118.39C1731.15,4227.57,1728.84,4229.88,1726,4229.88z"/>
</g>
<g transform="translate(528.0 195.0) rotate(0.0 -187.0 260.0) scale(-0.5339035918578275 0.5333513852263718)">
	<path class="st4" d="M0.93,3718.77c103.6-33.68,214.89,23,248.57,126.6c15.73,48.37,12.16,100.95-9.96,146.76l-252.02-22.31
		L0.93,3718.77z"/>
	<path class="st4" d="M239.55,3997.28c-0.15,0-0.3,0-0.45-0.02l-252.02-22.31c-2.76-0.24-4.84-2.63-4.69-5.4l13.4-251.05
		c0.11-2.12,1.52-3.96,3.55-4.62c106.31-34.56,220.5,23.6,255.06,129.91c16.13,49.63,12.47,103.58-10.22,150.58
		C243.32,3996.15,241.52,3997.28,239.55,3997.28z M-7.07,3965.13l243.5,21.55c11.66-25.19,17.66-52.64,17.59-80.4
		c-0.09-106.13-86.2-192.09-192.33-192c-18.91,0.02-37.71,2.82-55.81,8.33L-7.07,3965.13z"/>
	<path class="st4" d="M-50.98,3770.09c-16.82-2.75-38.7-6.18-57.58-25.05l-29.17-36.03l-26.24,20.72
		c5.32-20.08,13.73-37.75,30.71-49.59c40.81-28.38,96.9-18.31,125.28,22.5c10.6,15.24,16.23,33.4,16.11,51.97v6.01l-5.16-3.55
		c-2.35-2.4-3.79-2.09-6.86-3.43c-11.2-4.88-23.42-3.19-34.53,2.49C-44.15,3759.12-48.61,3764.08-50.98,3770.09L-50.98,3770.09z"/>
	<path class="st4" d="M-50.98,3775.24c-0.28,0-0.56-0.02-0.83-0.07l-0.44-0.07c-16.91-2.75-40.07-6.52-59.95-26.41
		c-0.13-0.13-0.25-0.26-0.36-0.4l-25.96-32.08l-22.25,17.56c-2.23,1.76-5.47,1.38-7.23-0.85c-1-1.27-1.35-2.94-0.94-4.51
		c4.14-15.61,12.04-38.06,32.75-52.49c43.14-30.01,102.44-19.36,132.44,23.78c11.21,16.12,17.16,35.31,17.03,54.95v5.97
		c0,2.84-2.3,5.15-5.15,5.15c-1.04,0-2.06-0.32-2.92-0.91l-5.16-3.55c-0.27-0.19-0.53-0.4-0.76-0.64c-0.59-0.64-1.38-1.07-2.24-1.21
		c-1.02-0.31-2.02-0.68-3-1.1c-11.4-4.97-22.67-1.46-30.12,2.36c-4.63,2.42-8.23,6.44-10.14,11.31
		C-46.99,3773.96-48.88,3775.24-50.98,3775.24L-50.98,3775.24z M-104.72,3741.59c16.31,16.2,35.08,20.17,50.78,22.79
		c3.03-5.49,7.62-9.96,13.19-12.84c13.33-6.83,27.16-7.77,38.93-2.63c0.66,0.28,1.34,0.52,2.03,0.73c0.94,0.28,1.85,0.63,2.73,1.05
		c-1.84-46.83-41.3-83.3-88.13-81.46c-16.18,0.64-31.83,5.89-45.12,15.13c-10.27,7.15-17.78,16.92-23.43,30.73l12.82-10.12
		c2.21-1.75,5.42-1.39,7.19,0.8L-104.72,3741.59z"/>
	<path class="st1" d="M418.23,4485.39c0-0.13-28.17,169.79-56.8,251.27l-71.91-226.33L418.23,4485.39z"/>
	<path class="st4" d="M361.43,4741.81h-0.08c-2.21-0.03-4.16-1.48-4.83-3.59l-71.91-226.33c-0.86-2.71,0.64-5.6,3.35-6.46
		c0.19-0.06,0.38-0.11,0.58-0.15l128.7-24.93c0.46-0.09,0.94-0.12,1.41-0.08c2.84,0.24,4.94,2.73,4.7,5.57
		c-0.01,0.18-0.04,0.35-0.07,0.53l-0.09,0.55c-4.87,28.82-30.51,176.36-56.91,251.46C365.56,4740.42,363.62,4741.8,361.43,4741.81z
		 M296.18,4514.28l65.36,205.7c22.69-72.35,43.95-190.86,50.37-228.12L296.18,4514.28z"/>
	<path class="st4" d="M85.05,3979.85c103.3-34.67,215.15,20.96,249.82,124.26c6.78,20.19,10.24,41.34,10.25,62.64L85.05,3979.85z"/>
	<path class="st4" d="M290.63,4416.76c-1.08,0-2.13-0.34-3-0.97l-260.07-186.9c-2.31-1.66-2.84-4.88-1.18-7.18
		c0.63-0.88,1.52-1.53,2.54-1.88c106-35.58,220.76,21.51,256.34,127.51c6.95,20.72,10.51,42.42,10.52,64.27
		C295.77,4414.45,293.47,4416.76,290.63,4416.76z"/>
	<path class="st1" d="M-413.11,4055.91c0.8-6.04,3.95-40.02,6.67-74.02l-3.53-124.08c-10.51-57.44-31.26-118.53-54.26-112.3
		c-21.11,5.66-5.83,42.04,4.46,113.42c-20.08-61.6-39.29-105.35-60.4-96.95c-20.93,8.41-0.34,70.52,15.61,117.88
		c-23.85-25.22-54.91-60.74-70.01-51.65c-21.62,13.04,3.6,44.44,18.19,66.75c32.43,49.76,12.7,70.87,1.2,106.73
		c-7.72,23.85,3.6,50.96,22.99,78.07"/>
	<path class="st4" d="M-532.19,4084.91c-1.66,0-3.22-0.8-4.19-2.15c-23.38-32.68-31.13-59.71-23.7-82.65
		c2.13-6.63,4.5-12.7,6.8-18.58c10.27-26.25,17.7-45.22-7.42-83.76c-1.66-2.54-3.47-5.21-5.32-7.95
		c-11.69-17.26-24.94-36.83-21.56-52.17c1.33-5.87,5.09-10.9,10.35-13.83c15.22-9.18,37.7,11.68,60.48,35.6
		c-16.86-52.28-26.28-93.79-5.34-102.2c5.03-2.06,10.7-1.86,15.57,0.55c10.48,4.91,20.48,18.86,31.86,45.43
		c-3.07-16.38-5.36-29.51-5.3-39.24c0.03-4.85,0.11-19.59,14.39-23.42c5.2-1.36,10.73-0.39,15.16,2.66
		c25.91,16.34,41.38,91.15,45.5,113.68c0.05,0.26,0.07,0.52,0.08,0.78l3.54,124.08c0,0.19,0,0.37-0.01,0.56
		c-2.66,33.24-5.84,67.82-6.69,74.29c-0.34,2.82-2.9,4.84-5.72,4.5c-2.82-0.34-4.84-2.9-4.5-5.72c0-0.04,0.01-0.08,0.02-0.12
		c0.74-5.63,3.85-38.93,6.62-73.48l-3.52-123.41c-10.19-55.47-26.19-97.23-40.8-106.45c-1.99-1.51-4.56-2.03-6.99-1.43
		c-10.27,2.76-7.6,19.31-0.58,56.49c2.79,14.76,5.95,31.5,8.79,51.22c0.4,2.81-1.55,5.42-4.37,5.83c-2.47,0.35-4.84-1.12-5.62-3.5
		c-11.85-36.37-29.54-85.62-46.22-93.44c-2.29-1.19-4.99-1.3-7.38-0.32c-16.71,6.71,7.13,77.45,18.59,111.45
		c0.91,2.69-0.54,5.61-3.23,6.52c-1.9,0.64-4.01,0.12-5.38-1.34c-2.12-2.24-4.23-4.49-6.34-6.74
		c-17.59-18.78-47.05-50.2-57.27-44.03c-2.84,1.48-4.89,4.12-5.62,7.23c-2.42,11.02,10.03,29.41,20.03,44.19
		c1.89,2.79,3.73,5.51,5.42,8.1c28.01,42.98,18.91,66.22,8.38,93.13c-2.23,5.72-4.56,11.64-6.59,17.98
		c-6.35,19.62,0.94,43.66,22.28,73.51c1.65,2.31,1.12,5.53-1.19,7.18C-530.07,4084.57-531.11,4084.91-532.19,4084.91
		L-532.19,4084.91z"/>
	<path class="st1" d="M-476.72,4010.52c0.35-30.26,21.43-56.28,33.95-88.16c17.51-44.18,32.61-70.87,43.74-72.44
		c25.58-3.41-6.44,105.08-11.52,169.68"/>
	<path class="st4" d="M-410.55,4024.74c-0.14,0-0.27,0-0.41-0.02c-2.83-0.22-4.95-2.7-4.73-5.53c0,0,0,0,0,0
		c1.73-22.01,6.52-48.83,11.14-74.76c6.49-36.42,14.58-81.74,7.55-89.09c-0.22-0.23-0.43-0.45-1.35-0.32
		c-3,0.43-14.85,6.7-39.64,69.24c-4.34,10.55-9.21,20.88-14.6,30.94c-9.66,18.77-18.78,36.49-19,55.39
		c-0.03,2.82-2.33,5.09-5.15,5.09h-0.06c-2.84-0.03-5.12-2.36-5.09-5.21c0,0,0,0,0,0c0.25-21.32,9.91-40.1,20.14-59.98
		c5.23-9.76,9.96-19.77,14.17-30.01c25.63-64.67,39.01-74.4,47.81-75.66c3.75-0.63,7.57,0.64,10.19,3.4
		c10.12,10.58,4.75,44.14-4.85,98.01c-4.58,25.69-9.32,52.25-11.01,73.76C-405.63,4022.67-407.86,4024.73-410.55,4024.74z"/>
	<path class="st7" d="M324.76,5097.61c1.09,55.72,12.96,114.15,58.13,126.63c45.99,12.7,76.7,54.39,73.1,102.44l-221.18-1.54
		l-89.74-141.04l0.69,141.04H74.37l-0.34-228.73L324.76,5097.61z"/>
	<path class="st4" d="M455.98,5331.83h-0.04l-221.18-1.54c-1.75-0.01-3.37-0.91-4.31-2.39l-80.16-125.99l0.6,123.2
		c0.01,2.84-2.28,5.16-5.12,5.17c-0.01,0-0.02,0-0.03,0H74.37c-2.84,0-5.15-2.3-5.15-5.15l-0.34-228.73c0-2.84,2.3-5.15,5.15-5.15
		h0.02l250.73,1.2c2.79,0.01,5.07,2.25,5.12,5.05c1.39,71.22,19.67,112.19,54.35,121.77c49,13.53,80.6,57.85,76.86,107.79
		C460.91,5329.75,458.67,5331.83,455.98,5331.83z M237.64,5320.01l213.44,1.49c1.08-42.98-26.96-80.53-69.57-92.29
		c-38.71-10.7-59.48-53.24-61.77-126.47l-240.55-1.15l0.33,218.4h61.07l-0.66-135.87c-0.01-2.84,2.28-5.16,5.12-5.17
		c1.77-0.01,3.42,0.89,4.37,2.38L237.64,5320.01z"/>
	<path class="st2" d="M183.25,4311.15c6.99,18.93,103.39,169.41,118,205.56l126.07-23.07l-60.91-323.1
		c-5.3-27.84-21.8-52.28-45.64-67.6L41.08,3921.56l-0.06,0.08c-10.19-5.61-21.13-9.74-32.48-12.27
		c3.76,20.33-7.34,43.75-24.86,54.67c-29.53,18.4-61.26-11.36-65.93-40.99c-18.67,10.14-36.06,24.54-51.89,42.24
		c-185.57,207.46-186.14,206.95-186.14,206.95l-59.37-164.21l-193.55,70.01l79.27,218.94c21.23,58.89,73.11,101.35,135.04,110.5
		c8.29,1.23,16.67,1.86,25.05,1.89c18.63,0,37.13-3.08,54.76-9.09c0.23-10.84,91.98-228.65,106.14-235.92
		c14.32-7.35,211.55,0.81,256.15-1.48c13.99-0.72,27.57,1.63,35.64,14.29c9.47,14.85,8.57,33.43,13.79,49.87l39.52,25.34
		L183.25,4311.15z"/>
	<path class="st4" d="M13.8,4117.16h-94.89c-2.84,0-5.15-2.3-5.15-5.15c0-0.02,0-0.03,0-0.05l1.7-187.18
		c0.03-2.82,2.32-5.1,5.15-5.1h0.05c2.84,0.03,5.12,2.35,5.1,5.19l-1.65,182H8.57l-2.92-181.96c-0.05-2.84,2.22-5.18,5.06-5.23
		c0,0,0,0,0,0h0.08c2.81,0,5.1,2.25,5.15,5.07l3,187.19c0.05,2.84-2.22,5.18-5.06,5.23C13.86,4117.16,13.83,4117.16,13.8,4117.16
		L13.8,4117.16z M114.01,4169.15c-2.84,0-5.15-2.3-5.15-5.14c0-0.2,0.01-0.39,0.03-0.58c1.86-15.35-0.43-30.92-6.63-45.08
		c-6.76-15.5-9.21-32.55-7.09-49.33c0.34-2.82,2.9-4.84,5.72-4.5s4.84,2.9,4.5,5.72c-1.9,14.96,0.28,30.15,6.3,43.98
		c6.93,15.82,9.5,33.21,7.43,50.36C118.83,4167.18,116.63,4169.15,114.01,4169.15L114.01,4169.15z M-179.75,4169.15
		c-0.16,0-0.32,0-0.48-0.02c-2.83-0.26-4.92-2.76-4.66-5.6c2.23-24.26,11.73-45.92,19.31-59.82c9.04-16.57,14.89-34.69,17.26-53.41
		c0.38-2.82,2.98-4.79,5.79-4.41c2.77,0.38,4.73,2.9,4.42,5.67c-2.53,20-8.78,39.36-18.42,57.06
		c-7.13,13.07-16.04,33.34-18.11,55.85C-174.86,4167.13-177.09,4169.16-179.75,4169.15L-179.75,4169.15z"/>
	<path class="st7" d="M-523.61,5048.02c4.8,64.69-11.15,163.52-117.71,179.65c-47.19,7.21-76.7,49.25-73.1,97.29l268.7,0.17
		l103.47-135.9l-0.69,134.18h71.38l0.34-175.44L-523.61,5048.02z"/>
	<path class="st4" d="M-445.71,5330.28l-268.7-0.17c-2.69,0-4.93-2.08-5.13-4.76c-3.92-52.1,28.66-95.31,77.45-102.77
		c112.72-17.06,116.82-127.49,113.35-174.18c-0.21-2.83,1.92-5.3,4.75-5.52c0.78-0.06,1.56,0.06,2.28,0.35l252.4,99.95
		c1.97,0.78,3.27,2.68,3.26,4.8l-0.34,175.44c-0.01,2.84-2.31,5.14-5.15,5.14h-71.38c-2.84,0-5.15-2.3-5.15-5.15
		c0-0.01,0-0.02,0-0.03l0.61-118.79l-94.16,123.65C-442.59,5329.53-444.1,5330.28-445.71,5330.28L-445.71,5330.28z M-709.53,5319.82
		l261.27,0.17l101.92-133.87c1.72-2.26,4.95-2.7,7.21-0.98c1.29,0.98,2.04,2.51,2.03,4.12l-0.66,129.01h61.07l0.33-166.8
		L-518,5055.78c1.11,25.32-0.64,66.2-18.07,102.51c-20.15,41.97-55.3,67.03-104.48,74.47
		C-682.38,5239.15-710.78,5275.39-709.53,5319.82L-709.53,5319.82z"/>
	<path class="st6" d="M-200.17,4212.05l-334.59,829.62l272.14,109.82l242.6-601.68l87.87,153.33v393.28h293.58v-433.6
		c0-3.61-0.24-7.22-0.71-10.8l-49.2-115.56l-184.48-324.4H-200.17z"/>
	<path class="st4" d="M-262.63,5156.64c-0.66,0-1.31-0.13-1.93-0.37l-272.14-109.82c-2.63-1.06-3.91-4.06-2.85-6.69l334.59-829.62
		c0.79-1.95,2.67-3.22,4.77-3.22h327.22c1.85,0,3.56,0.99,4.47,2.6l184.49,324.4c0.1,0.17,0.19,0.35,0.26,0.53L365.46,4650
		c0.2,0.48,0.33,0.99,0.39,1.51l0.22,2.12c0.37,3.05,0.54,6.11,0.51,9.18v433.6c0,2.84-2.3,5.15-5.15,5.15H67.85
		c-2.84,0-5.15-2.3-5.15-5.15v-391.9l-81.92-142.93l-238.64,591.84C-258.64,5155.36-260.53,5156.64-262.63,5156.64L-262.63,5156.64z
		 M-528.07,5038.83l262.59,105.96l240.68-596.91c1.06-2.64,4.06-3.91,6.7-2.85c1.07,0.43,1.97,1.21,2.54,2.21l87.87,153.32
		c0.45,0.78,0.68,1.66,0.69,2.56v388.13h283.29v-428.45c0.02-2.71-0.13-5.43-0.46-8.12l-0.14-1.37l-48.78-114.58L124.05,4217.2
		h-320.74L-528.07,5038.83z"/>
	<path class="st1" d="M378.42,4581.82c-4.98,22.31-22.13,87.68-27.45,102.61c-5.49,15.61-34.83,19.39-28.65-22.13
		c13.73-93.17-17.33-89.74-9.78-133.84"/>
	<path class="st4" d="M336.06,4700.51c-1.45,0-2.89-0.17-4.29-0.51c-4.58-1.14-19.18-7.27-14.54-38.45
		c7.87-53.42,0.72-74.21-5.02-90.91c-4.34-12.62-8.09-23.51-4.74-43.04c0.47-2.8,3.12-4.7,5.93-4.23c2.8,0.47,4.7,3.12,4.23,5.93
		c0,0.01,0,0.02-0.01,0.04c-2.9,16.93,0.29,26.21,4.33,37.96c6.11,17.76,13.7,39.86,5.47,95.76c-2.67,17.96,1.78,25.7,6.83,26.95
		c4.56,1.14,10.11-2.27,11.87-7.28c5.32-14.95,22.4-80.1,27.28-102.02c0.69-2.76,3.49-4.43,6.25-3.73c2.65,0.67,4.32,3.29,3.8,5.97
		c-4.93,22.12-22.22,88.02-27.63,103.21C352.84,4694.57,344.98,4700.28,336.06,4700.51L336.06,4700.51z"/>
	<path class="st20" d="M135.27,4231.85l4.47-2.54l46.16,81.16l-4.47,2.54L135.27,4231.85z"/>
	<path class="st2" d="M-179.58,4164.01H114l13.04,48.04h-327.22L-179.58,4164.01z"/>
	<g>
		<path class="st4" d="M127.04,4217.2h-327.22c-2.84,0-5.15-2.3-5.15-5.15c0-0.7,0.14-1.39,0.42-2.03l20.59-48.04
			c0.81-1.89,2.67-3.12,4.73-3.12H114c2.32,0,4.36,1.56,4.97,3.8l13.04,48.04c0.75,2.74-0.87,5.57-3.62,6.32
			C127.95,4217.14,127.5,4217.2,127.04,4217.2L127.04,4217.2z M-192.37,4206.9h312.68l-10.25-37.75h-286.25L-192.37,4206.9z
			 M-34.08,4117.16c-2.84,0-5.15-2.3-5.15-5.15V3969.6c0-2.84,2.3-5.15,5.15-5.15s5.15,2.3,5.15,5.15v142.42
			C-28.93,4114.86-31.23,4117.16-34.08,4117.16z M-73.93,3989.36l14.56-14.56l14.56,14.56l-14.56,14.56L-73.93,3989.36z
			 M-73.93,4037.58l14.56-14.56l14.56,14.56l-14.56,14.56L-73.93,4037.58z M-73.92,4085.8l14.56-14.56l14.56,14.56l-14.56,14.56
			L-73.92,4085.8z M-23.58,3989.38l14.56-14.56l14.56,14.56l-14.56,14.56L-23.58,3989.38z M-23.57,4037.6l14.56-14.56l14.56,14.56
			l-14.56,14.56L-23.57,4037.6z M-23.56,4085.81L-9,4071.25l14.56,14.56L-9,4100.37L-23.56,4085.81z M-464.1,5214.95
			c-32.5,0-91.8-22.94-94.62-24.04c-2.65-1.03-3.96-4.02-2.93-6.67c0.18-0.46,0.43-0.9,0.74-1.29c5.25-6.75,52.12-66.12,79.07-73.44
			c28.74-7.7,58.33,9.1,66.45,37.72c7.99,28.69-8.79,58.44-37.48,66.43c-0.08,0.02-0.16,0.04-0.24,0.07h-0.03
			C-456.72,5214.61-460.4,5215.02-464.1,5214.95z M-548.42,5183.8c24.53,9.02,74.35,24.93,92.58,20.01
			c23.25-6.35,36.95-30.34,30.6-53.59c-0.02-0.07-0.04-0.15-0.06-0.22c-6.59-23.18-30.56-36.78-53.84-30.54
			C-497.33,5124.39-531.97,5163.51-548.42,5183.8z"/>
		<path class="st4" d="M-556.84,5191.26c-0.35,0-0.69-0.03-1.03-0.1c-8.38-1.72-82.43-17.31-100.97-38.09
			c-19.89-22.27-17.97-56.45,4.3-76.35c22.27-19.89,56.45-17.97,76.34,4.3l0,0c18.53,20.78,25.73,96.12,26.48,104.64
			c0.25,2.83-1.84,5.33-4.67,5.58C-556.53,5191.26-556.69,5191.27-556.84,5191.26L-556.84,5191.26z M-618.48,5073.3
			c-24.19,0.04-43.78,19.68-43.74,43.87c0.02,10.7,3.95,21.03,11.06,29.03c12.53,14.04,63,27.68,88.49,33.39
			c-2.82-25.98-10.7-77.69-23.22-91.73c-7.7-8.68-18.55-13.9-30.14-14.51C-616.84,5073.32-617.66,5073.3-618.48,5073.3z
			 M390.01,5211.4c-21.3,0-39.33-1.43-40.9-1.56c-2.83-0.23-4.94-2.72-4.71-5.55c0.04-0.5,0.15-0.99,0.34-1.45
			c1.24-3.18,30.68-77.98,54.63-93.06c25.04-16.26,58.51-9.14,74.77,15.89c16.26,25.04,9.14,58.51-15.89,74.77
			c-0.48,0.31-0.97,0.62-1.47,0.92h-0.01C443.8,5209.48,414.7,5211.4,390.01,5211.4z M356.94,5200.08
			c26.07,1.63,78.31,2.6,94.35-7.44c20.69-12.49,27.34-39.38,14.85-60.07c-12.49-20.69-39.38-27.34-60.07-14.85
			c-0.41,0.25-0.82,0.51-1.23,0.77C388.92,5128.52,366.91,5175.93,356.94,5200.08L356.94,5200.08z"/>
		<path class="st4" d="M258.74,5229.93c-4.7,0.12-9.39-0.45-13.93-1.7c-28.5-8.96-44.35-39.32-35.39-67.83s39.32-44.35,67.83-35.39
			c0.09,0.03,0.17,0.05,0.26,0.08c26.57,8.38,71.21,69.65,76.2,76.61c1.66,2.31,1.13,5.52-1.17,7.18c-0.41,0.29-0.85,0.52-1.32,0.69
			C348.44,5210.53,291.81,5229.93,258.74,5229.93L258.74,5229.93z M261.32,5132.89c-24.18-0.1-43.86,19.42-43.97,43.6
			c-0.08,19.15,12.3,36.14,30.56,41.92c18.06,5.64,68.45-8.3,93.3-16.35c-15.68-20.95-48.85-61.49-66.79-67.15
			C270.17,5133.58,265.75,5132.89,261.32,5132.89L261.32,5132.89z M-392.52,5028.63c-20.47,0.1-40.33-7-56.11-20.04
			c-8.45-6.86-20.55-6.86-29,0c-14,11.53-31.22,18.44-49.31,19.78c-2.83,0.21-5.31-1.91-5.52-4.75s1.91-5.31,4.75-5.52
			c15.98-1.18,31.2-7.29,43.56-17.48c12.25-9.95,29.79-9.95,42.04,0c33.4,27.4,82.69,22.54,110.09-10.86
			c11.73-14.3,18.02-32.3,17.74-50.79c-0.64-42.14-35.31-76.81-77.27-77.29c-18.33-0.19-36.16,6.02-50.4,17.56
			c-8.18,6.61-18.95,9.08-29.19,6.69c-2.76-0.67-4.46-3.45-3.79-6.21s3.45-4.46,6.21-3.79l0,0c7.13,1.64,14.61-0.09,20.3-4.69
			c16.14-12.98,36.26-19.99,56.97-19.84c47.51,0.55,86.74,39.77,87.47,87.43c0.75,48.85-38.24,89.06-87.09,89.81
			c-0.48,0.01-0.96,0.01-1.44,0.01L-392.52,5028.63z M-131.71,4432.37c-20.47,0.1-40.33-7-56.11-20.04c-8.45-6.86-20.55-6.86-29,0
			c-15.78,13.04-35.64,20.14-56.11,20.04c-4.87,0.09-9.73-0.3-14.52-1.18c-2.79-0.57-4.58-3.28-4.02-6.07
			c0.55-2.71,3.15-4.5,5.88-4.05c4.17,0.77,8.41,1.11,12.65,1.01c18.09,0.09,35.64-6.18,49.59-17.7c12.25-9.95,29.79-9.95,42.04,0
			c33.4,27.4,82.69,22.54,110.09-10.86c11.73-14.3,18.02-32.3,17.74-50.79c-0.64-42.13-35.31-76.81-77.27-77.29h-0.66
			c-18.1-0.01-35.66,6.18-49.74,17.56c-12.27,10.05-29.9,10.1-42.23,0.13c-1.65-1.36-3.36-2.64-5.12-3.86
			c-2.36-1.59-2.98-4.79-1.4-7.14s4.79-2.98,7.14-1.4c0.04,0.03,0.08,0.05,0.11,0.08c1.99,1.37,3.95,2.85,5.82,4.39
			c8.55,6.86,20.75,6.78,29.2-0.2c16.12-13.01,36.25-20.02,56.97-19.84c47.51,0.55,86.74,39.77,87.47,87.43
			c0.75,48.85-38.24,89.06-87.09,89.81C-130.75,4432.37-131.23,4432.38-131.71,4432.37L-131.71,4432.37z M-97.73,4746.37
			c-20.8,0-39.66-7.24-56.06-21.51c-8.47-7.27-20.98-7.27-29.45,0c-36.98,31.94-92.86,27.85-124.8-9.13
			c-14.18-16.42-21.84-37.48-21.51-59.18c0.54-47.2,39.45-86.36,86.72-87.26c21.85-0.47,43.08,7.2,59.59,21.52
			c8.55,7.16,21.03,7.07,29.48-0.21c32.56-28.09,80.6-28.69,113.85-1.43c1.13,0.94,2.34,1.77,3.63,2.47
			c2.5,1.35,3.43,4.48,2.08,6.98c-1.35,2.5-4.48,3.43-6.98,2.08c-1.88-1.02-3.66-2.22-5.3-3.59c-29.39-24.06-71.81-23.51-100.57,1.3
			c-12.34,10.58-30.53,10.65-42.96,0.17c-14.57-12.67-33.35-19.44-52.65-18.99c-42.05,1.08-75.8,35.06-76.61,77.11
			c-0.66,43.18,33.82,78.72,77,79.37c19.16,0.29,37.75-6.46,52.26-18.97c12.35-10.62,30.61-10.62,42.96,0
			c14.68,12.78,30.8,18.99,49.31,18.99c2.84,0,5.15,2.3,5.15,5.15C-92.59,4744.07-94.89,4746.37-97.73,4746.37L-97.73,4746.37z
			 M276.84,4498.09c-21.22,0.04-41.75-7.6-57.78-21.51c-8.47-7.28-20.98-7.28-29.45,0c-36.98,31.94-92.86,27.85-124.8-9.13
			c-14.18-16.42-21.84-37.48-21.51-59.18c0.54-47.2,39.45-86.36,86.72-87.26c21.85-0.47,43.09,7.2,59.59,21.52
			c4.68,4,10.81,5.88,16.93,5.2c2.82-0.34,5.39,1.67,5.72,4.5c0.34,2.82-1.67,5.39-4.5,5.73c-0.04,0-0.08,0.01-0.12,0.01
			c-8.97,0.98-17.95-1.79-24.79-7.67c-14.58-12.65-33.35-19.42-52.65-18.99c-42.04,1.09-75.79,35.06-76.6,77.11
			c-0.65,43.18,33.82,78.71,77,79.37c19.15,0.29,37.74-6.46,52.25-18.97c12.35-10.61,30.6-10.61,42.96,0
			c14.16,12.28,32.28,19.02,51.02,18.99c3.02,0,6.04-0.17,9.04-0.51c2.83-0.29,5.36,1.76,5.65,4.59c0.29,2.79-1.7,5.29-4.48,5.64
			C283.65,4497.89,280.25,4498.09,276.84,4498.09L276.84,4498.09z M338.1,5032.58c-20.47,0.1-40.33-7-56.11-20.04
			c-8.45-6.86-20.55-6.86-29,0c-33.27,27.26-81.33,26.64-113.88-1.48c-8.47-7.28-20.98-7.28-29.45,0
			c-11.39,9.92-22.27,17.13-38.26,20.05c-2.78,0.59-5.51-1.19-6.1-3.98c-0.59-2.78,1.19-5.51,3.98-6.1
			c0.09-0.02,0.18-0.04,0.27-0.05c13.74-2.51,22.95-8.64,33.36-17.7c12.35-10.61,30.6-10.61,42.96,0
			c28.76,24.83,71.21,25.37,100.6,1.28c12.25-9.95,29.79-9.95,42.04,0c13.95,11.53,31.49,17.8,49.59,17.71
			c7.41,0.01,14.79-1.04,21.91-3.1c2.72-0.82,5.59,0.72,6.41,3.45s-0.72,5.59-3.45,6.41c-0.03,0.01-0.07,0.02-0.1,0.03
			C354.82,5031.41,346.48,5032.59,338.1,5032.58z M124.13,4892.6c-7.78,0.04-15.32-2.74-21.22-7.81
			c-10.25-8.92-22.69-14.97-36.03-17.54c-2.8-0.51-4.66-3.18-4.15-5.98c0.5-2.8,3.18-4.66,5.98-4.15c0.04,0.01,0.09,0.02,0.13,0.03
			c15.13,2.91,29.22,9.77,40.84,19.88c8.55,7.16,21.03,7.07,29.48-0.21c32.56-28.09,80.6-28.69,113.85-1.43
			c8.55,6.86,20.75,6.78,29.2-0.21c15.92-12.85,35.76-19.86,56.22-19.84h0.76c8.03,0.09,16.01,1.28,23.72,3.54
			c2.74,0.76,4.35,3.59,3.59,6.33c-0.76,2.74-3.59,4.35-6.33,3.59c-0.05-0.01-0.11-0.03-0.16-0.05c-6.8-1.99-13.84-3.04-20.92-3.12
			c-18.33-0.18-36.15,6.03-50.41,17.56c-12.26,10.05-29.9,10.11-42.23,0.13c-29.39-24.06-71.81-23.51-100.57,1.3
			C139.8,4889.78,132.09,4892.6,124.13,4892.6L124.13,4892.6z"/>
	</g>
	<path class="st1" d="M-50.98,3770.08c9.27-18.14,31.5-25.33,49.64-16.05s25.33,31.5,16.05,49.64c-3.95,7.72-10.48,13.8-18.47,17.18
		l-0.64,0.25c-0.68,6.49-1.9,12.91-3.66,19.2l17.61,73.61c5.72,23.92-9.03,47.94-32.94,53.66c-23.91,5.72-47.94-9.03-53.66-32.94
		l0,0l-8.74-36.51c-47.55,1.91-87.64-35.1-89.54-82.64c-0.2-5.03,0.04-10.07,0.72-15.06c1.41-10.31,4.7-20.28,9.69-29.42
		c-0.86-3.76-1.46-7.58-1.8-11.42c-0.51-6.41-0.34-12.85,0.51-19.22c0.5-3.65,1.24-7.26,2.23-10.81l26.24-20.53
		c15.44,18.87,24.34,27.8,53.19,44.61C-71.64,3761.14-61.09,3767.33-50.98,3770.08z"/>
	<path class="st4" d="M-33.74,3973.95c-22.97-0.03-42.93-15.79-48.31-38.12l-7.78-32.5c-50.42-0.32-91.04-41.46-90.72-91.88
		c0.02-3.93,0.3-7.86,0.83-11.75c1.41-10.29,4.57-20.25,9.36-29.47c-0.69-3.37-1.19-6.79-1.5-10.22c-0.55-6.78-0.37-13.6,0.54-20.34
		c0.53-3.9,1.33-7.76,2.39-11.55c0.3-1.05,0.92-1.97,1.78-2.64l26.24-20.54c2.2-1.73,5.38-1.37,7.16,0.79
		c15.01,18.36,23.37,26.85,51.8,43.43l0.46,0.27c10.92,6.37,19.85,11.57,28.12,14.5c12.67-19.46,38.71-24.96,58.17-12.29
		s24.96,38.71,12.29,58.17c-4.15,6.37-9.94,11.49-16.76,14.83c-0.64,5.34-1.66,10.64-3.03,15.84l17.28,72.22
		c6.38,26.69-10.09,53.5-36.79,59.88C-26,3973.5-29.86,3973.95-33.74,3973.95L-33.74,3973.95z M-85.78,3892.98
		c2.38,0,4.45,1.63,5,3.95l8.74,36.52c5.19,21.12,26.52,34.03,47.64,28.84c20.93-5.15,33.84-26.17,28.95-47.16l-17.62-73.61
		c-0.23-0.95-0.18-1.95,0.14-2.88c1.62-5.92,2.76-11.96,3.4-18.06c0.25-1.89,1.48-3.5,3.23-4.24l0.64-0.25
		c16.12-6.9,23.59-25.56,16.69-41.67c-6.9-16.12-25.56-23.59-41.67-16.69c-6.82,2.92-12.39,8.13-15.77,14.73
		c-1.11,2.17-3.59,3.26-5.94,2.62c-10.64-2.9-21.62-9.3-34.34-16.71l-0.46-0.27c-27.66-16.13-37.63-25.44-51.38-41.91l-20.93,16.39
		c-0.71,2.81-1.26,5.67-1.66,8.54c-0.81,5.99-0.97,12.05-0.48,18.07c0.32,3.6,0.89,7.18,1.69,10.7c0.28,1.22,0.1,2.5-0.5,3.6
		c-21.33,39.3-6.76,88.45,32.54,109.77c12.82,6.96,27.29,10.32,41.87,9.74L-85.78,3892.98z"/>
	<path class="st4" d="M-85.38,3903.37c-2.84,0.08-5.21-2.17-5.29-5.01s2.17-5.21,5.01-5.29l0,0c14.37-0.72,28.29-5.23,40.35-13.06
		c2.38-1.56,5.57-0.91,7.13,1.47s0.91,5.57-1.47,7.13c-13.58,8.83-29.26,13.92-45.44,14.74
		C-85.19,3903.36-85.29,3903.37-85.38,3903.37z M-28.98,3800.59c-2.84,0-5.15-2.31-5.14-5.15c0-1.19,0.41-2.34,1.16-3.26l18.93-23.1
		c1.8-2.2,5.05-2.52,7.25-0.72c2.2,1.8,2.52,5.05,0.72,7.25l0,0l-10.92,13.32l13.19-1.47c2.82-0.35,5.39,1.66,5.73,4.48
		c0.35,2.82-1.66,5.39-4.48,5.73c-0.04,0-0.08,0.01-0.11,0.01l-25.75,2.86C-28.6,3800.58-28.79,3800.59-28.98,3800.59z
		 M-147.67,3825.81c-1.03,0-2.04-0.31-2.9-0.9l-17.85-12.18c-2.3-1.57-2.93-4.68-1.44-7.02l20.59-32.26c1.53-2.4,4.71-3.1,7.11-1.57
		c2.4,1.53,3.1,4.71,1.57,7.11l0,0l-17.91,28.05l13.73,9.37c2.35,1.6,2.95,4.81,1.35,7.15
		C-144.37,3824.97-145.96,3825.81-147.67,3825.81L-147.67,3825.81z"/>
	
		<ellipse transform="matrix(1.976328e-03 -1 1 1.976328e-03 -3903.3611 3661.3044)" class="st4" cx="-117.41" cy="3786.19" rx="3.39" ry="3.39"/>
	
		<ellipse transform="matrix(1.976295e-03 -1 1 1.976295e-03 -3948.178 3611.8083)" class="st4" cx="-164.61" cy="3783.9" rx="3.39" ry="3.39"/>
	<path class="st4" d="M-135.03,3851.83c-5.96,0-11.71-2.24-16.11-6.26l-2.61-2.44c-2.08-1.94-2.19-5.2-0.25-7.28
		c1.94-2.08,5.2-2.19,7.28-0.25l2.57,2.4c2.82,2.57,6.59,3.83,10.39,3.47c3.68-0.32,7.05-2.21,9.25-5.19l0.53-0.7
		c1.71-2.27,4.94-2.73,7.21-1.02c2.27,1.71,2.72,4.92,1.03,7.19l-0.51,0.69c-3.95,5.28-9.95,8.65-16.52,9.27
		C-133.53,3851.79-134.28,3851.83-135.03,3851.83z"/>
</g>
<g transform="translate(51.0 626.0) rotate(351.253837737445 550.5 87.0) scale(0.6465714681694217 0.6498235392975183)">
	<path class="st4" d="M2428.51,4001.09c-0.27,0-0.53-0.02-0.79-0.06l-2911.53-449.16c-2.81-0.43-4.74-3.06-4.3-5.87
		s3.06-4.74,5.87-4.3l0,0l2911.53,449.16c2.81,0.43,4.74,3.05,4.32,5.86C2433.22,3999.23,2431.06,4001.09,2428.51,4001.09z"/>
</g>
<g transform="translate(39.0 254.0) rotate(0.0 59.0 228.5) scale(0.5560660681887797 0.5578817583651745)">
	<path class="st6" d="M384.67,4002.42c-18.59-22.8-20.76-54.86-5.42-79.96c14.34-23.75,22.16-50.86,22.65-78.6
		c1.51-76.63-52.55-142.08-124.86-157.74l40.97-40.97c9.71-9.71,9.71-25.45,0-35.16c-9.71-9.71-25.45-9.71-35.16,0l-18.83,18.83
		v-26.64c0-13.73-11.13-24.86-24.86-24.86c-13.73,0-24.86,11.13-24.86,24.86v26.65l-18.84-18.84c-9.71-9.71-25.45-9.71-35.16,0
		c-9.71,9.71-9.71,25.45,0,35.16l42.7,42.7c-66.82,17.76-116.47,78.21-117.49,150.74c-0.41,29.4,7.37,58.33,22.48,83.55
		c15.17,25.24,13.73,57.26-5.03,80.03c-27.47,33.37-42.11,75.46-41.28,118.67c1.72,97.8,81.59,177.46,179.41,178.83
		c100.53,1.45,183.21-78.88,184.65-179.42C426.36,4077.36,411.81,4035.63,384.67,4002.42z"/>
	<g>
		<path class="st4" d="M243.71,4982.9c-2.84,0-5.15-2.3-5.15-5.15V3874.23c0-2.84,2.3-5.15,5.15-5.15c2.84,0,5.15,2.3,5.15,5.15
			v1103.53C248.86,4980.6,246.55,4982.9,243.71,4982.9z"/>
		<path class="st4" d="M244.86,4166.6c-2.84,0-5.15-2.3-5.15-5.15c0-1.36,0.53-2.66,1.49-3.62l50.89-51.44
			c2-2.02,5.26-2.04,7.28-0.04c2.02,2,2.04,5.26,0.04,7.28l-50.89,51.44C247.51,4166.09,246.19,4166.6,244.86,4166.6L244.86,4166.6z
			"/>
		<path class="st4" d="M242.56,4166.6c-1.37,0-2.68-0.54-3.64-1.51l-51.44-51.44c-2.01-2.01-2.01-5.27,0-7.28
			c2.01-2.01,5.27-2.01,7.28,0l51.44,51.44c2.01,2.01,2.01,5.27,0,7.28C245.24,4166.05,243.93,4166.6,242.56,4166.6z
			 M244.86,4095.51c-2.84,0-5.15-2.3-5.15-5.15c0-1.36,0.54-2.66,1.49-3.62l50.89-51.42c2-2.02,5.26-2.04,7.28-0.04
			c2.02,2,2.04,5.26,0.04,7.28l-50.89,51.42C247.51,4095,246.19,4095.51,244.86,4095.51L244.86,4095.51z"/>
		<path class="st4" d="M242.56,4095.51c-1.37,0-2.67-0.54-3.64-1.51l-51.44-51.42c-2.01-2.01-2.01-5.27,0-7.28
			c2.01-2.01,5.27-2.01,7.28,0l51.44,51.42c2.01,2.01,2.01,5.27,0,7.28C245.24,4094.96,243.93,4095.51,242.56,4095.51
			L242.56,4095.51z M244.86,4024.44c-2.84,0-5.15-2.3-5.15-5.15c0-1.36,0.53-2.66,1.49-3.62l50.89-51.44c2-2.02,5.26-2.04,7.28-0.04
			c2.02,2,2.04,5.26,0.04,7.28l0,0l-50.89,51.44C247.51,4023.93,246.19,4024.44,244.86,4024.44L244.86,4024.44z"/>
		<path class="st4" d="M242.56,4024.44c-1.37,0-2.68-0.54-3.64-1.51l-51.44-51.44c-2.01-2.01-2.01-5.27,0-7.28
			c2.01-2.01,5.27-2.01,7.28,0l51.44,51.44c2.01,2.01,2.01,5.27,0,7.28C245.24,4023.89,243.93,4024.44,242.56,4024.44z
			 M244.86,3953.35c-2.84,0-5.15-2.3-5.15-5.15c0-1.36,0.53-2.66,1.49-3.62l50.89-51.44c2-2.02,5.26-2.04,7.28-0.04
			c2.02,2,2.04,5.26,0.04,7.28l-50.89,51.44C247.51,3952.84,246.19,3953.35,244.86,3953.35z"/>
		<path class="st4" d="M242.56,3953.35c-1.37,0-2.68-0.54-3.64-1.51l-51.44-51.44c-2.01-2.01-2.01-5.27,0-7.28
			c2.01-2.01,5.27-2.01,7.28,0l51.44,51.44c2.01,2.01,2.01,5.27,0,7.28C245.24,3952.81,243.93,3953.35,242.56,3953.35z"/>
	</g>
</g>
<g transform="translate(24.0 539.0) rotate(0.0 41.0 86.5) scale(0.5401844532279314 0.5386723128658613)">
	<ellipse class="st8" cx="173.81" cy="4213.87" rx="70.35" ry="70.15"/>
	<path class="st4" d="M173.81,4634.71c-2.84,0-5.15-2.3-5.15-5.15v-415.69c0-2.84,2.3-5.15,5.15-5.15s5.15,2.3,5.15,5.15v415.69
		C178.96,4632.4,176.65,4634.71,173.81,4634.71z"/>
</g>
<g transform="translate(108.0 498.0) rotate(5.743045216110298 32.5 125.0) translate(0.0 0.0) scale(0.5204163330664532 0.5205080158234436)">
	
		<ellipse transform="matrix(0.1001 -0.995 0.995 0.1001 -3534.6824 4457.5771)" class="st3" cx="696.89" cy="4182.83" rx="26.17" ry="26.16"/>
	<path class="st4" d="M696.89,4238.25c-30.61,0-55.42-24.81-55.42-55.42c0-30.61,24.81-55.42,55.42-55.42
		c30.61,0,55.42,24.81,55.42,55.42C752.28,4213.42,727.49,4238.22,696.89,4238.25z M696.89,4137.7c-24.92,0-45.13,20.2-45.13,45.13
		s20.2,45.13,45.13,45.13c24.92,0,45.13-20.2,45.13-45.13C741.99,4157.92,721.81,4137.73,696.89,4137.7z"/>
	
		<ellipse transform="matrix(0.1 -0.995 0.995 0.1 -3593.4883 4607.4111)" class="st3" cx="750.09" cy="4290.07" rx="26.17" ry="26.16"/>
	<path class="st4" d="M750.09,4345.49c-30.61,0-55.42-24.81-55.42-55.42s24.81-55.42,55.42-55.42s55.42,24.81,55.42,55.42
		C805.47,4320.67,780.68,4345.46,750.09,4345.49z M750.09,4244.94c-24.92,0-45.13,20.2-45.13,45.13s20.2,45.13,45.13,45.13
		c24.92,0,45.13-20.2,45.13-45.13C795.19,4265.16,775,4244.97,750.09,4244.94z"/>
	
		<ellipse transform="matrix(0.1001 -0.995 0.995 0.1001 -3686.5808 4509.6064)" class="st3" cx="649.71" cy="4292.82" rx="26.17" ry="26.16"/>
	<path class="st4" d="M649.71,4348.24c-30.61,0-55.42-24.81-55.42-55.42c0-30.61,24.81-55.42,55.42-55.42s55.42,24.81,55.42,55.42
		C705.1,4323.41,680.3,4348.2,649.71,4348.24z M649.71,4247.69c-24.92,0-45.13,20.2-45.13,45.13c0,24.92,20.2,45.13,45.13,45.13
		s45.13-20.2,45.13-45.13l0,0C694.81,4267.91,674.62,4247.72,649.71,4247.69z"/>
	
		<ellipse transform="matrix(0.1002 -0.995 0.995 0.1002 -3701.9087 4710.1948)" class="st3" cx="753.18" cy="4401.77" rx="26.17" ry="26.16"/>
	<path class="st4" d="M753.18,4457.2c-30.61,0-55.42-24.81-55.42-55.42s24.81-55.42,55.42-55.42s55.42,24.81,55.42,55.42
		C808.56,4432.37,783.77,4457.16,753.18,4457.2z M753.18,4356.65c-24.92,0-45.13,20.2-45.13,45.13c0,24.92,20.2,45.13,45.13,45.13
		s45.13-20.2,45.13-45.13C798.27,4376.86,778.09,4356.68,753.18,4356.65z"/>
	
		<ellipse transform="matrix(0.1001 -0.995 0.995 0.1001 -3794.9258 4612.8794)" class="st3" cx="652.63" cy="4404.35" rx="26.17" ry="26.16"/>
	<g>
		<path class="st4" d="M652.63,4459.77c-30.61,0-55.42-24.81-55.42-55.42c0-30.61,24.81-55.42,55.42-55.42s55.42,24.81,55.42,55.42
			C708.01,4434.94,683.22,4459.74,652.63,4459.77z M652.63,4359.22c-24.92,0-45.13,20.2-45.13,45.13c0,24.92,20.2,45.13,45.13,45.13
			c24.92,0,45.13-20.2,45.13-45.13C697.72,4379.44,677.54,4359.25,652.63,4359.22z"/>
		<path class="st4" d="M717.66,4951.54c-2.79,0-5.07-2.22-5.15-5.01l-20.07-739.91c-0.08-2.84,2.16-5.21,5.01-5.29
			c2.84-0.08,5.21,2.16,5.29,5.01l0,0l20.07,739.91c0.08,2.84-2.16,5.21-5.01,5.28c0,0,0,0,0,0L717.66,4951.54z"/>
	</g>
</g>
<g transform="translate(1131.0 637.0) rotate(11.73012904931498 12.0 45.0) translate(0.0 0.0) scale(0.5429864253393665 0.5421686746987951)">
	<path class="st4" d="M2370.96,4073.65c-2.84,0-5.15-2.3-5.15-5.15v-241.77c0-2.84,2.3-5.15,5.15-5.15c2.84,0,5.15,2.3,5.15,5.15
		v241.77C2376.1,4071.35,2373.8,4073.65,2370.96,4073.65z"/>
	<path class="st4" d="M2370.96,3864.66c-20.94,0-37.92-16.98-37.92-37.92s16.98-37.92,37.92-37.92c20.94,0,37.92,16.98,37.92,37.92
		C2408.85,3847.67,2391.89,3864.64,2370.96,3864.66z M2370.96,3799.11c-15.26,0-27.63,12.37-27.63,27.63s12.37,27.63,27.63,27.63
		s27.63-12.37,27.63-27.63l0,0C2398.57,3811.49,2386.21,3799.13,2370.96,3799.11z"/>
</g>
<g transform="translate(1066.0 471.0) rotate(0.0 46.0 121.0) scale(0.606060606060606 0.6070031102638708)">
	<path class="st8" d="M1485.53,3772.02c27.3-23.87,44.56-58.93,44.56-98.04c0-71.93-58.31-130.23-130.23-130.23
		s-130.23,58.31-130.23,130.23c0,39.11,17.27,74.17,44.56,98.04c-27.3,23.87-44.56,58.93-44.56,98.04
		c0,71.93,58.31,130.23,130.23,130.23s130.23-58.31,130.23-130.23C1530.1,3830.95,1512.83,3795.9,1485.53,3772.02z"/>
	<path class="st4" d="M1399.86,4227.83c-2.84,0-5.15-2.3-5.15-5.15v-352.61c0-2.84,2.3-5.15,5.15-5.15s5.15,2.3,5.15,5.15v352.61
		C1405.01,4225.52,1402.71,4227.83,1399.86,4227.83z"/>
</g>
<g transform="translate(342.0 675.0) rotate(0.0 19.5 18.0) scale(0.4822972187527052 0.4809619238476954)">
	<path class="st1" d="M567.75,4899.34l-39.62-70.78c-4.61-8.28-1.63-18.73,6.65-23.34c1.03-0.57,2.11-1.04,3.24-1.39
		c7.6-2.32,15.8,0.87,19.82,7.72l18.34,31.3l-0.43-46.12c-0.05-8.53,6.83-15.48,15.36-15.53c0,0,0,0,0,0h0.09
		c8.27-0.01,15.08,6.51,15.44,14.77l1.92,49.76l15.6-23.9c4.45-6.75,13.36-8.93,20.42-4.99l2.04,1.15
		c7.36,4.19,9.97,13.53,5.85,20.93l-34.25,60.42"/>
	<path class="st4" d="M567.75,4904.49c-1.87,0-3.59-1.01-4.5-2.63l-39.62-70.78c-2.9-5.17-3.61-11.28-1.97-16.97
		c1.61-5.7,5.42-10.52,10.6-13.38c1.34-0.74,2.75-1.35,4.21-1.8c9.95-3.04,20.54,1.09,25.79,10.03l8.58,14.63l-0.25-26.81
		c-0.06-11.37,9.12-20.66,20.48-20.72h0.02c11.17,0,20.2,8.65,20.68,19.7l1.3,33.64l6.77-10.37c5.91-8.97,17.87-11.9,27.24-6.67
		l2.06,1.16c9.8,5.58,13.29,18.1,7.82,27.92l-34.27,60.45c-1.37,2.49-4.5,3.4-6.99,2.03s-3.4-4.5-2.03-6.99
		c0.02-0.04,0.04-0.08,0.07-0.12l34.25-60.42c2.72-4.88,0.97-11.14-3.92-13.92l-2.02-1.14c-4.67-2.6-10.65-1.14-13.59,3.34
		l-15.59,23.88c-1.55,2.38-4.74,3.05-7.12,1.5c-1.4-0.91-2.27-2.44-2.33-4.11l-1.92-49.76c-0.24-5.5-4.78-9.84-10.29-9.82h-0.01
		c-5.74,0.03-10.33,4.68-10.3,10.35l0.43,46.1c0.02,2.33-1.53,4.39-3.78,5.01c-2.25,0.62-4.63-0.35-5.81-2.36l-18.34-31.3
		c-2.8-4.81-8.55-7.05-13.87-5.4c-0.78,0.24-1.53,0.57-2.24,0.96c-2.8,1.56-4.83,4.12-5.71,7.21c-0.88,3.09-0.5,6.33,1.06,9.13
		l39.61,70.77c1.39,2.48,0.5,5.62-1.98,7.01C569.49,4904.26,568.63,4904.49,567.75,4904.49z"/>
</g>
<g transform="translate(1026.0 590.0) rotate(351.98606628736496 24.0 105.0) translate(0.0 0.0) scale(0.5042016806722689 0.5098324836125273)">
	<path class="st4" d="M897.2,4712.6c-45.11,0-81.68-36.57-81.68-81.68s36.57-81.68,81.68-81.68s81.68,36.57,81.68,81.68
		C978.83,4676.01,942.29,4712.55,897.2,4712.6z M897.2,4559.54c-39.42,0-71.38,31.96-71.38,71.38c0,39.42,31.96,71.38,71.38,71.38
		c39.42,0,71.38-31.96,71.38-71.38C968.54,4591.52,936.61,4559.59,897.2,4559.54z"/>
	<path class="st4" d="M897.2,4712.6c-45.11,0-81.68-36.57-81.68-81.68s36.57-81.68,81.68-81.68s81.68,36.57,81.68,81.68
		C978.83,4676.01,942.29,4712.55,897.2,4712.6z M897.2,4559.54c-39.42,0-71.38,31.96-71.38,71.38c0,39.42,31.96,71.38,71.38,71.38
		c39.42,0,71.38-31.96,71.38-71.38C968.54,4591.52,936.61,4559.59,897.2,4559.54z"/>
	
		<ellipse transform="matrix(0.9902 -0.1394 0.1394 0.9902 -636.8526 170.3071)" class="st3" cx="897.2" cy="4630.92" rx="38.59" ry="39.02"/>
	<g>
		<path class="st4" d="M897.2,4712.6c-45.11,0-81.68-36.57-81.68-81.68s36.57-81.68,81.68-81.68s81.68,36.57,81.68,81.68
			C978.83,4676.01,942.29,4712.55,897.2,4712.6z M897.2,4559.54c-39.42,0-71.38,31.96-71.38,71.38c0,39.42,31.96,71.38,71.38,71.38
			c39.42,0,71.38-31.96,71.38-71.38C968.54,4591.52,936.61,4559.59,897.2,4559.54z"/>
		<path class="st4" d="M897.2,5256.01c-2.84,0-5.15-2.3-5.15-5.15l0-543.42c0-2.84,2.3-5.15,5.15-5.15c2.84,0,5.15,2.3,5.15,5.15
			l0,543.42C902.35,5253.71,900.05,5256.01,897.2,5256.01L897.2,5256.01z M897.2,4648.08c-31.8-0.06-60.67-18.55-74.02-47.4
			c-1.23-2.56-0.15-5.64,2.42-6.87c2.56-1.23,5.64-0.15,6.87,2.42c0.02,0.05,0.04,0.09,0.07,0.14
			c11.67,25.21,36.9,41.37,64.67,41.42c27.75-0.06,52.98-16.13,64.75-41.27c1.21-2.57,4.27-3.68,6.85-2.47
			c2.56,1.2,3.67,4.25,2.49,6.82C957.82,4629.62,928.96,4648.02,897.2,4648.08z"/>
		<path class="st4" d="M929.29,4640.88c-0.75,0-1.49-0.16-2.16-0.48c-28.85-13.43-47.33-42.34-47.42-74.16
			c0-3.92,0.28-7.83,0.84-11.71c0.36-2.82,2.93-4.82,5.75-4.46c2.82,0.35,4.82,2.93,4.46,5.75c-0.01,0.06-0.02,0.13-0.03,0.19
			c-0.49,3.39-0.74,6.81-0.74,10.24c0.08,27.82,16.24,53.08,41.46,64.82c2.58,1.2,3.7,4.26,2.5,6.84
			C933.11,4639.71,931.29,4640.88,929.29,4640.88z"/>
	</g>
</g>
<g transform="translate(1064.0 644.0) rotate(0.0 15.0 63.0) translate(0.0 0.0) scale(0.5057316250842886 0.5015923566878981)">
	<path class="st4" d="M1615.3,4966.4c-2.58,0-4.76-1.91-5.1-4.47l-50.55-379.79c-0.38-2.82,1.61-5.41,4.42-5.78
		c2.82-0.38,5.41,1.61,5.78,4.42l50.55,379.79c0.38,2.82-1.6,5.41-4.42,5.78C1615.76,4966.39,1615.53,4966.4,1615.3,4966.4z"/>
	<ellipse class="st2" cx="1564.76" cy="4581.46" rx="23.31" ry="23.12"/>
</g>
<g transform="translate(583.0 662.0) rotate(7.6400498863068265 20.5 25.5) scale(0.5012224938875306 0.49562682215743437)">
	
		<ellipse transform="matrix(0.1329 -0.9911 0.9911 0.1329 -3098.8337 5436.0449)" class="st1" cx="1557.54" cy="4489.15" rx="13.35" ry="13.5"/>
	<path class="st4" d="M1557.54,4521.24c-17.72,0-32.09-14.37-32.09-32.09c0-17.72,14.37-32.09,32.09-32.09
		c17.72,0,32.09,14.37,32.09,32.09C1589.6,4506.86,1575.25,4521.22,1557.54,4521.24z M1557.54,4467.36
		c-12.04,0-21.79,9.76-21.79,21.79c0,12.03,9.76,21.79,21.79,21.79c12.04,0,21.79-9.76,21.79-21.79l0,0
		C1579.31,4477.12,1569.57,4467.37,1557.54,4467.36z"/>
	
		<ellipse transform="matrix(0.1329 -0.9911 0.9911 0.1329 -3201.7737 5382.8813)" class="st1" cx="1475.69" cy="4521.41" rx="10.55" ry="10.66"/>
	<g>
		<path class="st4" d="M1475.69,4547.83c-14.59,0-26.42-11.83-26.42-26.42c0-14.59,11.83-26.42,26.42-26.42s26.42,11.83,26.42,26.42
			C1502.1,4536,1490.28,4547.82,1475.69,4547.83z M1475.69,4505.28c-8.91,0-16.13,7.22-16.13,16.13c0,8.91,7.22,16.13,16.13,16.13
			c8.91,0,16.13-7.22,16.13-16.13l0,0C1491.81,4512.5,1484.59,4505.29,1475.69,4505.28z M1517.73,4633.63
			c-2.84,0-5.15-2.3-5.15-5.15c0-0.48,0.07-0.96,0.2-1.42l39.81-139.33c0.76-2.74,3.59-4.35,6.33-3.59
			c2.74,0.76,4.35,3.59,3.59,6.33c-0.01,0.03-0.02,0.06-0.02,0.09l-39.81,139.33C1522.04,4632.1,1520.03,4633.62,1517.73,4633.63z"
			/>
		<path class="st4" d="M1517.73,4633.63c-2.11,0-4.02-1.29-4.79-3.26l-42.04-107.07c-1.04-2.65,0.26-5.64,2.9-6.68
			c2.65-1.04,5.64,0.26,6.68,2.9l42.04,107.07c1.04,2.65-0.26,5.63-2.9,6.68C1519.02,4633.5,1518.38,4633.63,1517.73,4633.63
			L1517.73,4633.63z"/>
	</g>
</g>
</svg>
