<?xml version="1.0" encoding="utf-8"?>
<!-- Generator: Adobe Illustrator 26.1.0, SVG Export Plug-In . SVG Version: 6.00 Build 0)  -->
<svg version="1.1" id="Layer_1" xmlns="http://www.w3.org/2000/svg" xmlns:xlink="http://www.w3.org/1999/xlink" x="0px" y="0px"
	 viewBox="0 0 2000 3200" style="enable-background:new 0 0 2000 3200;" xml:space="preserve">
<style type="text/css">
	.st0{fill:#15C2C1;stroke:#70D9D9;stroke-width:17.809;stroke-miterlimit:10;}
	.st1{fill:#C35515;}
	.st2{fill:#FFFFFF;}
	.st3{fill:#222433;}
	.st4{fill:#FF7F36;}
	.st5{fill:none;}
	.st6{fill:#222433;stroke:#222433;stroke-width:2.2688;stroke-miterlimit:10;}
	.st7{fill:#222433;stroke:#222433;stroke-width:1.0471;stroke-miterlimit:10;}
	.st8{fill:#FDA979;}
	.st9{fill:#82B1FF;}
	.st10{fill:none;stroke:#70D9D9;stroke-width:17.809;stroke-miterlimit:10;}
	.st11{fill:#15C2C1;stroke:#70D9D9;stroke-width:15.652;stroke-miterlimit:10;}
	.st12{stroke:#222433;stroke-width:0.8333;stroke-miterlimit:10;}
	.st13{fill:#15C2C1;stroke:#70D9D9;stroke-width:16.8291;stroke-miterlimit:10;}
	.st14{fill:#70D9D9;}
	.st15{fill:#007575;}
	.st16{fill:#FF7F36;stroke:#FF7F36;stroke-miterlimit:10;}
	.st17{fill:#15C2C1;}
	.st18{fill:none;stroke:#5A38FD;stroke-width:111.9047;stroke-miterlimit:10;}
	.st19{fill:none;stroke:#FF7F36;stroke-width:111.9047;stroke-miterlimit:10;}
	.st20{fill:none;stroke:#FFFFFF;stroke-width:9.2351;stroke-miterlimit:10;stroke-dasharray:23.0877,36.9403;}
	.st21{fill:none;stroke:#313341;stroke-width:3.8308;stroke-miterlimit:10;}
	.st22{opacity:0.75;fill:#70D9D9;}
	.st23{fill:#5A38FD;}
	.st24{fill:none;stroke:#222433;stroke-width:8.5039;stroke-miterlimit:10;stroke-dasharray:14.1732,14.1732;}
	.st25{fill:#7057FD;}
	.st26{fill:none;stroke:#222433;stroke-width:5.4074;stroke-miterlimit:10;}
	.st27{fill:#222433;stroke:#222433;stroke-width:5.4303;stroke-miterlimit:10;}
	.st28{fill:#2B292D;}
	.st29{fill:none;stroke:#C35515;stroke-width:9.9101;stroke-miterlimit:10;}
	.st30{fill:none;stroke:#C35515;stroke-width:5.6693;stroke-miterlimit:10;}
	.st31{fill:#C35515;stroke:#000000;stroke-miterlimit:10;}
	.st32{fill:#C35515;stroke:#000000;stroke-width:0.6042;stroke-miterlimit:10;}
	.st33{fill:#15C2C1;stroke:#222433;stroke-width:6.1644;stroke-miterlimit:10;}
	.st34{fill:#FFFFFF;stroke:#000000;stroke-width:6.1644;stroke-miterlimit:10;}
	.st35{fill:none;stroke:#007575;stroke-width:6.1644;stroke-miterlimit:10;}
	.st36{fill:none;stroke:#FFFFFF;stroke-width:14.1732;stroke-miterlimit:10;stroke-dasharray:23.0877,36.9403;}
	.st37{fill-rule:evenodd;clip-rule:evenodd;fill:#FDA979;}
	.st38{fill-rule:evenodd;clip-rule:evenodd;fill:#FFFFFF;}
	.st39{fill-rule:evenodd;clip-rule:evenodd;fill:#007575;}
	.st40{fill:#606060;}
	.st41{fill:#222433;stroke:#222433;stroke-width:0.791;stroke-miterlimit:10;}
	.st42{fill-rule:evenodd;clip-rule:evenodd;fill:#FF7F36;}
	.st43{fill-rule:evenodd;clip-rule:evenodd;fill:#15C2C1;}
	.st44{fill:none;stroke:#FF7F36;stroke-width:11.3386;stroke-miterlimit:10;}
	.st45{fill:none;stroke:#FF7F36;stroke-width:9.6934;stroke-miterlimit:10;}
	.st46{opacity:0.44;fill:#FDA979;}
	.st47{fill:none;stroke:#70D9D9;stroke-width:8.5039;stroke-miterlimit:10;stroke-dasharray:11.5087,11.5098;}
	.st48{opacity:0.75;fill:#007575;}
	.st49{clip-path:url(#SVGID_00000159453136649803080090000009768349139603040163_);}
	.st50{fill:none;stroke:#FF7F36;stroke-miterlimit:10;}
	.st51{clip-path:url(#SVGID_00000182489984877516006830000003803104643713477563_);}
	.st52{stroke:#70D9D9;stroke-width:8.5039;stroke-miterlimit:10;}
	.st53{fill:#FDA979;stroke:#222433;stroke-width:17.0079;stroke-miterlimit:10;}
	.st54{clip-path:url(#SVGID_00000062176227560724061380000007295173743820355486_);}
	.st55{fill:none;stroke:#222433;stroke-width:16.1222;stroke-linecap:round;stroke-miterlimit:10;}
	.st56{clip-path:url(#SVGID_00000054255797046193661860000004085652993478937235_);fill:#15C2C1;}
	.st57{clip-path:url(#SVGID_00000054255797046193661860000004085652993478937235_);fill:#C35515;}
	
		.st58{clip-path:url(#SVGID_00000054255797046193661860000004085652993478937235_);fill:#15C2C1;stroke:#000000;stroke-width:8.2755;stroke-miterlimit:10;}
	.st59{clip-path:url(#SVGID_00000054255797046193661860000004085652993478937235_);fill:#FF7F36;}
	
		.st60{clip-path:url(#SVGID_00000054255797046193661860000004085652993478937235_);fill:#15C2C1;stroke:#000000;stroke-width:8.5039;stroke-miterlimit:10;}
	
		.st61{clip-path:url(#SVGID_00000054255797046193661860000004085652993478937235_);fill:none;stroke:#000000;stroke-width:8.5039;stroke-miterlimit:10;}
	
		.st62{clip-path:url(#SVGID_00000054255797046193661860000004085652993478937235_);fill:#FFFFFF;stroke:#000000;stroke-width:8.5039;stroke-miterlimit:10;}
	.st63{clip-path:url(#SVGID_00000054255797046193661860000004085652993478937235_);}
	.st64{fill:none;stroke:#000000;stroke-width:8.2815;stroke-linecap:round;stroke-miterlimit:10;}
	
		.st65{clip-path:url(#SVGID_00000054255797046193661860000004085652993478937235_);fill:#FFFFFF;stroke:#000000;stroke-width:8.7446;stroke-miterlimit:10;}
	.st66{clip-path:url(#SVGID_00000054255797046193661860000004085652993478937235_);fill:none;}
	.st67{clip-path:url(#SVGID_00000170991034008521883310000003393783925417637524_);}
	
		.st68{opacity:0.57;clip-path:url(#SVGID_00000170991034008521883310000003393783925417637524_);fill:none;stroke:#FFFFFF;stroke-width:32.7065;stroke-linecap:round;stroke-miterlimit:10;}
	.st69{fill:#222433;stroke:#000000;stroke-width:7.0866;stroke-miterlimit:10;}
	
		.st70{clip-path:url(#SVGID_00000170991034008521883310000003393783925417637524_);fill:#222433;stroke:#222433;stroke-width:163.17;stroke-miterlimit:10;}
	.st71{fill:none;stroke:#000000;stroke-width:7.0866;stroke-miterlimit:10;}
	
		.st72{clip-path:url(#SVGID_00000170991034008521883310000003393783925417637524_);fill:#70D9D9;stroke:#000000;stroke-width:2.8346;stroke-linecap:round;stroke-miterlimit:10;}
	.st73{clip-path:url(#SVGID_00000168115172244509062620000003759617222322879658_);}
	.st74{fill:none;stroke:#222433;stroke-width:5.6693;stroke-linecap:round;stroke-miterlimit:10;}
	.st75{fill:none;stroke:#70D9D9;stroke-width:16.8291;stroke-miterlimit:10;}
</style>
<g>
	<path class="st14" d="M901,2380.02H436.86v-450.8h776.79v450.8H901z"/>
	<path class="st17" d="M917.53,1930.51h-15.68c0,0,2.69,19.67,7.84,28.82s22.04,23.66,33.86,23.31c11.82-0.35,31.42-7.04,42.2-21.55
		c10.78-14.51,9.8-32.35,9.8-32.35L917.53,1930.51z"/>
	<path class="st17" d="M645.41,1929.22c0,0-16.66,41.67-45.67,55.59c-29.01,13.92-51.95,20.78-73.32,22.74
		c-21.37,1.96-31.17,0.78-31.17,0.78s6.45,22.48,4.71,37.81c-1.75,15.33-8.82,35.91-28.03,50.61
		c-19.21,14.7-35.06,23.31-35.06,23.31l0.55-189.75L645.41,1929.22z"/>
	<path class="st4" d="M438.69,2197.62l115.61,105.04c0,0,88.47-49.17,93.76-50.34c5.29-1.18,30.29-4.7,30.29-4.7l40.88,66.36
		l51.39-66.36c0,0,22.13,5.29,33.89,14.99c11.76,9.7,18.58,16.77,37.23,66.61c18.65,49.84,24.82,50.43,24.82,50.43H470.63
		l-35.44-37.37L438.69,2197.62z"/>
	<path class="st2" d="M840.09,2058.13c6.18,0.98,16.7,6.11,12.35,16.86s-12.88,12.17-19.11,13.44c-6.24,1.27-17.35-2.85-17.35-2.85
		l-41.24,142.19l-86.97-1.31l33.62-77.64l-18.62-1.48c0,0-13.23-11.01-11.76-16.97c1.47-5.96,30.38-66.25,30.38-66.25l-31.26,1.76
		c0,0,39.55-38.36,44.92-43.44c5.37-5.08,11.84-10.08,11.84-10.08l82.63,19.22c0,0,0.59,3.42,0.59,7.83s-4.84,18.72-4.84,18.72
		S833.92,2057.15,840.09,2058.13z"/>
	<path class="st3" d="M901,2382.34H436.86c-1.28,0-2.32-1.04-2.32-2.32v-450.8c0-1.28,1.04-2.32,2.32-2.32h776.79
		c1.28,0,2.32,1.04,2.32,2.32v450.8c0,1.28-1.04,2.32-2.32,2.32H901z M439.18,2377.7h772.16v-446.16H439.18V2377.7z"/>
	<path class="st17" d="M833.11,2031.58c0,0,13.7-44.87,13.73-52.67c0.04-12.98-47.59-31.96-63.73-13.64
		c-20.33,23.06-38.6,46.12-38.6,46.12L833.11,2031.58z M730.4,2226.13l-12.89,21.79h22.39L730.4,2226.13z"/>
	<g>
		<path class="st3" d="M808.06,2380.69c-1.28,0-2.32-1.04-2.32-2.32c0-0.19,0.02-0.38,0.07-0.56l9.02-36.29
			c0.29-1.25,1.54-2.02,2.78-1.73c1.25,0.29,2.02,1.54,1.73,2.79c-0.01,0.02-0.01,0.04-0.02,0.06l-9.02,36.29
			C810.05,2379.97,809.13,2380.69,808.06,2380.69L808.06,2380.69z M678.48,2250.25c-1.28,0-2.32-1.04-2.32-2.32
			c0-0.32,0.07-0.64,0.19-0.93l41.44-95.27h-5.18c-3.64,0-7.23-0.86-10.49-2.49c-5.59-2.81-9.76-7.63-11.73-13.58
			c-1.97-5.95-1.52-12.31,1.28-17.92l25.68-51.48l-27.77,2.99c-1.27,0.14-2.41-0.79-2.55-2.06c-0.07-0.67,0.15-1.33,0.6-1.82
			c0.13-0.14,13.45-14.62,35.54-35.62c9.27-8.82,16.3-14.48,23.51-18.93c1.08-0.68,2.51-0.35,3.19,0.73s0.35,2.52-0.73,3.2
			c-0.01,0.01-0.02,0.02-0.04,0.02c-6.92,4.27-13.72,9.75-22.75,18.34c-14.68,13.96-25.45,25.01-31.03,30.85l25.74-2.77
			c1.27-0.14,2.41,0.78,2.55,2.06c0.05,0.44-0.03,0.89-0.23,1.29l-27.57,55.28c-2.25,4.5-2.61,9.6-1.03,14.37
			c1.58,4.77,4.93,8.64,9.41,10.89c2.61,1.31,5.49,1.99,8.41,1.99h8.71c1.28,0,2.32,1.04,2.32,2.33c0,0.32-0.07,0.63-0.19,0.92
			l-42.85,98.51C680.23,2249.7,679.4,2250.25,678.48,2250.25L678.48,2250.25z M769.9,2250.25c-1.28,0-2.32-1.04-2.32-2.32
			c0-0.22,0.03-0.43,0.09-0.64l46.32-163.24c0.35-1.23,1.63-1.95,2.86-1.6c0.06,0.02,0.13,0.04,0.19,0.06
			c0.15,0.06,15.7,5.82,25.69,1.1c3.48-1.65,5.82-4.33,7.14-8.2c2.02-5.91,1.42-10.04-1.76-12.28c-5.88-4.14-18.82-1.31-25.29,3.9
			c-1,0.8-2.45,0.64-3.26-0.35c-0.59-0.74-0.68-1.76-0.22-2.58c0.09-0.17,9.37-17.16,8.93-33.03c-0.04-1.28,0.97-2.35,2.25-2.39
			c1.27-0.04,2.34,0.96,2.38,2.24c0,0.01,0,0.01,0,0.02c0.3,10.76-3.35,21.65-6.22,28.47c8.02-3.49,18.09-4.29,24.09-0.07
			c2.86,2.01,7.11,6.97,3.49,17.58c-1.73,5.05-4.94,8.72-9.56,10.9c-9.3,4.39-21.74,1.41-26.9-0.17l-45.66,160.91
			C771.84,2249.56,770.93,2250.25,769.9,2250.25L769.9,2250.25z"/>
		<path class="st3" d="M721.33,2151.73c-1.28,0-2.31-1.05-2.31-2.33c0-1.2,0.92-2.2,2.11-2.3l13.45-1.18
			c1.27-0.12,2.41,0.81,2.53,2.08s-0.81,2.41-2.08,2.54c-0.02,0-0.03,0-0.05,0l-13.45,1.18
			C721.46,2151.72,721.4,2151.73,721.33,2151.73L721.33,2151.73z M888.74,2046.15c-0.17,0-0.33-0.02-0.5-0.05l-194.26-42.78
			c-1.25-0.28-2.03-1.53-1.75-2.78c0.28-1.24,1.5-2.02,2.74-1.76l194.26,42.78c1.25,0.28,2.04,1.52,1.76,2.77
			C890.76,2045.39,889.82,2046.14,888.74,2046.15L888.74,2046.15z M719.83,2316.4c-0.8,0-1.54-0.41-1.96-1.09l-41.35-66.15
			c-0.69-1.08-0.37-2.52,0.71-3.21c1.08-0.69,2.51-0.37,3.2,0.71c0.01,0.01,0.01,0.02,0.02,0.03l39.57,63.3l48.04-63.47
			c0.78-1.01,2.24-1.2,3.25-0.41c1,0.77,1.19,2.21,0.44,3.22l-50.06,66.15C721.23,2316.06,720.55,2316.4,719.83,2316.4z
			 M687.37,2229.79c-1.28,0-2.32-1.03-2.32-2.31c0-1.26,1-2.3,2.26-2.33l45.35-1.34l42.01-0.69c1.28-0.02,2.33,1,2.35,2.28
			c0,0,0,0,0,0c0.02,1.28-1,2.34-2.28,2.36l-41.98,0.69l-45.32,1.34L687.37,2229.79L687.37,2229.79z M755.58,2058.13
			c-0.73,0-1.41-0.34-1.85-0.92l-8.33-11.07c-0.77-1.02-0.57-2.48,0.45-3.25s2.47-0.57,3.24,0.46l8.33,11.07
			c0.77,1.02,0.57,2.48-0.45,3.25C756.57,2057.97,756.08,2058.13,755.58,2058.13L755.58,2058.13z M716.81,2102.18
			c-0.73,0-1.46-0.12-2.16-0.35c-6.73-2.21-6.92-14.35-6.92-15.73c0-1.28,1.04-2.32,2.32-2.32h22.67c1.28,0,2.32,1.04,2.32,2.32
			c0,0.5-0.16,0.98-0.45,1.38C727.29,2097.42,721.57,2102.18,716.81,2102.18L716.81,2102.18z M712.48,2088.43
			c0.35,3.83,1.53,8.31,3.62,8.99c0.92,0.3,4.31,0.4,11.92-8.99H712.48z"/>
		<path class="st3" d="M553.26,2302.91c-0.56,0-1.12-0.21-1.56-0.6l-109.72-99.87l-6.68-6.08c-0.95-0.86-1.02-2.33-0.16-3.28
			s2.32-1.02,3.27-0.16l115.22,104.87c9.17-4.64,59.98-30.45,76.73-40.1c20.73-11.95,47.01-12.09,48.12-12.09
			c1.28,0,2.32,1.04,2.32,2.32c0,1.28-1.04,2.32-2.32,2.32c-0.26,0-26.17,0.15-45.81,11.47c-18.45,10.64-77.78,40.64-78.37,40.94
			C553.98,2302.83,553.62,2302.91,553.26,2302.91L553.26,2302.91z M866.77,2382.34c-0.92,0-1.75-0.54-2.12-1.39
			c-0.3-0.69-30.54-69.55-41.31-92.12c-17.01-35.65-53.25-38.57-53.61-38.59c-1.27-0.09-2.24-1.2-2.15-2.47
			c0.09-1.28,1.19-2.24,2.46-2.16c0.4,0.03,9.98,0.72,21.89,6.14c10.99,5,26.08,15.14,35.59,35.08
			c10.8,22.64,41.06,91.56,41.37,92.25c0.52,1.17-0.02,2.54-1.19,3.06C867.41,2382.27,867.09,2382.34,866.77,2382.34L866.77,2382.34
			z M474.35,2382.34c-0.6,0-1.17-0.23-1.6-0.65l-37.49-36.13c-0.92-0.89-0.95-2.36-0.06-3.28c0.89-0.92,2.35-0.95,3.27-0.06
			l37.49,36.13c0.92,0.89,0.95,2.36,0.07,3.28C475.59,2382.08,474.98,2382.34,474.35,2382.34L474.35,2382.34z M616.36,2382.34
			c-1.28,0-2.32-1.04-2.32-2.32c0-0.15,0.01-0.3,0.04-0.45l5.91-30.08c0.25-1.26,1.46-2.08,2.72-1.83c1.25,0.25,2.07,1.47,1.82,2.73
			l0,0l-5.91,30.08C618.42,2381.56,617.47,2382.34,616.36,2382.34L616.36,2382.34z M436.86,2122.45c-1.28,0-2.32-1.03-2.32-2.32
			c0-0.89,0.5-1.7,1.3-2.09c36.08-17.81,75.24-51.14,56.91-108.84c-0.39-1.22,0.28-2.53,1.5-2.92c0.23-0.07,0.47-0.11,0.71-0.11
			h0.16c100.59,0,134.84-41.93,145.85-77.1c0.38-1.22,1.68-1.9,2.9-1.52c1.22,0.38,1.9,1.69,1.52,2.91
			c-10.69,34.15-36.07,57.84-75.42,70.4c-29,9.26-57.53,9.9-71.89,9.95c7.45,25.83,4.36,49.26-9.18,69.68
			c-10.82,16.31-27.98,30.34-51.01,41.71C437.56,2122.37,437.21,2122.45,436.86,2122.45z M948.13,1982.87
			c-13,0-25.28-5.59-34.56-15.74c-9.2-10.06-14.48-23.5-14.84-37.86c-0.03-1.28,0.98-2.35,2.26-2.38c1.27-0.04,2.34,0.97,2.37,2.25
			c0,0,0,0.01,0,0.01c0.7,27.52,20.37,49.07,44.78,49.07c22.01,0,40.58-17.74,44.16-42.19c0.33-2.27,0.53-4.58,0.58-6.87
			c0.03-1.28,1.09-2.29,2.37-2.27c1.28,0.03,2.29,1.09,2.26,2.37c-0.06,2.49-0.27,4.98-0.63,7.44
			C992.96,1963.46,972.46,1982.87,948.13,1982.87L948.13,1982.87z"/>
	</g>
	<path class="st17" d="M1021.66,2179.87c-9.18-17.77-30.21-10.99-38.05-7.68c-1.59,0.67-3.39-0.07-4.09-1.65
		c-1.62-3.64-5.45-9.63-13.82-12.74c-15.63-5.81-26.98,4.18-32.49,10.91c-2.09-2.38-5.15-3.9-8.57-3.9c-4.47,0-8.33,2.58-10.2,6.33
		c-6.49-1.18-14.09-1-19.7,5.67c-0.08,0.09-0.2,0.14-0.29,0.21c-6.55,4.92-2.98,15.38,5.22,15.41l120.07,0.42
		C1019.73,2192.86,1026.65,2189.54,1021.66,2179.87z"/>
	<path class="st17" d="M1110.64,2050.52c-5.61-10.85-18.45-6.71-23.24-4.69c-0.97,0.41-2.07-0.04-2.5-1.01
		c-0.99-2.22-3.33-5.88-8.44-7.78c-9.55-3.55-16.47,2.55-19.84,6.66c-1.28-1.46-3.15-2.38-5.24-2.38c-2.73,0-5.09,1.58-6.23,3.86
		c-3.96-0.72-8.6-0.61-12.03,3.46c-0.05,0.06-0.12,0.09-0.18,0.13c-4,3.01-1.82,9.4,3.19,9.41l73.33,0.25
		C1109.46,2058.45,1113.69,2056.42,1110.64,2050.52z"/>
	<path class="st17" d="M600.02,2060.56c-4.64-8.98-15.26-5.55-19.22-3.88c-0.8,0.34-1.71-0.04-2.07-0.83
		c-0.82-1.84-2.75-4.87-6.98-6.44c-7.9-2.94-13.63,2.11-16.42,5.51c-1.06-1.2-2.6-1.97-4.33-1.97c-2.26,0-4.21,1.3-5.15,3.2
		c-3.28-0.59-7.12-0.5-9.95,2.87c-0.04,0.05-0.1,0.07-0.15,0.11c-3.31,2.49-1.5,7.77,2.64,7.79l60.67,0.21
		C599.05,2067.12,602.55,2065.44,600.02,2060.56z"/>
	<path class="st17" d="M1171.82,2254.41c-7.07-13.67-23.24-8.46-29.28-5.91c-1.22,0.52-2.61-0.05-3.15-1.27
		c-1.25-2.8-4.2-7.41-10.64-9.81c-12.03-4.47-20.76,3.22-25,8.4c-1.61-1.84-3.96-3-6.6-3c-3.44,0-6.41,1.98-7.85,4.87
		c-5-0.9-10.84-0.77-15.16,4.37c-0.06,0.07-0.15,0.11-0.22,0.16c-5.04,3.79-2.29,11.84,4.02,11.86l92.4,0.32
		C1170.33,2264.41,1175.66,2261.85,1171.82,2254.41z"/>
</g>
<line class="st26" x1="1155.37" y1="2688.85" x2="19.84" y2="2688.85"/>
<g transform="translate(1056.0 463.0) rotate(0.0 90.0 185.5) translate(0.0 0.0) scale(0.5108701822103651 0.5129906942658425)">
	<g>
		<g>
			<g>
				<ellipse class="st1" cx="-1704.07" cy="3598.29" rx="17.99" ry="18.07"/>
			</g>
			<g>
				<ellipse class="st1" cx="-1669.23" cy="3674.7" rx="17.99" ry="18.07"/>
			</g>
			<g>
				<ellipse class="st1" cx="-1739.69" cy="3674.34" rx="17.99" ry="18.07"/>
			</g>
			<g>
				<ellipse class="st1" cx="-1669.63" cy="3752.95" rx="17.99" ry="18.07"/>
			</g>
			<g>
				<ellipse class="st1" cx="-1740.08" cy="3752.59" rx="17.99" ry="18.07"/>
			</g>
		</g>
	</g>
	<path class="st3" d="M-1695.1,4061.1c-2.05,0-3.71-1.66-3.71-3.71c0-0.55,0.12-1.09,0.35-1.58l135.51-287.89
		c0.87-1.85,3.08-2.65,4.94-1.78c1.85,0.87,2.65,3.08,1.78,4.94l-135.51,287.89C-1692.35,4060.27-1693.66,4061.11-1695.1,4061.1z"/>
	<path class="st15" d="M-1459.95,3694.1c-6.1-4.59-14.77-3.38-19.37,2.72c4.78-5.96,3.82-14.67-2.14-19.44
		c-5.96-4.78-14.66-3.82-19.44,2.14c-0.17,0.22-0.34,0.43-0.5,0.66l-42.26,55.84l16.5-68.04c2.01-7.37-2.33-14.97-9.7-16.99
		s-14.97,2.33-16.99,9.7c-0.06,0.23-0.12,0.47-0.17,0.71c2.01-7.37-2.33-14.97-9.7-16.99c-7.37-2.01-14.97,2.33-16.99,9.7
		c-0.06,0.23-0.12,0.47-0.17,0.71l-2.19,8.94l-14.85,60.35c-5.22,21.33,2.59,43.74,19.93,57.2l-0.11,0.14
		c6.3,4.64,13.44,8.01,21.03,9.9v-0.17c21.4,4.92,43.69-3.21,56.91-20.73l37.4-49.63l5.54-7.36
		C-1452.63,3707.35-1453.86,3698.69-1459.95,3694.1z"/>
	<path class="st3" d="M-1544.63,3796.3c-4.02,0-8.08-0.41-12.1-1.25c-0.41,0.04-0.82,0-1.22-0.1c-8.06-2-15.65-5.57-22.34-10.51
		c-0.34-0.25-0.64-0.56-0.88-0.92c-17.83-14.42-25.81-37.95-20.34-60.29l17.04-69.29c0.06-0.27,0.12-0.54,0.2-0.8
		c2.55-9.33,12.21-14.85,21.54-12.3c4.52,1.23,8.29,4.16,10.61,8.22c0.28,0.49,0.53,0.99,0.76,1.5c0.68-0.53,1.4-1.02,2.16-1.45
		c4.07-2.32,8.8-2.92,13.32-1.69s8.29,4.16,10.61,8.22c2.32,4.07,2.92,8.8,1.69,13.32l-12.27,50.59l31.49-41.61
		c0.13-0.19,0.34-0.47,0.56-0.74c6.05-7.55,17.11-8.77,24.66-2.72c4.31,3.45,6.55,8.54,6.57,13.67c4.98-1.25,10.46-0.34,14.86,2.98
		l0,0c7.71,5.81,9.26,16.82,3.47,24.54l-42.94,57C-1508.55,3787.73-1526.25,3796.3-1544.63,3796.3L-1544.63,3796.3z
		 M-1557.06,3787.46c0.28,0,0.56,0.03,0.83,0.09c19.94,4.58,40.79-3.01,53.11-19.35l42.94-56.99c3.34-4.45,2.44-10.8-2-14.15
		c-4.37-3.28-10.56-2.5-13.97,1.72c-0.09,0.12-0.18,0.24-0.28,0.36c-1.28,1.6-3.61,1.86-5.22,0.58c-1.57-1.26-1.86-3.54-0.64-5.14
		c0.09-0.12,0.18-0.24,0.28-0.36c3.25-4.34,2.48-10.53-1.78-13.95c-4.35-3.49-10.74-2.79-14.23,1.57c-0.13,0.16-0.25,0.32-0.36,0.48
		l-42.33,55.94c-1.24,1.63-3.56,1.96-5.2,0.72c-1.18-0.89-1.72-2.4-1.37-3.83l16.5-68.04c0.74-2.71,0.39-5.44-0.95-7.79
		c-1.34-2.35-3.51-4.03-6.12-4.74c-2.59-0.71-5.36-0.36-7.68,0.97c-2.31,1.31-4,3.48-4.72,6.03c-0.06,0.27-0.13,0.53-0.2,0.8
		c-0.53,1.98-2.56,3.16-4.54,2.63c-1.92-0.51-3.1-2.45-2.66-4.39c0.06-0.27,0.12-0.53,0.19-0.79c0.51-2.42,0.11-4.94-1.12-7.08
		c-1.33-2.34-3.53-4.04-6.12-4.74c-5.38-1.47-10.96,1.71-12.43,7.1c-0.05,0.17-0.09,0.34-0.13,0.52l-2.21,9.04l-14.85,60.35
		c-4.86,19.88,2.44,40.83,18.6,53.39c0.27,0.21,0.51,0.46,0.71,0.73c5.38,3.81,11.39,6.64,17.76,8.36L-1557.06,3787.46
		L-1557.06,3787.46z"/>
	<path class="st3" d="M-1566.74,3716.79c-2.05,0-3.71-1.66-3.71-3.71c0-0.3,0.04-0.6,0.11-0.89l12.94-52.79
		c0.49-1.99,2.5-3.21,4.49-2.72c1.99,0.49,3.21,2.5,2.72,4.49l0,0l-12.94,52.79C-1563.54,3715.62-1565.03,3716.79-1566.74,3716.79z
		 M-1511.35,3743.06c-2.05,0-3.71-1.66-3.71-3.71c0-0.8,0.26-1.59,0.75-2.23l32.7-43.41c1.25-1.62,3.58-1.92,5.21-0.67
		c1.6,1.23,1.92,3.51,0.72,5.14l-32.7,43.41C-1509.09,3742.52-1510.19,3743.06-1511.35,3743.06L-1511.35,3743.06z M-1718.87,4061.1
		c-1.52,0-2.88-0.92-3.44-2.33l-107.29-266.33c-0.77-1.9,0.15-4.06,2.06-4.83c1.9-0.77,4.06,0.15,4.83,2.06l107.29,266.33
		c0.77,1.9-0.15,4.06-2.05,4.83C-1717.92,4061.01-1718.39,4061.1-1718.87,4061.1z"/>
	<path class="st15" d="M-1834.06,3872.07c9.06-3.64,28.24-30.42,28.24-30.42s-32.38-6.02-41.44-2.39c-9.06,3.64-13.45,13.94-9.8,23
		C-1853.42,3871.33-1843.12,3875.71-1834.06,3872.07z"/>
	<path class="st3" d="M-1840.66,3877.07c-2.85,0-5.69-0.58-8.39-1.72c-5.23-2.21-9.36-6.42-11.46-11.7
		c-4.4-10.94,0.92-23.43,11.86-27.83c9.79-3.93,40.09,1.55,43.51,2.18c2.02,0.37,3.35,2.31,2.97,4.33c-0.1,0.53-0.32,1.04-0.63,1.48
		c-2.03,2.83-20.1,27.78-29.88,31.7C-1835.21,3876.54-1837.92,3877.07-1840.66,3877.07z M-1838.06,3841.8
		c-3.43,0-6.21,0.27-7.81,0.91c-7.14,2.87-10.62,11.03-7.74,18.17c1.37,3.44,4.07,6.19,7.48,7.64c3.41,1.46,7.26,1.5,10.69,0.11l0,0
		c5-2.01,15.6-14.49,23.06-24.34C-1820.65,3842.98-1830.82,3841.8-1838.06,3841.8L-1838.06,3841.8z"/>
	<path class="st15" d="M-1764.38,3844.05c-9.06,3.64-41.43-2.4-41.43-2.4s19.18-26.77,28.23-30.41c9.06-3.64,19.36,0.74,23,9.8
		C-1750.93,3830.1-1755.32,3840.4-1764.38,3844.05z"/>
	<path class="st3" d="M-1773.94,3848.9c-12.76,0-30.02-3.13-32.56-3.6c-2.01-0.37-3.34-2.31-2.97-4.32c0.1-0.54,0.32-1.04,0.63-1.49
		c2.03-2.83,20.09-27.76,29.87-31.69c5.3-2.13,11.11-2.07,16.37,0.17c5.26,2.24,9.33,6.39,11.46,11.7
		c4.4,10.94-0.92,23.43-11.86,27.83l0,0C-1765.54,3848.51-1769.46,3848.9-1773.94,3848.9z M-1764.38,3844.05h0.01H-1764.38z
		 M-1799.25,3839.01c12.2,1.93,28.49,3.6,33.49,1.6c7.15-2.88,10.62-11.03,7.74-18.17c-1.39-3.46-4.05-6.17-7.48-7.64
		c-3.43-1.46-7.23-1.5-10.69-0.11C-1781.2,3816.69-1791.79,3829.17-1799.25,3839.01z"/>
	<path class="st1" d="M-1886.62,3764.82l63.84,43.3c1.78,1.2,4.19,0.72,5.39-1.06c0.27-0.41,0.47-0.86,0.57-1.34l16.08-75.4
		L-1886.62,3764.82z"/>
	<path class="st4" d="M-1664.13,4163.76c0.93-31.87,47.05-54.73,47.05-106.36h-184.62c0,50.72,45.77,75.09,48.37,106.12
		L-1664.13,4163.76z"/>
	<path class="st3" d="M-1664.13,4167.47L-1664.13,4167.47l-89.2-0.24c-1.93,0-3.53-1.48-3.69-3.4c-1.01-12.11-9.4-23.42-19.1-36.51
		c-13.72-18.51-29.28-39.49-29.28-69.92c0-2.05,1.66-3.71,3.71-3.71h184.62c2.05,0,3.71,1.66,3.71,3.71
		c0,30.4-15.1,50.89-28.42,68.98c-9.8,13.3-18.26,24.79-18.63,37.49C-1660.48,4165.87-1662.12,4167.47-1664.13,4167.47z
		 M-1750.06,4159.81l82.51,0.23c1.71-13.51,10.51-25.47,19.79-38.06c12.08-16.4,25.7-34.88,26.89-60.87h-177.02
		c1.23,26.05,15.28,44.99,27.73,61.79C-1761.01,4135.24-1752.33,4146.95-1750.06,4159.81z"/>
	<path class="st4" d="M-1576.97,4321.77c-0.04,73.11-59.34,132.34-132.45,132.3c-73.11-0.04-132.34-59.34-132.3-132.45
		c0.02-43.25,21.18-83.77,56.66-108.51c25.09-19.95,32.88-35.44,31.73-49.48l89.19,0.13c-0.4,13.61,6.4,30.26,30.47,49.41
		C-1598.12,4237.91-1576.95,4278.47-1576.97,4321.77z"/>
	<path class="st3" d="M-1709.34,4457.78h-0.08c-75.04-0.04-136.05-61.12-136.01-136.16c0.02-44.39,21.76-86.06,58.15-111.48
		c21.8-17.36,31.41-32.04,30.25-46.21c-0.09-1.03,0.27-2.06,0.97-2.82c0.7-0.76,1.7-1.22,2.73-1.19l89.19,0.13
		c2.05,0,3.71,1.67,3.71,3.72c0,0.03,0,0.07,0,0.1c-0.44,15.07,9.31,30.66,28.98,46.33c36.45,25.43,58.2,67.13,58.18,111.57
		C-1573.3,4396.78-1634.34,4457.78-1709.34,4457.78z M-1749.52,4167.34c-0.48,15.53-11.15,31.12-33.22,48.67
		c-0.06,0.05-0.12,0.1-0.19,0.14c-34.46,24.03-55.05,63.45-55.07,105.47c-0.04,70.94,57.65,128.69,128.59,128.73h0.07
		c70.91,0,128.62-57.67,128.66-128.59c0.02-42.06-20.57-81.52-55.09-105.55c-0.07-0.05-0.13-0.09-0.19-0.14
		c-20.09-15.98-30.77-32.32-31.81-48.61L-1749.52,4167.34z M-1576.97,4321.77h0.01H-1576.97z"/>
	<path class="st3" d="M-1665.53,4168.94h-87.7c-2.05,0-3.71-1.66-3.71-3.71c0-2.05,1.66-3.71,3.71-3.71h87.7
		c2.05,0,3.71,1.66,3.71,3.71C-1661.82,4167.28-1663.48,4168.94-1665.53,4168.94z M-1706.25,4060.81h-0.02
		c-2.05-0.01-3.7-1.68-3.69-3.73l0,0l2.18-458.8c0.01-2.05,1.68-3.65,3.73-3.69c2.05,0.01,3.7,1.68,3.69,3.73l0,0l-2.18,458.8
		C-1702.55,4059.16-1704.21,4060.81-1706.25,4060.81L-1706.25,4060.81z"/>
</g>
<path class="st2" d="M1638.3,2232.66c9.76-35.88-59.39-20.59-63.04-22.78c-18.61-11.16-56.33,32.47-55.52,81.16
	c0.55,32.8,17.24,54.9,50.55,70.13l-4.96,55.8l86.86,2.48l8.69-91.77L1638.3,2232.66z M1440.93,3052.24l-93.98-214.88l228.31,34.72
	l2.48,16.12l65.45,140.77L1440.93,3052.24z"/>
<path class="st3" d="M1440.92,3055.96c-1.48,0-2.82-0.88-3.41-2.23l-93.98-214.88c-0.82-1.88,0.04-4.08,1.92-4.9
	c0.64-0.28,1.36-0.38,2.05-0.27l228.31,34.72c1.61,0.24,2.87,1.51,3.12,3.11l2.4,15.6l65.23,140.29c0.87,1.86,0.06,4.08-1.81,4.94
	c-0.36,0.17-0.75,0.28-1.14,0.32l-202.26,23.27C1441.21,3055.95,1441.07,3055.96,1440.92,3055.96L1440.92,3055.96z M1353.06,2842.05
	l90.17,206.18l194.41-22.36l-63.28-136.1c-0.15-0.32-0.25-0.66-0.3-1l-2.07-13.42L1353.06,2842.05z"/>
<path class="st17" d="M1689.31,2420.81c-4.1-1.62-8.31-2.94-12.6-3.95c-5.87-1.38-11.87-2.14-17.91-2.29
	c-22.42-0.54-134.4-3.25-137.41-3.02c-1.99,0.15-4,0.38-5.99,0.67c-19.57,2.81-37.61,12.2-51.12,26.63l-62.73,71.13
	c-0.67,0.73-1.47,2.78-0.73,3.45l104.04,94.85l-46.22,54.23c0,0,101.75,19.84,127.8,22.32c24.82,0,58.32,21.08,58.32,21.08
	l50.87,65.72l47.35-252.08C1751.12,2478.03,1728.6,2436.58,1689.31,2420.81L1689.31,2420.81z"/>
<path class="st2" d="M1745.25,2497.58l70.25,180.27c15.2,38.18-3.45,81.45-41.66,96.64c0,0,0,0,0,0c-1.75,0.7-3.53,1.33-5.34,1.89
	L1677,2813.8"/>
<path class="st3" d="M1677.01,2817.52c-2.06,0-3.72-1.66-3.72-3.72c0-1.51,0.91-2.87,2.31-3.45l91.5-37.43
	c0.1-0.04,0.2-0.08,0.3-0.11c1.71-0.53,3.4-1.13,5.06-1.79c36.26-14.46,53.97-55.53,39.58-91.8l-70.26-180.29
	c-0.73-1.92,0.23-4.07,2.15-4.8c1.9-0.73,4.04,0.21,4.79,2.1l70.25,180.27c15.89,40.09-3.68,85.46-43.75,101.44
	c-1.79,0.71-3.6,1.36-5.44,1.93l-91.37,37.37C1677.97,2817.42,1677.49,2817.52,1677.01,2817.52z"/>
<path class="st2" d="M1535.75,2232.66l-34.08,25.24c-2.99,3.07-2.93,7.99,0.14,10.98c0.6,0.58,1.28,1.06,2.03,1.42l14.62,7.09"/>
<path class="st3" d="M1518.45,2281.11c-0.56,0-1.12-0.13-1.62-0.37l-14.62-7.09c-5.71-2.77-8.09-9.64-5.32-15.35
	c0.54-1.11,1.25-2.12,2.11-3c0.14-0.14,0.29-0.27,0.45-0.39l34.08-25.24c1.65-1.22,3.98-0.88,5.21,0.78
	c1.22,1.65,0.88,3.98-0.78,5.2l-33.8,25.03c-1.46,1.69-1.27,4.24,0.43,5.7c0.27,0.23,0.56,0.42,0.88,0.57l14.62,7.09
	c1.85,0.9,2.62,3.12,1.73,4.97C1521.18,2280.3,1519.88,2281.11,1518.45,2281.11L1518.45,2281.11z M1651.6,2421.7
	c-0.12,0-0.25-0.01-0.38-0.02c-2.05-0.21-3.54-2.03-3.33-4.07l7.09-70.06c0.24-2.04,2.09-3.5,4.13-3.26c1.99,0.24,3.44,2,3.27,4
	l-7.09,70.06C1655.11,2420.25,1653.51,2421.7,1651.6,2421.7z"/>
<path class="st3" d="M1563.3,2419.58c-0.12,0-0.25,0-0.38-0.02c-2.05-0.21-3.54-2.03-3.33-4.08c0,0,0,0,0,0l5.39-53.32
	c-24.67-12.23-42.28-35.2-47.69-62.19c-0.01-0.06-0.02-0.12-0.03-0.19c-6.33-32.17,5.69-65.2,31.22-85.79
	c1.59-1.31,3.93-1.08,5.24,0.5c1.31,1.58,1.08,3.93-0.5,5.24c-0.02,0.02-0.04,0.03-0.06,0.05c-23.44,18.91-34.44,49.26-28.55,78.78
	c0.01,0.06,0.02,0.12,0.03,0.18c5.18,25.48,22.22,46.96,45.86,57.81c1.45,0.66,2.31,2.17,2.15,3.76l-5.65,55.93
	C1566.81,2418.13,1565.21,2419.58,1563.3,2419.58z"/>
<path class="st3" d="M1612.13,2291.03c8.59,19.24,26.15,52.46,46.48,56.88c0,0,29.67-24.54,50.69-95.04
	c8.02-26.9,8.96-78.54-45.66-96.31c-10.36-21.32-36.05-30.21-57.38-19.85c-5.07,2.46-9.61,5.9-13.36,10.12
	c-15.62-17.83-42.75-19.63-60.59-4.02c-17.84,15.61-19.64,42.73-4.02,60.56c10.93,12.47,28.07,17.54,44.03,13.02l-4.53,29.08
	l20.67-17.37l23.74,2.41l18.07,13.06l-0.26,32.52L1612.13,2291.03z"/>
<path class="st3" d="M1658.61,2351.63c-0.27,0-0.53-0.03-0.79-0.09c-20.81-4.53-38.18-34.59-49.09-59c-0.84-1.88,0-4.08,1.88-4.91
	s4.08,0,4.92,1.88c13.6,30.43,28.81,50.02,42.06,54.28c5.96-5.78,30.3-32.14,48.13-91.98c2.16-7.24,19.3-71.37-43.25-91.71
	c-0.96-0.31-1.75-1-2.19-1.91c-9.46-19.47-32.93-27.59-52.41-18.13c-4.64,2.25-8.78,5.39-12.2,9.24c-1.36,1.54-3.72,1.68-5.26,0.31
	c-0.12-0.1-0.23-0.21-0.33-0.33c-14.27-16.29-39.04-17.94-55.34-3.68c-16.3,14.26-17.95,39.02-3.68,55.31
	c9.98,11.4,25.64,16.03,40.22,11.89c1.98-0.56,4.04,0.59,4.6,2.57c0.15,0.52,0.18,1.06,0.1,1.59l-6.12,39.27
	c-0.32,2.03-2.22,3.42-4.25,3.1s-3.42-2.22-3.11-4.25l5.28-33.9c-25.46,3.98-49.34-13.42-53.32-38.87
	c-3.98-25.45,13.43-49.31,38.89-53.29c14.41-2.25,29.04,2.35,39.55,12.45c18.7-17.72,48.23-16.94,65.96,1.75
	c2.92,3.08,5.41,6.55,7.4,10.3c24.2,8.29,40.52,24.41,47.26,46.7c6.98,23.09,1.86,45.26-0.66,53.72
	c-21.09,70.77-50.63,95.81-51.88,96.85C1660.32,2351.33,1659.48,2351.63,1658.61,2351.63L1658.61,2351.63z"/>
<path class="st3" d="M1612.14,2294.76c-2.06,0-3.72-1.66-3.73-3.72c0-1.53,0.93-2.9,2.35-3.46c15.41-6.12,22.93-23.56,16.81-38.96
	c-6.12-15.4-23.58-22.92-38.98-16.8c-10.39,4.13-17.63,13.69-18.77,24.8c-0.21,2.04-2.03,3.53-4.08,3.33s-3.54-2.03-3.33-4.08l0,0
	c2.12-20.57,20.52-35.53,41.1-33.41s35.55,20.51,33.43,41.07c-1.43,13.88-10.46,25.81-23.43,30.96
	C1613.07,2294.67,1612.61,2294.76,1612.14,2294.76L1612.14,2294.76z"/>
<path class="st3" d="M1605.45,2270.99h-0.15l-19.26-0.77c-2.05-0.08-3.65-1.81-3.57-3.87c0.03-0.79,0.31-1.54,0.8-2.16l16.54-20.94
	c1.27-1.61,3.61-1.89,5.23-0.61c1.61,1.27,1.89,3.61,0.62,5.23l-12.01,15.21l11.96,0.48c2.06,0.04,3.69,1.74,3.65,3.79
	C1609.2,2269.4,1607.5,2271.04,1605.45,2270.99L1605.45,2270.99z"/>
<path class="st3" d="M1669,3200h-7.52l-14.76-98.85c-22.86,4.32-31.98,54.99-33.59,75.04c-0.16,1.93-1.77,3.42-3.71,3.42h-159.88
	c-2.06,0-3.72-1.66-3.72-3.72c0-1.96,1.52-3.58,3.46-3.71c0.08-0.01,0.17-0.01,0.26-0.01h156.5c1.71-15.75,10.63-78.76,43.84-78.76
	c1.85,0,3.41,1.35,3.68,3.18L1669,3200z"/>
<path class="st8" d="M1451.22,3200H1338.1h-6.87h-203.78c1.3-8.38,3.99-16.53,8.01-24.1c10-18.8,27.48-32.51,48.12-37.76
	c0,0,36.09-12.18,57.16-60.58l90.49-20.96l6.87-1.59l101.4-23.48l4.54,65.6l5.24,75.05l0.52,7.43L1451.22,3200z"/>
<g>
	<path class="st3" d="M1244.23,3078.86c-0.03,0.06-0.05,0.12-0.08,0.17c-21.48,49.35-57.84,62.11-59.37,62.63
		c-0.1,0.03-0.19,0.06-0.28,0.08c-17.56,4.47-32.7,15.38-42.51,30.42c-1.17,1.77-2.25,3.59-3.25,5.47
		c-0.35,0.65-0.68,1.31-1.01,1.97c-3.17,6.46-5.37,13.33-6.51,20.39h-7.55c1.32-8.88,4.13-17.52,8.35-25.55
		c0.06-0.15,0.14-0.3,0.23-0.44c10.49-19.59,28.71-33.88,50.25-39.43c2.12-0.78,35.29-13.62,54.83-58.5
		c0.77-1.91,2.94-2.83,4.84-2.05C1244.08,3074.8,1245,3076.97,1244.23,3078.86z"/>
	<path class="st3" d="M1454.96,3200h-7.46l-6.91-98.97l-0.25-3.65l-0.26-3.79l-4.29-61.81c-0.14-2.05,1.4-3.83,3.46-3.97
		c2.05-0.14,3.82,1.41,3.97,3.46l4.53,65.48c0,0.04,0.01,0.08,0.01,0.12L1454.96,3200z"/>
	<path class="st3" d="M1541.7,2298.36c-1.85-0.88-4.07-0.09-4.95,1.77c-1.32,2.89-6.22,11.36-11.29,12.28
		c-1.77,0.32-3.06,1.87-3.06,3.66c0,2.06,1.66,3.72,3.72,3.72c0.23,0.01,0.45-0.02,0.68-0.06c9.81-1.78,16.05-15.03,16.73-16.54
		C1544.32,2301.36,1543.52,2299.23,1541.7,2298.36z M1617.85,2366.4c-0.31-2.03-2.2-3.43-4.23-3.12c-12.8,1.93-28.2-0.42-43.37-6.61
		c-0.02-0.01-0.05-0.02-0.08-0.03c-1.91-0.76-4.07,0.18-4.83,2.09c-0.75,1.91,0.18,4.07,2.1,4.83c11.74,4.95,24.33,7.6,37.08,7.81
		c3.42,0.01,6.83-0.24,10.21-0.73C1616.76,2370.33,1618.16,2368.43,1617.85,2366.4z M1447.76,3096.86c0-0.04-0.01-0.08-0.01-0.12
		c-0.19-1.87-1.78-3.34-3.71-3.34c-1.35,0-2.67,0.06-3.96,0.18c-40.43,3.72-55.28,63.92-58.3,78.58h-246.32
		c-1.37,0-2.57,0.74-3.21,1.84c-0.09,0.14-0.17,0.29-0.23,0.44c-0.19,0.45-0.29,0.93-0.29,1.44c0,2.06,1.67,3.72,3.73,3.72h249.4
		c1.81,0,3.36-1.3,3.67-3.09c0.13-0.73,12.78-71.53,52.06-75.49c1.12-0.11,2.28-0.17,3.45-0.17c2.06,0,3.73-1.67,3.73-3.73
		C1447.77,3097.04,1447.77,3096.96,1447.76,3096.86z"/>
	<ellipse class="st3" cx="1541.51" cy="2234.16" rx="6.07" ry="6.06"/>
</g>
<path class="st4" d="M1591.39,2683.59l-277.19-38.39l-44.01-3.85c-64.67-8.9-128.6,19.18-164.13,72.16
	c-15.76,23.52-24.94,50.83-26.6,79.09c-2.17,36.06,6.73,71.93,25.5,102.8l112.56,187l233.02-53.42l-72.55-141.99
	c54.94,10.54,211.26,14.84,211.54,14.84c59.96,0,108.57-48.58,108.57-108.51C1698.1,2734.1,1652.19,2688.55,1591.39,2683.59
	L1591.39,2683.59z M1337.03,2879.52c8.79,1.23,21.74,3.78,37.57,6.82L1337.03,2879.52z"/>
<path class="st3" d="M1217.52,3086.13c-1.31,0-2.52-0.68-3.19-1.8l-112.56-187c-19.21-31.51-28.29-68.14-26.01-104.97
	c1.68-28.92,11.08-56.86,27.22-80.92c17.98-26.71,43.21-47.74,72.73-60.62c29.81-13.07,62.66-17.63,94.91-13.17l43.92,3.84
	c0.06,0,0.12,0.01,0.19,0.02l277.08,38.38c63.76,5.25,110.02,52.95,110.02,113.45c-0.07,61.95-50.3,112.16-112.29,112.23
	c-1.29,0-144.66-4.04-204.83-13.62l69.16,135.35c0.93,1.83,0.21,4.07-1.62,5c-0.27,0.14-0.56,0.24-0.86,0.31l-233.02,53.42
	C1218.09,3086.1,1217.8,3086.13,1217.52,3086.13L1217.52,3086.13z M1246.73,2643.46c-54.94,0-107.23,26.86-137.58,72.12
	c-15.4,22.97-24.37,49.65-25.97,77.26c-2.18,35.31,6.54,70.44,24.97,100.65l111.17,184.7l225.74-51.75l-69.71-136.44
	c-0.47,0.1-0.95,0.1-1.41,0.01l-37.57-6.82c-2.02-0.36-3.37-2.29-3.01-4.32c0.35-1.97,2.21-3.32,4.19-3.03
	c8.01,1.12,19.1,3.26,33.13,5.97l4.63,0.89c0.59,0.11,1.14,0.37,1.61,0.74c0.58-0.17,1.19-0.21,1.78-0.09
	c53.99,10.36,209.39,14.74,210.91,14.78c57.85-0.1,104.72-46.97,104.77-104.79c0-56.56-43.44-101.16-103.29-106.04
	c-0.07,0-0.14-0.01-0.21-0.02l-277.09-38.39l-43.92-3.84c-0.06,0-0.12-0.01-0.18-0.02
	C1262.07,2643.98,1254.4,2643.46,1246.73,2643.46L1246.73,2643.46z"/>
<path class="st2" d="M1347.42,2388.61c16.49-7.49,25.64-25.02,40.05-39.38c19.96-19.93,30.88-34.52,28.98-40.76
	c-4.33-14.3-72.12,38.26-72.12,38.26c-9.7,4.73-19.38,9.52-29.02,14.37c-13.03,8.76-25.78,22.85-25.78,22.85
	c-22.23,23.89-21.98,61.56-20.39,77.28c0.09,1.11,0.27,2.22,0.53,3.3l50,188.53c10.3,37.81,49.32,60.12,87.15,49.83
	c13.34-3.63,25.34-11.08,34.51-21.43l72.12-82.93l-3.96-5.45l-97-87.38l-28.13-86.21l0.81-3.05c9.34-6.99,19.19-11.08,40.41-7.07
	c15.73,2.99,38.74,9.79,41.26-4.78c1.67-10.06-24.86-19.13-44.24-26.41c29.99-1.82,69.11-4.22,69.2-17.43
	c0.09-13.21-28.52-14-67.31-11.36c42.07-10.06,65.64-9.76,64.13-22.44c-1.67-14.14-42.5-11.38-77.53-4"/>
<path class="st3" d="M1388.08,2709.08c-33.67-0.05-63.15-22.59-72-55.06l-50-188.55c-0.32-1.27-0.53-2.57-0.64-3.88
	c-1.23-12.1-3.33-53.66,21.36-80.19c0.5-0.55,13.18-14.49,26.43-23.4c0.13-0.09,0.26-0.16,0.4-0.23
	c8.27-4.17,18.98-9.48,28.72-14.22c2.18-1.68,15.6-11.94,30.16-21.65c29.53-19.7,38.42-20.6,42.87-19.18
	c2.24,0.67,3.98,2.43,4.63,4.68c0.68,2.22,0.71,5.27-1.77,10.34c27.42-5.1,57.95-7.25,69.11,0.77c2.74,1.83,4.55,4.75,4.99,8.01
	c1.29,10.86-9.19,14.46-27.35,18.22c13.95,0.76,22.31,3.15,26.76,7.33c2.45,2.23,3.83,5.39,3.79,8.7
	c-0.09,13.33-22.35,17.44-55.61,19.97c17.43,6.85,32.28,14.33,30.6,24.46c-0.51,3.67-2.55,6.95-5.6,9.04
	c-7.95,5.41-21.93,2.51-34.26-0.05c-1.99-0.41-3.93-0.82-5.77-1.17c-18.59-3.51-27.68-0.65-36.45,5.64l-0.19,0.72l27.47,84.21
	l96.26,86.72c0.19,0.17,0.37,0.37,0.52,0.58l3.96,5.45c1.02,1.4,0.94,3.32-0.2,4.63l-72.12,82.94
	c-13.11,14.89-31.63,23.91-51.43,25.06C1391.17,2709.04,1389.63,2709.08,1388.08,2709.08L1388.08,2709.08z M1317.19,2364.3
	c-12.42,8.41-24.79,21.99-24.91,22.13c-22.59,24.28-20.59,63.09-19.44,74.4c0.07,0.92,0.22,1.83,0.43,2.73l50,188.53
	c9.78,35.82,46.76,56.95,82.61,47.18c12.63-3.44,23.98-10.5,32.67-20.29l70.16-80.67l-1.99-2.74l-96.71-87.12
	c-0.48-0.44-0.84-0.99-1.05-1.61l-28.13-86.21c-0.22-0.68-0.24-1.41-0.06-2.11l0.81-3.05c0.21-0.81,0.69-1.52,1.36-2.03
	c10.5-7.85,21.41-11.89,43.33-7.75c1.88,0.36,3.86,0.77,5.89,1.19c10.34,2.15,23.21,4.82,28.55,1.18c1.37-0.96,2.27-2.47,2.45-4.13
	c0.13-0.81-0.21-3.93-10.44-9.37c-7.62-4.05-18.01-7.92-27.16-11.34c-1.45-0.54-2.88-1.07-4.27-1.6c-1.92-0.73-2.89-2.87-2.16-4.8
	c0.52-1.37,1.79-2.3,3.25-2.4c15.01-0.91,32.03-1.95,45.37-4.39c18.84-3.45,20.33-8.03,20.34-9.35c0.03-1.24-0.5-2.42-1.45-3.22
	c-8.53-8.02-47.29-5.38-61.89-4.39c-2.05,0.14-3.82-1.42-3.96-3.47c-0.12-1.81,1.08-3.44,2.84-3.86
	c11.61-2.78,21.62-4.73,30.45-6.45c21.3-4.16,31.51-6.4,30.85-11.93c-0.18-1.19-0.89-2.24-1.94-2.84
	c-8.27-5.93-36.39-5.18-70.17,1.84c-4.59,6.29-11.76,14.53-22.74,25.49c-4.56,4.69-8.88,9.61-12.95,14.74
	c-8.45,10.31-16.44,20.06-28.2,25.4c-1.87,0.85-4.08,0.02-4.93-1.86c-0.85-1.87-0.02-4.08,1.86-4.93
	c10.17-4.62,17.63-13.71,25.52-23.34c4.22-5.32,8.71-10.43,13.44-15.3c27.58-27.54,28.28-35.42,28.09-36.84
	c-1.27-0.23-8.4-0.21-35.7,17.95c-15.84,10.53-30.47,21.85-30.62,21.97c-0.2,0.16-0.42,0.29-0.65,0.4
	C1336.34,2354.75,1326.75,2359.5,1317.19,2364.3z"/>
<path class="st3" d="M1372.62,2547.81c-2.06,0-3.72-1.67-3.72-3.72c0-0.94,0.36-1.85,1-2.54l38.85-41.55
	c1.4-1.5,3.76-1.58,5.26-0.18c1.5,1.4,1.58,3.76,0.18,5.26l-38.85,41.55C1374.63,2547.39,1373.65,2547.81,1372.62,2547.81
	L1372.62,2547.81z"/>
<path class="st2" d="M1516.69,2414.68l-0.26,14.01"/>
<path class="st3" d="M1516.43,2432.16l-0.07,0c-1.89-0.04-3.4-1.62-3.36-3.53l0,0l0.26-14.01c0.04-1.92,1.6-3.44,3.49-3.4
	s3.4,1.62,3.36,3.53l-0.26,14.01C1519.83,2430.64,1518.3,2432.16,1516.43,2432.16z"/>
<g>
	<g>
		<path class="st1" d="M1407.41,2376.09c0,1.88-0.34,3.69-0.97,5.34c-0.09,0.27-0.19,0.53-0.32,0.79h-27.13
			c-0.86-1.93-1.3-4.01-1.29-6.13c0-8.3,6.65-15.03,14.86-15.03c0.24,0,0.48,0.01,0.72,0.02c6.03,0.29,11.12,4.22,13.17,9.66
			c0.09,0.23,0.18,0.47,0.25,0.72C1407.16,2372.92,1407.41,2374.48,1407.41,2376.09z"/>
		<path class="st1" d="M1435.18,2376.09c0,1.87-0.34,3.68-0.96,5.33c-0.1,0.27-0.21,0.53-0.33,0.8h-27.13
			c-0.13-0.25-0.23-0.52-0.32-0.79c-0.65-1.7-0.97-3.52-0.97-5.34c0-1.63,0.25-3.19,0.73-4.66c0.07-0.23,0.15-0.46,0.24-0.68
			c1.99-5.31,6.87-9.17,12.69-9.63c0.4-0.05,0.8-0.06,1.2-0.06c0.41,0,0.81,0.01,1.21,0.06c5.82,0.46,10.7,4.34,12.69,9.64
			c0.08,0.22,0.16,0.45,0.23,0.67C1434.93,2372.9,1435.18,2374.46,1435.18,2376.09z"/>
		<path class="st1" d="M1462.96,2376.09c0,1.87-0.34,3.68-0.96,5.33c-0.1,0.27-0.22,0.53-0.33,0.8h-27.13
			c-0.11-0.27-0.23-0.53-0.32-0.8c-0.63-1.65-0.97-3.46-0.97-5.33c0-1.61,0.25-3.17,0.72-4.62c0.07-0.23,0.16-0.47,0.25-0.71
			c1.91-5.13,6.53-8.91,12.09-9.58c0.35-0.05,0.71-0.08,1.07-0.09c0.24-0.01,0.48-0.02,0.72-0.02c6.35,0,11.77,4.03,13.9,9.7
			c0.39,1.04,0.67,2.15,0.82,3.29C1462.92,2374.72,1462.96,2375.39,1462.96,2376.09z"/>
		<path class="st1" d="M1490.75,2376.09c0,1.88-0.34,3.69-0.97,5.34c-0.09,0.27-0.19,0.53-0.32,0.79h-27.13
			c-0.13-0.27-0.23-0.53-0.32-0.8c-0.87-2.31-1.16-4.8-0.85-7.25c0.15-1.19,0.42-2.32,0.85-3.41c1.2-3.23,3.47-5.92,6.38-7.64
			c2.17-1.29,4.69-2.03,7.38-2.06h0.13c6.34,0,11.76,4.02,13.89,9.69c0.4,1.04,0.67,2.14,0.82,3.28
			C1490.7,2374.7,1490.75,2375.39,1490.75,2376.09z"/>
		<path class="st1" d="M1518.52,2376.09c0,2.18-0.46,4.25-1.29,6.13h-27.13c-0.13-0.25-0.23-0.52-0.32-0.79
			c-0.65-1.7-0.97-3.52-0.97-5.34c0-0.39,0.01-0.79,0.06-1.17c0.1-1.46,0.41-2.87,0.91-4.17c1.44-3.84,4.39-6.92,8.11-8.52
			c1.77-0.75,3.73-1.17,5.77-1.17C1511.87,2361.06,1518.52,2367.79,1518.52,2376.09z"/>
		<ellipse class="st1" cx="1483.09" cy="2361.06" rx="14.86" ry="15.03"/>
		<ellipse class="st1" cx="1461.03" cy="2359.14" rx="14.86" ry="15.03"/>
		<ellipse class="st1" cx="1407.41" cy="2356.46" rx="14.86" ry="15.03"/>
		<ellipse class="st1" cx="1433.25" cy="2356.46" rx="14.86" ry="15.03"/>
		<ellipse class="st1" cx="1430.18" cy="2344.11" rx="14.86" ry="15.03"/>
	</g>
</g>
<path class="st2" d="M1379.53,2383.68h137.16c4.45,0,8.06,3.65,8.06,8.15l0,0v14.69c0,4.5-3.61,8.15-8.06,8.15l0,0h-137.16
	c-4.45,0-8.06-3.65-8.06-8.15l0,0v-14.69C1371.47,2387.33,1375.08,2383.68,1379.53,2383.68z"/>
<path class="st3" d="M1516.69,2418.14h-137.16c-6.33,0-11.49-5.21-11.49-11.62v-14.69c0-6.41,5.15-11.62,11.49-11.62h137.16
	c6.33,0,11.49,5.21,11.49,11.62v14.69C1528.17,2412.93,1523.02,2418.14,1516.69,2418.14z M1379.53,2387.15
	c-2.55,0-4.63,2.1-4.63,4.68v14.69c0,2.58,2.07,4.68,4.63,4.68h137.16c2.55,0,4.63-2.1,4.63-4.68v-14.69c0-2.58-2.07-4.68-4.63-4.68
	H1379.53z"/>
<path class="st1" d="M1367.35,2905.18c-18.06-0.01-32.69-14.66-32.69-32.73v-73.71c0.01-26.44,21.43-47.86,47.85-47.86h152.37
	l35.32-138.84c5.2-20.43,23.58-34.73,44.65-34.72h118.43c15.96,0-41.4,308.89-41.4,308.89c-2.85,11.16-12.89,18.97-24.4,18.97"/>
<rect x="1662.39" y="2580.76" class="st1" width="337.61" height="320.99"/>
<rect x="1333.86" y="2867.31" class="st1" width="666.14" height="332.69"/>
<g>
	<path class="st3" d="M2000,2573.89v6.87h-385.16c-19.5-0.01-36.51,13.23-41.31,32.13l-35.31,138.85c-0.39,1.52-1.76,2.59-3.33,2.59
		h-152.38c-11.86,0-23.01,4.61-31.39,13c-8.39,8.39-13.02,19.55-13.02,31.42V3200h-6.87v-401.24c0.01-13.72,5.34-26.6,15.03-36.29
		c9.68-9.68,22.56-15.02,36.25-15.02h149.71l34.66-136.25c5.57-21.96,25.32-37.32,47.96-37.31H2000z"/>
</g>
<path class="st17" d="M1600.28,2413.17c-37.02-0.86-77.1-1.76-78.89-1.62c-1.99,0.15-4,0.38-5.99,0.67
	c-19.57,2.81-37.61,12.2-51.12,26.63l-24.15,27.38l127.1-5.62C1567.23,2460.61,1625.7,2413.77,1600.28,2413.17z"/>
<polyline class="st5" points="1127.45,3200 1023.47,3200 1023.47,3366.42 1572.68,3493.38 1572.68,3326.96 1669,3200 1661.48,3200 
	1451.22,3200 1338.1,3200 1331.23,3200 1331.23,3218.06 "/>
</svg>
