<?xml version="1.0" encoding="utf-8"?>
<!-- Generator: Adobe Illustrator 26.1.0, SVG Export Plug-In . SVG Version: 6.00 Build 0)  -->
<svg version="1.1" id="Layer_1" xmlns="http://www.w3.org/2000/svg" xmlns:xlink="http://www.w3.org/1999/xlink" x="0px" y="0px"
	 viewBox="0 0 2000 3200" style="enable-background:new 0 0 2000 3200;" xml:space="preserve">
<style type="text/css">
	.st0{fill:#70D9D9;}
	.st1{fill:#FFFFFF;}
	.st2{fill:#FF7F36;}
	.st3{fill:#007575;}
	.st4{fill:#222433;}
	.st5{fill:#FF7F36;stroke:#FF7F36;stroke-miterlimit:10;}
	.st6{fill:#15C2C1;}
	.st7{fill:#FDA979;}
	.st8{fill:#C35515;}
	.st9{fill:none;stroke:#5A38FD;stroke-width:111.9047;stroke-miterlimit:10;}
	.st10{fill:none;stroke:#FF7F36;stroke-width:111.9047;stroke-miterlimit:10;}
	.st11{fill:none;stroke:#FFFFFF;stroke-width:9.2351;stroke-miterlimit:10;stroke-dasharray:23.0877,36.9403;}
	.st12{fill:none;stroke:#313341;stroke-width:3.8308;stroke-miterlimit:10;}
	.st13{fill:none;}
	.st14{opacity:0.75;fill:#70D9D9;}
	.st15{fill:#5A38FD;}
	.st16{fill:none;stroke:#222433;stroke-width:8.5039;stroke-miterlimit:10;stroke-dasharray:14.1732,14.1732;}
	.st17{fill:#7057FD;}
	.st18{fill:none;stroke:#222433;stroke-width:5.4074;stroke-miterlimit:10;}
	.st19{fill:#222433;stroke:#222433;stroke-width:5.4303;stroke-miterlimit:10;}
	.st20{fill:#2B292D;}
	.st21{fill:none;stroke:#C35515;stroke-width:9.9101;stroke-miterlimit:10;}
	.st22{fill:none;stroke:#C35515;stroke-width:5.6693;stroke-miterlimit:10;}
	.st23{fill:#C35515;stroke:#000000;stroke-miterlimit:10;}
	.st24{fill:#C35515;stroke:#000000;stroke-width:0.6042;stroke-miterlimit:10;}
	.st25{fill:#15C2C1;stroke:#222433;stroke-width:6.1644;stroke-miterlimit:10;}
	.st26{fill:#FFFFFF;stroke:#000000;stroke-width:6.1644;stroke-miterlimit:10;}
	.st27{fill:none;stroke:#007575;stroke-width:6.1644;stroke-miterlimit:10;}
	.st28{fill:none;stroke:#FFFFFF;stroke-width:14.1732;stroke-miterlimit:10;stroke-dasharray:23.0877,36.9403;}
	.st29{fill-rule:evenodd;clip-rule:evenodd;fill:#FDA979;}
	.st30{fill-rule:evenodd;clip-rule:evenodd;fill:#FFFFFF;}
	.st31{fill-rule:evenodd;clip-rule:evenodd;fill:#007575;}
	.st32{fill:#606060;}
	.st33{clip-path:url(#SVGID_00000143599808292078907450000004169098593687922360_);}
	.st34{fill:#222433;stroke:#222433;stroke-width:1.0471;stroke-miterlimit:10;}
	.st35{fill:#222433;stroke:#222433;stroke-width:2.2688;stroke-miterlimit:10;}
	.st36{fill:#82B1FF;}
	.st37{fill:#15C2C1;stroke:#70D9D9;stroke-width:15.652;stroke-miterlimit:10;}
	.st38{stroke:#222433;stroke-width:0.8333;stroke-miterlimit:10;}
	.st39{clip-path:url(#SVGID_00000039840532105396849270000009042323024544805311_);}
	.st40{clip-path:url(#SVGID_00000039840532105396849270000009042323024544805311_);fill:#FF7F36;}
	.st41{clip-path:url(#SVGID_00000039840532105396849270000009042323024544805311_);fill:#C35515;}
	.st42{fill:#222433;stroke:#222433;stroke-width:0.791;stroke-miterlimit:10;}
	.st43{fill-rule:evenodd;clip-rule:evenodd;fill:#FF7F36;}
	.st44{fill-rule:evenodd;clip-rule:evenodd;fill:#15C2C1;}
	.st45{fill:none;stroke:#FF7F36;stroke-width:11.3386;stroke-miterlimit:10;}
	.st46{fill:none;stroke:#FF7F36;stroke-width:9.6934;stroke-miterlimit:10;}
	.st47{opacity:0.44;fill:#FDA979;}
	.st48{fill:none;stroke:#70D9D9;stroke-width:8.5039;stroke-miterlimit:10;stroke-dasharray:11.5087,11.5098;}
	.st49{opacity:0.75;fill:#007575;}
	.st50{clip-path:url(#SVGID_00000165197113610492446530000017959442510714378664_);}
	.st51{fill:none;stroke:#FF7F36;stroke-miterlimit:10;}
	.st52{clip-path:url(#SVGID_00000031919508607983723540000011231229995989733027_);}
	.st53{stroke:#70D9D9;stroke-width:8.5039;stroke-miterlimit:10;}
	.st54{fill:#FDA979;stroke:#222433;stroke-width:17.0079;stroke-miterlimit:10;}
	.st55{clip-path:url(#SVGID_00000181792675286994511900000009690593349137385867_);}
	.st56{fill:none;stroke:#222433;stroke-width:16.1222;stroke-linecap:round;stroke-miterlimit:10;}
	.st57{clip-path:url(#SVGID_00000132079231096707295580000015474328976188250041_);fill:#15C2C1;}
	.st58{clip-path:url(#SVGID_00000132079231096707295580000015474328976188250041_);fill:#C35515;}
	
		.st59{clip-path:url(#SVGID_00000132079231096707295580000015474328976188250041_);fill:#15C2C1;stroke:#000000;stroke-width:8.2755;stroke-miterlimit:10;}
	.st60{clip-path:url(#SVGID_00000132079231096707295580000015474328976188250041_);fill:#FF7F36;}
	
		.st61{clip-path:url(#SVGID_00000132079231096707295580000015474328976188250041_);fill:#15C2C1;stroke:#000000;stroke-width:8.5039;stroke-miterlimit:10;}
	
		.st62{clip-path:url(#SVGID_00000132079231096707295580000015474328976188250041_);fill:none;stroke:#000000;stroke-width:8.5039;stroke-miterlimit:10;}
	
		.st63{clip-path:url(#SVGID_00000132079231096707295580000015474328976188250041_);fill:#FFFFFF;stroke:#000000;stroke-width:8.5039;stroke-miterlimit:10;}
	.st64{clip-path:url(#SVGID_00000132079231096707295580000015474328976188250041_);}
	.st65{fill:none;stroke:#000000;stroke-width:8.2815;stroke-linecap:round;stroke-miterlimit:10;}
	
		.st66{clip-path:url(#SVGID_00000132079231096707295580000015474328976188250041_);fill:#FFFFFF;stroke:#000000;stroke-width:8.7446;stroke-miterlimit:10;}
	.st67{clip-path:url(#SVGID_00000132079231096707295580000015474328976188250041_);fill:none;}
	.st68{clip-path:url(#SVGID_00000058586613929561892380000009474725936654598843_);fill:#FF7F36;}
	.st69{clip-path:url(#SVGID_00000058586613929561892380000009474725936654598843_);}
	
		.st70{clip-path:url(#SVGID_00000058586613929561892380000009474725936654598843_);fill:none;stroke:#5A38FD;stroke-width:111.9047;stroke-miterlimit:10;}
	.st71{clip-path:url(#SVGID_00000087376823557915933540000000831070157111888277_);}
	
		.st72{opacity:0.57;clip-path:url(#SVGID_00000087376823557915933540000000831070157111888277_);fill:none;stroke:#FFFFFF;stroke-width:32.7065;stroke-linecap:round;stroke-miterlimit:10;}
	.st73{fill:#222433;stroke:#000000;stroke-width:7.0866;stroke-miterlimit:10;}
	
		.st74{clip-path:url(#SVGID_00000087376823557915933540000000831070157111888277_);fill:#222433;stroke:#222433;stroke-width:163.17;stroke-miterlimit:10;}
	.st75{fill:none;stroke:#000000;stroke-width:7.0866;stroke-miterlimit:10;}
	
		.st76{clip-path:url(#SVGID_00000087376823557915933540000000831070157111888277_);fill:#70D9D9;stroke:#000000;stroke-width:2.8346;stroke-linecap:round;stroke-miterlimit:10;}
	.st77{clip-path:url(#SVGID_00000020374121022136335730000016019172194516922515_);fill:#FFFFFF;}
	.st78{clip-path:url(#SVGID_00000020374121022136335730000016019172194516922515_);fill:#222433;}
	.st79{clip-path:url(#SVGID_00000020374121022136335730000016019172194516922515_);fill:#15C2C1;}
	.st80{clip-path:url(#SVGID_00000020374121022136335730000016019172194516922515_);fill:#FDA979;}
	.st81{clip-path:url(#SVGID_00000020374121022136335730000016019172194516922515_);}
	.st82{clip-path:url(#SVGID_00000020374121022136335730000016019172194516922515_);fill:#FF7F36;}
	.st83{clip-path:url(#SVGID_00000020374121022136335730000016019172194516922515_);fill:#C35515;}
	.st84{clip-path:url(#SVGID_00000069376783898904916730000011684661345263352504_);}
</style>
<g>
	<defs>
		<rect id="SVGID_00000013901495959407729300000014580062761572310955_" x="103.48" y="1201.9" width="1896.52" height="1995.87"/>
	</defs>
	<clipPath id="SVGID_00000091008135834888133730000002495781669527566734_">
		<use xlink:href="#SVGID_00000013901495959407729300000014580062761572310955_"  style="overflow:visible;"/>
	</clipPath>
	<g style="clip-path:url(#SVGID_00000091008135834888133730000002495781669527566734_);">
		<g transform="translate(1137.0 489.0) rotate(0.0 229.0 211.0) scale(1.0142976099782082 1.0127359950851107)">
			<path class="st1" d="M146.96,1790.51l39.37-82.44l-85.93,31.17l-6.67,6.06l46.56,51.27L146.96,1790.51z"/>
			<path class="st4" d="M140.29,1798.75h-0.1c-0.58-0.03-1.12-0.28-1.51-0.71l-46.56-51.27c-0.81-0.89-0.74-2.27,0.15-3.08
				c0,0,0,0,0,0l6.67-6.06c0.21-0.19,0.45-0.34,0.72-0.44l85.93-31.17c1.13-0.41,2.38,0.17,2.79,1.3c0.2,0.55,0.17,1.15-0.08,1.68
				l-39.37,82.44c-0.12,0.25-0.29,0.48-0.5,0.67l-6.67,6.06C141.35,1798.55,140.83,1798.75,140.29,1798.75z M96.81,1745.45
				l43.63,48.04l4.74-4.3l36.9-77.26l-80.53,29.21L96.81,1745.45z"/>
			<path class="st1" d="M113.19,1758.86l15.48,17.05l-237.31,215.51l-15.48-17.05L113.19,1758.86z"/>
			<path class="st4" d="M-108.69,1993.74h-0.1c-0.58-0.03-1.12-0.28-1.51-0.71l-15.49-17.05c-0.81-0.89-0.74-2.27,0.15-3.07
				l237.41-215.61c0.89-0.81,2.27-0.74,3.08,0.15c0,0,0,0,0,0l15.49,17.05c0.81,0.89,0.74,2.27-0.15,3.07l-237.41,215.61
				C-107.62,1993.54-108.15,1993.74-108.69,1993.74z M-121.1,1974.65l12.56,13.84l234.18-212.68l-12.56-13.83L-121.1,1974.65z"/>
			<path class="st1" d="M-108.69,1991.56l18.24,14.56l237.4-215.6l-18.24-14.56L-108.69,1991.56z"/>
			<path class="st4" d="M-90.45,2008.29c-0.49,0-0.97-0.17-1.36-0.48l-18.24-14.56c-0.94-0.75-1.09-2.12-0.34-3.06
				c0.07-0.09,0.15-0.18,0.24-0.25l237.41-215.6c0.79-0.72,1.99-0.76,2.82-0.09l18.24,14.56c0.94,0.75,1.09,2.12,0.34,3.06
				c-0.07,0.09-0.15,0.18-0.24,0.25l-237.4,215.6C-89.38,2008.09-89.91,2008.29-90.45,2008.29z M-105.33,1991.45l14.79,11.81
				l234.14-212.64l-14.8-11.81L-105.33,1991.45z"/>
			<path class="st1" d="M-124.27,1974.41l-12.74-19.56l237.4-215.6l12.74,19.56L-124.27,1974.41z"/>
			<g>
				<path class="st4" d="M-124.27,1976.59c-0.09,0-0.19-0.01-0.28-0.02c-0.63-0.08-1.2-0.44-1.55-0.97l-12.74-19.56
					c-0.58-0.9-0.43-2.08,0.36-2.8l237.4-215.6c0.89-0.81,2.27-0.74,3.08,0.15c0.08,0.09,0.15,0.18,0.21,0.28l12.74,19.56
					c0.58,0.9,0.43,2.08-0.36,2.8l-237.4,215.6C-123.2,1976.38-123.73,1976.58-124.27,1976.59z M-134.17,1955.22l10.33,15.86
					l234.14-212.64l-10.33-15.86L-134.17,1955.22z M169.58,1742.31l16.02-33.54l-34.94,12.67c1.76,4.49,4.33,8.61,7.57,12.18
					C161.46,1737.18,165.31,1740.12,169.58,1742.31z"/>
			</g>
		</g>
		<g transform="translate(337.0 320.0) rotate(0.0 146.5 165.5) scale(0.9979801970755433 0.9978686009038097)">
			<path class="st2" d="M173.65,1879.06l1.51-1.23c6.4-5.21,15.8-4.25,21.01,2.15l91.97,112.93c5.21,6.4,4.25,15.8-2.15,21.01
				l-1.51,1.23c-6.4,5.21-15.8,4.25-21.01-2.15l-91.97-112.93C166.29,1893.68,167.26,1884.27,173.65,1879.06z"/>
			<ellipse class="st2" cx="153.79" cy="1853.14" rx="75.22" ry="75.21"/>
			<ellipse class="st1" cx="153.79" cy="1853.14" rx="54.99" ry="54.98"/>
			<path class="st4" d="M153.9,1910.42c-1.98,0-3.96-0.1-5.93-0.3c-31.37-3.25-54.17-31.31-50.93-62.68
				c3.25-31.37,31.31-54.17,62.68-50.93c31.37,3.25,54.17,31.31,50.93,62.68C207.64,1888.28,183.14,1910.39,153.9,1910.42z
				 M153.69,1800.21c-29.23,0.05-52.89,23.79-52.84,53.02s23.79,52.89,53.02,52.84c29.23-0.05,52.89-23.79,52.84-53.02
				c-0.02-12.15-4.22-23.92-11.89-33.34c-8.84-10.91-21.68-17.84-35.65-19.23C157.35,1800.3,155.52,1800.21,153.69,1800.21z"/>
			<path d="M176.65,1829.77h-47.8c-1.2,0-2.18-0.97-2.18-2.18s0.97-2.18,2.18-2.18h47.8c1.2,0,2.18,0.97,2.18,2.18
				S177.85,1829.77,176.65,1829.77L176.65,1829.77z M148.86,1854.78h-27.24c-1.2,0-2.18-0.97-2.18-2.18s0.97-2.18,2.18-2.18h27.24
				c1.2,0,2.18,0.97,2.18,2.18S150.06,1854.78,148.86,1854.78L148.86,1854.78z M185.54,1854.78H172.2c-1.2,0-2.18-0.97-2.18-2.18
				s0.97-2.18,2.18-2.18h13.34c1.2,0,2.18,0.97,2.18,2.18S186.74,1854.78,185.54,1854.78z M168.87,1879.8h-31.13
				c-1.2,0-2.18-0.97-2.18-2.18s0.97-2.18,2.18-2.18h31.13c1.2,0,2.18,0.97,2.18,2.18S170.07,1879.8,168.87,1879.8z"/>
		</g>
		<g transform="translate(371.0 569.0) rotate(-11.62715606680704 131.0 131.0) scale(1.3413266847216747 1.3413266847216747)">
			<circle class="st1" cx="-129.13" cy="1321.93" r="68.7"/>
			<path class="st4" d="M-129.18,1392.8c-39.14-0.03-70.85-31.79-70.82-70.93c0.01-18.04,6.91-35.39,19.27-48.53
				c26.83-28.5,71.69-29.85,100.19-3.02s29.85,71.69,3.02,100.19c-12.88,13.69-30.68,21.69-49.47,22.26
				C-127.72,1392.79-128.45,1392.8-129.18,1392.8L-129.18,1392.8z M-177.56,1276.33c-25.18,26.75-23.91,68.85,2.84,94.03
				c26.75,25.18,68.85,23.91,94.03-2.84s23.91-68.85-2.84-94.03c-12.85-12.09-29.97-18.59-47.6-18.06
				C-148.76,1255.98-165.46,1263.49-177.56,1276.33z"/>
			<path class="st7" d="M-153.32,1292.33l5.91,5.56c4.79-4.36,10.63-7.4,16.95-8.83l2.25,8.72c-4.68,1.18-9.04,3.34-12.81,6.36
				l12.05,11.35c7.66-6.2,16.8-9.87,24.28-2.61c7.24,7.04,6.02,17.03-0.05,25.41l6.27,5.9l-5.67,6.02l-6.15-5.79
				c-5.47,4.85-12.73,8.93-19.38,9.72l-2.02-8.72c5.52-0.85,10.68-3.24,14.9-6.89l-12.05-11.34l-0.69,0.49
				c-7.32,5.84-16.23,9.27-23.72,1.77c-7-6.82-6.12-16.68,0.06-25.18l-6.02-5.67L-153.32,1292.33z M-135.49,1320.48l-10.97-10.33
				c-3.02,4.66-3.24,9-0.34,11.96C-143.91,1324.83-140.42,1324.02-135.49,1320.48z M-122.1,1321.71l10.97,10.33
				c2.91-4.54,3.36-9.12,0.46-12.08C-113.33,1317.47-117.17,1318.4-122.1,1321.71L-122.1,1321.71z"/>
			<path class="st4" d="M-129.14,1374.57c-29.07,0.01-52.65-23.55-52.66-52.62c-0.01-13.43,5.12-26.35,14.33-36.12
				c19.92-21.19,53.25-22.22,74.45-2.3c21.19,19.92,22.22,53.25,2.3,74.45C-100.69,1368.57-114.59,1374.58-129.14,1374.57z
				 M-164.3,1288.81c-18.29,19.43-17.37,50,2.06,68.29c19.43,18.29,50,17.37,68.29-2.06s17.37-50-2.06-68.29
				c-9.33-8.78-21.76-13.5-34.57-13.11C-143.39,1274.03-155.51,1279.49-164.3,1288.81z"/>
		</g>
		<g transform="translate(279.0 772.0) rotate(0.0 259.0 122.5) scale(0.9988006679238445 0.997463592578871)">
			<g>
				<g>
					<path class="st7" d="M95.37,1662.58v-8.39h270.96v45.96H95.37v-8.39h110.87v-29.19H95.37z"/>
					<g>
						<path class="st1" d="M102,1662.43h109.56v29.49H102V1662.43z"/>
						<path class="st4" d="M211.56,1694.1H102c-1.2,0-2.18-0.97-2.18-2.18v-29.49c0-1.2,0.97-2.18,2.18-2.18h109.56
							c1.2,0,2.18,0.97,2.18,2.18v29.49C213.74,1693.13,212.76,1694.1,211.56,1694.1z M104.17,1689.75h105.21v-25.14H104.17
							L104.17,1689.75z"/>
					</g>
				</g>
				<g>
					<g>
						<path class="st1" d="M106.3,1827.64v-46.41l338.3-0.22v46.28L106.3,1827.64z"/>
						<path class="st4" d="M106.3,1829.81c-1.2,0-2.18-0.97-2.18-2.18v-46.41c0-1.2,0.97-2.18,2.18-2.18l338.3-0.22
							c1.2,0,2.18,0.97,2.18,2.18v46.28c0,1.2-0.97,2.18-2.18,2.18L106.3,1829.81L106.3,1829.81z M108.48,1783.4v42.06l333.94-0.35
							v-41.93L108.48,1783.4z"/>
					</g>
					<path class="st7" d="M448.89,1775.91v56.53H94.28v-8.82h346.56v-38.9H94.28v-8.82H448.89L448.89,1775.91z"/>
					<path class="st36" d="M312.03,1775.91h5.51v56.53h-5.51V1775.91z"/>
				</g>
				<g>
					<path class="st2" d="M151.04,1714.54h108.62v49.05H151.04V1714.54z"/>
					<g>
						<path class="st1" d="M468.47,1702.26v73.62H143.68l-0.02-12.28h115.98v-49.05H143.6l-0.02-12.19H467.9"/>
						<path class="st4" d="M468.47,1778.05H143.68c-1.2,0-2.18-0.97-2.18-2.18l-0.02-12.28c0-1.2,0.97-2.18,2.18-2.18h113.81v-44.7
							H143.6c-1.2,0-2.18-0.97-2.18-2.18l-0.02-12.19c0-1.2,0.97-2.18,2.18-2.18h324.25c1.15-0.35,2.37,0.29,2.72,1.44
							c0.06,0.21,0.1,0.42,0.1,0.64v73.62C470.65,1777.07,469.68,1778.05,468.47,1778.05z M145.86,1773.7H466.3v-69.17H145.76
							l0.01,7.83h113.88c1.2,0,2.18,0.97,2.18,2.18v49.05c0,1.2-0.97,2.18-2.18,2.18h-113.8L145.86,1773.7z"/>
					</g>
					<path class="st4" d="M310.32,1778.05c-1.2,0-2.18-0.97-2.18-2.18v-71.6c0-1.2,0.97-2.18,2.18-2.18c1.2,0,2.18,0.97,2.18,2.18
						v71.6C312.5,1777.07,311.52,1778.05,310.32,1778.05z"/>
				</g>
			</g>
		</g>
		<g transform="translate(540.0 83.0) rotate(0.0 136.0 137.0) scale(0.9997757855774992 0.9966789493403367)">
			<path class="st1" d="M154.01,1847.93c-12.73,3.07-20.59,15.84-17.6,28.59l16.61,69.85l-63.74-67.45
				c-9.02-9.49-24.01-9.92-33.56-0.95c-9.49,9.02-9.92,24.01-0.95,33.56l54.6,57.79l-54.09-16.15
				c-12.56-3.71-25.75,3.42-29.54,15.95c-3.71,12.56,3.42,25.75,15.95,29.54l143.36,42.8c8.66,2.56,18.02,0,24.17-6.6
				c6.95-5.77,10.03-14.97,7.96-23.76l-34.61-145.56C179.52,1852.8,166.75,1844.94,154.01,1847.93L154.01,1847.93z"/>
			<path d="M191.72,2044.6c-2.47,0-4.92-0.35-7.28-1.06l-143.36-42.8c-13.71-4.1-21.51-18.54-17.41-32.25
				c4.1-13.71,18.53-21.5,32.24-17.41l46.3,13.82l-49.02-51.88c-9.83-10.4-9.36-26.81,1.04-36.63c10.4-9.83,26.81-9.36,36.63,1.04
				l58.16,61.55l-14.73-61.95c-3.31-13.92,5.29-27.9,19.22-31.21c13.92-3.31,27.9,5.29,31.21,19.22l34.62,145.55
				c2.21,9.54-1.11,19.52-8.59,25.85C205.79,2041.64,198.91,2044.6,191.72,2044.6L191.72,2044.6z M48.52,1954.35
				c-11.91-0.01-21.57,9.63-21.59,21.54c-0.01,9.54,6.25,17.96,15.4,20.69l143.36,42.8c7.87,2.29,16.35-0.03,21.96-6.01
				c0.06-0.07,0.13-0.13,0.2-0.19c6.28-5.26,9.08-13.6,7.24-21.58l-34.61-145.55c-2.76-11.58-14.38-18.73-25.96-15.99l-0.5-2.12
				l0.5,2.12c-11.58,2.77-18.73,14.38-15.99,25.96l16.61,69.85c0.28,1.17-0.44,2.34-1.61,2.62c-0.76,0.18-1.55-0.06-2.09-0.62
				l-63.73-67.45c-8.18-8.66-21.82-9.04-30.48-0.86s-9.04,21.82-0.86,30.48l54.6,57.79c0.83,0.87,0.79,2.25-0.09,3.08
				c-0.57,0.53-1.37,0.73-2.12,0.5l-54.09-16.15C52.67,1954.65,50.6,1954.35,48.52,1954.35z"/>
			<path d="M199.99,2027.43c-0.58,0-1.14-0.23-1.55-0.65L76.94,1903.59c-0.83-0.87-0.8-2.25,0.07-3.08c0.85-0.81,2.19-0.8,3.03,0.02
				l121.49,123.19c0.84,0.86,0.83,2.23-0.02,3.08C201.11,2027.2,200.56,2027.43,199.99,2027.43L199.99,2027.43z"/>
			<path d="M199.98,2027.43c-0.99,0-1.85-0.67-2.1-1.63l-39.81-152.32c-0.35-1.15,0.3-2.37,1.45-2.72c1.15-0.35,2.37,0.3,2.72,1.45
				c0.02,0.06,0.03,0.11,0.04,0.17l39.81,152.32c0.3,1.16-0.39,2.35-1.55,2.66C200.35,2027.41,200.17,2027.43,199.98,2027.43
				L199.98,2027.43z"/>
			<path d="M200.03,2027.39c-0.23,0-0.45-0.04-0.67-0.11l-149.82-48.38c-1.15-0.35-1.8-1.57-1.45-2.72c0.35-1.15,1.57-1.8,2.72-1.45
				c0.02,0.01,0.05,0.01,0.07,0.02l149.82,48.38c1.14,0.37,1.77,1.6,1.4,2.74C201.81,2026.78,200.97,2027.39,200.03,2027.39
				L200.03,2027.39z"/>
		</g>
		<g transform="translate(1706.0 816.0) rotate(16.812093934106844 -114.5 115.0) scale(-0.8417229959457623 0.8366283151396987)">
			<path class="st1" d="M-80.93,1970.43c-12.73,3.07-20.59,15.84-17.6,28.59l16.61,69.85l-63.74-67.45
				c-9.02-9.49-24.01-9.92-33.56-0.95c-9.49,9.02-9.92,24.01-0.95,33.56l54.6,57.79l-54.09-16.15
				c-12.56-3.71-25.75,3.42-29.54,15.95c-3.71,12.56,3.42,25.75,15.95,29.54l143.36,42.8c8.66,2.56,18.02,0,24.17-6.6
				c6.95-5.77,10.03-14.97,7.96-23.76l-34.61-145.56C-55.41,1975.3-68.18,1967.44-80.93,1970.43L-80.93,1970.43z"/>
			<path d="M-43.21,2167.1c-2.47,0-4.92-0.35-7.28-1.06l-143.36-42.8c-13.71-4.1-21.51-18.54-17.41-32.25
				c4.1-13.71,18.53-21.5,32.24-17.41l46.3,13.82l-49.02-51.88c-9.83-10.4-9.36-26.81,1.04-36.63s26.81-9.36,36.63,1.04l58.16,61.55
				l-14.73-61.95c-3.31-13.92,5.29-27.9,19.22-31.21c13.92-3.31,27.9,5.29,31.21,19.22l34.62,145.55
				c2.21,9.54-1.11,19.52-8.59,25.85C-29.15,2164.14-36.02,2167.09-43.21,2167.1L-43.21,2167.1z M-186.42,2076.84
				c-11.91-0.01-21.57,9.63-21.59,21.54c-0.01,9.54,6.25,17.96,15.4,20.69l143.36,42.8c7.87,2.29,16.35-0.03,21.96-6.01
				c0.06-0.07,0.13-0.13,0.2-0.19c6.28-5.26,9.08-13.6,7.24-21.58l-34.61-145.55c-2.76-11.58-14.38-18.73-25.96-15.99l-0.5-2.12
				l0.5,2.12c-11.58,2.77-18.73,14.38-15.99,25.96l16.61,69.85c0.28,1.17-0.44,2.34-1.61,2.62c-0.76,0.18-1.55-0.06-2.09-0.62
				l-63.73-67.45c-8.18-8.66-21.82-9.04-30.48-0.86c-8.66,8.18-9.04,21.82-0.86,30.48l54.6,57.79c0.83,0.87,0.79,2.25-0.09,3.08
				c-0.57,0.53-1.37,0.73-2.12,0.5l-54.09-16.15C-182.27,2077.15-184.34,2076.84-186.42,2076.84z"/>
			<path d="M-34.95,2149.93c-0.58,0-1.14-0.23-1.55-0.65l-121.49-123.19c-0.83-0.87-0.8-2.25,0.07-3.08
				c0.85-0.81,2.19-0.8,3.03,0.02l121.49,123.19c0.84,0.86,0.83,2.23-0.02,3.08C-33.83,2149.7-34.38,2149.93-34.95,2149.93
				L-34.95,2149.93z"/>
			<path d="M-34.95,2149.93c-0.99,0-1.85-0.67-2.1-1.63l-39.81-152.32c-0.35-1.15,0.3-2.37,1.45-2.72c1.15-0.35,2.37,0.3,2.72,1.45
				c0.02,0.06,0.03,0.11,0.04,0.17l39.81,152.32c0.3,1.16-0.39,2.35-1.55,2.66C-34.58,2149.9-34.77,2149.93-34.95,2149.93
				L-34.95,2149.93z"/>
			<path d="M-34.91,2149.89c-0.23,0-0.45-0.04-0.67-0.11l-149.82-48.38c-1.15-0.35-1.8-1.57-1.45-2.72c0.35-1.15,1.57-1.8,2.72-1.45
				c0.02,0.01,0.05,0.01,0.07,0.02l149.82,48.38c1.14,0.37,1.77,1.6,1.4,2.74C-33.13,2149.28-33.96,2149.89-34.91,2149.89
				L-34.91,2149.89z"/>
		</g>
		<g transform="translate(553.0 93.0) rotate(0.0 404.5 462.0) scale(1.0018873625965354 1.0007429758457036)">
			<path class="st2" d="M290.35,1834.88h43.25c16.1,0,29.16,13.05,29.16,29.16v3.8c0,16.1-13.05,29.16-29.16,29.16h-43.25
				c-16.1,0-29.16-13.05-29.16-29.16v-3.8C261.19,1847.93,274.25,1834.88,290.35,1834.88z"/>
			<path class="st1" d="M264.68,1862.94h94.59c19.36,0,35.05,15.69,35.05,35.05v4.57c0,19.36-15.69,35.05-35.05,35.05h-94.59
				c-19.36,0-35.05-15.69-35.05-35.05v-4.57C229.63,1878.63,245.32,1862.94,264.68,1862.94z"/>
			<path class="st4" d="M359.27,1939.78h-94.59c-20.55-0.02-37.2-16.68-37.22-37.22v-4.57c0.02-20.55,16.68-37.2,37.22-37.22h94.59
				c20.55,0.02,37.2,16.68,37.22,37.23v4.57C396.47,1923.11,379.82,1939.76,359.27,1939.78L359.27,1939.78z M264.68,1865.12
				c-18.14,0.02-32.85,14.72-32.87,32.87v4.57c0.02,18.14,14.72,32.85,32.87,32.87h94.59c18.15-0.02,32.85-14.73,32.87-32.87v-4.57
				c-0.02-18.14-14.72-32.85-32.87-32.87L264.68,1865.12z"/>
			<path class="st2" d="M265.48,2300.34l3.6,2.08c15.24,8.8,20.47,28.29,11.67,43.53l-82.6,143.07
				c-8.8,15.24-28.29,20.47-43.53,11.67l-3.6-2.08c-15.24-8.8-20.47-28.29-11.67-43.53l82.6-143.07
				C230.74,2296.76,250.24,2291.54,265.48,2300.34z"/>
			<path class="st2" d="M473.16,2498.62l-3.6,2.08c-15.24,8.8-34.73,3.58-43.53-11.66l-82.6-143.07
				c-8.8-15.24-3.58-34.73,11.66-43.53l3.6-2.08c15.24-8.8,34.73-3.58,43.53,11.66l82.6,143.07
				C493.63,2470.33,488.41,2489.82,473.16,2498.62z"/>
			<ellipse class="st2" cx="311.98" cy="2185.6" rx="293.55" ry="293.21"/>
			<ellipse class="st1" cx="312.98" cy="2181.26" rx="246.29" ry="246.01"/>
			<g>
				<path class="st4" d="M312.98,2429.27c-136.97,0-248.01-111.03-248.01-248c0-136.97,111.03-248.01,248-248.01
					s248.01,111.03,248.01,248c0,65.78-26.13,128.86-72.64,175.37C441.94,2403.29,378.79,2429.44,312.98,2429.27L312.98,2429.27z
					 M312.98,1937.61c-134.57,0-243.66,109.09-243.66,243.65s109.09,243.66,243.65,243.66s243.66-109.09,243.66-243.65
					c0-64.62-25.67-126.6-71.36-172.29C439.68,1963.13,377.64,1937.43,312.98,1937.61z"/>
				<path class="st4" d="M311.98,1984.84c-1.2,0-2.18-0.97-2.18-2.18v-45.06c0-1.2,0.97-2.18,2.18-2.18c1.2,0,2.18,0.97,2.18,2.18
					v45.06C314.15,1983.87,313.18,1984.84,311.98,1984.84z M556.75,2183.26H530.7c-1.2,0-2.18-0.97-2.18-2.18s0.97-2.18,2.18-2.18
					h26.05c1.2,0,2.18,0.97,2.18,2.18S557.95,2183.26,556.75,2183.26z M311.98,2428.53c-1.2,0-2.18-0.97-2.18-2.18v-45.67
					c0-1.2,0.97-2.18,2.18-2.18c1.2,0,2.18,0.97,2.18,2.18v45.67C314.15,2427.55,313.18,2428.53,311.98,2428.53z"/>
			</g>
			<path class="st6" d="M219.17,2084.83l4.14-3.95c0.91-0.87,2.35-0.83,3.22,0.07l98.53,103.16c0.87,0.91,0.83,2.35-0.07,3.22
				l-4.14,3.95c-0.91,0.87-2.35,0.83-3.22-0.07l-98.53-103.16C218.23,2087.14,218.26,2085.7,219.17,2084.83z"/>
			<path class="st6" d="M210.58,2074.41l5.96,24.49c0.28,1.16,1.46,1.88,2.62,1.59c0.37-0.09,0.71-0.28,0.98-0.54l18.23-17.41
				c0.87-0.83,0.9-2.2,0.07-3.06c-0.26-0.28-0.59-0.48-0.96-0.58l-24.19-7.08c-1.15-0.34-2.35,0.32-2.69,1.47
				C210.5,2073.66,210.49,2074.04,210.58,2074.41L210.58,2074.41z"/>
			<path class="st6" d="M498.09,2178.41v5.72c0,1.26-1.02,2.27-2.27,2.27h-192.9c-1.26,0-2.27-1.02-2.27-2.27v-5.72
				c0-1.26,1.02-2.27,2.27-2.27h192.9C497.07,2176.14,498.09,2177.16,498.09,2178.41z"/>
			<path class="st6" d="M502.43,2179.4l-21.83-12.6c-1.04-0.6-2.36-0.24-2.96,0.79c-0.19,0.33-0.29,0.7-0.29,1.08v25.21
				c0,1.2,0.97,2.17,2.17,2.17c0.38,0,0.75-0.1,1.08-0.29l21.83-12.61c1.04-0.6,1.39-1.93,0.79-2.96
				C503.03,2179.86,502.76,2179.59,502.43,2179.4L502.43,2179.4z"/>
			<ellipse class="st4" cx="312.25" cy="2179.64" rx="15.42" ry="15.41"/>
		</g>
		<g transform="translate(1164.0 680.0) rotate(0.0 183.5 167.5) scale(0.9998065769292589 0.9992662104842415)">
			<path class="st7" d="M-124.79,1690.79H93.96c13.04,0,23.6,10.57,23.6,23.6v205.36h-265.95v-205.36
				C-148.39,1701.36-137.82,1690.79-124.79,1690.79z"/>
			<path class="st1" d="M-122.83,1690.68H92c13.04,0,23.6,10.57,23.6,23.6v18.41h-262.03v-18.41
				C-146.43,1701.25-135.86,1690.68-122.83,1690.68C-122.83,1690.68-122.83,1690.68-122.83,1690.68z"/>
			<path class="st4" d="M115.6,1734.87h-262.03c-1.2,0-2.18-0.97-2.18-2.18v-18.41c0.02-14.23,11.55-25.76,25.78-25.78H92
				c14.23,0.02,25.77,11.55,25.78,25.78v18.41C117.78,1733.9,116.81,1734.87,115.6,1734.87L115.6,1734.87z M-144.25,1730.52h257.68
				v-16.23c-0.01-11.83-9.6-21.41-21.43-21.43h-214.82c-11.83,0.01-21.41,9.6-21.43,21.43V1730.52z"/>
			<path class="st1" d="M-115.84,1766.64h33.58v33.58h-33.58V1766.64z"/>
			<path class="st4" d="M-82.26,1802.4h-33.58c-1.2,0-2.18-0.97-2.18-2.18v-33.58c0-1.2,0.97-2.18,2.18-2.18h33.58
				c1.2,0,2.18,0.97,2.18,2.18v33.58C-80.09,1801.42-81.06,1802.4-82.26,1802.4z M-113.66,1798.04h29.22v-29.22h-29.22V1798.04z"/>
			<path class="st1" d="M-59.6,1766.64h33.58v33.58H-59.6V1766.64z"/>
			<path class="st4" d="M-26.02,1802.4H-59.6c-1.2,0-2.18-0.97-2.18-2.18v-33.58c0-1.2,0.97-2.18,2.18-2.18h33.58
				c1.2,0,2.18,0.97,2.18,2.18v33.58C-23.84,1801.42-24.82,1802.4-26.02,1802.4z M-57.42,1798.04h29.22v-29.22h-29.22V1798.04z"/>
			<path class="st6" d="M-3.35,1766.64h33.58v33.58H-3.35V1766.64z M52.89,1766.64h33.58v33.58H52.89V1766.64z"/>
			<path class="st1" d="M-115.84,1829.78h33.58v33.58h-33.58V1829.78z"/>
			<path class="st4" d="M-82.26,1865.53h-33.58c-1.2,0-2.18-0.97-2.18-2.18v-33.58c0-1.2,0.97-2.18,2.18-2.18h33.58
				c1.2,0,2.18,0.97,2.18,2.18v33.58C-80.09,1864.56-81.06,1865.53-82.26,1865.53z M-113.66,1861.18h29.22v-29.22h-29.22V1861.18z"
				/>
			<path class="st1" d="M-59.6,1829.78h33.58v33.58H-59.6V1829.78z"/>
			<path class="st4" d="M-59.6,1865.53c-1.2,0-2.18-0.97-2.18-2.18v-33.58c0-1.2,0.97-2.18,2.18-2.18h33.58
				c1.2,0,2.18,0.97,2.18,2.18v33.58c0,1.2-0.97,2.18-2.18,2.18L-59.6,1865.53z M-57.42,1831.96v29.22h29.22v-29.22L-57.42,1831.96z
				"/>
			<path class="st1" d="M-3.35,1829.78h33.58v33.58H-3.35V1829.78z"/>
			<path class="st4" d="M30.23,1865.53H-3.35c-1.2,0-2.18-0.97-2.18-2.18v-33.58c0-1.2,0.97-2.18,2.18-2.18h33.58
				c1.2,0,2.18,0.97,2.18,2.18v33.58C32.4,1864.56,31.43,1865.53,30.23,1865.53z M-1.17,1861.18h29.22v-29.22H-1.17V1861.18z"/>
			<path class="st1" d="M52.89,1829.78h33.58v33.58H52.89V1829.78z"/>
			<path class="st4" d="M86.47,1865.53H52.89c-1.2,0-2.18-0.97-2.18-2.18v-33.58c0-1.2,0.97-2.18,2.18-2.18h33.58
				c1.2,0,2.18,0.97,2.18,2.18v33.58C88.65,1864.56,87.67,1865.53,86.47,1865.53z M55.07,1861.18h29.22v-29.22H55.07V1861.18z"/>
			<g>
				<path class="st36" d="M-116.81,1676.46h0.51c2.18,0,3.94,1.76,3.94,3.94v20.97c0,2.18-1.76,3.94-3.94,3.94h-0.51
					c-2.18,0-3.94-1.76-3.94-3.94v-20.97C-120.75,1678.23-118.99,1676.46-116.81,1676.46z"/>
				<path class="st36" d="M-83.23,1676.46h0.51c2.18,0,3.94,1.76,3.94,3.94v20.97c0,2.18-1.76,3.94-3.94,3.94h-0.51
					c-2.18,0-3.94-1.76-3.94-3.94v-20.97C-87.17,1678.23-85.41,1676.46-83.23,1676.46z"/>
				<path class="st36" d="M-49.66,1676.46h0.51c2.18,0,3.94,1.76,3.94,3.94v20.97c0,2.18-1.76,3.94-3.94,3.94h-0.51
					c-2.18,0-3.94-1.76-3.94-3.94v-20.97C-53.6,1678.23-51.83,1676.46-49.66,1676.46z"/>
				<path class="st36" d="M-16.08,1676.46h0.51c2.18,0,3.94,1.76,3.94,3.94v20.97c0,2.18-1.76,3.94-3.94,3.94h-0.51
					c-2.18,0-3.94-1.76-3.94-3.94v-20.97C-20.02,1678.23-18.25,1676.46-16.08,1676.46z"/>
				<path class="st36" d="M17.5,1676.46h0.51c2.18,0,3.94,1.76,3.94,3.94v20.97c0,2.18-1.76,3.94-3.94,3.94H17.5
					c-2.18,0-3.94-1.76-3.94-3.94v-20.97C13.56,1678.23,15.32,1676.46,17.5,1676.46z"/>
				<path class="st36" d="M51.08,1676.46h0.51c2.18,0,3.94,1.76,3.94,3.94v20.97c0,2.18-1.76,3.94-3.94,3.94h-0.51
					c-2.18,0-3.94-1.76-3.94-3.94v-20.97C47.13,1678.23,48.9,1676.46,51.08,1676.46z"/>
				<path class="st36" d="M84.65,1676.46h0.51c2.18,0,3.94,1.76,3.94,3.94v20.97c0,2.18-1.76,3.94-3.94,3.94h-0.51
					c-2.18,0-3.94-1.76-3.94-3.94v-20.97C80.71,1678.23,82.48,1676.46,84.65,1676.46z"/>
			</g>
		</g>
		<g transform="translate(1155.0 117.0) rotate(0.0 154.0 168.0) scale(1.0156401995667041 1.0164384721961728)">
			<g>
				<ellipse class="st2" cx="14.32" cy="1879.61" rx="29.9" ry="29.92"/>
				<g>
					<path class="st7" d="M-139.42,1970.58l100.4-159.4l103.75,140.09l-181.75,49.56C-134.78,2005.67-149.23,1986.16-139.42,1970.58
						z"/>
					<path class="st6" d="M-126,1967.3l18.65-13.82c1.74-1.29,4.2-0.92,5.49,0.82l48.59,65.58c1.29,1.74,0.92,4.2-0.82,5.49
						l-18.65,13.82c-1.74,1.29-4.2,0.92-5.49-0.82l-48.59-65.58C-128.11,1971.05-127.74,1968.59-126,1967.3z"/>
					<g>
						<path class="st1" d="M-138.5,1969.9l32.75-51.99l48.93,66.07l-59.28,16.16C-133.87,2004.99-148.32,1985.48-138.5,1969.9
							L-138.5,1969.9z"/>
						<path class="st4" d="M-121.65,2003.08c-7.03-0.01-13.64-3.39-17.75-9.1c-5.61-7.37-5.99-17.47-0.95-25.24l32.75-51.99
							c0.38-0.61,1.04-0.99,1.76-1.02c0.72-0.02,1.4,0.31,1.83,0.88l48.93,66.07c0.72,0.97,0.51,2.33-0.45,3.05
							c-0.22,0.16-0.46,0.28-0.72,0.35l-59.28,16.17C-117.52,2002.8-119.58,2003.08-121.65,2003.08L-121.65,2003.08z
							 M-136.66,1971.06c-4.05,6.26-3.74,14.39,0.77,20.33c4.37,6.04,12.05,8.71,19.22,6.66l56.2-15.33l-45.14-60.95
							L-136.66,1971.06z"/>
					</g>
					<g>
						<path class="st1" d="M-43.42,1804.12l0.03-0.02c4.17-3.09,10.06-2.21,13.15,1.96l102.43,138.3
							c3.09,4.17,2.21,10.06-1.96,13.15l-0.03,0.02c-4.17,3.09-10.06,2.21-13.15-1.96l-102.43-138.3
							C-48.47,1813.1-47.59,1807.21-43.42,1804.12z"/>
						<path class="st4" d="M64.63,1961.56c-0.58,0-1.16-0.04-1.73-0.13c-3.04-0.44-5.78-2.09-7.6-4.56l-102.43-138.3
							c-3.81-5.14-2.73-12.39,2.41-16.2l1.33,1.73l-1.3-1.75c5.14-3.81,12.39-2.73,16.2,2.41c0,0,0,0,0,0l102.43,138.3
							c3.8,5.16,2.7,12.43-2.46,16.24C69.49,1960.76,67.09,1961.55,64.63,1961.56L64.63,1961.56z M-37.81,1804.42
							c-1.54,0-3.05,0.5-4.29,1.42l-0.01,0.01l-0.03,0.02c-3.2,2.38-3.87,6.9-1.49,10.1l102.43,138.3
							c2.38,3.22,6.92,3.89,10.13,1.51c3.22-2.38,3.89-6.92,1.51-10.13l-102.43-138.3C-33.35,1805.51-35.51,1804.42-37.81,1804.42z"
							/>
					</g>
				</g>
			</g>
		</g>
		<g transform="translate(71.0 1012.0) rotate(0.0 888.5 6.0) scale(1.0925971470732907 1.0526315789473684)">
			<path class="st4" d="M1316.95,1511.35H287.56c-0.99,0,81.67-0.94,81.67-2.18c0-1.23-82.66-2.18-81.67-2.18h1029.39
				c0.99,0,1.75,0.94,1.75,2.18C1318.7,1510.4,1317.94,1511.35,1316.95,1511.35z"/>
		</g>
	</g>
	
		<path style="opacity:0.57;clip-path:url(#SVGID_00000091008135834888133730000002495781669527566734_);fill:none;stroke:#FFFFFF;stroke-width:32.7065;stroke-linecap:round;stroke-miterlimit:10;" d="
		M1036.22,1771.48c282.72,0,511.91,229.19,511.91,511.91c0,81.61-19.1,158.75-53.06,227.22"/>
	<g style="clip-path:url(#SVGID_00000091008135834888133730000002495781669527566734_);">
		<path class="st73" d="M1036.22,3036.39c-101.62,0-200.24-19.92-293.13-59.21c-89.68-37.93-170.2-92.21-239.32-161.34
			c-69.13-69.13-123.41-149.65-161.34-239.32c-39.29-92.89-59.21-191.51-59.21-293.13s19.92-200.24,59.21-293.13
			c37.93-89.68,92.21-170.2,161.34-239.32c69.13-69.13,149.65-123.41,239.32-161.34c92.89-39.29,191.51-59.21,293.13-59.21
			s200.24,19.92,293.13,59.21c89.68,37.93,170.2,92.21,239.32,161.34c69.13,69.13,123.41,149.65,161.34,239.33
			c39.29,92.89,59.21,191.51,59.21,293.13s-19.92,200.24-59.21,293.13c-37.93,89.68-92.21,170.2-161.34,239.32
			c-69.13,69.13-149.65,123.41-239.32,161.34C1236.46,3016.47,1137.84,3036.39,1036.22,3036.39z M1036.22,1693.56
			c-325.23,0-589.83,264.6-589.83,589.83s264.6,589.83,589.83,589.83s589.83-264.6,589.83-589.83S1361.45,1693.56,1036.22,1693.56z"
			/>
	</g>
	
		<line style="clip-path:url(#SVGID_00000091008135834888133730000002495781669527566734_);fill:#222433;stroke:#222433;stroke-width:163.17;stroke-miterlimit:10;" x1="1462.34" y1="2802.27" x2="1702.72" y2="3117.81"/>
	<g style="clip-path:url(#SVGID_00000091008135834888133730000002495781669527566734_);">
		<polyline class="st75" points="1572.39,2812.09 1767.62,3068.37 1637.82,3167.25 1445.92,2915.35 		"/>
	</g>
	<g style="clip-path:url(#SVGID_00000091008135834888133730000002495781669527566734_);">
		<path class="st73" d="M1766.75,3336.38c-40.59,0-80.71-18.28-107.21-53.06l-102.09-134c-45.06-59.15-33.64-143.64,25.51-188.7
			s143.64-33.64,188.7,25.51l91.89,120.62l87.15,112.7c45.06,59.15-43.31,44.32-102.46,89.38
			C1823.87,3327.4,1795.2,3336.38,1766.75,3336.38z"/>
	</g>
	
		<line style="clip-path:url(#SVGID_00000091008135834888133730000002495781669527566734_);fill:#70D9D9;stroke:#000000;stroke-width:2.8346;stroke-linecap:round;stroke-miterlimit:10;" x1="355.72" y1="2602.89" x2="127.24" y2="2602.89"/>
</g>
</svg>
