<?xml version="1.0" encoding="utf-8"?>
<!-- Generator: Adobe Illustrator 26.1.0, SVG Export Plug-In . SVG Version: 6.00 Build 0)  -->
<svg version="1.1" id="Layer_1" xmlns="http://www.w3.org/2000/svg" xmlns:xlink="http://www.w3.org/1999/xlink" x="0px" y="0px"
	 viewBox="0 0 2000 3200" style="enable-background:new 0 0 2000 3200;" xml:space="preserve">
<style type="text/css">
	.st0{fill:#70D9D9;}
	.st1{fill:#FFFFFF;}
	.st2{fill:#FF7F36;}
	.st3{fill:#007575;}
	.st4{fill:#222433;}
	.st5{fill:#FF7F36;stroke:#FF7F36;stroke-miterlimit:10;}
	.st6{fill:#15C2C1;}
	.st7{fill:#FDA979;}
	.st8{fill:#C35515;}
	.st9{fill:none;stroke:#5A38FD;stroke-width:111.9047;stroke-miterlimit:10;}
	.st10{fill:none;stroke:#FF7F36;stroke-width:111.9047;stroke-miterlimit:10;}
	.st11{fill:none;stroke:#FFFFFF;stroke-width:9.2351;stroke-miterlimit:10;stroke-dasharray:23.0877,36.9403;}
	.st12{fill:none;stroke:#313341;stroke-width:3.8308;stroke-miterlimit:10;}
	.st13{fill:none;}
	.st14{opacity:0.75;fill:#70D9D9;}
	.st15{fill:#5A38FD;}
	.st16{fill:none;stroke:#222433;stroke-width:8.5039;stroke-miterlimit:10;stroke-dasharray:14.1732,14.1732;}
	.st17{fill:#7057FD;}
	.st18{fill:none;stroke:#222433;stroke-width:5.4074;stroke-miterlimit:10;}
	.st19{fill:#222433;stroke:#222433;stroke-width:5.4303;stroke-miterlimit:10;}
	.st20{fill:#2B292D;}
	.st21{fill:none;stroke:#C35515;stroke-width:9.9101;stroke-miterlimit:10;}
	.st22{fill:none;stroke:#C35515;stroke-width:5.6693;stroke-miterlimit:10;}
	.st23{fill:#C35515;stroke:#000000;stroke-miterlimit:10;}
	.st24{fill:#C35515;stroke:#000000;stroke-width:0.6042;stroke-miterlimit:10;}
	.st25{fill:#15C2C1;stroke:#222433;stroke-width:6.1644;stroke-miterlimit:10;}
	.st26{fill:#FFFFFF;stroke:#000000;stroke-width:6.1644;stroke-miterlimit:10;}
	.st27{fill:none;stroke:#007575;stroke-width:6.1644;stroke-miterlimit:10;}
	.st28{fill:none;stroke:#FFFFFF;stroke-width:14.1732;stroke-miterlimit:10;stroke-dasharray:23.0877,36.9403;}
	.st29{fill-rule:evenodd;clip-rule:evenodd;fill:#FDA979;}
	.st30{fill-rule:evenodd;clip-rule:evenodd;fill:#FFFFFF;}
	.st31{fill-rule:evenodd;clip-rule:evenodd;fill:#007575;}
	.st32{fill:#606060;}
	.st33{clip-path:url(#SVGID_00000075145923703165823940000014224864873560401837_);}
	.st34{fill:#222433;stroke:#222433;stroke-width:1.0471;stroke-miterlimit:10;}
	.st35{fill:#222433;stroke:#222433;stroke-width:2.2688;stroke-miterlimit:10;}
	.st36{fill:#82B1FF;}
	.st37{fill:#15C2C1;stroke:#70D9D9;stroke-width:15.652;stroke-miterlimit:10;}
	.st38{stroke:#222433;stroke-width:0.8333;stroke-miterlimit:10;}
	.st39{clip-path:url(#SVGID_00000070837730211465960050000015535497314752859549_);}
	.st40{clip-path:url(#SVGID_00000070837730211465960050000015535497314752859549_);fill:#FF7F36;}
	.st41{clip-path:url(#SVGID_00000070837730211465960050000015535497314752859549_);fill:#C35515;}
	.st42{fill:#222433;stroke:#222433;stroke-width:0.791;stroke-miterlimit:10;}
	.st43{fill-rule:evenodd;clip-rule:evenodd;fill:#FF7F36;}
	.st44{fill-rule:evenodd;clip-rule:evenodd;fill:#15C2C1;}
	.st45{fill:none;stroke:#FF7F36;stroke-width:11.3386;stroke-miterlimit:10;}
	.st46{fill:none;stroke:#FF7F36;stroke-width:9.6934;stroke-miterlimit:10;}
	.st47{opacity:0.44;fill:#FDA979;}
	.st48{fill:none;stroke:#70D9D9;stroke-width:8.5039;stroke-miterlimit:10;stroke-dasharray:11.5087,11.5098;}
	.st49{opacity:0.75;fill:#007575;}
	.st50{clip-path:url(#SVGID_00000137115918795429106870000014700624612938514857_);}
	.st51{fill:none;stroke:#FF7F36;stroke-miterlimit:10;}
	.st52{clip-path:url(#SVGID_00000119093291929244221020000009044928163724973184_);}
	.st53{stroke:#70D9D9;stroke-width:8.5039;stroke-miterlimit:10;}
	.st54{fill:#FDA979;stroke:#222433;stroke-width:17.0079;stroke-miterlimit:10;}
	.st55{clip-path:url(#SVGID_00000026137422665031641020000005175123899182711971_);}
	.st56{fill:none;stroke:#222433;stroke-width:16.1222;stroke-linecap:round;stroke-miterlimit:10;}
	.st57{clip-path:url(#SVGID_00000051364682639679200920000011906359963216840348_);fill:#15C2C1;}
	.st58{clip-path:url(#SVGID_00000051364682639679200920000011906359963216840348_);fill:#C35515;}
	
		.st59{clip-path:url(#SVGID_00000051364682639679200920000011906359963216840348_);fill:#15C2C1;stroke:#000000;stroke-width:8.2755;stroke-miterlimit:10;}
	.st60{clip-path:url(#SVGID_00000051364682639679200920000011906359963216840348_);fill:#FF7F36;}
	
		.st61{clip-path:url(#SVGID_00000051364682639679200920000011906359963216840348_);fill:#15C2C1;stroke:#000000;stroke-width:8.5039;stroke-miterlimit:10;}
	
		.st62{clip-path:url(#SVGID_00000051364682639679200920000011906359963216840348_);fill:none;stroke:#000000;stroke-width:8.5039;stroke-miterlimit:10;}
	
		.st63{clip-path:url(#SVGID_00000051364682639679200920000011906359963216840348_);fill:#FFFFFF;stroke:#000000;stroke-width:8.5039;stroke-miterlimit:10;}
	.st64{clip-path:url(#SVGID_00000051364682639679200920000011906359963216840348_);}
	.st65{fill:none;stroke:#000000;stroke-width:8.2815;stroke-linecap:round;stroke-miterlimit:10;}
	
		.st66{clip-path:url(#SVGID_00000051364682639679200920000011906359963216840348_);fill:#FFFFFF;stroke:#000000;stroke-width:8.7446;stroke-miterlimit:10;}
	.st67{clip-path:url(#SVGID_00000051364682639679200920000011906359963216840348_);fill:none;}
	.st68{clip-path:url(#SVGID_00000005256830946118290290000004406060215505799595_);}
	
		.st69{opacity:0.57;clip-path:url(#SVGID_00000005256830946118290290000004406060215505799595_);fill:none;stroke:#FFFFFF;stroke-width:32.7065;stroke-linecap:round;stroke-miterlimit:10;}
	.st70{fill:#222433;stroke:#000000;stroke-width:7.0866;stroke-miterlimit:10;}
	
		.st71{clip-path:url(#SVGID_00000005256830946118290290000004406060215505799595_);fill:#222433;stroke:#222433;stroke-width:163.17;stroke-miterlimit:10;}
	.st72{fill:none;stroke:#000000;stroke-width:7.0866;stroke-miterlimit:10;}
	
		.st73{clip-path:url(#SVGID_00000005256830946118290290000004406060215505799595_);fill:#70D9D9;stroke:#000000;stroke-width:2.8346;stroke-linecap:round;stroke-miterlimit:10;}
	.st74{clip-path:url(#SVGID_00000026856538160374861060000014416052785645483934_);fill:#FFFFFF;}
	.st75{clip-path:url(#SVGID_00000026856538160374861060000014416052785645483934_);fill:#222433;}
	.st76{clip-path:url(#SVGID_00000026856538160374861060000014416052785645483934_);fill:#15C2C1;}
	.st77{clip-path:url(#SVGID_00000026856538160374861060000014416052785645483934_);fill:#FDA979;}
	.st78{clip-path:url(#SVGID_00000026856538160374861060000014416052785645483934_);}
	.st79{clip-path:url(#SVGID_00000026856538160374861060000014416052785645483934_);fill:#FF7F36;}
	.st80{clip-path:url(#SVGID_00000026856538160374861060000014416052785645483934_);fill:#C35515;}
	.st81{clip-path:url(#SVGID_00000075147459676128228190000014215204917779456917_);}
</style>
<rect x="815.74" y="1554.71" class="st17" width="1184.26" height="92.62"/>
<polygon class="st2" points="2000,1647.26 815.74,1647.26 815.74,1554.64 2000,951.37 "/>
<path class="st28" d="M707.94,3138.94h313.75c45.48,0,82.34-36.87,82.34-82.34l0,0c0-45.48,36.87-82.34,82.34-82.34h477.06
	c45.48,0,82.34-36.87,82.34-82.34v-222.8"/>
<rect x="885.25" y="1624.61" class="st2" width="1114.75" height="1030.29"/>
<g>
	<g transform="translate(886.0 332.0) rotate(0.0 176.5 176.5) scale(0.667296786389414 0.667296786389414)">
		<circle class="st7" cx="1286.41" cy="3218.3" r="193.28"/>
		<path class="st4" d="M1286.41,3413.8c-107.97,0-195.5-87.53-195.5-195.5c0-51.85,20.6-101.58,57.26-138.24
			c76.35-76.35,200.13-76.35,276.48,0c76.35,76.35,76.35,200.13,0,276.48C1388.06,3393.32,1338.28,3413.94,1286.41,3413.8z
			 M1286.41,3027.23c-105.35,0-191.07,85.71-191.07,191.07s85.71,191.07,191.07,191.07s191.07-85.71,191.07-191.07
			S1391.76,3027.23,1286.41,3027.23z"/>
		<path class="st4" d="M1394.59,3282.53c-0.39,0-0.77-0.1-1.1-0.3l-108.19-62.01c-0.69-0.39-1.11-1.13-1.11-1.92v-118.08
			c0-1.22,0.99-2.22,2.22-2.22s2.22,0.99,2.22,2.22v116.8l107.07,61.37c1.06,0.61,1.43,1.97,0.82,3.03
			C1396.11,3282.1,1395.38,3282.52,1394.59,3282.53L1394.59,3282.53z"/>
	</g>
	<g transform="translate(174.0 321.0) rotate(0.0 266.0 181.0) translate(0.0 0.0) scale(0.660273268737426 0.6603224635500177)">
		<path class="st4" d="M1386.03,3464.28c-1.22,0-2.22-0.99-2.22-2.22v-400.61c0-1.22,0.99-2.22,2.22-2.22l591.1-0.16
			c1.22,0,2.22,0.99,2.22,2.22s-0.99,2.22-2.22,2.22l-588.89,0.16v398.39C1388.25,3463.28,1387.26,3464.28,1386.03,3464.28z"/>
	</g>
	<g transform="translate(201.0 197.0) rotate(0.0 113.5 64.0) scale(0.6724212496963736 0.673648755328667)">
		<path class="st1" d="M1595.64,3184.8h-227.31l-17.57-115.52c-1.48-9.72,5.2-18.8,14.92-20.29c0.89-0.14,1.79-0.2,2.69-0.2h152.76
			c8.8-0.01,16.29,6.43,17.61,15.13l16.47,108.34h30.68c4.82,0,8.86,3.65,9.34,8.45L1595.64,3184.8z"/>
		<path class="st4" d="M1595.64,3187.01h-227.31c-1.1,0-2.03-0.8-2.19-1.88l-17.57-115.52c-1.67-10.93,5.85-21.15,16.78-22.81
			c1-0.15,2.01-0.23,3.02-0.23h152.77c9.91-0.05,18.35,7.2,19.79,17.01l16.18,106.45h28.78c5.96-0.02,10.96,4.51,11.55,10.44
			l0.41,4.1c0.12,1.22-0.77,2.31-1.98,2.43C1595.79,3187.01,1595.72,3187.01,1595.64,3187.01L1595.64,3187.01z M1370.24,3182.58
			h222.96l-0.17-1.66c-0.36-3.67-3.45-6.46-7.13-6.45h-30.69c-1.1,0-2.03-0.8-2.19-1.88l-16.47-108.34
			c-1.12-7.64-7.69-13.28-15.41-13.25h-152.77c-8.61,0-15.59,6.98-15.59,15.59c0,0.79,0.06,1.57,0.18,2.35L1370.24,3182.58z"/>
		<path class="st6" d="M1525.1,3072.05l15.71,96.49h-158.75l-15.36-93.44c-0.84-5.14,2.64-9.99,7.78-10.83
			c0.51-0.08,1.02-0.12,1.53-0.12h139.79C1520.42,3064.13,1524.36,3067.49,1525.1,3072.05L1525.1,3072.05z"/>
		<path class="st4" d="M1540.81,3170.75h-158.75c-1.09,0-2.01-0.79-2.19-1.86l-15.36-93.44c-1.04-6.35,3.26-12.34,9.6-13.38
			c0.62-0.1,1.26-0.15,1.89-0.15h139.79c5.72-0.02,10.59,4.13,11.5,9.78l15.71,96.49c0.2,1.21-0.62,2.35-1.83,2.54
			C1541.05,3170.74,1540.93,3170.75,1540.81,3170.75L1540.81,3170.75z M1383.94,3166.32h154.26l-15.29-93.91
			c-0.56-3.5-3.58-6.07-7.12-6.05h-139.79c-3.98,0-7.21,3.23-7.21,7.21c0,0.39,0.03,0.78,0.1,1.17L1383.94,3166.32z"/>
	</g>
	<g transform="translate(743.0 242.0) rotate(0.0 94.0 221.5) scale(0.6787003610108303 0.6773700305810397)">
		<path class="st4" d="M1229.54,3492.94c-1.22,0-2.22-0.99-2.22-2.22l0.23-272.74c0-1.22,0.99-2.22,2.22-2.22s2.22,0.99,2.22,2.22
			l-0.23,272.74C1231.76,3491.95,1230.77,3492.94,1229.54,3492.94z"/>
		<path class="st4" d="M1186.67,3464.12h85.74c16.33,0,29.57,13.24,29.57,29.57h-144.87
			C1157.11,3477.35,1170.34,3464.12,1186.67,3464.12z"/>
		<path class="st4" d="M1301.98,3495.9h-144.87c-1.22,0-2.22-0.99-2.22-2.22c0.02-17.54,14.24-31.76,31.78-31.78h85.74
			c17.54,0.02,31.76,14.24,31.78,31.78C1304.19,3494.91,1303.2,3495.9,1301.98,3495.9z M1159.41,3491.46h140.26
			c-1.17-14.19-13.02-25.11-27.26-25.13h-85.74C1172.43,3466.35,1160.58,3477.28,1159.41,3491.46z"/>
		<path class="st4" d="M1315.65,3014.72c-7.96,0-14.41,6.45-14.41,14.41v188.11h-171.48c0,22.86,18.53,41.39,41.39,41.39h117.52
			c22.86,0,41.39-18.53,41.39-41.39v-188.11C1330.06,3021.18,1323.61,3014.72,1315.65,3014.72z"/>
		<path class="st4" d="M1288.67,3260.85h-117.52c-24.07-0.03-43.58-19.54-43.61-43.61c0-1.22,0.99-2.22,2.22-2.22h169.26v-185.89
			c0-9.18,7.45-16.63,16.63-16.63c9.18,0,16.63,7.45,16.63,16.63v188.11C1332.25,3241.32,1312.75,3260.83,1288.67,3260.85z
			 M1132.04,3219.46c1.2,20.73,18.35,36.93,39.11,36.96h117.52c21.63-0.02,39.15-17.55,39.17-39.17v-188.11
			c0-6.74-5.46-12.2-12.2-12.2c-6.74,0-12.2,5.46-12.2,12.2v188.11c0,1.22-0.99,2.22-2.22,2.22H1132.04z"/>
	</g>
	<g transform="translate(118.0 66.0) rotate(0.0 86.5 60.0) scale(0.6740329769659945 0.6714639032196694)">
		<path class="st6" d="M1411.57,3107.49h86.88v110.13h-86.88c-18.96,0-34.33-15.37-34.33-34.33v-41.47
			C1377.24,3122.86,1392.61,3107.49,1411.57,3107.49L1411.57,3107.49z"/>
		<path class="st6" d="M1533.2,3107.38h-62.06c-18.64,0-33.75,15.11-33.75,33.75v42.63c0,18.64,15.11,33.75,33.75,33.75c0,0,0,0,0,0
			h11.08l15.62,19.86c1.88,2.39,5.35,2.8,7.74,0.92c0.34-0.27,0.65-0.58,0.92-0.92l15.62-19.86h11.07
			c18.64,0,33.75-15.11,33.75-33.75c0,0,0,0,0,0v-42.63C1566.94,3122.49,1551.83,3107.38,1533.2,3107.38L1533.2,3107.38z"/>
		<g>
			<path class="st4" d="M1521.37,3146.36h-97.81c-1.22,0-2.22-0.99-2.22-2.22c0-1.22,0.99-2.22,2.22-2.22h97.81
				c1.22,0,2.22,0.99,2.22,2.22C1523.59,3145.37,1522.59,3146.36,1521.37,3146.36z M1521.37,3162.75h-97.81
				c-1.22,0-2.22-0.99-2.22-2.22s0.99-2.22,2.22-2.22h97.81c1.22,0,2.22,0.99,2.22,2.22S1522.59,3162.75,1521.37,3162.75z
				 M1521.37,3179.14h-97.81c-1.22,0-2.22-0.99-2.22-2.22s0.99-2.22,2.22-2.22h97.81c1.22,0,2.22,0.99,2.22,2.22
				S1522.59,3179.14,1521.37,3179.14z"/>
		</g>
	</g>
	<g transform="translate(1043.0 32.0) rotate(0.0 83.5 79.5) scale(0.6790274050581443 0.6824034334763949)">
		<path class="st4" d="M1038.19,3071.73l4.07,13.3c0.69,2.31,2.49,4.12,4.8,4.8l13.23,4.07c0.86,0.23,1.37,1.11,1.14,1.97
			c-0.01,0.03-0.02,0.07-0.03,0.1c-0.16,0.53-0.58,0.95-1.11,1.11l-13.23,3.99c-2.31,0.69-4.12,2.49-4.8,4.8l-4.07,13.3
			c-0.28,0.86-1.19,1.35-2.07,1.11c-0.53-0.16-0.95-0.58-1.11-1.11l-3.99-13.3c-0.71-2.3-2.51-4.1-4.8-4.8l-13.3-3.99
			c-0.86-0.28-1.35-1.19-1.11-2.07c0.16-0.53,0.58-0.95,1.11-1.11l13.3-4.07c2.31-0.69,4.12-2.49,4.8-4.8l3.99-13.3
			c0.27-0.88,1.19-1.37,2.07-1.11C1037.62,3070.76,1038.05,3071.19,1038.19,3071.73z"/>
		<ellipse class="st1" cx="1035.4" cy="3157.78" rx="14.55" ry="14.63"/>
		<path class="st4" d="M1035.4,3181.44c-13.06,0-23.65-10.59-23.65-23.65s10.59-23.65,23.65-23.65c13.06,0,23.65,10.59,23.65,23.65
			C1059.03,3170.84,1048.45,3181.42,1035.4,3181.44z M1035.4,3138.57c-10.61,0-19.22,8.6-19.22,19.22s8.6,19.22,19.22,19.22
			s19.22-8.6,19.22-19.22C1054.6,3147.18,1046.01,3138.58,1035.4,3138.57z"/>
		<ellipse class="st1" cx="1035.4" cy="3219.13" rx="14.55" ry="14.63"/>
		<g>
			<path class="st4" d="M1035.4,3242.78c-13.06,0-23.65-10.59-23.65-23.65c0-13.06,10.59-23.65,23.65-23.65
				c13.06,0,23.65,10.59,23.65,23.65C1059.03,3232.19,1048.45,3242.77,1035.4,3242.78z M1035.4,3199.91
				c-10.61,0-19.22,8.6-19.22,19.22c0,10.61,8.6,19.22,19.22,19.22s19.22-8.6,19.22-19.22
				C1054.6,3208.52,1046.01,3199.93,1035.4,3199.91z M1191.31,3097.34h-96.09c-1.22,0-2.22-0.99-2.22-2.22s0.99-2.22,2.22-2.22
				h96.09c1.22,0,2.22,0.99,2.22,2.22S1192.53,3097.34,1191.31,3097.34z M1191.31,3160.16h-96.09c-1.22,0-2.22-0.99-2.22-2.22
				s0.99-2.22,2.22-2.22h96.09c1.22,0,2.22,0.99,2.22,2.22S1192.53,3160.16,1191.31,3160.16z M1191.31,3223.73h-96.09
				c-1.22,0-2.22-0.99-2.22-2.22s0.99-2.22,2.22-2.22h96.09c1.22,0,2.22,0.99,2.22,2.22S1192.53,3223.73,1191.31,3223.73z"/>
		</g>
	</g>
	<g transform="translate(176.0 507.0) rotate(0.0 90.5 89.0) scale(0.6678966789667896 0.6666666666666666)">
		<path class="st6" d="M1528.53,3152.31h-122.24l-27.03-181.77h175.6L1528.53,3152.31z"/>
		<path class="st4" d="M1528.53,3154.52h-122.24c-1.1,0-2.03-0.8-2.19-1.89l-27.03-181.77c-0.18-1.21,0.66-2.34,1.87-2.52
			c0.11-0.02,0.22-0.02,0.33-0.02h175.6c1.22,0,2.22,0.99,2.22,2.22c0,0.11-0.01,0.21-0.02,0.32l-26.33,181.77
			C1530.57,3153.71,1529.63,3154.52,1528.53,3154.52L1528.53,3154.52z M1408.2,3150.09h118.41l25.68-177.33h-170.47L1408.2,3150.09z
			"/>
		<path class="st6" d="M1418.65,2970.54l21.61,181.77h25.39l30.31-0.08l22.84-181.69H1418.65z"/>
		<path class="st4" d="M1440.26,3154.52c-1.12,0-2.07-0.84-2.2-1.96l-21.61-181.77c-0.14-1.22,0.72-2.32,1.94-2.46
			c0.09-0.01,0.17-0.02,0.26-0.02h100.15c1.22,0,2.22,0.99,2.22,2.22c0,0.09-0.01,0.18-0.02,0.28l-22.84,181.69
			c-0.14,1.11-1.08,1.94-2.19,1.94l-30.31,0.08H1440.26z M1442.23,3150.09h23.42l28.35-0.07l22.28-177.26h-95.14L1442.23,3150.09z"
			/>
		<path class="st1" d="M1466.05,2972.55l2.67,177.76"/>
		<path class="st4" d="M1468.72,3152.52c-1.21,0-2.2-0.97-2.22-2.18l-2.67-177.76c-0.02-1.22,0.96-2.23,2.18-2.25c0,0,0,0,0,0h0.03
			c1.21,0,2.2,0.97,2.22,2.18l2.67,177.76c0.02,1.22-0.96,2.23-2.18,2.25c0,0,0,0,0,0H1468.72z"/>
		<path class="st4" d="M1389.29,2957.18h156.2c12.18,0,22.05,9.87,22.05,22.05l0,0c0,12.18-9.87,22.05-22.05,22.05h-156.2
			c-12.18,0-22.05-9.87-22.05-22.05l0,0C1367.24,2967.05,1377.11,2957.18,1389.29,2957.18z"/>
		<g>
			<path class="st4" d="M1390.15,3037.74h154.48v4.43h-154.48V3037.74z M1396.8,3094.65h141.17v4.43H1396.8V3094.65z"/>
		</g>
	</g>
	<g transform="translate(295.0 44.0) rotate(0.0 368.5 322.0) translate(0.0 0.0) scale(0.6683940314317508 0.6682265537045587)">
		<ellipse class="st1" cx="1848.61" cy="3216.94" rx="12.1" ry="12.1"/>
		<path class="st4" d="M1848.61,3237.27c-11.23,0-20.33-9.1-20.33-20.33c0-11.23,9.1-20.33,20.33-20.33
			c11.23,0,20.33,9.1,20.33,20.33C1868.92,3228.16,1859.83,3237.25,1848.61,3237.27z M1848.61,3201.05
			c-8.78,0-15.89,7.11-15.89,15.89c0,8.78,7.11,15.89,15.89,15.89c8.78,0,15.89-7.11,15.89-15.89
			C1864.49,3208.17,1857.38,3201.06,1848.61,3201.05z"/>
		<path class="st29" d="M1474.44,3692c-13.26,11.76-48.54,27.77-66.55,23.3c-22.12-5.42-40.13-11.45-40.13-11.45
			c-16.2-7.7-35.59-2.5-45.76,12.27l96.34,79.56l42.27-4.22l-19.56,23.16l29.31,24.27l71.34-81.11"/>
		<path class="st4" d="M1470.36,3841.11c-0.52,0-1.02-0.18-1.41-0.51l-29.31-24.26c-0.94-0.78-1.08-2.18-0.29-3.12
			c0-0.01,0.01-0.01,0.01-0.02l16.03-18.98l-36.83,3.67c-0.59,0.06-1.18-0.12-1.63-0.5l-96.34-79.56c-0.89-0.73-1.07-2.02-0.41-2.97
			c10.73-15.67,31.26-21.22,48.42-13.08c1.63,0.54,19.01,6.26,39.83,11.36c16.77,4.17,51.05-10.83,64.55-22.81
			c0.91-0.82,2.31-0.75,3.13,0.17s0.75,2.31-0.16,3.13c-0.01,0.01-0.02,0.01-0.02,0.02c-14.13,12.54-49.94,28.41-68.56,23.79
			c-21.95-5.38-40.12-11.44-40.3-11.5c-0.09-0.03-0.17-0.06-0.25-0.1c-14.52-6.95-31.92-2.83-41.78,9.9l94.02,77.64l41.35-4.13
			c1.22-0.12,2.31,0.77,2.43,1.99c0.06,0.6-0.13,1.19-0.51,1.65l-18.11,21.45l25.93,21.46l69.91-79.49c0.81-0.92,2.21-1.01,3.13-0.2
			s1.01,2.21,0.2,3.13l0,0l-71.34,81.11C1471.61,3840.83,1471,3841.11,1470.36,3841.11L1470.36,3841.11z"/>
		<path class="st29" d="M1759.03,3770.92c-4.52,14.43-12.61,26.94-24.77,31.22c-21.91,7.66-28.31,21.38-27.03,39h107.76l22.91-36.22
			v36.22h33.26v-70.22H1759.03z"/>
		<path class="st4" d="M1871.15,3843.36h-33.26c-1.22,0-2.22-0.99-2.22-2.22v-28.56l-18.82,29.75c-0.41,0.64-1.11,1.03-1.87,1.03
			h-107.76c-1.16,0-2.13-0.9-2.21-2.06c-1.5-20.82,7.56-33.93,28.51-41.26c10.19-3.58,18.49-14.16,23.39-29.79
			c0.29-0.92,1.15-1.55,2.12-1.55h112.13c1.22,0,2.22,0.99,2.22,2.22l0,0v70.22C1873.37,3842.37,1872.38,3843.36,1871.15,3843.36
			L1871.15,3843.36z M1840.11,3838.92h28.83v-65.78h-108.29c-5.4,16.15-14.47,27.16-25.65,31.09
			c-18.33,6.41-26.31,17.15-25.67,34.69h104.44l22.26-35.18c0.65-1.03,2.02-1.34,3.06-0.69c0.64,0.41,1.03,1.11,1.03,1.87
			L1840.11,3838.92z"/>
		<path class="st30" d="M1523.36,3422.84c-19.38-15.37-29.7-27.78-30.95-37.23c-2.1-15.85-1.14-27.56-23.79-38.53
			c-10.22-4.92-26.24-10.72-21.19-20.3c3.51-6.58,22.55-0.54,36.72,3.41c-16.1-13.76-37.25-31.8-31.45-39.44s22.37,4,43.14,21.97
			c-19.33-23.7-32.8-33.57-26.36-40.31c6.65-6.94,25.25,7.7,41.15,25.21c2.67-1.08,5.19,0.25,7.55,3.99
			c6.71,10.61,17.79,30.82,33.26,60.61"/>
		<path class="st4" d="M1523.36,3425.06c-0.5,0-0.99-0.17-1.38-0.48c-20.04-15.89-30.43-28.54-31.77-38.67
			c-0.2-1.53-0.39-3.06-0.56-4.59c-1.55-13.28-2.67-22.87-22-32.23c-1.19-0.57-2.46-1.16-3.77-1.76
			c-7.98-3.68-17.02-7.85-19.16-14.16c-0.82-2.46-0.55-5.16,0.74-7.41c3.54-6.64,16.18-4.07,29.66-0.39
			c-15.76-13.71-30.29-27.92-24.19-35.95c1.38-1.85,3.48-3.02,5.78-3.2c4.89-0.51,11.55,2.34,21.44,9.44
			c-4.64-5.23-8.3-9.48-10.4-13.01c-1.05-1.78-4.26-7.19,0.11-11.76c1.63-1.67,3.9-2.56,6.23-2.45
			c11.42,0.15,29.2,17.96,37.24,26.69c2.48-0.42,5.64,0.45,8.71,5.3c6.71,10.62,17.93,31.07,33.35,60.77
			c0.56,1.09,0.14,2.43-0.95,2.99c-1.09,0.56-2.43,0.14-2.99-0.95c-15.37-29.59-26.53-49.93-33.17-60.45
			c-2.55-4.04-4.22-3.37-4.84-3.12c-0.86,0.35-1.85,0.12-2.47-0.57c-14.4-15.85-28.11-26.16-34.94-26.25
			c-1.1-0.1-2.19,0.3-2.97,1.08c-3.13,3.27,1.47,8.73,12.16,20.74c4.22,4.74,9,10.11,14.31,16.63c0.77,0.95,0.63,2.35-0.32,3.12
			c-0.83,0.68-2.04,0.66-2.85-0.04c-12.25-10.6-29.43-24.59-37.21-23.78c-1.08,0.07-2.07,0.61-2.71,1.48
			c-1.01,1.33-1.4,4.98,7.32,14.52c6.44,7.05,15.58,14.87,23.65,21.76l0.16,0.14c0.93,0.8,1.04,2.2,0.24,3.13
			c-0.56,0.66-1.45,0.93-2.28,0.7c-1.14-0.32-2.31-0.65-3.5-0.99c-10.58-2.99-28.28-8-30.67-3.52c-0.71,1.17-0.88,2.6-0.46,3.91
			c1.53,4.5,10.01,8.41,16.82,11.55c1.33,0.61,2.63,1.21,3.84,1.8c21.52,10.42,22.89,22.14,24.47,35.71
			c0.17,1.47,0.35,2.98,0.55,4.52c1.16,8.81,11.3,20.84,30.13,35.78c0.96,0.76,1.12,2.16,0.36,3.12
			C1524.68,3424.75,1524.04,3425.06,1523.36,3425.06L1523.36,3425.06z"/>
		<path class="st4" d="M1557.24,3374.04c-0.73,0-1.41-0.36-1.83-0.96c-0.16-0.23-1.15-1.64-2.14-3.05l-2.16-3.07
			c-0.09-0.12-0.16-0.26-0.22-0.4c-3.95-9.33-8.75-18.16-13.39-26.7c-2.05-3.77-4.17-7.67-6.19-11.57
			c-1.51-2.87-3.21-5.63-5.08-8.28c-0.69-1.01-0.43-2.39,0.58-3.08s2.39-0.43,3.08,0.58c1.98,2.8,3.77,5.72,5.37,8.76
			c1.99,3.83,4.1,7.71,6.13,11.47c4.66,8.57,9.47,17.43,13.49,26.87l2.01,2.86c1,1.42,2,2.84,2.16,3.07
			c0.7,1.01,0.45,2.39-0.56,3.09C1558.12,3373.9,1557.68,3374.04,1557.24,3374.04L1557.24,3374.04z"/>
		<path class="st30" d="M1528.03,3372.83c-7.97-10.07-7.9-24.36-12.22-38.36c-6-19.29-8.06-32.23-4.77-35.7
			c4.73-4.99,11.4,7.86,18.63,22.03c2.88,5.65,10.27,19.2,22.17,40.65"/>
		<path class="st4" d="M1528.03,3375.04c-0.68,0-1.32-0.31-1.74-0.84c-5.65-7.14-7.44-16-9.34-25.38c-0.91-4.5-1.85-9.15-3.26-13.71
			c-8.89-28.59-6.69-35.31-4.26-37.87c1.14-1.32,2.87-1.98,4.6-1.74c5.26,0.76,10.17,9.68,17.62,24.28
			c2.86,5.6,10.31,19.26,22.14,40.58c0.59,1.07,0.2,2.42-0.88,3.01c-1.07,0.59-2.41,0.2-3-0.86
			c-11.85-21.37-19.32-35.07-22.21-40.72c-4.35-8.53-10.93-21.41-14.3-21.9c-0.11-0.02-0.32-0.05-0.74,0.4
			c-0.91,0.96-3.21,6.21,5.28,33.51c1.36,4.65,2.48,9.37,3.37,14.14c1.79,8.85,3.48,17.2,8.47,23.5c0.76,0.96,0.6,2.35-0.36,3.11
			C1529.02,3374.87,1528.53,3375.04,1528.03,3375.04L1528.03,3375.04z"/>
		<path class="st30" d="M2076.29,3290.53c19.38-15.37,29.7-27.78,30.95-37.23c2.1-15.85,11.46-25.81,23.79-38.53
			c4-4.12,0.43-20.64-13.74-16.69c13.61-13.11-5.91-25.87-13.48-17.67c19.33-23.7,32.8-33.57,26.36-40.31
			c-6.65-6.94-25.25,7.7-41.15,25.21c-2.67-1.08-5.19,0.25-7.55,3.99c-6.71,10.61-17.79,30.82-33.26,60.61"/>
		<path class="st4" d="M2076.29,3292.75c-1.22,0-2.22-0.99-2.22-2.22c0-0.68,0.31-1.32,0.84-1.74
			c18.83-14.93,28.96-26.97,30.13-35.78c2.25-16.95,12.51-27.53,24.39-39.78c1.2-1.24,1.43-5.71-0.72-9.33
			c-1.56-2.62-4.7-5.39-10.83-3.68c-1.18,0.33-2.4-0.36-2.73-1.54c-0.22-0.79,0.01-1.63,0.6-2.19c3.3-3.18,4.61-6.49,3.78-9.57
			c-0.83-3.08-3.77-5.73-7.32-6.6c-1.3-0.32-4.56-0.8-6.77,1.6c-0.83,0.9-2.23,0.95-3.13,0.12c-0.86-0.79-0.95-2.12-0.21-3.03
			c5.31-6.51,10.09-11.89,14.31-16.62c10.7-12.02,15.3-17.47,12.16-20.75c-0.78-0.78-1.87-1.18-2.97-1.08
			c-6.83,0.09-20.54,10.39-34.94,26.25c-0.62,0.69-1.61,0.91-2.47,0.57c-0.62-0.25-2.29-0.93-4.84,3.12
			c-6.64,10.51-17.8,30.85-33.17,60.45c-0.56,1.09-1.9,1.51-2.99,0.95c-1.09-0.56-1.51-1.9-0.95-2.99l0,0
			c15.42-29.7,26.64-50.15,33.35-60.77c3.06-4.85,6.23-5.72,8.71-5.3c8.04-8.73,25.82-26.53,37.24-26.69
			c2.33-0.12,4.6,0.77,6.23,2.44c4.37,4.57,1.17,9.98,0.11,11.76c-2.35,3.97-6.68,8.84-12.17,15c-2.77,3.1-5.78,6.49-9.02,10.28
			c0.87,0.05,1.73,0.18,2.57,0.39c5.15,1.27,9.29,5.1,10.54,9.76c0.82,3.24,0.28,6.68-1.48,9.52c4.26,0.22,8.11,2.62,10.19,6.34
			c2.95,4.97,2.99,11.69,0.09,14.68c-11.34,11.69-21.13,21.78-23.18,37.27c-1.34,10.13-11.73,22.78-31.77,38.67
			C2077.28,3292.58,2076.79,3292.75,2076.29,3292.75L2076.29,3292.75z"/>
		<path class="st4" d="M2042.42,3241.74c-1.22,0-2.22-1-2.21-2.22c0-0.45,0.14-0.89,0.4-1.26c0.15-0.22,1.08-1.53,2.03-2.89
			c0.71-1.01,1.42-2.03,2.13-3.04c4.01-9.45,8.83-18.3,13.49-26.87c2.04-3.75,4.15-7.63,6.15-11.49c1.59-3.02,3.38-5.94,5.35-8.73
			c0.69-1.01,2.07-1.27,3.08-0.58s1.27,2.07,0.58,3.08l0,0c-1.87,2.64-3.56,5.39-5.07,8.25c-2.04,3.92-4.16,7.82-6.2,11.59
			c-4.64,8.54-9.44,17.37-13.39,26.7c-0.06,0.14-0.13,0.27-0.22,0.4c-0.16,0.24-1.24,1.77-2.28,3.25c-0.67,0.96-1.35,1.92-2.02,2.87
			C2043.82,3241.38,2043.14,3241.74,2042.42,3241.74L2042.42,3241.74z"/>
		<path class="st30" d="M2076.63,3225.44c5.17-8.13,5.12-16.5,7.21-23.28c6-19.29,8.06-32.23,4.77-35.7
			c-4.73-4.99-10.63,6.92-19.37,20.55c-3.64,5.68-10.78,20.21-21.43,43.61"/>
		<path class="st4" d="M2047.81,3232.83c-1.22,0-2.22-0.99-2.22-2.22c0-0.32,0.07-0.63,0.2-0.92c10.8-23.71,17.86-38.07,21.58-43.89
			c1.38-2.16,2.69-4.26,3.95-6.29c5.96-9.6,9.89-15.95,14.43-16.41c1.7-0.15,3.36,0.53,4.47,1.82c2.43,2.57,4.63,9.28-4.26,37.88
			c-0.62,2.19-1.13,4.4-1.52,6.64c-1.02,5.28-2.18,11.27-5.94,17.17c-0.66,1.03-2.03,1.34-3.06,0.68s-1.34-2.03-0.68-3.06l0,0
			c3.31-5.19,4.33-10.5,5.32-15.63c0.42-2.4,0.96-4.77,1.64-7.11c8.49-27.31,6.19-32.56,5.28-33.52c-0.47-0.5-0.71-0.47-0.8-0.46
			c-2.37,0.24-7.01,7.73-11.11,14.34c-1.31,2.12-2.64,4.24-3.98,6.34c-3.56,5.56-10.72,20.14-21.28,43.33
			C2049.46,3232.32,2048.67,3232.83,2047.81,3232.83L2047.81,3232.83z"/>
		<path class="st30" d="M2117.29,3198.09c-10.84,19.71-19.22,27.84-25.13,24.39c-5.91-3.45-3.45-14.04,7.39-31.78"/>
		<path class="st4" d="M2094.95,3225.48c-1.38,0-2.73-0.37-3.91-1.08c-1.97-1.13-3.38-3.03-3.89-5.25
			c-1.49-5.91,1.94-15.6,10.5-29.6c0.62-1.06,1.98-1.41,3.03-0.79s1.41,1.98,0.79,3.03c-0.01,0.02-0.03,0.04-0.04,0.07
			c-9.71,15.89-10.79,23.02-9.99,26.21c0.22,1.06,0.88,1.97,1.82,2.5c0.86,0.5,1.89,0.61,2.83,0.3c3.3-0.91,9.31-5.79,19.24-23.85
			c0.57-1.08,1.91-1.5,2.99-0.93s1.5,1.91,0.93,2.99c-0.01,0.02-0.03,0.05-0.04,0.07c-8.69,15.8-15.87,24.3-21.94,25.98
			C2096.53,3225.36,2095.74,3225.47,2094.95,3225.48z"/>
		<path class="st30" d="M2131.53,3213.78c-11.61,18.35-19.52,25.36-24.8,22.84s-1.76-15.12,10.56-37.78"/>
		<path class="st4" d="M2108.95,3239.35c-1.1,0-2.18-0.25-3.17-0.73c-1.54-0.75-2.69-2.11-3.18-3.75
			c-1.19-3.67-1.16-11.5,12.74-37.09c0.58-1.08,1.92-1.49,3-0.91s1.49,1.92,0.91,3c-0.01,0.01-0.01,0.02-0.02,0.03
			c-12.71,23.38-13.24,31.09-12.42,33.61c0.11,0.48,0.43,0.89,0.87,1.12c2.3,1.1,8.22-0.3,21.97-22.03
			c0.65-1.03,2.02-1.34,3.06-0.69c1.03,0.65,1.34,2.02,0.69,3.06l0,0C2122.89,3231.58,2115.16,3239.35,2108.95,3239.35
			L2108.95,3239.35z"/>
		<path class="st29" d="M1939.89,3436.83l-178.13,19.96l-79.83,48.04l-169.26-66.52l43.13-87.23l114.92,53.39l55.46-77.38
			c9.99-13.94,24.51-23.97,41.08-28.37l46.11-12.26l54.87-12.01c15.83-3.46,32.35-1.63,47.04,5.22l60.12,28.03l54.37-86l87.94,50.88
			l-69.46,119.39c-17.81,30.61-56.49,41.9-87.97,25.68l-15.79-8.14l-15.16-7.82l-22.79-11.75l21.54,11.41L1939.89,3436.83z"/>
		<path class="st4" d="M1681.94,3507.05c-0.28,0-0.55-0.05-0.81-0.15l-169.26-66.52c-1.14-0.45-1.7-1.74-1.25-2.87
			c0.02-0.06,0.05-0.12,0.08-0.17l43.13-87.23c0.53-1.08,1.83-1.53,2.92-1.03l113.25,52.61l54.39-75.89
			c10.3-14.34,25.25-24.67,42.31-29.22l46.11-12.26l0.1-0.02l54.86-12c16.3-3.54,33.32-1.65,48.45,5.37l58.35,27.21l53.33-84.35
			c0.64-1.01,1.95-1.33,2.98-0.73l87.94,50.88c1.06,0.61,1.42,1.97,0.81,3.03c0,0,0,0,0,0l-69.46,119.39
			c-18.39,31.65-58.37,43.32-90.91,26.53l-27.48-14.16l10.23,30.68c0.39,1.16-0.24,2.42-1.4,2.8c-0.15,0.05-0.3,0.08-0.45,0.1
			l-177.65,19.9l-79.41,47.79C1682.73,3506.94,1682.34,3507.05,1681.94,3507.05L1681.94,3507.05z M1515.73,3437.13l166,65.24
			l78.89-47.48c0.27-0.17,0.58-0.27,0.9-0.3l175.41-19.65l-10.68-32.04l-20.76-10.99c-1.09-0.57-1.51-1.91-0.94-2.99
			s1.91-1.51,2.99-0.94l53.74,27.7c30.43,15.7,67.84,4.79,85.04-24.82l68.34-117.47l-84.17-48.7l-53.23,84.19
			c-0.6,0.94-1.8,1.29-2.81,0.82l-60.12-28.03c-14.25-6.61-30.27-8.39-45.63-5.06l-54.82,11.99l-46.07,12.25
			c-16.07,4.29-30.15,14.01-39.85,27.52l-55.46,77.38c-0.62,0.87-1.77,1.17-2.73,0.72L1556.83,3354L1515.73,3437.13z"/>
		<path class="st31" d="M1734.39,3595.01l-37.09,8.72l-155.24,154.23l-90.16-88.82l176.05-172.26c9.41-8.82,21.25-14.6,33.98-16.61
			l89.48-18.31"/>
		<path class="st4" d="M1542.05,3760.18c-0.58,0-1.14-0.23-1.55-0.64l-90.16-88.82c-0.87-0.86-0.88-2.26-0.02-3.14
			c0.01-0.01,0.02-0.02,0.03-0.03l176.06-172.26c9.72-9.14,21.96-15.14,35.14-17.21l89.44-18.29c1.2-0.26,2.38,0.49,2.64,1.69
			c0.26,1.2-0.49,2.38-1.69,2.64c-0.02,0.01-0.05,0.01-0.07,0.01l-89.48,18.31l-0.1,0.02c-12.3,1.92-23.74,7.51-32.81,16.04
			l-174.41,170.65l86.99,85.7l153.69-152.68c0.29-0.29,0.66-0.49,1.06-0.59l37.1-8.72c1.2-0.26,2.38,0.5,2.64,1.69
			c0.26,1.17-0.46,2.33-1.62,2.62l-36.48,8.58l-154.8,153.78C1543.2,3759.95,1542.64,3760.18,1542.05,3760.18L1542.05,3760.18z"/>
		<path class="st31" d="M1927.33,3401.36l28.93,78.91c11.66,31.81-4.67,67.05-36.48,78.72c-4.84,1.77-9.88,2.93-15.01,3.45
			l-41.39,4.14l16.66,204.35l-128.87-0.32l-23.64-258.28c-2.74-29.87,19.1-56.38,48.95-59.4l143.63-14.57"/>
		<path class="st4" d="M1880.05,3773.14L1880.05,3773.14l-128.88-0.32c-1.14,0-2.1-0.88-2.2-2.01l-23.64-258.29
			c-2.75-31.05,19.93-58.57,50.93-61.81l143.63-14.57c1.22-0.1,2.29,0.81,2.39,2.03c0.1,1.18-0.76,2.23-1.94,2.38l-143.64,14.57
			c-28.59,2.99-49.5,28.36-46.96,57l23.46,256.28l124.44,0.31l-16.46-201.95c-0.1-1.21,0.79-2.27,1.99-2.39l41.39-4.14
			c32.49-3.25,56.2-32.23,52.95-64.72c-0.49-4.94-1.61-9.81-3.32-14.47l-28.93-78.91c-0.42-1.15,0.18-2.42,1.33-2.84
			c1.14-0.41,2.41,0.17,2.83,1.31l28.93,78.91c12.09,32.96-4.84,69.48-37.8,81.56c-5.01,1.84-10.24,3.04-15.55,3.57l-39.22,3.92
			l16.48,202.18c0.1,1.22-0.81,2.29-2.03,2.39C1880.17,3773.14,1880.11,3773.14,1880.05,3773.14L1880.05,3773.14z M1958.02,3338.62
			c-1.22,0-2.22-1-2.22-2.22c0-0.4,0.11-0.8,0.32-1.15l17.37-28.7c0.63-1.05,2-1.38,3.05-0.75c1.05,0.63,1.38,2,0.75,3.05l0,0
			l-17.37,28.7C1959.51,3338.21,1958.79,3338.62,1958.02,3338.62L1958.02,3338.62z"/>
		<path class="st30" d="M1852.93,3211.1c14.22,14.68,13.85,38.12-0.83,52.34c-2.24,2.17-4.75,4.05-7.46,5.59l1.46,22.29
			c0.88,13.89-9.67,25.86-23.56,26.74c-13.61,0.86-25.43-9.26-26.68-22.84l-3.97-44.64l-8.49-49.53v-11.83l25.87-12.57l28.83,2.96"
			/>
		<path class="st4" d="M1820.9,3320.35c-14.2,0.07-26.06-10.79-27.26-24.93l-3.96-44.55l-8.47-49.44c-0.02-0.12-0.03-0.25-0.03-0.37
			v-11.83c0-0.85,0.48-1.62,1.25-2l25.87-12.57c0.37-0.18,0.78-0.26,1.2-0.21l28.83,2.96c1.22,0.11,2.12,1.18,2.02,2.4
			c-0.11,1.22-1.18,2.12-2.4,2.02c-0.02,0-0.05,0-0.07-0.01l-28.2-2.89l-24.06,11.68v10.25l8.45,49.34
			c0.01,0.06,0.02,0.12,0.02,0.18l3.97,44.64c1,11.85,10.95,20.95,22.84,20.89c0.5,0,1.01-0.02,1.51-0.05
			c12.64-0.85,22.23-11.74,21.46-24.39l-1.46-22.29c-0.05-0.85,0.38-1.65,1.12-2.07c16.71-9.5,22.55-30.74,13.06-47.45
			c-1.45-2.55-3.21-4.9-5.25-7.01c-0.84-0.89-0.81-2.29,0.08-3.13c0.87-0.83,2.24-0.81,3.09,0.03
			c15.08,15.56,14.69,40.39-0.87,55.47c-2.04,1.98-4.29,3.73-6.71,5.22l1.37,20.93c0.93,15.09-10.51,28.1-25.59,29.11
			C1822.11,3320.33,1821.5,3320.35,1820.9,3320.35L1820.9,3320.35z"/>
		<path class="st30" d="M1785.59,3208.37c0.58-18.56,16.1-33.14,34.66-32.57c18.56,0.58,33.14,16.1,32.57,34.66
			c0,0.08-0.01,0.17-0.01,0.25"/>
		<path class="st4" d="M1852.81,3212.93h-0.08c-1.22-0.04-2.18-1.07-2.14-2.29c0.64-17.34-12.89-31.91-30.23-32.56
			s-31.91,12.89-32.56,30.23c0,0.05,0,0.09,0,0.14c-0.04,1.22-1.07,2.18-2.29,2.14c-1.22-0.04-2.18-1.07-2.14-2.29
			c0.78-19.78,17.44-35.19,37.23-34.41c19.66,0.77,35.03,17.25,34.42,36.92C1854.98,3211.99,1854,3212.93,1852.81,3212.93z"/>
		<path class="st4" d="M1833.8,3219.31c-1.22,0-2.22-0.99-2.22-2.22c0-0.95,0.6-1.79,1.49-2.1l6.9-2.39l-10.42-13.23
			c-0.76-0.96-0.59-2.36,0.37-3.11c0.96-0.76,2.36-0.59,3.11,0.37l0,0l12.34,15.68c0.76,0.96,0.59,2.36-0.37,3.11
			c-0.19,0.15-0.41,0.27-0.65,0.35l-9.85,3.41C1834.3,3219.27,1834.05,3219.31,1833.8,3219.31L1833.8,3219.31z"/>
		
			<ellipse transform="matrix(0.949 -0.3153 0.3153 0.949 -918.827 737.2898)" class="st4" cx="1819.6" cy="3208.8" rx="4.05" ry="4.04"/>
		
			<ellipse transform="matrix(0.949 -0.3153 0.3153 0.949 -914.8121 745.6752)" class="st4" cx="1847.52" cy="3200.58" rx="4.05" ry="4.04"/>
		<path class="st4" d="M1794.71,3220.47c0.51,0.25,2,0.44,4.47,0.56l-5.7-27.28l30.7-9.54c5.86,1.64,12.1,1.22,17.69-1.18
			c13.78-5.84,20.22-21.74,14.38-35.52c-5.84-13.78-21.74-20.22-35.52-14.38c-7.73,3.27-13.5,9.94-15.64,18.06
			c-12.69-4.05-26.25,2.96-30.3,15.64c-1.7,5.33-1.49,11.08,0.58,16.28c-2.98,0.95-12.55,11.23-5.63,35.38
			c0.41,1.43,0.91,2.84,1.49,4.21C1776.55,3219.84,1785.41,3215.86,1794.71,3220.47L1794.71,3220.47z"/>
		<path class="st30" d="M1796.69,3219.17c-7.66-8.19-20.52-8.62-28.71-0.96s-8.62,20.52-0.96,28.71c6.27,6.71,16.26,8.37,24.37,4.06
			c1.33-0.7,2.56-1.55,3.68-2.55"/>
		<g>
			<path class="st4" d="M1781.82,3255.6c-2.22,0-4.42-0.33-6.54-0.98c-5.71-1.72-10.49-5.65-13.27-10.93
				c-5.78-11.03-1.53-24.67,9.51-30.45c8.91-4.67,19.84-2.88,26.79,4.4c0.84,0.89,0.8,2.29-0.09,3.13c-0.89,0.84-2.29,0.8-3.13-0.09
				l0,0c-6.92-7.23-18.39-7.48-25.63-0.56c-5.83,5.58-7.27,14.34-3.53,21.49c4.68,8.78,15.59,12.11,24.37,7.43
				c0.02-0.01,0.04-0.02,0.06-0.03c1.17-0.61,2.25-1.36,3.24-2.24c0.9-0.83,2.3-0.77,3.13,0.13s0.77,2.3-0.13,3.13
				c-0.01,0.01-0.03,0.02-0.04,0.04c-1.25,1.12-2.64,2.08-4.12,2.86C1789.16,3254.68,1785.52,3255.6,1781.82,3255.6L1781.82,3255.6z
				"/>
			<path class="st4" d="M1775.92,3240.09c-1.22,0.03-2.24-0.93-2.28-2.16s0.93-2.24,2.16-2.28l7.96-0.43l-10.39-8.14
				c-0.94-0.78-1.08-2.18-0.3-3.12c0.75-0.91,2.09-1.07,3.04-0.37l15.03,11.79c0.96,0.76,1.13,2.15,0.38,3.11
				c-0.39,0.5-0.99,0.81-1.63,0.85l-13.86,0.74C1776,3240.09,1775.96,3240.09,1775.92,3240.09L1775.92,3240.09z M1838.96,3233.89
				c-1.99,0-3.96-0.35-5.83-1.03c-1.15-0.42-1.74-1.69-1.32-2.84s1.69-1.74,2.84-1.32c5.73,2.11,12.14-0.25,15.13-5.58
				c0.59-1.07,1.94-1.47,3.01-0.88c1.07,0.59,1.47,1.94,0.88,3.01c-0.01,0.02-0.02,0.03-0.03,0.05
				C1850.67,3230.6,1845.05,3233.89,1838.96,3233.89L1838.96,3233.89z M1823.32,3339.45c-24.31,0-44.47-18.83-46.14-43.08
				c-0.08-1.22,0.84-2.28,2.06-2.37s2.28,0.84,2.37,2.06c1.6,23.06,21.59,40.47,44.65,38.87c23.07-1.6,40.47-21.59,38.87-44.65
				c-0.31-4.53-1.36-8.99-3.11-13.18c-0.47-1.13,0.07-2.43,1.2-2.9s2.43,0.07,2.9,1.2l0,0c9.81,23.6-1.36,50.69-24.96,60.5
				C1835.51,3338.25,1829.45,3339.46,1823.32,3339.45L1823.32,3339.45z M1761.76,3456.79c-1.22,0-2.22-0.99-2.22-2.22v-73.91
				c0-1.22,0.99-2.22,2.22-2.22s2.22,0.99,2.22,2.22v73.91C1763.98,3455.8,1762.99,3456.79,1761.76,3456.79z"/>
		</g>
	</g>
	<g transform="translate(112.0 594.0) rotate(-8.72272115107334 572.5 89.5) scale(0.6724108365612969 0.6684966295072172)">
		<path class="st4" d="M2191.62,3256.8c-0.11,0-0.23-0.01-0.34-0.03L937.1,3063.29c-1.21-0.19-2.04-1.32-1.85-2.53
			c0.19-1.21,1.32-2.04,2.53-1.85l0,0l1254.18,193.48c1.21,0.18,2.04,1.31,1.86,2.53C2193.65,3256,2192.71,3256.8,2191.62,3256.8z"
			/>
	</g>
</g>
<rect y="1336.61" class="st2" width="701.64" height="1863.6"/>
<g transform="translate(286.0 286.0) rotate(0.0 31.0 67.5) scale(0.689655172413793 0.6842372022301064)">
	<g>
		<path class="st4" d="M-305.79,3529.05l-61.35,3.7l-33.41,2c-2.62,0.07-4.68,2.25-4.61,4.87c0.09,2.62,2.26,4.68,4.89,4.6
			c0.09,0,0.19,0,0.29-0.01l32.84-1.97l61.93-3.71c0.01,0,0.04,0,0.07-0.01c2.61-0.18,4.58-2.43,4.41-5.04
			C-300.92,3530.84-303.18,3528.87-305.79,3529.05z M-263.49,3647.83c-1.13-2.37-3.96-3.36-6.32-2.22l-85.75,41.07
			c-1.65,0.77-2.71,2.46-2.7,4.28c0,2.62,2.13,4.74,4.74,4.72c0.71,0,1.41-0.16,2.04-0.47l85.77-41.07
			C-263.35,3653.02-262.36,3650.19-263.49,3647.83z M-276.53,3440.22l-77.24-55.27c-0.04-0.04-0.1-0.07-0.16-0.12
			c-2.15-1.48-5.1-0.92-6.58,1.23c-1.48,2.16-0.93,5.12,1.23,6.59l77.24,55.29c0.8,0.57,1.77,0.88,2.76,0.88
			c1.52,0,2.96-0.73,3.86-1.97C-273.9,3444.7-274.4,3441.75-276.53,3440.22z"/>
	</g>
</g>
<g>
	<rect x="360.9" y="2275.35" class="st6" width="340.75" height="911.78"/>
	<path class="st2" d="M344.19,2185.42l-0.42,1002.88h37.85l-3.17-892.61H684.1v891.72h17.54V2185.42H344.19z"/>
</g>
<path class="st2" d="M684.1,2307.51v891.72h17.54v-912.06"/>
<polygon class="st2" points="721.42,1321.76 721.42,1321.76 0.46,619.88 0,1273.13 0,1438.63 783.75,1438.63 783.75,1382.44 "/>
<g transform="translate(272.0 90.0) rotate(0.0 303.5 288.0) scale(0.6678453899413902 0.6682909850330665)">
	<path class="st7" d="M-124.69,4583.37c-14.05-0.63-20.84-17.69-10.89-27.64l13.7-13.71l3.35-3.35l-159.45-202.07l-0.07-0.1
		l-3.83,2.93l-125.4,95.89v114.44l59.73-46.79l9.16,108.2l70.76,38.05l215.78-1.26C-47.42,4615.58-83.76,4584.95-124.69,4583.37z"/>
	<path class="st4" d="M-60.09,4608.73c-14.76-17.6-39.46-29.13-64.37-30.09c-4.61-0.18-8.65-3.1-10.29-7.41
		c-1.72-4.19-0.72-8.99,2.52-12.15l17.07-17.06c1.51-1.51,1.81-3.86,0.76-5.69v-0.01c-0.12-0.21-0.25-0.39-0.4-0.58l-2.52-3.2
		l-13-16.46l-140.66-178.25l-2.95-3.76l-0.4-0.51c-1.29-1.63-3.44-2.2-5.3-1.53c-0.45,0.17-0.88,0.39-1.29,0.7l-126.36,96.62v11.91
		l128.32-98.12l0.07-0.06l154.05,195.21l-14.09,14.08c-5.88,5.81-7.73,14.59-4.66,22.27c2.96,7.86,10.35,13.15,18.73,13.45
		c22.37,0.87,44.4,11.1,57.5,26.71c5.41,6.42,11.41,16.34,11.14,28.43l-210.23,1.24l-67.44-36.29l-8.94-105.63
		c-0.07-0.93-0.42-1.8-0.99-2.53c-1.62-2.05-4.6-2.42-6.66-0.81l-56.81,44.49v12.06l55.76-43.68l8.41,99.46
		c0.13,1.59,1.06,3.01,2.47,3.77l70.76,38.07c0.69,0.37,1.47,0.57,2.25,0.57l0.03-0.02l215.78-1.26c2.35-0.02,4.34-1.77,4.67-4.1
		C-45.3,4635.05-49.89,4620.88-60.09,4608.73z"/>
	<path class="st3" d="M641.06,4170.54l-0.09,6.34l-4.76,347.51l-0.18,12.81l-0.01-0.03l-5.82-7.59l-11.56-15.08l-347.01-323.27
		c1.69,18.99,3.13,35.69,3.65,43.71c0.18,2.42,0.25,4.07,0.24,4.73L14.9,4462.7l-8.31,4.73l-120.99,68.89v0.01l-4.12,2.33
		l-159.53-202.02l0.07-0.04l4.04-2.53l264.75-165.18l4.54-2.83l0.03-4.68l0.52-73.67l0.03-5.34l0.33-5.19l11.25-179.7l0.33-5.19
		l0.33-5.18l0.27-4.46l0.01-0.03l0.99-15.86v-0.07l0.03-0.01l0.48-0.15l206.74-65.09l18.27-5.75l3.4,3.14l380.42,351.13l11.41,10.53
		L641.06,4170.54z"/>
	<path class="st4" d="M12.85,3871.12l-4.39,11.51l-0.01,0.03l-1.47,3.83l1.2,0.63l-0.33,5.18l-0.33,5.19l4.61,2.42l0.33-5.19
		l0.31-5.18l1.18-18.76L12.85,3871.12z M12.85,3871.12l-4.39,11.51l-0.01,0.03l-1.47,3.83l1.2,0.63l-0.33,5.18l-0.33,5.19l4.61,2.42
		l0.33-5.19l0.31-5.18l1.18-18.76L12.85,3871.12z M-8.79,4174.25l6.66-4.16c1.38-0.85,2.22-2.36,2.23-3.98v-0.17l0.52-75.73
		l0.04-5.34l0.01-2.33l0.18-2.93l11.26-179.7l0.33-5.19l0.31-5.18l1.18-18.76l0.03-0.54l204.58-64.42l15.21-4.79l381.8,352.41
		l14.61,13.5l10.78,9.95l0.09-6.34l-10.87-10.04v-6.46l-8.19-7.56l-382.8-353.33l-1.02-0.94c-1.11-1.03-2.64-1.47-4.1-1.15
		c-0.18,0.02-0.36,0.06-0.52,0.12l-22.49,7.08l-193.2,60.81l-5.76,1.81l-0.46,0.15l-3.61,1.14c-1.17,0.37-2.13,1.17-2.71,2.18
		l-0.06,0.12c-0.15,0.3-0.28,0.61-0.36,0.96c-0.1,0.31-0.16,0.64-0.18,0.97l-0.96,15.23l-0.51,8.24l-0.33,5.19l-11.25,179.68
		l-0.33,5.21l-0.13,2.12v0.25l-0.01,2.9l-0.55,78.2l-270.27,168.61l-0.93,0.58c-0.15,0.09-0.3,0.19-0.43,0.3
		c-2.01,1.59-2.38,4.46-0.88,6.51c0.03,0.04,0.06,0.1,0.1,0.15l2.82,3.58l154.12,195.15l2.59,3.29c0.12,0.15,0.24,0.28,0.37,0.42
		c1.48,1.5,3.82,1.83,5.69,0.76l0.6-0.34l131.75-75.01l1.08-0.61c0.25-0.15,0.49-0.33,0.73-0.52l260.61-223.03
		c1.02-0.87,1.62-2.12,1.65-3.47c0.01-0.7-0.06-2.38-0.22-4.85c-0.42-6.34-1.38-17.96-2.59-31.81l337.97,314.85l14.79,13.78
		l5.82,5.42l0.01,0.03l0.18-12.81l-6.02-5.61l-354-329.78c-1.63-18.35-3.5-38.59-5.05-55.26c-1.56-16.67-2.79-29.73-3.14-33.71
		c-0.25-2.6-2.56-4.5-5.17-4.26c-2.61,0.24-4.52,2.56-4.28,5.16c2.61,27.56,5.85,62.65,8.36,90.66c0.01,0.04,0.01,0.09,0.01,0.13
		c1.74,19.48,3.1,35.54,3.62,43.21c0.07,1.02,0.12,1.89,0.16,2.6L12.16,4458.8L-3,4467.43l-114.32,65.11l-13-16.46l-140.74-178.2
		l0.07-0.04L-8.79,4174.25z M12.85,3871.12l-4.39,11.51l-0.01,0.03l-1.47,3.83l1.2,0.63l-0.33,5.18l4.61,2.42l0.31-5.18l1.18-18.76
		L12.85,3871.12z M12.85,3871.12l-4.39,11.51l-0.01,0.03l-1.47,3.83l1.2,0.63l-0.33,5.18l-0.33,5.19l4.61,2.42l0.33-5.19l0.31-5.18
		l1.18-18.76L12.85,3871.12z"/>
	<path class="st4" d="M279.67,4234.94h-46.28v-1.26c0.05-25.59-9.99-50.16-27.93-68.39c-1.83-1.87,6.57,96.02-18.96,92
		c-13.58,0.42-12.59-22.35-15.15-22.35H78.92v-1.26c-0.04-12.23,3.91-24.14,11.25-33.92c0.44-0.19,0.58-0.33,0.3-0.42
		c0.44-0.58-0.46-0.8-2.24-0.78c-21.97-8.57-18.97-36.7-20.78-34.93c-18.99,18.35-29.67,43.64-29.59,70.05v1.26H-8.43
		c-29.47,0.03-53.35,23.92-53.39,53.39v125.73c0.03,29.47,23.92,53.35,53.39,53.39h288.1c29.47-0.03,53.35-23.92,53.39-53.39
		v-125.73C333.02,4258.85,309.14,4234.97,279.67,4234.94L279.67,4234.94z"/>
	<path class="st4" d="M-2.43,4201.45c-2.48,0-4.54-1.92-4.72-4.4l-2.21-30.64c-0.16-2.61,1.83-4.86,4.44-5.02
		c2.57-0.15,4.79,1.77,5.01,4.33l2.21,30.64c0.19,2.61-1.77,4.88-4.38,5.07C-2.2,4201.45-2.32,4201.45-2.43,4201.45z"/>
	<path class="st7" d="M636.04,3650.19l-4.25,134.38l4.25,8.5l-5.85,6.63l-6.03-0.22l-18.04-0.84c-85.2-2-255.79-9.89-255.79-9.89
		c-72.82-15.41-119.46-24.27-119.46-24.27l-10.17-58.78l13.39,85.35l0.73,4.64l-18.12,5.75l-206.96,65.7l0.22-0.61l2.14-5.66
		l40.59-107.2l-41.06,107.35l-2.16,5.66l-0.03,0.09l-5.69,14.86l-2.71,7.09l2.2,1.15l4.6,2.42l4.61,2.42l91.73,48.33
		c21.13,11.12,36.54,30.3,43,52.78c1.54,5.36,2.58,10.91,3.07,16.58l-3.62,3.46l-89.83,85.73l-3.55,3.4l-1.14,1.08
		c-1.35-0.18-2.68-0.39-4.01-0.63c-8.71-1.57-17.13-4.5-24.95-8.69l-22.49-11.87l-4.73-2.5l-4.6-2.42l-139.4-73.56
		c-38.84-20.55-56.26-66.83-40.59-107.89l78.99-206.92c12.35-35.27,41.54-53.69,68.86-64.28l19.72-7.84l4.36-1.74l0.06-0.01
		l4.39-1.75l89.8-35.76l4.4-1.75l4.4-1.75l5.39-2.14c14.81-5.9,30.94-7.66,46.67-5.1c0,0,159.11,31.51,231.04,46.18
		c1.57,0.33,3.11,0.64,4.6,0.94l2.16,1c0,0,4.12,0.16,11.33,0.43c37.22,1.41,157.06,5.87,220.84,7.24h10.27l11.56,0.43
		L636.04,3650.19z"/>
	<path class="st4" d="M-3.37,3887.02c-0.87,2.24,0.09,4.76,2.2,5.88l4.09,2.15l0.33-5.19l-2.2-1.15l2.71-7.09l0.96-15.23
		c0.01-0.33,0.07-0.66,0.18-0.97L-3.37,3887.02z M641.06,3792.68l-5.73,1.2h-0.02l-5.12,1.08l-5.81-0.21l-18.16-0.84
		c-82.22-1.93-246.16-9.46-255.28-9.88c-61.12-12.93-104.2-21.32-115.95-23.58l-9.63-55.54c-0.42-2.59-2.86-4.34-5.44-3.91
		c-2.59,0.42-4.33,2.86-3.91,5.45l13.49,85.95l-18.43,5.85l-193.43,61.41l0.22-0.6l39.28-103.71c0.93-2.44-0.3-5.18-2.76-6.11
		c-2.44-0.94-5.18,0.28-6.11,2.74L5.31,3864.34l-0.06,0.12l-0.36,0.96l-8.27,21.61c-0.87,2.24,0.09,4.76,2.2,5.88l4.09,2.15
		l4.6,2.42l4.61,2.42l89.84,47.33c2.55,1.33,5,2.78,7.35,4.37c16.29,10.85,28.14,27.16,33.42,45.89v0.01
		c1.21,4.25,2.07,8.6,2.58,13.06l-0.85,0.82l-90.13,85.98l-3.52,3.37l-0.3,0.28c-1.96-0.31-3.89-0.7-5.81-1.15
		c-6.72-1.6-13.22-4.07-19.33-7.35L0.87,4079.6l-4.6-2.42l-4.6-2.44l-137.52-72.54c-36.69-19.47-53.14-63.19-38.38-102.01
		l79.02-207.02c9.78-27.91,31.4-48,66.15-61.46l19.78-7.87l4.4-1.77l4.4-1.75l89.72-35.72l4.39-1.75l4.42-1.75l5.39-2.15
		c9.84-3.89,20.32-5.9,30.91-5.9c4.42,0,8.83,0.36,13.19,1.06c4.45,0.87,166.54,33.01,234.96,47h0.01l1.65,0.76
		c0.57,0.27,1.2,0.42,1.83,0.45c0.34,0.01,8.52,0.33,21.85,0.82c45.73,1.72,152.1,5.6,210.51,6.85h10.18l11.65,0.43l1.06-0.33
		l6.72-2.07v-4.76l-7.79,2.39v-4.74l-11.38-0.42h-10.36c-72.14-1.56-217.91-7.12-231.15-7.63l-0.85-0.39l-0.31-0.16
		c-0.18-0.09-0.36-0.16-0.54-0.22c-0.16-0.06-0.33-0.1-0.49-0.13c-0.04-0.03-0.09-0.03-0.13-0.04
		c-68.71-14.05-234.01-46.81-235.65-47.14c-0.06,0-0.1-0.03-0.16-0.03c-16.58-2.66-33.57-0.81-49.19,5.39l-5.38,2.14l-4.4,1.75
		l-4.4,1.75l-89.87,35.78l-4.39,1.75l-4.42,1.75l-19.62,7.81c-36.92,14.31-61.03,36.9-71.59,67.02l-78.97,206.92
		c-16.46,43.27,1.89,92.04,42.81,113.75l141.45,74.65l4.72,2.48l4.72,2.5l20.29,10.7c9.34,5.01,19.51,8.32,30.01,9.77
		c0.19,0.03,0.39,0.04,0.58,0.07c0.21,0.03,0.4,0.04,0.61,0.04c1.23,0,2.4-0.48,3.28-1.32l0.13-0.13l3.59-3.43l89.65-85.56
		l3.64-3.46l1.12-1.08c1.03-0.99,1.57-2.39,1.44-3.83c-0.03-0.28-0.04-0.58-0.09-0.87c-2.89-30.72-21.13-57.92-48.48-72.27
		l-93.63-49.32l-4.6-2.42l-1.2-0.63l1.47-3.83l0.01-0.03l4.39-11.51l1.11-0.34l204.61-64.96l17.68-5.61
		c0.85-0.27,1.57-0.75,2.11-1.38c0.91-1.03,1.36-2.44,1.12-3.88l-0.28-1.81l-3.59-22.92c14.51,2.81,56.12,10.98,113.74,23.16
		c0.25,0.06,0.51,0.09,0.76,0.1c1.71,0.07,171.61,7.92,255.78,9.89l18.09,0.84l6.21,0.22v-4.74l8.94,0.57l-3.1-4.73L641.06,3792.68z
		"/>
	<path class="st1" d="M18.58,3992.33c-12.98,23.96-10.43,53.34,6.48,74.71c21.8,26.85,38.7,41.54,46.75,103.14
		c3.16,24.32,12.95,27.17,20.53,26.85c16.11-0.79,20.85-15.79,20.85-24.48c1.11,15.32,7.58,25.27,22.43,24.48
		c12.48-0.55,22.38-10.72,22.59-23.22c15.16,64.6,10.58,84.5,30.64,82.29c33.01-3.63,9.63-137.89-10.74-182.12
		c-15.64-33.8-28.59-68.08-49.6-101.09C102.77,3932.78,35.64,3961.05,18.58,3992.33L18.58,3992.33z"/>
	<path class="st4" d="M412.56,3630.5l-14.72-7.35l-10.33-5.15l-11.07-5.51l-0.31-0.16c-0.18-0.09-0.36-0.16-0.54-0.22
		c-0.16-0.06-0.33-0.1-0.49-0.13c-2.07-0.48-4.27,0.49-5.27,2.47c-0.19,0.39-0.33,0.78-0.4,1.18c-0.43,2.03,0.54,4.19,2.49,5.19
		l0.6,0.3h0.01l35.82,17.85c0.66,0.33,1.38,0.49,2.11,0.49v0.02c1.8,0,3.44-1.02,4.25-2.63
		C415.86,3634.51,414.92,3631.67,412.56,3630.5z M206.44,4166.3c-5.15-36.75-15.06-74.8-24.03-94.3
		c-3.91-8.47-7.73-17.12-11.42-25.5c-5.15-11.67-10.38-23.51-16.1-35.37c-2.46-5.1-5.02-10.21-7.7-15.31
		c-4.49-8.56-9.34-17.07-14.69-25.48c-5.73-8.95-13.58-15.25-23.18-18.73c-6.54-2.39-13.9-3.49-21.95-3.2
		c-28.25,1.02-60.97,19.69-72.95,41.66c-13.96,25.63-11.22,57.12,6.95,79.97c2.1,2.56,4.21,5.12,6.32,7.65
		c6.27,7.56,11.96,14.41,17.02,22.21c1.17,1.8,2.31,3.64,3.4,5.55c0.97,1.69,1.92,3.44,2.82,5.25
		c6.54,12.91,11.69,29.28,15.35,54.09c0.3,1.95,0.57,3.95,0.84,6.02c2.53,19.48,9.63,29.63,21.68,30.87
		c1.21,0.12,2.49,0.16,3.79,0.1c8.34-0.19,16.04-4.58,20.44-11.67c5.93,10.55,16.1,12.02,22.85,11.67
		c8.4-0.27,16.23-4.35,21.25-11.12c2.38,11.3,4.15,20.89,5.66,29.1c1.03,5.64,1.96,10.71,2.92,15.19
		c3.71,17.45,7.82,26.07,20.17,26.07v0.02c1.17-0.02,2.34-0.07,3.5-0.21c3.95-0.43,9.57-2.53,13.81-10.03
		C211.9,4235.33,211.34,4201.41,206.44,4166.3z M188.32,4251.39c-9,1-10.51-2.12-16.23-33.34c-2.19-11.88-4.9-26.68-9.27-45.32
		c-0.51-2.14-2.41-3.65-4.61-3.65c-0.19,0-0.39,0.02-0.58,0.03c-2.41,0.3-4.19,2.36-4.15,4.79c-0.18,9.98-8.15,18.06-18.1,18.41
		c-6.84,0.37-16.1-1.32-17.46-20.1c-0.18-2.47-2.23-4.38-4.72-4.38c-2.62,0-4.73,2.11-4.75,4.73c0,0.78-0.18,18.96-16.31,19.75
		c-3.77,0.15-12.61,0.52-15.63-22.73c-3.89-29.73-9.85-48.87-17.38-63.64c-0.75-1.5-1.51-2.93-2.32-4.34
		c-0.79-1.44-1.62-2.84-2.47-4.2c-5.78-9.41-12.29-17.25-19.36-25.77c-2.02-2.44-4.1-4.95-6.24-7.57
		c-15.77-19.84-18.12-47.19-5.99-69.45c10.38-19.02,40.13-35.84,64.97-36.72c11.38-0.39,27.01,2.32,36.79,17.57
		c7.5,11.76,14,23.84,19.96,35.96c0.73,1.48,1.47,2.98,2.17,4.46c0.72,1.5,1.44,3.01,2.14,4.5c4.73,10.04,9.16,20.07,13.54,29.97
		c3.7,8.41,7.55,17.1,11.48,25.63c18.43,39.98,36.46,143.04,21.13,170.15C192.18,4250.97,189.28,4251.28,188.32,4251.39z"/>
	<path class="st1" d="M47.39,3403.02c-4.04-13.5-11.71-25.63-22.18-35.06l-118.15,45.87l37.91,111.11l41.86,101.26
		c11.45,26.93,42.56,39.49,69.5,28.04c26.42-11.23,39.09-41.45,28.59-68.16l-13.77-34.99c31.02-29.89,31.94-79.26,2.05-110.28
		c-1.21-1.26-2.47-2.48-3.76-3.65L47.39,3403.02z"/>
	<path class="st4" d="M-62.1,3489.55l-4.51-13.21l-8.34-24.47c-1.68-0.18-3.37-0.25-5.08-0.19l8.46,24.79l5.66,16.62l9.39,27.52
		c0.46-0.37,0.88-0.75,1.29-1.15c0.79-0.79,1.81-1.26,2.86-1.38L-62.1,3489.55z M-62.1,3489.55l-4.51-13.21l-8.34-24.47
		c-1.68-0.18-3.37-0.25-5.08-0.19l8.46,24.79l5.66,16.62l9.39,27.52c0.46-0.37,0.88-0.75,1.29-1.15c0.79-0.79,1.81-1.26,2.86-1.38
		L-62.1,3489.55z M-62.1,3489.55l-4.51-13.21l-8.34-24.47c-1.68-0.18-3.37-0.25-5.08-0.19l8.46,24.79l5.66,16.62l9.39,27.52
		c0.46-0.37,0.88-0.75,1.29-1.15c0.79-0.79,1.81-1.26,2.86-1.38L-62.1,3489.55z M-62.1,3489.55l-4.51-13.21l-8.34-24.47
		c-1.68-0.18-3.37-0.25-5.08-0.19l8.46,24.79l5.66,16.62l9.39,27.52c0.46-0.37,0.88-0.75,1.29-1.15c0.79-0.79,1.81-1.26,2.86-1.38
		L-62.1,3489.55z M-62.1,3489.55l-4.51-13.21l-8.34-24.47c-1.68-0.18-3.37-0.25-5.08-0.19l8.46,24.79l5.66,16.62l9.39,27.52
		c0.46-0.37,0.88-0.75,1.29-1.15c0.79-0.79,1.81-1.26,2.86-1.38L-62.1,3489.55z M88.06,3581.11l-1.74-4.41l-1.74-4.4l-7.89-20.05
		c14.87-15.35,23.15-35.93,23.07-57.3c-0.03-21.35-8.28-41.82-22.94-57.18c-1.08-1.15-2.2-2.26-3.37-3.34
		c-0.12-0.12-0.25-0.24-0.37-0.36l-2.31-3.58l-16.35-25.3l-2.62-4.04l-0.09-0.15c-0.45-1.47-0.94-2.92-1.48-4.34
		c-3.26-8.83-8.03-17-14.08-24.17c-2.4-2.86-5-5.55-7.79-8.07c-1.33-1.2-3.22-1.54-4.88-0.9l-118.14,45.88
		c-2.37,0.91-3.59,3.53-2.77,5.94l9.45,27.7l1.56,4.55l0.19,0.61l1.35,3.92l8.34,24.47l3.2,9.4l0.28,0.79l3.34,9.83l9.09,26.61
		l1.09,3.23c0.04,0.1,0.07,0.19,0.12,0.28l0.4,0.97l1.81,4.38l34.29,82.97l1.81,4.38l1.81,4.38l1.74,4.2
		c9.21,21.32,30.22,35.13,53.44,35.13c7.16,0,14.24-1.35,20.9-3.98c0.04-0.01,0.09-0.04,0.13-0.06c29.6-11.72,44.1-45.2,32.39-74.8
		L88.06,3581.11z M-8.79,3624.4l-1.68-4.07l-1.81-4.37l-1.81-4.38l-35.05-84.81l-1.45-3.5l-0.76-2.24l-1-2.93l-9.73-28.54
		l-4.51-13.21l-8.34-24.47l-1.35-3.92l-0.33-0.96l-1.63-4.79l-8.73-25.6l111.13-43.15c1.59,1.54,3.08,3.16,4.52,4.83
		c5.56,6.54,9.9,14.02,12.85,22.1c0.48,1.32,0.93,2.66,1.33,4.01c0.06,0.16,0.12,0.33,0.19,0.49c0.09,0.25,0.21,0.49,0.36,0.72
		l2.17,3.35l1.8,2.78l7.82,12.09l7.28,11.28l2.64,4.07l0.36,0.55c0.22,0.34,0.49,0.66,0.79,0.94c0.79,0.72,1.56,1.45,2.31,2.2
		c13.87,13.74,21.71,32.47,21.73,52.07c0.06,19.68-7.86,38.53-21.95,52.27c-0.15,0.15-0.31,0.31-0.48,0.46
		c-1.38,1.33-1.83,3.37-1.12,5.15l2.4,6.09l6.65,16.88l1.74,4.4l1.74,4.41l1.26,3.2c0.01,0.06,0.04,0.12,0.06,0.16
		c9.7,24.76-2.5,52.7-27.27,62.41C28.99,3659.83,1.54,3648.36-8.79,3624.4z M-62.1,3489.55l-4.51-13.21l-8.34-24.47
		c-1.68-0.18-3.37-0.25-5.08-0.19l8.46,24.79l5.66,16.62l9.39,27.52c0.46-0.37,0.88-0.75,1.29-1.15c0.79-0.79,1.81-1.26,2.86-1.38
		L-62.1,3489.55z M-62.1,3489.55l-4.51-13.21l-8.34-24.47c-1.68-0.18-3.37-0.25-5.08-0.19l8.46,24.79l5.66,16.62l9.39,27.52
		c0.46-0.37,0.88-0.75,1.29-1.15c0.79-0.79,1.81-1.26,2.86-1.38L-62.1,3489.55z M-62.1,3489.55l-4.51-13.21l-8.34-24.47
		c-1.68-0.18-3.37-0.25-5.08-0.19l8.46,24.79l5.66,16.62l9.39,27.52c0.46-0.37,0.88-0.75,1.29-1.15c0.79-0.79,1.81-1.26,2.86-1.38
		L-62.1,3489.55z M-62.1,3489.55l-4.51-13.21l-8.34-24.47c-1.68-0.18-3.37-0.25-5.08-0.19l8.46,24.79l5.66,16.62l9.39,27.52
		c0.46-0.37,0.88-0.75,1.29-1.15c0.79-0.79,1.81-1.26,2.86-1.38L-62.1,3489.55z"/>
	<path class="st4" d="M-104.19,3455.26c-9.01-23.41-6.83-49.65,5.92-71.25c-2.12-5.14-3.21-10.65-3.19-16.21
		c0-23.56,19.11-42.65,42.66-42.65c6.19,0,12.3,1.35,17.92,3.95c5.41-24.98,30.04-40.85,55.02-35.44s40.85,30.04,35.44,55.02
		c-4.61,21.29-23.44,36.48-45.22,36.49c-1.55,0-3.1-0.08-4.64-0.24l-56.49,28.29c-4.89,2.46-3.47,7.95-1.67,11.86l16.28,36.04
		C-59.76,3449.3-83.67,3441.17-104.19,3455.26z"/>
	<path class="st1" d="M-51.86,3522.81c-6.32,6.32-18.18,9.41-27.01,9.41c-23.55-0.01-42.64-19.11-42.63-42.66
		c0.01-23.55,19.11-42.64,42.66-42.63c18.16,0.01,34.33,11.52,40.28,28.68L-51.86,3522.81z"/>
	<path class="st4" d="M46.24,3447.01l-1.65-2.5l-4.54-6.91l-13.51-20.56l-2.11-3.2c-0.19-0.28-0.4-0.54-0.63-0.76
		c-1.54-1.53-3.98-1.84-5.87-0.61c-0.01,0-0.04,0.02-0.06,0.03c-2.19,1.44-2.8,4.37-1.36,6.55l1.12,1.71l17.35,26.43l-15.15,5.4
		c-0.34,0.12-0.66,0.28-0.96,0.48c-1.36,0.85-2.2,2.35-2.2,4c0,0.1,0,0.22,0.01,0.33c0.16,2.47,2.23,4.4,4.73,4.4
		c0.54,0,1.08-0.09,1.59-0.28l20.86-7.42c0.34-0.12,0.69-0.3,1-0.51C47.06,3452.12,47.67,3449.19,46.24,3447.01z M-34.1,3474.06
		c-1.36-3.91-3.19-7.56-5.42-10.88c-1.15-1.72-2.41-3.37-3.77-4.91c-0.01-0.01-0.01-0.04-0.04-0.06c-0.09-0.09-0.15-0.16-0.24-0.25
		l-0.01-0.01c-8.67-9.67-21.14-15.58-34.66-15.74c-0.19-0.01-0.4-0.01-0.6-0.01c-1.47,0-2.9,0.06-4.34,0.19
		c-1.62,0.15-3.2,0.37-4.78,0.67c-6.53,1.29-12.58,3.89-17.85,7.54c-12.34,8.56-20.42,22.82-20.42,38.97
		c-0.01,26.17,21.2,47.39,47.38,47.4c6.6,0,14.78-1.54,21.68-4.86c1.45-0.69,2.85-1.47,4.16-2.32c1.39-0.91,2.71-1.92,3.88-3.02
		c0.21-0.19,0.42-0.39,0.63-0.6c1.86-1.86,1.86-4.85,0-6.7c-0.6-0.6-1.3-1-2.07-1.21c-0.58-0.16-1.18-0.21-1.78-0.16
		c-1.05,0.12-2.07,0.58-2.86,1.38c-0.4,0.4-0.82,0.78-1.29,1.15c-1.2,0.97-2.59,1.86-4.1,2.62c-5.5,2.8-12.64,4.25-18.25,4.25
		c-16.16,0-30.52-10.24-35.82-25.48c-6.86-19.78,3.62-41.37,23.4-48.24c2.13-0.73,4.27-1.27,6.41-1.62
		c1.62-0.25,3.23-0.42,4.85-0.46c1.71-0.06,3.4,0.01,5.08,0.19c14.18,1.48,26.91,10.94,31.89,25.29c0.01,0.04,0.03,0.07,0.04,0.1
		c0.52,1.5,1.72,2.54,3.13,2.95c0.93,0.27,1.95,0.27,2.93-0.09C-34.48,3479.24-33.2,3476.51-34.1,3474.06z"/>
	<ellipse class="st4" cx="-7.95" cy="3439.66" rx="5.49" ry="5.49"/>
	<path class="st4" d="M63.86,3472.07c0,0,0-0.01-0.01-0.03c-0.78-2.48-3.44-3.88-5.93-3.1l-41.24,12.96
		c-0.1,0.03-0.21,0.06-0.31,0.1c-2.43,0.97-3.62,3.71-2.67,6.15c6.05,15.32,18.01,22.18,28.7,22.18c2.64,0.01,5.26-0.42,7.76-1.29
		C61.41,3505.11,70.02,3492.15,63.86,3472.07z M47.03,3500.1c-7.07,2.47-16.41-0.61-22.3-10.79l31.2-9.82
		C58.11,3491.54,52.8,3498.08,47.03,3500.1z"/>
	<path class="st1" d="M66.28,3438.72c-15.47,6.59-33.35-0.61-39.95-16.08c0-0.01-0.01-0.02-0.01-0.03l-3.79-9l56.07-23.85l3.79,9
		c6.61,15.43-0.55,33.3-15.98,39.91C66.37,3438.68,66.32,3438.7,66.28,3438.72z"/>
	<g>
		<path class="st4" d="M18.84,3425.67l-1.95-4.62l-1.84-4.38c0,0,0,0,0-0.01c-1.03-2.39-3.77-3.52-6.18-2.53
			c-0.01,0-0.01,0.02-0.03,0.02l-56.08,23.85c-2.4,1.03-3.53,3.8-2.52,6.21l0.49,1.17l0.03,0.07l3.28,7.78
			c0.61,1.42,1.32,2.78,2.08,4.1c0.01,0,0.01,0.01,0.01,0.01c0.16,0.3,0.34,0.58,0.52,0.88c0.03,0.01,0.03,0.04,0.04,0.06
			c1.12,1.75,2.38,3.4,3.77,4.91c6.57,7.17,15.95,11.45,26.01,11.46c4.73,0,9.4-0.96,13.73-2.83c7.17-3.05,12.8-8.22,16.47-14.44
			c0.84-1.39,1.56-2.84,2.19-4.32C22.43,3444.6,22.7,3434.78,18.84,3425.67z M-3.43,3462.99c-13.06,5.61-28.18-0.42-33.8-13.47
			l-1.96-4.65l25.14-10.7l6.38-2.71l15.83-6.73l1.96,4.64C15.6,3442.4,9.55,3457.41-3.43,3462.99z M86.76,3396.92l-3.79-9.01v-0.01
			c-1.03-2.41-3.82-3.53-6.21-2.51l-26.52,11.28l-4.36,1.86l-4.36,1.86l-20.08,8.53l-0.76,0.33c-1.42,0.61-2.4,1.83-2.74,3.22
			c-0.25,0.96-0.19,2.01,0.22,2.99l1.83,4.32l1.98,4.7c4.22,9.88,12.62,17.13,22.62,20.04c3.11,0.93,6.41,1.41,9.76,1.42
			c4.69-0.01,9.31-0.96,13.63-2.78c0.19-0.09,0.39-0.16,0.58-0.27c1.54-0.67,3.01-1.44,4.39-2.32c1.38-0.84,2.67-1.78,3.88-2.78
			C88.46,3428.11,92.95,3411.6,86.76,3396.92z M70.78,3430.5c-1.2,1-2.5,1.89-3.91,2.66c-0.78,0.43-1.59,0.82-2.43,1.18l-0.03,0.02
			c-0.64,0.28-1.29,0.52-1.95,0.75c-5.75,1.95-12.04,1.75-17.71-0.55c-6.33-2.54-11.39-7.51-14.06-13.8l-1.96-4.64l16.85-7.17
			l4.43-1.89l4.42-1.87l21.65-9.22l1.96,4.64c0.01,0.03,0.01,0.06,0.03,0.09C82.61,3411.41,79.31,3423.47,70.78,3430.5z"/>
		<path class="st4" d="M-59.89,3476.16l-6.71,0.18l-4.96,0.13l-4.97,0.13l-23.33,0.64c-2.61,0.07-4.67,2.26-4.6,4.88
			c0.07,2.62,2.25,4.68,4.87,4.61l26.26-0.73l1.17-0.03l-0.88,0.82l-11.13,10.37c-0.96,0.9-1.5,2.15-1.5,3.47
			c0,2.62,2.13,4.74,4.73,4.73c1.21,0.01,2.37-0.45,3.23-1.27l8-7.47l3.8-3.53l3.8-3.55l5.57-5.19c0.99-0.93,1.54-2.24,1.5-3.61
			C-55.1,3478.15-57.27,3476.08-59.89,3476.16z M74.57,3547.59l-0.01-0.02c-1.71-1.69-4.36-1.8-6.21-0.36
			c-0.18,0.12-0.34,0.25-0.49,0.42c-9.04,8.14-19.75,14.2-31.37,17.79c-15.08,4.28-31.14,3.49-45.71-2.24
			c-2.44-0.96-5.2,0.27-6.14,2.71c-0.94,2.44,0.27,5.19,2.71,6.14c9.6,3.7,19.81,5.6,30.1,5.61c7.38,0.03,14.73-1.03,21.82-3.14
			c10.84-3.34,20.98-8.62,29.89-15.58c1.3-1.02,2.59-2.08,3.85-3.17c0.51-0.45,1.02-0.9,1.53-1.36c0.03-0.04,0.07-0.07,0.1-0.1
			C76.45,3552.41,76.42,3549.42,74.57,3547.59z M28.82,3410.96l-0.01-0.01c-1.02-2.39-3.79-3.53-6.2-2.51l-1.17,0.48l-0.76,0.33
			l-11.81,4.88c-0.01,0-0.01,0.02-0.03,0.02c-1.75,0.73-2.89,2.47-2.89,4.37c0,2.62,2.13,4.74,4.75,4.74c0.61,0,1.23-0.13,1.8-0.37
			l4.4-1.83l0.75-0.3l2.35-0.97l4.37-1.81l1.87-0.78c0.01,0,0.04-0.01,0.06-0.01c0.09-0.03,0.16-0.07,0.25-0.13
			C28.78,3415.96,29.81,3413.28,28.82,3410.96z"/>
		<ellipse class="st4" cx="47.96" cy="3419.92" rx="5.49" ry="5.49"/>
	</g>
</g>
</svg>
