<?xml version="1.0" encoding="utf-8"?>
<!-- Generator: Adobe Illustrator 26.1.0, SVG Export Plug-In . SVG Version: 6.00 Build 0)  -->
<svg version="1.1" id="Layer_1" xmlns="http://www.w3.org/2000/svg" xmlns:xlink="http://www.w3.org/1999/xlink" x="0px" y="0px"
	 viewBox="0 0 2000 3200" style="enable-background:new 0 0 2000 3200;" xml:space="preserve">
<style type="text/css">
	.st0{fill:#70D9D9;}
	.st1{fill:#FFFFFF;}
	.st2{fill:#FF7F36;}
	.st3{fill:#007575;}
	.st4{fill:#222433;}
	.st5{fill:#FF7F36;stroke:#FF7F36;stroke-miterlimit:10;}
	.st6{fill:#15C2C1;}
	.st7{fill:#FDA979;}
	.st8{fill:#C35515;}
	.st9{fill:none;stroke:#5A38FD;stroke-width:111.9047;stroke-miterlimit:10;}
	.st10{fill:none;stroke:#FF7F36;stroke-width:111.9047;stroke-miterlimit:10;}
	.st11{fill:none;stroke:#FFFFFF;stroke-width:9.2351;stroke-miterlimit:10;stroke-dasharray:23.0877,36.9403;}
	.st12{fill:none;stroke:#313341;stroke-width:3.8308;stroke-miterlimit:10;}
	.st13{fill:none;}
	.st14{opacity:0.75;fill:#70D9D9;}
	.st15{fill:#5A38FD;}
	.st16{fill:none;stroke:#222433;stroke-width:8.5039;stroke-miterlimit:10;stroke-dasharray:14.1732,14.1732;}
	.st17{fill:#7057FD;}
	.st18{fill:none;stroke:#222433;stroke-width:5.4074;stroke-miterlimit:10;}
	.st19{fill:#222433;stroke:#222433;stroke-width:5.4303;stroke-miterlimit:10;}
	.st20{fill:#2B292D;}
	.st21{fill:none;stroke:#C35515;stroke-width:9.9101;stroke-miterlimit:10;}
	.st22{fill:none;stroke:#C35515;stroke-width:5.6693;stroke-miterlimit:10;}
	.st23{fill:#C35515;stroke:#000000;stroke-miterlimit:10;}
	.st24{fill:#C35515;stroke:#000000;stroke-width:0.6042;stroke-miterlimit:10;}
	.st25{fill:#15C2C1;stroke:#222433;stroke-width:6.1644;stroke-miterlimit:10;}
	.st26{fill:#FFFFFF;stroke:#000000;stroke-width:6.1644;stroke-miterlimit:10;}
	.st27{fill:none;stroke:#007575;stroke-width:6.1644;stroke-miterlimit:10;}
	.st28{fill:none;stroke:#FFFFFF;stroke-width:14.1732;stroke-miterlimit:10;stroke-dasharray:23.0877,36.9403;}
	.st29{fill-rule:evenodd;clip-rule:evenodd;fill:#FDA979;}
	.st30{fill-rule:evenodd;clip-rule:evenodd;fill:#FFFFFF;}
	.st31{fill-rule:evenodd;clip-rule:evenodd;fill:#007575;}
	.st32{fill:#606060;}
	.st33{clip-path:url(#SVGID_00000176044835195541506760000012138433908783660192_);}
	.st34{fill:#222433;stroke:#222433;stroke-width:1.0471;stroke-miterlimit:10;}
	.st35{fill:#222433;stroke:#222433;stroke-width:2.2688;stroke-miterlimit:10;}
	.st36{fill:#82B1FF;}
	.st37{fill:#15C2C1;stroke:#70D9D9;stroke-width:15.652;stroke-miterlimit:10;}
	.st38{stroke:#222433;stroke-width:0.8333;stroke-miterlimit:10;}
	.st39{clip-path:url(#SVGID_00000001631212133434402710000007800333430622784676_);}
	.st40{clip-path:url(#SVGID_00000001631212133434402710000007800333430622784676_);fill:#FF7F36;}
	.st41{clip-path:url(#SVGID_00000001631212133434402710000007800333430622784676_);fill:#C35515;}
	.st42{fill:#222433;stroke:#222433;stroke-width:0.791;stroke-miterlimit:10;}
	.st43{fill-rule:evenodd;clip-rule:evenodd;fill:#FF7F36;}
	.st44{fill-rule:evenodd;clip-rule:evenodd;fill:#15C2C1;}
	.st45{fill:none;stroke:#FF7F36;stroke-width:11.3386;stroke-miterlimit:10;}
	.st46{fill:none;stroke:#FF7F36;stroke-width:9.6934;stroke-miterlimit:10;}
	.st47{opacity:0.44;fill:#FDA979;}
	.st48{fill:none;stroke:#70D9D9;stroke-width:8.5039;stroke-miterlimit:10;stroke-dasharray:11.5087,11.5098;}
	.st49{opacity:0.75;fill:#007575;}
	.st50{clip-path:url(#SVGID_00000016063244158286414420000000682926438116348836_);}
	.st51{fill:none;stroke:#FF7F36;stroke-miterlimit:10;}
	.st52{clip-path:url(#SVGID_00000079482329876989419830000000166340816740212147_);}
	.st53{stroke:#70D9D9;stroke-width:8.5039;stroke-miterlimit:10;}
	.st54{fill:#FDA979;stroke:#222433;stroke-width:17.0079;stroke-miterlimit:10;}
	.st55{clip-path:url(#SVGID_00000130638893036483516750000012222738208752950718_);}
	.st56{fill:none;stroke:#222433;stroke-width:16.1222;stroke-linecap:round;stroke-miterlimit:10;}
	.st57{clip-path:url(#SVGID_00000069361819646093097560000017682135178513374134_);fill:#15C2C1;}
	.st58{clip-path:url(#SVGID_00000069361819646093097560000017682135178513374134_);fill:#C35515;}
	
		.st59{clip-path:url(#SVGID_00000069361819646093097560000017682135178513374134_);fill:#15C2C1;stroke:#000000;stroke-width:8.2755;stroke-miterlimit:10;}
	.st60{clip-path:url(#SVGID_00000069361819646093097560000017682135178513374134_);fill:#FF7F36;}
	
		.st61{clip-path:url(#SVGID_00000069361819646093097560000017682135178513374134_);fill:#15C2C1;stroke:#000000;stroke-width:8.5039;stroke-miterlimit:10;}
	
		.st62{clip-path:url(#SVGID_00000069361819646093097560000017682135178513374134_);fill:none;stroke:#000000;stroke-width:8.5039;stroke-miterlimit:10;}
	
		.st63{clip-path:url(#SVGID_00000069361819646093097560000017682135178513374134_);fill:#FFFFFF;stroke:#000000;stroke-width:8.5039;stroke-miterlimit:10;}
	.st64{clip-path:url(#SVGID_00000069361819646093097560000017682135178513374134_);}
	.st65{fill:none;stroke:#000000;stroke-width:8.2815;stroke-linecap:round;stroke-miterlimit:10;}
	
		.st66{clip-path:url(#SVGID_00000069361819646093097560000017682135178513374134_);fill:#FFFFFF;stroke:#000000;stroke-width:8.7446;stroke-miterlimit:10;}
	.st67{clip-path:url(#SVGID_00000069361819646093097560000017682135178513374134_);fill:none;}
	.st68{clip-path:url(#SVGID_00000083066030500858384890000006092818671070286515_);fill:#FF7F36;}
	.st69{clip-path:url(#SVGID_00000083066030500858384890000006092818671070286515_);}
	
		.st70{clip-path:url(#SVGID_00000083066030500858384890000006092818671070286515_);fill:none;stroke:#5A38FD;stroke-width:111.9047;stroke-miterlimit:10;}
	.st71{clip-path:url(#SVGID_00000064322322937193610710000005310463003880432546_);}
	
		.st72{opacity:0.57;clip-path:url(#SVGID_00000064322322937193610710000005310463003880432546_);fill:none;stroke:#FFFFFF;stroke-width:32.7065;stroke-linecap:round;stroke-miterlimit:10;}
	.st73{fill:#222433;stroke:#000000;stroke-width:7.0866;stroke-miterlimit:10;}
	
		.st74{clip-path:url(#SVGID_00000064322322937193610710000005310463003880432546_);fill:#222433;stroke:#222433;stroke-width:163.17;stroke-miterlimit:10;}
	.st75{fill:none;stroke:#000000;stroke-width:7.0866;stroke-miterlimit:10;}
	
		.st76{clip-path:url(#SVGID_00000064322322937193610710000005310463003880432546_);fill:#70D9D9;stroke:#000000;stroke-width:2.8346;stroke-linecap:round;stroke-miterlimit:10;}
	.st77{clip-path:url(#SVGID_00000140694734552559780630000003631304215922293421_);fill:#FFFFFF;}
	.st78{clip-path:url(#SVGID_00000140694734552559780630000003631304215922293421_);fill:#222433;}
	.st79{clip-path:url(#SVGID_00000140694734552559780630000003631304215922293421_);fill:#15C2C1;}
	.st80{clip-path:url(#SVGID_00000140694734552559780630000003631304215922293421_);fill:#FDA979;}
	.st81{clip-path:url(#SVGID_00000140694734552559780630000003631304215922293421_);}
	.st82{clip-path:url(#SVGID_00000140694734552559780630000003631304215922293421_);fill:#FF7F36;}
	.st83{clip-path:url(#SVGID_00000140694734552559780630000003631304215922293421_);fill:#C35515;}
	.st84{clip-path:url(#SVGID_00000169525113697811951650000008436578115791824526_);}
</style>
<g>
	<g transform="translate(826.0 325.0) rotate(0.0 31.5 154.0) scale(0.575973669775096 0.5729379813237099)">
		<path class="st4" d="M934.67,4283.23c-2.78,0-5.04-2.26-5.04-5.04v-761.02c0-2.78,2.26-5.04,5.04-5.04s5.04,2.26,5.04,5.04v761.02
			C939.71,4280.97,937.45,4283.23,934.67,4283.23z"/>
		<path class="st2" d="M1008.15,3380.37c-10.14-0.01-18.36,8.2-18.37,18.34v0.02c0-10.14-8.22-18.36-18.36-18.36h-0.02
			c-10.14,0-18.36,8.22-18.36,18.36c0-10.14-8.22-18.36-18.36-18.36h-0.02c-10.14-0.01-18.36,8.2-18.37,18.34v0.02
			c0-10.13-8.2-18.34-18.32-18.36c-10.14-0.07-18.41,8.1-18.47,18.24v0.12c0-10.14-8.22-18.36-18.36-18.36
			c-10.14-0.01-18.36,8.2-18.37,18.34v76.89c-0.01,50.72,41.1,91.84,91.82,91.85h0.03c50.73,0,91.85-41.12,91.85-91.85v-76.87
			C1026.47,3388.61,1018.27,3380.39,1008.15,3380.37z"/>
		<g>
			<path class="st4" d="M990.12,3473.58c-2.78,0-5.04-2.26-5.04-5.04v-72.22c0-2.78,2.26-5.04,5.04-5.04s5.04,2.26,5.04,5.04v72.22
				C995.16,3471.32,992.9,3473.58,990.12,3473.58z M953.17,3473.58c-2.78,0-5.04-2.26-5.04-5.04v-72.22c0-2.78,2.26-5.04,5.04-5.04
				s5.04,2.26,5.04,5.04v72.22C958.21,3471.32,955.96,3473.58,953.17,3473.58z M916.22,3473.58c-2.78,0-5.04-2.26-5.04-5.04v-72.22
				c0-2.78,2.26-5.04,5.04-5.04s5.04,2.26,5.04,5.04v72.22C921.26,3471.32,919.01,3473.58,916.22,3473.58z M879.28,3473.58
				c-2.78,0-5.04-2.26-5.04-5.04v-72.22c0-2.78,2.26-5.04,5.04-5.04s5.04,2.26,5.04,5.04v72.22
				C884.31,3471.32,882.06,3473.58,879.28,3473.58z"/>
		</g>
	</g>
	<g transform="translate(389.0 247.0) rotate(0.0 252.0 193.0) scale(0.6067172264355363 0.6065710819593817)">
		<path class="st1" d="M1474.74,3507.19c11.7-4.22,22.96-8.21,32.38-11.42c49.04-16.79,193.48-26.7,193.64,8.73
			c0.17,21.5-48.03,13.77-117.23,28.05c62.64-3.19,115.72-5.54,114.37,16.46c-1.34,22.17-64.49,31.24-113.37,28.55
			c33.25,11.76,72.39,25.7,68.69,42.49c-5.37,24.18-41.82,13.94-66.68,6.05c-52.65-16.79-73.09,8.4-99.9,28.34"/>
		<path class="st4" d="M1486.66,3659.47c-2.78,0-5.04-2.25-5.04-5.03c0-1.6,0.75-3.1,2.03-4.05c3.49-2.59,6.94-5.34,10.29-7.99
			c22.58-17.94,45.92-36.49,94.16-21.1c13.6,4.32,41.92,13.31,54.32,6.17c3.14-1.81,5.31-4.93,5.9-8.51
			c2.76-12.53-39.94-27.63-65.45-36.65c-2.62-0.93-4-3.81-3.07-6.43c0.75-2.11,2.79-3.48,5.03-3.35
			c54.61,3,107.13-8.58,108.06-23.83c0.18-1.81-0.49-3.6-1.82-4.85c-11.06-11.17-62.17-8.57-107.27-6.27
			c-2.78,0.15-5.15-1.99-5.3-4.77c-0.13-2.49,1.58-4.7,4.02-5.2c22.18-4.35,44.58-7.51,67.11-9.46c30.34-3.04,46.17-5.04,46.1-13.6
			c0-1.05-0.02-4.19-4.9-7.66c-27.08-19.26-137.89-11.48-182.08,3.65c-8.77,2.99-19.63,6.82-32.29,11.39
			c-2.62,0.94-5.51-0.41-6.45-3.03s0.41-5.51,3.03-6.45c12.72-4.59,23.64-8.44,32.46-11.45c42.09-14.42,159.59-24.78,191.17-2.33
			c7.51,5.34,9.12,11.54,9.14,15.81c0.12,15.01-14.92,19.12-38.97,21.98c15.15,1.41,25.67,4.52,31.39,10.3
			c3.33,3.29,5.06,7.87,4.72,12.55c-1.4,23.12-47.77,32.13-89.27,33.54c26.79,10.52,48.01,22.28,44.49,38.28
			c-1.2,6.34-5.11,11.85-10.71,15.06c-14.29,8.23-38.44,2.31-62.41-5.3c-43.12-13.76-62.44,1.6-84.83,19.39
			c-3.41,2.7-6.92,5.5-10.54,8.19C1488.8,3659.13,1487.74,3659.48,1486.66,3659.47L1486.66,3659.47z"/>
		<path class="st6" d="M1046,3459.08l113.46,70.11l227.35-31.83l25.74-3.6c50.55-7.05,97.25,28.22,104.3,78.77
			c7.05,50.55-28.22,97.25-78.77,104.3l-126.04,17.6L590,3614.43l-13.65-29.64c-21.33-46.43-0.98-101.36,45.45-122.7
			c0.3-0.14,0.6-0.28,0.91-0.41c0,0,296.93-115.07,340.6-59.64L1046,3459.08z"/>
		<path class="st4" d="M1312.06,3699.46c-0.19,0-0.37-0.01-0.55-0.03l-722.05-79.99c-1.76-0.19-3.28-1.29-4.02-2.9l-13.65-29.64
			c-10.99-23.64-11.95-50.73-2.66-75.09c9.26-24.34,27.79-44.02,51.53-54.72c0.08-0.04,0.16-0.07,0.24-0.1
			c0.75-0.29,75.39-29.11,154.41-50.77c46.56-12.76,85.56-20.59,115.92-23.26c39.34-3.47,64.08,1.55,75.54,15.35l82,56.57
			l111.81,69.09l251.3-35.19c53.29-7.59,102.63,29.46,110.22,82.75c7.59,53.29-29.46,102.63-82.75,110.22
			c-0.18,0.03-0.37,0.05-0.55,0.08l-126.04,17.6C1312.52,3699.44,1312.29,3699.46,1312.06,3699.46L1312.06,3699.46z M593.38,3609.73
			l718.6,79.61l125.41-17.51c47.8-6.66,81.14-50.81,74.47-98.61s-50.81-81.14-98.61-74.47l-253.1,35.44
			c-1.16,0.16-2.35-0.08-3.35-0.7l-113.46-70.11c-0.07-0.04-0.14-0.09-0.21-0.14l-82.69-57.05c-0.42-0.29-0.78-0.63-1.1-1.03
			c-16.26-20.64-80.66-16.82-181.32,10.76c-77.07,21.12-149.99,49.11-153.39,50.42c-21.24,9.61-37.82,27.24-46.1,49.03
			c-8.34,21.84-7.48,46.12,2.38,67.32L593.38,3609.73z"/>
		<path class="st3" d="M572.41,4037.44c-33.99,1.4-70.2,29.62-87.76,47.32c-14.25,14.37-52.06,61.97-52.06,61.97
			c-18.31,24.35-57.77,22.84-116.89,22.34l106.82-265.19l116.72-71.21l-76.75-29.39l32.41-81.62l99.59,38.63"/>
		<path class="st4" d="M345.81,4174.33c-7.1,0-14.57-0.07-22.4-0.14l-7.76-0.07c-2.78-0.02-5.02-2.3-5-5.08
			c0.01-0.63,0.13-1.26,0.36-1.84L417.83,3902c0.41-1.01,1.12-1.85,2.05-2.42l107.97-65.87l-67.18-25.72c-2.6-1-3.9-3.91-2.9-6.51
			c0.01-0.02,0.01-0.04,0.02-0.06l32.41-81.62c1.02-2.57,3.92-3.84,6.5-2.84l99.59,38.63c2.59,1.01,3.88,3.93,2.88,6.52
			c-1.01,2.59-3.93,3.88-6.52,2.88l-94.93-36.82l-28.69,72.24l71.99,27.57c2.6,1,3.9,3.91,2.9,6.51c-0.4,1.04-1.13,1.92-2.08,2.5
			l-115.3,70.34L323.13,4164.1h0.37c53.64,0.5,89.09,0.84,105.05-20.4c1.63-2.06,38.23-48.1,52.51-62.5
			c7.78-7.84,48.74-47.05,91.13-48.81c2.78-0.11,5.13,2.05,5.25,4.83c0.11,2.78-2.05,5.13-4.83,5.25
			c-29.96,1.24-64.19,25.46-84.39,45.83c-13.89,14.01-51.32,61.08-51.69,61.56C420.21,4171.59,390.12,4174.33,345.81,4174.33
			L345.81,4174.33z"/>
		<path class="st2" d="M804.65,3945.47c-0.18,2.66-40.66,119.66-43.26,119.66c-0.13,0-0.27,0-0.4-0.02l-189.56-15.13
			c-2.77-0.22-4.84-2.63-4.62-5.4c0-0.01,0-0.01,0-0.02l22.67-284.67c0.22-2.77,2.65-4.84,5.42-4.62l35.61,2.85
			c2.77,0.22,315.47,40.54,315.24,43.31C948.51,3801.65,804.65,3945.47,804.65,3945.47L804.65,3945.47z"/>
		<path class="st1" d="M1203.47,3318.06c11.76-31.91,1.68-53.74,0-57.1l-75.58-58.78L1002.1,3356.2l-50.98,35.18
			c-24.83,17.14-31.12,51.14-14.06,76.02c17.1,24.93,51.17,31.29,76.11,14.19l60.64-41.59c54.73,14.69,111.31-16.39,128.27-70.46
			l16.5-2.79L1203.47,3318.06z"/>
		<path class="st4" d="M982.3,3496.21c-33.01,0.06-59.82-26.65-59.88-59.66c-0.04-19.69,9.63-38.13,25.84-49.31l50.4-34.78
			l125.34-153.48c1.73-2.12,4.84-2.47,6.99-0.79l75.58,58.78c0.59,0.46,1.08,1.05,1.41,1.72c2.15,4.3,12.13,27.09,0.8,59.47
			l14.61,47.09c0.83,2.66-0.66,5.48-3.32,6.31c-0.21,0.07-0.43,0.12-0.66,0.16l-13.5,2.28c-18.67,54.14-75.53,85.12-131.15,71.45
			l-58.76,40.29C1006.09,3492.57,994.34,3496.22,982.3,3496.21L982.3,3496.21z M1128.68,3209.17L1006,3359.39
			c-0.3,0.37-0.65,0.69-1.04,0.96l-50.99,35.18c-22.41,15.87-27.7,46.9-11.84,69.3c15.56,21.97,45.79,27.56,68.18,12.61l60.65-41.59
			c1.22-0.83,2.74-1.09,4.17-0.71c52.12,13.98,105.99-15.61,122.14-67.1c0.57-1.81,2.1-3.15,3.97-3.46l10.82-1.83l-13.41-43.2
			c-0.33-1.06-0.3-2.2,0.08-3.24c10.08-27.34,3.18-46.6,0.69-52.12L1128.68,3209.17z"/>
		<path class="st3" d="M1072.93,4036.65c6.86,29.44,22.33,54.75,40.85,63.4c53.74-9.24,106.2,25.19,104.01,67.01l-249.46,2.18
			l-110.85-113.87l-25.19,64.32l-81.62-33.25l56.57-142.39"/>
		<path class="st4" d="M968.34,4174.28c-1.36,0-2.66-0.55-3.61-1.52l-105.39-108.27L837,4121.53c-1.01,2.59-3.94,3.87-6.53,2.86
			c-0.02-0.01-0.04-0.02-0.06-0.03l-81.62-33.25c-2.56-1.04-3.8-3.96-2.78-6.53l56.57-142.39c1.01-2.59,3.93-3.88,6.52-2.87
			c2.59,1.01,3.88,3.93,2.87,6.52c-0.01,0.02-0.02,0.05-0.03,0.07l-54.73,137.75l72.27,29.44l23.33-59.57
			c1.01-2.59,3.94-3.87,6.53-2.85c0.67,0.26,1.27,0.66,1.77,1.18l109.35,112.33l242.3-2.12c-0.76-13.06-7.48-25.78-19.26-36.24
			c-19.99-17.76-50.22-25.73-78.85-20.81c-1.01,0.17-2.05,0.03-2.98-0.4c-19.41-9.06-36.13-34.66-43.62-66.82
			c-0.63-2.71,1.05-5.42,3.76-6.05c2.71-0.63,5.42,1.05,6.05,3.76c6.52,27.98,20.83,51.02,36.72,59.31
			c31.12-4.85,63.78,4.07,85.62,23.47c15.53,13.8,23.58,31.22,22.65,49.04c-0.14,2.66-2.32,4.75-4.99,4.77l-249.46,2.18
			L968.34,4174.28z"/>
		<path class="st2" d="M1280.36,3826.04l-200.03,212.81c-1.38,1.46-3.49,1.96-5.37,1.27l-267.71-96.07
			c-1.63-0.59,11.83-10.21,11.46-11.91s10.17-10.66,11.43-11.87l109.78-114l-217.13-3.5c-79.97-0.01-144.78-64.84-144.77-144.81
			c0-31.57,10.33-62.27,29.39-87.43c0.99-1.24,2.49-1.97,4.08-1.98l563.48,8.5c81.64,1.35,146.73,68.63,145.38,150.27
			C1319.75,3764.06,1305.49,3799.25,1280.36,3826.04L1280.36,3826.04z"/>
		<path class="st4" d="M807.25,3949.1c-2.78,0-5.04-2.26-5.04-5.04c0-1.3,0.51-2.56,1.41-3.5l124.64-129.44l-205.54-3.31
			c-45.54,0.05-88.61-20.71-116.94-56.36c-1.76-2.16-1.44-5.33,0.72-7.09c2.16-1.76,5.33-1.44,7.09,0.72
			c0.02,0.03,0.04,0.05,0.06,0.08c26.45,33.28,66.65,52.64,109.15,52.58l217.2,3.49c2.78,0.05,5,2.34,4.96,5.12
			c-0.02,1.27-0.52,2.49-1.41,3.41l-132.68,137.78C809.93,3948.54,808.62,3949.1,807.25,3949.1L807.25,3949.1z M887.21,3578.63
			H611.44c-2.78,0-5.04-2.26-5.04-5.04c0-0.94,0.26-1.87,0.76-2.67l66.58-106.77c1.47-2.36,4.58-3.08,6.94-1.61
			c2.36,1.47,3.08,4.58,1.61,6.94l0,0l-61.78,99.07h266.69c2.78,0,5.04,2.26,5.04,5.04
			C892.25,3576.38,889.99,3578.63,887.21,3578.63z"/>
		<path class="st4" d="M939.93,3811.31c-2.78,0-5.04-2.26-5.03-5.05c0-1.35,0.54-2.64,1.5-3.58l36.93-36.32
			c1.98-1.95,5.17-1.92,7.13,0.06c1.95,1.98,1.92,5.17-0.06,7.12l-36.93,36.32C942.53,3810.79,941.26,3811.31,939.93,3811.31
			L939.93,3811.31z"/>
		<path class="st1" d="M1159.3,3529.19l34.26,20.99"/>
		<g>
			<path class="st4" d="M1193.56,3555.23c-0.93,0-1.84-0.26-2.63-0.74l-34.26-20.99c-2.37-1.45-3.12-4.56-1.66-6.93
				c1.45-2.37,4.56-3.12,6.93-1.66l34.26,20.99c2.37,1.45,3.12,4.55,1.67,6.93C1196.95,3554.31,1195.32,3555.23,1193.56,3555.23z
				 M1073.81,4045.47c-2.78,0-5.04-2.26-5.04-5.04c0-1.39,0.58-2.73,1.6-3.68c8.23-7.69,81.43-75,118.23-69.65
				c6.93,0.86,13.06,4.93,16.53,10.99c3.56,5.57,3.97,12.59,1.07,18.52c-14.87,31.04-119.75,47.07-131.67,48.8
				C1074.29,4045.45,1074.05,4045.47,1073.81,4045.47L1073.81,4045.47z M1184,3976.85c-23.8,0-67.99,33.52-93.88,55.77
				c37.06-6.76,97.96-21.5,107-40.36c1.46-2.92,1.2-6.4-0.67-9.07c-1.91-3.44-5.38-5.73-9.3-6.13
				C1186.1,3976.92,1185.05,3976.85,1184,3976.85L1184,3976.85z"/>
			<path class="st4" d="M1186.62,4074.87c-40.13,0-105.74-26.12-114.71-29.77c-2.58-1.05-3.82-3.99-2.77-6.57
				c0.62-1.53,1.95-2.65,3.56-3.02c10.98-2.48,108.1-23.57,137.18-0.33c5.55,4.25,8.77,10.85,8.71,17.84
				c0.26,6.61-2.94,12.89-8.45,16.55C1204.57,4073.33,1196.34,4074.87,1186.62,4074.87z M1091.8,4041.94
				c35.37,12.92,95.35,31,112.69,19.29c2.74-1.78,4.28-4.93,4.01-8.18c0.1-3.93-1.74-7.67-4.92-9.98
				C1185.54,4028.63,1126.92,4035.55,1091.8,4041.94L1091.8,4041.94z M894.27,3582.9c-1.09,0-2.15-0.35-3.02-1.01l-43.83-32.88
				c-2.23-1.67-2.68-4.82-1.02-7.05c1.67-2.23,4.82-2.68,7.05-1.02c0,0,0.01,0.01,0.01,0.01l43.84,32.88
				c2.23,1.67,2.68,4.83,1.01,7.05C897.36,3582.15,895.87,3582.9,894.27,3582.9L894.27,3582.9z M1129.91,3333.36
				c-0.62,0-1.23-0.11-1.8-0.34l-22.34-8.57c-2.57-1.06-3.8-4.01-2.74-6.58c1.02-2.48,3.82-3.73,6.35-2.83l13.06,5.01l-6.12-22.49
				c-0.73-2.69,0.85-5.45,3.54-6.19c2.69-0.73,5.45,0.85,6.19,3.54l8.73,32.08c0.73,2.69-0.85,5.45-3.54,6.19
				C1130.8,3333.31,1130.35,3333.37,1129.91,3333.36L1129.91,3333.36z M1178.28,3415.47c-0.41,0-0.83-0.05-1.23-0.15
				c-19.09-4.79-20.07-20.09-20.1-20.74c-0.12-2.78,2.04-5.13,4.82-5.25c2.73-0.12,5.05,1.96,5.24,4.68
				c0.08,0.93,1.08,8.67,12.49,11.53c2.7,0.68,4.34,3.41,3.66,6.11C1182.6,3413.9,1180.59,3415.47,1178.28,3415.47L1178.28,3415.47z
				"/>
			<circle class="st4" cx="1184.99" cy="3319.76" r="7.56"/>
			<path class="st4" d="M1073.81,3444.88c-0.5,0-0.99-0.07-1.47-0.22c-21.09-6.42-39.26-17.25-51.16-30.51
				c-1.89-2.04-1.76-5.23,0.28-7.12s5.23-1.76,7.12,0.28c0.03,0.04,0.07,0.07,0.1,0.11c10.68,11.91,27.23,21.71,46.59,27.6
				c2.66,0.81,4.17,3.62,3.36,6.28C1077.99,3443.43,1076.03,3444.88,1073.81,3444.88z"/>
		</g>
		<path class="st1" d="M1203.47,3318.06c4.7,15.54,9.99,34.01,14.7,49.54l-27.97,5.73"/>
		<path class="st4" d="M1190.2,3378.38c-2.78,0-5.04-2.25-5.04-5.03c0-2.4,1.69-4.47,4.04-4.94l22.57-4.62
			c-1.95-6.53-3.88-13.06-5.79-19.6c-2.49-8.46-4.97-16.93-7.32-24.66c-0.77-2.67,0.76-5.47,3.44-6.24
			c2.63-0.76,5.38,0.71,6.21,3.32c2.35,7.76,4.85,16.25,7.34,24.74c2.5,8.49,5,17.03,7.36,24.81c0.81,2.66-0.7,5.48-3.36,6.28
			c-0.15,0.05-0.3,0.08-0.45,0.11l-27.97,5.73C1190.88,3378.34,1190.54,3378.38,1190.2,3378.38z"/>
		<path class="st15" d="M1165.54,3317.1l0-0.01L1165.54,3317.1L1165.54,3317.1z"/>
		<path class="st4" d="M1169.88,3193.78c-21.65-13.2-46.97-19.09-72.22-16.79c-16.84,1.34-33.26,5.97-48.32,13.63
			c-1.62,0.84-3.61,0.2-4.45-1.42c-0.13-0.25-0.23-0.52-0.29-0.8c-8.52-36.78-41.28-62.83-79.04-62.84
			c-10.75,0-83.56,96.1-79.88,99.27c0.46,0.4,0.97,0.73,1.12,1.32c10.77,43.52,54.79,70.07,98.31,59.3c1.11-0.27,2.21-0.57,3.3-0.89
			c1.76-0.53,3.62,0.47,4.15,2.24c0.12,0.4,0.16,0.81,0.13,1.22c-3.74,45.9,6.52,64.54,8.79,68.04c0.26,0.41,0.61,0.75,1.02,1.01
			c32.12,20.26,70.65-12,79.73-20.32c1.1-0.99,1.39-2.6,0.72-3.92c-4.14-7.86-5.46-23.06-5.46-31.55c0-23.1,25.61-38.63,48.71-38.63
			c23.1,0,43.67,25.61,43.67,48.7v0.09c0.07,1.8,1.59,3.2,3.39,3.12c0.63-0.03,1.24-0.24,1.76-0.6c8.9-6.24,39.54-40.96,39.07-46.03
			C1211.67,3241.99,1204.38,3214.48,1169.88,3193.78L1169.88,3193.78z"/>
		<path class="st4" d="M1084.43,3338.19c-1.74,0-3.37-0.9-4.29-2.38c-14.9-24.05-7.47-55.62,16.58-70.52
			c24.05-14.9,55.62-7.47,70.52,16.58c5.02,8.1,7.67,17.43,7.68,26.96c0,2.13-0.13,4.26-0.39,6.37c-0.34,2.76-2.86,4.72-5.62,4.38
			c-2.76-0.34-4.72-2.86-4.38-5.62c0.21-1.7,0.32-3.42,0.32-5.14c0-22.73-18.43-41.14-41.16-41.14c-22.72,0-41.14,18.43-41.14,41.16
			c0,7.65,2.13,15.14,6.16,21.65c1.47,2.36,0.74,5.47-1.62,6.94C1086.29,3337.92,1085.37,3338.18,1084.43,3338.19L1084.43,3338.19z"
			/>
		<ellipse class="st4" cx="952.39" cy="3218.13" rx="62.67" ry="62.65"/>
		<path class="st4" d="M990.17,3319.74c-2.78,0-5.04-2.25-5.04-5.03c0-1.6,0.76-3.11,2.04-4.06c0.68-0.5,68.19-51.21,62.68-113.86
			c-0.24-2.77,1.81-5.22,4.58-5.46c2.77-0.24,5.22,1.81,5.46,4.58c6.01,68.32-63.76,120.65-66.73,122.85
			C992.3,3319.39,991.25,3319.74,990.17,3319.74L990.17,3319.74z"/>
		<path class="st4" d="M1055.49,3198.21c-1.97,0-3.75-1.14-4.57-2.93c-2.67-5.78-25.72-57.13-13.02-79.36
			c3.42-5.96,9.6-9.81,16.46-10.23c9.15-0.92,14.19,3.07,16.81,6.57c14.34,19.2-8.37,76.36-11.01,82.81
			c-0.76,1.86-2.55,3.09-4.55,3.13H1055.49z M1056.96,3115.64c-0.49,0-1.02,0.03-1.6,0.08c-3.62,0.09-6.92,2.06-8.72,5.21
			c-6.86,12,1.55,40.35,8.6,58.63c7.82-22.43,14.8-51.95,7.85-61.26C1061.64,3116.41,1059.32,3115.4,1056.96,3115.64z"/>
		<path class="st4" d="M1055.49,3198.21c-2.78,0-5.04-2.25-5.04-5.04c0-0.6,0.11-1.19,0.31-1.75c2.21-5.98,22.32-58.61,47.03-65.32
			c6.62-1.79,13.7-0.14,18.83,4.41c7.1,5.81,7.84,12.18,7.21,16.5c-3.44,23.71-59.96,48.1-66.38,50.8
			C1056.83,3198.08,1056.16,3198.21,1055.49,3198.21z M1103.17,3135.46c-0.93,0.01-1.85,0.13-2.74,0.38
			c-13.36,3.63-27.49,29.6-35.46,47.52c21.41-10.35,47.22-26.29,48.88-37.79c0.24-1.65,0.12-4.19-3.62-7.25
			C1108.29,3136.55,1105.79,3135.54,1103.17,3135.46L1103.17,3135.46z"/>
	</g>
	<g transform="translate(302.0 436.0) rotate(49.56526342677326 23.5 65.0) scale(0.6317204301075269 0.619933237958989)">
		<g>
			<path class="st4" d="M2643.55,2253.87c-0.11,0-0.23,0-0.34-0.01c-2.78-0.18-4.88-2.58-4.69-5.36l16.96-254.95
				c0.23-2.77,2.66-4.84,5.43-4.61c2.72,0.22,4.76,2.56,4.62,5.28l-16.96,254.95C2648.4,2251.81,2646.2,2253.87,2643.55,2253.87z
				 M2664.17,1945.35c-2.78,0-5.04-2.25-5.04-5.04c0-1.39,0.57-2.72,1.59-3.68l25.4-23.86c2.03-1.91,5.22-1.81,7.12,0.22
				c1.91,2.03,1.81,5.22-0.22,7.12l-25.4,23.86C2666.68,1944.87,2665.45,1945.36,2664.17,1945.35z"/>
			<path class="st4" d="M2664.17,1945.35c-1.51,0-2.93-0.67-3.89-1.84l-22.13-26.87c-1.77-2.15-1.46-5.32,0.69-7.09
				s5.32-1.46,7.09,0.69l14.05,17.07l1.39-20.93c0.14-2.78,2.51-4.91,5.29-4.77c2.78,0.14,4.91,2.51,4.77,5.29
				c0,0.05-0.01,0.1-0.01,0.15l-2.23,33.59C2669.02,1943.29,2666.82,1945.35,2664.17,1945.35L2664.17,1945.35z"/>
		</g>
		<path class="st2" d="M2703.34,2002.78l1.01-15.28c0.85-13.35,6.32-26,15.45-35.77l6.72-7.22l-124.95-8.4l5.71,8.06
			c7.77,10.88,11.51,24.12,10.58,37.45l-1.01,15.28c-1.58,23.83,16.46,44.44,40.29,46.02c0.01,0,0.01,0,0.02,0
			c23.78,1.72,44.45-16.15,46.17-39.93C2703.33,2002.93,2703.34,2002.86,2703.34,2002.78z"/>
	</g>
	<g transform="translate(147.0 427.0) rotate(-44.623326027769636 28.5 51.0) scale(0.5763863608785342 0.5926717876608057)">
		<path class="st4" d="M-2366.74,2732.71c-2.57,0-4.72-1.93-5-4.48l-25.02-225.05c-0.33-2.76,1.64-5.27,4.4-5.6
			c2.76-0.33,5.27,1.64,5.6,4.4c0,0.03,0.01,0.06,0.01,0.09l25.02,225.05c0.31,2.77-1.69,5.26-4.45,5.56
			C-2366.37,2732.7-2366.55,2732.71-2366.74,2732.71z"/>
		<path class="st2" d="M-2346.92,2498.92l-89.35,9.91c-15.23,1.46-28.77-9.7-30.23-24.93c-1.44-14.94,9.29-28.31,24.19-30.15
			l89.35-9.91c15.19-1.88,29.02,8.92,30.9,24.11c1.88,15.19-8.92,29.02-24.11,30.9C-2346.43,2498.87-2346.67,2498.9-2346.92,2498.92
			z M-2440.14,2475.91c-3.01,0.36-5.16,3.09-4.8,6.1c0.35,2.96,3.01,5.1,5.98,4.82l89.35-9.91c3.02-0.29,5.23-2.97,4.94-5.99
			c-0.29-3.02-2.97-5.23-5.99-4.94c-0.04,0-0.08,0.01-0.12,0.01L-2440.14,2475.91z"/>
		<g>
			<path class="st4" d="M-2329.49,2602.95c-15.86,0-51.86-17.33-56.08-19.38c-2.5-1.22-3.54-4.24-2.32-6.74
				c0.32-0.67,0.79-1.25,1.37-1.72c3.81-3.07,37.67-30.02,52.31-31.65c16.44-1.82,31.25,10.01,33.11,26.45
				c1.72,16.38-10.09,31.08-26.45,32.94C-2328.2,2602.92-2328.85,2602.95-2329.49,2602.95z M-2373.82,2577.96
				c15.87,7.23,37.56,15.72,45.15,14.88c5.25-0.58,10.04-3.25,13.31-7.39c3.28-4.05,4.81-9.24,4.24-14.42
				c-1.24-10.91-11.07-18.76-21.98-17.55C-2340.68,2554.32-2359.95,2567.39-2373.82,2577.96z"/>
			<path class="st4" d="M-2435.94,2614.64c-6.83,0.01-13.46-2.32-18.78-6.6c-6.15-4.9-10.08-12.07-10.91-19.89
				c-1.8-16.43,10.02-31.23,26.45-33.1c14.64-1.62,53.62,17.14,58.02,19.29c2.5,1.22,3.54,4.24,2.32,6.74
				c-0.32,0.67-0.79,1.25-1.37,1.72c-3.81,3.07-37.68,30.02-52.32,31.65C-2433.66,2614.57-2434.8,2614.64-2435.94,2614.64z
				 M-2436.91,2565.01c-0.38,0-0.76,0.02-1.15,0.06c-10.9,1.24-18.75,11.07-17.55,21.98c0.55,5.16,3.14,9.89,7.2,13.12
				c4.16,3.33,9.48,4.87,14.78,4.26c7.58-0.84,26.85-13.92,40.72-24.49C-2408.05,2573.04-2428.48,2565.01-2436.91,2565.01
				L-2436.91,2565.01z"/>
		</g>
	</g>
	<g transform="translate(278.0 385.0) rotate(29.94591012177116 21.5 108.5) scale(0.5787348586810229 0.5864864864864865)">
		<path class="st2" d="M2036.03,2974.06l-38.46,38.46l-38.46-38.46c-25.14-25.06-25.2-65.75-0.14-90.88c0.05-0.05,0.1-0.1,0.14-0.14
			l38.46-38.46l38.46,38.46c25.14,25.06,25.2,65.75,0.14,90.88C2036.13,2973.97,2036.08,2974.02,2036.03,2974.06z"/>
		<path d="M1997.57,3017.56c-1.34,0-2.62-0.53-3.56-1.48l-38.46-38.46c-27.06-27.12-27.06-71.03,0-98.15l38.46-38.46
			c2-1.89,5.13-1.89,7.13,0l38.46,38.46c27.11,27.02,27.17,70.9,0.15,98.01c-0.05,0.05-0.1,0.1-0.15,0.15l-38.46,38.46
			C2000.19,3017.04,1998.91,3017.56,1997.57,3017.56z M1997.57,2851.7l-34.9,34.9c-23.17,23.09-23.23,60.59-0.14,83.76
			c0.05,0.05,0.09,0.09,0.14,0.14l34.9,34.9l34.9-34.9l0.01-0.01c23.16-23.1,23.22-60.6,0.12-83.76c-0.04-0.04-0.09-0.09-0.13-0.13
			L1997.57,2851.7z"/>
		
			<ellipse transform="matrix(0.4992 -0.8665 0.8665 0.4992 -1637.2832 3255.4309)" class="st2" cx="1997.57" cy="3044.1" rx="18.42" ry="18.18"/>
		<g>
			<path class="st4" d="M1997.57,3080.54c-20.13,0-36.44-16.32-36.44-36.44s16.32-36.44,36.44-36.44
				c20.13,0,36.44,16.32,36.44,36.44l0,0C2033.99,3064.22,2017.69,3080.52,1997.57,3080.54z M1997.57,3017.73
				c-14.56,0-26.37,11.81-26.37,26.37s11.81,26.37,26.37,26.37c14.56,0,26.37-11.81,26.37-26.37l0,0
				C2023.92,3029.54,2012.13,3017.75,1997.57,3017.73z"/>
			<path class="st4" d="M1997.57,3417.62c-2.78,0-5.04-2.26-5.04-5.04l0-477.64c0-2.78,2.26-5.04,5.04-5.04
				c2.78,0,5.04,2.26,5.04,5.04l0,477.64C2002.61,3415.36,2000.35,3417.62,1997.57,3417.62z M1997.57,2849.61
				c-2.78,0-5.04-2.26-5.04-5.04l0-43.33c0-2.78,2.26-5.04,5.04-5.04c2.78,0,5.04,2.26,5.04,5.04v43.33
				C2002.61,2847.36,2000.35,2849.61,1997.57,2849.61z"/>
			<path class="st4" d="M1997.57,2849.61c-1.99,0-3.79-1.17-4.6-2.99l-17.63-39.47c-1.11-2.55,0.06-5.52,2.61-6.63
				c2.52-1.09,5.44,0.03,6.59,2.52l17.63,39.47c1.14,2.54,0,5.52-2.54,6.66C1998.98,2849.47,1998.28,2849.61,1997.57,2849.61z"/>
			<path class="st4" d="M1997.57,2849.61c-2.78,0-5.04-2.26-5.04-5.04c0-0.71,0.15-1.42,0.45-2.07l17.8-39.47
				c1.14-2.54,4.13-3.67,6.66-2.52c2.54,1.14,3.67,4.13,2.52,6.67l-17.8,39.47C2001.35,2848.45,1999.55,2849.62,1997.57,2849.61z"/>
		</g>
	</g>
	<g transform="translate(243.0 369.0) rotate(-17.240410214939864 -26.0 103.0) scale(-0.550789111322953 0.553257775151743)">
		<path class="st4" d="M1047.27,4052.96c-2.66,0-4.86-2.07-5.02-4.73l-36.8-593.01c-0.21-2.77,1.88-5.19,4.65-5.4
			s5.19,1.88,5.4,4.65c0,0.04,0.01,0.08,0.01,0.12l36.8,593.01c0.17,2.78-1.94,5.17-4.72,5.34
			C1047.48,4052.96,1047.37,4052.96,1047.27,4052.96z"/>
		<g>
			
				<ellipse transform="matrix(0.9551 -0.2964 0.2964 0.9551 -981.8086 455.4105)" class="st3" cx="1011.16" cy="3465.98" rx="21.13" ry="21.22"/>
			
				<ellipse transform="matrix(0.9551 -0.2964 0.2964 0.9551 -1003.705 471.8977)" class="st3" cx="1054.6" cy="3546.44" rx="21.13" ry="21.22"/>
			
				<ellipse transform="matrix(0.9551 -0.2964 0.2964 0.9551 -1008.5633 449.4268)" class="st3" cx="978.03" cy="3551.18" rx="21.13" ry="21.22"/>
			
				<ellipse transform="matrix(0.9551 -0.2964 0.2964 0.9551 -1028.6697 477.2811)" class="st3" cx="1059.87" cy="3631.48" rx="21.13" ry="21.22"/>
			
				<ellipse transform="matrix(0.9551 -0.2964 0.2964 0.9551 -1033.5333 454.8111)" class="st3" cx="983.3" cy="3636.23" rx="21.13" ry="21.22"/>
		</g>
	</g>
	<g transform="translate(272.0 437.0) rotate(8.25447141987636 11.5 40.5) scale(0.5476190476190477 0.5580049600440893)">
		<path class="st4" d="M766.99,3783.08c-2.78,0-5.04-2.26-5.04-5.04l0-203.49c0-2.78,2.26-5.04,5.04-5.04s5.04,2.26,5.04,5.04
			l0,203.49C772.03,3780.83,769.78,3783.08,766.99,3783.08z"/>
		
			<ellipse transform="matrix(0.1436 -0.9896 0.9896 0.1436 -2880.6499 3820.4067)" class="st2" cx="766.99" cy="3574.56" rx="19.68" ry="19.31"/>
	</g>
	<g transform="translate(142.0 421.0) rotate(0.0 107.5 105.5) scale(0.6172839506172839 0.6153397491980169)">
		<path class="st7" d="M582.47,3551.55v172.15c0,55.59-45.01,100.6-100.6,100.6H170.16c-55.59,0-100.6-45.01-100.6-100.6v-167.44"/>
		<path class="st4" d="M482.04,3829.34H170.16c-58.28,0-105.64-47.36-105.64-105.64v-167.44H74.6v167.44
			c0,52.74,42.83,95.56,95.56,95.56h311.88c52.74,0,95.56-42.83,95.56-95.56v-172.15h10.08v172.15
			C587.51,3781.98,540.15,3829.34,482.04,3829.34z"/>
		<path class="st7" d="M592.72,3551.72H58.98c-11.42,0-20.49-9.24-20.49-20.49v-42.66c0-11.42,9.24-20.49,20.49-20.49h533.74
			c11.42,0,20.49,9.24,20.49,20.49v42.66C613.37,3542.48,604.14,3551.72,592.72,3551.72z"/>
		<path class="st4" d="M592.72,3556.76H58.98c-14.11,0-25.53-11.42-25.53-25.53v-42.66c0-14.11,11.42-25.53,25.53-25.53h533.74
			c14.11,0,25.53,11.42,25.53,25.53v42.66C618.41,3545.17,606.82,3556.76,592.72,3556.76z M58.98,3472.95
			c-8.57,0-15.45,6.89-15.45,15.45v42.66c0,8.57,6.89,15.45,15.45,15.45h533.74c8.57,0,15.45-6.89,15.45-15.45v-42.66
			c0-8.57-6.89-15.45-15.45-15.45H58.98z"/>
		<g>
			<path class="st13" d="M175.53,3757.29c-12.6,0-22.84-10.24-22.84-22.84v-97.07c0-12.6,10.24-22.84,22.84-22.84
				c12.6,0,22.84,10.24,22.84,22.84v97.07C198.54,3747.04,188.3,3757.29,175.53,3757.29z M275.8,3757.29
				c-12.6,0-22.84-10.24-22.84-22.84v-97.07c0-12.6,10.24-22.84,22.84-22.84c12.6,0,22.84,10.24,22.84,22.84v97.07
				C298.81,3747.04,288.56,3757.29,275.8,3757.29z M376.23,3757.29c-12.6,0-22.84-10.24-22.84-22.84v-97.07
				c0-12.6,10.24-22.84,22.84-22.84c12.6,0,22.84,10.24,22.84,22.84v97.07C399.07,3747.04,388.83,3757.29,376.23,3757.29z"/>
		</g>
		<path class="st7" d="M326.01,3520.31c24.35,0,44-19.65,44-44v-173.83c0-24.35-19.65-44-44-44c-24.18,0-44,19.65-44,44v173.99
			C282.01,3500.66,301.83,3520.31,326.01,3520.31z"/>
		<path class="st4" d="M326.01,3525.35c-27.04,0-49.04-22-49.04-49.04v-173.83c0-27.04,22-49.04,49.04-49.04s49.04,22,49.04,49.04
			v173.99C375.06,3503.35,353.05,3525.35,326.01,3525.35z M326.01,3263.52c-21.5,0-38.96,17.47-38.96,38.96v173.99
			c0,21.5,17.47,38.96,38.96,38.96s38.96-17.47,38.96-38.96v-173.99C364.98,3280.99,347.51,3263.52,326.01,3263.52z"/>
		<ellipse class="st4" cx="326.01" cy="3481.01" rx="7.05" ry="7.03"/>
		<path class="st4" d="M326.01,3493.27c-6.72,0-12.26-5.54-12.26-12.26c0-6.72,5.54-12.26,12.26-12.26s12.26,5.54,12.26,12.26
			C338.27,3487.73,332.73,3493.27,326.01,3493.27z M326.01,3470.43c-5.88,0-10.58,4.7-10.58,10.58s4.7,10.58,10.58,10.58
			c5.88,0,10.58-4.7,10.58-10.58S331.89,3470.43,326.01,3470.43z"/>
	</g>
	<g transform="translate(1056.0 463.0) rotate(0.0 90.0 185.5) translate(0.0 0.0) scale(0.5108701822103651 0.5129906942658425)">
		<g>
			<ellipse class="st2" cx="1503.91" cy="4006" rx="24.43" ry="24.53"/>
			<ellipse class="st2" cx="1551.2" cy="4109.72" rx="24.43" ry="24.53"/>
			<ellipse class="st2" cx="1455.55" cy="4109.24" rx="24.43" ry="24.53"/>
			<ellipse class="st2" cx="1550.66" cy="4215.95" rx="24.43" ry="24.53"/>
			<ellipse class="st2" cx="1455.02" cy="4215.46" rx="24.43" ry="24.53"/>
		</g>
		<path class="st4" d="M1516.08,4634.29c-2.78,0-5.04-2.26-5.04-5.04c0-0.74,0.16-1.47,0.48-2.14l183.97-390.83
			c1.18-2.52,4.19-3.6,6.7-2.41c2.52,1.19,3.6,4.19,2.41,6.7l-183.97,390.83C1519.81,4633.17,1518.03,4634.3,1516.08,4634.29z"/>
		<path class="st2" d="M1835.32,4136.06c-8.28-6.23-20.05-4.58-26.3,3.69c6.48-8.09,5.18-19.91-2.91-26.4
			c-8.09-6.49-19.91-5.18-26.39,2.91c-0.23,0.29-0.46,0.59-0.67,0.9l-57.37,75.81l22.4-92.37c2.73-10-3.16-20.33-13.17-23.06
			c-10-2.73-20.33,3.16-23.06,13.17c-0.09,0.32-0.16,0.64-0.24,0.96c2.73-10-3.16-20.33-13.17-23.06
			c-10-2.73-20.33,3.16-23.06,13.17c-0.09,0.32-0.16,0.64-0.24,0.96l-2.97,12.14l-20.15,81.93c-7.09,28.96,3.51,59.37,27.06,77.66
			l-0.15,0.18c8.55,6.3,18.25,10.87,28.55,13.44v-0.24c29.05,6.67,59.31-4.35,77.26-28.15l50.77-67.38l7.52-9.99
			C1845.25,4154.04,1843.59,4142.29,1835.32,4136.06z"/>
		<path class="st4" d="M1720.35,4274.8c-5.46,0-10.96-0.56-16.43-1.7c-0.56,0.05-1.12,0-1.66-0.13
			c-10.95-2.72-21.25-7.57-30.32-14.27c-0.47-0.34-0.87-0.77-1.19-1.25c-24.21-19.58-35.04-51.52-27.62-81.85l23.13-94.07
			c0.08-0.37,0.17-0.73,0.27-1.09c3.46-12.67,16.58-20.16,29.25-16.7c6.14,1.68,11.25,5.64,14.41,11.17
			c0.38,0.67,0.73,1.35,1.04,2.03c0.92-0.72,1.9-1.38,2.93-1.97c5.52-3.16,11.95-3.97,18.08-2.29c6.14,1.68,11.25,5.64,14.41,11.17
			c3.15,5.52,3.97,11.95,2.29,18.08l-16.66,68.68l42.74-56.48c0.18-0.26,0.46-0.63,0.76-1c8.21-10.25,23.23-11.9,33.48-3.69
			c5.85,4.69,8.9,11.59,8.91,18.56c6.75-1.7,14.19-0.46,20.18,4.05l0,0c10.46,7.89,12.58,22.84,4.71,33.32l-58.3,77.38
			C1769.34,4263.18,1745.31,4274.8,1720.35,4274.8L1720.35,4274.8z M1703.48,4262.81c0.38,0,0.75,0.04,1.13,0.13
			c27.07,6.22,55.38-4.09,72.11-26.27l58.29-77.37c4.53-6.04,3.32-14.66-2.72-19.21c-5.93-4.46-14.33-3.39-18.96,2.33
			c-0.12,0.16-0.25,0.33-0.38,0.49c-1.74,2.17-4.91,2.53-7.08,0.79c-2.14-1.7-2.52-4.8-0.87-6.98c0.12-0.16,0.25-0.33,0.38-0.49
			c4.41-5.9,3.37-14.3-2.42-18.94c-5.91-4.74-14.57-3.78-19.31,2.13c-0.17,0.21-0.34,0.43-0.5,0.66l-57.47,75.94
			c-1.68,2.22-4.84,2.66-7.06,0.98c-1.6-1.21-2.33-3.26-1.86-5.21l22.4-92.37c1-3.68,0.53-7.38-1.29-10.57
			c-1.82-3.19-4.77-5.48-8.31-6.44c-3.51-0.97-7.27-0.49-10.43,1.32c-3.13,1.78-5.44,4.72-6.41,8.19c-0.08,0.36-0.17,0.72-0.27,1.08
			c-0.72,2.69-3.48,4.28-6.17,3.56c-2.61-0.7-4.2-3.33-3.61-5.96c0.08-0.36,0.17-0.72,0.26-1.08c0.69-3.28,0.15-6.7-1.52-9.61
			c-1.8-3.17-4.79-5.49-8.31-6.44c-7.31-1.99-14.88,2.33-16.87,9.63c-0.06,0.23-0.12,0.47-0.17,0.7l-3,12.27l-20.16,81.93
			c-6.6,26.98,3.31,55.43,25.25,72.48c0.37,0.29,0.69,0.62,0.96,0.99c7.3,5.18,15.46,9.02,24.1,11.35L1703.48,4262.81
			L1703.48,4262.81z"/>
		<path class="st4" d="M1690.35,4166.86c-2.78,0-5.04-2.25-5.04-5.03c0-0.41,0.05-0.81,0.15-1.21l17.57-71.66
			c0.66-2.7,3.39-4.36,6.09-3.69c2.7,0.66,4.36,3.39,3.69,6.09l0,0l-17.57,71.66C1694.68,4165.27,1692.67,4166.86,1690.35,4166.86z
			 M1765.53,4202.53c-2.78,0-5.04-2.26-5.03-5.04c0-1.09,0.36-2.16,1.01-3.03l44.39-58.93c1.7-2.2,4.86-2.61,7.07-0.91
			c2.17,1.67,2.6,4.77,0.98,6.97l-44.39,58.93C1768.61,4201.79,1767.11,4202.54,1765.53,4202.53L1765.53,4202.53z M1483.82,4634.29
			c-2.06,0-3.91-1.25-4.68-3.16l-145.66-361.56c-1.04-2.58,0.21-5.52,2.79-6.56c2.58-1.04,5.52,0.21,6.56,2.79l145.66,361.56
			c1.04,2.58-0.21,5.52-2.79,6.56C1485.1,4634.17,1484.46,4634.29,1483.82,4634.29z"/>
		<path class="st2" d="M1327.44,4377.67c12.29-4.94,38.34-41.3,38.34-41.3s-43.95-8.18-56.26-3.24
			c-12.3,4.95-18.26,18.93-13.31,31.23S1315.14,4382.62,1327.44,4377.67z"/>
		<path class="st4" d="M1318.48,4384.46c-3.86,0-7.72-0.78-11.38-2.34c-7.1-3-12.7-8.72-15.56-15.88
			c-5.98-14.86,1.25-31.81,16.1-37.79c13.29-5.33,54.42,2.1,59.07,2.96c2.74,0.51,4.54,3.14,4.03,5.87
			c-0.14,0.73-0.43,1.41-0.86,2.01c-2.75,3.84-27.29,37.71-40.56,43.04C1325.87,4383.74,1322.19,4384.45,1318.48,4384.46z
			 M1322.01,4336.57c-4.66,0-8.42,0.36-10.61,1.24c-9.7,3.9-14.41,14.97-10.51,24.67c1.87,4.67,5.52,8.41,10.16,10.37
			c4.62,1.99,9.85,2.04,14.52,0.15l0,0c6.79-2.73,21.18-19.67,31.31-33.04C1345.64,4338.18,1331.84,4336.57,1322.01,4336.57
			L1322.01,4336.57z"/>
		<path class="st2" d="M1422.03,4339.63c-12.29,4.94-56.25-3.26-56.25-3.26s26.03-36.34,38.33-41.28
			c12.3-4.95,26.28,1.01,31.23,13.31S1434.33,4334.68,1422.03,4339.63z"/>
		<path class="st4" d="M1409.06,4346.21c-17.32,0-40.76-4.25-44.2-4.89c-2.73-0.51-4.54-3.13-4.03-5.87
			c0.14-0.73,0.43-1.42,0.86-2.02c2.75-3.84,27.27-37.69,40.54-43.02c7.19-2.9,15.09-2.81,22.22,0.23s12.66,8.68,15.56,15.88
			c5.98,14.86-1.25,31.81-16.1,37.78l0,0C1420.46,4345.69,1415.14,4346.21,1409.06,4346.21z M1422.03,4339.63h0.02H1422.03z
			 M1374.69,4332.79c16.56,2.63,38.68,4.89,45.46,2.17c9.7-3.9,14.42-14.97,10.51-24.67c-1.89-4.7-5.5-8.38-10.16-10.37
			c-4.66-1.99-9.81-2.04-14.52-0.15C1399.2,4302.49,1384.82,4319.43,1374.69,4332.79z"/>
		<path class="st3" d="M1256.08,4232.07l86.66,58.78c2.42,1.62,5.69,0.98,7.32-1.44c0.37-0.55,0.64-1.17,0.78-1.82l21.83-102.36
			L1256.08,4232.07z"/>
		<path class="st4" d="M1500.95,4633.89h-0.02c-2.78-0.01-5.03-2.28-5.02-5.06c0,0,0,0,0,0l2.96-622.85
			c0.01-2.78,2.29-4.95,5.06-5.02c2.78,0.01,5.03,2.28,5.02,5.06c0,0,0,0,0,0l-2.96,622.85
			C1505.97,4631.65,1503.72,4633.89,1500.95,4633.89L1500.95,4633.89z"/>
	</g>
	<g transform="translate(800.0 596.0) rotate(0.0 20.0 18.5) scale(0.49466381410533866 0.49432197728790916)">
		<path class="st2" d="M991.52,4411.16l-38.78-69.28c-4.51-8.1-1.6-18.33,6.51-22.84c1.01-0.56,2.07-1.02,3.17-1.36
			c7.44-2.28,15.46,0.85,19.4,7.56l17.95,30.63l-0.42-45.14c-0.05-8.35,6.68-15.15,15.03-15.2c0,0,0,0,0,0h0.08
			c8.1-0.01,14.76,6.37,15.12,14.46l1.88,48.7l15.27-23.4c4.35-6.61,13.07-8.74,19.99-4.89l2,1.12c7.21,4.1,9.76,13.25,5.73,20.49
			l-33.52,59.13"/>
		<path class="st4" d="M991.53,4416.2c-1.83,0-3.51-0.98-4.4-2.58l-38.78-69.28c-2.84-5.06-3.53-11.04-1.93-16.61
			c1.57-5.58,5.31-10.29,10.38-13.1c1.31-0.73,2.69-1.32,4.12-1.77c9.73-2.98,20.1,1.06,25.24,9.82l8.39,14.32l-0.24-26.24
			c-0.06-11.13,8.93-20.22,20.04-20.28h0.02c10.93,0,19.77,8.46,20.24,19.28l1.27,32.92l6.62-10.15
			c5.79-8.78,17.49-11.65,26.66-6.53l2.02,1.14c9.59,5.46,13.01,17.71,7.66,27.33l-33.54,59.17c-1.34,2.44-4.4,3.33-6.84,1.99
			c-2.44-1.34-3.33-4.4-1.99-6.84c0.02-0.04,0.04-0.08,0.07-0.12l33.52-59.13c2.66-4.77,0.95-10.9-3.84-13.63l-1.98-1.11
			c-4.57-2.55-10.42-1.12-13.31,3.27l-15.25,23.38c-1.52,2.33-4.64,2.99-6.97,1.47c-1.37-0.89-2.22-2.39-2.28-4.02l-1.88-48.71
			c-0.23-5.39-4.68-9.63-10.07-9.62h-0.01c-5.62,0.03-10.11,4.58-10.08,10.13l0.42,45.13c0.02,2.28-1.5,4.3-3.7,4.9
			c-2.2,0.61-4.53-0.34-5.69-2.31l-17.95-30.63c-2.75-4.71-8.37-6.9-13.58-5.29c-0.76,0.24-1.5,0.56-2.19,0.94
			c-2.74,1.53-4.73,4.03-5.59,7.05c-0.86,3.02-0.49,6.19,1.03,8.94l38.77,69.27c1.36,2.43,0.49,5.5-1.93,6.86
			C993.24,4415.98,992.39,4416.2,991.53,4416.2z"/>
	</g>
	<g transform="translate(65.0 586.0) rotate(0.0 17.5 23.5) scale(0.46174142480211083 0.47047047047047047)">
		<path class="st4" d="M-6.62,4661.35c-2.78,0-5.04-2.25-5.04-5.04c0-0.47,0.07-0.94,0.19-1.39l38.96-136.37
			c0.74-2.68,3.52-4.26,6.2-3.51c2.68,0.74,4.26,3.52,3.51,6.2c-0.01,0.03-0.02,0.06-0.02,0.08l-38.96,136.37
			C-2.4,4659.86-4.37,4661.35-6.62,4661.35z"/>
		<ellipse class="st2" cx="32.34" cy="4519.94" rx="12.18" ry="12.41"/>
		<path class="st4" d="M-6.62,4661.35c-2.07,0-3.93-1.26-4.69-3.19l-41.15-104.8c-1.02-2.59,0.25-5.52,2.84-6.54
			c2.59-1.02,5.52,0.25,6.54,2.84l41.15,104.8c1.02,2.59-0.25,5.51-2.84,6.54C-5.36,4661.23-5.99,4661.35-6.62,4661.35z"/>
		<ellipse class="st2" cx="-47.77" cy="4551.51" rx="9.62" ry="9.8"/>
	</g>
	
		<g transform="translate(906.0 560.0) rotate(14.204429756492923 -14.0 59.5) translate(-0.0 0.0) scale(-0.4720161834120027 0.47372611464968156)">
		<path class="st4" d="M-2125.48,4434.7c-2.52,0-4.65-1.87-4.99-4.37l-49.48-371.74c-0.37-2.76,1.57-5.29,4.33-5.66
			c2.76-0.37,5.29,1.57,5.66,4.33l49.48,371.74c0.37,2.76-1.57,5.29-4.33,5.66C-2125.03,4434.69-2125.26,4434.7-2125.48,4434.7z"/>
		
			<ellipse transform="matrix(0.2454 -0.9694 0.9694 0.2454 -5575.1187 953.73)" class="st2" cx="-2174.95" cy="4057.92" rx="21.37" ry="21.29"/>
	</g>
	<g transform="translate(826.0 412.0) rotate(0.0 31.5 65.5) translate(0.0 32.0) scale(0.5817174515235457 0.5822222222222222)">
		<path class="st4" d="M925.48,3750.93c-2.78,0-5.04-2.26-5.04-5.04v-313.06c0-2.78,2.26-5.04,5.04-5.04s5.04,2.26,5.04,5.04v313.06
			C930.52,3748.67,928.26,3750.93,925.48,3750.93z"/>
		<g>
			<path class="st4" d="M983.75,3550.06c-16.12,0-56.44-25.43-60.99-28.33c-2.35-1.5-3.04-4.61-1.54-6.96
				c0.39-0.62,0.92-1.14,1.54-1.54c4.54-2.9,44.87-28.33,60.99-28.33c17.99,0.01,32.58,14.6,32.57,32.6
				C1016.31,3535.48,1001.74,3550.05,983.75,3550.06z M935.03,3517.48c16.62,10.05,40.07,22.5,48.72,22.5
				c12.43-0.01,22.5-10.09,22.49-22.52c-0.01-12.42-10.07-22.49-22.49-22.49C975.1,3494.97,951.65,3507.43,935.03,3517.48z"/>
			<path class="st4" d="M867.03,3550.06c-17.99,0.01-32.59-14.57-32.6-32.57c-0.01-17.99,14.57-32.59,32.57-32.6
				c0.01,0,0.02,0,0.03,0c16.12,0,56.44,25.43,60.99,28.33c2.35,1.5,3.04,4.61,1.54,6.96c-0.39,0.62-0.92,1.14-1.54,1.54
				C923.47,3524.63,883.15,3550.06,867.03,3550.06z M867.03,3494.97c-12.43,0-22.51,10.08-22.51,22.51s10.08,22.5,22.51,22.5
				c8.66,0,32.1-12.46,48.72-22.5C899.14,3507.43,875.69,3494.97,867.03,3494.97z"/>
		</g>
	</g>
	<g transform="translate(28.0 629.0) rotate(0.0 604.0 2.0) scale(1.010268273060126 1.0)">
		<path class="st4" d="M1948.6,2150.03H-25.85c-1.86,0-3.36-1.5-3.36-3.36c0-1.85,1.5-3.36,3.36-3.36H1948.6
			c1.86,0,3.36,1.5,3.36,3.36C1951.96,2148.52,1950.45,2150.03,1948.6,2150.03L1948.6,2150.03z"/>
	</g>
	<g transform="translate(958.0 255.0) rotate(0.0 16.5 16.5) scale(0.5534684019857775 0.5534869678977559)">
		<g>
			<path class="st6" d="M1055.66,3413.23h20c9.14,0,16.54,7.4,16.55,16.54c0,2.57-0.6,5.11-1.75,7.41l-24.81,49.63l-24.8-49.63
				c-4.09-8.17-0.78-18.11,7.38-22.2C1050.54,3413.83,1053.08,3413.23,1055.66,3413.23z M1139.23,3476.8v20
				c0.01,9.14-7.39,16.55-16.52,16.56c-2.58,0-5.12-0.6-7.43-1.75l-49.63-24.81l49.63-24.82c8.18-4.08,18.13-0.75,22.21,7.43
				C1138.63,3471.71,1139.23,3474.24,1139.23,3476.8z"/>
		</g>
	</g>
	<g transform="translate(307.0 206.0) rotate(-90.00000000000001 18.5 18.5) scale(0.6205554810143566 0.620576297339908)">
		<g>
			<path class="st6" d="M-3014.63,213.93h20c9.14,0,16.54,7.4,16.55,16.54c0,2.57-0.6,5.11-1.75,7.41l-24.81,49.63l-24.8-49.63
				c-4.09-8.17-0.78-18.11,7.38-22.2C-3019.76,214.53-3017.21,213.93-3014.63,213.93z M-2931.06,277.5v20
				c0.01,9.14-7.39,16.55-16.52,16.56c-2.58,0-5.12-0.6-7.43-1.75l-49.63-24.81l49.63-24.82c8.18-4.08,18.13-0.75,22.21,7.43
				C-2931.66,272.41-2931.06,274.94-2931.06,277.5z"/>
		</g>
	</g>
	<g transform="translate(462.0 75.0) rotate(97.29823253210765 16.5 17.0) scale(0.5075595613454943 0.5116013121068946)">
		<path class="st1" d="M3396.47-857.13l-0.42-20c-0.19-9.13,7.05-16.7,16.19-16.89c2.57-0.06,5.12,0.49,7.45,1.59l50.13,23.75
			l-49.07,25.85c-8.09,4.26-18.11,1.15-22.37-6.94C3397.18-852.05,3396.53-854.56,3396.47-857.13z"/>
		<path class="st6" d="M3413.05-835.88c-2.15,0-4.31-0.32-6.43-0.98c-5.48-1.68-10.06-5.49-12.71-10.57
			c-1.55-2.96-2.4-6.24-2.48-9.59v0l-0.42-20c-0.14-5.72,2.02-11.27,5.99-15.39c3.95-4.15,9.39-6.54,15.12-6.65
			c3.36-0.07,6.68,0.64,9.71,2.08l50.13,23.74c2.51,1.19,3.59,4.2,2.39,6.71c-0.47,0.98-1.24,1.79-2.2,2.3l-49.07,25.85
			C3419.99-836.74,3416.55-835.88,3413.05-835.88z M3401.51-857.23c0.04,1.78,0.49,3.53,1.32,5.11c1.42,2.71,3.86,4.74,6.78,5.64
			c2.92,0.91,6.08,0.62,8.78-0.81l40.16-21.15l-41.03-19.43c-1.62-0.77-3.39-1.15-5.18-1.11c-3.05,0.06-5.95,1.33-8.06,3.54
			c-2.12,2.2-3.27,5.15-3.19,8.2L3401.51-857.23z"/>
		<path class="st1" d="M3458.31-942.04l20-0.42c9.14-0.16,16.69,7.12,16.85,16.26c0.05,2.54-0.5,5.07-1.58,7.37l-23.76,50.15
			l-25.85-49.12c-4.24-8.1-1.11-18.11,6.99-22.35C3453.23-941.35,3455.75-941.99,3458.31-942.04z"/>
		<path class="st6" d="M3469.81-863.64c-1.87,0-3.59-1.04-4.46-2.69l-25.85-49.12c-5.53-10.56-1.44-23.64,9.12-29.16
			c2.96-1.55,6.24-2.39,9.58-2.46l20-0.42c11.92-0.21,21.78,9.3,21.99,21.21c0.05,3.32-0.65,6.61-2.07,9.61l-23.77,50.15
			c-0.82,1.72-2.54,2.84-4.45,2.88L3469.81-863.64z M3478.61-937.43l-0.21,0l-19.99,0.42h0c-1.78,0.04-3.53,0.49-5.11,1.31
			c-5.63,2.95-7.81,9.91-4.87,15.55l21.15,40.19l19.45-41.04c0.75-1.59,1.13-3.36,1.1-5.12
			C3490.01-932.39,3484.89-937.42,3478.61-937.43z M3458.31-942.04h0.02H3458.31z"/>
	</g>
</g>
<rect x="0.19" y="2779" class="st6" width="1999.81" height="421"/>
</svg>
