<?xml version="1.0" encoding="utf-8"?>
<!-- Generator: Adobe Illustrator 26.1.0, SVG Export Plug-In . SVG Version: 6.00 Build 0)  -->
<svg version="1.1" id="Layer_1" xmlns="http://www.w3.org/2000/svg" xmlns:xlink="http://www.w3.org/1999/xlink" x="0px" y="0px"
	 viewBox="0 0 2000 3200" style="enable-background:new 0 0 2000 3200;" xml:space="preserve">
<style type="text/css">
	.st0{fill:#70D9D9;}
	.st1{fill:#FFFFFF;}
	.st2{fill:#FF7F36;}
	.st3{fill:#007575;}
	.st4{fill:#222433;}
	.st5{fill:#FF7F36;stroke:#FF7F36;stroke-miterlimit:10;}
	.st6{fill:#15C2C1;}
	.st7{fill:#FDA979;}
	.st8{fill:#C35515;}
	.st9{fill:none;stroke:#5A38FD;stroke-width:111.9047;stroke-miterlimit:10;}
	.st10{fill:none;stroke:#FF7F36;stroke-width:111.9047;stroke-miterlimit:10;}
	.st11{fill:none;stroke:#FFFFFF;stroke-width:9.2351;stroke-miterlimit:10;stroke-dasharray:23.0877,36.9403;}
	.st12{fill:none;stroke:#313341;stroke-width:3.8308;stroke-miterlimit:10;}
	.st13{fill:none;}
	.st14{opacity:0.75;fill:#70D9D9;}
	.st15{fill:#5A38FD;}
	.st16{fill:none;stroke:#222433;stroke-width:8.5039;stroke-miterlimit:10;stroke-dasharray:14.1732,14.1732;}
	.st17{fill:#7057FD;}
	.st18{fill:none;stroke:#222433;stroke-width:5.4074;stroke-miterlimit:10;}
	.st19{fill:#222433;stroke:#222433;stroke-width:5.4303;stroke-miterlimit:10;}
	.st20{fill:#2B292D;}
	.st21{fill:none;stroke:#C35515;stroke-width:9.9101;stroke-miterlimit:10;}
	.st22{fill:none;stroke:#C35515;stroke-width:5.6693;stroke-miterlimit:10;}
	.st23{fill:#C35515;stroke:#000000;stroke-miterlimit:10;}
	.st24{fill:#C35515;stroke:#000000;stroke-width:0.6042;stroke-miterlimit:10;}
	.st25{fill:#15C2C1;stroke:#222433;stroke-width:6.1644;stroke-miterlimit:10;}
	.st26{fill:#FFFFFF;stroke:#000000;stroke-width:6.1644;stroke-miterlimit:10;}
	.st27{fill:none;stroke:#007575;stroke-width:6.1644;stroke-miterlimit:10;}
	.st28{fill:none;stroke:#FFFFFF;stroke-width:14.1732;stroke-miterlimit:10;stroke-dasharray:23.0877,36.9403;}
	.st29{fill-rule:evenodd;clip-rule:evenodd;fill:#FDA979;}
	.st30{fill-rule:evenodd;clip-rule:evenodd;fill:#FFFFFF;}
	.st31{fill-rule:evenodd;clip-rule:evenodd;fill:#007575;}
	.st32{fill:#606060;}
	.st33{clip-path:url(#SVGID_00000039842539907417689950000008246796878616542623_);}
	.st34{fill:#222433;stroke:#222433;stroke-width:1.0471;stroke-miterlimit:10;}
	.st35{fill:#222433;stroke:#222433;stroke-width:2.2688;stroke-miterlimit:10;}
	.st36{fill:#82B1FF;}
	.st37{fill:#15C2C1;stroke:#70D9D9;stroke-width:15.652;stroke-miterlimit:10;}
	.st38{stroke:#222433;stroke-width:0.8333;stroke-miterlimit:10;}
	.st39{clip-path:url(#SVGID_00000141426444615826985440000016677395803287773071_);}
	.st40{clip-path:url(#SVGID_00000141426444615826985440000016677395803287773071_);fill:#FF7F36;}
	.st41{clip-path:url(#SVGID_00000141426444615826985440000016677395803287773071_);fill:#C35515;}
	.st42{fill:#222433;stroke:#222433;stroke-width:0.791;stroke-miterlimit:10;}
	.st43{fill-rule:evenodd;clip-rule:evenodd;fill:#FF7F36;}
	.st44{fill-rule:evenodd;clip-rule:evenodd;fill:#15C2C1;}
	.st45{fill:none;stroke:#FF7F36;stroke-width:11.3386;stroke-miterlimit:10;}
	.st46{fill:none;stroke:#FF7F36;stroke-width:9.6934;stroke-miterlimit:10;}
	.st47{opacity:0.44;fill:#FDA979;}
	.st48{fill:none;stroke:#70D9D9;stroke-width:8.5039;stroke-miterlimit:10;stroke-dasharray:11.5087,11.5098;}
	.st49{opacity:0.75;fill:#007575;}
	.st50{clip-path:url(#SVGID_00000019639339580842389820000011291340296675987894_);}
	.st51{fill:none;stroke:#FF7F36;stroke-miterlimit:10;}
	.st52{clip-path:url(#SVGID_00000076581300056818258930000001556966434474454688_);}
	.st53{stroke:#70D9D9;stroke-width:8.5039;stroke-miterlimit:10;}
	.st54{fill:#FDA979;stroke:#222433;stroke-width:17.0079;stroke-miterlimit:10;}
	.st55{clip-path:url(#SVGID_00000121973802107762449270000003409861615636603580_);}
	.st56{fill:none;stroke:#222433;stroke-width:16.1222;stroke-linecap:round;stroke-miterlimit:10;}
	.st57{clip-path:url(#SVGID_00000132790117037326411390000003422690132949091217_);fill:#15C2C1;}
	.st58{clip-path:url(#SVGID_00000132790117037326411390000003422690132949091217_);fill:#C35515;}
	
		.st59{clip-path:url(#SVGID_00000132790117037326411390000003422690132949091217_);fill:#15C2C1;stroke:#000000;stroke-width:8.2755;stroke-miterlimit:10;}
	.st60{clip-path:url(#SVGID_00000132790117037326411390000003422690132949091217_);fill:#FF7F36;}
	
		.st61{clip-path:url(#SVGID_00000132790117037326411390000003422690132949091217_);fill:#15C2C1;stroke:#000000;stroke-width:8.5039;stroke-miterlimit:10;}
	
		.st62{clip-path:url(#SVGID_00000132790117037326411390000003422690132949091217_);fill:none;stroke:#000000;stroke-width:8.5039;stroke-miterlimit:10;}
	
		.st63{clip-path:url(#SVGID_00000132790117037326411390000003422690132949091217_);fill:#FFFFFF;stroke:#000000;stroke-width:8.5039;stroke-miterlimit:10;}
	.st64{clip-path:url(#SVGID_00000132790117037326411390000003422690132949091217_);}
	.st65{fill:none;stroke:#000000;stroke-width:8.2815;stroke-linecap:round;stroke-miterlimit:10;}
	
		.st66{clip-path:url(#SVGID_00000132790117037326411390000003422690132949091217_);fill:#FFFFFF;stroke:#000000;stroke-width:8.7446;stroke-miterlimit:10;}
	.st67{clip-path:url(#SVGID_00000132790117037326411390000003422690132949091217_);fill:none;}
	.st68{clip-path:url(#SVGID_00000052074718391279204050000007843067576063840933_);fill:#FF7F36;}
	.st69{clip-path:url(#SVGID_00000052074718391279204050000007843067576063840933_);}
	
		.st70{clip-path:url(#SVGID_00000052074718391279204050000007843067576063840933_);fill:none;stroke:#5A38FD;stroke-width:111.9047;stroke-miterlimit:10;}
	.st71{clip-path:url(#SVGID_00000019649263116615078040000000556776864615648678_);}
	
		.st72{opacity:0.57;clip-path:url(#SVGID_00000019649263116615078040000000556776864615648678_);fill:none;stroke:#FFFFFF;stroke-width:32.7065;stroke-linecap:round;stroke-miterlimit:10;}
	.st73{fill:#222433;stroke:#000000;stroke-width:7.0866;stroke-miterlimit:10;}
	
		.st74{clip-path:url(#SVGID_00000019649263116615078040000000556776864615648678_);fill:#222433;stroke:#222433;stroke-width:163.17;stroke-miterlimit:10;}
	.st75{fill:none;stroke:#000000;stroke-width:7.0866;stroke-miterlimit:10;}
	
		.st76{clip-path:url(#SVGID_00000019649263116615078040000000556776864615648678_);fill:#70D9D9;stroke:#000000;stroke-width:2.8346;stroke-linecap:round;stroke-miterlimit:10;}
	.st77{clip-path:url(#SVGID_00000169530188835171958260000003617715186871102082_);fill:#FFFFFF;}
	.st78{clip-path:url(#SVGID_00000169530188835171958260000003617715186871102082_);fill:#222433;}
	.st79{clip-path:url(#SVGID_00000169530188835171958260000003617715186871102082_);fill:#15C2C1;}
	.st80{clip-path:url(#SVGID_00000169530188835171958260000003617715186871102082_);fill:#FDA979;}
	.st81{clip-path:url(#SVGID_00000169530188835171958260000003617715186871102082_);}
	.st82{clip-path:url(#SVGID_00000169530188835171958260000003617715186871102082_);fill:#FF7F36;}
	.st83{clip-path:url(#SVGID_00000169530188835171958260000003617715186871102082_);fill:#C35515;}
	.st84{clip-path:url(#SVGID_00000056407078684391361880000007284656791665876871_);}
</style>
<g transform="translate(598.0 47.0) rotate(0.0 54.0 18.5) scale(0.708289611752361 0.7134593135364443)">
	<g>
		<path class="st4" d="M487.96,2965.3c-1.47,0-2.85-0.74-3.67-1.96l-20.08-30.17c-1.35-2.02-0.8-4.76,1.23-6.1
			c2.02-1.35,4.76-0.8,6.1,1.23l20.07,30.17c1.35,2.02,0.8,4.75-1.22,6.1C489.68,2965.05,488.83,2965.31,487.96,2965.3
			L487.96,2965.3z M662.61,2965.3c-2.43,0-4.4-1.97-4.4-4.39c0-0.87,0.26-1.72,0.74-2.44l20.08-30.17c1.35-2.02,4.08-2.57,6.1-1.23
			c2.02,1.35,2.57,4.08,1.23,6.1l0,0l-20.08,30.17C665.46,2964.57,664.08,2965.3,662.61,2965.3z M575.28,2935.14
			c-2.43,0-4.4-1.97-4.4-4.4l0,0v-37.09c0-2.43,1.97-4.4,4.4-4.4c2.43,0,4.4,1.97,4.4,4.4v37.09
			C579.68,2933.17,577.71,2935.14,575.28,2935.14L575.28,2935.14z"/>
	</g>
</g>
<g transform="translate(622.0 85.0) rotate(0.0 243.0 295.0) scale(0.6687518146429127 0.6673785371062466)">
	<ellipse class="st2" cx="1016.09" cy="3369.13" rx="42.17" ry="42.08"/>
	<path class="st4" d="M1016.09,3436.59c-37.26,0-67.46-30.2-67.46-67.46c0-37.26,30.2-67.46,67.46-67.46
		c37.26,0,67.46,30.2,67.46,67.46C1083.51,3406.37,1053.33,3436.55,1016.09,3436.59z M1016.09,3310.47
		c-32.4,0-58.66,26.26-58.66,58.66c0,32.4,26.26,58.66,58.66,58.66c32.4,0,58.66-26.26,58.66-58.66
		C1074.71,3336.75,1048.47,3310.51,1016.09,3310.47z"/>
	<path class="st3" d="M1093.42,3939.44L1205,4246.77l231.07-30.97l-136.19-375.69c-5.15-14.19-13.07-27.22-23.3-38.32
		l-196.63-220.75c-0.05-0.5-0.08-1-0.15-1.51l-1.09,0.13l-0.12-0.13l-0.18,0.16L870,3604.57L721.3,3750
		c-37.71,41.24-39.97,103.75-5.32,147.6l230.62,291.97l183.72-124.83L954.97,3832.3l21.94-23.99L1093.42,3939.44z"/>
	<path class="st6" d="M915.87,3416.08c-14.43-9.76-27.96-14.45-46.58-11.91l-104.03,14.21l13.01,138.9l99.18-13.55
		c-0.76,6.2-2.04,12.32-3.85,18.3c-4.09,13.78-5.31,28.25-3.59,42.53l209.81-25c-1.09-9.23-3.4-18.27-6.86-26.89l52.63,2.14
		l13.62-147.72l-57.62-2.34l-106.5,33.36c-17.18,5.38-37.07,3.76-49.91-8.86L915.87,3416.08z"/>
	<path class="st4" d="M869.99,3608.97c-2.22,0-4.1-1.67-4.36-3.87c-1.81-14.87-0.53-29.95,3.74-44.3c1.18-3.91,2.12-7.88,2.84-11.9
		l-93.36,12.76c-2.41,0.33-4.63-1.35-4.96-3.76c-0.01-0.06-0.02-0.12-0.02-0.19l-13.01-138.9c-0.22-2.35,1.45-4.45,3.78-4.77
		l104.03-14.21c18.06-2.47,32.91,1.31,49.64,12.62c0.44,0.3,0.82,0.67,1.13,1.11l9.07,12.84c12.55,12.06,31.56,11.81,45.23,7.53
		l106.5-33.36c0.48-0.15,0.99-0.22,1.49-0.2l57.62,2.34c2.43,0.1,4.32,2.15,4.22,4.58c0,0.07-0.01,0.15-0.02,0.22l-13.62,147.72
		c-0.22,2.33-2.22,4.08-4.56,3.99l-46.06-1.87c2.34,7.05,3.97,14.33,4.84,21.71c0.29,2.41-1.44,4.6-3.85,4.89l-209.81,25
		C870.34,3608.96,870.16,3608.97,869.99,3608.97L869.99,3608.97z M877.43,3539.34c2.43,0,4.4,1.97,4.4,4.4
		c0,0.18-0.01,0.36-0.03,0.54c-0.79,6.45-2.13,12.82-4,19.04c-3.51,11.78-4.82,24.1-3.87,36.36l200.89-23.94
		c-1.2-7.33-3.2-14.51-5.97-21.41c-0.91-2.25,0.19-4.82,2.44-5.72c0.58-0.23,1.2-0.34,1.82-0.31l48.46,1.97l12.81-138.94
		l-52.23-2.12l-105.77,33.13c-20.68,6.48-41.49,2.68-54.3-9.92c-0.19-0.18-0.36-0.38-0.51-0.6l-8.84-12.51
		c-14.69-9.78-27.16-12.9-42.86-10.75l-99.85,13.64l12.19,130.14l94.63-12.93C877.04,3539.35,877.24,3539.34,877.43,3539.34
		L877.43,3539.34z"/>
	<path class="st2" d="M1520.25,4336.66c-70.88-10.48-110.12-71.76-113.12-117.76c-4.46,2.62-147.34,25.58-181.47,26.33l0.92,166.51
		l51.33-0.25l-0.88-101.52l108.36,101.04l187.78-0.91C1575.59,4375.61,1554.24,4341.69,1520.25,4336.66L1520.25,4336.66z
		 M1178.96,4168.59l-62.18-96.44c-2.8,2.36-147.72,102.07-147.73,102.05c-0.21,0.57-0.44,1.16-0.7,1.77
		c-0.02,0.04-0.04,0.07-0.05,0.11c25.53,38.21,45.8,97.77-7.68,145.06c-25.72,22.79-25.08,62.87-4.19,90.42l162.46-104.87
		l7.45-125.65l54.73,85.52l26.73-17.28C1206.09,4248.24,1180.42,4175.67,1178.96,4168.59L1178.96,4168.59z"/>
	<path class="st1" d="M1255.69,3777.49c-4.57-39.74-11.19-75.11-11.19-75.11l65.02-197.65c10.78-39.46-12.47-80.19-51.93-90.97
		c-5.39-1.47-10.94-2.33-16.53-2.56l-101.86-4.12l-13.62,147.73l16.51,0.67l-10.96,83L1255.69,3777.49z"/>
	<path class="st4" d="M1255.69,3781.89c-1.25,0-2.44-0.53-3.28-1.47l-124.56-139c-0.86-0.96-1.25-2.24-1.09-3.51l10.33-78.23
		l-11.7-0.48c-2.43-0.1-4.32-2.15-4.22-4.58c0-0.07,0.01-0.15,0.02-0.22l13.62-147.73c0.21-2.33,2.22-4.09,4.56-3.99l101.86,4.12
		c43.3,1.75,76.98,38.28,75.23,81.58c-0.24,5.92-1.15,11.79-2.71,17.5c-0.02,0.07-0.04,0.15-0.06,0.22l-64.67,196.58
		c1.16,6.35,6.95,38.78,11.04,74.3c0.28,2.41-1.46,4.6-3.87,4.87C1256.02,3781.88,1255.86,3781.89,1255.69,3781.89L1255.69,3781.89z
		 M1135.76,3637.06l113.86,127.07c-4.29-33.23-9.39-60.63-9.45-60.94c-0.14-0.73-0.09-1.48,0.15-2.19l64.99-197.54
		c10.08-37.14-11.85-75.41-48.99-85.49c-5.04-1.37-10.21-2.16-15.43-2.38l-97.69-3.95l-12.81,138.96l11.89,0.49
		c2.43,0.1,4.32,2.15,4.22,4.57c-0.01,0.13-0.02,0.26-0.03,0.4L1135.76,3637.06z"/>
	<path class="st1" d="M866.93,3258.43c-1.34,2.28-2.52,4.64-3.55,7.07c-2.91,6.86-4.55,14.19-4.85,21.64
		c-23.54,24.75-22.56,63.9,2.19,87.44c12.93,12.29,30.53,18.41,48.29,16.77l4.17,14.19l3.04,9.83
		c3.37,11.43,12.82,20.03,24.52,22.31l41.62-24.53l-19.06-67.46l-1.47-55.73l-68.92-49.86l-13.2,7.33L866.93,3258.43z"/>
	<path class="st4" d="M940.74,3442.06c-0.28,0-0.56-0.03-0.84-0.08c-13.33-2.56-24.1-12.36-27.9-25.39l-3.02-9.77l-3.19-10.87
		c-36.56,1.36-67.3-27.17-68.66-63.73c-0.64-17.27,5.49-34.11,17.09-46.92c0.48-7.41,2.21-14.69,5.11-21.53
		c1.1-2.61,2.38-5.14,3.81-7.58c0.24-0.42,0.55-0.79,0.92-1.1l12.78-11.01c0.23-0.2,0.47-0.37,0.73-0.51l13.2-7.33
		c1.49-0.83,3.33-0.72,4.72,0.28l68.92,49.86c1.11,0.8,1.78,2.08,1.82,3.45l1.45,55.18l18.92,66.93c0.54,1.92-0.28,3.97-2,4.99
		l-41.63,24.53C942.3,3441.85,941.53,3442.06,940.74,3442.06z M909.02,3386.94c1.95,0,3.67,1.29,4.22,3.16l4.17,14.19l3.02,9.77
		c2.71,9.34,10.16,16.54,19.58,18.94l37.2-21.93l-18.14-64.2c-0.1-0.35-0.16-0.71-0.17-1.08l-1.41-53.55l-64.89-46.94l-10.36,5.75
		l-11.88,10.23c-1.09,1.92-2.07,3.9-2.93,5.93c-2.7,6.37-4.23,13.18-4.51,20.1c-0.04,1.07-0.47,2.08-1.21,2.86
		c-21.87,22.99-20.96,59.35,2.03,81.22c12.01,11.42,28.36,17.1,44.86,15.58C908.75,3386.95,908.89,3386.94,909.02,3386.94z
		 M910.38,4286.11c-16.54-0.01-29.93-13.43-29.92-29.97c0.01-9.91,4.92-19.18,13.12-24.75c12.19-7.85,82.68-25.88,90.68-27.91
		c2.36-0.6,4.75,0.83,5.35,3.18c0.34,1.33,0.03,2.75-0.82,3.82c-5.13,6.45-50.54,63.32-62.65,71.14c-0.13,0.08-0.26,0.16-0.4,0.23
		C921.1,4284.64,915.79,4286.11,910.38,4286.11L910.38,4286.11z M973.58,4215.33c-25.83,6.82-67.43,18.42-75.16,23.4
		c-9.65,6.56-12.16,19.7-5.61,29.35c6.37,9.38,19,12.06,28.63,6.08l0.15-0.09C929.63,4268.59,956.93,4235.88,973.58,4215.33
		L973.58,4215.33z"/>
	<path class="st4" d="M895.33,4227.46c-0.87,0.01-1.74-0.03-2.61-0.12c-16.42-1.87-28.21-16.69-26.35-33.1
		c1.87-16.42,16.69-28.21,33.1-26.35c14.31,1.61,80.26,32.37,87.73,35.88c2.2,1.03,3.15,3.65,2.12,5.85
		c-0.58,1.24-1.71,2.14-3.06,2.43C978.61,4213.69,914.11,4227.46,895.33,4227.46z M896.06,4176.49c-11.66,0-21.12,9.45-21.12,21.11
		c0,10.76,8.08,19.79,18.77,20.99c8.5,0.97,47.31-6.15,77.76-12.43c-28.26-12.94-64.5-28.58-72.98-29.54
		C897.68,4176.53,896.87,4176.49,896.06,4176.49L896.06,4176.49z M1388.97,4346.02c-17.85,0-32.32-14.46-32.33-32.31
		c0-3.51,0.57-6.99,1.69-10.32c5-14.86,53.02-78.23,58.48-85.41c1.47-1.93,4.23-2.31,6.16-0.84c1.09,0.83,1.74,2.13,1.74,3.5
		c0,9.01-0.16,88.45-5.16,103.36C1415.12,4337.14,1402.83,4345.99,1388.97,4346.02z M1415.84,4233.89
		c-17.42,23.33-45.9,62.59-49.17,72.31c-4.24,12.27,2.28,25.65,14.54,29.89c12.27,4.24,25.65-2.28,29.89-14.54
		c0.04-0.11,0.07-0.22,0.11-0.33C1414.47,4311.45,1415.58,4262.98,1415.84,4233.89L1415.84,4233.89z"/>
	<path class="st4" d="M1337.1,4305.01c-17.83,0.03-32.32-14.4-32.35-32.23c-0.02-11.16,5.72-21.53,15.18-27.44
		c13.22-8.31,90.58-26.88,99.36-28.97c2.36-0.56,4.74,0.9,5.3,3.26c0.32,1.34-0.01,2.75-0.88,3.81
		c-5.72,6.97-56.24,68.36-69.54,76.67C1349.05,4303.31,1343.14,4305.01,1337.1,4305.01z M1408.46,4228.06
		c-28.28,7-75.23,19.31-83.86,24.73c-11.05,6.8-14.5,21.28-7.69,32.33c6.8,11.05,21.28,14.5,32.33,7.69
		c0.09-0.06,0.18-0.11,0.27-0.17C1358.19,4287.21,1389.8,4250.41,1408.46,4228.06L1408.46,4228.06z"/>
	<path class="st6" d="M1380.27,4064.5c-4.38,0.07-8.71-0.93-12.6-2.93c-8.55-4.35-18.66-4.35-27.2,0
		c-13.16,6.72-29.28,1.5-36.01-11.66c-6.25-12.24-2.22-27.22,9.33-34.67c8.63-5.8,13.72-15.6,13.49-25.99v-0.11
		c-0.01-10.48,6.08-20.01,15.6-24.39c-1.58-4.73-2.63-9.62-3.14-14.58c-16.32,6.03-27.15,21.59-27.13,38.99v0.32
		c0.14,5.4-2.47,10.5-6.93,13.54c-19.19,12.46-24.63,38.12-12.17,57.31c11.57,17.8,34.72,23.98,53.62,14.31
		c4.35-2.22,9.5-2.22,13.85,0c7.86,4.03,16.8,5.43,25.52,4C1384.26,4073.99,1382.19,4069.28,1380.27,4064.5z M1247.62,4152.85
		c-4.87-1.99-8.37-6.35-9.26-11.53c-0.2-1.2-0.45-2.38-0.75-3.56c-5.73-22.12-28.3-35.4-50.41-29.67
		c-10.47,2.71-19.46,9.42-25.05,18.68c2.26,6.52,5.94,12.45,8.8,18.72c1.48-14.69,14.58-25.39,29.27-23.92
		c11.12,1.12,20.36,9.03,23.19,19.84c0.21,0.81,0.37,1.57,0.49,2.31l0.01,0.07c1.74,10.17,8.59,18.72,18.14,22.62
		c13.67,5.61,20.21,21.25,14.6,34.92c-5.22,12.72-19.22,19.41-32.4,15.49c-9.23-2.68-19.18-0.8-26.79,5.07
		c-0.11,0.08-0.23,0.15-0.34,0.24c1.26,4.88,2.92,9.64,4.97,14.25c1.51-0.87,2.95-1.83,4.34-2.88c3.88-3,8.96-3.97,13.67-2.61
		c21.93,6.51,44.99-5.99,51.51-27.92C1277.66,4182.58,1267.29,4160.92,1247.62,4152.85L1247.62,4152.85z M1215.08,3736.77
		c-9.16,10.07-24.42,11.67-35.47,3.71c-7.77-5.66-17.79-7.25-26.93-4.27c-14.06,4.57-29.17-3.12-33.75-17.18
		c-4.24-13.04,2.05-27.17,14.58-32.75c9.44-4.41,15.98-13.32,17.35-23.65c0.01-0.1,0.02-0.2,0.03-0.32c0.08-0.5,0.21-0.98,0.32-1.47
		c-3.6-4.02-7.47-7.79-11.59-11.29c-1.58,3.44-2.69,7.08-3.27,10.83c-0.03,0.18-0.05,0.37-0.06,0.55
		c-0.77,5.25-4.12,9.76-8.91,12.03c-20.86,9.42-30.13,33.97-20.71,54.83c8.69,19.24,30.45,28.87,50.54,22.37
		c4.68-1.52,9.81-0.7,13.78,2.2c17.03,12.3,40.57,9.91,54.79-5.55C1222.16,3743.52,1218.59,3740.18,1215.08,3736.77L1215.08,3736.77
		z M794.37,3785.4c-4.87-20.67-24.62-34.28-45.67-31.48c-5.23,0.69-10.45-1.37-13.81-5.45c-0.79-0.95-1.59-1.81-2.3-2.56l-0.1-0.11
		c-1.31-1.33-2.71-2.58-4.19-3.72c-3.16,3.74-6.24,7.56-9.49,11.24c1.12,0.82,2.17,1.72,3.15,2.7c0.57,0.61,1.11,1.18,1.63,1.81
		c6.55,7.98,16.77,12.01,27.01,10.65c14.66-1.92,28.09,8.4,30.02,23.05c1.78,13.6-7,26.34-20.34,29.52
		c-9.33,2.24-17.03,8.81-20.7,17.67c-5.63,13.67-21.27,20.18-34.94,14.56c-4.81-1.98-8.94-5.32-11.89-9.62
		c0.48,7.33,1.57,14.6,3.25,21.75c5.85,3.01,12.33,4.57,18.91,4.57c16.77-0.01,31.87-10.15,38.22-25.66c1.87-4.51,5.79-7.86,10.54-9
		C785.91,3829.98,799.64,3807.65,794.37,3785.4z M986.81,3907.05c0.55-0.94,1.08-1.89,1.6-2.86c4.38-8.12,5.91-17.49,4.33-26.58
		c-3.79-4.7-7.53-9.44-11.21-14.22c-5.99-5.45-12.32-10.56-18.12-16.21c-0.84-0.8-1.48-1.79-1.86-2.89
		c-18.25-4.35-37.15,4.08-46.11,20.56v0.01l-0.12,0.21c-2.59,4.73-7.41,7.82-12.79,8.19c-22.85,1.1-40.49,20.51-39.39,43.37
		c1.02,21.24,17.95,38.26,39.19,39.38c4.88,0.26,9.34,2.84,12,6.95c12.49,19.17,38.16,24.58,57.33,12.08
		c17.59-11.47,23.82-34.27,14.5-53.09c-2.36-4.7-2.14-10.29,0.61-14.79L986.81,3907.05z M975.48,3897.27
		c-0.42,0.78-0.85,1.56-1.3,2.32c-5.33,8.78-5.77,19.68-1.16,28.86c6.55,13.25,1.11,29.3-12.14,35.85
		c-12.14,6-26.85,1.98-34.26-9.36c-5.22-8.03-13.96-13.09-23.52-13.6c-14.76-0.79-26.08-13.4-25.29-28.16
		c0.74-13.75,11.79-24.7,25.55-25.3c10.37-0.65,19.7-6.54,24.74-15.63l0.03-0.05c0.06-0.09,0.11-0.19,0.16-0.28
		c7-13.03,23.24-17.92,36.27-10.92C977.59,3868,982.48,3884.24,975.48,3897.27L975.48,3897.27z M903.56,4048.08
		c-4.93-1.85-8.56-6.12-9.59-11.29c-0.23-1.16-0.51-2.32-0.83-3.46c-0.02-0.08-0.05-0.15-0.07-0.23
		c-6.87-21.83-30.13-33.95-51.96-27.08c-9.98,3.14-18.41,9.95-23.58,19.05c3.69,3.8,7.24,7.73,10.75,11.69
		c4.84-13.96,20.08-21.35,34.04-16.51c7.96,2.76,14.16,9.12,16.72,17.15c0.21,0.76,0.39,1.53,0.55,2.29v0.01
		c2.02,10.12,9.12,18.49,18.79,22.11c13.84,5.2,20.83,20.63,15.63,34.47c-4.85,12.9-18.7,20.01-32.01,16.42
		c-0.08-0.02-0.17-0.04-0.25-0.06c5.01,4.8,9.71,9.91,14.4,15.03c22.54-3.99,37.57-25.49,33.59-48.03
		C927.19,4065.24,917.24,4053.24,903.56,4048.08L903.56,4048.08z"/>
	<path class="st4" d="M981.8,3312.9c-2.43,0-4.4-1.97-4.4-4.4c0-0.29,0.03-0.58,0.08-0.86c0.69-3.47,17.27-85.18,48.25-100.35
		c6.93-3.53,15.15-3.43,22,0.26c8.96,4.48,11.32,11.15,11.73,15.96c2.6,30.65-67.11,82.7-75.06,88.53
		C983.65,3312.6,982.74,3312.9,981.8,3312.9z M1036.4,3213.54c-2.36,0.02-4.68,0.59-6.79,1.66c-19.27,9.43-34.17,55.38-40.85,82.46
		c23.89-18.88,63.55-54.44,61.94-73.4c-0.2-2.41-1.14-5.95-6.89-8.83C1041.52,3214.23,1038.98,3213.58,1036.4,3213.54
		L1036.4,3213.54z"/>
	<path class="st4" d="M982.44,3312.91h-0.66c-2.43-0.01-4.39-1.99-4.38-4.42c0.01-1.33,0.61-2.59,1.66-3.42
		c5.62-4.48,55.57-43.59,79.39-38.53c4.67,0.88,8.67,3.88,10.84,8.11c3.94,7.64,2.19,13.44,0.03,16.96
		C1056.79,3312.08,992.63,3312.91,982.44,3312.91L982.44,3312.91z M1053.52,3274.84c-14.55,0-41.12,16.72-58.16,28.97
		c26.41-1.2,59.92-6.1,66.47-16.8c0.92-1.5,1.88-4-0.34-8.33c-0.96-1.89-2.76-3.21-4.85-3.54
		C1055.6,3274.93,1054.56,3274.83,1053.52,3274.84L1053.52,3274.84z M974.28,3815.61c-2.43,0-4.4-1.97-4.4-4.4
		c0-1.07,0.39-2.09,1.09-2.9l28.23-32.25c1.56-1.86,4.34-2.1,6.2-0.54c1.86,1.56,2.1,4.34,0.54,6.2c-0.04,0.05-0.08,0.09-0.12,0.13
		l-28.23,32.25C976.76,3815.06,975.55,3815.61,974.28,3815.61L974.28,3815.61z M1110.29,3953.54c-0.77,0-1.52-0.2-2.18-0.59
		l-16.91-9.69c-2.15-1.13-2.98-3.79-1.85-5.94c1.13-2.15,3.79-2.98,5.94-1.85c0.1,0.05,0.19,0.1,0.28,0.16l16.91,9.69
		c2.11,1.21,2.83,3.9,1.62,6.01C1113.32,3952.7,1111.86,3953.54,1110.29,3953.54L1110.29,3953.54z"/>
	<path class="st6" d="M1163.75,3946.32c-16.35-0.02-31.17-9.65-37.85-24.57c-1.98-4.48-5.99-7.74-10.78-8.76
		c-22.39-4.72-36.71-26.69-32-49.08c4.38-20.8,23.8-34.91,44.94-32.65c5.31,0.47,10.5-1.77,13.82-5.95
		c0.11-0.16,0.23-0.31,0.35-0.46c14.51-17.69,40.62-20.26,58.3-5.75c16.69,13.69,20.07,37.91,7.76,55.65
		c-0.69,0.99-1.43,1.94-2.2,2.87l-0.05,0.06c-3.42,4.02-4.51,9.52-2.88,14.54c6.98,21.82-5.05,45.16-26.87,52.14
		c-4.06,1.3-8.29,1.96-12.56,1.97L1163.75,3946.32z M1123.72,3845.69c-14.78-0.02-26.78,11.94-26.8,26.72
		c-0.02,12.66,8.84,23.61,21.23,26.22c9.39,2,17.26,8.38,21.15,17.16c6.04,13.49,21.87,19.53,35.36,13.5
		c12.45-5.57,18.72-19.62,14.55-32.61c-3.18-9.82-1.05-20.58,5.62-28.45c0.48-0.59,0.97-1.22,1.48-1.93
		c8.4-12.16,5.34-28.83-6.82-37.23c-11.37-7.85-26.85-5.75-35.72,4.84c-0.05,0.07-0.11,0.15-0.16,0.22
		c-6.39,8.27-16.57,12.69-26.98,11.72C1125.66,3845.74,1124.69,3845.69,1123.72,3845.69L1123.72,3845.69z M954.6,3737.99
		c-2.51,0-5.01-0.23-7.48-0.67c-10.82-1.93-20.42-8.11-26.66-17.16c-2.79-4.01-7.33-6.44-12.22-6.54
		c-22.88-0.39-41.11-19.25-40.72-42.13c0.36-21.28,16.8-38.83,38.01-40.58c5.11-0.53,9.64-3.51,12.15-8
		c0.12-0.32,0.25-0.62,0.41-0.92c10.76-20.19,35.85-27.84,56.04-17.07c19.27,10.27,27.26,33.74,18.26,53.64
		c-0.48,1.07-1.01,2.12-1.57,3.15l-0.06,0.11c-2.58,4.58-2.57,10.18,0.03,14.75c11.03,20.06,3.71,45.26-16.35,56.29
		C968.37,3736.21,961.54,3737.97,954.6,3737.99z M931.42,3628.2c-0.09,0.24-0.2,0.47-0.31,0.7c-4.7,9.32-13.85,15.59-24.24,16.6
		c-14.74,1.09-25.81,13.92-24.72,28.66c1.02,13.85,12.46,24.61,26.35,24.79c9.61,0.18,18.54,4.96,24.02,12.85
		c8.42,12.14,25.1,15.16,37.24,6.74c11.26-7.81,14.8-22.87,8.2-34.88c-5.07-9-5.07-20.01,0.01-29.01c0.45-0.84,0.78-1.49,1.05-2.1
		c6.11-13.46,0.16-29.32-13.3-35.44C953.14,3611.4,938.28,3616.21,931.42,3628.2L931.42,3628.2z"/>
	<path d="M1205,4251.16c-1.85,0-3.5-1.16-4.13-2.9l-66.27-182.52c-0.25,1.08-0.9,2.02-1.81,2.64l-183.72,124.83
		c-1.91,1.3-4.49,0.9-5.92-0.91l-230.62-291.97c-36.17-45.48-33.83-110.54,5.53-153.3c0.05-0.06,0.11-0.12,0.17-0.18l148.7-145.43
		c0.69-0.68,1.59-1.11,2.55-1.22l207.52-24.77c0.58-0.23,1.2-0.33,1.82-0.29c0.13,0.01,0.26,0.02,0.38,0.04l0.08-0.01
		c2.41-0.29,4.6,1.43,4.89,3.84c0,0,0,0,0,0c0.01,0.06,0.01,0.12,0.02,0.19l195.67,219.66c10.62,11.51,18.83,25.02,24.15,39.74
		l136.19,375.7c0.83,2.28-0.35,4.81-2.63,5.64c-0.3,0.11-0.61,0.19-0.92,0.23l-231.07,30.97
		C1205.39,4251.15,1205.19,4251.17,1205,4251.16L1205,4251.16z M976.9,3803.9h0.03c1.25,0.01,2.43,0.55,3.26,1.48l116.51,131.13
		c0.37,0.42,0.66,0.9,0.85,1.42l110.37,304l222.15-29.77l-134.33-370.56c-4.94-13.65-12.55-26.17-22.4-36.84l-196.38-220.48
		l-204.96,24.47l-147.54,144.3c-36.35,39.59-38.49,99.74-5.03,141.81l228.08,288.77l176.51-119.93l-172.56-228.76
		c-1.28-1.69-1.16-4.05,0.27-5.62l21.94-23.99C974.49,3804.42,975.67,3803.9,976.9,3803.9L976.9,3803.9z M960.68,3832.57
		l172.08,228.11l-43.19-118.95l-112.71-126.85L960.68,3832.57z"/>
	<path class="st1" d="M633.56,3193.35c-12.54-38.89-32.51-79.39-47.9-72.97c-14.13,5.86-0.21,29.7,13.45,78.29
		c-19.55-40.91-36.88-69.52-50.76-61.76c-13.76,7.74,6.21,48.97,21.6,80.37c-18.86-15.32-43.65-37.14-53.3-29.45
		c-13.81,11.02,6.56,30.5,18.71,44.66c27.05,31.57,15.28,48.02,10.58,73.95c-3.18,17.26,7.15,35.03,23.08,52.08l68.46,175.54
		c15.47,23.82,43.31,36.56,71.45,32.7l69.33-9.47l-13.01-138.9l-28.21,3.28c0,0-89.36-141-89.91-141.73"/>
	<path class="st4" d="M699.08,3571.84c-26.34-0.03-50.88-13.33-65.29-35.38c-0.16-0.25-0.3-0.52-0.41-0.8l-68.15-174.76
		c-18.96-20.49-26.69-38.57-23.61-55.25c0.87-4.82,1.97-9.26,3.03-13.56c4.68-18.92,8.05-32.6-12.62-56.73
		c-1.38-1.61-2.88-3.29-4.41-5.02c-9.8-11.03-20.9-23.54-19.93-34.83c0.4-4.42,2.66-8.45,6.22-11.1
		c9.68-7.72,26.23,3.27,43.51,17.01c-16.2-34.49-25.19-60.47-11.22-68.33c3.5-1.98,7.67-2.38,11.49-1.1
		c7,2.22,14.36,9.46,23.23,23.35c-6.67-21.01-9.09-33.97,3.07-39.01c3.69-1.48,7.84-1.31,11.4,0.47
		c19.76,9.1,37.43,59.87,42.37,75.21c0.75,2.31-0.52,4.79-2.84,5.54c-2.31,0.75-4.79-0.52-5.54-2.84
		c-11.9-36.92-27.04-65.02-37.69-69.92c-1.32-0.77-2.92-0.89-4.34-0.34c-6.21,2.58-2.69,14.24,5.2,38.27
		c3.28,10,7.01,21.33,10.79,34.77c0.64,2.34-0.73,4.76-3.08,5.41c-2.05,0.56-4.2-0.42-5.13-2.33c-7.31-15.3-26.74-55.95-40.13-60.2
		c-1.49-0.55-3.15-0.41-4.52,0.39c-1.76,0.99-5.13,5.53,1.88,26.05c5.25,15.36,14.65,34.54,21.52,48.54
		c1.08,2.18,0.18,4.82-1.99,5.89c-1.55,0.76-3.4,0.55-4.73-0.54c-1.67-1.36-3.35-2.73-5.01-4.11
		c-12.83-10.52-36.73-30.12-42.76-25.31c-1.65,1.15-2.72,2.97-2.93,4.97c-0.65,7.53,9.55,19.01,17.74,28.24
		c1.57,1.77,3.1,3.49,4.51,5.13c23.63,27.57,19.19,45.55,14.49,64.57c-1.03,4.16-2.09,8.47-2.92,13.03
		c-2.57,13.93,4.62,29.73,21.96,48.29c0.38,0.41,0.68,0.88,0.88,1.4l68.28,175.12c14.65,22.11,40.64,33.9,66.92,30.37l65.16-8.9
		l-12.2-130.22l-23.75,2.76c-1.68,0.19-3.32-0.59-4.22-2.01c-30.4-47.98-88.19-139.13-89.82-141.61c-1.36-2.01-0.84-4.75,1.17-6.11
		c1.95-1.33,4.6-0.87,6.01,1.02c0.52,0.7,48.1,75.77,88.6,139.66l25.47-2.96c2.41-0.28,4.6,1.45,4.88,3.86
		c0,0.03,0.01,0.06,0.01,0.1l13.01,138.9c0.22,2.35-1.45,4.45-3.78,4.77l-69.33,9.47C706.06,3571.6,702.57,3571.84,699.08,3571.84
		L699.08,3571.84z"/>
	<path class="st1" d="M601.18,3305.41c-2.51-21.02,9.74-41.01,15.52-64.28c8.12-32.26,16.16-52.14,23.74-54.26
		c17.44-4.69,4.53,46.97,6.9,92.26"/>
	<g>
		<path class="st4" d="M601.18,3309.81c-2.23,0-4.1-1.67-4.36-3.88c-1.8-15.01,3.23-29,8.54-43.82c2.73-7.22,5.09-14.58,7.07-22.04
			c11.98-47.62,20.63-55.71,26.83-57.44c3.16-1.05,6.63-0.44,9.24,1.64c6.83,5.59,6.23,19.94,4.48,46.94
			c-0.97,14.87-2.06,31.73-1.23,47.68c0.13,2.43-1.74,4.5-4.16,4.62c0,0,0,0,0,0c-2.42,0.1-4.47-1.75-4.62-4.16
			c-0.86-16.47,0.25-33.6,1.23-48.71c1.06-16.3,2.38-36.57-1.27-39.57c-0.26-0.21-1.02-0.04-1.33,0.04
			c-1.36,0.38-8.95,4.68-20.62,51.09c-2.05,7.74-4.5,15.38-7.32,22.88c-4.96,13.81-9.64,26.86-8.08,39.8
			c0.29,2.41-1.43,4.6-3.84,4.89c0,0,0,0,0,0C601.54,3309.8,601.36,3309.81,601.18,3309.81L601.18,3309.81z"/>
		<path class="st4" d="M649.47,3335.5c-2.43,0-4.4-1.97-4.4-4.4c0-4.31-1.25-29.49-2.34-50.95c-0.15-2.43,1.69-4.51,4.11-4.67
			c2.42-0.15,4.51,1.69,4.67,4.11c0,0.04,0,0.08,0.01,0.11c1.16,22.9,2.35,46.93,2.35,51.4
			C653.86,3333.53,651.9,3335.5,649.47,3335.5z M855.98,3332.26c0,4.88,0,19.61,10.62,19.2s15.56-15.4,15.56-15.4L855.98,3332.26z
			 M861.23,3329.02c-1.29,0-2.51-0.56-3.34-1.54l-10.12-11.82c-1.55-1.81-1.38-4.52,0.39-6.12l20.4-18.51
			c1.83-1.6,4.61-1.42,6.21,0.41c1.56,1.78,1.43,4.48-0.3,6.11l-17.24,15.64l7.33,8.57c1.58,1.85,1.36,4.62-0.48,6.2
			c-0.8,0.68-1.81,1.06-2.86,1.06H861.23z"/>
		<ellipse class="st4" cx="888.85" cy="3306.33" rx="3.04" ry="3.03"/>
		<ellipse class="st4" cx="856.61" cy="3295.87" rx="3.04" ry="3.03"/>
	</g>
	<path class="st2" d="M928.89,3302.51c-7.32-5.22-13.21-12.2-17.14-20.29l-21.76-36.76l-23.05,12.91
		c7.33-12.6,18.88-22.19,32.61-27.07c32.17-11.47,67.55,5.31,79.02,37.48c4.27,11.98,4.75,24.98,1.36,37.24"/>
	<path class="st4" d="M979.93,3310.41c-2.43,0-4.4-1.97-4.4-4.4c0-0.4,0.05-0.79,0.16-1.18c8.44-30.58-9.51-62.22-40.09-70.66
		c-15.66-4.32-32.43-1.81-46.13,6.92c1.73-0.21,3.43,0.63,4.32,2.13l21.76,36.76c0.06,0.1,0.12,0.21,0.17,0.32
		c3.61,7.42,9.02,13.82,15.74,18.62c1.98,1.41,2.44,4.16,1.02,6.14s-4.16,2.44-6.14,1.02c-7.86-5.62-14.2-13.1-18.46-21.78
		l-19.48-32.92l-19.3,10.81c-2.12,1.19-4.8,0.43-5.99-1.69c-0.76-1.36-0.75-3.02,0.04-4.36c18.44-31.59,59-42.25,90.59-23.81
		c25.96,15.15,38.46,45.88,30.45,74.84C983.64,3309.09,981.91,3310.41,979.93,3310.41z"/>
	<path class="st1" d="M928.82,3302.61c8.09-12.24,24.58-15.6,36.82-7.51c12.24,8.09,15.6,24.58,7.51,36.82
		c-2.95,4.46-7.17,7.92-12.12,9.94"/>
	<path class="st4" d="M961.03,3346.27c-2.43,0-4.4-1.97-4.4-4.4c0-1.79,1.08-3.4,2.74-4.08c1.38-0.56,2.69-1.26,3.93-2.09
		c10.19-6.79,12.95-20.56,6.16-30.75c-6.79-10.19-20.56-12.95-30.75-6.16c-2.46,1.64-4.57,3.76-6.2,6.23
		c-1.37,2.01-4.11,2.52-6.11,1.15c-1.96-1.34-2.51-3.99-1.23-5.99c9.42-14.28,28.64-18.21,42.91-8.79
		c14.28,9.42,18.22,28.64,8.79,42.91c-2.28,3.46-5.23,6.42-8.68,8.72c-1.73,1.15-3.56,2.12-5.48,2.91
		C962.17,3346.16,961.6,3346.27,961.03,3346.27L961.03,3346.27z"/>
	<path class="st2" d="M1039.78,3385.45c49.49,8.85,82.44,56.15,73.59,105.64s-56.15,82.44-105.64,73.59
		c-49.49-8.85-82.44-56.15-73.59-105.64c4.69-26.22,20.63-49.08,43.62-62.54"/>
	<path class="st4" d="M1023.76,3570.52c-52.72-0.01-95.44-42.75-95.44-95.46c0-33.89,17.97-65.23,47.22-82.35
		c2.1-1.23,4.79-0.53,6.02,1.57c1.23,2.1,0.53,4.79-1.57,6.02l0,0c-41.29,24.17-55.17,77.25-31,118.54
		c24.17,41.3,77.25,55.17,118.54,31c41.29-24.17,55.17-77.25,31-118.54c-12.81-21.88-34.56-37.05-59.52-41.52
		c-2.4-0.39-4.02-2.65-3.63-5.05c0.39-2.4,2.65-4.02,5.05-3.63c0.04,0.01,0.08,0.01,0.12,0.02c51.89,9.28,86.44,58.86,77.16,110.76
		C1109.57,3537.38,1069.99,3570.51,1023.76,3570.52z"/>
</g>
<g transform="translate(235.0 98.0) rotate(0.0 213.5 288.0) scale(0.6672406707409497 0.66683723498719)">
	<path class="st6" d="M590.32,3629.97l-9.36,13.12c-18.8,26.39-24.36,59.97-15.09,91.02l-106.02,228.92l-57.44,74.5L299.94,4162.7
		l191.21,95l168.45-196.32c7.42-8.65,13.41-18.44,17.74-28.98l46.96-114.37l24.11,53.97l-23.46,243.61l236.47,22.83l26.53-274.8
		c1.98-20.47-1.39-41.1-9.78-59.88l-137.98-273.58v-0.21L590.32,3629.97z"/>
	<path class="st4" d="M491.16,4262.1c-0.68,0-1.35-0.16-1.96-0.46l-191.21-95c-2.18-1.08-3.06-3.72-1.98-5.9
		c0.15-0.3,0.33-0.57,0.54-0.83l102.48-125.17l57.06-74.01l105.12-226.97c-9.12-31.91-3.16-66.24,16.19-93.22l9.36-13.13
		c0.83-1.16,2.16-1.85,3.58-1.85h249.87c2,0,3.74,1.34,4.25,3.27l137.65,272.94c0.03,0.06,0.06,0.12,0.09,0.19
		c8.69,19.47,12.18,40.87,10.14,62.09l-26.53,274.8c-0.23,2.42-2.38,4.19-4.8,3.96c0,0,0,0,0,0l-236.47-22.83
		c-2.42-0.23-4.19-2.38-3.96-4.8c0,0,0,0,0,0l23.35-242.45l-19.45-43.53l-43.06,104.87c-4.51,10.98-10.75,21.16-18.48,30.17
		L494.5,4260.56C493.66,4261.53,492.44,4262.1,491.16,4262.1z M306.85,4161.21l183.2,91.02l166.22-193.72
		c7.11-8.3,12.86-17.68,17.01-27.79l46.96-114.37c0.67-1.63,2.24-2.7,4-2.73h0.07c1.74,0,3.31,1.02,4.02,2.6l24.11,53.97
		c0.31,0.69,0.44,1.46,0.36,2.22l-23.05,239.24l227.71,21.99l26.1-270.42c1.89-19.68-1.34-39.51-9.38-57.57l-136.82-271.28H592.59
		l-8.04,11.28c-18.1,25.25-23.44,57.47-14.45,87.21c0.31,1.03,0.23,2.13-0.22,3.11l-106.03,228.92c-0.14,0.3-0.31,0.58-0.51,0.84
		l-57.44,74.5L306.85,4161.21z"/>
	<path class="st4" d="M755.84,4191.34c-10.76,0.03-21.24-3.42-29.88-9.85c-1.95-1.45-2.36-4.2-0.92-6.15
		c1.45-1.95,4.2-2.36,6.15-0.92c18.41,13.59,44.35,9.69,57.95-8.72s9.69-44.35-8.72-57.95c-12.3-9.08-28.6-10.65-42.41-4.08
		c-2.2,1.04-4.82,0.09-5.85-2.1c-1.03-2.18-0.11-4.79,2.07-5.84c6.75-3.23,14.14-4.9,21.62-4.88c27.75,0,50.24,22.49,50.24,50.24
		S783.59,4191.34,755.84,4191.34L755.84,4191.34z M947.43,3914.21c-27.75,0-50.24-22.51-50.24-50.26
		c0-22.81,15.37-42.75,37.42-48.58c2.37-0.56,4.73,0.91,5.29,3.27c0.54,2.28-0.8,4.57-3.05,5.23
		c-22.13,5.85-35.34,28.53-29.49,50.66c4.8,18.19,21.25,30.86,40.07,30.87c9.44,0.04,18.6-3.18,25.94-9.12
		c1.89-1.52,4.66-1.22,6.19,0.67c1.52,1.89,1.22,4.66-0.67,6.19C969.96,3910.29,958.87,3914.19,947.43,3914.21L947.43,3914.21z
		 M887.59,3728.56c-0.38,0-0.76-0.05-1.13-0.15c-26.83-7.16-42.78-34.72-35.62-61.55c0.5-1.86,1.1-3.69,1.81-5.48
		c0.89-2.26,3.45-3.37,5.71-2.47c2.26,0.89,3.37,3.45,2.47,5.71c-8.4,21.32,2.07,45.41,23.38,53.81c1.47,0.58,2.98,1.08,4.5,1.48
		c2.35,0.62,3.75,3.03,3.13,5.38C891.33,3727.22,889.59,3728.56,887.59,3728.56L887.59,3728.56z"/>
	<path class="st3" d="M917.73,4234.22c-3.46,27.53,22.88,64.5,59.61,76.96c20.19,6.86,40.36,13.8,60.51,20.81
		c29.42,10.27,46.47,27.41,43.99,56.03H765.36l-0.47-168.36L917.73,4234.22z"/>
	<path class="st4" d="M1081.84,4392.42H765.36c-2.43,0-4.39-1.96-4.4-4.39l-0.47-168.36c-0.01-2.43,1.95-4.41,4.38-4.42
		c0.15,0,0.29,0.01,0.44,0.02l152.84,14.56c2.42,0.23,4.19,2.38,3.96,4.8c0,0.04-0.01,0.09-0.01,0.13
		c-3.01,24.01,20.58,60.01,56.66,72.24c20.21,6.87,40.39,13.81,60.54,20.82c34.07,11.89,49.42,31.7,46.93,60.57
		C1086.03,4390.67,1084.12,4392.42,1081.84,4392.42z M769.75,4383.62h307.92c0.41-22.4-12.81-37.55-41.27-47.48
		c-20.13-7-40.29-13.94-60.47-20.8c-35.41-12-63.6-47.15-62.9-77.15L769.3,4224.5L769.75,4383.62z"/>
	<path class="st3" d="M442.51,4233.53c-2.12,27.78,17.69,56.15,59.64,73.25l60.51,25.21c27.83,7.1,46.44,27.42,43.99,56.03
		l-210.31,1.21l-153.72-72.92l70.63-147L442.51,4233.53z"/>
	<g>
		<path class="st4" d="M396.34,4393.64c-0.65,0-1.3-0.15-1.89-0.42l-153.72-72.93c-2.19-1.04-3.12-3.67-2.08-5.86
			c0-0.01,0.01-0.01,0.01-0.02l70.62-147c1.05-2.19,3.68-3.11,5.87-2.06c0.02,0.01,0.04,0.02,0.05,0.03l129.26,64.22
			c1.6,0.8,2.56,2.49,2.43,4.27c-2.12,27.72,19.16,53.45,56.92,68.84l60.25,25.1c31.48,8.16,49.47,31.35,46.98,60.59
			c-0.19,2.27-2.08,4.01-4.36,4.03l-210.31,1.21L396.34,4393.64z M248.5,4314.23l148.82,70.6l205.15-1.19
			c0.28-23.16-14.75-40.72-40.89-47.4c-0.21-0.05-0.41-0.12-0.6-0.2l-60.51-25.21c-40.14-16.36-63.27-44.1-62.49-74.65
			l-122.69-60.95L248.5,4314.23z M541.58,4203.34c-0.33,0-0.66-0.04-0.98-0.11c-27.06-6.16-44-33.09-37.83-60.15
			c6.16-27.06,33.09-44,60.15-37.83c15.76,3.59,28.83,14.54,35.12,29.43c0.96,2.23-0.07,4.82-2.3,5.78s-4.82-0.07-5.78-2.3
			c-0.01-0.02-0.02-0.04-0.02-0.06c-8.91-21.09-33.23-30.96-54.32-22.04s-30.96,33.23-22.05,54.32
			c5.19,12.28,15.97,21.32,28.97,24.28c2.37,0.54,3.86,2.89,3.32,5.26C545.41,4201.92,543.63,4203.34,541.58,4203.34L541.58,4203.34
			z M345.79,4158.64c-12.01,0-23.62-4.3-32.73-12.12c-1.85-1.58-2.06-4.36-0.48-6.2s4.36-2.06,6.2-0.48c0,0,0.01,0.01,0.01,0.01
			c17.36,14.92,43.53,12.93,58.44-4.43c14.92-17.36,12.93-43.53-4.43-58.44c-0.5-0.43-1.01-0.85-1.53-1.25
			c-1.9-1.51-2.22-4.28-0.7-6.18c1.49-1.88,4.22-2.21,6.12-0.75c21.87,17.07,25.76,48.65,8.69,70.52
			C375.87,4151.51,361.26,4158.64,345.79,4158.64z M678.43,3911.43c-27.75,0-50.24-22.49-50.24-50.24s22.49-50.24,50.24-50.24
			c27.75,0,50.24,22.49,50.24,50.24C728.63,3888.93,706.16,3911.4,678.43,3911.43z M678.43,3819.75
			c-22.89,0-41.44,18.55-41.44,41.44c0,22.89,18.55,41.44,41.44,41.44c22.89,0,41.44-18.55,41.44-41.44
			C719.84,3838.31,701.3,3819.78,678.43,3819.75z M724.52,3921.96c-2.43,0-4.4-1.97-4.4-4.4c0-0.57,0.11-1.14,0.33-1.68l31.81-77.46
			c0.92-2.25,3.49-3.32,5.74-2.4s3.32,3.49,2.4,5.74l-31.81,77.46C727.91,3920.88,726.3,3921.96,724.52,3921.96L724.52,3921.96z
			 M928.09,4273.31c-2.43,0-4.4-1.97-4.4-4.4c0-1.5,0.76-2.89,2.02-3.7l75.54-48.6c12.5-8.03,29.14-4.43,37.19,8.05
			c0.46,0.71,0.89,1.46,1.28,2.22c6.81,13.21,1.62,29.44-11.58,36.25c-3.16,1.63-6.62,2.62-10.17,2.9l-89.53,7.26
			C928.33,4273.31,928.21,4273.31,928.09,4273.31L928.09,4273.31z M1015.78,4221.13c-3.47,0-6.86,1-9.78,2.88l-60.77,39.1
			l72.02-5.84c9.97-0.81,17.4-9.54,16.59-19.52c-0.19-2.38-0.86-4.71-1.95-6.83c-0.26-0.51-0.56-1.01-0.86-1.49
			C1027.7,4224.25,1021.95,4221.13,1015.78,4221.13L1015.78,4221.13z"/>
		<path class="st4" d="M543.88,4298.17c-2.71,0-5.41-0.41-8-1.22l-85.72-26.81c-2.32-0.73-3.61-3.19-2.88-5.51
			c0.48-1.55,1.78-2.7,3.38-3.01l88.22-16.8c14.6-2.78,28.69,6.8,31.47,21.4c0.16,0.85,0.28,1.72,0.36,2.57
			c1.35,14.81-9.55,27.91-24.36,29.26c0,0,0,0,0,0C545.52,4298.13,544.7,4298.17,543.88,4298.17L543.88,4298.17z M469.54,4266.98
			l68.96,21.57c9.56,2.98,19.72-2.35,22.7-11.91c0.71-2.28,0.96-4.67,0.75-7.05c-0.05-0.57-0.13-1.15-0.24-1.72
			c-1.87-9.83-11.35-16.27-21.18-14.4c0,0,0,0-0.01,0L469.54,4266.98z M572.02,4022.24c-16.18-0.02-31.37-7.82-40.83-20.96
			c-1.44-1.96-1.02-4.71,0.94-6.15c1.96-1.44,4.71-1.02,6.15,0.94c0.02,0.02,0.04,0.05,0.05,0.07c13.34,18.6,39.23,22.87,57.83,9.53
			c18.6-13.34,22.87-39.23,9.53-57.83c-7.78-10.85-20.32-17.29-33.68-17.29c-2.43,0-4.4-1.97-4.4-4.4s1.97-4.4,4.4-4.4
			c27.75,0,50.24,22.49,50.24,50.24C622.26,3999.74,599.77,4022.24,572.02,4022.24L572.02,4022.24L572.02,4022.24z M760.42,3999.96
			c-1.66,0-3.18-0.93-3.93-2.41l-11.95-23.57c-1.1-2.17-0.23-4.82,1.93-5.91c2.17-1.1,4.82-0.23,5.91,1.93l11.95,23.57
			c1.1,2.17,0.23,4.81-1.93,5.91C761.79,3999.8,761.11,3999.96,760.42,3999.96L760.42,3999.96z M909.25,4125.24
			c-27.75,0-50.24-22.49-50.24-50.24s22.49-50.24,50.24-50.24c27.75,0,50.24,22.49,50.24,50.24
			C959.46,4102.74,936.98,4125.21,909.25,4125.24z M909.25,4033.56c-22.89,0-41.44,18.55-41.44,41.44
			c0,22.89,18.55,41.44,41.44,41.44s41.44-18.55,41.44-41.44C950.66,4052.13,932.12,4033.59,909.25,4033.56z M818.11,3985.46
			c-27.75,0-50.24-22.49-50.24-50.24s22.49-50.24,50.24-50.24c27.75,0,50.24,22.49,50.24,50.24
			C868.32,3962.95,845.84,3985.43,818.11,3985.46z M818.11,3893.78c-22.89,0-41.44,18.55-41.44,41.44
			c0,22.89,18.55,41.44,41.44,41.44s41.44-18.55,41.44-41.44C859.52,3912.34,840.98,3893.8,818.11,3893.78z M806.29,3825.66
			c-27.75,0-50.24-22.49-50.24-50.24c0-27.75,22.49-50.24,50.24-50.24c27.75,0,50.24,22.49,50.24,50.24
			C856.5,3803.15,834.02,3825.63,806.29,3825.66z M806.29,3733.98c-22.89,0-41.44,18.55-41.44,41.44
			c0,22.89,18.55,41.44,41.44,41.44c22.89,0,41.44-18.55,41.44-41.44C847.7,3752.54,829.16,3734,806.29,3733.98z M651.02,3762.25
			c-27.75,0-50.24-22.49-50.24-50.24c0-27.75,22.49-50.24,50.24-50.24c27.75,0,50.24,22.49,50.24,50.24
			C701.23,3739.74,678.75,3762.22,651.02,3762.25z M651.02,3670.57c-22.89,0-41.44,18.55-41.44,41.44
			c0,22.89,18.55,41.44,41.44,41.44c22.89,0,41.44-18.55,41.44-41.44C692.43,3689.13,673.89,3670.59,651.02,3670.57z"/>
	</g>
	<path class="st2" d="M1166.35,3339.08c-0.88-0.98-20.2,22.14-38.49,20.46c-22.5-2.06-44.91-30.4-47.45-50.63
		c-1.8-14.33-3.61-27.76-3.16-41.94c-9.09,4.2-17.22,10.21-23.88,17.68l-105.5,117.76c0,0-150.22-17.94-150.65-18.01
		c-5.53-0.84-14.47-0.67-19.3-0.65c-5.87,0.03-23.45-0.06-23.45-0.06c0.1,2.92-11.36,47.31-62.06,50.08
		c-36.22,1.98-62.42-31.11-63.14-49.65c0-0.15,0.01-0.28,0.02-0.43H607.3c-5.59,0.24-11.14,0.96-16.61,2.13
		c-28.99,4.92-51.24,25.78-60.65,40.5l-112.76,179.86c-9.9,15.77-13.42,34.72-9.84,53l43.32,221.92c1.73,8.88,5.09,17.36,9.91,25.01
		c1.8-9.27,7-17.15,9.23-26.62c1.35-5.73,0.76-11.77,1.52-17.6c0.77-5.67,2.68-11.12,5.62-16.02c4.35-7.44,10.27-14.82,17.43-19.71
		c8.29-5.65,17.36-4.24,26.75-5.53c17.71-2.43,34.96,2.25,47.66,15.28c12.57,13.18,18.58,31.29,16.41,49.37
		c-1.83,15.49-9.05,28.86-18.71,40.53c22.57-16.86,33.48-45.16,28.08-72.81l-37.75-193.47l30.54-48.72l2.91,14.91h249.3l3.44-87.67
		l121.16,15.49c3.83,0.62,7.7,0.93,11.59,0.92c20.81-0.03,40.64-8.9,54.52-24.4c0,0,113.1-104.74,134.64-150.37
		C1169.35,3370.52,1172.29,3345.76,1166.35,3339.08L1166.35,3339.08z"/>
	<path class="st4" d="M843.2,3538.6c-2.43,0-4.4-1.97-4.4-4.4v-53.04c0-2.43,1.97-4.4,4.4-4.4c2.43,0,4.4,1.97,4.4,4.4v53.04
		C847.6,3536.63,845.63,3538.6,843.2,3538.6z M587.47,3612.3c-2.43,0-4.4-1.97-4.4-4.4c0-0.83,0.23-1.63,0.67-2.33l33.05-52.72
		c1.29-2.06,4.01-2.68,6.06-1.39c2.06,1.29,2.68,4.01,1.39,6.06l0,0l-33.05,52.72C590.4,3611.52,588.99,3612.3,587.47,3612.3
		L587.47,3612.3z"/>
	<path class="st1" d="M584,3870.03c1.88,10.61,0.66,21.53-3.52,31.46c-8.23,19.59-22.38,52.62-31.9,73.32
		c-17.42,38.03-91.98,128.14-112.77,108.61c-12.61-11.83,11.51-31.46,45.21-77.43c-36.96,35.44-66.62,58.81-78.13,45.11
		s26.04-49.27,54.74-76.43c-26.03,8.8-60.87,21.88-67.99,9.99c-10.27-17.16,19.06-29.58,37.54-39.79
		c41.06-22.61,35.2-44.74,40.53-73.95c2.41-13.2,10.38-27.33,22.76-38.64c9.69-8.73,22.16-13.76,35.2-14.18
		c27.98-1.06,52.44,18.68,57.31,46.25L584,3870.03z"/>
	<path class="st4" d="M443.21,4090.55c-3.85,0.1-7.59-1.31-10.41-3.93c-11.17-10.49-1.83-24.02,15.28-45.49
		c-16.86,13.22-28.5,18.77-37.33,18.31c-4.36-0.14-8.45-2.15-11.22-5.51c-11.49-13.67,9.18-38.04,40.77-68.75
		c-24.47,8.05-47.24,13.71-54.41,1.73c-2.63-4.07-3.41-9.07-2.13-13.75c3.35-12,19.8-20.71,34.31-28.39
		c2.44-1.29,4.8-2.54,7.01-3.76c31.65-17.43,33.54-33.36,36.15-55.4c0.59-4.95,1.19-10.07,2.18-15.49
		c2.65-14.54,11.44-29.52,24.12-41.1c10.47-9.43,23.93-14.86,38.02-15.33c30.13-1.03,56.44,20.22,61.79,49.88l1.01,5.69
		c2.03,11.44,0.72,23.22-3.8,33.93c-7.11,16.93-21.84,51.45-31.95,73.46c-14.99,32.72-74.4,107.44-105.2,113.48
		C446.01,4090.4,444.61,4090.54,443.21,4090.55L443.21,4090.55z M481.02,4001.59c2.43,0,4.4,1.97,4.4,4.4c0,0.94-0.3,1.85-0.85,2.6
		c-9.33,12.72-17.74,23.22-25.18,32.49c-18.54,23.12-26.49,33.57-20.57,39.13c0.99,0.93,2.79,2.08,6.86,1.28
		c25.41-4.99,83.31-74.47,98.9-108.51c10.07-21.91,24.75-56.31,31.84-73.19c3.85-9.15,4.98-19.21,3.24-28.98l-1.01-5.69
		c-4.57-25.36-27.06-43.51-52.81-42.63c-12,0.39-23.48,5.02-32.41,13.05c-11.27,10.29-19.06,23.48-21.38,36.16
		c-0.94,5.15-1.53,10.13-2.1,14.95c-2.7,22.79-5.03,42.46-40.64,62.07c-2.25,1.24-4.66,2.52-7.15,3.83
		c-12.3,6.51-27.61,14.62-29.95,22.98c-0.61,2.35-0.17,4.86,1.21,6.86c0.83,1.39,4.38,4.29,19.39,1.32
		c11.24-2.23,25.11-6.97,37.35-11.15c2.06-0.7,4.09-1.4,6.07-2.06c2.3-0.78,4.8,0.46,5.58,2.76c0.55,1.62,0.1,3.42-1.14,4.6
		c-14.38,13.61-30.68,29.04-42.08,42.87c-15.28,18.54-14.28,25.21-12.32,27.54c1.22,1.49,3.03,2.36,4.96,2.39
		c14.3,0.78,44.96-26.93,66.77-47.84C478.81,4002.03,479.89,4001.59,481.02,4001.59L481.02,4001.59z"/>
	<path class="st1" d="M735.85,3223.18c16-3.69,31.96,6.29,35.65,22.29c2.26,9.79-0.58,20.05-7.54,27.29l-31.34-23.9L735.85,3223.18z
		"/>
	<path class="st4" d="M763.96,3277.16c-0.96,0-1.9-0.32-2.67-0.9l-31.34-23.9c-1.25-0.95-1.89-2.49-1.7-4.05l3.23-25.68
		c0.23-1.83,1.58-3.32,3.37-3.74c18.37-4.23,36.69,7.22,40.92,25.59c2.59,11.23-0.67,23.02-8.66,31.32
		C766.29,3276.67,765.15,3277.16,763.96,3277.16z M737.31,3246.9l25.97,19.81c8.03-11.46,5.26-27.25-6.2-35.28
		c-4.26-2.99-9.34-4.59-14.54-4.59c-0.91,0-1.82,0.05-2.73,0.15L737.31,3246.9z"/>
	<path class="st2" d="M732.42,3375.79l23.46,7.91c0,25.22-28.42,50.08-63.48,50.08c-35.06,0-63.5-24.93-63.5-50.08l24.32-8.05"/>
	<path class="st4" d="M692.4,3438.17c-36.17,0-67.9-25.46-67.9-54.48c0-1.9,1.22-3.58,3.02-4.18l24.32-8.04
		c2.31-0.76,4.8,0.49,5.56,2.8c0.76,2.31-0.49,4.8-2.8,5.56l-21.13,6.99c2.27,20.7,26.72,42.56,58.93,42.56s56.65-21.87,58.91-42.58
		l-20.3-6.84c-2.3-0.78-3.54-3.27-2.76-5.57c0.78-2.3,3.27-3.54,5.57-2.76l23.46,7.91c1.79,0.6,2.99,2.28,2.99,4.16
		C760.28,3412.72,728.56,3438.17,692.4,3438.17z"/>
	<path class="st4" d="M621.8,3247.07c-8.79-31.03,9.24-63.31,40.27-72.1c20.92-5.93,43.4,0.26,58.34,16.06l-69.95,17.1l6.99,44.49"
		/>
	<path class="st4" d="M657.45,3257.02c-2.16,0-4.01-1.58-4.34-3.72l-6.99-44.49c-0.35-2.26,1.08-4.41,3.3-4.96l61.95-15.14
		c-23.44-18.43-57.38-14.38-75.81,9.06c-1.25,1.59-2.41,3.25-3.47,4.96c-7.97,12.9-10.16,28.55-6.04,43.14
		c0.66,2.34-0.7,4.77-3.04,5.43c-2.34,0.66-4.77-0.7-5.43-3.04c-9.45-33.37,9.94-68.08,43.31-77.53
		c22.49-6.37,46.66,0.28,62.73,17.27c1.67,1.77,1.59,4.55-0.17,6.22c-0.56,0.53-1.24,0.9-1.98,1.08l-66.02,16.14l6.36,40.49
		c0.38,2.4-1.26,4.65-3.66,5.03c0,0,0,0,0,0C657.9,3257,657.67,3257.02,657.45,3257.02z"/>
	<path class="st1" d="M657.46,3252.62c-12.87-12.08-33.11-11.44-45.19,1.44c-12.08,12.87-11.44,33.11,1.44,45.19
		c10.24,9.61,25.56,11.41,37.75,4.44l0.06,0.11l1.62,70.24c0.55,21.52,18.15,38.68,39.68,38.68h0.06
		c21.92-0.03,39.67-17.83,39.64-39.76v-35.1c28.99-14.13,41.03-49.09,26.9-78.08c-5.06-10.38-13.09-19.03-23.06-24.85
		c0.27-4.68-0.02-9.38-0.88-13.99v-0.04c-1.99-11.22-7.24-21.6-15.08-29.87l-69.89,16.76L657.46,3252.62z"/>
	<path class="st4" d="M692.89,3417.12c-23.99,0.16-43.65-18.99-44.14-42.97l-1.47-63.78c-19.02,6.45-39.67-3.74-46.12-22.76
		c-6.45-19.02,3.74-39.67,22.76-46.12c9.08-3.08,19.01-2.45,27.63,1.76l-5.4-34.77c-0.35-2.26,1.09-4.42,3.32-4.95l69.89-16.76
		c1.53-0.37,3.14,0.11,4.22,1.25c8.43,8.89,14.07,20.05,16.22,32.12v0.02c0.75,4.08,1.1,8.23,1.04,12.38
		c17.95,11.58,28.82,31.47,28.88,52.84c0.1,23.04-12.52,44.26-32.8,55.18v32.41C736.95,3397.3,717.24,3417.07,692.89,3417.12
		L692.89,3417.12z M651.46,3299.28c1.59,0,3.05,0.85,3.83,2.23c0.38,0.67,0.6,1.41,0.64,2.18l1.62,70.24
		c0.53,19.49,16.76,34.85,36.25,34.32c19.11-0.52,34.33-16.16,34.33-35.28v-35.1c0-1.68,0.96-3.22,2.47-3.96
		c18.62-8.99,30.42-27.87,30.34-48.54c-0.05-19.19-10.24-36.92-26.79-46.63c-1.43-0.84-2.27-2.4-2.17-4.05
		c0.25-4.33-0.02-8.67-0.81-12.93l-0.01-0.07c-1.69-9.53-5.93-18.43-12.26-25.76l-63.42,15.21l6.33,40.81
		c0.37,2.4-1.27,4.65-3.67,5.02c-1.34,0.21-2.7-0.21-3.68-1.14c-11.1-10.42-28.55-9.86-38.97,1.24
		c-10.42,11.1-9.86,28.55,1.24,38.97c8.83,8.29,22.04,9.84,32.55,3.83C649.93,3299.48,650.69,3299.28,651.46,3299.28z"/>
	<path class="st4" d="M708.02,3261.77c-2.43,0-4.4-1.97-4.4-4.4c0-1.98,1.33-3.72,3.24-4.25l10.59-2.91l-11.71-21.13
		c-1.18-2.12-0.41-4.8,1.72-5.98s4.8-0.41,5.98,1.72l14.43,26.03c1.18,2.12,0.41,4.8-1.71,5.98c-0.31,0.17-0.63,0.3-0.97,0.4
		l-15.98,4.38C708.81,3261.72,708.41,3261.77,708.02,3261.77L708.02,3261.77z"/>
	<ellipse class="st4" cx="686.61" cy="3237.47" rx="4.11" ry="4.11"/>
	<ellipse class="st4" cx="729.52" cy="3230.05" rx="4.11" ry="4.11"/>
	<path class="st4" d="M706.79,3348.19c-9.29,0-18.46-2.09-26.84-6.11c-2.19-1.05-3.13-3.67-2.08-5.87c1.05-2.19,3.67-3.13,5.87-2.08
		c10.16,4.87,21.61,6.41,32.69,4.38c4.88-0.87,9.61-2.41,14.08-4.56c2.15-1.13,4.81-0.31,5.94,1.84s0.31,4.81-1.84,5.94
		c-0.09,0.05-0.18,0.09-0.28,0.13C725.73,3346.02,716.32,3348.17,706.79,3348.19L706.79,3348.19z M740.66,3273.06
		c3.87,27.23-26.4,29.68-31.95,4.77L740.66,3273.06z M633.41,3288.48c-2.43,0-4.4-1.97-4.4-4.4c0-1.34,0.61-2.61,1.66-3.45
		l7.93-6.31l-18.29-0.91c-2.42-0.15-4.27-2.24-4.11-4.67c0.15-2.38,2.17-4.21,4.55-4.12l29.93,1.5c2.43,0.12,4.3,2.19,4.17,4.61
		c-0.06,1.26-0.67,2.44-1.66,3.22l-17.06,13.56C635.37,3288.14,634.4,3288.48,633.41,3288.48z"/>
	<path class="st1" d="M1150.68,3213.81c-0.67-26.06,7.28-80.8-13.31-80.8c-10.27,0-10.27,29.33-8.8,51.33
		c-1.47-24.93,4.4-52.79-9.41-53c-22.88-0.35-37.94,87.42-40.65,123.84c-0.48,6.69-1.47,22.86-1.47,22.86s-1.47,40.12,15.1,60.13
		c14.14,16.98,27.42,20.06,27.42,20.06c28.92,7.33,56.68-16.97,52.25-46.47c-0.25-1.65-0.6-3.29-1.06-4.9
		c-3.69-12.73-7.27-22.78-10.43-33.58"/>
	<path class="st4" d="M1130,3363.93c-3.88,0-7.75-0.48-11.52-1.44c-0.51-0.12-14.81-3.6-29.72-21.51
		c-17.44-21.06-16.18-61.39-16.12-63.1c0.02-0.27,1-16.38,1.48-23.02c2.19-25.81,6.51-51.4,12.9-76.51
		c9.16-34.78,19.65-51.58,32.21-51.41c3.16-0.02,6.2,1.25,8.41,3.52c0.67,0.7,1.27,1.48,1.77,2.31c0.31-0.39,0.59-0.69,0.82-0.94
		c1.82-2.04,4.41-3.21,7.14-3.23c3.89-0.03,7.62,1.56,10.29,4.38c9.76,10.14,8.74,36.82,7.84,60.35
		c-0.29,7.57-0.56,14.72-0.42,20.35c0.06,2.43-1.86,4.45-4.29,4.51c-2.43,0.06-4.45-1.86-4.51-4.29c-0.15-5.91,0.13-13.2,0.42-20.91
		c0.75-19.61,1.78-46.48-5.38-53.92c-1-1.12-2.45-1.73-3.95-1.69c-0.12,0-0.31,0-0.72,0.44c-0.83,0.89-2.67,3.82-3.69,12.73
		c0.09,4.03,0,8.46-0.11,13.2c-0.15,6.69-0.29,13.61,0.1,20.31c0.13,2.43-1.73,4.5-4.16,4.63c-2.4,0.13-4.45-1.69-4.63-4.08
		c-0.96-11.4-0.97-22.85-0.03-34.25c-0.17-6.45-0.85-11.73-2.86-13.82c-0.57-0.59-1.38-0.89-2.2-0.83h-0.06
		c-5.67,0-14.8,11.77-23.5,44.85c-6.26,24.58-10.48,49.64-12.63,74.92c-0.48,6.58-1.45,22.64-1.47,22.8
		c-0.01,0.28-1.19,38.59,14.1,57.05c12.86,15.45,24.93,18.56,25.05,18.59c12.4,3.16,25.56-0.12,35.03-8.74
		c9.28-8.2,13.74-20.57,11.85-32.8c-0.23-1.47-0.54-2.93-0.94-4.36c-1.93-6.67-3.85-12.63-5.7-18.39
		c-1.66-5.16-3.23-10.03-4.72-15.14c-0.73-2.32,0.55-4.79,2.87-5.52s4.79,0.55,5.52,2.87c0.02,0.06,0.04,0.12,0.05,0.19
		c1.47,5.01,3.01,9.83,4.65,14.92c1.87,5.82,3.81,11.84,5.79,18.67c0.5,1.79,0.89,3.61,1.17,5.46c2.25,15.15-3.25,30.42-14.65,40.65
		C1152.89,3359.56,1141.66,3363.91,1130,3363.93L1130,3363.93z"/>
	<path class="st4" d="M1160.32,3277.67c-2.23,0-4.11-1.68-4.37-3.9c-0.04-0.35-4.11-35.37-9-56.04c-1.12-4.76-3.69-7.39-7.23-7.41
		h-0.04c-4.37,0-9.83,4.17-11.8,12.15c-1.42,5.7-4.46,35-5.51,45.81c-0.24,2.42-2.39,4.19-4.8,3.95c-2.42-0.24-4.19-2.39-3.95-4.8
		c0.39-4.04,3.9-39.72,5.73-47.07c2.74-11.1,11.1-18.84,20.33-18.84h0.08c7.66,0.04,13.69,5.47,15.75,14.18
		c5.02,21.17,9.01,55.6,9.17,57.06c0.28,2.41-1.45,4.6-3.87,4.87c0,0,0,0,0,0C1160.66,3277.66,1160.49,3277.67,1160.32,3277.67
		L1160.32,3277.67z"/>
</g>
<g transform="translate(1161.0 454.0) rotate(8.723380641682962 29.0 110.5) scale(0.6716383343369309 0.6722965162263784)">
	<g>
		<path class="st4" d="M1465.44,3654.64c-2.37,0-4.32-1.88-4.4-4.24l-16.75-473.26c-0.06-2.43,1.86-4.45,4.29-4.52
			c2.4-0.06,4.41,1.81,4.51,4.2l16.75,473.26c0.09,2.43-1.81,4.47-4.24,4.55c0,0,0,0,0,0L1465.44,3654.64z"/>
		<path class="st4" d="M1450.99,3247.34c-1.48,0-2.86-0.74-3.67-1.98l-28.13-42.72c-1.34-2.03-0.77-4.76,1.26-6.09
			c2.03-1.34,4.76-0.77,6.09,1.26l24.15,36.68l21.53-38.36c1.16-2.13,3.83-2.92,5.97-1.76s2.92,3.83,1.76,5.97
			c-0.02,0.03-0.04,0.07-0.06,0.1l-25.07,44.67c-0.75,1.34-2.15,2.19-3.68,2.24L1450.99,3247.34z"/>
		<path class="st4" d="M1452.53,3291.62c-1.49,0-2.87-0.75-3.68-2l-40.64-62.32c-1.34-2.03-0.77-4.76,1.26-6.09
			c2.03-1.34,4.76-0.77,6.09,1.26c0.01,0.01,0.01,0.02,0.02,0.03l36.66,56.21l32.69-58.73c1.11-2.16,3.77-3.01,5.93-1.9
			s3.01,3.77,1.9,5.93c-0.04,0.08-0.09,0.17-0.14,0.25l-36.24,65.11c-0.75,1.35-2.15,2.2-3.69,2.26L1452.53,3291.62z"/>
		<path class="st4" d="M1454.38,3342.2c-1.48,0-2.86-0.74-3.67-1.98l-52.73-80.06c-1.3-2.05-0.7-4.77,1.35-6.07
			c2-1.27,4.65-0.73,5.99,1.23l48.75,74.03l43.41-77.33c1.16-2.13,3.83-2.92,5.97-1.76c2.13,1.16,2.92,3.83,1.76,5.97
			c-0.02,0.03-0.04,0.07-0.06,0.1l-46.94,83.63c-0.75,1.34-2.15,2.19-3.68,2.24L1454.38,3342.2z"/>
		<path class="st4" d="M1456.07,3390.94c-1.48,0-2.85-0.75-3.67-1.98l-62.3-94.53c-1.37-2.01-0.85-4.74,1.15-6.11
			c2.01-1.37,4.74-0.85,6.11,1.15c0.03,0.04,0.05,0.08,0.08,0.12l58.33,88.5l52-92.46c1.19-2.12,3.87-2.87,5.99-1.68
			c2.12,1.19,2.87,3.87,1.68,5.99l-55.54,98.75c-0.75,1.34-2.15,2.19-3.68,2.24C1456.17,3390.94,1456.12,3390.94,1456.07,3390.94
			L1456.07,3390.94z"/>
	</g>
</g>
<g transform="translate(48.0 668.0) rotate(0.0 586.5 4.5) scale(0.7212247909493359 0.7894736842105263)">
	<path class="st4" d="M2480.11,2990.89H103.84c-2.49,0-4.4-1.91-4.4-4.4c0-2.49,1.91-4.4,4.4-4.4h2376.27c2.49,0,4.4,1.91,4.4,4.4
		C2484.51,2988.98,2482.6,2990.89,2480.11,2990.89z"/>
</g>
<g transform="translate(397.0 81.0) rotate(0.0 15.5 15.5) translate(0.0 0.0) scale(0.4602411069540947 0.4600771742356783)">
	<g>
		<path class="st2" d="M1388.71,3476.49l9.93,32.85c1.73,5.71,6.2,10.17,11.92,11.9l32.85,9.95c2.14,0.65,3.35,2.91,2.71,5.05
			c-0.39,1.3-1.41,2.31-2.71,2.71l-32.85,9.95c-5.71,1.72-10.18,6.19-11.92,11.9l-9.93,32.85c-0.63,2.15-2.88,3.38-5.03,2.75
			c-1.32-0.39-2.36-1.42-2.74-2.75l-9.94-32.85c-1.72-5.71-6.19-10.18-11.9-11.9l-32.85-9.94c-2.14-0.65-3.35-2.91-2.71-5.05
			c0.39-1.3,1.41-2.31,2.71-2.71l32.85-9.95c5.71-1.72,10.18-6.19,11.9-11.9l9.94-32.85c0.63-2.15,2.88-3.38,5.03-2.74
			C1387.29,3474.14,1388.33,3475.17,1388.71,3476.49z"/>
	</g>
</g>
<g transform="translate(397.0 81.0) rotate(0.0 15.5 15.5) translate(0.0 0.0) scale(0.4602411069540947 0.4600771742356783)">
	<path class="st2" d="M86.75,237.12l9.93,32.85c1.73,5.71,6.2,10.17,11.92,11.9l32.85,9.94c2.14,0.65,3.35,2.91,2.71,5.05
		c-0.39,1.3-1.41,2.31-2.71,2.71l-32.85,9.94c-5.71,1.72-10.18,6.19-11.92,11.9l-9.93,32.85c-0.63,2.15-2.88,3.38-5.03,2.74
		c-1.32-0.39-2.36-1.42-2.74-2.74l-9.94-32.85c-1.72-5.71-6.19-10.18-11.9-11.9l-32.85-9.94c-2.14-0.65-3.35-2.91-2.71-5.05
		c0.39-1.3,1.41-2.31,2.71-2.71l32.85-9.94c5.71-1.72,10.18-6.19,11.9-11.9l9.94-32.85c0.63-2.15,2.88-3.38,5.03-2.74
		C85.32,234.77,86.36,235.8,86.75,237.12z"/>
</g>
<g transform="translate(397.0 81.0) rotate(0.0 15.5 15.5) translate(0.0 0.0) scale(0.4602411069540947 0.4600771742356783)">
	<path class="st6" d="M3003.54,4165.38l21.44,70.94c3.74,12.33,13.4,21.97,25.74,25.7l70.94,21.48c4.63,1.4,7.24,6.28,5.84,10.91
		c-0.85,2.8-3.04,5-5.84,5.84l-70.94,21.48c-12.33,3.73-21.99,13.37-25.74,25.7l-21.44,70.94c-1.36,4.64-6.22,7.29-10.86,5.93
		c-2.86-0.84-5.09-3.07-5.93-5.93l-21.48-70.94c-3.72-12.33-13.36-21.98-25.7-25.7l-70.94-21.48c-4.63-1.4-7.24-6.28-5.84-10.91
		c0.85-2.8,3.04-5,5.84-5.84l70.94-21.48c12.33-3.72,21.98-13.36,25.7-25.7l21.48-70.94c1.36-4.64,6.22-7.29,10.86-5.93
		C3000.47,4160.3,3002.7,4162.53,3003.54,4165.38z"/>
</g>
<g transform="translate(397.0 81.0) rotate(0.0 15.5 15.5) translate(0.0 0.0) scale(0.4602411069540947 0.4600771742356783)">
	<path class="st2" d="M3003.05,3149.43l9.17,30.34c1.6,5.27,5.73,9.4,11.01,10.99l30.34,9.19c1.98,0.6,3.1,2.69,2.5,4.66
		c-0.36,1.2-1.3,2.14-2.5,2.5l-30.34,9.19c-5.28,1.59-9.41,5.72-11.01,10.99l-9.17,30.34c-0.58,1.98-2.66,3.12-4.65,2.54
		c-1.22-0.36-2.18-1.31-2.54-2.54l-9.19-30.34c-1.59-5.27-5.72-9.4-10.99-10.99l-30.34-9.19c-1.98-0.6-3.1-2.69-2.5-4.66
		c0.36-1.2,1.3-2.14,2.5-2.5l30.34-9.19c5.27-1.59,9.4-5.72,10.99-10.99l9.19-30.34c0.58-1.98,2.66-3.12,4.64-2.54
		C3001.73,3147.25,3002.69,3148.21,3003.05,3149.43z"/>
</g>
<g transform="translate(397.0 81.0) rotate(0.0 15.5 15.5) translate(0.0 0.0) scale(0.4602411069540947 0.4600771742356783)">
	<g>
		<path class="st6" d="M-403.86,2791.44l31.44,104.04c5.49,18.08,19.65,32.22,37.74,37.69l104.04,31.5c6.78,2.05,10.62,9.21,8.57,16
			c-1.24,4.11-4.46,7.33-8.57,8.57l-104.04,31.5c-18.09,5.46-32.25,19.6-37.74,37.69l-31.44,104.04c-2,6.8-9.13,10.69-15.93,8.7
			c-4.19-1.23-7.46-4.51-8.69-8.7l-31.5-104.04c-5.45-18.09-19.6-32.24-37.69-37.69l-104.04-31.5c-6.78-2.05-10.62-9.21-8.57-16
			c1.24-4.11,4.46-7.33,8.57-8.57l104.04-31.5c18.09-5.45,32.24-19.6,37.69-37.69l31.5-104.04c2-6.8,9.13-10.69,15.93-8.7
			C-408.36,2783.98-405.09,2787.25-403.86,2791.44z"/>
	</g>
</g>
<g transform="translate(397.0 81.0) rotate(0.0 15.5 15.5) translate(0.0 0.0) scale(0.4602411069540947 0.4600771742356783)">
	<path class="st2" d="M-654.58,5066.02l9.93,32.85c1.73,5.71,6.2,10.17,11.92,11.9l32.85,9.94c2.14,0.65,3.35,2.91,2.71,5.05
		c-0.39,1.3-1.41,2.31-2.71,2.71l-32.85,9.94c-5.71,1.72-10.18,6.19-11.92,11.9l-9.93,32.85c-0.63,2.15-2.88,3.38-5.03,2.75
		c-1.32-0.39-2.36-1.42-2.74-2.75l-9.94-32.85c-1.72-5.71-6.19-10.18-11.9-11.9l-32.85-9.94c-2.14-0.65-3.35-2.91-2.71-5.05
		c0.39-1.3,1.41-2.31,2.71-2.71l32.85-9.94c5.71-1.72,10.18-6.19,11.9-11.9l9.94-32.85c0.63-2.15,2.88-3.38,5.03-2.75
		C-656.01,5063.66-654.97,5064.69-654.58,5066.02z"/>
</g>
<g transform="translate(300.0 190.0) rotate(0.0 11.5 11.5) translate(0.0 0.0) scale(0.34146920838529604 0.3413475808845355)">
	<path class="st6" d="M194.26,5281.71l23.67,78.33c4.13,13.61,14.8,24.26,28.41,28.37l78.33,23.72c5.11,1.54,8,6.94,6.45,12.04
		c-0.94,3.09-3.36,5.52-6.45,6.45l-78.33,23.72c-13.62,4.11-24.28,14.76-28.41,28.37l-23.67,78.33c-1.5,5.12-6.87,8.05-11.99,6.55
		c-3.15-0.93-5.62-3.39-6.55-6.55l-23.72-78.33c-4.1-13.62-14.76-24.27-28.37-28.37l-78.33-23.72c-5.11-1.54-8-6.94-6.45-12.04
		c0.94-3.09,3.36-5.52,6.45-6.45l78.33-23.72c13.62-4.1,24.27-14.76,28.37-28.37l23.72-78.33c1.5-5.12,6.87-8.05,11.99-6.55
		C190.87,5276.09,193.33,5278.56,194.26,5281.71z"/>
</g>
<g transform="translate(232.0 108.0) rotate(0.0 13.5 13.5) translate(0.0 0.0) scale(0.3680680516931131 0.36794766966475884)">
	<path class="st4" d="M549.87,4346.79l-0.01,0.02L549.87,4346.79z M552.57,4346.74l0.01,0.02L552.57,4346.74z"/>
</g>
</svg>
