<?xml version="1.0" encoding="utf-8"?>
<!-- Generator: Adobe Illustrator 26.1.0, SVG Export Plug-In . SVG Version: 6.00 Build 0)  -->
<svg version="1.1" id="Layer_1" xmlns="http://www.w3.org/2000/svg" xmlns:xlink="http://www.w3.org/1999/xlink" x="0px" y="0px"
	 viewBox="0 0 2000 2127.95" style="enable-background:new 0 0 2000 2127.95;" xml:space="preserve">
<style type="text/css">
	.st0{fill:#222433;}
	.st1{fill:#FFFFFF;}
	.st2{fill:#007575;}
	.st3{fill:#FDA979;}
	.st4{fill:#752F06;}
	.st5{fill:#15C2C1;}
	.st6{fill:#FF7F36;}
	.st7{fill:#0C0775;}
	.st8{fill:none;stroke:#222433;stroke-width:2.8346;stroke-miterlimit:10;stroke-dasharray:5.6693,5.6693;}
	.st9{fill:none;stroke:#FFFFFF;stroke-width:5.6693;stroke-miterlimit:10;stroke-dasharray:5.6693,5.6693;}
	.st10{fill:#C35515;}
	.st11{fill:none;stroke:#FFFFFF;stroke-width:2.8346;stroke-miterlimit:10;stroke-dasharray:5.6693,5.6693;}
	.st12{fill:#606060;}
	.st13{fill:#70D9D9;}
	.st14{fill:#222433;stroke:#FF7F36;stroke-width:2.5438;stroke-miterlimit:10;}
	.st15{fill:none;stroke:#FF7F36;stroke-width:55.2533;stroke-miterlimit:10;}
	.st16{fill:#222433;stroke:#FF7F36;stroke-width:2.2146;stroke-miterlimit:10;}
	.st17{fill:#222433;stroke:#FF7F36;stroke-width:2.6224;stroke-miterlimit:10;}
	.st18{fill:#2B292D;}
	.st19{fill:none;stroke:#FF7F36;stroke-width:6.974;stroke-miterlimit:10;}
	.st20{fill:none;stroke:#007575;stroke-width:3.0392;stroke-linecap:round;stroke-miterlimit:10;}
	.st21{fill:#FF7F36;stroke:#222433;stroke-miterlimit:10;}
	.st22{fill:#82B1FF;}
	.st23{fill:#222433;stroke:#FFFFFF;stroke-width:2.2146;stroke-miterlimit:10;}
	.st24{fill:none;stroke:#FF7F36;stroke-width:2.2146;stroke-linecap:round;stroke-miterlimit:10;}
	.st25{fill:none;stroke:#FFFFFF;stroke-miterlimit:10;}
	.st26{fill:#C35515;stroke:#222433;stroke-width:5.6693;stroke-miterlimit:10;}
	.st27{fill:none;stroke:#313341;stroke-width:1.2723;stroke-miterlimit:10;}
	.st28{fill:none;}
	.st29{fill:#222433;stroke:#FF7F36;stroke-width:2.9089;stroke-miterlimit:10;}
	.st30{fill:#222433;stroke:#FF7F36;stroke-width:2.287;stroke-miterlimit:10;}
	.st31{fill-rule:evenodd;clip-rule:evenodd;fill:#FF7F36;}
	.st32{fill:#222433;stroke:#FF7F36;stroke-width:2.0175;stroke-miterlimit:10;}
	.st33{fill:#FF7F36;stroke:#FF7F36;stroke-width:2.0175;stroke-miterlimit:10;}
	.st34{fill:#222433;stroke:#222433;stroke-width:0.474;stroke-miterlimit:10;}
	.st35{fill:#15C2C1;stroke:#15C2C1;stroke-miterlimit:10;}
	.st36{fill:#222433;stroke:#FF7F36;stroke-width:2.006;stroke-miterlimit:10;}
	.st37{fill:none;stroke:#FF7F36;stroke-width:2.9439;stroke-miterlimit:10;}
	.st38{fill:#222433;stroke:#FF7F36;stroke-width:2.9305;stroke-miterlimit:10;}
	.st39{fill:none;stroke:#C35515;stroke-width:5.6693;stroke-linecap:round;stroke-miterlimit:10;}
	.st40{fill:#222433;stroke:#007575;stroke-width:2.6235;stroke-miterlimit:10;}
	.st41{fill:#222433;stroke:#FF7F36;stroke-width:2.4344;stroke-miterlimit:10;}
	.st42{fill:#222433;stroke:#222433;stroke-width:2.6235;stroke-miterlimit:10;}
	.st43{fill:none;stroke:#C35515;stroke-width:7.2469;stroke-linecap:round;stroke-miterlimit:10;}
	.st44{fill:#FF7F36;stroke:#FF7F36;stroke-width:1.0653;stroke-miterlimit:10;}
	.st45{fill:none;stroke:#FF7F36;stroke-width:8.5928;stroke-miterlimit:10;}
	.st46{fill:none;stroke:#FF7F36;stroke-width:7.5694;stroke-miterlimit:10;}
	.st47{opacity:0.75;fill:#70D9D9;}
	.st48{fill:url(#SVGID_1_);}
	.st49{opacity:0.86;fill:none;stroke:#FFFFFF;stroke-width:2.2677;stroke-miterlimit:10;stroke-dasharray:11.3386,11.3386;}
	.st50{opacity:0.75;fill:#007575;}
	.st51{fill:url(#SVGID_00000020386007029332531970000008011166474667787142_);}
	.st52{fill:url(#SVGID_00000106127417348620989630000014734885735678165674_);}
</style>
<polygon class="st47" points="427.15,1664.42 345.6,1642.08 405.72,1582.62 465.85,1523.17 487.28,1604.97 508.7,1686.77 "/>
<polygon class="st47" points="1370.89,1270.55 1302.14,1319.79 1293.88,1235.63 1285.61,1151.48 1362.62,1186.4 1439.64,1221.32 "/>
<polygon class="st47" points="1239.92,324.05 1193.26,357.46 1187.65,300.35 1182.04,243.23 1234.31,266.93 1286.58,290.63 "/>
<polygon class="st3" points="555.15,814.12 495.37,846.81 496.95,778.7 498.52,710.58 556.73,746 614.93,781.43 "/>
<polygon class="st3" points="1378.37,1746.76 1341.04,1767.22 1341.99,1724.66 1342.94,1682.1 1379.32,1704.2 1415.7,1726.3 "/>
<polygon class="st3" points="1639.38,499.42 1608.47,465.93 1652.94,455.91 1697.4,445.89 1683.84,489.4 1670.29,532.92 "/>
<linearGradient id="SVGID_1_" gradientUnits="userSpaceOnUse" x1="1000.6175" y1="855.8943" x2="1000.6175" y2="1042.4604">
	<stop  offset="0" style="stop-color:#FDA979"/>
	<stop  offset="0.1202" style="stop-color:#D68F66"/>
	<stop  offset="0.3653" style="stop-color:#8B5D42"/>
	<stop  offset="0.5847" style="stop-color:#4F3526"/>
	<stop  offset="0.7701" style="stop-color:#241811"/>
	<stop  offset="0.9145" style="stop-color:#0A0705"/>
	<stop  offset="1" style="stop-color:#000000"/>
</linearGradient>
<path class="st48" d="M1112.3,901.69L1112.3,901.69c-6-26.77-29.77-45.79-57.2-45.79l0,0c-21.22,0-40.79,11.47-51.16,29.99
	l-0.06,0.1c-1.71,3.06-4.65,3.41-6.3,0.48l-0.32-0.58c-10.37-18.52-29.93-29.99-51.16-29.99h0c-27.43,0-51.2,19.02-57.2,45.79h0
	c-4.88,21.74-0.84,44.21,10.47,62.48c8.03,12.97,18.69,28.78,40.34,45.5c17.95,13.86,37.73,25.44,59.58,32.56
	c0.04,0.01,0.08,0.03,0.13,0.04c0.8,0.26,1.67,0.26,2.48,0c0,0,0.01,0,0.01,0c21.41-6.97,40.72-18.36,58.52-31.65
	c21.26-15.88,35.01-36.23,41.4-46.43C1113.26,945.94,1117.19,923.49,1112.3,901.69z"/>
</svg>
