<?xml version="1.0" encoding="utf-8"?>
<!-- Generator: Adobe Illustrator 26.1.0, SVG Export Plug-In . SVG Version: 6.00 Build 0)  -->
<svg version="1.1" id="Layer_1" xmlns="http://www.w3.org/2000/svg" xmlns:xlink="http://www.w3.org/1999/xlink" x="0px" y="0px"
	 viewBox="0 0 2000 2127.95" style="enable-background:new 0 0 2000 2127.95;" xml:space="preserve">
<style type="text/css">
	.st0{fill:#222433;}
	.st1{fill:#FFFFFF;}
	.st2{fill:#007575;}
	.st3{fill:#FDA979;}
	.st4{fill:#752F06;}
	.st5{fill:#15C2C1;}
	.st6{fill:#FF7F36;}
	.st7{fill:#0C0775;}
	.st8{fill:none;stroke:#222433;stroke-width:2.8346;stroke-miterlimit:10;stroke-dasharray:5.6693,5.6693;}
	.st9{fill:none;stroke:#FFFFFF;stroke-width:5.6693;stroke-miterlimit:10;stroke-dasharray:5.6693,5.6693;}
	.st10{fill:#C35515;}
	.st11{fill:none;stroke:#FFFFFF;stroke-width:2.8346;stroke-miterlimit:10;stroke-dasharray:5.6693,5.6693;}
	.st12{fill:#606060;}
	.st13{fill:#70D9D9;}
	.st14{fill:#222433;stroke:#FF7F36;stroke-width:2.5438;stroke-miterlimit:10;}
	.st15{fill:none;stroke:#FF7F36;stroke-width:55.2533;stroke-miterlimit:10;}
	.st16{fill:#222433;stroke:#FF7F36;stroke-width:2.2146;stroke-miterlimit:10;}
	.st17{fill:#222433;stroke:#FF7F36;stroke-width:2.6224;stroke-miterlimit:10;}
	.st18{fill:#2B292D;}
	.st19{fill:none;stroke:#FF7F36;stroke-width:6.974;stroke-miterlimit:10;}
	.st20{fill:none;stroke:#007575;stroke-width:3.0392;stroke-linecap:round;stroke-miterlimit:10;}
	.st21{fill:#FF7F36;stroke:#222433;stroke-miterlimit:10;}
	.st22{fill:#82B1FF;}
	.st23{fill:#222433;stroke:#FFFFFF;stroke-width:2.2146;stroke-miterlimit:10;}
	.st24{fill:none;stroke:#FF7F36;stroke-width:2.2146;stroke-linecap:round;stroke-miterlimit:10;}
	.st25{fill:none;stroke:#FFFFFF;stroke-miterlimit:10;}
	.st26{fill:#C35515;stroke:#222433;stroke-width:5.6693;stroke-miterlimit:10;}
	.st27{fill:none;stroke:#313341;stroke-width:1.2723;stroke-miterlimit:10;}
	.st28{fill:none;}
	.st29{fill:#222433;stroke:#FF7F36;stroke-width:2.9089;stroke-miterlimit:10;}
	.st30{fill:#222433;stroke:#FF7F36;stroke-width:2.287;stroke-miterlimit:10;}
	.st31{fill-rule:evenodd;clip-rule:evenodd;fill:#FF7F36;}
	.st32{fill:#222433;stroke:#FF7F36;stroke-width:2.0175;stroke-miterlimit:10;}
	.st33{fill:#FF7F36;stroke:#FF7F36;stroke-width:2.0175;stroke-miterlimit:10;}
	.st34{fill:#222433;stroke:#222433;stroke-width:0.474;stroke-miterlimit:10;}
	.st35{fill:#15C2C1;stroke:#15C2C1;stroke-miterlimit:10;}
	.st36{fill:#222433;stroke:#FF7F36;stroke-width:2.006;stroke-miterlimit:10;}
	.st37{fill:none;stroke:#FF7F36;stroke-width:2.9439;stroke-miterlimit:10;}
	.st38{fill:#222433;stroke:#FF7F36;stroke-width:2.9305;stroke-miterlimit:10;}
	.st39{fill:none;stroke:#C35515;stroke-width:5.6693;stroke-linecap:round;stroke-miterlimit:10;}
	.st40{fill:#222433;stroke:#007575;stroke-width:2.6235;stroke-miterlimit:10;}
	.st41{fill:#222433;stroke:#FF7F36;stroke-width:2.4344;stroke-miterlimit:10;}
	.st42{fill:#222433;stroke:#222433;stroke-width:2.6235;stroke-miterlimit:10;}
	.st43{fill:none;stroke:#C35515;stroke-width:7.2469;stroke-linecap:round;stroke-miterlimit:10;}
	.st44{fill:#FF7F36;stroke:#FF7F36;stroke-width:1.0653;stroke-miterlimit:10;}
	.st45{fill:none;stroke:#FF7F36;stroke-width:8.5928;stroke-miterlimit:10;}
	.st46{fill:none;stroke:#FF7F36;stroke-width:7.5694;stroke-miterlimit:10;}
	.st47{opacity:0.75;fill:#70D9D9;}
	.st48{fill:url(#SVGID_1_);}
	.st49{opacity:0.86;fill:none;stroke:#FFFFFF;stroke-width:2.2677;stroke-miterlimit:10;stroke-dasharray:11.3386,11.3386;}
	.st50{opacity:0.75;fill:#007575;}
	.st51{fill:url(#SVGID_00000111889635445386277850000017144389792352919969_);}
	.st52{fill:url(#SVGID_00000022554239069953590530000009240618656010308742_);}
</style>
<polygon class="st50" points="431.58,1669.44 350.03,1647.09 410.16,1587.64 470.28,1528.18 491.71,1609.98 513.14,1691.78 "/>
<polygon class="st50" points="1621.17,1318.84 1552.42,1368.08 1544.16,1283.92 1535.9,1199.77 1612.91,1234.69 1689.92,1269.61 "/>
<polygon class="st50" points="1244.36,329.06 1197.7,362.48 1192.09,305.36 1186.48,248.25 1238.75,271.95 1291.02,295.65 "/>
<polygon class="st3" points="559.59,819.13 499.81,851.83 501.38,783.71 502.96,715.6 561.16,751.02 619.36,786.44 "/>
<polygon class="st3" points="1382.81,1751.78 1345.48,1772.23 1346.43,1729.68 1347.37,1687.12 1383.75,1709.22 1420.14,1731.32 "/>
<polygon class="st3" points="1643.82,504.44 1612.91,470.94 1657.37,460.92 1701.83,450.9 1688.28,494.42 1674.73,537.93 "/>
<linearGradient id="SVGID_1_" gradientUnits="userSpaceOnUse" x1="999.8768" y1="855.8943" x2="999.8768" y2="1042.4604">
	<stop  offset="0" style="stop-color:#825B47"/>
	<stop  offset="0.0109" style="stop-color:#7C5744"/>
	<stop  offset="0.0805" style="stop-color:#5B4032"/>
	<stop  offset="0.1583" style="stop-color:#3F2C22"/>
	<stop  offset="0.2448" style="stop-color:#271C16"/>
	<stop  offset="0.344" style="stop-color:#160F0C"/>
	<stop  offset="0.4635" style="stop-color:#090605"/>
	<stop  offset="0.6241" style="stop-color:#020101"/>
	<stop  offset="1" style="stop-color:#000000"/>
</linearGradient>
<path class="st48" d="M1111.56,901.69L1111.56,901.69c-6-26.77-29.77-45.79-57.2-45.79l0,0c-21.22,0-40.79,11.47-51.16,29.99
	l-0.06,0.1c-1.71,3.06-4.65,3.41-6.3,0.48l-0.32-0.58c-10.37-18.52-29.93-29.99-51.16-29.99h0c-27.43,0-51.2,19.02-57.2,45.79h0
	c-4.88,21.74-0.84,44.21,10.47,62.48c8.03,12.97,18.69,28.78,40.34,45.5c17.95,13.86,37.73,25.44,59.58,32.56
	c0.04,0.01,0.08,0.03,0.13,0.04c0.8,0.26,1.67,0.26,2.48,0c0,0,0.01,0,0.01,0c21.41-6.97,40.72-18.36,58.52-31.65
	c21.26-15.88,35.01-36.23,41.4-46.43C1112.52,945.94,1116.45,923.49,1111.56,901.69z"/>
</svg>
