<?xml version="1.0" encoding="utf-8"?>
<!-- Generator: Adobe Illustrator 26.1.0, SVG Export Plug-In . SVG Version: 6.00 Build 0)  -->
<svg version="1.1" id="Layer_1" xmlns="http://www.w3.org/2000/svg" xmlns:xlink="http://www.w3.org/1999/xlink" x="0px" y="0px"
	 viewBox="0 0 2000 2113.94" style="enable-background:new 0 0 2000 2113.94;" xml:space="preserve">
<style type="text/css">
	.st0{fill:#222433;}
	.st1{fill:#FFFFFF;}
	.st2{fill:#007575;}
	.st3{fill:#FDA979;}
	.st4{fill:#752F06;}
	.st5{fill:#15C2C1;}
	.st6{fill:#FF7F36;}
	.st7{fill:#0C0775;}
	.st8{fill:none;stroke:#222433;stroke-width:2.8346;stroke-miterlimit:10;stroke-dasharray:5.6693,5.6693;}
	.st9{fill:none;stroke:#FFFFFF;stroke-width:5.6693;stroke-miterlimit:10;stroke-dasharray:5.6693,5.6693;}
	.st10{fill:#C35515;}
	.st11{fill:none;stroke:#FFFFFF;stroke-width:2.8346;stroke-miterlimit:10;stroke-dasharray:5.6693,5.6693;}
	.st12{fill:#606060;}
	.st13{fill:#70D9D9;}
	.st14{fill:#222433;stroke:#FF7F36;stroke-width:2.5438;stroke-miterlimit:10;}
	.st15{fill:none;stroke:#FF7F36;stroke-width:55.2533;stroke-miterlimit:10;}
	.st16{fill:#222433;stroke:#FF7F36;stroke-width:2.2146;stroke-miterlimit:10;}
	.st17{fill:#222433;stroke:#FF7F36;stroke-width:2.6224;stroke-miterlimit:10;}
	.st18{fill:#2B292D;}
	.st19{fill:none;stroke:#FF7F36;stroke-width:6.974;stroke-miterlimit:10;}
	.st20{fill:none;stroke:#007575;stroke-width:3.0392;stroke-linecap:round;stroke-miterlimit:10;}
	.st21{fill:#FF7F36;stroke:#222433;stroke-miterlimit:10;}
	.st22{fill:#82B1FF;}
	.st23{fill:#222433;stroke:#FFFFFF;stroke-width:2.2146;stroke-miterlimit:10;}
	.st24{fill:none;stroke:#FF7F36;stroke-width:2.2146;stroke-linecap:round;stroke-miterlimit:10;}
	.st25{fill:none;stroke:#FFFFFF;stroke-miterlimit:10;}
	.st26{fill:#C35515;stroke:#222433;stroke-width:5.6693;stroke-miterlimit:10;}
	.st27{fill:none;stroke:#313341;stroke-width:1.2723;stroke-miterlimit:10;}
	.st28{fill:none;}
	.st29{fill:#222433;stroke:#FF7F36;stroke-width:2.9089;stroke-miterlimit:10;}
	.st30{fill:#222433;stroke:#FF7F36;stroke-width:2.287;stroke-miterlimit:10;}
	.st31{fill-rule:evenodd;clip-rule:evenodd;fill:#FF7F36;}
	.st32{fill:#222433;stroke:#FF7F36;stroke-width:2.0175;stroke-miterlimit:10;}
	.st33{fill:#FF7F36;stroke:#FF7F36;stroke-width:2.0175;stroke-miterlimit:10;}
	.st34{fill:#222433;stroke:#222433;stroke-width:0.474;stroke-miterlimit:10;}
	.st35{fill:#15C2C1;stroke:#15C2C1;stroke-miterlimit:10;}
	.st36{fill:#222433;stroke:#FF7F36;stroke-width:2.006;stroke-miterlimit:10;}
	.st37{fill:none;stroke:#FF7F36;stroke-width:2.9439;stroke-miterlimit:10;}
	.st38{fill:#222433;stroke:#FF7F36;stroke-width:2.9305;stroke-miterlimit:10;}
	.st39{fill:none;stroke:#C35515;stroke-width:5.6693;stroke-linecap:round;stroke-miterlimit:10;}
	.st40{fill:#222433;stroke:#007575;stroke-width:2.6235;stroke-miterlimit:10;}
	.st41{fill:#222433;stroke:#FF7F36;stroke-width:2.4344;stroke-miterlimit:10;}
	.st42{fill:#222433;stroke:#222433;stroke-width:2.6235;stroke-miterlimit:10;}
	.st43{fill:none;stroke:#C35515;stroke-width:7.2469;stroke-linecap:round;stroke-miterlimit:10;}
	.st44{fill:#FF7F36;stroke:#FF7F36;stroke-width:1.0653;stroke-miterlimit:10;}
	.st45{fill:none;stroke:#FF7F36;stroke-width:8.5928;stroke-miterlimit:10;}
	.st46{fill:none;stroke:#FF7F36;stroke-width:7.5694;stroke-miterlimit:10;}
	.st47{opacity:0.75;fill:#70D9D9;}
	.st48{fill:url(#SVGID_1_);}
	.st49{opacity:0.86;fill:none;stroke:#FFFFFF;stroke-width:2.2677;stroke-miterlimit:10;stroke-dasharray:11.3386,11.3386;}
	.st50{opacity:0.75;fill:#007575;}
	.st51{fill:url(#SVGID_00000106867207107689982280000018070199408812098959_);}
	.st52{fill:url(#SVGID_00000046336103093067310490000017894193931958414468_);}
</style>
<path class="st3" d="M1111.5,891.56L1111.5,891.56c-6-26.77-29.77-45.79-57.2-45.79h0c-21.22,0-40.79,11.47-51.16,29.99l-0.06,0.1
	c-1.71,3.06-4.65,3.41-6.3,0.48l-0.32-0.58c-10.37-18.52-29.93-29.99-51.16-29.99h0c-27.43,0-51.2,19.02-57.2,45.79l0,0
	c-4.88,21.74-0.84,44.21,10.47,62.48c8.03,12.97,18.69,28.78,40.34,45.5c17.95,13.86,37.73,25.44,59.58,32.56
	c0.04,0.01,0.08,0.03,0.13,0.04c0.8,0.26,1.67,0.26,2.48,0c0,0,0.01,0,0.01,0c21.41-6.97,40.72-18.36,58.52-31.65
	c21.26-15.88,35.01-36.23,41.4-46.43C1112.46,935.81,1116.39,913.37,1111.5,891.56z"/>
<path class="st3" d="M1193.8,1557.54L1193.8,1557.54c-2.22-9.9-11.01-16.93-21.15-16.93l0,0c-7.85,0-15.08,4.24-18.91,11.09
	l-0.02,0.04c-0.63,1.13-1.72,1.26-2.33,0.18l-0.12-0.21c-3.83-6.85-11.07-11.09-18.91-11.09l0,0c-10.14,0-18.93,7.03-21.15,16.93
	l0,0c-1.8,8.04-0.31,16.35,3.87,23.1c2.97,4.8,6.91,10.64,14.92,16.82c6.64,5.12,13.95,9.41,22.03,12.04c0.01,0,0.03,0.01,0.05,0.02
	c0.3,0.1,0.62,0.1,0.92,0c0,0,0,0,0,0c7.91-2.58,15.06-6.79,21.64-11.7c7.86-5.87,12.95-13.39,15.31-17.17
	C1194.15,1573.91,1195.61,1565.61,1193.8,1557.54z"/>
<path class="st3" d="M379.19,922.18L379.19,922.18c-1.64-7.32-8.14-12.52-15.64-12.52l0,0c-5.8,0-11.15,3.14-13.99,8.2l-0.02,0.03
	c-0.47,0.84-1.27,0.93-1.72,0.13l-0.09-0.16c-2.83-5.06-8.19-8.2-13.99-8.2h0c-7.5,0-14,5.2-15.64,12.52h0
	c-1.33,5.94-0.23,12.09,2.86,17.08c2.2,3.55,5.11,7.87,11.03,12.44c4.91,3.79,10.32,6.96,16.29,8.91c0.01,0,0.02,0.01,0.03,0.01
	c0.22,0.07,0.46,0.07,0.68,0c0,0,0,0,0,0c5.85-1.91,11.14-5.02,16-8.66c5.81-4.34,9.57-9.91,11.32-12.7
	C379.46,934.28,380.53,928.14,379.19,922.18z"/>
<path class="st3" d="M1697.13,657.79L1697.13,657.79c-0.95-4.23-4.7-7.24-9.04-7.24l0,0c-3.35,0-6.44,1.81-8.08,4.74l-0.01,0.02
	c-0.27,0.48-0.74,0.54-0.99,0.08l-0.05-0.09c-1.64-2.93-4.73-4.74-8.08-4.74l0,0c-4.33,0-8.09,3.01-9.04,7.24l0,0
	c-0.77,3.43-0.13,6.99,1.66,9.87c1.27,2.05,2.95,4.55,6.37,7.19c2.84,2.19,5.96,4.02,9.41,5.15c0.01,0,0.01,0,0.02,0.01
	c0.13,0.04,0.26,0.04,0.39,0c0,0,0,0,0,0c3.38-1.1,6.43-2.9,9.25-5c3.36-2.51,5.53-5.72,6.54-7.34
	C1697.29,664.78,1697.91,661.23,1697.13,657.79z"/>
<g transform="translate(397.0 81.0) rotate(0.0 15.5 15.5) translate(0.0 0.0) scale(0.4602411069540947 0.4600771742356783)">
	<path class="st3" d="M191.24,953.32l17.25,57.07c3.01,9.92,10.78,17.68,20.7,20.67l57.07,17.28c3.72,1.12,5.83,5.05,4.7,8.77
		c-0.68,2.25-2.45,4.02-4.7,4.7l-57.07,17.28c-9.92,3-17.69,10.75-20.7,20.67l-17.25,57.07c-1.1,3.73-5.01,5.86-8.74,4.77
		c-2.3-0.68-4.09-2.47-4.77-4.77l-17.28-57.07c-2.99-9.92-10.75-17.68-20.67-20.67l-57.07-17.28c-3.72-1.12-5.83-5.05-4.7-8.77
		c0.68-2.25,2.45-4.02,4.7-4.7l57.07-17.28c9.92-2.99,17.68-10.75,20.67-20.67l17.28-57.07c1.1-3.73,5.01-5.86,8.74-4.77
		C188.77,949.23,190.57,951.02,191.24,953.32z"/>
</g>
<g transform="translate(397.0 81.0) rotate(0.0 15.5 15.5) translate(0.0 0.0) scale(0.4602411069540947 0.4600771742356783)">
	<path class="st3" d="M2280.49,2530.93l9.33,30.88c1.63,5.37,5.83,9.56,11.2,11.19l30.88,9.35c2.01,0.61,3.15,2.73,2.54,4.75
		c-0.37,1.22-1.32,2.17-2.54,2.54l-30.88,9.35c-5.37,1.62-9.57,5.82-11.2,11.19l-9.33,30.88c-0.59,2.02-2.71,3.17-4.73,2.58
		c-1.24-0.37-2.22-1.34-2.58-2.58l-9.35-30.88c-1.62-5.37-5.82-9.57-11.19-11.19l-30.88-9.35c-2.01-0.61-3.15-2.73-2.54-4.75
		c0.37-1.22,1.32-2.17,2.54-2.54l30.88-9.35c5.37-1.62,9.57-5.82,11.19-11.19l9.35-30.88c0.59-2.02,2.71-3.17,4.73-2.58
		C2279.15,2528.71,2280.12,2529.68,2280.49,2530.93z"/>
</g>
<g transform="translate(397.0 81.0) rotate(0.0 15.5 15.5) translate(0.0 0.0) scale(0.4602411069540947 0.4600771742356783)">
	<path class="st3" d="M2794.77-24.13l13.67,45.23c2.39,7.86,8.55,14.01,16.41,16.39l45.23,13.7c2.95,0.89,4.62,4.01,3.73,6.95
		c-0.54,1.79-1.94,3.19-3.73,3.73l-45.23,13.7c-7.86,2.38-14.02,8.52-16.41,16.39l-13.67,45.23c-0.87,2.96-3.97,4.65-6.93,3.78
		c-1.82-0.53-3.25-1.96-3.78-3.78l-13.7-45.23c-2.37-7.86-8.52-14.02-16.39-16.39l-45.24-13.7c-2.95-0.89-4.62-4.01-3.73-6.95
		c0.54-1.79,1.94-3.19,3.73-3.73l45.24-13.7c7.86-2.37,14.02-8.52,16.39-16.39l13.7-45.23c0.87-2.96,3.97-4.65,6.93-3.78
		C2792.82-27.37,2794.24-25.95,2794.77-24.13z"/>
</g>
<g transform="translate(397.0 81.0) rotate(0.0 15.5 15.5) translate(0.0 0.0) scale(0.4602411069540947 0.4600771742356783)">
	<g>
		<g>
			<path class="st13" d="M1794.35,509.88l9.33,30.88c1.63,5.37,5.83,9.56,11.2,11.19l30.88,9.35c2.01,0.61,3.15,2.73,2.54,4.75
				c-0.37,1.22-1.32,2.17-2.54,2.54l-30.88,9.35c-5.37,1.62-9.57,5.82-11.2,11.19l-9.33,30.88c-0.59,2.02-2.71,3.17-4.73,2.58
				c-1.24-0.37-2.22-1.34-2.58-2.58l-9.35-30.88c-1.62-5.37-5.82-9.57-11.19-11.19l-30.88-9.35c-2.01-0.61-3.15-2.73-2.54-4.75
				c0.37-1.22,1.32-2.17,2.54-2.54l30.88-9.35c5.37-1.62,9.57-5.82,11.19-11.19l9.35-30.88c0.59-2.02,2.71-3.17,4.73-2.58
				C1793.01,507.66,1793.99,508.63,1794.35,509.88z"/>
		</g>
	</g>
</g>
<g transform="translate(397.0 81.0) rotate(0.0 15.5 15.5) translate(0.0 0.0) scale(0.4602411069540947 0.4600771742356783)">
	<g>
		<g>
			<path class="st13" d="M1909.91,3531.2l9.33,30.88c1.63,5.37,5.83,9.56,11.2,11.19l30.88,9.35c2.01,0.61,3.15,2.73,2.54,4.75
				c-0.37,1.22-1.32,2.17-2.54,2.54l-30.88,9.35c-5.37,1.62-9.57,5.82-11.2,11.19l-9.33,30.88c-0.59,2.02-2.71,3.17-4.73,2.58
				c-1.24-0.37-2.22-1.34-2.58-2.58l-9.35-30.88c-1.62-5.37-5.82-9.57-11.19-11.19l-30.88-9.35c-2.01-0.61-3.15-2.73-2.54-4.75
				c0.37-1.22,1.32-2.17,2.54-2.54l30.88-9.35c5.37-1.62,9.57-5.82,11.19-11.19l9.35-30.88c0.59-2.02,2.71-3.17,4.73-2.58
				C1908.57,3528.98,1909.54,3529.96,1909.91,3531.2z"/>
		</g>
	</g>
</g>
<g transform="translate(397.0 81.0) rotate(0.0 15.5 15.5) translate(0.0 0.0) scale(0.4602411069540947 0.4600771742356783)">
	<g>
		<g>
			<path class="st13" d="M396.57,2663.99l16,52.93c2.79,9.2,10,16.39,19.2,19.17l52.93,16.03c3.45,1.04,5.4,4.69,4.36,8.14
				c-0.63,2.09-2.27,3.73-4.36,4.36l-52.93,16.03c-9.2,2.78-16.41,9.97-19.2,19.17l-16,52.93c-1.02,3.46-4.64,5.44-8.1,4.42
				c-2.13-0.63-3.8-2.29-4.42-4.42l-16.03-52.93c-2.77-9.2-9.97-16.4-19.17-19.17l-52.93-16.03c-3.45-1.04-5.4-4.69-4.36-8.14
				c0.63-2.09,2.27-3.73,4.36-4.36l52.93-16.03c9.2-2.77,16.4-9.97,19.17-19.17l16.03-52.93c1.02-3.46,4.64-5.44,8.1-4.42
				C394.28,2660.19,395.94,2661.86,396.57,2663.99z"/>
		</g>
	</g>
</g>
</svg>
